<svg width="428" height="426" viewBox="0 0 428 426" fill="none" xmlns="http://www.w3.org/2000/svg">
<path d="M127.128 82.084C127.128 83.3494 127.586 89.2033 128.145 95.0911C133.384 150.312 163.196 198.63 188.385 192.73L127.128 82.084ZM127.128 82.084C127.127 80.0203 125.735 80.7298 113.622 88.9658M127.128 82.084L113.622 88.9658M113.622 88.9658C96.7427 100.443 92.3281 104.315 88.8562 110.69M113.622 88.9658L88.8562 110.69M88.8562 110.69C85.2545 117.304 84.5415 123.727 86.5436 131.537M88.8562 110.69L86.5436 131.537M86.5436 131.537C90.5717 147.25 109.327 176.034 125.761 191.724L86.5436 131.537ZM168.239 76.3149L168.239 76.315C165.986 78.3397 164.15 80.2266 163.036 82.4863C161.892 84.8056 161.576 87.369 162.041 90.6328C162.499 93.8517 163.729 97.827 165.738 103.04C167.754 108.268 170.59 114.832 174.31 123.25C182.693 142.218 188.009 154.845 191.229 163.816C194.452 172.797 195.525 177.985 195.525 182.114C195.525 185.007 194.947 186.905 193.862 188.238C192.771 189.579 190.977 190.582 188.043 191.269C182.297 192.615 176.148 190.911 169.951 186.506C163.749 182.097 157.624 175.061 152.06 166.043C140.938 148.016 132.238 122.357 129.638 94.9494L129.638 94.9492C129.076 89.0278 128.628 83.2605 128.628 82.084V82.0833C128.628 81.7812 128.609 81.3409 128.446 80.9147C128.252 80.4063 127.84 79.8982 127.148 79.6926C126.577 79.5231 126.024 79.6279 125.63 79.7425C125.205 79.866 124.738 80.0703 124.236 80.326C122.268 81.3291 118.794 83.6357 112.779 87.7253L112.779 87.7253C95.9425 99.1731 91.2108 103.23 87.5389 109.972L87.5388 109.972C83.7422 116.945 83.0016 123.76 85.0906 131.91L86.5374 131.539L85.0906 131.91C87.1667 140.008 92.9715 151.298 100.243 162.458C107.533 173.646 116.402 184.862 124.725 192.809C132.584 200.312 136.779 203.277 150.253 210.918C157.535 215.048 162.762 219.009 165.708 222.387C167.186 224.082 168 225.528 168.286 226.687C168.556 227.775 168.364 228.581 167.804 229.255C167.48 229.645 166.563 230.088 164.503 230.025C162.542 229.965 159.937 229.455 156.813 228.487C150.583 226.556 142.573 222.894 134.07 217.873C111.917 204.79 95.579 189.407 85.5869 172.362C81.2268 164.924 77.6187 159.02 74.5942 154.507C71.5841 150.015 69.0958 146.812 66.9684 144.842C64.9126 142.939 62.7412 141.777 60.5555 142.538C59.5156 142.901 58.6877 143.641 58.0131 144.531C57.3387 145.42 56.7526 146.545 56.216 147.829C55.6745 149.124 55.248 150.977 54.9026 153.18C54.5529 155.409 54.2721 158.095 54.0561 161.109C53.624 167.14 53.4468 174.557 53.5137 182.415C53.6473 198.116 54.7565 215.693 56.7934 227.6C64.4633 272.436 90.0492 306.374 123.384 314.896C137.251 318.44 150.391 316.806 163.117 309.964L170.249 306.13L170.829 305.819L170.992 305.181L171.134 304.627C171.482 307.827 172.07 314.449 172.532 320.463C173.146 328.466 174.114 334.109 176.289 338.989C178.474 343.89 181.82 347.892 186.946 352.725C200.423 365.431 218.423 372.01 239.46 372.054C249.201 372.074 257.372 370.972 264.983 368.347C272.595 365.721 279.571 361.597 286.954 355.665C299.74 345.393 313.017 329.869 322.769 315.199C327.648 307.859 331.673 300.69 334.318 294.457C335.64 291.341 336.63 288.429 337.204 285.828C337.774 283.243 337.955 280.868 337.572 278.869C337.377 277.847 336.832 276.769 336.196 275.851C335.552 274.921 334.718 274.016 333.816 273.386C331.635 271.86 328.093 270.296 324.259 268.994C320.397 267.683 316.102 266.592 312.344 266.06C308.723 265.548 306.495 265.29 303.388 266.048C301.831 266.428 300.049 267.064 297.717 268.024C297.885 267.906 298.041 267.789 298.183 267.674C298.433 267.473 298.689 267.239 298.895 266.976C299.073 266.749 299.378 266.296 299.378 265.687C299.378 265.072 299.068 264.63 298.826 264.381C298.586 264.134 298.305 263.961 298.071 263.839C297.848 263.723 297.595 263.617 297.322 263.519L303.755 264.247L304.258 264.304L304.693 264.044L312.835 259.185L312.066 257.896L312.835 259.184C318.272 255.938 324.495 250.889 329.798 245.73C335.068 240.603 339.599 235.204 341.496 231.228C346.017 221.751 347.621 213.464 347.062 202.564C346.776 196.991 345.488 189.179 343.951 182.372C343.18 178.963 342.34 175.774 341.519 173.218C341.109 171.941 340.698 170.802 340.296 169.865C339.906 168.956 339.481 168.131 339.016 167.556C338.226 166.582 337.223 165.727 335.87 165.543C334.531 165.36 333.237 165.888 331.984 166.749C329.524 168.439 326.297 172.072 321.582 177.93C308.102 194.675 294.209 208.251 281.36 217.627C268.461 227.04 256.812 232.076 247.785 232.076C244.695 232.076 243.498 232.023 242.449 231.559C241.363 231.079 240.335 230.117 237.884 227.668C235.73 225.516 234.682 224.326 234.123 223.285C233.62 222.347 233.474 221.452 233.474 219.698C233.474 217.063 233.907 215.105 235.07 213.101C236.27 211.033 238.297 208.827 241.681 205.809L240.682 204.69L241.681 205.809C245.059 202.796 251.345 198.935 259.435 194.851C267.49 190.784 277.224 186.549 287.416 182.765C304.694 176.351 312.461 172.579 319.421 167.08C324.008 163.457 327.04 159.172 328.424 154.143C329.804 149.13 329.51 143.517 327.694 137.287C326.283 132.444 322.798 125.349 319.358 119.51C317.632 116.58 315.885 113.911 314.375 111.959C313.624 110.987 312.9 110.152 312.242 109.545C311.914 109.242 311.567 108.963 311.211 108.752C310.878 108.555 310.397 108.332 309.834 108.332C309.228 108.332 308.757 108.628 308.503 108.814C308.209 109.029 307.931 109.305 307.674 109.594C307.156 110.178 306.573 110.992 305.942 111.978C304.671 113.962 303.092 116.821 301.302 120.386L301.302 120.386C293.815 135.304 287.158 146.089 281.081 153.125C274.973 160.197 269.68 163.219 264.935 163.219C263.061 163.219 261.959 163.073 260.946 162.664C259.906 162.244 258.832 161.495 257.117 160.027L257.117 160.027C254.37 157.678 252.747 155.282 252.078 152.856C251.415 150.45 251.647 147.853 252.9 144.995C255.452 139.179 262.149 132.493 273.417 124.938C281.903 119.248 287.392 115.05 290.741 111.186C294.181 107.218 295.387 103.577 295.362 99.136C295.336 94.7381 294.044 90.7233 290.613 85.623C287.223 80.581 281.685 74.3944 273.094 65.6224L272.022 66.672L273.094 65.6224L261.61 53.8967L261.157 53.434L260.509 53.4466L254.465 53.5643L254.494 55.064L254.465 53.5643C251.059 53.6308 243.782 54.2925 238.266 55.0313C197.712 60.4588 180.088 65.6684 168.239 76.3149ZM171.433 303.461L172.532 299.168C172.326 300.81 172.342 302.12 172.494 303.327L171.433 303.461ZM236.82 130.816C237.554 129.239 238.236 127.843 238.854 126.635C235.108 141.361 228.919 156.824 204.394 214.024C201.335 221.157 198.544 227.682 195.998 233.657C197.371 230.058 198.835 226.224 200.396 222.136C219.323 172.557 230.935 143.45 236.82 130.816Z" stroke="white" stroke-width="3"/>
<path d="M173.77 82.8648L173.465 82.4688L173.77 82.8648C186.9 72.7365 205.481 68.02 254.66 62.5113L254.604 62.0144L254.66 62.5113C258.014 62.1353 259.894 61.9844 261.045 62.0984C261.608 62.1542 261.949 62.2701 262.189 62.4222C262.424 62.5718 262.606 62.7847 262.803 63.1212C262.972 63.412 263.427 63.9475 264.045 64.6247C264.68 65.3208 265.529 66.2121 266.531 67.2357C268.537 69.2836 271.163 71.8706 273.927 74.5037L274.272 74.1417L273.927 74.5037C281.168 81.4001 286.586 87.2574 290.208 92.4322C293.831 97.6091 295.624 102.058 295.684 106.145C295.744 110.215 294.087 114.01 290.629 117.89C287.163 121.78 281.911 125.727 274.842 130.08C263.625 136.987 256.337 143.863 253.259 150.381C251.715 153.652 251.225 156.848 251.849 159.907C252.473 162.964 254.199 165.836 257.002 168.479C260.27 171.562 263.766 173.079 267.483 172.944C271.187 172.808 275.026 171.034 278.999 167.71C286.933 161.07 295.573 148.101 304.983 128.846C305.378 128.039 305.749 127.275 306.1 126.554C307.447 123.782 308.489 121.64 309.364 120.076C309.915 119.091 310.385 118.362 310.809 117.86C311.239 117.351 311.574 117.132 311.839 117.068C312.074 117.012 312.345 117.058 312.719 117.326C313.104 117.603 313.548 118.084 314.084 118.803C314.934 119.944 315.944 121.583 317.259 123.718C317.602 124.274 317.966 124.865 318.353 125.489C328.758 142.261 332.212 153.997 328.006 163.379C325.899 168.079 321.842 172.257 315.623 176.209C309.404 180.162 301.056 183.868 290.418 187.636C264.991 196.643 247.884 205.488 239.383 214.019C235.126 218.291 232.966 222.545 233.085 226.75C233.203 230.96 235.601 234.979 240.14 238.787C243.825 241.88 249.096 242.583 255.301 241.373C261.511 240.163 268.737 237.023 276.445 232.308C291.864 222.876 309.305 207.08 324.533 187.526C327.983 183.095 330.656 179.805 332.804 177.644C333.877 176.564 334.802 175.785 335.611 175.288C336.421 174.791 337.074 174.601 337.62 174.636C338.151 174.669 338.657 174.92 339.172 175.469C339.695 176.027 340.207 176.874 340.727 178.046C341.766 180.393 342.777 183.901 343.999 188.629C348.791 207.168 348.853 221.783 343.548 234.226C338.243 246.671 327.533 257.031 310.593 266.979L305.768 269.813L293.17 268.238C270.687 265.428 252.274 265.115 239.642 267.058C233.332 268.029 228.417 269.569 225.156 271.679C221.876 273.802 220.216 276.547 220.603 279.868C221.109 284.209 224.715 287.196 230.059 288.985C235.419 290.78 242.674 291.429 250.812 291.012C267.093 290.176 287.064 285.062 302.812 276.064C304.325 275.199 306.997 274.885 310.313 275.058C313.599 275.229 317.419 275.873 321.15 276.834C324.881 277.794 328.504 279.067 331.4 280.487C332.847 281.197 334.104 281.939 335.097 282.69C336.096 283.446 336.802 284.19 337.185 284.896C338.014 286.424 338.206 288.626 337.776 291.416C337.348 294.194 336.312 297.488 334.769 301.143C331.683 308.452 326.596 317.136 320.404 325.912C308.011 343.476 291.271 361.299 277.455 369.151C256.737 380.926 230.812 380.42 210.394 372.003C189.959 363.58 175.209 347.321 176.534 327.711C176.68 325.551 176.418 324.117 176.117 322.467C176.061 322.157 176.003 321.839 175.946 321.508C175.587 319.418 175.246 316.676 175.497 311.607L175.527 311.013L174.937 311.086C174.733 311.111 174.642 311.057 174.573 310.976C174.476 310.859 174.372 310.616 174.327 310.168C174.238 309.279 174.404 307.872 174.83 305.967C175.678 302.178 177.506 296.629 180.051 289.793C185.136 276.13 193.047 257.418 201.58 237.571C203.777 232.463 206.014 227.279 208.255 222.088C214.718 207.116 221.21 192.079 226.823 178.588C234.377 160.432 240.358 145.035 242.533 136.358C243.411 132.856 243.926 130.347 244.088 128.801C244.129 128.412 244.149 128.074 244.145 127.791C244.141 127.516 244.115 127.259 244.045 127.049C243.979 126.85 243.826 126.563 243.485 126.483C243.174 126.41 242.908 126.562 242.749 126.68C242.411 126.93 242.031 127.421 241.615 128.063C241.187 128.724 240.684 129.605 240.11 130.694C238.962 132.874 237.515 135.919 235.792 139.771C228.901 155.181 217.553 183.634 203.229 221.818C198.316 234.916 193.91 246.35 190.061 256.308C189.603 257.494 189.152 258.66 188.709 259.805C185.436 268.269 182.599 275.606 180.231 281.944C177.543 289.137 175.457 295.052 174.024 299.868C172.634 304.543 171.849 308.216 171.74 311.035C150.521 327.236 123.626 325.636 101.278 308.922C78.8555 292.152 61.016 260.152 58.2622 215.68C57.2152 198.772 56.8252 185.261 57.1335 175.048C57.4427 164.806 58.4535 157.96 60.1568 154.321C61.007 152.504 61.9752 151.602 63.0057 151.368C64.0407 151.134 65.3296 151.53 66.9266 152.776C70.1212 155.27 74.1484 160.856 79.0499 169.543C88.8018 186.826 90.9212 190.015 97.833 197.748C111.046 212.532 131.628 226.404 147.721 233.876C151.748 235.745 155.502 237.218 158.798 238.205C162.086 239.19 164.948 239.7 167.179 239.619C169.395 239.539 171.135 238.865 171.927 237.316C172.701 235.8 172.452 233.652 171.25 230.915L170.793 231.116L171.25 230.915C170.8 229.888 169.863 228.686 168.61 227.405C167.349 226.114 165.734 224.711 163.885 223.284C160.188 220.43 155.53 217.461 150.838 215.093C132.529 205.851 118.802 192.088 102.105 166.139C91.7537 150.052 86.9623 138.258 87.7175 128.462C88.4688 118.716 94.7297 110.802 106.923 102.514C110.21 100.28 116.614 95.9383 121.155 92.8656L128.663 87.7865L128.818 92.4606C129.757 120.804 137.785 148.809 148.974 169.28C154.568 179.514 160.964 187.889 167.682 193.478C174.398 199.066 181.483 201.907 188.423 200.957C192.704 200.371 195.948 199.202 197.865 196.71C199.784 194.213 200.271 190.525 199.393 185.166C198.514 179.796 196.245 172.636 192.506 163.087C188.765 153.532 183.541 141.557 176.736 126.547C173.156 118.65 170.463 112.513 168.617 107.606C166.77 102.693 165.786 99.0489 165.601 96.1291C165.417 93.2332 166.017 91.0521 167.356 89.0425C168.711 87.0083 170.839 85.1257 173.77 82.8648ZM224.305 278.644C224.474 276.801 225.963 275.133 228.922 273.733C231.864 272.341 236.13 271.281 241.561 270.595C252.415 269.224 267.787 269.362 286.185 271.21C293.635 271.959 297.522 272.381 299.26 272.799C299.615 272.885 299.85 272.963 299.996 273.03C299.992 273.034 299.988 273.038 299.984 273.041C299.841 273.167 299.624 273.318 299.329 273.505C287.224 281.211 268.047 285.895 252.036 286.882C244.032 287.375 236.869 286.941 231.807 285.525C229.274 284.817 227.31 283.874 226.027 282.715C224.761 281.573 224.16 280.228 224.305 278.644ZM300.148 273.119C300.148 273.119 300.147 273.117 300.144 273.115C300.148 273.118 300.149 273.119 300.148 273.119Z" fill="#007C77" stroke="#017260"/>
</svg>
