<svg width="1365" height="614" viewBox="0 0 1365 614" fill="none" xmlns="http://www.w3.org/2000/svg">
<path fill-rule="evenodd" clip-rule="evenodd" d="M692.782 36.6101C887.468 30.0568 1123.03 -29.5935 1262.89 18.7435C1409.88 69.5475 1236.03 159.123 1256.51 231.444C1270.64 281.336 1363.94 323.107 1363.28 373.248C1362.37 441.271 1390.2 521.068 1252.04 568.399C1112.71 616.129 877.318 624.092 692.782 602.941C523.03 583.485 476.096 508.098 346.726 464.637C242.535 429.634 61.6028 422.133 12.4322 374.38C-36.955 326.418 74.8097 278.536 103.594 228.518C137.69 169.27 70.6687 95.6048 196.434 54.6409C321.834 13.796 523.057 42.3231 692.782 36.6101Z" fill="#DCB1A8"/>
</svg>
