<svg width="914" height="570" viewBox="0 0 914 570" fill="none" xmlns="http://www.w3.org/2000/svg">
<path fill-rule="evenodd" clip-rule="evenodd" d="M463.885 33.9865C594.246 27.9029 751.978 -27.4728 845.626 17.4003C944.053 64.5636 827.641 147.72 841.354 214.858C850.814 261.175 913.291 299.953 912.845 346.5C912.241 409.649 930.874 483.727 838.359 527.667C745.067 571.976 587.449 579.369 463.885 559.734C350.22 541.672 318.793 471.687 232.167 431.341C162.401 398.846 41.2491 391.882 8.32457 347.552C-24.745 303.026 50.0924 258.576 69.3661 212.142C92.1966 157.14 47.3195 88.7536 131.532 50.7253C215.499 12.8074 350.237 39.2902 463.885 33.9865Z" fill="#F3E6E1"/>
<path fill-rule="evenodd" clip-rule="evenodd" d="M462.76 280.141C460.182 281.948 459.75 283.744 461.894 283.744C463.784 283.744 467.225 279.881 466.005 279.127C465.48 278.802 464.02 279.258 462.76 280.141ZM450.675 280.651C448.493 281.923 448.195 284.803 450.246 284.803C452.056 284.803 455.414 281.157 454.472 280.216C453.539 279.283 452.897 279.357 450.675 280.651ZM452.214 290.665C448.661 294.219 447.722 295.778 448.602 296.658C449.934 297.991 453.058 296.086 453.058 293.942C453.058 293.285 454.844 291.216 457.028 289.345C460.132 286.686 460.564 285.934 459.006 285.903C457.911 285.881 454.853 288.023 452.214 290.665ZM442.941 288.073C442.55 288.707 442.74 289.735 443.364 290.359C444.685 291.681 448.122 289.418 447.16 287.861C446.354 286.556 443.799 286.686 442.941 288.073ZM462.852 288.246C463.095 288.975 464.167 289.57 465.235 289.57C466.302 289.57 467.375 288.975 467.617 288.246C467.897 287.407 467.023 286.922 465.235 286.922C463.446 286.922 462.573 287.407 462.852 288.246ZM457.999 292.925C456.982 293.941 457.129 297.514 458.188 297.514C459.213 297.514 462.587 293.998 462.587 292.929C462.587 292.007 458.919 292.004 457.999 292.925ZM439.404 294.732C437.962 296.469 438.943 299.633 440.923 299.633C442.534 299.633 443.988 295.939 443.005 294.346C442.094 292.874 440.834 293.008 439.404 294.732ZM465.976 294.548C464.515 296.01 464.275 298.573 465.6 298.573C467.017 298.573 470.08 294.771 469.296 293.986C468.272 292.963 467.416 293.108 465.976 294.548ZM444.798 299.845C444.1 300.544 443.528 302.009 443.528 303.1C443.528 306.329 447.178 304.864 447.568 301.477C447.925 298.385 446.876 297.766 444.798 299.845ZM453.764 300.339C452.729 301.374 452.902 304.929 453.987 304.929C454.498 304.929 455.492 304.235 456.196 303.387C458.077 301.119 455.816 298.286 453.764 300.339ZM460.872 303.289C460.548 304.136 460.605 305.351 460.999 305.989C461.904 307.453 464.705 305.354 464.705 303.211C464.705 301.27 461.622 301.334 460.872 303.289ZM436.731 304.465C434.71 306.486 434.517 310.225 436.433 310.225C438.377 310.225 440.351 308.015 440.351 305.839C440.351 303.172 438.663 302.531 436.731 304.465ZM450.469 310.161C448.243 312.621 449.029 315.839 451.731 315.324C453.761 314.937 454.874 310.559 453.334 309.019C452.758 308.442 451.61 308.9 450.469 310.161ZM441.093 309.835C439.958 310.971 440.21 315.31 441.457 316.08C443.158 317.131 445.785 314.382 445.432 311.918C445.115 309.709 442.483 308.446 441.093 309.835ZM457.816 310.235C456.989 311.575 458.179 315.521 459.411 315.521C460.642 315.521 461.832 311.575 461.005 310.235C460.642 309.647 459.924 309.166 459.411 309.166C458.897 309.166 458.179 309.647 457.816 310.235ZM433.151 316.792C431.563 318.381 431.502 321.518 433.041 322.469C434.909 323.624 437.486 320.289 436.682 317.758C435.875 315.213 434.975 314.967 433.151 316.792ZM456.94 320.465C455.745 321.66 456.157 324.732 457.682 325.997C458.781 326.909 459.439 326.826 460.417 325.648C462.788 322.79 459.506 317.897 456.94 320.465ZM446.639 323.638C445.928 325.509 445.922 326.814 446.62 327.512C448.166 329.059 450.94 326.375 450.94 323.336C450.94 319.876 447.99 320.084 446.639 323.638ZM437.881 322.583C436.617 323.847 437.138 328.232 438.551 328.232C440.515 328.232 442.469 326.014 442.469 323.783C442.469 321.914 439.361 321.101 437.881 322.583ZM431.967 327.599C430.326 329.576 430.878 332.999 432.839 332.999C435.457 332.999 436.824 329.547 434.948 327.67C433.473 326.194 433.138 326.186 431.967 327.599ZM456.931 330.006C456.028 330.911 456.028 336.146 456.931 337.05C457.988 338.107 460.47 335.636 460.47 333.528C460.47 331.421 457.988 328.95 456.931 330.006ZM437.23 332.932C435.75 334.715 436.529 339.884 438.276 339.884C440.478 339.884 441.912 334.636 440.183 332.907C438.752 331.476 438.436 331.478 437.23 332.932ZM445.002 335.195C444.614 336.741 444.838 338.44 445.518 339.121C447.338 340.941 450.296 337.566 449.389 334.706C448.408 331.613 445.829 331.902 445.002 335.195Z" fill="#A5C2DF"/>
<path fill-rule="evenodd" clip-rule="evenodd" d="M545.489 216.271C539.491 219.465 537.087 221.74 538.348 223.03C539.349 224.053 548.653 218.845 551.426 215.708C554.606 212.114 553.011 212.265 545.489 216.271ZM567.733 214.244C566.162 215.282 566.349 215.531 568.704 215.548C570.305 215.559 571.617 214.972 571.617 214.244C571.617 212.585 570.243 212.585 567.733 214.244ZM547.666 222.982C544.105 225.523 536.981 230.071 531.833 233.087C519.517 240.304 520.707 240.975 533.841 234.223C539.558 231.282 544.437 229.492 544.681 230.244C545.469 232.658 555.525 224.141 555.525 221.061C555.525 217.435 555.392 217.467 547.666 222.982ZM552.197 228.98C548.28 231.923 539.728 237.286 533.193 240.901L521.309 247.47L523.299 252.371C537.847 288.214 544.064 291.672 566.667 276.498C587.444 262.55 588.057 260.407 576.35 242.725C563.352 223.091 561.464 222.017 552.197 228.98ZM526.951 227.3C522.482 230.122 517.538 235.427 519.376 235.427C521.467 235.427 532.777 227.631 532.777 226.189C532.777 224.244 531.361 224.514 526.951 227.3ZM535.937 236.162C533.524 238.14 533.54 238.164 536.337 236.778C537.939 235.984 539.25 235.057 539.25 234.719C539.25 233.706 538.578 233.999 535.937 236.162ZM531.482 238.737C531.482 239.101 531.774 239.399 532.13 239.399C532.486 239.399 532.777 239.101 532.777 238.737C532.777 238.373 532.486 238.075 532.13 238.075C531.774 238.075 531.482 238.373 531.482 238.737ZM536.227 266.848C542.452 279.337 543.286 284.828 537.547 275.531C532.952 268.088 525.004 251.671 525.038 249.693C525.088 246.775 529.906 254.161 536.227 266.848ZM491.497 268.405C487.78 270.812 505.751 276.412 517.318 276.45C528.085 276.486 531.497 269.75 521.561 268.071C514.232 266.833 493.57 267.062 491.497 268.405Z" fill="#F2AA4B"/>
<path fill-rule="evenodd" clip-rule="evenodd" d="M666.699 87.3794C673.344 88.6339 683.838 91.5061 690.02 93.7627L701.258 97.8662V102.945C701.258 109.289 702.959 111.12 704.081 105.986C707.878 88.6168 767.224 150.932 767.224 172.287C767.224 188.633 708.873 208.994 703.373 194.567C702.179 191.438 701.557 190.921 700.631 192.291C699.166 194.458 695.84 193.029 688.334 187.008L683.406 183.055L685.329 177.95C691.507 161.543 693.143 132.217 688.616 119.004C687.159 114.755 685.96 110.042 685.95 108.533C685.93 105.328 684.972 105.104 681.958 107.6C680.271 108.998 678.755 109.143 675.303 108.237C661.6 104.642 645.309 117.622 642.573 134.316C641.32 141.955 639.513 139.427 638.395 128.472C637.64 121.071 637.8 120.438 641.155 117.594C645.168 114.191 647.265 105.656 647.279 92.685C647.288 83.6331 647.113 83.6806 666.699 87.3794ZM661.946 96.6471C661.946 98.3234 662.545 99.6949 663.278 99.6949C664.011 99.6949 664.611 98.3234 664.611 96.6471C664.611 94.9708 664.011 93.5993 663.278 93.5993C662.545 93.5993 661.946 94.9708 661.946 96.6471ZM675.922 111.515C696.663 120.564 691.345 175.608 667.752 196.069C641.588 218.761 593.004 231.978 604.609 213.247C609.055 206.073 626.148 191.815 627.838 193.871C630.353 196.934 631.295 196.518 631.295 192.341C631.295 190.326 633.686 184.429 636.61 179.236C641.272 170.95 642.179 167.927 644.008 154.555C649.192 116.649 658.602 103.959 675.922 111.515ZM705.923 124.077C705.923 126.089 706.522 127.734 707.255 127.734C707.988 127.734 708.588 126.089 708.588 124.077C708.588 122.066 707.988 120.42 707.255 120.42C706.522 120.42 705.923 122.066 705.923 124.077ZM651.285 132.611C651.285 134.622 651.884 136.268 652.617 136.268C653.35 136.268 653.95 134.622 653.95 132.611C653.95 130.599 653.35 128.954 652.617 128.954C651.884 128.954 651.285 130.599 651.285 132.611ZM673.939 136.878C673.939 139.225 674.539 141.145 675.272 141.145C676.005 141.145 676.605 139.225 676.605 136.878C676.605 134.531 676.005 132.611 675.272 132.611C674.539 132.611 673.939 134.531 673.939 136.878ZM736.573 141.145C736.573 145.053 738.427 146.058 739.762 142.873C741.132 139.606 740.664 137.487 738.572 137.487C737.239 137.487 736.573 138.706 736.573 141.145ZM720.582 141.073C720.582 142.375 721.181 143.778 721.914 144.193C722.67 144.62 723.247 143.595 723.247 141.826C723.247 140.111 722.647 138.706 721.914 138.706C721.181 138.706 720.582 139.771 720.582 141.073ZM701.225 147.29C699.971 149.145 701.738 154.804 703.296 153.923C704.947 152.991 704.986 147.608 703.349 146.683C702.667 146.297 701.711 146.57 701.225 147.29ZM676.605 158.212C676.605 160.224 677.164 161.87 677.848 161.87C679.467 161.87 681.016 157.372 679.944 155.785C678.313 153.372 676.605 154.615 676.605 158.212ZM651.285 160.722C651.285 162.899 651.84 164.138 652.617 163.698C653.35 163.284 653.95 161.606 653.95 159.969C653.95 158.332 653.35 156.993 652.617 156.993C651.884 156.993 651.285 158.672 651.285 160.722ZM729.91 160.579C729.91 161.881 730.51 163.284 731.243 163.698C731.998 164.126 732.575 163.101 732.575 161.332C732.575 159.617 731.976 158.212 731.243 158.212C730.51 158.212 729.91 159.277 729.91 160.579ZM714.451 161.138C713.964 162.301 714.224 163.856 715.03 164.593C716.096 165.568 716.738 165.358 717.383 163.82C717.871 162.657 717.611 161.103 716.805 160.365C715.739 159.39 715.096 159.601 714.451 161.138ZM753.559 160.955C752.807 163 753.937 166.746 755.307 166.746C757.184 166.746 758.106 164.397 757.225 161.859C756.276 159.123 754.403 158.661 753.559 160.955ZM709.92 175.28C709.92 178.877 711.629 180.12 713.26 177.707C714.332 176.12 712.783 171.623 711.164 171.623C710.48 171.623 709.92 173.268 709.92 175.28ZM693.929 176.427C693.929 177.729 694.478 179.103 695.148 179.482C696.609 180.309 697.783 177.728 696.922 175.585C695.969 173.216 693.929 173.791 693.929 176.427ZM669.941 180.228C669.941 182.404 670.497 183.644 671.274 183.204C672.007 182.79 672.607 181.112 672.607 179.475C672.607 177.838 672.007 176.499 671.274 176.499C670.541 176.499 669.941 178.178 669.941 180.228ZM653.95 181.985C653.95 183.661 654.549 185.033 655.282 185.033C656.015 185.033 656.615 183.661 656.615 181.985C656.615 180.309 656.015 178.937 655.282 178.937C654.549 178.937 653.95 180.309 653.95 181.985ZM745.502 181.791C745.125 182.69 745.335 184.194 745.97 185.133C747.525 187.434 750.577 184.747 749.452 182.067C748.47 179.726 746.427 179.583 745.502 181.791ZM729.91 183.742C729.91 185.044 730.51 186.447 731.243 186.861C731.998 187.289 732.575 186.264 732.575 184.495C732.575 182.78 731.976 181.375 731.243 181.375C730.51 181.375 729.91 182.44 729.91 183.742ZM716.584 191.056C716.584 192.358 717.133 193.732 717.803 194.111C719.264 194.938 720.438 192.357 719.577 190.214C718.624 187.845 716.584 188.421 716.584 191.056ZM685.933 190.519C685.933 190.854 685.633 191.128 685.267 191.128C684.9 191.128 684.6 190.854 684.6 190.519C684.6 190.184 684.9 189.909 685.267 189.909C685.633 189.909 685.933 190.184 685.933 190.519ZM681.558 197.104C645.629 233.597 642.714 235.594 633.522 230.025C624.91 224.806 625.363 224.024 641.853 215.617C658.47 207.146 657.626 207.401 658.188 210.683C658.803 214.277 661.279 213.063 661.279 209.166C661.279 204.13 678.265 190.533 681.936 192.632C684.459 194.072 684.451 194.166 681.558 197.104ZM643.289 203.929C643.289 205.605 643.888 206.977 644.621 206.977C645.354 206.977 645.954 205.605 645.954 203.929C645.954 202.253 645.354 200.881 644.621 200.881C643.888 200.881 643.289 202.253 643.289 203.929ZM620.634 211.244C620.634 212.92 621.234 214.291 621.967 214.291C622.699 214.291 623.299 212.92 623.299 211.244C623.299 209.567 622.699 208.196 621.967 208.196C621.234 208.196 620.634 209.567 620.634 211.244ZM641.956 227.702C641.956 231.299 643.665 232.542 645.296 230.129C646.367 228.542 644.819 224.044 643.199 224.044C642.516 224.044 641.956 225.69 641.956 227.702ZM561.998 283.171C561.998 283.507 561.698 283.781 561.332 283.781C560.965 283.781 560.665 283.507 560.665 283.171C560.665 282.836 560.965 282.562 561.332 282.562C561.698 282.562 561.998 282.836 561.998 283.171ZM559.333 284.39C559.333 284.726 559.033 285 558.666 285C558.3 285 558 284.726 558 284.39C558 284.055 558.3 283.781 558.666 283.781C559.033 283.781 559.333 284.055 559.333 284.39Z" fill="#ED4865"/>
<path fill-rule="evenodd" clip-rule="evenodd" d="M590.955 41.4853C551.712 59.2693 564.373 126.757 607.918 131.906C615.284 132.777 619.748 135.71 622.365 141.395C623.266 143.352 624.55 144.955 625.219 144.955C630.755 144.955 618.21 130.733 611.705 129.635C602.232 128.035 582.776 117.279 582.776 113.642C582.776 112.22 584.015 112.529 588.13 114.98C591.074 116.734 598.827 119.775 605.359 121.738C618.942 125.819 620.211 126.578 623.675 132.691C625.067 135.146 628.922 140.156 632.241 143.824L638.277 150.494L637.336 161.159C636.208 173.939 635.308 175.349 615.819 194.886C608.283 202.439 600.453 210.583 598.419 212.984C594.25 217.903 584.296 219.095 577.323 215.507C572.945 213.254 567.803 213.265 564.469 215.536C562.148 217.115 561.554 217.097 559.441 215.377C553.281 210.358 521.081 223.798 511.338 235.452L508.742 238.557L515.156 250.18C522.92 264.247 524.795 262.759 498.044 263.756L475.765 264.586L475.335 267.961C474.774 272.336 475.344 272.513 506.301 277.559C520.098 279.808 531.879 282.227 532.483 282.934C533.088 283.64 535.389 286.141 537.599 288.492L541.616 292.767L548.2 291.181C556.129 289.272 580.843 276.245 588.315 270.037C594.486 264.908 595.132 261.265 590.961 255.107C585.161 246.544 597.717 226.261 607.15 228.957C608.692 229.398 611.789 228.866 614.188 227.75C616.545 226.653 618.81 226.059 619.221 226.429C620.561 227.636 616.484 230.972 610.126 233.875C600.95 238.063 597.699 241.589 601.006 243.766C603.359 245.314 603.223 245.536 598.944 247.146C589.119 250.842 589.119 255.355 598.941 257.81C612.34 261.159 621.337 258.245 629.892 247.785C633.116 243.844 638.71 238.497 642.322 235.902C649.6 230.675 674.338 207.966 683.406 198.185L689.227 191.907L697.223 199.412L705.22 206.918L704.004 221.513C703.336 229.54 701.565 242.239 700.068 249.734C690.975 295.292 691.347 335.607 701.355 389.126C702.807 396.887 704.638 408.205 705.426 414.279C706.214 420.353 708.156 432.562 709.744 441.413C713.202 460.685 712.663 463.149 703.997 467.701C698.874 470.392 697.845 471.595 697.158 475.702L696.35 480.536L695.284 476.549C693.3 469.129 688.419 472.122 688.878 480.478C689.08 484.145 688.794 484.963 687.786 483.604C687.035 482.592 686.412 480.244 686.4 478.389C686.377 474.674 684.242 474.073 680.294 476.672C678.365 477.941 677.981 479.244 678.65 482.254C679.195 484.706 679.018 485.9 678.18 485.433C677.441 485.022 676.837 483.652 676.837 482.387C676.837 477.422 658.991 479.484 654.135 485.01C644.233 496.279 654.209 500.674 691.832 501.617C740.257 502.833 741.729 502.268 741.208 482.62C740.343 449.884 739.96 455.183 746.413 410.509C747.883 400.336 750.047 387.36 751.222 381.674L753.361 371.334L778.828 371.158C792.835 371.06 810.737 370.339 818.609 369.555C826.482 368.772 837.217 367.842 842.465 367.49L852.008 366.849L856.449 373.079C860.24 378.399 861.535 379.325 865.31 379.407L869.729 379.504L865.907 380.758C860.263 382.611 861.626 385.899 868.38 386.72L873.819 387.38L869.388 388.35C862.238 389.916 864.489 395.174 872.388 395.358L876.545 395.455L872.797 396.687C863.814 399.64 873.16 418.574 883.598 418.574H888.132L888.385 411.518L888.637 404.463L889.137 410.905C891.234 437.879 894.203 402.458 892.488 370.932C890.694 337.964 889.759 336.843 866.113 339.335C862.104 339.757 855.461 340.424 851.349 340.818C834.586 342.423 779.257 336.268 767.165 331.455L761.006 329.002L761.919 323.789C763.428 315.178 767.968 302.568 777.711 279.924C790.769 249.573 792.016 244.71 792.021 224.096C792.027 204.882 792.008 204.825 779.321 187.286C774.015 179.951 773.076 177.712 772.889 171.949C772.348 155.242 732.183 110.642 705.006 96.5723C697.8 92.8422 694.618 90.2422 690.969 85.1085C669.765 55.2718 614.105 30.9946 590.955 41.4853ZM608.373 67.111C610.31 68.3319 611.403 70.2938 611.403 72.549C611.403 75.068 612.573 76.8251 615.493 78.6975C623.138 83.5968 620.306 99.0324 611.241 101.878C592.97 107.61 567.266 89.3428 584.667 82.9919C594.492 79.4054 600.498 74.5073 600.498 70.084C600.498 64.7896 603.122 63.7994 608.373 67.111ZM632.125 82.5343C641.158 84.2643 641.352 84.5563 641.354 96.4888C641.358 112.338 639.601 114.902 633.178 108.43C631.324 106.562 628.178 103.939 626.187 102.602C623.003 100.462 621.453 81.1515 624.466 81.1515C624.705 81.1515 628.152 81.7735 632.125 82.5343ZM682.971 91.0189C698.559 95.9575 701.436 98.56 701.436 98.56L702.801 99.1737C703.551 99.1737 704.166 100.333 704.166 100.333C704.166 100.333 704.431 99.6483 715.663 107.237C743.297 125.906 765.93 152.765 767.806 169.113L768.565 175.739L761.893 181.513C744.695 196.394 705.355 206.497 703.577 196.488C702.823 192.247 700.011 189.344 700.011 192.807C700.011 195.28 696.73 193.906 689.669 188.476L682.44 182.917L684.385 177.956C691.048 160.956 692.88 129.588 687.873 118.222C686.302 114.654 684.378 114.297 684.378 112.675L680.076 109.576C680.076 109.576 678.97 109.105 675.79 107.991C659.943 102.446 640.031 118.846 640.031 137.443C640.031 143.383 637.337 138.236 636.451 130.602C635.432 121.84 636.522 116.734 639.409 116.734C642.629 116.734 644.266 111.054 645.099 97.0091L645.866 84.0324L658.285 85.5821C665.115 86.4349 676.223 88.8815 682.971 91.0189ZM676.441 111.783C690.347 119.415 691.494 156.154 678.632 182.025C668.236 202.936 612.409 231.147 604.016 219.731L600.356 214.752L608.478 206.541C622.376 192.488 624.596 190.858 625.676 193.919C627.18 198.182 629.125 196.814 629.125 191.495C629.125 188.021 630.308 184.94 633.013 181.372C639.593 172.691 640.047 171.284 642.094 153.253C646.27 116.478 658.372 101.867 676.441 111.783ZM268.419 128.619C266.843 128.899 261.936 131.892 257.514 135.273C253.093 138.652 245.891 143.145 241.51 145.258C225.87 152.8 222.745 161.732 232.435 171.193C237.644 176.28 237.847 176.779 236.992 182.392C235.937 189.323 238.103 191.549 245.986 191.632L250.838 191.682L245.568 195.873C242.054 198.666 236.128 201.312 227.779 203.816C171.978 220.549 141.024 291.466 159.216 360.896C161.249 368.653 162.931 378.04 162.954 381.755C163.206 422.159 183.418 439.101 225.619 434.281C229.747 433.81 231.584 433.864 229.708 434.403C218.195 437.707 211.987 442.475 211.987 448.013C211.987 449.447 211.416 450.302 210.718 449.915C203.734 446.03 210.076 459.667 219.696 469.221C224.602 474.095 231.013 481.232 233.942 485.08C240.371 493.532 246.526 497.954 255.083 500.271C261.904 502.119 281.063 502.617 274.694 500.782C271.663 499.908 271.856 499.786 276.441 499.678C296.077 499.211 296.536 488.684 277.304 479.891C270.393 476.732 269.42 475.772 266.74 469.469C261.858 457.988 263.03 448.496 268.921 451.807C273.092 454.151 285.045 447.836 307.411 431.469C313.034 427.354 327.639 417.182 339.867 408.866C366.239 390.927 384.569 375.706 388.023 368.88C394.013 357.041 387.622 334.982 376.262 328.283L372.858 326.276L376.466 322.424C385.066 313.245 386.143 305.308 378.709 305.902C369 306.677 369.255 290.044 379.111 279.651C389.127 269.089 390.831 264.101 387.14 256.147C384.467 250.391 378.116 249.934 371.409 255.013L367.037 258.325L364.443 255.442C361.187 251.824 361.724 250.323 366.796 248.863C374.526 246.637 381.1 239.405 378.225 236.287C374.59 232.346 364.778 235.152 360.523 241.348L357.813 245.296L353.723 241.856C348.849 237.758 339.409 235.832 336.707 238.383C332.491 242.364 341.86 250.463 350.692 250.471C354.933 250.476 360.575 253.948 360.575 256.553C360.575 257.229 357.796 257.426 353.976 257.018C343.702 255.924 338.804 259.267 343.639 264.076C345.647 266.073 345.312 266.3 338.527 267.539C324.944 270.016 278.114 278.871 275.234 279.508C272.481 280.115 272.337 279.6 271.658 266.843C271.065 255.693 270.114 251.337 265.772 239.893L260.593 226.244L264.07 220.261L267.547 214.28L276.608 213.458C291.557 212.102 303.106 204.012 307.543 191.79C308.441 189.313 311.387 185.555 314.088 183.439C319.302 179.355 319.396 178.854 318.214 161.519C318.076 159.495 318.424 155.798 318.987 153.303C321.038 144.226 316.134 138.843 305.775 138.802C300.841 138.782 298.434 137.729 289.679 131.765C283.856 127.797 277.972 126.926 268.419 128.619ZM626.399 148.022C626.399 148.36 626.705 148.636 627.08 148.636C627.455 148.636 627.762 148.36 627.762 148.022C627.762 147.685 627.455 147.409 627.08 147.409C626.705 147.409 626.399 147.685 626.399 148.022ZM275.434 173.465C277.232 178.935 281.562 180.498 294.981 180.519L306.406 180.538L305.656 185.569C304.053 196.331 291.026 208.728 279.228 210.72C265.462 213.044 254.521 197.657 263.923 189.194C266.925 186.492 267.851 184.779 267.123 183.271C264.507 177.854 264.85 173.505 268.051 171.486C272.595 168.622 273.965 168.989 275.434 173.465ZM684.562 191.172C684.062 191.621 683.653 191.253 683.653 190.354C683.653 189.454 684.062 189.086 684.562 189.535C685.061 189.985 685.061 190.722 684.562 191.172ZM682.641 193.225C686.397 191.136 677.044 200.891 659.809 217.041C638.978 236.559 639.594 236.29 630.42 229.924C621.957 224.052 621.154 225.26 639.69 215.969L655.707 207.94L658.854 206.918C658.854 206.918 658.706 206.043 662.981 203.376C665.779 201.632 670.473 197.985 673.417 195.274C677.797 191.236 678.977 190.681 679.93 192.214C680.571 193.243 681.791 193.698 682.641 193.225ZM256.828 198.425C257.568 200.839 259.812 204.747 261.813 207.109L265.451 211.403L261.341 218.977C259.081 223.141 256.866 227.562 256.42 228.799C254.619 233.786 246.331 222.908 241.707 209.491L240.058 204.701L246.602 199.368C254.527 192.909 255.12 192.855 256.828 198.425ZM236.995 209.065C238.039 210.584 240.31 214.995 242.044 218.87C245.749 227.153 252.084 234.525 255.497 234.525C261.966 234.525 266.517 246.178 267.481 265.2C269.158 298.295 259.451 296.742 242.649 261.227C223.191 220.09 174.097 224.844 185.993 266.714C194.407 296.325 231.515 336.365 250.543 336.365C253.097 336.365 254.733 337.349 256.109 339.715L258.059 343.065L225.822 353.03C208.091 358.511 188.676 364.731 182.678 366.852C167.335 372.279 166.211 372.127 163.607 364.279C146.596 312.986 165.07 245.032 203.126 218.915C219.251 207.849 233.344 203.751 236.995 209.065ZM553.463 217.353C550.719 221.35 536.706 228.252 536.034 225.937C535.217 223.128 536.632 221.935 544.686 218.647C551.31 215.942 554.784 215.43 553.463 217.353ZM574.772 218.162C576.473 220.018 576.356 220.066 573.483 218.688C570.878 217.438 569.744 217.515 567.008 219.129C565.145 220.227 563.692 220.518 563.692 219.79C563.692 218.522 568.325 216.352 571.364 216.198C572.209 216.156 573.742 217.039 574.772 218.162ZM558.239 219.11C558.239 222.285 532.53 237.75 521.353 241.299C511.653 244.379 513.818 242.445 526.022 237.128C532.378 234.36 542.07 229.053 547.561 225.334C557.684 218.48 558.239 218.156 558.239 219.11ZM601.598 223.054C602.431 228.321 589.804 238.206 582.239 238.206C572.428 238.206 573.815 229.567 584.253 225.663C591.03 223.128 592.357 221.775 589.251 220.572C588.315 220.209 590.615 220.025 594.363 220.163C600.195 220.378 601.239 220.796 601.598 223.054ZM573.622 222.623C573.996 223.502 573.527 225.523 572.581 227.115L570.858 230.012L568.52 226.801C567.234 225.036 566.579 223.014 567.063 222.309C568.305 220.499 572.809 220.715 573.622 222.623ZM572.019 236.979C588.766 258.032 588.997 258.44 586.265 262.194C581.769 268.369 547.733 287.286 541.116 287.286C540.024 287.286 518.706 250.52 518.706 248.638C518.706 248.313 522.734 246.402 527.658 244.393C538.038 240.157 553.361 231.238 558.135 226.655C562.767 222.209 560.451 222.704 553.697 227.605C548.251 231.557 539.098 237.037 540.517 235.496C554.033 220.82 559.365 221.071 572.019 236.979ZM531.397 228.485C532.116 230.958 516.751 239.309 514.768 237.524C513.815 236.666 527.331 226.731 530.475 225.979C530.575 225.956 530.99 227.083 531.397 228.485ZM629.02 232.794C638.652 240.088 622.924 255.418 605.861 255.366C594.154 255.329 593.614 252.513 604.587 248.731C617.793 244.18 621.285 239.78 610.651 241.092C603.033 242.032 603.671 240.514 612.608 236.438C616.164 234.816 619.876 232.618 620.857 231.553C623.255 228.953 624.123 229.086 629.02 232.794ZM218.121 238.083C227.68 242.075 233.302 248.794 240.539 264.877C255.041 297.104 282.245 313.351 322.061 313.563L341.484 313.666L341.486 321.168L341.491 328.67L335.015 329.497C304.507 333.39 294.831 334.218 278.783 334.31C237.014 334.549 219.862 323.872 198.228 284.169C179.487 249.773 189.663 226.199 218.121 238.083ZM539.154 236.348C539.154 237.092 523.262 244.363 521.813 244.281C521.228 244.249 524.738 242.343 529.612 240.047C539.474 235.4 539.154 235.523 539.154 236.348ZM583.686 245.159C583.185 245.609 582.776 245.24 582.776 244.341C582.776 243.442 583.185 243.074 583.686 243.523C584.184 243.973 584.184 244.709 583.686 245.159ZM520.069 244.955C520.069 245.292 519.763 245.568 519.388 245.568C519.013 245.568 518.706 245.292 518.706 244.955C518.706 244.617 519.013 244.341 519.388 244.341C519.763 244.341 520.069 244.617 520.069 244.955ZM522.816 251.136C528.512 264.621 544.475 288.359 541.142 278.39C539.368 273.086 524.825 248.805 523.126 248.31C521.807 247.926 521.735 248.579 522.816 251.136ZM386.476 262.795C386.476 265.206 381.285 273.179 377.817 276.092C373.67 279.575 370.118 278.813 370.118 274.44C370.118 272.732 370.037 270.927 369.939 270.429C369.841 269.931 372.554 268.136 375.967 266.442C379.381 264.746 382.63 262.945 383.189 262.439C384.653 261.112 386.476 261.308 386.476 262.795ZM589.592 264.373C589.592 264.593 587.905 266.11 585.843 267.747L582.095 270.721L585.399 267.347C588.488 264.194 589.592 263.41 589.592 264.373ZM526.772 271.416C530.958 278.121 506.212 277.179 486.233 269.872L482.581 268.536L485.989 267.604C487.864 267.091 497.106 266.617 506.527 266.55L523.657 266.427L526.772 271.416ZM350.351 268.881C350.815 269.556 350.887 270.108 350.512 270.108C350.137 270.108 349.452 269.556 348.988 268.881C348.525 268.206 348.452 267.654 348.827 267.654C349.202 267.654 349.888 268.206 350.351 268.881ZM353.168 286.557C355.538 295.06 307.535 310.492 291.644 306.333C245.348 294.219 257.313 285.097 338.764 270.401L344.898 269.294L348.583 276.311C350.609 280.172 352.673 284.781 353.168 286.557ZM364.389 276.55C363.816 287.392 358.545 288.507 354.036 278.74L351.165 272.52L355.529 270.801C364.032 267.45 364.843 267.977 364.389 276.55ZM558.239 284.218C558.239 284.556 557.932 284.832 557.557 284.832C557.182 284.832 556.876 284.556 556.876 284.218C556.876 283.881 557.182 283.605 557.557 283.605C557.932 283.605 558.239 283.881 558.239 284.218ZM555.512 285.445C555.512 285.783 555.206 286.059 554.831 286.059C554.456 286.059 554.149 285.783 554.149 285.445C554.149 285.108 554.456 284.832 554.831 284.832C555.206 284.832 555.512 285.108 555.512 285.445ZM552.786 286.672C552.786 287.01 552.479 287.286 552.104 287.286C551.729 287.286 551.423 287.01 551.423 286.672C551.423 286.335 551.729 286.059 552.104 286.059C552.479 286.059 552.786 286.335 552.786 286.672ZM365.991 294.954L365.954 302.623L357.066 306.197C347.527 310.034 323.904 312.726 317.873 310.665C315.203 309.752 315.518 309.433 321.043 307.451C332.101 303.486 356.169 292.088 358.61 289.661C363.563 284.735 366.032 286.505 365.991 294.954ZM548.696 287.899C548.696 288.237 548.39 288.513 548.015 288.513C547.64 288.513 547.333 288.237 547.333 287.899C547.333 287.562 547.64 287.286 548.015 287.286C548.39 287.286 548.696 287.562 548.696 287.899ZM360.575 310.598L357.663 314.279L360.823 314.239C362.561 314.217 367.35 313.153 371.466 311.875C380.155 309.175 380.583 309.313 378.38 314.1C374.289 322.989 365.109 327.755 352.055 327.769L345.58 327.776V321.222V314.668L353.418 310.911C363.382 306.135 364.132 306.103 360.575 310.598ZM860.256 349.209C864.147 357.588 861.862 361.916 852.982 362.988L847.237 363.682V354.319V344.954H852.759C857.771 344.954 858.464 345.347 860.256 349.209ZM423.964 361.095C417.757 364.15 415.906 370.418 419.831 375.088C422.83 378.657 422.384 379.224 417.171 378.462C411.717 377.666 404.677 379.891 402.83 382.998C401.013 386.053 402.235 386.532 408.583 385.249C419.329 383.076 425.466 386.267 426.953 394.802L427.782 399.555L424.906 397.263C421.133 394.256 410.864 393.28 404.105 395.288C396.66 397.5 397.383 398.486 407.178 399.484C417.219 400.506 422.075 402.558 425.901 407.394C431.701 414.727 430.746 415.166 405.561 416.727C374.101 418.678 365.67 423.532 372.68 435.657C375.219 440.046 378.214 449.036 380.896 460.323C387.109 486.441 387.231 486.751 392.294 488.874C408.869 495.826 462.931 495.63 472.6 488.582C474.841 486.947 476.755 481.323 481.397 462.726C486.817 441.008 487.708 438.605 491.738 434.863C501.368 425.921 485.489 418.754 450.424 416.216C432.42 414.915 431.973 414.639 438.959 409.164C445.515 404.028 451.734 401.396 457.319 401.396C462.68 401.396 462.568 399.529 457.021 396.429C450.912 393.014 444.502 394.179 437.937 399.895L432.825 404.348V400.647C432.825 394.631 446.484 385.553 455.658 385.472C459.321 385.44 459.651 383.28 456.34 381.018C450.676 377.148 438.509 379.833 432.965 386.177L430.138 389.412L427.252 383.441C422.771 374.168 422.361 368.765 425.818 364.557C430.034 359.422 429.477 358.381 423.964 361.095ZM424.475 419.34C429.737 420.288 429.972 421.955 424.986 422.974C422.925 423.394 417.32 424.791 412.532 426.077C405.683 427.915 402.776 428.15 398.9 427.181C391.134 425.24 387.205 425.691 383.84 428.916C380.531 432.086 374.207 431.237 374.207 427.623C374.207 422.932 410.872 416.891 424.475 419.34ZM455.999 419.829C479.526 421.682 493.239 425.729 487.896 429.245C484.433 431.526 481.919 431.259 472.867 427.653C466.632 425.169 463.578 424.626 459.066 425.199C455.879 425.604 450.524 426.283 447.166 426.706C440.106 427.597 434.188 424.994 434.188 420.999C434.188 418.14 434.402 418.128 455.999 419.829ZM244.704 430.23C244.704 430.567 244.397 430.843 244.022 430.843C243.647 430.843 243.34 430.567 243.34 430.23C243.34 429.893 243.647 429.616 244.022 429.616C244.397 429.616 244.704 429.893 244.704 430.23ZM241.523 431.662C241.023 432.111 240.205 432.111 239.705 431.662C239.206 431.212 239.615 430.843 240.614 430.843C241.613 430.843 242.022 431.212 241.523 431.662ZM236.07 432.889C235.57 433.338 234.752 433.338 234.252 432.889C233.753 432.438 234.162 432.07 235.161 432.07C236.16 432.07 236.569 432.438 236.07 432.889ZM257.575 439.613C261.044 443.085 263.659 446.537 263.386 447.281C262.349 450.115 251.89 455.654 249.088 454.854C242.426 452.951 239.271 437.301 245.044 434.794C250.024 432.634 250.965 432.994 257.575 439.613ZM428.735 438.632C453.405 438.583 465.147 438.052 473.667 436.599C486.997 434.327 489.438 434.734 479.078 437.504C455.902 443.699 384.403 441.722 376.551 434.669C375.966 434.143 379.953 434.835 385.411 436.205C394.193 438.411 399.186 438.691 428.735 438.632ZM431.462 443.695C454.41 443.705 467.346 443.198 472.806 442.077C483.255 439.932 483.022 439.081 478.05 461.225C471.963 488.336 471.816 488.459 442.218 491.03C399.614 494.729 390.842 489.654 383.785 457.224C382.17 449.8 380.572 442.853 380.235 441.784C379.675 440.015 380.44 440.014 388.842 441.762C395.858 443.223 406.05 443.684 431.462 443.695ZM735.174 461.824L734.773 470.718L729.344 472.314C718.714 475.441 713.897 470.791 715.678 459.126L716.626 452.929H726.1H735.574L735.174 461.824ZM264.907 473.4C267.258 477.321 266.87 479.7 264.4 476.524C261.681 473.031 256.949 460.673 257.053 457.338C257.096 455.926 258.521 458.359 260.217 462.745C261.914 467.132 264.024 471.927 264.907 473.4ZM257.036 470.046C261.772 480.521 261.944 481.662 258.541 480.022C256.251 478.919 253.166 471.741 250.85 462.132C249.39 456.072 252.539 460.101 257.036 470.046ZM224.43 466.119C226.125 468.065 226.077 468.108 223.915 466.583C221.644 464.979 220.923 463.972 222.044 463.972C222.327 463.972 223.401 464.939 224.43 466.119ZM240.614 485.444C240.614 485.782 240.307 486.058 239.932 486.058C239.557 486.058 239.251 485.782 239.251 485.444C239.251 485.107 239.557 484.831 239.932 484.831C240.307 484.831 240.614 485.107 240.614 485.444ZM251.52 495.26C251.52 495.598 251.213 495.874 250.838 495.874C250.463 495.874 250.156 495.598 250.156 495.26C250.156 494.923 250.463 494.647 250.838 494.647C251.213 494.647 251.52 494.923 251.52 495.26ZM254.246 496.487C254.246 496.825 253.939 497.101 253.564 497.101C253.189 497.101 252.883 496.825 252.883 496.487C252.883 496.15 253.189 495.874 253.564 495.874C253.939 495.874 254.246 496.15 254.246 496.487Z" fill="#007C77"/>
<path fill-rule="evenodd" clip-rule="evenodd" d="M603.574 65.7743C603.126 66.8326 602.76 68.6997 602.76 69.9234C602.76 72.3647 596.068 77.9966 590.729 80.0474C578.808 84.6283 580.207 92.8572 593.886 98.635C614.178 107.207 632.856 91.3367 618.851 77.4261C616.638 75.2293 614.828 72.3696 614.828 71.0729C614.828 65.8388 605.421 61.4087 603.574 65.7743ZM626.369 81.5873C625.921 82.6456 625.555 86.92 625.555 91.0861V98.6618L633.032 104.517C642.587 112.001 643.657 111.195 643.657 96.5222C643.657 82.8706 630.598 71.5886 626.369 81.5873ZM684.554 187.922C684.554 188.591 685.157 189.138 685.895 189.138C686.632 189.138 687.236 188.591 687.236 187.922C687.236 187.253 686.632 186.705 685.895 186.705C685.157 186.705 684.554 187.253 684.554 187.922ZM592.759 218.635C593.133 219.523 591.033 221.189 587.708 222.64C576.526 227.521 575.984 235.361 586.831 235.361C595.965 235.361 607.184 223.775 602.746 218.924C600.687 216.673 591.823 216.418 592.759 218.635ZM622.719 229.112C620.96 230.358 616.956 232.558 613.823 234.002C606.415 237.414 606.314 239.583 613.611 238.524C621.712 237.349 619.843 240.046 609.392 244.609C598.842 249.215 598.165 251.632 607.276 252.159C624.625 253.16 642.104 237.589 632.156 229.995C627.235 226.238 626.829 226.2 622.719 229.112ZM585.329 241.443C585.329 242.112 585.932 242.659 586.67 242.659C587.407 242.659 588.011 242.112 588.011 241.443C588.011 240.774 587.407 240.226 586.67 240.226C585.932 240.226 585.329 240.774 585.329 241.443ZM845.459 350.309V359.432H849.585C854.351 359.432 861.55 353.732 861.55 349.959C861.55 345.318 856.451 341.186 850.725 341.186H845.459V350.309ZM716.459 453.398C715.153 465.494 719.541 470.294 729.642 467.818C735.741 466.324 736.848 464.129 736.848 453.55V448.228H726.932H717.017L716.459 453.398Z" fill="#D89687"/>
<path fill-rule="evenodd" clip-rule="evenodd" d="M270.179 174.08C268.746 175.542 267.956 178.519 267.951 182.453C267.949 186.363 266.984 190.017 265.267 192.618C263.793 194.852 262.587 197.503 262.587 198.51C262.587 200.894 260.411 200.873 259.416 198.481C258.132 195.386 255.117 196.35 248.334 202.023L241.875 207.426L245.684 216.394C250.473 227.676 254.706 232.518 258.143 230.65C262.411 228.328 268.4 215.251 266.738 211.881C265.335 209.034 265.363 209.021 268.666 211.021C277.354 216.282 292.64 210.898 302.826 198.993C312.502 187.68 310.057 183.418 292.892 181.677C284.24 180.8 283.087 180.337 279.386 176.265C274.798 171.215 273.326 170.865 270.179 174.08ZM262.587 203.442C262.587 203.783 262.285 204.062 261.916 204.062C261.547 204.062 261.245 203.783 261.245 203.442C261.245 203.101 261.547 202.822 261.916 202.822C262.285 202.822 262.587 203.101 262.587 203.442ZM376.46 268.937C370.263 273.304 368.807 277.762 372.817 280.099C376.132 282.032 378.998 280.365 383.407 273.941C390.27 263.94 386.946 261.546 376.46 268.937ZM350.515 272.285C350.971 272.967 351.646 273.525 352.015 273.525C352.384 273.525 352.313 272.967 351.857 272.285C351.401 271.602 350.725 271.044 350.356 271.044C349.987 271.044 350.058 271.602 350.515 272.285ZM354.877 273.624C351.809 275.275 351.915 278.162 355.225 283.18C360.187 290.697 365.952 289.102 365.952 280.212C365.952 272.56 361.631 269.99 354.877 273.624ZM353.535 313.92L347.159 316.986V324.405V331.824L352.864 331.817C365.12 331.802 375.718 326.34 379.391 318.146C381.72 312.951 380.6 312.497 371.345 314.874C360.903 317.557 360.146 317.53 361.878 314.54C364.689 309.687 362.651 309.535 353.535 313.92ZM246.478 435.398C246.478 435.739 246.78 436.018 247.15 436.018C247.519 436.018 247.821 435.739 247.821 435.398C247.821 435.057 247.519 434.778 247.15 434.778C246.78 434.778 246.478 435.057 246.478 435.398ZM242.898 436.845C243.391 437.299 244.196 437.299 244.689 436.845C245.18 436.39 244.778 436.018 243.794 436.018C242.81 436.018 242.407 436.39 242.898 436.845ZM237.529 438.086C238.021 438.54 238.827 438.54 239.319 438.086C239.811 437.631 239.408 437.259 238.424 437.259C237.44 437.259 237.037 437.631 237.529 438.086ZM247.457 439.903C241.469 442.999 246.163 459.586 253.027 459.586C257.826 459.586 265.821 454.697 266.333 451.45C267.135 446.363 252.397 437.348 247.457 439.903ZM259.916 465.405C259.931 469.321 265.469 481.113 267.962 482.537C269.797 483.584 269.396 481.965 264.953 470.401C261.811 462.224 259.897 460.325 259.916 465.405ZM253.488 469.009C254.419 475.387 259.704 485.634 262.064 485.634C264.825 485.634 264.369 483.048 260.03 474.112C255.211 464.188 252.474 462.053 253.488 469.009ZM225 469.978C225 470.235 225.92 471.151 227.044 472.013C228.753 473.325 228.951 473.248 228.243 471.545C227.521 469.807 225 468.587 225 469.978ZM242.451 491.216C242.451 491.557 242.753 491.836 243.122 491.836C243.492 491.836 243.794 491.557 243.794 491.216C243.794 490.875 243.492 490.596 243.122 490.596C242.753 490.596 242.451 490.875 242.451 491.216ZM253.19 501.139C253.19 501.48 253.492 501.76 253.862 501.76C254.231 501.76 254.533 501.48 254.533 501.139C254.533 500.798 254.231 500.519 253.862 500.519C253.492 500.519 253.19 500.798 253.19 501.139ZM255.875 502.38C255.875 502.721 256.177 503 256.546 503C256.916 503 257.218 502.721 257.218 502.38C257.218 502.039 256.916 501.76 256.546 501.76C256.177 501.76 255.875 502.039 255.875 502.38Z" fill="#B16C5C"/>
<path fill-rule="evenodd" clip-rule="evenodd" d="M240.013 203.485C241.057 205.037 243.329 209.546 245.063 213.507C248.769 221.974 255.105 229.509 258.519 229.509C264.989 229.509 269.542 241.42 270.506 260.863C272.183 294.692 262.473 293.104 245.668 256.802C226.206 214.753 177.101 219.613 189 262.411C197.416 292.677 234.531 333.605 253.564 333.605C256.118 333.605 257.754 334.61 259.131 337.028L261.081 340.452L228.837 350.639C211.102 356.241 191.684 362.598 185.684 364.767C170.338 370.314 169.213 370.159 166.609 362.137C149.594 309.708 168.072 240.248 206.137 213.553C222.265 202.242 236.361 198.053 240.013 203.485ZM221.135 233.146C230.696 237.226 236.319 244.093 243.558 260.533C258.062 293.474 285.272 310.08 325.097 310.297L344.524 310.403L344.527 318.07L344.531 325.738L338.054 326.584C307.539 330.563 297.861 331.41 281.81 331.504C240.032 331.748 222.876 320.835 201.238 280.252C182.492 245.094 192.671 220.998 221.135 233.146ZM356.21 282.693C358.582 291.384 310.568 307.158 294.673 302.908C248.368 290.525 260.335 281.2 341.804 266.179L347.94 265.048L351.625 272.221C353.651 276.166 355.716 280.878 356.21 282.693Z" fill="#16314F"/>
<path fill-rule="evenodd" clip-rule="evenodd" d="M381.815 444.066C393.565 449.577 456.216 451.16 476.209 446.453C486.653 443.994 485.108 443.72 471.177 445.559C445.351 448.971 399 447.757 381.163 443.203C379.42 442.758 379.635 443.044 381.815 444.066ZM383.702 450.177C384.093 451.554 385.829 458.182 387.558 464.908C394.244 490.914 402.565 495.143 441.223 492.186C471.507 489.87 471.348 489.983 477.223 466.643C481.997 447.683 482.174 448.273 472.187 449.975C453.151 453.217 397.626 452.21 385.332 448.4C383.385 447.796 383.108 448.097 383.702 450.177Z" fill="#C4C4C4"/>
<path fill-rule="evenodd" clip-rule="evenodd" d="M594.745 40.6596C575.237 47.1726 564.118 66.6512 569.061 85.6541C576.112 112.766 590.267 128.598 608.985 130.314L615.43 130.904L608.637 129.28C596.313 126.334 589.139 121.441 584.219 112.628L581.91 108.489L586.442 111.565C592.786 115.87 600.679 119.218 608.637 120.98C619.199 123.317 623.287 126.242 627.479 134.456C629.724 138.858 633.125 143.104 635.984 145.077L640.747 148.364L639.804 159.61C639.287 165.795 638.288 171.857 637.586 173.079C635.736 176.298 613.551 199.308 605.399 206.46C601.576 209.816 598.447 213.485 598.447 214.615C598.447 218.392 582.012 219.08 576.698 215.525L572.451 212.684L567.064 215.354C561.768 217.979 561.648 217.984 560.034 215.647C556.195 210.084 527.09 222.194 514.268 234.688L510.929 237.943L517.325 249.593C520.843 256.002 523.722 261.719 523.722 262.3C523.722 262.881 513.328 263.757 500.625 264.249C482.904 264.935 477.528 265.52 477.528 266.764C477.528 270.095 479.261 272.275 481.908 272.275C483.411 272.275 496.091 274.266 510.088 276.697L535.536 281.119L538.443 286.532C542.442 293.98 551.418 291.9 575.107 278.034C594.935 266.429 597.537 263.192 592.165 256.819C586.593 250.208 586.14 242.292 591.138 238.791C593.29 237.283 597.848 233.704 601.268 230.837C605.996 226.873 607.864 225.968 609.066 227.056C610.269 228.144 611.836 227.974 615.615 226.343C627.59 221.177 624.183 228.617 612.034 234.166C600.239 239.553 598.298 243.152 606.599 244.237C609.295 244.59 608.313 245.203 601.844 247.21C587.358 251.703 594.344 258.355 612.375 257.236C621.264 256.685 625.355 253.952 632.61 243.723C634.982 240.378 637.797 237.854 639.156 237.854C641.69 237.854 668.978 213.119 681.199 199.745C702.913 175.981 714.587 212.84 703.802 271.121C695.475 316.132 694.445 379.227 702.038 379.227C702.764 379.227 703.023 377.983 702.616 376.461C702.207 374.939 701.124 363.665 700.207 351.407C697.976 321.566 698.663 314.822 710.61 249.228C711.985 241.676 711.219 218.791 709.355 211.715L707.486 204.631L711.049 204.009C754.756 196.388 777.333 181.314 770.309 164.443C759.468 138.4 727.096 105.599 701.272 94.4905C697.667 92.9391 694.227 89.7306 689.995 83.97C668.886 55.2406 619.007 32.5608 594.745 40.6596ZM609.218 65.0887C613.566 67.122 615.192 69.9274 613.999 73.3301C613.377 75.1041 614.131 75.9449 617.219 76.9185C626.287 79.7792 623.839 97.7372 613.793 102.051C604.823 105.902 588.172 100.841 578.741 91.3975C573.03 85.6762 573.115 85.5312 584.323 81.8383C595.716 78.0839 603.027 72.5864 601.056 69.2537C597.895 63.9098 602.106 61.761 609.218 65.0887ZM634.648 81.2962L643.557 83.3209L643.066 97.5847C642.43 116.047 641.906 116.708 633.961 109.081C630.493 105.754 626.195 102.142 624.405 101.054C621.408 99.2308 621.289 98.7796 622.88 95.3031C623.99 92.8776 624.286 89.3433 623.708 85.4009C622.674 78.3531 622.308 78.4908 634.648 81.2962ZM672.739 86.0819C722.317 97.0524 784.64 159.063 765.946 178.825C755.83 189.517 731.57 199.817 712.266 201.613L705.101 202.28L693.829 192.422L682.558 182.565L685.237 174.253C692.016 153.224 692.915 123.409 686.989 116.166C685.247 114.037 684.158 111.503 684.569 110.537C684.978 109.569 684.76 107.532 684.085 106.011C682.918 103.386 682.851 103.424 682.769 106.755C682.699 109.603 682.233 110.102 680.305 109.389C660.75 102.154 647.851 110.797 642.03 135.034L639.626 145.04L638.057 138.526C635.327 127.184 635.928 115.019 639.182 115.79C643.263 116.755 644.641 111.819 644.641 96.2238V82.6029L654.058 83.3172C659.237 83.7106 667.644 84.9546 672.739 86.0819ZM660.945 95.2527C660.945 97.495 661.509 98.771 662.303 98.326C663.051 97.908 663.662 96.525 663.662 95.2527C663.662 93.9803 663.051 92.5973 662.303 92.1794C661.509 91.7344 660.945 93.0104 660.945 95.2527ZM701.724 103.009C701.712 105.821 702.246 107.387 703.063 106.931C704.78 105.971 704.78 102.575 703.063 100.17C702.084 98.8018 701.741 99.532 701.724 103.009ZM680.406 111.82C694.677 120.281 691.463 169.919 675.274 191.056C669.867 198.116 612.744 229.072 609.888 226.489C609.539 226.173 607.171 223.265 604.626 220.025L599.999 214.137L613.853 200.487C640.952 173.788 640.09 175.271 641.894 152.281C644.857 114.5 659.312 99.3144 680.406 111.82ZM705.78 122.225C705.78 124.214 706.391 126.183 707.139 126.6C707.947 127.053 708.497 125.589 708.497 122.985C708.497 120.579 707.886 118.61 707.139 118.61C706.391 118.61 705.78 120.236 705.78 122.225ZM296.128 128.06C300.306 131.953 302.15 132.716 309.18 133.466C313.997 133.98 318.477 135.249 320.062 136.548C322.212 138.307 322.595 138.368 321.947 136.84C320.808 134.155 315.299 132.132 309.121 132.132C305.12 132.132 302.53 131.113 298.187 127.83C290.823 122.263 290.005 122.354 296.128 128.06ZM271.143 129.068C267.552 130.081 262.661 132.971 258.915 136.291C255.482 139.335 249.921 142.898 246.558 144.207C229.106 151.004 224.662 162.861 236.504 171.033C241.428 174.431 241.973 176.844 239.156 182.788C237.416 186.459 244.421 191.576 250.054 190.749C262.331 188.947 245.625 199.802 228.441 204.794C172.553 221.031 141.074 303.048 165.205 369.556C167.318 375.379 167.712 378.745 167.033 385.172C164.741 406.851 175.551 425.795 193.495 431.543C201.409 434.079 222.149 435.35 225.643 433.515C227.645 432.463 225.287 432.154 215.021 432.125C183.88 432.037 170.655 420.36 169.389 391.832C168.573 373.491 177.218 369.001 254.031 347.872C351.523 321.055 418.773 335.085 382.224 374.617C379.256 377.829 377.627 380.456 378.605 380.456C384.48 380.456 392.536 365.2 391.493 356.053C389.911 342.19 380.425 335.466 355.929 330.852C354.435 330.569 356.375 330.275 360.24 330.196C365.764 330.084 368.237 329.33 371.789 326.673C383.883 317.626 389.983 303.395 380.345 306.71C378.401 307.379 376.33 307.926 375.742 307.926C375.153 307.926 374.263 302.664 373.764 296.233L372.855 284.539L377.877 280.559C388.19 272.385 394.956 257.344 388.197 257.621C386.777 257.678 386.503 257.967 387.518 258.337C391.914 259.943 387.172 270.122 378.487 277.728C372.047 283.366 372.193 283.419 371.01 275.028C370.145 268.897 370.278 268.498 373.543 267.375C378.229 265.763 377.902 264.426 373.038 265.306C369.473 265.952 369.124 265.728 369.454 263.001C369.657 261.341 369.31 259.982 368.687 259.982C368.063 259.982 366.238 257.216 364.631 253.836C363.024 250.455 361.172 247.689 360.517 247.689C358.894 247.689 359.012 248.487 361.209 252.36C363.65 256.661 366.969 268.581 368.161 277.323L369.1 284.213L364.722 285.006C362.315 285.442 359.885 285.798 359.323 285.798C358.281 285.798 352.532 274.578 352.532 272.542C352.532 271.926 353.907 270.815 355.589 270.074C358.303 268.876 358.149 268.804 354.231 269.425C351.408 269.872 349.815 269.625 349.815 268.741C349.815 266.254 304.951 273.104 282.353 279.042C271.999 281.761 272.118 281.83 273.125 273.786C274.386 263.703 271.546 249.034 266.112 237.545C261.02 226.781 261.058 225.57 266.749 217.242C270.229 212.153 270.499 212.02 275.908 212.745C289.509 214.57 310.211 198.459 310.385 185.915C310.402 184.654 311.451 183.764 312.921 183.764C319.492 183.764 323.186 173.053 319.425 164.909C317.492 160.72 317.488 159.824 319.387 155.529C323.828 145.487 319.06 139.54 305.764 138.543C299.695 138.087 297.87 137.411 296.092 134.954C291.471 128.575 281.354 126.187 271.143 129.068ZM251.919 132.863C249.345 135.293 243.264 139.026 238.406 141.161C221.563 148.56 217.839 162.464 230.591 170.341C234.947 173.032 234.936 173.005 229.915 168.443C220.263 159.675 224.153 149.23 239.572 142.499C244.918 140.166 250.011 136.769 252.932 133.587C258.725 127.277 258.221 126.916 251.919 132.863ZM650.076 132.132C650.076 134.161 650.687 135.82 651.434 135.82C652.181 135.82 652.793 134.161 652.793 132.132C652.793 130.104 652.181 128.444 651.434 128.444C650.687 128.444 650.076 130.104 650.076 132.132ZM616.222 131.251C616.535 131.443 618.012 132.41 619.506 133.402C622.02 135.071 622.083 135.045 620.359 133.054C619.333 131.871 617.855 130.903 617.075 130.903C616.296 130.903 615.911 131.059 616.222 131.251ZM673.172 135.82C673.172 137.849 673.784 139.508 674.531 139.508C675.278 139.508 675.89 137.849 675.89 135.82C675.89 133.792 675.278 132.132 674.531 132.132C673.784 132.132 673.172 133.792 673.172 135.82ZM622.903 137.664C622.903 138.002 623.208 138.279 623.582 138.279C623.956 138.279 624.261 138.002 624.261 137.664C624.261 137.326 623.956 137.05 623.582 137.05C623.208 137.05 622.903 137.326 622.903 137.664ZM737.485 138.976C737.036 140.036 737.36 141.529 738.207 142.295C739.353 143.333 739.746 142.841 739.746 140.369C739.746 136.67 738.728 136.044 737.485 138.976ZM721.182 140.205C720.732 141.265 721.057 142.759 721.903 143.525C723.05 144.562 723.442 144.07 723.442 141.598C723.442 137.899 722.425 137.273 721.182 140.205ZM701.724 149.723C701.712 152.536 702.246 154.102 703.063 153.646C704.78 152.686 704.78 149.289 703.063 146.884C702.084 145.516 701.741 146.246 701.724 149.723ZM676.346 156.187C675.897 157.246 676.221 158.74 677.068 159.506C678.214 160.543 678.607 160.052 678.607 157.579C678.607 153.88 677.589 153.255 676.346 156.187ZM650.076 159.792C650.076 161.483 650.687 162.866 651.434 162.866C652.181 162.866 652.793 161.483 652.793 159.792C652.793 158.102 652.181 156.719 651.434 156.719C650.687 156.719 650.076 158.102 650.076 159.792ZM731.015 159.998C730.537 161.125 730.778 162.618 731.549 163.317C732.515 164.191 732.953 163.55 732.953 161.267C732.953 157.475 732.275 157.03 731.015 159.998ZM715.373 162.866C715.373 166.375 715.629 166.772 716.758 165.017C717.698 163.555 717.698 162.176 716.758 160.714C715.629 158.959 715.373 159.356 715.373 162.866ZM755.513 161.127C755.059 162.199 755.281 163.998 756.006 165.123C757.057 166.75 757.334 166.351 757.368 163.173C757.413 158.798 756.792 158.113 755.513 161.127ZM277.807 171.888C277.807 178.255 290.313 181.787 303.282 179.083L309.056 177.879L309.042 182.358C308.996 197.97 288.395 214.985 274.546 210.85C265.574 208.171 254.586 189.911 261.946 189.911C266.279 189.911 270.296 183.984 267.712 181.401C263.188 176.877 268.316 167.783 275.393 167.783C277.224 167.783 277.807 168.774 277.807 171.888ZM710.678 173.421C710.224 174.493 710.446 176.291 711.171 177.416C712.221 179.043 712.498 178.644 712.532 175.466C712.577 171.091 711.956 170.406 710.678 173.421ZM694.931 176.695C694.946 179.412 695.328 180.155 696.124 179.018C697.192 177.492 696.668 172.7 695.431 172.7C695.146 172.7 694.92 174.499 694.931 176.695ZM669.096 179.461C669.096 181.152 669.708 182.535 670.455 182.535C671.202 182.535 671.814 181.152 671.814 179.461C671.814 177.771 671.202 176.388 670.455 176.388C669.708 176.388 669.096 177.771 669.096 179.461ZM653.537 179.154C652.968 180.338 652.968 182.273 653.537 183.457C654.839 186.164 656.1 182.783 655.141 179.154C654.598 177.105 654.522 177.105 653.537 179.154ZM747.361 180.796C746.907 181.868 747.129 183.667 747.854 184.792C748.905 186.419 749.182 186.02 749.216 182.842C749.261 178.467 748.64 177.782 747.361 180.796ZM730.922 182.525C730.464 183.196 730.714 184.717 731.479 185.906C732.673 187.759 732.877 187.586 732.912 184.686C732.954 181.151 732.327 180.468 730.922 182.525ZM685.381 187.191L688.381 189.388L682.527 196.104C679.308 199.797 668.472 210.412 658.446 219.694L640.217 236.569L636.655 234.186C634.696 232.877 630.693 229.939 627.762 227.657L622.431 223.511L633.197 218.228C664.496 202.87 675.338 195.824 678.588 188.723C680.572 184.389 681.324 184.219 685.381 187.191ZM681.345 189.603C681.334 191.801 681.559 193.599 681.845 193.599C683.081 193.599 683.606 188.807 682.538 187.281C681.741 186.144 681.36 186.887 681.345 189.603ZM626.979 191.755C626.979 193.445 627.59 194.828 628.337 194.828C629.084 194.828 629.696 193.445 629.696 191.755C629.696 190.064 629.084 188.681 628.337 188.681C627.59 188.681 626.979 190.064 626.979 191.755ZM717.172 190.45C716.759 191.424 717.066 193.221 717.853 194.446C719.069 196.338 719.29 196.072 719.326 192.677C719.369 188.463 718.428 187.489 717.172 190.45ZM701.167 191.86C700.714 192.932 700.935 194.731 701.661 195.856C702.711 197.483 702.988 197.084 703.022 193.906C703.067 189.531 702.446 188.846 701.167 191.86ZM259.43 195.707C260.677 201.722 263.511 206.532 267.176 208.855C269.898 210.581 269.969 210.921 268.022 212.925C265.256 215.77 260.779 224.011 259.609 228.408C257.577 236.053 249.588 227.141 243.179 210.079L240.542 203.06L243.889 201.095C245.729 200.015 249.376 197.348 251.991 195.169C258.001 190.163 258.285 190.184 259.43 195.707ZM785.115 199.131C785.569 200.145 786.276 201.722 786.687 202.635C787.187 203.747 784.693 205.476 779.155 207.86C771.678 211.078 770.951 211.721 771.661 214.497C772.093 216.188 773.201 221.876 774.124 227.138C775.046 232.401 776.249 236.688 776.795 236.666C787.496 236.229 788.657 236.57 788.657 240.153C788.657 245.439 781.103 267.414 775.587 278.17C768.601 291.795 761.992 310.334 758.832 325.171C754.675 344.685 746.493 393.118 747.24 393.793C748.507 394.939 749.013 393.272 751.117 381.071C761.958 318.162 764.51 307.627 773.739 287.642C789.068 254.453 793.581 237.88 792.32 219.415C791.592 208.751 788.145 197.287 785.667 197.287C784.91 197.287 784.661 198.116 785.115 199.131ZM642.559 202.328C642.061 203.748 642.326 205.518 643.148 206.262C644.233 207.244 644.641 206.539 644.641 203.679C644.641 199.138 643.857 198.629 642.559 202.328ZM242.435 212.308C248.689 228.067 255.346 236.03 259.596 232.839C267.521 226.889 274.783 269.035 268.775 286.105C265.018 296.78 252.194 282.501 241.92 256.203C233.003 233.382 201.627 225.593 190.128 243.347C175.835 265.415 223.43 334.971 252.822 334.971C255.83 334.971 262.626 341.741 261.05 343.168C260.637 343.541 248.8 347.326 234.748 351.577C220.694 355.828 200.423 362.406 189.702 366.193C166.181 374.502 168.322 374.464 165.715 366.626C146.235 308.078 171.219 230.344 215.792 210.826C236.264 201.861 238.334 201.977 242.435 212.308ZM790.036 215.8C792.368 230.577 791.146 234.166 783.782 234.166C778.181 234.166 777.78 233.945 777.658 230.786C777.586 228.927 776.821 224.363 775.959 220.644L774.391 213.883L781.185 210.105C789.387 205.543 788.309 204.849 790.036 215.8ZM618.827 211.424C618.827 213.114 619.438 214.497 620.185 214.497C620.933 214.497 621.544 213.114 621.544 211.424C621.544 209.734 620.933 208.351 620.185 208.351C619.438 208.351 618.827 209.734 618.827 211.424ZM657.555 209.57C657.097 210.241 657.347 211.762 658.112 212.951C659.306 214.805 659.51 214.631 659.545 211.731C659.587 208.196 658.96 207.513 657.555 209.57ZM556.329 215.708C556.329 219.369 521.048 239.084 514.498 239.084C508.59 239.084 530.575 223.94 545.782 217.534C553.485 214.288 556.329 213.796 556.329 215.708ZM579.426 219.241C579.426 221.332 577.664 221.684 575.771 219.97C573.227 217.669 569.345 217.689 567.21 220.016C566.287 221.022 564.961 221.526 564.261 221.136C562.617 220.216 565.58 216.969 569.189 215.738C572.001 214.777 579.426 217.319 579.426 219.241ZM565.255 225.003C568.746 229.429 571.888 232.792 572.237 232.476C572.587 232.16 571.513 230.237 569.852 228.205C566.672 224.313 566.984 221.112 570.67 219.834C574.243 218.592 577.508 222.474 575.714 225.832C571.966 232.852 572.386 234.177 582.359 246.817L591.968 258.995L585.358 265.327L578.747 271.661L585.719 265.704C590.154 261.913 593.034 260.249 593.635 261.128C596.276 264.995 552.394 290.715 543.154 290.715C540.536 290.715 541.005 288.527 543.762 287.874C545.555 287.45 545.389 287.277 543.089 287.17C540.356 287.042 530.071 270.562 514.503 241.37C514.274 240.938 516.992 239.686 520.548 238.591C528.606 236.106 542.669 228.606 551.587 222.038C555.316 219.29 558.489 217.023 558.637 217C558.787 216.976 561.765 220.577 565.255 225.003ZM603.902 221.294C606.996 226.524 589.399 241.335 582.775 239.073C573.201 235.805 573.104 227.555 582.611 225.055C590.117 223.08 595.299 219.769 588.449 221.325C586.56 221.754 584.217 221.637 583.24 221.067C581.366 219.971 587.973 218.69 597.198 218.36C601.118 218.22 602.421 218.79 603.902 221.294ZM743.822 221.675C743.822 239.98 736.263 285.048 729.596 306.484C721.364 332.955 718.928 435.776 726.532 435.776C727.388 435.776 727.575 432.704 727.04 427.478C723.154 389.578 724.869 329.664 730.303 313.458C739.883 284.886 750.341 219.415 745.325 219.415C744.499 219.415 743.822 220.432 743.822 221.675ZM581.464 223.102C581.926 223.779 581.35 224.332 580.185 224.332C579.021 224.332 578.067 223.779 578.067 223.102C578.067 222.426 578.642 221.873 579.346 221.873C580.05 221.873 581.002 222.426 581.464 223.102ZM534.1 225.185C532.57 226.569 533.17 228.02 535.27 228.02C536.391 228.02 537.308 227.5 537.308 226.863C537.308 225.313 535.186 224.203 534.1 225.185ZM641.088 226.101C640.675 227.074 640.982 228.872 641.769 230.096C642.985 231.988 643.206 231.723 643.242 228.327C643.285 224.113 642.343 223.139 641.088 226.101ZM631.341 232.155L636.382 236.187L631.824 242.312C621.907 255.635 605.799 260.887 596.43 253.85C593.223 251.443 593.825 250.923 602.709 248.416C607.282 247.126 612.627 244.726 614.586 243.084C617.199 240.892 617.483 240.29 615.652 240.822C602.149 244.745 598.762 242.11 610.335 236.688C614.633 234.674 619.676 231.913 621.544 230.551C625.81 227.441 625.354 227.366 631.341 232.155ZM226.444 239.783C233.801 244.462 238.296 250.681 243.098 262.823C256.389 296.438 284.333 312.843 328.294 312.843H345.739V320.707V328.572L337.248 329.876C247.016 343.723 218.523 331.599 190.938 267.62C180.608 243.658 203.864 225.425 226.444 239.783ZM580.785 240.928C580.785 241.266 580.479 241.542 580.105 241.542C579.732 241.542 579.426 241.266 579.426 240.928C579.426 240.59 579.732 240.313 580.105 240.313C580.479 240.313 580.785 240.59 580.785 240.928ZM586.219 244.688C586.219 246.472 585.631 247.506 584.861 247.074C584.113 246.656 583.502 245.241 583.502 243.928C583.502 242.616 584.113 241.542 584.861 241.542C585.608 241.542 586.219 242.959 586.219 244.688ZM532.625 265.03C537.532 273.892 541.849 280.87 542.215 280.538C543.112 279.728 526.099 248.918 524.756 248.918C524.177 248.918 527.717 256.169 532.625 265.03ZM529.553 271.688C531.576 275.421 533.232 278.647 533.232 278.856C533.232 280.513 480.865 269.964 480.495 268.232C480.048 266.139 481.604 266.002 515.627 265.155L525.872 264.9L529.553 271.688ZM350.59 273.197C351.783 275.734 353.921 280.433 355.342 283.643L357.924 289.479L347.124 294.391C308.027 312.178 304.716 312.656 283.921 303.522C268.665 296.821 267.438 295.513 269.84 288.516C270.98 285.196 272.665 282.7 273.798 282.658C274.882 282.618 276.686 282.224 277.807 281.784C283.225 279.659 338.718 269.013 346.061 268.691C347.55 268.626 349.22 270.288 350.59 273.197ZM466.998 271.86C466.065 272.202 465.3 273.264 465.3 274.221C465.3 276.851 470.434 276.31 472.093 273.505C473.586 270.98 471.37 270.264 466.998 271.86ZM575.176 273.197C573.487 275.147 573.535 275.19 575.69 273.662C576.997 272.734 578.067 271.765 578.067 271.511C578.067 270.499 576.952 271.149 575.176 273.197ZM451.261 273.095C449.166 274.99 450.468 277.349 453.398 276.972C457.245 276.475 458.459 272.275 454.757 272.275C453.332 272.275 451.758 272.644 451.261 273.095ZM470.055 273.505C469.593 274.181 468.604 274.734 467.857 274.734C467.11 274.734 466.876 274.181 467.338 273.505C467.8 272.829 468.789 272.275 469.536 272.275C470.283 272.275 470.517 272.829 470.055 273.505ZM455.11 274.734C454.648 275.41 453.659 275.963 452.912 275.963C452.165 275.963 451.931 275.41 452.393 274.734C452.855 274.058 453.844 273.505 454.591 273.505C455.338 273.505 455.572 274.058 455.11 274.734ZM570.466 276.154C569.864 277.033 570.092 277.239 571.064 276.695C571.926 276.213 572.633 275.575 572.633 275.276C572.633 274.251 571.433 274.737 570.466 276.154ZM565.08 279.104C562.548 280.941 562.564 280.963 565.5 279.676C567.182 278.938 568.557 278.078 568.557 277.764C568.557 276.824 567.852 277.096 565.08 279.104ZM444.337 280.353C441.854 282.602 441.632 284.104 443.621 285.217C445.608 286.328 448.996 283.499 448.996 280.731C448.996 277.916 447.193 277.771 444.337 280.353ZM458.778 279.897C456.62 281.851 456.698 284.569 458.914 284.569C459.886 284.569 461.414 283.905 462.311 283.094C464.47 281.14 464.391 278.422 462.175 278.422C461.204 278.422 459.675 279.086 458.778 279.897ZM469.328 280.318C466.669 283.216 469.531 284.949 473.168 282.644C474.819 281.597 476.169 280.219 476.169 279.581C476.169 277.716 471.226 278.249 469.328 280.318ZM461.197 281.525C460.251 282.555 459.125 283.079 458.691 282.688C458.259 282.297 458.806 281.462 459.905 280.833C462.781 279.187 463.157 279.388 461.197 281.525ZM473.452 280.881C473.452 281.557 472.804 282.11 472.013 282.11C471.222 282.11 470.952 281.557 471.414 280.881C471.876 280.205 472.522 279.651 472.853 279.651C473.183 279.651 473.452 280.205 473.452 280.881ZM447.638 281.423C447.638 281.722 447.026 282.307 446.279 282.725C445.532 283.143 444.92 282.898 444.92 282.183C444.92 281.467 445.532 280.881 446.279 280.881C447.026 280.881 447.638 281.124 447.638 281.423ZM560.405 281.495C560.405 281.833 560.711 282.11 561.084 282.11C561.458 282.11 561.764 281.833 561.764 281.495C561.764 281.157 561.458 280.881 561.084 280.881C560.711 280.881 560.405 281.157 560.405 281.495ZM554.97 283.339C553.85 283.995 553.544 284.531 554.291 284.531C555.038 284.531 556.567 283.995 557.688 283.339C558.809 282.684 559.114 282.148 558.367 282.148C557.62 282.148 556.091 282.684 554.97 283.339ZM463.591 285.952C460.708 287.411 460.44 291.945 463.236 291.945C464.342 291.945 465.64 290.536 466.116 288.814C467.178 284.987 466.659 284.398 463.591 285.952ZM548.177 285.798C547.056 286.453 546.751 286.989 547.498 286.989C548.245 286.989 549.774 286.453 550.895 285.798C552.015 285.143 552.321 284.607 551.574 284.607C550.827 284.607 549.298 285.143 548.177 285.798ZM369.331 291.502C370.949 302.18 370.562 304.238 366.937 304.238C365.143 304.238 360.406 305.791 356.407 307.689C349.534 310.95 348.094 311.152 330.115 311.356L311.094 311.571L316.528 309.123C319.517 307.778 330.37 303.108 340.644 298.746C352.215 293.835 359.326 290.128 359.326 289.008C359.326 287.424 361.461 286.573 366.953 285.965C367.786 285.873 368.855 288.365 369.331 291.502ZM450.627 287.273C449.73 288.085 448.996 289.468 448.996 290.347C448.996 292.352 452 292.423 454.159 290.469C456.318 288.516 456.239 285.798 454.023 285.798C453.052 285.798 451.523 286.462 450.627 287.273ZM438.05 289.618C437.022 291.355 436.967 292.616 437.883 293.444C439.904 295.274 442.203 293.456 442.203 290.028C442.203 286.341 440.109 286.135 438.05 289.618ZM453.564 288.871C453.133 289.886 452.16 290.715 451.402 290.715C450.606 290.715 450.738 289.935 451.714 288.871C452.644 287.857 453.617 287.027 453.875 287.027C454.133 287.027 453.993 287.857 453.564 288.871ZM464.19 289.753C463.216 290.634 462.583 290.707 462.583 289.937C462.583 289.238 462.99 288.297 463.489 287.847C463.986 287.396 464.71 287.314 465.096 287.663C465.482 288.012 465.074 288.953 464.19 289.753ZM472.365 288.503C470.116 290.537 470.319 293.174 472.725 293.174C474.464 293.174 477.528 289.696 477.528 287.723C477.528 286.468 474.031 286.995 472.365 288.503ZM440.392 291.535C439.893 291.985 439.486 291.616 439.486 290.715C439.486 289.814 439.893 289.445 440.392 289.895C440.889 290.347 440.889 291.084 440.392 291.535ZM474.81 290.028C474.81 290.327 474.199 290.912 473.452 291.33C472.705 291.748 472.093 291.503 472.093 290.788C472.093 290.072 472.705 289.486 473.452 289.486C474.199 289.486 474.81 289.729 474.81 290.028ZM457.42 294.649C455.442 296.439 455.284 300.122 457.143 301.161C459.05 302.228 462.061 295.898 460.372 294.37C459.515 293.594 458.477 293.693 457.42 294.649ZM445.192 295.879C443.15 297.726 443.096 300.144 445.072 301.249C446.824 302.229 448.945 299.677 448.976 296.555C449 294.052 447.506 293.785 445.192 295.879ZM447.638 297.477C447.638 298.491 447.045 299.321 446.321 299.321C445.598 299.321 445.358 298.491 445.787 297.477C446.218 296.462 446.81 295.633 447.104 295.633C447.397 295.633 447.638 296.462 447.638 297.477ZM466.206 296.453C464.871 297.661 465.104 303.009 466.493 303.009C467.148 303.009 468.44 302.186 469.361 301.181C472.027 298.274 469.077 293.854 466.206 296.453ZM459.865 297.404C459.865 297.703 459.254 298.288 458.507 298.706C457.759 299.124 457.148 298.879 457.148 298.164C457.148 297.448 457.759 296.862 458.507 296.862C459.254 296.862 459.865 297.105 459.865 297.404ZM433.843 301.086C432.226 304.297 433.053 307.926 435.4 307.926C437.325 307.926 439.608 302.27 438.623 299.946C437.468 297.225 435.558 297.681 433.843 301.086ZM468.509 299.935C468.078 300.949 467.486 301.779 467.193 301.779C466.899 301.779 466.659 300.949 466.659 299.935C466.659 298.921 467.251 298.091 467.975 298.091C468.698 298.091 468.938 298.921 468.509 299.935ZM438.107 301.472C438.094 301.98 437.517 303.208 436.821 304.202C435.256 306.442 433.419 305.041 434.52 302.447C435.332 300.531 438.145 299.767 438.107 301.472ZM441.805 306.416C438.95 309.27 438.744 314.073 441.476 314.073C444.314 314.073 446.464 309.822 445.195 306.717C444.149 304.158 444.07 304.151 441.805 306.416ZM452.485 306.95C450.011 310.146 449.769 312.37 451.773 313.491C453.924 314.693 457.148 311.677 457.148 308.463C457.148 304.424 454.985 303.722 452.485 306.95ZM366.672 307.004C366.141 307.85 364.729 309.59 363.535 310.874C360.805 313.807 369.687 312.966 377.632 309.538C383.985 306.796 384.67 307.89 380.891 314.736C375.411 324.667 367.38 328.802 353.551 328.817L347.098 328.824V320.93C347.098 313.119 347.145 313.019 351.514 311.684C353.941 310.941 357.458 309.251 359.326 307.927C363.175 305.202 368.203 304.569 366.672 307.004ZM462.114 307.26C461.047 309.771 462.52 313.067 464.448 312.486C465.29 312.231 465.979 310.732 465.979 309.155C465.979 305.811 463.288 304.491 462.114 307.26ZM370.195 308.409C370.195 309.351 369.264 310.445 368.126 310.841C366.437 311.426 366.321 311.111 367.494 309.127C369.18 306.277 370.195 306.008 370.195 308.409ZM443.562 309.77C443.562 311.46 442.95 312.843 442.203 312.843C440.685 312.843 440.34 308.791 441.751 307.517C443.248 306.161 443.562 306.552 443.562 309.77ZM455.789 307.825C455.789 310.114 454.113 312.811 453.057 312.22C451.671 311.445 452.989 306.697 454.59 306.697C455.249 306.697 455.789 307.204 455.789 307.825ZM464.869 310.616C464.436 311.595 464.114 311.304 464.049 309.872C463.99 308.576 464.311 307.851 464.762 308.259C465.213 308.667 465.262 309.728 464.869 310.616ZM430.247 314.318C428.315 316.067 428.081 321.003 429.883 322.012C431.782 323.074 435.21 317.947 434.422 315.222C433.629 312.477 432.542 312.242 430.247 314.318ZM431.462 319.366C429.687 320.971 429.44 319.193 430.953 315.71C431.898 313.538 431.951 313.539 432.44 315.739C432.72 316.995 432.278 318.627 431.462 319.366ZM461.197 319.037C459.431 322.023 460.653 326.366 463.262 326.366C465.593 326.366 467.116 322.233 465.979 318.99C464.875 315.842 463.076 315.86 461.197 319.037ZM437.04 320.465C434.374 322.877 434.945 329.085 437.787 328.597C439.449 328.312 440.291 326.805 440.586 323.59C441.02 318.863 439.9 317.877 437.04 320.465ZM448.428 320.908C445.726 323.354 446.082 328.21 448.964 328.21C451.614 328.21 454.114 321.9 452.163 320.134C451.15 319.217 450.044 319.447 448.428 320.908ZM464.477 323.19C463.803 324.777 463.289 324.942 462.519 323.815C461.145 321.801 462.555 318.474 464.167 319.931C464.839 320.54 464.978 322.007 464.477 323.19ZM438.255 326.742C437.179 327.716 436.768 327.396 436.768 325.588C436.768 322.337 438.668 320.613 439.274 323.313C439.53 324.459 439.071 326.003 438.255 326.742ZM451.714 323.22C451.714 325.065 449.275 327.027 448.195 326.05C447.246 325.193 449.123 321.448 450.5 321.448C451.167 321.448 451.714 322.245 451.714 323.22ZM428.888 326.612C426.595 328.687 426.792 334.971 429.15 334.971C431.341 334.971 432.692 332.353 432.692 328.109C432.692 324.848 431.4 324.339 428.888 326.612ZM430.103 332.889C429.027 333.862 428.617 333.543 428.617 331.734C428.617 328.484 430.516 326.759 431.122 329.46C431.379 330.606 430.919 332.15 430.103 332.889ZM459.913 331.202C457.978 334.473 458.152 336.862 460.45 338.588C463.329 340.75 465.752 336.207 463.975 331.978C462.387 328.199 461.761 328.079 459.913 331.202ZM447.215 333.485C444.333 336.366 444.191 341.118 446.987 341.118C449.82 341.118 452.36 335.798 450.762 333.214C449.617 331.364 449.313 331.388 447.215 333.485ZM462.583 334.602C462.583 336.885 462.145 337.526 461.179 336.652C460.407 335.953 460.167 334.46 460.645 333.332C461.905 330.365 462.583 330.81 462.583 334.602ZM435.99 333.453C432.023 335.912 433.158 342.163 437.311 340.721C438.643 340.258 439.486 338.521 439.486 336.238C439.486 332.473 438.649 331.807 435.99 333.453ZM436.896 339.035C435.82 340.009 435.41 339.689 435.41 337.881C435.41 334.631 437.309 332.906 437.915 335.607C438.172 336.752 437.713 338.296 436.896 339.035ZM449.389 337.431C448.999 338.782 448.139 339.888 447.479 339.888C446.078 339.888 445.946 338.417 447.101 335.694C448.263 332.955 450.248 334.462 449.389 337.431ZM274.41 337.495L282.562 337.594L277.067 339.152C265.225 342.508 263.373 342.496 261.641 339.055C260.147 336.091 260.244 335.939 263.153 336.643C264.861 337.057 269.927 337.441 274.41 337.495ZM383.781 336.815C383.781 337.153 384.087 337.43 384.461 337.43C384.834 337.43 385.14 337.153 385.14 336.815C385.14 336.477 384.834 336.2 384.461 336.2C384.087 336.2 383.781 336.477 383.781 336.815ZM791.375 338.362C791.375 339.779 809.286 342.008 829.815 343.145L844.362 343.95V354.054V364.158L837.908 364.901C829.618 365.857 799.73 368.008 777.109 369.277L759.446 370.269L777.109 370.409C792.429 370.531 818.518 368.898 844.459 366.195L852.03 365.405L857.137 372.367C862.395 379.535 862.505 379.576 869.836 377.083C870.771 376.764 871.534 377.335 871.534 378.349C871.534 380.355 868.763 381.685 864.582 381.685C862.312 381.685 862.148 382.057 863.446 384.252C864.942 386.781 867.029 386.861 873.446 384.632C874.833 384.151 875.61 384.544 875.61 385.725C875.61 387.723 872.842 389.061 868.706 389.061C866.993 389.061 866.1 389.917 866.1 391.558C866.1 394.746 869.429 395.911 873.611 394.186C875.93 393.23 877.132 393.224 877.773 394.163C878.921 395.844 875.862 397.624 871.783 397.648C869.434 397.662 868.808 398.212 869.319 399.818C869.695 401.001 870.756 404.341 871.677 407.239C873.95 414.388 878.665 418.836 883.44 418.338L887.159 417.951L886.891 398.281C886.652 380.724 883.409 341.618 882.094 340.428C880 338.534 866.005 338.584 861.536 340.503C855.2 343.224 818.649 341.779 795.79 337.904C793.248 337.474 791.375 337.667 791.375 338.362ZM885.553 347.572C885.997 351.121 887.035 363.43 887.861 374.924C890.437 410.765 890.872 414.585 891.99 411.189C894.062 404.894 892.751 365.67 889.822 346.342C888.543 337.903 884.491 339.07 885.553 347.572ZM860.824 347.572C865.607 357.915 863.519 362.954 854.17 363.622L847.079 364.128V353.852V343.576H853.028C858.455 343.576 859.14 343.927 860.824 347.572ZM339.625 353.069C328.437 355.547 271.707 374.423 239.143 386.502C223.423 392.333 211.232 392.699 212.603 387.299C212.709 386.882 212.493 385.864 212.122 385.035C211.751 384.207 211.399 385.308 211.341 387.482C211.073 397.332 218.49 396.606 256.069 383.102C265.409 379.746 277.943 375.244 283.921 373.097C339.037 353.314 361.562 350.245 369.653 361.419C375.462 369.44 365.005 377.721 294.45 420.965C280.172 429.716 273.947 434.687 279.277 433.079C282.182 432.202 344.943 392.698 359.922 382.317C385.034 364.914 371.859 345.928 339.625 353.069ZM328.077 376.153C328.077 376.492 328.383 376.768 328.756 376.768C329.13 376.768 329.436 376.492 329.436 376.153C329.436 375.815 329.13 375.539 328.756 375.539C328.383 375.539 328.077 375.815 328.077 376.153ZM424.541 378.612C424.541 378.95 424.846 379.227 425.22 379.227C425.594 379.227 425.899 378.95 425.899 378.612C425.899 378.274 425.594 377.997 425.22 377.997C424.846 377.997 424.541 378.274 424.541 378.612ZM321.963 382.076C316.497 384.914 289.322 401.406 277.652 408.97C274.204 411.205 266.714 416.007 261.009 419.641C254.638 423.699 250.634 427.102 250.634 428.458C250.634 430.699 246.815 432.252 237.048 433.985C211.941 438.438 208.56 448.682 226.878 464.793C233.066 470.235 238.338 476.259 240.868 480.774C248.854 495.034 280.485 506.649 287.051 497.732C287.572 497.026 289.106 496.078 290.461 495.624C296.501 493.606 292.83 487.131 283.242 482.89C271.481 477.687 262.862 465.545 262.862 454.18C262.862 450.828 269.898 448.789 272.177 451.483C274.343 454.042 309.699 433.14 311.61 428.17C312.355 426.231 310.409 427.418 291.854 440.217L275.332 451.616L267.398 443.502C254.054 429.855 252.864 428.124 255.782 426.606C257.135 425.902 262.797 422.249 268.364 418.49C283.349 408.369 304.003 395.46 318.227 387.324C325.139 383.371 330.794 379.932 330.794 379.682C330.794 378.468 326.86 379.535 321.963 382.076ZM425.935 380.456C425.932 380.794 426.831 383.762 427.933 387.05C429.036 390.339 430.281 398.139 430.701 404.384L431.463 415.736L417.421 416.558C377.101 418.917 364.563 424.745 375.97 435.824C378.099 437.891 380.098 444.412 384.015 462.069C387.757 478.935 389.89 486.007 391.576 487.137C403.63 495.217 461.623 495.581 473.365 487.651C476.242 485.707 477.37 482.381 482.01 462.145C486.19 443.914 488.048 438.118 490.588 435.386C500.286 424.959 489.678 419.626 454.086 417.038C435.194 415.665 434.057 415.437 434.328 413.077C435.092 406.472 430.554 386.361 427.246 381.685C426.528 380.671 425.939 380.118 425.935 380.456ZM431.334 421.106C431.334 424.229 435.275 437.873 435.275 437.873C433.88 437.473 430.141 438.038 430.141 438.038L413.859 438.377L395.701 436.477C395.701 436.477 383.478 433.093 379.837 431.945C365.419 427.398 378.087 421.181 406.878 418.676C430.021 416.662 431.334 416.792 431.334 421.106ZM470.404 419.901C481.394 421.417 491.663 424.891 492.168 427.265C492.807 430.263 477.806 437.551 474.976 435.386L451.2 438.485C451.2 438.485 432.699 426.162 435.275 417.497C435.474 416.828 460.565 418.545 470.404 419.901ZM708.605 426.744C708.546 428.877 709.715 436.068 711.202 442.725C715.54 462.142 715.368 463 706.12 467.984C699.523 471.538 698.388 472.66 698.822 475.19C699.716 480.394 699.695 480.637 698.307 481.07C697.56 481.303 696.363 479.782 695.648 477.69C694.934 475.597 693.539 473.885 692.549 473.885C689.836 473.885 688.851 477.503 690.492 481.437C691.295 483.363 691.465 485.211 690.869 485.545C689.194 486.482 686.796 483.222 686.46 479.55C685.889 473.312 680.589 475.822 680.902 482.183C681.229 488.836 677.803 489.49 676.464 483.031C675.797 479.813 675.015 478.843 673.511 479.365C672.384 479.756 668.806 480.682 665.557 481.422C658.093 483.122 652.514 487.956 653.066 492.245L653.472 495.398H675.89C709.581 495.398 738.059 493.676 740.471 491.492C742.788 489.396 743.312 473.275 741.105 472.041C739.404 471.089 739.34 458.072 740.993 449.217C743.469 435.962 743.833 432.088 742.609 432.088C741.923 432.088 740.845 436.098 740.215 441L739.067 449.913H726.839H714.611L712.254 437.675C709.554 423.658 708.755 421.268 708.605 426.744ZM261.223 439.748C269.504 448.714 269.461 448.564 264.318 450.491C262.131 451.311 259.285 453.038 257.994 454.327C251.997 460.325 244.337 453.9 243.367 442.059C242.861 435.884 242.997 435.589 247.077 433.969C253.448 431.441 253.616 431.51 261.223 439.748ZM413.859 438.377C413.859 438.377 472.758 437.864 489.076 432.619L491.794 431.746L489.076 434.321C478.202 444.629 398.983 445.769 378.624 435.91C372.763 433.071 375.775 432.556 385.357 434.759C390.706 435.988 403.533 437.616 413.859 438.377ZM290.035 435.161C290.035 435.499 290.341 435.776 290.714 435.776C291.088 435.776 291.393 435.499 291.393 435.161C291.393 434.823 291.088 434.546 290.714 434.546C290.341 434.546 290.035 434.823 290.035 435.161ZM480.881 460.068C475.112 487.046 475.695 485.681 468.972 487.925C450.163 494.207 402.411 493.215 393.254 486.353C390.585 484.354 379.799 441.428 381.564 439.831C381.955 439.477 385.213 439.802 388.803 440.554C412.866 445.594 456.345 445.432 478.207 440.221C481.943 439.331 485.094 438.657 485.21 438.725C485.324 438.794 483.377 448.397 480.881 460.068ZM212.646 453.97C212.564 458.258 215.727 462.801 223.514 469.582C227.397 472.963 232.725 478.771 235.352 482.49C243.482 493.992 253.709 500.995 262.183 500.864C263.836 500.839 262.976 500.2 259.984 499.232C250.278 496.094 245.716 492.562 241.148 484.65C238.659 480.339 232.369 472.906 226.835 467.738C221.404 462.667 216.002 456.859 214.831 454.83C212.871 451.436 212.697 451.367 212.646 453.97ZM738.387 461.56C738.387 471.914 735.375 474.284 723.037 473.64L715.97 473.27L715.576 463.128L715.18 452.986H726.785H738.387V461.56ZM264.619 464.973C270.29 479.205 270.193 478.802 267.943 478.802C264.737 478.802 256.165 458.227 258.493 456.12C260.143 454.627 260.978 455.833 264.619 464.973ZM259.355 467.124C261.017 471.856 263.119 476.973 264.026 478.495C265.983 481.778 260.429 482.689 257.555 479.556C256.127 477.999 252.073 463.207 252.016 459.35C251.945 454.442 256.653 459.429 259.355 467.124ZM717.328 496.072C710.603 496.582 694.427 497.414 681.383 497.921C643.857 499.38 657.314 501.312 699.836 500.571C733.956 499.976 741.105 499.178 741.105 495.97C741.105 494.659 735.661 494.683 717.328 496.072ZM266.598 501.744C267.533 502.085 269.061 502.085 269.995 501.744C270.93 501.403 270.165 501.124 268.297 501.124C266.428 501.124 265.665 501.403 266.598 501.744Z" fill="#16314F"/>
</svg>
