<svg width="909" height="614" viewBox="0 0 909 614" fill="none" xmlns="http://www.w3.org/2000/svg">
<path fill-rule="evenodd" clip-rule="evenodd" d="M461.347 36.6101C590.995 30.0568 747.865 -29.5935 841 18.7435C938.889 69.5475 823.113 159.123 836.752 231.444C846.16 281.336 908.295 323.107 907.852 373.248C907.25 441.271 925.781 521.068 833.773 568.399C740.991 616.129 584.236 624.092 461.347 602.941C348.304 583.485 317.049 508.098 230.897 464.637C161.512 429.634 41.0234 422.133 8.27903 374.38C-24.6096 326.418 49.8183 278.536 68.9866 228.518C91.6923 169.27 47.0607 95.6048 130.812 54.6409C214.32 13.796 348.322 42.3231 461.347 36.6101Z" fill="white"/>
<path fill-rule="evenodd" clip-rule="evenodd" d="M459.76 279.702C457.182 281.485 456.75 283.258 458.894 283.258C460.784 283.258 464.225 279.446 463.005 278.702C462.48 278.381 461.02 278.832 459.76 279.702ZM447.675 280.206C445.493 281.461 445.195 284.303 447.246 284.303C449.056 284.303 452.414 280.706 451.472 279.777C450.539 278.856 449.897 278.929 447.675 280.206ZM449.214 290.086C445.661 293.593 444.722 295.131 445.602 295.999C446.934 297.314 450.058 295.435 450.058 293.32C450.058 292.671 451.844 290.63 454.028 288.784C457.132 286.16 457.564 285.418 456.006 285.388C454.911 285.366 451.853 287.48 449.214 290.086ZM439.941 287.529C439.55 288.154 439.74 289.169 440.364 289.784C441.685 291.089 445.122 288.856 444.16 287.32C443.354 286.032 440.799 286.16 439.941 287.529ZM459.852 287.699C460.095 288.418 461.167 289.006 462.235 289.006C463.302 289.006 464.375 288.418 464.617 287.699C464.897 286.872 464.023 286.393 462.235 286.393C460.446 286.393 459.573 286.872 459.852 287.699ZM454.999 292.315C453.982 293.319 454.129 296.844 455.188 296.844C456.213 296.844 459.587 293.374 459.587 292.32C459.587 291.41 455.919 291.407 454.999 292.315ZM436.404 294.098C434.962 295.812 435.943 298.934 437.923 298.934C439.534 298.934 440.988 295.29 440.005 293.718C439.094 292.265 437.834 292.398 436.404 294.098ZM462.976 293.918C461.515 295.36 461.275 297.889 462.6 297.889C464.017 297.889 467.08 294.137 466.296 293.363C465.272 292.353 464.416 292.496 462.976 293.918ZM441.798 299.143C441.1 299.833 440.528 301.278 440.528 302.354C440.528 305.541 444.178 304.096 444.568 300.753C444.925 297.703 443.876 297.093 441.798 299.143ZM450.764 299.631C449.729 300.652 449.902 304.159 450.987 304.159C451.498 304.159 452.492 303.475 453.196 302.638C455.077 300.4 452.816 297.606 450.764 299.631ZM457.872 302.542C457.548 303.377 457.605 304.575 457.999 305.205C458.904 306.65 461.705 304.578 461.705 302.464C461.705 300.55 458.622 300.612 457.872 302.542ZM433.731 303.702C431.71 305.696 431.517 309.385 433.433 309.385C435.377 309.385 437.351 307.204 437.351 305.057C437.351 302.426 435.663 301.793 433.731 303.702ZM447.469 309.321C445.243 311.749 446.029 314.924 448.731 314.416C450.761 314.033 451.874 309.714 450.334 308.194C449.758 307.626 448.61 308.077 447.469 309.321ZM438.093 309C436.958 310.12 437.21 314.401 438.457 315.161C440.158 316.199 442.785 313.486 442.432 311.055C442.115 308.876 439.483 307.629 438.093 309ZM454.816 309.394C453.989 310.716 455.179 314.61 456.411 314.61C457.642 314.61 458.832 310.716 458.005 309.394C457.642 308.814 456.924 308.34 456.411 308.34C455.897 308.34 455.179 308.814 454.816 309.394ZM430.151 315.864C428.563 317.432 428.502 320.526 430.041 321.465C431.909 322.604 434.486 319.314 433.682 316.817C432.875 314.306 431.975 314.064 430.151 315.864ZM453.94 319.488C452.745 320.666 453.157 323.697 454.682 324.946C455.781 325.846 456.439 325.763 457.417 324.601C459.788 321.781 456.506 316.954 453.94 319.488ZM443.639 322.619C442.928 324.464 442.922 325.752 443.62 326.44C445.166 327.966 447.94 325.319 447.94 322.321C447.94 318.906 444.99 319.111 443.639 322.619ZM434.881 321.578C433.617 322.824 434.138 327.151 435.551 327.151C437.515 327.151 439.469 324.963 439.469 322.762C439.469 320.917 436.361 320.116 434.881 321.578ZM428.967 326.526C427.326 328.477 427.878 331.854 429.839 331.854C432.457 331.854 433.824 328.448 431.948 326.596C430.473 325.14 430.138 325.132 428.967 326.526ZM453.931 328.902C453.028 329.794 453.028 334.959 453.931 335.851C454.988 336.893 457.47 334.456 457.47 332.376C457.47 330.297 454.988 327.86 453.931 328.902ZM434.23 331.788C432.75 333.547 433.529 338.647 435.276 338.647C437.478 338.647 438.912 333.47 437.183 331.763C435.752 330.351 435.436 330.353 434.23 331.788ZM442.002 334.02C441.614 335.546 441.838 337.223 442.518 337.895C444.338 339.69 447.296 336.36 446.389 333.539C445.408 330.487 442.829 330.771 442.002 334.02Z" fill="#A5C2DF"/>
<path fill-rule="evenodd" clip-rule="evenodd" d="M542.489 216.687C536.491 219.838 534.087 222.084 535.348 223.356C536.349 224.366 545.653 219.227 548.426 216.132C551.606 212.586 550.011 212.735 542.489 216.687ZM564.733 214.688C563.162 215.712 563.349 215.957 565.704 215.974C567.305 215.985 568.617 215.406 568.617 214.688C568.617 213.051 567.243 213.051 564.733 214.688ZM544.666 223.309C541.105 225.815 533.981 230.302 528.833 233.278C516.517 240.399 517.707 241.061 530.841 234.399C536.558 231.498 541.437 229.732 541.681 230.474C542.469 232.855 552.525 224.452 552.525 221.413C552.525 217.836 552.392 217.867 544.666 223.309ZM549.197 229.226C545.28 232.13 536.728 237.422 530.193 240.988L518.309 247.469L520.299 252.305C534.847 287.668 541.064 291.08 563.667 276.109C584.444 262.348 585.057 260.233 573.35 242.788C560.352 223.416 558.464 222.357 549.197 229.226ZM523.951 227.568C519.482 230.353 514.538 235.588 516.376 235.588C518.467 235.588 529.777 227.895 529.777 226.473C529.777 224.554 528.361 224.82 523.951 227.568ZM532.937 236.313C530.524 238.264 530.54 238.288 533.337 236.92C534.939 236.136 536.25 235.222 536.25 234.889C536.25 233.889 535.578 234.178 532.937 236.313ZM528.482 238.853C528.482 239.212 528.774 239.506 529.13 239.506C529.486 239.506 529.777 239.212 529.777 238.853C529.777 238.494 529.486 238.2 529.13 238.2C528.774 238.2 528.482 238.494 528.482 238.853ZM533.227 266.588C539.452 278.91 540.286 284.328 534.547 275.155C529.952 267.812 522.004 251.614 522.038 249.662C522.088 246.783 526.906 254.071 533.227 266.588ZM488.497 268.124C484.78 270.499 502.751 276.024 514.318 276.062C525.085 276.097 528.497 269.451 518.561 267.795C511.232 266.573 490.57 266.799 488.497 268.124Z" fill="#F2AA4B"/>
<path fill-rule="evenodd" clip-rule="evenodd" d="M663.699 89.5188C670.344 90.7564 680.838 93.5903 687.02 95.8167L698.258 99.8653V104.876C698.258 111.136 699.959 112.942 701.081 107.876C704.878 90.7396 764.224 152.221 764.224 173.291C764.224 189.418 705.873 209.508 700.373 195.274C699.179 192.186 698.557 191.676 697.631 193.028C696.166 195.165 692.84 193.756 685.334 187.815L680.406 183.915L682.329 178.878C688.507 162.691 690.143 133.757 685.616 120.721C684.159 116.528 682.96 111.878 682.95 110.39C682.93 107.228 681.972 107.006 678.958 109.469C677.271 110.848 675.755 110.991 672.303 110.098C658.6 106.551 642.309 119.357 639.573 135.828C638.32 143.365 636.513 140.87 635.395 130.062C634.64 122.76 634.8 122.135 638.155 119.329C642.168 115.972 644.265 107.551 644.279 94.7534C644.288 85.8225 644.113 85.8694 663.699 89.5188ZM658.946 98.6625C658.946 100.316 659.545 101.67 660.278 101.67C661.011 101.67 661.611 100.316 661.611 98.6625C661.611 97.0087 661.011 95.6555 660.278 95.6555C659.545 95.6555 658.946 97.0087 658.946 98.6625ZM672.922 113.332C693.663 122.259 688.345 176.567 664.752 196.755C638.588 219.143 590.004 232.184 601.609 213.703C606.055 206.626 623.148 192.558 624.838 194.587C627.353 197.608 628.295 197.198 628.295 193.077C628.295 191.089 630.686 185.271 633.61 180.147C638.272 171.972 639.179 168.99 641.008 155.796C646.192 118.397 655.602 105.877 672.922 113.332ZM702.923 125.726C702.923 127.71 703.522 129.334 704.255 129.334C704.988 129.334 705.588 127.71 705.588 125.726C705.588 123.741 704.988 122.117 704.255 122.117C703.522 122.117 702.923 123.741 702.923 125.726ZM648.285 134.145C648.285 136.13 648.884 137.754 649.617 137.754C650.35 137.754 650.95 136.13 650.95 134.145C650.95 132.161 650.35 130.537 649.617 130.537C648.884 130.537 648.285 132.161 648.285 134.145ZM670.939 138.355C670.939 140.671 671.539 142.565 672.272 142.565C673.005 142.565 673.605 140.671 673.605 138.355C673.605 136.04 673.005 134.145 672.272 134.145C671.539 134.145 670.939 136.04 670.939 138.355ZM733.573 142.565C733.573 146.421 735.427 147.412 736.762 144.271C738.132 141.047 737.664 138.957 735.572 138.957C734.239 138.957 733.573 140.16 733.573 142.565ZM717.582 142.494C717.582 143.779 718.181 145.163 718.914 145.572C719.67 145.994 720.247 144.983 720.247 143.238C720.247 141.545 719.647 140.16 718.914 140.16C718.181 140.16 717.582 141.21 717.582 142.494ZM698.225 148.629C696.971 150.458 698.738 156.041 700.296 155.173C701.947 154.253 701.986 148.942 700.349 148.03C699.667 147.648 698.711 147.918 698.225 148.629ZM673.605 159.405C673.605 161.389 674.164 163.013 674.848 163.013C676.467 163.013 678.016 158.576 676.944 157.01C675.313 154.629 673.605 155.855 673.605 159.405ZM648.285 161.881C648.285 164.028 648.84 165.251 649.617 164.817C650.35 164.408 650.95 162.753 650.95 161.138C650.95 159.522 650.35 158.202 649.617 158.202C648.884 158.202 648.285 159.858 648.285 161.881ZM726.91 161.739C726.91 163.024 727.51 164.408 728.243 164.817C728.998 165.239 729.575 164.228 729.575 162.483C729.575 160.79 728.976 159.405 728.243 159.405C727.51 159.405 726.91 160.455 726.91 161.739ZM711.451 162.291C710.964 163.439 711.224 164.972 712.03 165.7C713.096 166.662 713.738 166.454 714.383 164.937C714.871 163.79 714.611 162.256 713.805 161.529C712.739 160.566 712.096 160.775 711.451 162.291ZM750.559 162.111C749.807 164.128 750.937 167.824 752.307 167.824C754.184 167.824 755.106 165.506 754.225 163.002C753.276 160.303 751.403 159.847 750.559 162.111ZM706.92 176.244C706.92 179.793 708.629 181.019 710.26 178.639C711.332 177.073 709.783 172.635 708.164 172.635C707.48 172.635 706.92 174.259 706.92 176.244ZM690.929 177.376C690.929 178.66 691.478 180.016 692.148 180.39C693.609 181.206 694.783 178.659 693.922 176.545C692.969 174.208 690.929 174.775 690.929 177.376ZM666.941 181.126C666.941 183.273 667.497 184.496 668.274 184.062C669.007 183.653 669.607 181.998 669.607 180.383C669.607 178.767 669.007 177.447 668.274 177.447C667.541 177.447 666.941 179.103 666.941 181.126ZM650.95 182.859C650.95 184.513 651.549 185.866 652.282 185.866C653.015 185.866 653.615 184.513 653.615 182.859C653.615 181.205 653.015 179.852 652.282 179.852C651.549 179.852 650.95 181.205 650.95 182.859ZM742.502 182.668C742.125 183.555 742.335 185.039 742.97 185.965C744.525 188.236 747.577 185.585 746.452 182.94C745.47 180.631 743.427 180.49 742.502 182.668ZM726.91 184.593C726.91 185.877 727.51 187.262 728.243 187.671C728.998 188.093 729.575 187.081 729.575 185.336C729.575 183.644 728.976 182.258 728.243 182.258C727.51 182.258 726.91 183.308 726.91 184.593ZM713.584 191.809C713.584 193.094 714.133 194.45 714.803 194.824C716.264 195.639 717.438 193.093 716.577 190.978C715.624 188.641 713.584 189.209 713.584 191.809ZM682.933 191.279C682.933 191.61 682.633 191.88 682.267 191.88C681.9 191.88 681.6 191.61 681.6 191.279C681.6 190.948 681.9 190.678 682.267 190.678C682.633 190.678 682.933 190.948 682.933 191.279ZM678.558 197.777C642.629 233.782 639.714 235.752 630.522 230.257C621.91 225.108 622.363 224.336 638.853 216.041C655.47 207.684 654.626 207.936 655.188 211.174C655.803 214.719 658.279 213.521 658.279 209.677C658.279 204.708 675.265 191.293 678.936 193.364C681.459 194.785 681.451 194.878 678.558 197.777ZM640.289 204.51C640.289 206.164 640.888 207.517 641.621 207.517C642.354 207.517 642.954 206.164 642.954 204.51C642.954 202.856 642.354 201.503 641.621 201.503C640.888 201.503 640.289 202.856 640.289 204.51ZM617.634 211.727C617.634 213.381 618.234 214.734 618.967 214.734C619.699 214.734 620.299 213.381 620.299 211.727C620.299 210.073 619.699 208.72 618.967 208.72C618.234 208.72 617.634 210.073 617.634 211.727ZM638.956 227.965C638.956 231.514 640.665 232.74 642.296 230.36C643.367 228.794 641.819 224.356 640.199 224.356C639.516 224.356 638.956 225.98 638.956 227.965ZM558.998 282.693C558.998 283.024 558.698 283.294 558.332 283.294C557.965 283.294 557.665 283.024 557.665 282.693C557.665 282.362 557.965 282.091 558.332 282.091C558.698 282.091 558.998 282.362 558.998 282.693ZM556.333 283.896C556.333 284.226 556.033 284.497 555.666 284.497C555.3 284.497 555 284.226 555 283.896C555 283.565 555.3 283.294 555.666 283.294C556.033 283.294 556.333 283.565 556.333 283.896Z" fill="#ED4865"/>
<path fill-rule="evenodd" clip-rule="evenodd" d="M587.955 44.2382C548.712 61.7844 561.373 128.37 604.918 133.45C612.284 134.309 616.748 137.203 619.365 142.812C620.266 144.743 621.55 146.324 622.219 146.324C627.755 146.324 615.21 132.292 608.705 131.209C599.232 129.63 579.776 119.018 579.776 115.43C579.776 114.027 581.015 114.332 585.13 116.75C588.074 118.481 595.827 121.481 602.359 123.418C615.942 127.444 617.211 128.193 620.675 134.225C622.067 136.647 625.922 141.59 629.241 145.208L635.277 151.789L634.336 162.311C633.208 174.921 632.308 176.312 612.819 195.588C605.283 203.04 597.453 211.075 595.419 213.444C591.25 218.297 581.296 219.473 574.323 215.933C569.945 213.71 564.803 213.721 561.469 215.962C559.148 217.52 558.554 217.502 556.441 215.805C550.281 210.853 518.081 224.113 508.338 235.611L505.742 238.675L512.156 250.143C519.92 264.021 521.795 262.554 495.044 263.537L472.765 264.356L472.335 267.685C471.774 272.002 472.344 272.177 503.301 277.156C517.098 279.375 528.879 281.761 529.483 282.458C530.088 283.155 532.389 285.623 534.599 287.942L538.616 292.16L545.2 290.596C553.129 288.712 577.843 275.859 585.315 269.734C591.486 264.673 592.132 261.079 587.961 255.003C582.161 246.555 594.717 226.544 604.15 229.203C605.692 229.638 608.789 229.114 611.188 228.012C613.545 226.93 615.81 226.344 616.221 226.709C617.561 227.899 613.484 231.191 607.126 234.055C597.95 238.187 594.699 241.666 598.006 243.814C600.359 245.342 600.223 245.561 595.944 247.149C586.119 250.795 586.119 255.248 595.941 257.67C609.34 260.975 618.337 258.1 626.892 247.78C630.116 243.891 635.71 238.616 639.322 236.055C646.6 230.898 671.338 208.493 680.406 198.843L686.227 192.649L694.223 200.054L702.22 207.459L701.004 221.859C700.336 229.778 698.565 242.308 697.068 249.702C687.975 294.651 688.347 334.427 698.355 387.23C699.807 394.887 701.638 406.055 702.426 412.047C703.214 418.04 705.156 430.086 706.744 438.818C710.202 457.833 709.663 460.264 700.997 464.755C695.874 467.41 694.845 468.597 694.158 472.649L693.35 477.419L692.284 473.485C690.3 466.164 685.419 469.117 685.878 477.361C686.08 480.979 685.794 481.787 684.786 480.445C684.035 479.447 683.412 477.131 683.4 475.3C683.377 471.635 681.242 471.042 677.294 473.606C675.365 474.859 674.981 476.144 675.65 479.114C676.195 481.532 676.018 482.71 675.18 482.25C674.441 481.845 673.837 480.493 673.837 479.244C673.837 474.346 655.991 476.38 651.135 481.833C641.233 492.951 651.209 497.287 688.832 498.218C737.257 499.418 738.729 498.86 738.208 479.474C737.343 447.176 736.96 452.405 743.413 408.327C744.883 398.29 747.047 385.488 748.222 379.879L750.361 369.677L775.828 369.503C789.835 369.406 807.737 368.695 815.609 367.922C823.482 367.149 834.217 366.232 839.465 365.884L849.008 365.251L853.449 371.398C857.24 376.647 858.535 377.56 862.31 377.641L866.729 377.737L862.907 378.974C857.263 380.802 858.626 384.047 865.38 384.856L870.819 385.508L866.388 386.465C859.238 388.01 861.489 393.197 869.388 393.379L873.545 393.475L869.797 394.69C860.814 397.604 870.16 416.284 880.598 416.284H885.132L885.385 409.324L885.637 402.363L886.137 408.718C888.234 435.332 891.203 400.385 889.488 369.28C887.694 336.753 886.759 335.646 863.113 338.105C859.104 338.521 852.461 339.18 848.349 339.569C831.586 341.152 776.257 335.08 764.165 330.331L758.006 327.911L758.919 322.767C760.428 314.271 764.968 301.83 774.711 279.489C787.769 249.544 789.016 244.746 789.021 224.407C789.027 205.45 789.008 205.394 776.321 188.089C771.015 180.853 770.076 178.643 769.889 172.957C769.348 156.474 729.183 112.47 702.006 98.5886C694.8 94.9084 691.618 92.3432 687.969 87.2781C666.765 57.8404 611.105 33.8878 587.955 44.2382ZM605.373 69.5213C607.31 70.7258 608.403 72.6615 608.403 74.8866C608.403 77.3719 609.573 79.1055 612.493 80.9528C620.138 85.7867 617.306 101.016 608.241 103.823C589.97 109.479 564.266 91.4558 581.667 85.1899C591.492 81.6513 597.498 76.8187 597.498 72.4545C597.498 67.2309 600.122 66.2539 605.373 69.5213ZM629.125 84.7383C638.158 86.4452 638.352 86.7334 638.354 98.5063C638.358 114.143 636.601 116.674 630.178 110.288C628.324 108.445 625.178 105.857 623.187 104.537C620.003 102.426 618.453 83.374 621.466 83.374C621.706 83.374 625.152 83.9877 629.125 84.7383ZM679.971 93.1095C695.559 97.9821 698.436 100.55 698.436 100.55L699.801 101.155C700.551 101.155 701.166 102.299 701.166 102.299C701.166 102.299 701.431 101.624 712.663 109.111C740.297 127.53 762.93 154.03 764.806 170.16L765.565 176.697L758.893 182.394C741.695 197.076 702.355 207.044 700.577 197.169C699.823 192.984 697.011 190.12 697.011 193.537C697.011 195.976 693.73 194.621 686.669 189.264L679.44 183.779L681.385 178.884C688.048 162.112 689.88 131.163 684.873 119.949C683.302 116.429 681.378 116.077 681.378 114.476L677.076 111.419C677.076 111.419 675.97 110.953 672.79 109.854C656.943 104.384 637.031 120.564 637.031 138.913C637.031 144.774 634.337 139.695 633.451 132.163C632.432 123.518 633.522 118.481 636.409 118.481C639.629 118.481 641.266 112.877 642.099 99.0196L642.866 86.2164L655.285 87.7454C662.115 88.5868 673.223 91.0007 679.971 93.1095ZM673.441 113.596C687.347 121.126 688.494 157.373 675.632 182.898C665.236 203.53 609.409 231.364 601.016 220.101L597.356 215.188L605.478 207.087C619.376 193.222 621.596 191.613 622.676 194.634C624.18 198.839 626.125 197.49 626.125 192.242C626.125 188.815 627.308 185.775 630.013 182.254C636.593 173.69 637.047 172.301 639.094 154.511C643.27 118.228 655.372 103.812 673.441 113.596ZM265.419 130.207C263.843 130.483 258.936 133.436 254.514 136.772C250.093 140.106 242.891 144.539 238.51 146.623C222.87 154.065 219.745 162.877 229.435 172.211C234.644 177.231 234.847 177.723 233.992 183.26C232.937 190.099 235.103 192.295 242.986 192.377L247.838 192.427L242.568 196.561C239.054 199.318 233.128 201.928 224.779 204.398C168.978 220.907 138.024 290.876 156.216 359.379C158.249 367.032 159.931 376.293 159.954 379.958C160.206 419.822 180.418 436.538 222.619 431.782C226.747 431.318 228.584 431.371 226.708 431.902C215.195 435.162 208.987 439.867 208.987 445.33C208.987 446.745 208.416 447.589 207.718 447.206C200.734 443.374 207.076 456.828 216.696 466.255C221.602 471.063 228.013 478.105 230.942 481.902C237.371 490.24 243.526 494.603 252.083 496.89C258.904 498.713 278.063 499.205 271.694 497.393C268.663 496.532 268.856 496.411 273.441 496.304C293.077 495.844 293.536 485.457 274.304 476.782C267.393 473.665 266.42 472.718 263.74 466.499C258.858 455.172 260.03 445.807 265.921 449.073C270.092 451.387 282.045 445.156 304.411 429.008C310.034 424.947 324.639 414.912 336.867 406.706C363.239 389.008 381.569 373.99 385.023 367.256C391.013 355.575 384.622 333.811 373.262 327.201L369.858 325.221L373.466 321.421C382.066 312.364 383.143 304.533 375.709 305.119C366 305.884 366.255 289.473 376.111 279.22C386.127 268.799 387.831 263.877 384.14 256.03C381.467 250.351 375.116 249.899 368.409 254.911L364.037 258.179L361.443 255.334C358.187 251.765 358.724 250.283 363.796 248.843C371.526 246.647 378.1 239.511 375.225 236.435C371.59 232.547 361.778 235.316 357.523 241.429L354.813 245.323L350.723 241.93C345.849 237.887 336.409 235.986 333.707 238.503C329.491 242.431 338.86 250.421 347.692 250.43C351.933 250.435 357.575 253.86 357.575 256.431C357.575 257.098 354.796 257.291 350.976 256.889C340.702 255.81 335.804 259.108 340.639 263.853C342.647 265.823 342.312 266.047 335.527 267.269C321.944 269.713 275.114 278.45 272.234 279.078C269.481 279.677 269.337 279.169 268.658 266.582C268.065 255.582 267.114 251.284 262.772 239.993L257.593 226.527L261.07 220.624L264.547 214.722L273.608 213.911C288.557 212.574 300.106 204.592 304.543 192.534C305.441 190.089 308.387 186.381 311.088 184.294C316.302 180.264 316.396 179.77 315.214 162.667C315.076 160.67 315.424 157.022 315.987 154.561C318.038 145.605 313.134 140.294 302.775 140.253C297.841 140.234 295.434 139.195 286.679 133.311C280.856 129.396 274.972 128.536 265.419 130.207ZM623.399 149.351C623.399 149.684 623.705 149.956 624.08 149.956C624.455 149.956 624.762 149.684 624.762 149.351C624.762 149.018 624.455 148.745 624.08 148.745C623.705 148.745 623.399 149.018 623.399 149.351ZM272.434 174.453C274.232 179.85 278.562 181.393 291.981 181.413L303.406 181.431L302.656 186.396C301.053 197.014 288.026 209.244 276.228 211.21C262.462 213.503 251.521 198.321 260.923 189.972C263.925 187.306 264.851 185.616 264.123 184.128C261.507 178.784 261.85 174.492 265.051 172.501C269.595 169.675 270.965 170.037 272.434 174.453ZM681.562 191.923C681.062 192.366 680.653 192.003 680.653 191.116C680.653 190.229 681.062 189.865 681.562 190.308C682.061 190.753 682.061 191.479 681.562 191.923ZM679.641 193.949C683.397 191.888 674.044 201.512 656.809 217.446C635.978 236.704 636.594 236.438 627.42 230.157C618.957 224.363 618.154 225.556 636.69 216.389L652.707 208.467L655.854 207.459C655.854 207.459 655.706 206.596 659.981 203.964C662.779 202.244 667.473 198.646 670.417 195.97C674.797 191.986 675.977 191.439 676.93 192.951C677.571 193.967 678.791 194.416 679.641 193.949ZM253.828 199.079C254.568 201.462 256.812 205.317 258.813 207.648L262.451 211.883L258.341 219.356C256.081 223.465 253.866 227.827 253.42 229.047C251.619 233.968 243.331 223.235 238.707 209.997L237.058 205.271L243.602 200.01C251.527 193.638 252.12 193.584 253.828 199.079ZM233.995 209.577C235.039 211.076 237.31 215.428 239.044 219.251C242.749 227.424 249.084 234.697 252.497 234.697C258.966 234.697 263.517 246.194 264.481 264.962C266.158 297.615 256.451 296.082 239.649 261.042C220.191 220.454 171.097 225.145 182.993 266.455C191.407 295.67 228.515 335.175 247.543 335.175C250.097 335.175 251.733 336.146 253.109 338.48L255.059 341.785L222.822 351.618C205.091 357.025 185.676 363.162 179.678 365.255C164.335 370.609 163.211 370.459 160.607 362.716C143.596 312.109 162.07 245.063 200.126 219.296C216.251 208.378 230.344 204.334 233.995 209.577ZM550.463 217.755C547.719 221.698 533.706 228.507 533.034 226.224C532.217 223.452 533.632 222.275 541.686 219.031C548.31 216.363 551.784 215.857 550.463 217.755ZM571.772 218.553C573.473 220.384 573.356 220.431 570.483 219.072C567.878 217.838 566.744 217.915 564.008 219.507C562.145 220.59 560.692 220.877 560.692 220.159C560.692 218.907 565.325 216.767 568.364 216.614C569.209 216.573 570.742 217.445 571.772 218.553ZM555.239 219.488C555.239 222.62 529.53 237.878 518.353 241.381C508.653 244.419 510.818 242.511 523.022 237.265C529.378 234.534 539.07 229.298 544.561 225.628C554.684 218.866 555.239 218.547 555.239 219.488ZM598.598 223.379C599.431 228.576 586.804 238.329 579.239 238.329C569.428 238.329 570.815 229.805 581.253 225.953C588.03 223.452 589.357 222.118 586.251 220.93C585.315 220.572 587.615 220.39 591.363 220.527C597.195 220.739 598.239 221.152 598.598 223.379ZM570.622 222.954C570.996 223.821 570.527 225.815 569.581 227.386L567.858 230.244L565.52 227.076C564.234 225.334 563.579 223.339 564.063 222.644C565.305 220.859 569.809 221.072 570.622 222.954ZM569.019 237.118C585.766 257.889 585.997 258.292 583.265 261.996C578.769 268.088 544.733 286.752 538.116 286.752C537.024 286.752 515.706 250.478 515.706 248.621C515.706 248.3 519.734 246.415 524.658 244.432C535.038 240.253 550.361 231.454 555.135 226.932C559.767 222.545 557.451 223.034 550.697 227.869C545.251 231.769 536.098 237.175 537.517 235.655C551.033 221.175 556.365 221.423 569.019 237.118ZM528.397 228.737C529.116 231.178 513.751 239.417 511.768 237.656C510.815 236.809 524.331 227.007 527.475 226.265C527.575 226.242 527.99 227.355 528.397 228.737ZM626.02 232.989C635.652 240.186 619.924 255.311 602.861 255.259C591.154 255.222 590.614 252.444 601.587 248.713C614.793 244.223 618.285 239.882 607.651 241.176C600.033 242.103 600.671 240.606 609.608 236.584C613.164 234.984 616.876 232.816 617.857 231.765C620.255 229.2 621.123 229.33 626.02 232.989ZM215.121 238.208C224.68 242.146 230.302 248.775 237.539 264.643C252.041 296.439 279.245 312.468 319.061 312.678L338.484 312.78L338.486 320.181L338.491 327.583L332.015 328.398C301.507 332.24 291.831 333.057 275.783 333.148C234.014 333.384 216.862 322.849 195.228 283.677C176.487 249.741 186.663 226.482 215.121 238.208ZM536.154 236.496C536.154 237.229 520.262 244.403 518.813 244.322C518.228 244.291 521.738 242.411 526.612 240.145C536.474 235.56 536.154 235.681 536.154 236.496ZM580.686 245.189C580.185 245.632 579.776 245.269 579.776 244.382C579.776 243.494 580.185 243.131 580.686 243.574C581.184 244.018 581.184 244.745 580.686 245.189ZM517.069 244.987C517.069 245.32 516.763 245.592 516.388 245.592C516.013 245.592 515.706 245.32 515.706 244.987C515.706 244.654 516.013 244.382 516.388 244.382C516.763 244.382 517.069 244.654 517.069 244.987ZM519.816 251.086C525.512 264.39 541.475 287.811 538.142 277.975C536.368 272.742 521.825 248.786 520.126 248.298C518.807 247.919 518.735 248.563 519.816 251.086ZM383.476 262.589C383.476 264.968 378.285 272.834 374.817 275.708C370.67 279.145 367.118 278.393 367.118 274.078C367.118 272.393 367.037 270.612 366.939 270.121C366.841 269.63 369.554 267.858 372.967 266.187C376.381 264.514 379.63 262.736 380.189 262.238C381.653 260.928 383.476 261.122 383.476 262.589ZM586.592 264.146C586.592 264.362 584.905 265.86 582.843 267.475L579.095 270.409L582.399 267.08C585.488 263.969 586.592 263.195 586.592 264.146ZM523.772 271.094C527.958 277.71 503.212 276.78 483.233 269.571L479.581 268.253L482.989 267.333C484.864 266.827 494.106 266.36 503.527 266.293L520.657 266.172L523.772 271.094ZM347.351 268.593C347.815 269.259 347.887 269.804 347.512 269.804C347.137 269.804 346.452 269.259 345.988 268.593C345.525 267.927 345.452 267.383 345.827 267.383C346.202 267.383 346.888 267.927 347.351 268.593ZM350.168 286.033C352.538 294.422 304.535 309.648 288.644 305.545C242.348 293.593 254.313 284.592 335.764 270.093L341.898 269.001L345.583 275.925C347.609 279.733 349.673 284.281 350.168 286.033ZM361.389 276.159C360.816 286.857 355.545 287.957 351.036 278.32L348.165 272.184L352.529 270.488C361.032 267.182 361.843 267.701 361.389 276.159ZM555.239 283.726C555.239 284.058 554.932 284.331 554.557 284.331C554.182 284.331 553.876 284.058 553.876 283.726C553.876 283.393 554.182 283.12 554.557 283.12C554.932 283.12 555.239 283.393 555.239 283.726ZM552.512 284.936C552.512 285.269 552.206 285.541 551.831 285.541C551.456 285.541 551.149 285.269 551.149 284.936C551.149 284.603 551.456 284.331 551.831 284.331C552.206 284.331 552.512 284.603 552.512 284.936ZM549.786 286.147C549.786 286.48 549.479 286.752 549.104 286.752C548.729 286.752 548.423 286.48 548.423 286.147C548.423 285.814 548.729 285.541 549.104 285.541C549.479 285.541 549.786 285.814 549.786 286.147ZM362.991 294.318L362.954 301.884L354.066 305.411C344.527 309.196 320.904 311.852 314.873 309.819C312.203 308.918 312.518 308.603 318.043 306.648C329.101 302.735 353.169 291.49 355.61 289.096C360.563 284.235 363.032 285.982 362.991 294.318ZM545.696 287.357C545.696 287.69 545.39 287.963 545.015 287.963C544.64 287.963 544.333 287.69 544.333 287.357C544.333 287.024 544.64 286.752 545.015 286.752C545.39 286.752 545.696 287.024 545.696 287.357ZM357.575 309.753L354.663 313.385L357.823 313.345C359.561 313.323 364.35 312.274 368.466 311.012C377.155 308.349 377.583 308.484 375.38 313.208C371.289 321.978 362.109 326.681 349.055 326.694L342.58 326.701V320.234V313.769L350.418 310.062C360.382 305.349 361.132 305.318 357.575 309.753ZM857.256 347.848C861.147 356.115 858.862 360.385 849.982 361.443L844.237 362.127V352.889V343.649H849.759C854.771 343.649 855.464 344.037 857.256 347.848ZM420.964 359.575C414.757 362.589 412.906 368.773 416.831 373.38C419.83 376.902 419.384 377.461 414.171 376.709C408.717 375.924 401.677 378.12 399.83 381.185C398.013 384.199 399.235 384.671 405.583 383.405C416.329 381.261 422.466 384.41 423.953 392.831L424.782 397.52L421.906 395.259C418.133 392.292 407.864 391.329 401.105 393.31C393.66 395.493 394.383 396.466 404.178 397.45C414.219 398.459 419.075 400.483 422.901 405.255C428.701 412.489 427.746 412.923 402.561 414.463C371.101 416.387 362.67 421.176 369.68 433.139C372.219 437.47 375.214 446.34 377.896 457.476C384.109 483.244 384.231 483.551 389.294 485.645C405.869 492.504 459.931 492.31 469.6 485.357C471.841 483.744 473.755 478.195 478.397 459.846C483.817 438.419 484.708 436.048 488.738 432.356C498.368 423.533 482.489 416.462 447.424 413.959C429.42 412.674 428.973 412.402 435.959 407C442.515 401.933 448.734 399.336 454.319 399.336C459.68 399.336 459.568 397.495 454.021 394.436C447.912 391.067 441.502 392.216 434.937 397.856L429.825 402.249V398.598C429.825 392.662 443.484 383.705 452.658 383.625C456.321 383.594 456.651 381.463 453.34 379.231C447.676 375.413 435.509 378.061 429.965 384.321L427.138 387.513L424.252 381.622C419.771 372.472 419.361 367.142 422.818 362.99C427.034 357.923 426.477 356.897 420.964 359.575ZM421.475 417.041C426.737 417.976 426.971 419.621 421.986 420.626C419.925 421.041 414.32 422.418 409.532 423.687C402.683 425.501 399.776 425.733 395.9 424.777C388.134 422.862 384.205 423.307 380.84 426.488C377.531 429.617 371.207 428.779 371.207 425.212C371.207 420.584 407.872 414.625 421.475 417.041ZM452.999 417.523C476.526 419.351 490.239 423.345 484.896 426.813C481.433 429.063 478.919 428.801 469.867 425.243C463.632 422.791 460.578 422.256 456.066 422.822C452.879 423.221 447.524 423.891 444.166 424.308C437.106 425.187 431.188 422.619 431.188 418.678C431.188 415.857 431.402 415.845 452.999 417.523ZM241.704 427.785C241.704 428.118 241.397 428.39 241.022 428.39C240.647 428.39 240.34 428.118 240.34 427.785C240.34 427.452 240.647 427.18 241.022 427.18C241.397 427.18 241.704 427.452 241.704 427.785ZM238.523 429.198C238.023 429.641 237.205 429.641 236.705 429.198C236.206 428.753 236.615 428.39 237.614 428.39C238.613 428.39 239.022 428.753 238.523 429.198ZM233.07 430.408C232.57 430.851 231.752 430.851 231.252 430.408C230.753 429.964 231.162 429.601 232.161 429.601C233.16 429.601 233.569 429.964 233.07 430.408ZM254.575 437.042C258.044 440.468 260.659 443.874 260.386 444.608C259.349 447.404 248.89 452.87 246.088 452.08C239.426 450.203 236.271 434.762 242.044 432.288C247.024 430.157 247.965 430.512 254.575 437.042ZM425.735 436.075C450.405 436.027 462.147 435.502 470.667 434.069C483.997 431.827 486.438 432.229 476.078 434.961C452.902 441.074 381.403 439.123 373.551 432.165C372.966 431.646 376.953 432.328 382.411 433.681C391.193 435.857 396.186 436.133 425.735 436.075ZM428.462 441.07C451.41 441.08 464.346 440.58 469.806 439.473C480.255 437.357 480.022 436.518 475.05 458.366C468.963 485.115 468.816 485.236 439.218 487.772C396.614 491.422 387.842 486.415 380.785 454.418C379.17 447.094 377.572 440.239 377.235 439.185C376.675 437.439 377.44 437.438 385.842 439.163C392.858 440.604 403.05 441.059 428.462 441.07ZM732.174 458.956L731.773 467.732L726.344 469.307C715.714 472.391 710.897 467.803 712.678 456.294L713.626 450.181H723.1H732.574L732.174 458.956ZM261.907 470.378C264.258 474.246 263.87 476.593 261.4 473.46C258.681 470.014 253.949 457.821 254.053 454.53C254.096 453.137 255.521 455.538 257.217 459.865C258.914 464.193 261.024 468.924 261.907 470.378ZM254.036 467.068C258.772 477.403 258.944 478.529 255.541 476.912C253.251 475.823 250.166 468.741 247.85 459.26C246.39 453.281 249.539 457.257 254.036 467.068ZM221.43 463.195C223.125 465.115 223.077 465.157 220.915 463.652C218.644 462.07 217.923 461.076 219.044 461.076C219.327 461.076 220.401 462.03 221.43 463.195ZM237.614 482.261C237.614 482.594 237.307 482.867 236.932 482.867C236.557 482.867 236.251 482.594 236.251 482.261C236.251 481.928 236.557 481.656 236.932 481.656C237.307 481.656 237.614 481.928 237.614 482.261ZM248.52 491.946C248.52 492.279 248.213 492.551 247.838 492.551C247.463 492.551 247.156 492.279 247.156 491.946C247.156 491.613 247.463 491.341 247.838 491.341C248.213 491.341 248.52 491.613 248.52 491.946ZM251.246 493.156C251.246 493.489 250.939 493.762 250.564 493.762C250.189 493.762 249.883 493.489 249.883 493.156C249.883 492.824 250.189 492.551 250.564 492.551C250.939 492.551 251.246 492.824 251.246 493.156Z" fill="#007C77"/>
<path fill-rule="evenodd" clip-rule="evenodd" d="M600.574 68.2027C600.126 69.2468 599.76 71.089 599.76 72.2964C599.76 74.705 593.068 80.2616 587.729 82.285C575.808 86.8047 577.207 94.9235 590.886 100.624C611.178 109.081 629.856 93.4233 615.851 79.6987C613.638 77.5313 611.828 74.7098 611.828 73.4305C611.828 68.2663 602.421 63.8955 600.574 68.2027ZM623.369 83.8043C622.921 84.8484 622.555 89.0657 622.555 93.1761V100.65L630.032 106.428C639.587 113.811 640.657 113.017 640.657 98.5395C640.657 85.0705 627.598 73.9393 623.369 83.8043ZM681.554 188.717C681.554 189.377 682.157 189.917 682.895 189.917C683.632 189.917 684.236 189.377 684.236 188.717C684.236 188.057 683.632 187.517 682.895 187.517C682.157 187.517 681.554 188.057 681.554 188.717ZM589.759 219.02C590.133 219.896 588.033 221.539 584.708 222.971C573.526 227.787 572.984 235.522 583.831 235.522C592.965 235.522 604.184 224.09 599.746 219.304C597.687 217.084 588.823 216.832 589.759 219.02ZM619.719 229.357C617.96 230.585 613.956 232.756 610.823 234.181C603.415 237.547 603.314 239.687 610.611 238.643C618.712 237.484 616.843 240.144 606.392 244.646C595.842 249.191 595.165 251.576 604.276 252.095C621.625 253.083 639.104 237.72 629.156 230.228C624.235 226.521 623.829 226.483 619.719 229.357ZM582.329 241.522C582.329 242.182 582.932 242.722 583.67 242.722C584.407 242.722 585.011 242.182 585.011 241.522C585.011 240.862 584.407 240.322 583.67 240.322C582.932 240.322 582.329 240.862 582.329 241.522ZM842.459 348.933V357.934H846.585C851.351 357.934 858.55 352.31 858.55 348.588C858.55 344.009 853.451 339.932 847.725 339.932H842.459V348.933ZM713.459 450.644C712.153 462.578 716.541 467.313 726.642 464.871C732.741 463.396 733.848 461.231 733.848 450.794V445.543H723.932H714.017L713.459 450.644Z" fill="#D89687"/>
<path fill-rule="evenodd" clip-rule="evenodd" d="M267.179 175.06C265.746 176.502 264.956 179.439 264.951 183.321C264.949 187.179 263.984 190.784 262.267 193.35C260.793 195.555 259.587 198.17 259.587 199.164C259.587 201.516 257.411 201.495 256.416 199.134C255.132 196.081 252.117 197.032 245.334 202.629L238.875 207.96L242.684 216.809C247.473 227.939 251.706 232.717 255.143 230.874C259.411 228.583 265.4 215.68 263.738 212.355C262.335 209.547 262.363 209.534 265.666 211.507C274.354 216.697 289.64 211.386 299.826 199.64C309.502 188.478 307.057 184.273 289.892 182.555C281.24 181.69 280.087 181.233 276.386 177.216C271.798 172.233 270.326 171.888 267.179 175.06ZM259.587 204.03C259.587 204.366 259.285 204.641 258.916 204.641C258.547 204.641 258.245 204.366 258.245 204.03C258.245 203.693 258.547 203.418 258.916 203.418C259.285 203.418 259.587 203.693 259.587 204.03ZM373.46 268.648C367.263 272.958 365.807 277.356 369.817 279.662C373.132 281.568 375.998 279.924 380.407 273.585C387.27 263.719 383.946 261.357 373.46 268.648ZM347.515 271.952C347.971 272.625 348.646 273.175 349.015 273.175C349.384 273.175 349.313 272.625 348.857 271.952C348.401 271.278 347.725 270.728 347.356 270.728C346.987 270.728 347.058 271.278 347.515 271.952ZM351.877 273.273C348.809 274.902 348.915 277.75 352.225 282.702C357.187 290.118 362.952 288.544 362.952 279.773C362.952 272.223 358.631 269.687 351.877 273.273ZM350.535 313.03L344.159 316.056V323.375V330.695L349.864 330.688C362.12 330.673 372.718 325.284 376.391 317.2C378.72 312.074 377.6 311.627 368.345 313.971C357.903 316.619 357.146 316.592 358.878 313.642C361.689 308.853 359.651 308.704 350.535 313.03ZM243.478 432.884C243.478 433.22 243.78 433.496 244.15 433.496C244.519 433.496 244.821 433.22 244.821 432.884C244.821 432.547 244.519 432.272 244.15 432.272C243.78 432.272 243.478 432.547 243.478 432.884ZM239.898 434.312C240.391 434.76 241.196 434.76 241.689 434.312C242.18 433.863 241.778 433.496 240.794 433.496C239.81 433.496 239.407 433.863 239.898 434.312ZM234.529 435.536C235.021 435.984 235.827 435.984 236.319 435.536C236.811 435.087 236.408 434.72 235.424 434.72C234.44 434.72 234.037 435.087 234.529 435.536ZM244.457 437.329C238.469 440.383 243.163 456.748 250.027 456.748C254.826 456.748 262.821 451.925 263.333 448.721C264.135 443.702 249.397 434.808 244.457 437.329ZM256.916 462.489C256.931 466.353 262.469 477.988 264.962 479.393C266.797 480.426 266.396 478.829 261.953 467.419C258.811 459.351 256.897 457.478 256.916 462.489ZM250.488 466.046C251.419 472.339 256.704 482.449 259.064 482.449C261.825 482.449 261.369 479.897 257.03 471.081C252.211 461.289 249.474 459.183 250.488 466.046ZM222 467.002C222 467.255 222.92 468.159 224.044 469.01C225.753 470.303 225.951 470.228 225.243 468.547C224.521 466.833 222 465.63 222 467.002ZM239.451 487.956C239.451 488.292 239.753 488.568 240.122 488.568C240.492 488.568 240.794 488.292 240.794 487.956C240.794 487.619 240.492 487.344 240.122 487.344C239.753 487.344 239.451 487.619 239.451 487.956ZM250.19 497.746C250.19 498.083 250.492 498.358 250.862 498.358C251.231 498.358 251.533 498.083 251.533 497.746C251.533 497.41 251.231 497.134 250.862 497.134C250.492 497.134 250.19 497.41 250.19 497.746ZM252.875 498.97C252.875 499.307 253.177 499.582 253.546 499.582C253.916 499.582 254.218 499.307 254.218 498.97C254.218 498.634 253.916 498.358 253.546 498.358C253.177 498.358 252.875 498.634 252.875 498.97Z" fill="#B16C5C"/>
<path fill-rule="evenodd" clip-rule="evenodd" d="M237.013 204.071C238.057 205.603 240.329 210.051 242.063 213.959C245.769 222.313 252.105 229.747 255.519 229.747C261.989 229.747 266.542 241.499 267.506 260.682C269.183 294.058 259.473 292.492 242.668 256.675C223.206 215.189 174.101 219.984 186 262.209C194.416 292.071 231.531 332.451 250.564 332.451C253.118 332.451 254.754 333.443 256.131 335.829L258.081 339.207L225.837 349.257C208.102 354.785 188.684 361.057 182.684 363.197C167.338 368.67 166.213 368.516 163.609 360.602C146.594 308.874 165.072 240.343 203.137 214.005C219.265 202.845 233.361 198.712 237.013 204.071ZM218.135 233.336C227.696 237.361 233.319 244.137 240.558 260.357C255.062 292.857 282.272 309.241 322.097 309.455L341.524 309.559L341.527 317.125L341.531 324.69L335.054 325.524C304.539 329.45 294.861 330.286 278.81 330.378C237.032 330.62 219.876 319.852 198.238 279.812C179.492 245.124 189.671 221.35 218.135 233.336ZM353.21 282.22C355.582 290.795 307.568 306.358 291.673 302.165C245.368 289.948 257.335 280.748 338.804 265.927L344.94 264.811L348.625 271.888C350.651 275.781 352.716 280.43 353.21 282.22Z" fill="#16314F"/>
<path fill-rule="evenodd" clip-rule="evenodd" d="M378.815 441.436C390.565 446.872 453.216 448.435 473.209 443.79C483.653 441.364 482.108 441.094 468.177 442.909C442.351 446.275 396 445.077 378.163 440.584C376.42 440.145 376.635 440.427 378.815 441.436ZM380.702 447.465C381.093 448.824 382.829 455.363 384.558 461.998C391.244 487.657 399.565 491.829 438.223 488.912C468.507 486.628 468.348 486.739 474.223 463.71C478.997 445.004 479.174 445.587 469.187 447.265C450.151 450.464 394.626 449.47 382.332 445.711C380.385 445.116 380.108 445.413 380.702 447.465Z" fill="#C4C4C4"/>
<path fill-rule="evenodd" clip-rule="evenodd" d="M591.745 43.4235C572.237 49.8494 561.118 69.0676 566.061 87.8164C573.112 114.565 587.267 130.186 605.985 131.879L612.43 132.462L605.637 130.859C593.313 127.952 586.139 123.125 581.219 114.43L578.91 110.346L583.442 113.38C589.786 117.628 597.679 120.932 605.637 122.67C616.199 124.976 620.287 127.861 624.479 135.966C626.724 140.309 630.125 144.498 632.984 146.445L637.747 149.688L636.804 160.784C636.287 166.886 635.288 172.867 634.586 174.072C632.736 177.249 610.551 199.95 602.399 207.007C598.576 210.318 595.447 213.939 595.447 215.053C595.447 218.779 579.012 219.458 573.698 215.951L569.451 213.148L564.064 215.782C558.768 218.372 558.648 218.377 557.034 216.071C553.195 210.583 524.09 222.531 511.268 234.857L507.929 238.069L514.325 249.564C517.843 255.886 520.722 261.527 520.722 262.1C520.722 262.674 510.328 263.538 497.625 264.024C479.904 264.7 474.528 265.278 474.528 266.505C474.528 269.791 476.261 271.943 478.908 271.943C480.411 271.943 493.091 273.906 507.088 276.305L532.536 280.668L535.443 286.008C539.442 293.357 548.418 291.305 572.107 277.624C591.935 266.174 594.537 262.98 589.165 256.693C583.593 250.17 583.14 242.36 588.138 238.906C590.29 237.418 594.848 233.887 598.268 231.058C602.996 227.147 604.864 226.254 606.066 227.328C607.269 228.401 608.836 228.234 612.615 226.624C624.59 221.528 621.183 228.868 609.034 234.343C597.239 239.658 595.298 243.208 603.599 244.279C606.295 244.627 605.313 245.232 598.844 247.212C584.358 251.645 591.344 258.208 609.375 257.104C618.264 256.561 622.355 253.864 629.61 243.772C631.982 240.472 634.797 237.982 636.156 237.982C638.69 237.982 665.978 213.577 678.199 200.382C699.913 176.936 711.587 213.302 700.802 270.804C692.475 315.212 691.445 377.464 699.038 377.464C699.764 377.464 700.023 376.236 699.616 374.735C699.207 373.233 698.124 362.11 697.207 350.016C694.976 320.574 695.663 313.921 707.61 249.203C708.985 241.753 708.219 219.173 706.355 212.192L704.486 205.202L708.049 204.588C751.756 197.07 774.333 182.197 767.309 165.552C756.468 139.857 724.096 107.494 698.272 96.5347C694.667 95.004 691.227 91.8384 686.995 86.1548C665.886 57.8096 616.007 35.433 591.745 43.4235ZM606.218 67.526C610.566 69.5322 612.192 72.3 610.999 75.6573C610.377 77.4075 611.131 78.2371 614.219 79.1977C623.287 82.0201 620.839 99.7379 610.793 103.994C601.823 107.794 585.172 102.8 575.741 93.4831C570.03 87.8383 570.115 87.6952 581.323 84.0516C592.716 80.3475 600.027 74.9234 598.056 71.6353C594.895 66.3629 599.106 64.2428 606.218 67.526ZM631.648 83.5168L640.557 85.5144L640.066 99.5875C639.43 117.803 638.906 118.455 630.961 110.93C627.493 107.647 623.195 104.084 621.405 103.01C618.408 101.212 618.289 100.766 619.88 97.3364C620.99 94.9434 621.286 91.4563 620.708 87.5666C619.674 80.6131 619.308 80.749 631.648 83.5168ZM669.739 88.2385C719.317 99.0623 781.64 160.244 762.946 179.741C752.83 190.291 728.57 200.452 709.266 202.225L702.101 202.883L690.829 193.157L679.558 183.432L682.237 175.23C689.016 154.483 689.915 125.067 683.989 117.92C682.247 115.82 681.158 113.32 681.569 112.367C681.978 111.412 681.76 109.402 681.085 107.901C679.918 105.311 679.851 105.349 679.769 108.636C679.699 111.445 679.233 111.937 677.305 111.234C657.75 104.096 644.851 112.624 639.03 136.536L636.626 146.409L635.057 139.982C632.327 128.791 632.928 116.789 636.182 117.549C640.263 118.501 641.641 113.632 641.641 98.2448V84.8061L651.058 85.5107C656.237 85.8989 664.644 87.1263 669.739 88.2385ZM657.945 97.2867C657.945 99.499 658.509 100.758 659.303 100.319C660.051 99.9065 660.662 98.542 660.662 97.2867C660.662 96.0313 660.051 94.6668 659.303 94.2544C658.509 93.8154 657.945 95.0744 657.945 97.2867ZM698.724 104.939C698.712 107.714 699.246 109.259 700.063 108.809C701.78 107.862 701.78 104.511 700.063 102.138C699.084 100.788 698.741 101.509 698.724 104.939ZM677.406 113.633C691.677 121.98 688.463 170.955 672.274 191.809C666.867 198.775 609.744 229.317 606.888 226.769C606.539 226.457 604.171 223.587 601.626 220.391L596.999 214.581L610.853 201.114C637.952 174.772 637.09 176.235 638.894 153.553C641.857 116.277 656.312 101.294 677.406 113.633ZM702.78 123.899C702.78 125.861 703.391 127.803 704.139 128.215C704.947 128.662 705.497 127.217 705.497 124.648C705.497 122.275 704.886 120.332 704.139 120.332C703.391 120.332 702.78 121.936 702.78 123.899ZM293.128 129.655C297.306 133.496 299.15 134.249 306.18 134.989C310.997 135.496 315.477 136.748 317.062 138.03C319.212 139.766 319.595 139.825 318.947 138.317C317.808 135.668 312.299 133.673 306.121 133.673C302.12 133.673 299.53 132.668 295.187 129.428C287.823 123.936 287.005 124.026 293.128 129.655ZM268.143 130.65C264.552 131.649 259.661 134.5 255.915 137.777C252.482 140.78 246.921 144.295 243.558 145.586C226.106 152.292 221.662 163.991 233.504 172.054C238.428 175.406 238.973 177.787 236.156 183.652C234.416 187.273 241.421 192.323 247.054 191.506C259.331 189.728 242.625 200.438 225.441 205.363C169.553 221.383 138.074 302.303 162.205 367.922C164.318 373.667 164.712 376.988 164.033 383.329C161.741 404.719 172.551 423.409 190.495 429.081C198.409 431.583 219.149 432.837 222.643 431.026C224.645 429.988 222.287 429.683 212.021 429.654C180.88 429.568 167.655 418.047 166.389 389.901C165.573 371.804 174.218 367.375 251.031 346.528C348.523 320.07 415.773 333.913 379.224 372.915C376.256 376.085 374.627 378.677 375.605 378.677C381.48 378.677 389.536 363.625 388.493 354.6C386.911 340.922 377.425 334.289 352.929 329.735C351.435 329.456 353.375 329.167 357.24 329.089C362.764 328.979 365.237 328.234 368.789 325.613C380.883 316.687 386.983 302.646 377.345 305.917C375.401 306.577 373.33 307.116 372.742 307.116C372.153 307.116 371.263 301.925 370.764 295.579L369.855 284.042L374.877 280.115C385.19 272.05 391.956 257.211 385.197 257.484C383.777 257.541 383.503 257.826 384.518 258.191C388.914 259.775 384.172 269.818 375.487 277.322C369.047 282.885 369.193 282.937 368.01 274.658C367.145 268.61 367.278 268.215 370.543 267.108C375.229 265.517 374.902 264.198 370.038 265.067C366.473 265.703 366.124 265.483 366.454 262.792C366.657 261.154 366.31 259.814 365.687 259.814C365.063 259.814 363.238 257.085 361.631 253.749C360.024 250.414 358.172 247.685 357.517 247.685C355.894 247.685 356.012 248.472 358.209 252.294C360.65 256.536 363.969 268.298 365.161 276.923L366.1 283.721L361.722 284.503C359.315 284.933 356.885 285.284 356.323 285.284C355.281 285.284 349.532 274.214 349.532 272.206C349.532 271.598 350.907 270.502 352.589 269.77C355.303 268.589 355.149 268.517 351.231 269.13C348.408 269.571 346.815 269.328 346.815 268.455C346.815 266.002 301.951 272.76 279.353 278.618C268.999 281.301 269.118 281.369 270.125 273.433C271.386 263.485 268.546 249.012 263.112 237.676C258.02 227.056 258.058 225.861 263.749 217.645C267.229 212.624 267.499 212.493 272.908 213.208C286.509 215.008 307.211 199.113 307.385 186.737C307.402 185.493 308.451 184.615 309.921 184.615C316.492 184.615 320.186 174.047 316.425 166.011C314.492 161.879 314.488 160.995 316.387 156.757C320.828 146.849 316.06 140.982 302.764 139.999C296.695 139.549 294.87 138.881 293.092 136.457C288.471 130.163 278.354 127.808 268.143 130.65ZM248.919 134.394C246.345 136.792 240.264 140.475 235.406 142.581C218.563 149.881 214.839 163.599 227.591 171.371C231.947 174.026 231.936 173.999 226.915 169.498C217.263 160.848 221.153 150.542 236.572 143.902C241.918 141.6 247.011 138.248 249.932 135.108C255.725 128.882 255.221 128.527 248.919 134.394ZM647.076 133.673C647.076 135.675 647.687 137.312 648.434 137.312C649.181 137.312 649.793 135.675 649.793 133.673C649.793 131.672 649.181 130.035 648.434 130.035C647.687 130.035 647.076 131.672 647.076 133.673ZM613.222 132.804C613.535 132.993 615.012 133.947 616.506 134.926C619.02 136.572 619.083 136.547 617.359 134.583C616.333 133.415 614.855 132.46 614.075 132.46C613.296 132.46 612.911 132.614 613.222 132.804ZM670.172 137.312C670.172 139.313 670.784 140.951 671.531 140.951C672.278 140.951 672.89 139.313 672.89 137.312C672.89 135.311 672.278 133.673 671.531 133.673C670.784 133.673 670.172 135.311 670.172 137.312ZM619.903 139.131C619.903 139.465 620.208 139.738 620.582 139.738C620.956 139.738 621.261 139.465 621.261 139.131C621.261 138.798 620.956 138.525 620.582 138.525C620.208 138.525 619.903 138.798 619.903 139.131ZM734.485 140.425C734.036 141.471 734.36 142.945 735.207 143.7C736.353 144.724 736.746 144.239 736.746 141.8C736.746 138.15 735.728 137.533 734.485 140.425ZM718.182 141.638C717.732 142.684 718.057 144.158 718.903 144.913C720.05 145.937 720.442 145.452 720.442 143.013C720.442 139.363 719.425 138.746 718.182 141.638ZM698.724 151.029C698.712 153.804 699.246 155.349 700.063 154.899C701.78 153.952 701.78 150.6 700.063 148.228C699.084 146.878 698.741 147.598 698.724 151.029ZM673.346 157.406C672.897 158.451 673.221 159.925 674.068 160.681C675.214 161.704 675.607 161.219 675.607 158.78C675.607 155.13 674.589 154.513 673.346 157.406ZM647.076 160.963C647.076 162.631 647.687 163.995 648.434 163.995C649.181 163.995 649.793 162.631 649.793 160.963C649.793 159.296 649.181 157.931 648.434 157.931C647.687 157.931 647.076 159.296 647.076 160.963ZM728.015 161.166C727.537 162.278 727.778 163.752 728.549 164.441C729.515 165.303 729.953 164.671 729.953 162.419C729.953 158.677 729.275 158.238 728.015 161.166ZM712.373 163.995C712.373 167.458 712.629 167.85 713.758 166.118C714.698 164.676 714.698 163.315 713.758 161.873C712.629 160.141 712.373 160.533 712.373 163.995ZM752.513 162.28C752.059 163.338 752.281 165.113 753.006 166.222C754.057 167.828 754.334 167.434 754.368 164.299C754.413 159.982 753.792 159.306 752.513 162.28ZM274.807 172.897C274.807 179.18 287.313 182.664 300.282 179.996L306.056 178.809L306.042 183.227C305.996 198.631 285.395 215.418 271.546 211.338C262.574 208.695 251.586 190.679 258.946 190.679C263.279 190.679 267.296 184.832 264.712 182.283C260.188 177.82 265.316 168.847 272.393 168.847C274.224 168.847 274.807 169.825 274.807 172.897ZM707.678 174.409C707.224 175.467 707.445 177.241 708.171 178.351C709.221 179.957 709.498 179.563 709.532 176.428C709.577 172.111 708.956 171.435 707.678 174.409ZM691.931 177.64C691.946 180.321 692.328 181.054 693.124 179.932C694.192 178.426 693.668 173.699 692.431 173.699C692.146 173.699 691.92 175.473 691.931 177.64ZM666.096 180.369C666.096 182.037 666.708 183.402 667.455 183.402C668.202 183.402 668.814 182.037 668.814 180.369C668.814 178.702 668.202 177.337 667.455 177.337C666.708 177.337 666.096 178.702 666.096 180.369ZM650.537 180.066C649.968 181.234 649.968 183.143 650.537 184.311C651.839 186.982 653.1 183.647 652.141 180.066C651.599 178.044 651.522 178.044 650.537 180.066ZM744.361 181.687C743.907 182.744 744.129 184.519 744.854 185.629C745.905 187.234 746.182 186.84 746.216 183.705C746.261 179.388 745.64 178.713 744.361 181.687ZM727.922 183.392C727.464 184.054 727.714 185.555 728.479 186.727C729.673 188.556 729.877 188.385 729.912 185.524C729.954 182.036 729.327 181.363 727.922 183.392ZM682.381 187.996L685.381 190.164L679.527 196.79C676.308 200.433 665.472 210.906 655.446 220.064L637.217 236.713L633.655 234.362C631.696 233.071 627.693 230.172 624.762 227.921L619.431 223.83L630.197 218.618C661.496 203.465 672.338 196.513 675.588 189.507C677.572 185.231 678.324 185.063 682.381 187.996ZM678.345 190.376C678.334 192.544 678.559 194.318 678.845 194.318C680.081 194.318 680.606 189.59 679.538 188.085C678.742 186.963 678.36 187.695 678.345 190.376ZM623.979 192.498C623.979 194.166 624.59 195.531 625.337 195.531C626.084 195.531 626.696 194.166 626.696 192.498C626.696 190.831 626.084 189.466 625.337 189.466C624.59 189.466 623.979 190.831 623.979 192.498ZM714.172 191.211C713.759 192.172 714.066 193.945 714.853 195.153C716.069 197.02 716.29 196.758 716.326 193.408C716.369 189.25 715.428 188.29 714.172 191.211ZM698.167 192.603C697.714 193.66 697.935 195.435 698.661 196.545C699.711 198.15 699.988 197.756 700.022 194.621C700.067 190.304 699.446 189.629 698.167 192.603ZM256.43 196.398C257.677 202.332 260.511 207.078 264.176 209.37C266.898 211.073 266.969 211.409 265.022 213.386C262.256 216.192 257.779 224.323 256.609 228.662C254.577 236.205 246.588 227.411 240.179 210.578L237.542 203.652L240.889 201.714C242.729 200.648 246.376 198.017 248.991 195.867C255.001 190.928 255.285 190.948 256.43 196.398ZM782.115 199.776C782.569 200.776 783.276 202.332 783.687 203.234C784.187 204.33 781.693 206.037 776.155 208.388C768.678 211.564 767.951 212.198 768.661 214.937C769.093 216.605 770.201 222.217 771.124 227.409C772.046 232.601 773.249 236.831 773.795 236.809C784.496 236.378 785.657 236.714 785.657 240.25C785.657 245.465 778.103 267.146 772.587 277.758C765.601 291.201 758.992 309.492 755.832 324.131C751.675 343.384 743.493 391.169 744.24 391.835C745.507 392.966 746.013 391.321 748.117 379.283C758.958 317.216 761.51 306.822 770.739 287.104C786.068 254.358 790.581 238.007 789.32 219.788C788.592 209.268 785.145 197.956 782.667 197.956C781.91 197.956 781.661 198.775 782.115 199.776ZM639.559 202.93C639.061 204.331 639.326 206.078 640.148 206.812C641.233 207.781 641.641 207.085 641.641 204.263C641.641 199.783 640.857 199.281 639.559 202.93ZM239.435 212.777C245.689 228.325 252.346 236.182 256.596 233.033C264.521 227.163 271.783 268.745 265.775 285.587C262.018 296.119 249.194 282.031 238.92 256.085C230.003 233.569 198.627 225.884 187.128 243.401C172.835 265.173 220.43 333.8 249.822 333.8C252.83 333.8 259.626 340.479 258.05 341.887C257.637 342.255 245.8 345.989 231.748 350.183C217.694 354.378 197.423 360.868 186.702 364.605C163.181 372.803 165.322 372.765 162.715 365.032C143.235 307.267 168.219 230.572 212.792 211.315C233.264 202.47 235.334 202.584 239.435 212.777ZM787.036 216.222C789.368 230.801 788.146 234.343 780.782 234.343C775.181 234.343 774.78 234.125 774.658 231.008C774.586 229.174 773.821 224.67 772.959 221.001L771.391 214.33L778.185 210.603C786.387 206.102 785.309 205.418 787.036 216.222ZM615.827 211.905C615.827 213.572 616.438 214.937 617.185 214.937C617.933 214.937 618.544 213.572 618.544 211.905C618.544 210.237 617.933 208.872 617.185 208.872C616.438 208.872 615.827 210.237 615.827 211.905ZM654.555 210.076C654.097 210.738 654.347 212.238 655.112 213.411C656.306 215.24 656.51 215.069 656.545 212.208C656.587 208.72 655.96 208.046 654.555 210.076ZM553.329 216.131C553.329 219.743 518.048 239.195 511.498 239.195C505.59 239.195 527.575 224.253 542.782 217.933C550.485 214.731 553.329 214.245 553.329 216.131ZM576.426 219.617C576.426 221.68 574.664 222.027 572.771 220.337C570.227 218.066 566.345 218.085 564.21 220.381C563.287 221.375 561.961 221.872 561.261 221.486C559.617 220.579 562.58 217.376 566.189 216.161C569.001 215.213 576.426 217.72 576.426 219.617ZM562.255 225.302C565.746 229.669 568.888 232.987 569.237 232.675C569.587 232.364 568.513 230.467 566.852 228.462C563.672 224.622 563.984 221.463 567.67 220.202C571.243 218.977 574.508 222.807 572.714 226.12C568.966 233.046 569.386 234.354 579.359 246.825L588.968 258.84L582.358 265.087L575.747 271.336L582.719 265.458C587.154 261.719 590.034 260.077 590.635 260.944C593.276 264.76 549.394 290.136 540.154 290.136C537.536 290.136 538.005 287.977 540.762 287.333C542.555 286.914 542.389 286.743 540.089 286.638C537.356 286.512 527.071 270.252 511.503 241.45C511.274 241.024 513.992 239.789 517.548 238.708C525.606 236.257 539.669 228.857 548.587 222.377C552.316 219.666 555.489 217.429 555.637 217.406C555.787 217.382 558.765 220.936 562.255 225.302ZM600.902 221.643C603.996 226.802 586.398 241.415 579.775 239.184C570.201 235.96 570.104 227.82 579.611 225.353C587.117 223.405 592.299 220.138 585.449 221.673C583.56 222.096 581.217 221.981 580.24 221.418C578.366 220.338 584.973 219.074 594.198 218.748C598.118 218.609 599.421 219.172 600.902 221.643ZM740.822 222.019C740.822 240.079 733.263 284.544 726.596 305.694C718.364 331.811 715.928 433.257 723.532 433.257C724.388 433.257 724.575 430.226 724.04 425.07C720.154 387.676 721.869 328.564 727.303 312.574C736.883 284.384 747.341 219.788 742.325 219.788C741.499 219.788 740.822 220.793 740.822 222.019ZM578.464 223.427C578.926 224.094 578.35 224.64 577.185 224.64C576.021 224.64 575.067 224.094 575.067 223.427C575.067 222.76 575.642 222.214 576.346 222.214C577.05 222.214 578.002 222.76 578.464 223.427ZM531.1 225.482C529.57 226.847 530.17 228.279 532.27 228.279C533.391 228.279 534.308 227.765 534.308 227.137C534.308 225.608 532.186 224.513 531.1 225.482ZM638.088 226.385C637.675 227.346 637.982 229.119 638.769 230.327C639.985 232.194 640.206 231.932 640.242 228.582C640.285 224.424 639.344 223.463 638.088 226.385ZM628.341 232.359L633.382 236.337L628.824 242.38C618.907 255.525 602.799 260.706 593.43 253.764C590.223 251.389 590.825 250.876 599.709 248.402C604.282 247.129 609.627 244.762 611.586 243.141C614.199 240.979 614.483 240.384 612.652 240.91C599.149 244.78 595.762 242.181 607.335 236.831C611.633 234.844 616.676 232.12 618.544 230.776C622.81 227.707 622.354 227.633 628.341 232.359ZM223.444 239.885C230.801 244.501 235.296 250.637 240.098 262.617C253.389 295.782 281.333 311.968 325.294 311.968H342.739V319.727V327.487L334.248 328.772C244.016 342.434 215.523 330.473 187.938 267.349C177.608 243.708 200.864 225.718 223.444 239.885ZM577.785 241.014C577.785 241.347 577.479 241.62 577.105 241.62C576.732 241.62 576.426 241.347 576.426 241.014C576.426 240.68 576.732 240.407 577.105 240.407C577.479 240.407 577.785 240.68 577.785 241.014ZM583.219 244.724C583.219 246.484 582.631 247.504 581.861 247.078C581.113 246.666 580.502 245.27 580.502 243.975C580.502 242.679 581.113 241.62 581.861 241.62C582.608 241.62 583.219 243.018 583.219 244.724ZM529.625 264.794C534.532 273.537 538.849 280.422 539.215 280.094C540.112 279.295 523.099 248.898 521.756 248.898C521.177 248.898 524.717 256.051 529.625 264.794ZM526.553 271.363C528.576 275.046 530.232 278.229 530.232 278.435C530.232 280.07 477.865 269.662 477.495 267.953C477.048 265.888 478.604 265.753 512.627 264.917L522.872 264.665L526.553 271.363ZM347.59 272.852C348.783 275.354 350.921 279.991 352.342 283.158L354.924 288.916L344.124 293.762C305.027 311.312 301.716 311.783 280.921 302.772C265.665 296.16 264.438 294.87 266.84 287.966C267.98 284.69 269.665 282.228 270.798 282.187C271.882 282.147 273.686 281.758 274.807 281.324C280.225 279.227 335.718 268.724 343.061 268.406C344.55 268.341 346.22 269.981 347.59 272.852ZM463.998 271.533C463.065 271.87 462.3 272.918 462.3 273.863C462.3 276.457 467.434 275.923 469.093 273.155C470.586 270.664 468.37 269.958 463.998 271.533ZM572.176 272.852C570.487 274.776 570.535 274.818 572.69 273.311C573.997 272.395 575.067 271.439 575.067 271.188C575.067 270.19 573.952 270.832 572.176 272.852ZM448.261 272.752C446.166 274.621 447.468 276.948 450.398 276.576C454.245 276.086 455.459 271.943 451.757 271.943C450.332 271.943 448.758 272.306 448.261 272.752ZM467.055 273.155C466.593 273.822 465.604 274.368 464.857 274.368C464.11 274.368 463.876 273.822 464.338 273.155C464.8 272.488 465.789 271.943 466.536 271.943C467.283 271.943 467.517 272.488 467.055 273.155ZM452.11 274.368C451.648 275.035 450.659 275.581 449.912 275.581C449.165 275.581 448.931 275.035 449.393 274.368C449.855 273.701 450.844 273.155 451.591 273.155C452.338 273.155 452.572 273.701 452.11 274.368ZM567.466 275.769C566.864 276.636 567.092 276.84 568.064 276.303C568.926 275.827 569.633 275.198 569.633 274.903C569.633 273.892 568.433 274.371 567.466 275.769ZM562.08 278.68C559.548 280.492 559.564 280.514 562.5 279.244C564.182 278.516 565.557 277.667 565.557 277.358C565.557 276.43 564.852 276.698 562.08 278.68ZM441.337 279.912C438.854 282.131 438.632 283.613 440.621 284.711C442.608 285.807 445.996 283.016 445.996 280.285C445.996 277.507 444.193 277.364 441.337 279.912ZM455.778 279.462C453.62 281.39 453.698 284.071 455.914 284.071C456.886 284.071 458.414 283.416 459.311 282.616C461.47 280.689 461.391 278.007 459.175 278.007C458.204 278.007 456.675 278.662 455.778 279.462ZM466.328 279.877C463.669 282.737 466.531 284.446 470.168 282.172C471.819 281.14 473.169 279.78 473.169 279.151C473.169 277.311 468.226 277.836 466.328 279.877ZM458.197 281.068C457.251 282.085 456.125 282.601 455.691 282.216C455.259 281.83 455.806 281.006 456.905 280.385C459.781 278.761 460.157 278.96 458.197 281.068ZM470.452 280.433C470.452 281.1 469.804 281.646 469.013 281.646C468.222 281.646 467.952 281.1 468.414 280.433C468.876 279.766 469.522 279.22 469.853 279.22C470.183 279.22 470.452 279.766 470.452 280.433ZM444.638 280.968C444.638 281.262 444.026 281.84 443.279 282.252C442.532 282.664 441.92 282.423 441.92 281.717C441.92 281.011 442.532 280.433 443.279 280.433C444.026 280.433 444.638 280.673 444.638 280.968ZM557.405 281.039C557.405 281.373 557.711 281.646 558.084 281.646C558.458 281.646 558.764 281.373 558.764 281.039C558.764 280.706 558.458 280.433 558.084 280.433C557.711 280.433 557.405 280.706 557.405 281.039ZM551.97 282.859C550.85 283.505 550.544 284.034 551.291 284.034C552.038 284.034 553.567 283.505 554.688 282.859C555.809 282.212 556.114 281.683 555.367 281.683C554.62 281.683 553.091 282.212 551.97 282.859ZM460.591 285.436C457.708 286.876 457.44 291.349 460.236 291.349C461.342 291.349 462.64 289.959 463.116 288.259C464.178 284.484 463.659 283.903 460.591 285.436ZM545.177 285.284C544.056 285.931 543.751 286.46 544.498 286.46C545.245 286.46 546.774 285.931 547.895 285.284C549.015 284.638 549.321 284.109 548.574 284.109C547.827 284.109 546.298 284.638 545.177 285.284ZM366.331 290.912C367.949 301.447 367.562 303.478 363.937 303.478C362.143 303.478 357.406 305.009 353.407 306.882C346.534 310.1 345.094 310.299 327.115 310.5L308.094 310.712L313.528 308.298C316.517 306.971 327.37 302.363 337.644 298.06C349.215 293.214 356.326 289.556 356.326 288.451C356.326 286.889 358.461 286.048 363.953 285.449C364.786 285.358 365.855 287.817 366.331 290.912ZM447.627 286.74C446.73 287.54 445.996 288.905 445.996 289.772C445.996 291.75 449 291.821 451.159 289.893C453.318 287.966 453.239 285.284 451.023 285.284C450.052 285.284 448.523 285.939 447.627 286.74ZM435.05 289.053C434.022 290.767 433.967 292.011 434.883 292.828C436.904 294.633 439.203 292.839 439.203 289.458C439.203 285.82 437.109 285.617 435.05 289.053ZM450.564 288.316C450.133 289.317 449.16 290.136 448.402 290.136C447.606 290.136 447.738 289.366 448.714 288.316C449.644 287.316 450.617 286.497 450.875 286.497C451.133 286.497 450.993 287.316 450.564 288.316ZM461.19 289.186C460.216 290.056 459.583 290.127 459.583 289.368C459.583 288.678 459.99 287.75 460.489 287.306C460.986 286.861 461.71 286.78 462.096 287.124C462.482 287.469 462.074 288.397 461.19 289.186ZM469.365 287.953C467.116 289.96 467.319 292.562 469.725 292.562C471.464 292.562 474.528 289.13 474.528 287.184C474.528 285.945 471.031 286.466 469.365 287.953ZM437.392 290.945C436.893 291.389 436.486 291.025 436.486 290.136C436.486 289.247 436.893 288.883 437.392 289.327C437.889 289.772 437.889 290.5 437.392 290.945ZM471.81 289.458C471.81 289.753 471.199 290.33 470.452 290.742C469.705 291.155 469.093 290.913 469.093 290.207C469.093 289.501 469.705 288.923 470.452 288.923C471.199 288.923 471.81 289.163 471.81 289.458ZM454.42 294.017C452.442 295.783 452.284 299.417 454.143 300.442C456.05 301.495 459.061 295.249 457.372 293.742C456.515 292.976 455.477 293.073 454.42 294.017ZM442.192 295.23C440.15 297.053 440.096 299.439 442.072 300.529C443.824 301.496 445.945 298.978 445.976 295.897C446 293.428 444.506 293.164 442.192 295.23ZM444.638 296.807C444.638 297.807 444.045 298.626 443.321 298.626C442.598 298.626 442.358 297.807 442.787 296.807C443.218 295.806 443.81 294.987 444.104 294.987C444.397 294.987 444.638 295.806 444.638 296.807ZM463.206 295.796C461.871 296.989 462.104 302.265 463.493 302.265C464.148 302.265 465.44 301.453 466.361 300.461C469.027 297.594 466.077 293.232 463.206 295.796ZM456.865 296.735C456.865 297.03 456.254 297.607 455.507 298.02C454.759 298.432 454.148 298.191 454.148 297.485C454.148 296.779 454.759 296.2 455.507 296.2C456.254 296.2 456.865 296.44 456.865 296.735ZM430.843 300.368C429.226 303.536 430.053 307.116 432.4 307.116C434.325 307.116 436.608 301.536 435.623 299.243C434.468 296.558 432.558 297.008 430.843 300.368ZM465.509 299.233C465.078 300.233 464.486 301.052 464.193 301.052C463.899 301.052 463.659 300.233 463.659 299.233C463.659 298.232 464.251 297.413 464.975 297.413C465.698 297.413 465.938 298.232 465.509 299.233ZM435.107 300.749C435.094 301.25 434.517 302.461 433.821 303.442C432.256 305.652 430.419 304.27 431.52 301.71C432.332 299.821 435.145 299.066 435.107 300.749ZM438.805 305.627C435.95 308.442 435.744 313.181 438.476 313.181C441.314 313.181 443.464 308.987 442.195 305.924C441.149 303.399 441.07 303.391 438.805 305.627ZM449.485 306.153C447.011 309.307 446.769 311.501 448.773 312.607C450.924 313.793 454.148 310.817 454.148 307.646C454.148 303.661 451.985 302.968 449.485 306.153ZM363.672 306.207C363.141 307.041 361.729 308.759 360.535 310.025C357.805 312.919 366.687 312.089 374.632 308.706C380.985 306.002 381.67 307.081 377.891 313.836C372.411 323.633 364.38 327.714 350.551 327.728L344.098 327.735V319.946C344.098 312.239 344.145 312.141 348.514 310.824C350.941 310.091 354.458 308.424 356.326 307.117C360.175 304.429 365.203 303.804 363.672 306.207ZM459.114 306.459C458.047 308.937 459.52 312.189 461.448 311.615C462.29 311.364 462.979 309.885 462.979 308.329C462.979 305.03 460.288 303.727 459.114 306.459ZM367.195 307.593C367.195 308.522 366.264 309.601 365.126 309.992C363.437 310.569 363.321 310.259 364.494 308.301C366.18 305.49 367.195 305.224 367.195 307.593ZM440.562 308.936C440.562 310.603 439.95 311.968 439.203 311.968C437.685 311.968 437.34 307.97 438.751 306.712C440.248 305.375 440.562 305.76 440.562 308.936ZM452.789 307.017C452.789 309.275 451.113 311.936 450.057 311.353C448.671 310.589 449.989 305.903 451.59 305.903C452.249 305.903 452.789 306.404 452.789 307.017ZM461.869 309.77C461.436 310.737 461.114 310.449 461.049 309.036C460.99 307.758 461.311 307.042 461.762 307.445C462.213 307.848 462.262 308.894 461.869 309.77ZM427.247 313.423C425.315 315.148 425.081 320.019 426.883 321.014C428.782 322.061 432.21 317.004 431.422 314.315C430.629 311.606 429.542 311.375 427.247 313.423ZM428.462 318.403C426.687 319.987 426.44 318.232 427.953 314.796C428.898 312.653 428.951 312.654 429.44 314.825C429.72 316.064 429.278 317.674 428.462 318.403ZM458.197 318.078C456.431 321.024 457.653 325.31 460.262 325.31C462.593 325.31 464.116 321.232 462.979 318.032C461.875 314.926 460.076 314.944 458.197 318.078ZM434.04 319.488C431.374 321.867 431.945 327.992 434.787 327.511C436.449 327.23 437.291 325.743 437.586 322.571C438.02 317.907 436.9 316.935 434.04 319.488ZM445.428 319.924C442.726 322.338 443.082 327.129 445.964 327.129C448.614 327.129 451.114 320.903 449.163 319.161C448.15 318.257 447.044 318.483 445.428 319.924ZM461.477 322.177C460.803 323.743 460.289 323.905 459.519 322.793C458.145 320.806 459.555 317.523 461.167 318.961C461.839 319.562 461.978 321.009 461.477 322.177ZM435.255 325.681C434.179 326.641 433.768 326.326 433.768 324.542C433.768 321.335 435.668 319.633 436.274 322.298C436.53 323.428 436.071 324.952 435.255 325.681ZM448.714 322.206C448.714 324.026 446.275 325.962 445.195 324.998C444.246 324.152 446.123 320.458 447.5 320.458C448.167 320.458 448.714 321.244 448.714 322.206ZM425.888 325.552C423.595 327.6 423.792 333.8 426.15 333.8C428.341 333.8 429.692 331.216 429.692 327.029C429.692 323.812 428.4 323.31 425.888 325.552ZM427.103 331.745C426.027 332.706 425.617 332.39 425.617 330.606C425.617 327.399 427.516 325.698 428.122 328.362C428.379 329.493 427.919 331.016 427.103 331.745ZM456.913 330.081C454.978 333.309 455.152 335.665 457.45 337.368C460.329 339.502 462.752 335.019 460.975 330.846C459.387 327.118 458.761 327 456.913 330.081ZM444.215 332.333C441.333 335.176 441.191 339.864 443.987 339.864C446.82 339.864 449.36 334.616 447.762 332.067C446.617 330.241 446.313 330.264 444.215 332.333ZM459.583 333.436C459.583 335.688 459.145 336.32 458.179 335.458C457.408 334.769 457.167 333.295 457.645 332.183C458.905 329.255 459.583 329.694 459.583 333.436ZM432.99 332.302C429.023 334.728 430.159 340.895 434.311 339.472C435.643 339.016 436.486 337.303 436.486 335.05C436.486 331.335 435.649 330.678 432.99 332.302ZM433.896 337.81C432.82 338.77 432.41 338.455 432.41 336.671C432.41 333.464 434.309 331.762 434.915 334.427C435.172 335.557 434.713 337.081 433.896 337.81ZM446.389 336.227C445.999 337.56 445.139 338.651 444.479 338.651C443.078 338.651 442.946 337.2 444.101 334.513C445.263 331.811 447.248 333.298 446.389 336.227ZM271.41 336.29L279.562 336.388L274.067 337.925C262.225 341.236 260.373 341.224 258.641 337.829C257.147 334.905 257.244 334.754 260.153 335.449C261.861 335.858 266.927 336.237 271.41 336.29ZM380.781 335.619C380.781 335.953 381.087 336.226 381.461 336.226C381.834 336.226 382.14 335.953 382.14 335.619C382.14 335.286 381.834 335.013 381.461 335.013C381.087 335.013 380.781 335.286 380.781 335.619ZM788.375 337.145C788.375 338.543 806.286 340.742 826.815 341.864L841.362 342.659V352.627V362.596L834.908 363.33C826.618 364.272 796.73 366.395 774.109 367.647L756.446 368.625L774.109 368.764C789.429 368.884 815.518 367.273 841.459 364.606L849.03 363.827L854.137 370.696C859.395 377.768 859.505 377.808 866.836 375.349C867.771 375.034 868.534 375.597 868.534 376.598C868.534 378.577 865.763 379.89 861.582 379.89C859.312 379.89 859.148 380.256 860.446 382.422C861.942 384.917 864.029 384.996 870.446 382.797C871.833 382.323 872.61 382.71 872.61 383.875C872.61 385.846 869.842 387.167 865.706 387.167C863.993 387.167 863.1 388.011 863.1 389.63C863.1 392.775 866.429 393.925 870.611 392.223C872.93 391.28 874.132 391.274 874.773 392.2C875.921 393.858 872.862 395.615 868.783 395.639C866.434 395.652 865.808 396.196 866.319 397.78C866.695 398.946 867.756 402.242 868.677 405.102C870.95 412.155 875.665 416.543 880.44 416.052L884.159 415.67L883.891 396.264C883.652 378.941 880.409 340.358 879.094 339.184C877 337.315 863.005 337.364 858.536 339.258C852.2 341.942 815.649 340.517 792.79 336.694C790.248 336.269 788.375 336.46 788.375 337.145ZM882.553 346.232C882.997 349.733 884.035 361.878 884.861 373.219C887.437 408.58 887.872 412.349 888.99 408.999C891.062 402.788 889.751 364.088 886.822 345.019C885.543 336.693 881.491 337.844 882.553 346.232ZM857.824 346.232C862.607 356.437 860.519 361.409 851.17 362.067L844.079 362.567V352.429V342.29H850.028C855.455 342.29 856.14 342.636 857.824 346.232ZM336.625 351.656C325.437 354.101 268.707 372.724 236.143 384.642C220.423 390.394 208.232 390.756 209.603 385.428C209.709 385.016 209.493 384.012 209.122 383.195C208.751 382.377 208.399 383.464 208.341 385.608C208.073 395.327 215.49 394.61 253.069 381.287C262.409 377.976 274.943 373.534 280.921 371.416C336.037 351.897 358.562 348.87 366.653 359.894C372.462 367.808 362.005 375.978 291.45 418.644C277.172 427.278 270.947 432.182 276.277 430.596C279.182 429.731 341.943 390.755 356.922 380.513C382.034 363.342 368.859 344.61 336.625 351.656ZM325.077 374.432C325.077 374.765 325.383 375.038 325.756 375.038C326.13 375.038 326.436 374.765 326.436 374.432C326.436 374.098 326.13 373.825 325.756 373.825C325.383 373.825 325.077 374.098 325.077 374.432ZM421.541 376.857C421.541 377.191 421.846 377.464 422.22 377.464C422.594 377.464 422.899 377.191 422.899 376.857C422.899 376.524 422.594 376.251 422.22 376.251C421.846 376.251 421.541 376.524 421.541 376.857ZM318.963 380.275C313.497 383.075 286.322 399.347 274.652 406.81C271.204 409.015 263.714 413.752 258.009 417.337C251.638 421.341 247.634 424.698 247.634 426.036C247.634 428.247 243.815 429.78 234.048 431.489C208.941 435.884 205.56 445.991 223.878 461.886C230.066 467.255 235.338 473.198 237.868 477.653C245.854 491.723 277.485 503.182 284.051 494.385C284.572 493.688 286.106 492.752 287.461 492.305C293.501 490.313 289.83 483.925 280.242 479.741C268.481 474.608 259.862 462.628 259.862 451.415C259.862 448.107 266.898 446.096 269.177 448.754C271.343 451.279 306.699 430.656 308.61 425.752C309.355 423.84 307.409 425.01 288.854 437.639L272.332 448.885L264.398 440.88C251.054 427.415 249.864 425.708 252.782 424.21C254.135 423.515 259.797 419.911 265.364 416.202C280.349 406.216 301.003 393.48 315.227 385.453C322.139 381.552 327.794 378.16 327.794 377.913C327.794 376.715 323.86 377.768 318.963 380.275ZM422.935 378.677C422.932 379.01 423.831 381.938 424.933 385.183C426.036 388.427 427.281 396.123 427.701 402.284L428.463 413.485L414.421 414.296C374.101 416.623 361.563 422.373 372.97 433.304C375.099 435.344 377.098 441.777 381.015 459.198C384.757 475.839 386.89 482.816 388.576 483.931C400.63 491.903 458.623 492.262 470.365 484.438C473.242 482.52 474.37 479.238 479.01 459.273C483.19 441.286 485.048 435.567 487.588 432.872C497.286 422.584 486.678 417.323 451.086 414.77C432.194 413.415 431.057 413.189 431.328 410.862C432.092 404.345 427.554 384.502 424.246 379.89C423.528 378.889 422.939 378.343 422.935 378.677ZM428.334 418.783C428.334 421.864 432.275 435.326 432.275 435.326C430.88 434.931 427.141 435.489 427.141 435.489L410.859 435.823L392.701 433.949C392.701 433.949 380.478 430.61 376.837 429.477C362.419 424.991 375.087 418.857 403.878 416.385C427.021 414.399 428.334 414.527 428.334 418.783ZM467.404 417.595C478.394 419.09 488.663 422.518 489.168 424.86C489.807 427.818 474.806 435.008 471.976 432.872L448.2 435.929C448.2 435.929 429.699 423.772 432.275 415.222C432.474 414.562 457.565 416.257 467.404 417.595ZM705.605 424.346C705.546 426.45 706.715 433.545 708.202 440.113C712.54 459.271 712.368 460.117 703.12 465.034C696.523 468.541 695.388 469.648 695.822 472.144C696.716 477.278 696.695 477.519 695.307 477.945C694.56 478.175 693.363 476.674 692.648 474.61C691.934 472.546 690.539 470.856 689.549 470.856C686.836 470.856 685.851 474.426 687.492 478.307C688.295 480.207 688.465 482.03 687.869 482.36C686.194 483.285 683.796 480.068 683.46 476.445C682.889 470.291 677.589 472.768 677.902 479.043C678.229 485.607 674.803 486.253 673.464 479.88C672.797 476.705 672.015 475.748 670.511 476.263C669.384 476.649 665.806 477.562 662.557 478.292C655.093 479.97 649.514 484.739 650.066 488.971L650.472 492.082H672.89C706.581 492.082 735.059 490.382 737.471 488.228C739.788 486.16 740.312 470.255 738.105 469.037C736.404 468.098 736.34 455.255 737.993 446.518C740.469 433.441 740.833 429.618 739.609 429.618C738.923 429.618 737.845 433.574 737.215 438.411L736.067 447.205H723.839H711.611L709.254 435.131C706.554 421.301 705.755 418.943 705.605 424.346ZM258.223 437.175C266.504 446.022 266.461 445.874 261.318 447.775C259.131 448.584 256.285 450.288 254.994 451.56C248.997 457.478 241.337 451.138 240.367 439.456C239.861 433.363 239.997 433.072 244.077 431.474C250.448 428.98 250.616 429.048 258.223 437.175ZM410.859 435.823C410.859 435.823 469.758 435.317 486.076 430.142L488.794 429.281L486.076 431.822C475.202 441.992 395.983 443.116 375.624 433.389C369.763 430.588 372.775 430.08 382.357 432.254C387.706 433.466 400.533 435.072 410.859 435.823ZM287.035 432.65C287.035 432.984 287.341 433.257 287.714 433.257C288.088 433.257 288.393 432.984 288.393 432.65C288.393 432.317 288.088 432.044 287.714 432.044C287.341 432.044 287.035 432.317 287.035 432.65ZM477.881 457.224C472.112 483.841 472.695 482.495 465.972 484.709C447.163 490.906 399.411 489.928 390.254 483.157C387.585 481.185 376.799 438.833 378.564 437.258C378.955 436.909 382.213 437.229 385.803 437.971C409.866 442.944 453.345 442.784 475.207 437.642C478.943 436.764 482.094 436.1 482.21 436.166C482.324 436.234 480.377 445.709 477.881 457.224ZM209.646 451.207C209.564 455.438 212.727 459.921 220.514 466.611C224.397 469.946 229.725 475.677 232.352 479.346C240.482 490.694 250.709 497.604 259.183 497.474C260.836 497.45 259.976 496.819 256.984 495.865C247.278 492.768 242.716 489.284 238.148 481.477C235.659 477.224 229.369 469.891 223.835 464.792C218.404 459.789 213.002 454.058 211.831 452.056C209.871 448.708 209.697 448.64 209.646 451.207ZM735.387 458.696C735.387 468.912 732.375 471.25 720.037 470.615L712.97 470.25L712.576 460.243L712.18 450.237H723.785H735.387V458.696ZM261.619 462.064C267.29 476.106 267.193 475.708 264.943 475.708C261.737 475.708 253.165 455.408 255.493 453.329C257.143 451.856 257.978 453.046 261.619 462.064ZM256.355 464.185C258.017 468.855 260.119 473.903 261.026 475.404C262.983 478.644 257.429 479.543 254.555 476.451C253.127 474.916 249.073 460.321 249.016 456.516C248.945 451.673 253.653 456.594 256.355 464.185ZM714.328 492.746C707.603 493.25 691.427 494.071 678.383 494.571C640.857 496.01 654.314 497.917 696.836 497.186C730.956 496.598 738.105 495.811 738.105 492.646C738.105 491.353 732.661 491.376 714.328 492.746ZM263.598 498.343C264.533 498.68 266.061 498.68 266.995 498.343C267.93 498.007 267.165 497.731 265.297 497.731C263.428 497.731 262.665 498.007 263.598 498.343Z" fill="#16314F"/>
</svg>
