<svg width="873" height="570" viewBox="0 0 873 570" fill="none" xmlns="http://www.w3.org/2000/svg">
<path fill-rule="evenodd" clip-rule="evenodd" d="M409.071 33.9865C524.029 27.9029 663.123 -27.4728 745.705 17.4003C832.502 64.5636 729.845 147.72 741.938 214.858C750.281 261.175 805.375 299.953 804.982 346.5C804.449 409.649 820.88 483.727 739.297 527.667C657.028 571.976 518.035 579.369 409.071 559.734C308.837 541.672 281.123 471.687 204.734 431.341C143.211 398.846 36.375 391.882 7.34092 347.552C-21.8211 303.026 44.1734 258.576 61.1696 212.142C81.3025 157.14 41.7282 88.7536 115.99 50.7253C190.036 12.8074 308.853 39.2902 409.071 33.9865Z" fill="#A5C2DF" fill-opacity="0.5"/>
<path fill-rule="evenodd" clip-rule="evenodd" d="M442.76 289.141C440.182 290.948 439.75 292.744 441.894 292.744C443.784 292.744 447.225 288.881 446.005 288.127C445.48 287.802 444.02 288.258 442.76 289.141ZM430.675 289.651C428.493 290.923 428.195 293.803 430.246 293.803C432.056 293.803 435.414 290.157 434.472 289.216C433.539 288.283 432.897 288.357 430.675 289.651ZM432.214 299.665C428.661 303.219 427.722 304.778 428.602 305.658C429.934 306.991 433.058 305.086 433.058 302.942C433.058 302.285 434.844 300.216 437.028 298.345C440.132 295.686 440.564 294.934 439.006 294.903C437.911 294.881 434.853 297.023 432.214 299.665ZM422.941 297.073C422.55 297.707 422.74 298.735 423.364 299.359C424.685 300.681 428.122 298.418 427.16 296.861C426.354 295.556 423.799 295.686 422.941 297.073ZM442.852 297.246C443.095 297.975 444.167 298.57 445.235 298.57C446.302 298.57 447.375 297.975 447.617 297.246C447.897 296.407 447.023 295.922 445.235 295.922C443.446 295.922 442.573 296.407 442.852 297.246ZM437.999 301.925C436.982 302.941 437.129 306.514 438.188 306.514C439.213 306.514 442.587 302.998 442.587 301.929C442.587 301.007 438.919 301.004 437.999 301.925ZM419.404 303.732C417.962 305.469 418.943 308.633 420.923 308.633C422.534 308.633 423.988 304.939 423.005 303.346C422.094 301.874 420.834 302.008 419.404 303.732ZM445.976 303.548C444.515 305.01 444.275 307.573 445.6 307.573C447.017 307.573 450.08 303.771 449.296 302.986C448.272 301.963 447.416 302.108 445.976 303.548ZM424.798 308.845C424.1 309.544 423.528 311.009 423.528 312.1C423.528 315.329 427.178 313.864 427.568 310.477C427.925 307.385 426.876 306.766 424.798 308.845ZM433.764 309.339C432.729 310.374 432.902 313.929 433.987 313.929C434.498 313.929 435.492 313.235 436.196 312.387C438.077 310.119 435.816 307.286 433.764 309.339ZM440.872 312.289C440.548 313.136 440.605 314.351 440.999 314.989C441.904 316.453 444.705 314.354 444.705 312.211C444.705 310.27 441.622 310.334 440.872 312.289ZM416.731 313.465C414.71 315.486 414.517 319.225 416.433 319.225C418.377 319.225 420.351 317.015 420.351 314.839C420.351 312.172 418.663 311.531 416.731 313.465ZM430.469 319.161C428.243 321.621 429.029 324.839 431.731 324.324C433.761 323.937 434.874 319.559 433.334 318.019C432.758 317.442 431.61 317.9 430.469 319.161ZM421.093 318.835C419.958 319.971 420.21 324.31 421.457 325.08C423.158 326.131 425.785 323.382 425.432 320.918C425.115 318.709 422.483 317.446 421.093 318.835ZM437.816 319.235C436.989 320.575 438.179 324.521 439.411 324.521C440.642 324.521 441.832 320.575 441.005 319.235C440.642 318.647 439.924 318.166 439.411 318.166C438.897 318.166 438.179 318.647 437.816 319.235ZM413.151 325.792C411.563 327.381 411.502 330.518 413.041 331.469C414.909 332.624 417.486 329.289 416.682 326.758C415.875 324.213 414.975 323.967 413.151 325.792ZM436.94 329.465C435.745 330.66 436.157 333.732 437.682 334.997C438.781 335.909 439.439 335.826 440.417 334.648C442.788 331.79 439.506 326.897 436.94 329.465ZM426.639 332.638C425.928 334.509 425.922 335.814 426.62 336.512C428.166 338.059 430.94 335.375 430.94 332.336C430.94 328.876 427.99 329.084 426.639 332.638ZM417.881 331.583C416.617 332.847 417.138 337.232 418.551 337.232C420.515 337.232 422.469 335.014 422.469 332.783C422.469 330.914 419.361 330.101 417.881 331.583ZM411.967 336.599C410.326 338.576 410.878 341.999 412.839 341.999C415.457 341.999 416.824 338.547 414.948 336.67C413.473 335.194 413.138 335.186 411.967 336.599ZM436.931 339.006C436.028 339.911 436.028 345.146 436.931 346.05C437.988 347.107 440.47 344.636 440.47 342.528C440.47 340.421 437.988 337.95 436.931 339.006ZM417.23 341.932C415.75 343.715 416.529 348.884 418.276 348.884C420.478 348.884 421.912 343.636 420.183 341.907C418.752 340.476 418.436 340.478 417.23 341.932ZM425.002 344.195C424.614 345.741 424.838 347.44 425.518 348.121C427.338 349.941 430.296 346.566 429.389 343.706C428.408 340.613 425.829 340.902 425.002 344.195Z" fill="#A5C2DF"/>
<path fill-rule="evenodd" clip-rule="evenodd" d="M525.489 225.271C519.491 228.465 517.087 230.74 518.348 232.03C519.349 233.053 528.653 227.845 531.426 224.708C534.606 221.114 533.011 221.265 525.489 225.271ZM547.733 223.244C546.162 224.282 546.349 224.531 548.704 224.548C550.305 224.559 551.617 223.972 551.617 223.244C551.617 221.585 550.243 221.585 547.733 223.244ZM527.666 231.982C524.105 234.523 516.981 239.071 511.833 242.087C499.517 249.304 500.707 249.975 513.841 243.223C519.558 240.282 524.437 238.492 524.681 239.244C525.469 241.658 535.525 233.141 535.525 230.061C535.525 226.435 535.392 226.467 527.666 231.982ZM532.197 237.98C528.28 240.923 519.728 246.286 513.193 249.901L501.309 256.47L503.299 261.371C517.847 297.214 524.064 300.672 546.667 285.498C567.444 271.55 568.057 269.407 556.35 251.725C543.352 232.091 541.464 231.017 532.197 237.98ZM506.951 236.3C502.482 239.122 497.538 244.427 499.376 244.427C501.467 244.427 512.777 236.631 512.777 235.189C512.777 233.244 511.361 233.514 506.951 236.3ZM515.937 245.162C513.524 247.14 513.54 247.164 516.337 245.778C517.939 244.984 519.25 244.057 519.25 243.719C519.25 242.706 518.578 242.999 515.937 245.162ZM511.482 247.737C511.482 248.101 511.774 248.399 512.13 248.399C512.486 248.399 512.777 248.101 512.777 247.737C512.777 247.373 512.486 247.075 512.13 247.075C511.774 247.075 511.482 247.373 511.482 247.737ZM516.227 275.848C522.452 288.337 523.286 293.828 517.547 284.531C512.952 277.088 505.004 260.671 505.038 258.693C505.088 255.775 509.906 263.161 516.227 275.848ZM471.497 277.405C467.78 279.812 485.751 285.412 497.318 285.45C508.085 285.486 511.497 278.75 501.561 277.071C494.232 275.833 473.57 276.062 471.497 277.405Z" fill="#F2AA4B"/>
<path fill-rule="evenodd" clip-rule="evenodd" d="M646.699 96.3794C653.344 97.6339 663.838 100.506 670.02 102.763L681.258 106.866V111.945C681.258 118.289 682.959 120.12 684.081 114.986C687.878 97.6168 747.224 159.932 747.224 181.287C747.224 197.633 688.873 217.994 683.373 203.567C682.179 200.438 681.557 199.921 680.631 201.291C679.166 203.458 675.84 202.029 668.334 196.008L663.406 192.055L665.329 186.95C671.507 170.543 673.143 141.217 668.616 128.004C667.159 123.755 665.96 119.042 665.95 117.533C665.93 114.328 664.972 114.104 661.958 116.6C660.271 117.998 658.755 118.143 655.303 117.237C641.6 113.642 625.309 126.622 622.573 143.316C621.32 150.955 619.513 148.427 618.395 137.472C617.64 130.071 617.8 129.438 621.155 126.594C625.168 123.191 627.265 114.656 627.279 101.685C627.288 92.6331 627.113 92.6806 646.699 96.3794ZM641.946 105.647C641.946 107.323 642.545 108.695 643.278 108.695C644.011 108.695 644.611 107.323 644.611 105.647C644.611 103.971 644.011 102.599 643.278 102.599C642.545 102.599 641.946 103.971 641.946 105.647ZM655.922 120.515C676.663 129.564 671.345 184.608 647.752 205.069C621.588 227.761 573.004 240.978 584.609 222.247C589.055 215.073 606.148 200.815 607.838 202.871C610.353 205.934 611.295 205.518 611.295 201.341C611.295 199.326 613.686 193.429 616.61 188.236C621.272 179.95 622.179 176.927 624.008 163.555C629.192 125.649 638.602 112.959 655.922 120.515ZM685.923 133.077C685.923 135.089 686.522 136.734 687.255 136.734C687.988 136.734 688.588 135.089 688.588 133.077C688.588 131.066 687.988 129.42 687.255 129.42C686.522 129.42 685.923 131.066 685.923 133.077ZM631.285 141.611C631.285 143.622 631.884 145.268 632.617 145.268C633.35 145.268 633.95 143.622 633.95 141.611C633.95 139.599 633.35 137.954 632.617 137.954C631.884 137.954 631.285 139.599 631.285 141.611ZM653.939 145.878C653.939 148.225 654.539 150.145 655.272 150.145C656.005 150.145 656.605 148.225 656.605 145.878C656.605 143.531 656.005 141.611 655.272 141.611C654.539 141.611 653.939 143.531 653.939 145.878ZM716.573 150.145C716.573 154.053 718.427 155.058 719.762 151.873C721.132 148.606 720.664 146.487 718.572 146.487C717.239 146.487 716.573 147.706 716.573 150.145ZM700.582 150.073C700.582 151.375 701.181 152.778 701.914 153.193C702.67 153.62 703.247 152.595 703.247 150.826C703.247 149.111 702.647 147.706 701.914 147.706C701.181 147.706 700.582 148.771 700.582 150.073ZM681.225 156.29C679.971 158.145 681.738 163.804 683.296 162.923C684.947 161.991 684.986 156.608 683.349 155.683C682.667 155.297 681.711 155.57 681.225 156.29ZM656.605 167.212C656.605 169.224 657.164 170.87 657.848 170.87C659.467 170.87 661.016 166.372 659.944 164.785C658.313 162.372 656.605 163.615 656.605 167.212ZM631.285 169.722C631.285 171.899 631.84 173.138 632.617 172.698C633.35 172.284 633.95 170.606 633.95 168.969C633.95 167.332 633.35 165.993 632.617 165.993C631.884 165.993 631.285 167.672 631.285 169.722ZM709.91 169.579C709.91 170.881 710.51 172.284 711.243 172.698C711.998 173.126 712.575 172.101 712.575 170.332C712.575 168.617 711.976 167.212 711.243 167.212C710.51 167.212 709.91 168.277 709.91 169.579ZM694.451 170.138C693.964 171.301 694.224 172.856 695.03 173.593C696.096 174.568 696.738 174.358 697.383 172.82C697.871 171.657 697.611 170.103 696.805 169.365C695.739 168.39 695.096 168.601 694.451 170.138ZM733.559 169.955C732.807 172 733.937 175.746 735.307 175.746C737.184 175.746 738.106 173.397 737.225 170.859C736.276 168.123 734.403 167.661 733.559 169.955ZM689.92 184.28C689.92 187.877 691.629 189.12 693.26 186.707C694.332 185.12 692.783 180.623 691.164 180.623C690.48 180.623 689.92 182.268 689.92 184.28ZM673.929 185.427C673.929 186.729 674.478 188.103 675.148 188.482C676.609 189.309 677.783 186.728 676.922 184.585C675.969 182.216 673.929 182.791 673.929 185.427ZM649.941 189.228C649.941 191.404 650.497 192.644 651.274 192.204C652.007 191.79 652.607 190.112 652.607 188.475C652.607 186.838 652.007 185.499 651.274 185.499C650.541 185.499 649.941 187.178 649.941 189.228ZM633.95 190.985C633.95 192.661 634.549 194.033 635.282 194.033C636.015 194.033 636.615 192.661 636.615 190.985C636.615 189.309 636.015 187.937 635.282 187.937C634.549 187.937 633.95 189.309 633.95 190.985ZM725.502 190.791C725.125 191.69 725.335 193.194 725.97 194.133C727.525 196.434 730.577 193.747 729.452 191.067C728.47 188.726 726.427 188.583 725.502 190.791ZM709.91 192.742C709.91 194.044 710.51 195.447 711.243 195.861C711.998 196.289 712.575 195.264 712.575 193.495C712.575 191.78 711.976 190.375 711.243 190.375C710.51 190.375 709.91 191.44 709.91 192.742ZM696.584 200.056C696.584 201.358 697.133 202.732 697.803 203.111C699.264 203.938 700.438 201.357 699.577 199.214C698.624 196.845 696.584 197.421 696.584 200.056ZM665.933 199.519C665.933 199.854 665.633 200.128 665.267 200.128C664.9 200.128 664.6 199.854 664.6 199.519C664.6 199.184 664.9 198.909 665.267 198.909C665.633 198.909 665.933 199.184 665.933 199.519ZM661.558 206.104C625.629 242.597 622.714 244.594 613.522 239.025C604.91 233.806 605.363 233.024 621.853 224.617C638.47 216.146 637.626 216.401 638.188 219.683C638.803 223.277 641.279 222.063 641.279 218.166C641.279 213.13 658.265 199.533 661.936 201.632C664.459 203.072 664.451 203.166 661.558 206.104ZM623.289 212.929C623.289 214.605 623.888 215.977 624.621 215.977C625.354 215.977 625.954 214.605 625.954 212.929C625.954 211.253 625.354 209.881 624.621 209.881C623.888 209.881 623.289 211.253 623.289 212.929ZM600.634 220.244C600.634 221.92 601.234 223.291 601.967 223.291C602.699 223.291 603.299 221.92 603.299 220.244C603.299 218.567 602.699 217.196 601.967 217.196C601.234 217.196 600.634 218.567 600.634 220.244ZM621.956 236.702C621.956 240.299 623.665 241.542 625.296 239.129C626.367 237.542 624.819 233.044 623.199 233.044C622.516 233.044 621.956 234.69 621.956 236.702ZM541.998 292.171C541.998 292.507 541.698 292.781 541.332 292.781C540.965 292.781 540.665 292.507 540.665 292.171C540.665 291.836 540.965 291.562 541.332 291.562C541.698 291.562 541.998 291.836 541.998 292.171ZM539.333 293.39C539.333 293.726 539.033 294 538.666 294C538.3 294 538 293.726 538 293.39C538 293.055 538.3 292.781 538.666 292.781C539.033 292.781 539.333 293.055 539.333 293.39Z" fill="#ED4865"/>
<path fill-rule="evenodd" clip-rule="evenodd" d="M570.955 50.4853C531.712 68.2693 544.373 135.757 587.918 140.906C595.284 141.777 599.748 144.71 602.365 150.395C603.266 152.352 604.55 153.955 605.219 153.955C610.755 153.955 598.21 139.733 591.705 138.635C582.232 137.035 562.776 126.279 562.776 122.642C562.776 121.22 564.015 121.529 568.13 123.98C571.074 125.734 578.827 128.775 585.359 130.738C598.942 134.819 600.211 135.578 603.675 141.691C605.067 144.146 608.922 149.156 612.241 152.824L618.277 159.494L617.336 170.159C616.208 182.939 615.308 184.349 595.819 203.886C588.283 211.439 580.453 219.583 578.419 221.984C574.25 226.903 564.296 228.095 557.323 224.507C552.945 222.254 547.803 222.265 544.469 224.536C542.148 226.115 541.554 226.097 539.441 224.377C533.281 219.358 501.081 232.798 491.338 244.452L488.742 247.557L495.156 259.18C502.92 273.247 504.795 271.759 478.044 272.756L455.765 273.586L455.335 276.961C454.774 281.336 455.344 281.513 486.301 286.559C500.098 288.808 511.879 291.227 512.483 291.934C513.088 292.64 515.389 295.141 517.599 297.492L521.616 301.767L528.2 300.181C536.129 298.272 560.843 285.245 568.315 279.037C574.486 273.908 575.132 270.265 570.961 264.107C565.161 255.544 577.717 235.261 587.15 237.957C588.692 238.398 591.789 237.866 594.188 236.75C596.545 235.653 598.81 235.059 599.221 235.429C600.561 236.636 596.484 239.972 590.126 242.875C580.95 247.063 577.699 250.589 581.006 252.766C583.359 254.314 583.223 254.536 578.944 256.146C569.119 259.842 569.119 264.355 578.941 266.81C592.34 270.159 601.337 267.245 609.892 256.785C613.116 252.844 618.71 247.497 622.322 244.902C629.6 239.675 654.338 216.966 663.406 207.185L669.227 200.907L677.223 208.412L685.22 215.918L684.004 230.513C683.336 238.54 681.565 251.239 680.068 258.734C670.975 304.292 671.347 344.607 681.355 398.126C682.807 405.887 684.638 417.205 685.426 423.279C686.214 429.353 688.156 441.562 689.744 450.413C693.202 469.685 692.663 472.149 683.997 476.701C678.874 479.392 677.845 480.595 677.158 484.702L676.35 489.536L675.284 485.549C673.3 478.129 668.419 481.122 668.878 489.478C669.08 493.145 668.794 493.963 667.786 492.604C667.035 491.592 666.412 489.244 666.4 487.389C666.377 483.674 664.242 483.073 660.294 485.672C658.365 486.941 657.981 488.244 658.65 491.254C659.195 493.706 659.018 494.9 658.18 494.433C657.441 494.022 656.837 492.652 656.837 491.387C656.837 486.422 638.991 488.484 634.135 494.01C624.233 505.279 634.209 509.674 671.832 510.617C720.257 511.833 721.729 511.268 721.208 491.62C720.343 458.884 719.96 464.183 726.413 419.509C727.883 409.336 730.047 396.36 731.222 390.674L733.361 380.334L758.828 380.158C772.835 380.06 790.737 379.339 798.609 378.555C806.482 377.772 817.217 376.842 822.465 376.49L832.008 375.849L836.449 382.079C840.24 387.399 841.535 388.325 845.31 388.407L849.729 388.504L845.907 389.758C840.263 391.611 841.626 394.899 848.38 395.72L853.819 396.38L849.388 397.35C842.238 398.916 844.489 404.174 852.388 404.358L856.545 404.455L852.797 405.687C843.814 408.64 853.16 427.574 863.598 427.574H868.132L868.385 420.518L868.637 413.463L869.137 419.905C871.234 446.879 874.203 411.458 872.488 379.932C870.694 346.964 869.759 345.843 846.113 348.335C842.104 348.757 835.461 349.424 831.349 349.818C814.586 351.423 759.257 345.268 747.165 340.455L741.006 338.002L741.919 332.789C743.428 324.178 747.968 311.568 757.711 288.924C770.769 258.573 772.016 253.71 772.021 233.096C772.027 213.882 772.008 213.825 759.321 196.286C754.015 188.951 753.076 186.712 752.889 180.949C752.348 164.242 712.183 119.642 685.006 105.572C677.8 101.842 674.618 99.2422 670.969 94.1085C649.765 64.2718 594.105 39.9946 570.955 50.4853ZM588.373 76.111C590.31 77.3319 591.403 79.2938 591.403 81.549C591.403 84.068 592.573 85.8251 595.493 87.6975C603.138 92.5968 600.306 108.032 591.241 110.878C572.97 116.61 547.266 98.3428 564.667 91.9919C574.492 88.4054 580.498 83.5073 580.498 79.084C580.498 73.7896 583.122 72.7994 588.373 76.111ZM612.125 91.5343C621.158 93.2643 621.352 93.5563 621.354 105.489C621.358 121.338 619.601 123.902 613.178 117.43C611.324 115.562 608.178 112.939 606.187 111.602C603.003 109.462 601.453 90.1515 604.466 90.1515C604.705 90.1515 608.152 90.7735 612.125 91.5343ZM662.971 100.019C678.559 104.958 681.436 107.56 681.436 107.56L682.801 108.174C683.551 108.174 684.166 109.333 684.166 109.333C684.166 109.333 684.431 108.648 695.663 116.237C723.297 134.906 745.93 161.765 747.806 178.113L748.565 184.739L741.893 190.513C724.695 205.394 685.355 215.497 683.577 205.488C682.823 201.247 680.011 198.344 680.011 201.807C680.011 204.28 676.73 202.906 669.669 197.476L662.44 191.917L664.385 186.956C671.048 169.956 672.88 138.588 667.873 127.222C666.302 123.654 664.378 123.297 664.378 121.675L660.076 118.576C660.076 118.576 658.97 118.105 655.79 116.991C639.943 111.446 620.031 127.846 620.031 146.443C620.031 152.383 617.337 147.236 616.451 139.602C615.432 130.84 616.522 125.734 619.409 125.734C622.629 125.734 624.266 120.054 625.099 106.009L625.866 93.0324L638.285 94.5821C645.115 95.4349 656.223 97.8815 662.971 100.019ZM656.441 120.783C670.347 128.415 671.494 165.154 658.632 191.025C648.236 211.936 592.409 240.147 584.016 228.731L580.356 223.752L588.478 215.541C602.376 201.488 604.596 199.858 605.676 202.919C607.18 207.182 609.125 205.814 609.125 200.495C609.125 197.021 610.308 193.94 613.013 190.372C619.593 181.691 620.047 180.284 622.094 162.253C626.27 125.478 638.372 110.867 656.441 120.783ZM248.419 137.619C246.843 137.899 241.936 140.892 237.514 144.273C233.093 147.652 225.891 152.145 221.51 154.258C205.87 161.8 202.745 170.732 212.435 180.193C217.644 185.28 217.847 185.779 216.992 191.392C215.937 198.323 218.103 200.549 225.986 200.632L230.838 200.682L225.568 204.873C222.054 207.666 216.128 210.312 207.779 212.816C151.978 229.549 121.024 300.466 139.216 369.896C141.249 377.653 142.931 387.04 142.954 390.755C143.206 431.159 163.418 448.101 205.619 443.281C209.747 442.81 211.584 442.864 209.708 443.403C198.195 446.707 191.987 451.475 191.987 457.013C191.987 458.447 191.416 459.302 190.718 458.915C183.734 455.03 190.076 468.667 199.696 478.221C204.602 483.095 211.013 490.232 213.942 494.08C220.371 502.532 226.526 506.954 235.083 509.271C241.904 511.119 261.063 511.617 254.694 509.782C251.663 508.908 251.856 508.786 256.441 508.678C276.077 508.211 276.536 497.684 257.304 488.891C250.393 485.732 249.42 484.772 246.74 478.469C241.858 466.988 243.03 457.496 248.921 460.807C253.092 463.151 265.045 456.836 287.411 440.469C293.034 436.354 307.639 426.182 319.867 417.866C346.239 399.927 364.569 384.706 368.023 377.88C374.013 366.041 367.622 343.982 356.262 337.283L352.858 335.276L356.466 331.424C365.066 322.245 366.143 314.308 358.709 314.902C349 315.677 349.255 299.044 359.111 288.651C369.127 278.089 370.831 273.101 367.14 265.147C364.467 259.391 358.116 258.934 351.409 264.013L347.037 267.325L344.443 264.442C341.187 260.824 341.724 259.323 346.796 257.863C354.526 255.637 361.1 248.405 358.225 245.287C354.59 241.346 344.778 244.152 340.523 250.348L337.813 254.296L333.723 250.856C328.849 246.758 319.409 244.832 316.707 247.383C312.491 251.364 321.86 259.463 330.692 259.471C334.933 259.476 340.575 262.948 340.575 265.553C340.575 266.229 337.796 266.426 333.976 266.018C323.702 264.924 318.804 268.267 323.639 273.076C325.647 275.073 325.312 275.3 318.527 276.539C304.944 279.016 258.114 287.871 255.234 288.508C252.481 289.115 252.337 288.6 251.658 275.843C251.065 264.693 250.114 260.337 245.772 248.893L240.593 235.244L244.07 229.261L247.547 223.28L256.608 222.458C271.557 221.102 283.106 213.012 287.543 200.79C288.441 198.313 291.387 194.555 294.088 192.439C299.302 188.355 299.396 187.854 298.214 170.519C298.076 168.495 298.424 164.798 298.987 162.303C301.038 153.226 296.134 147.843 285.775 147.802C280.841 147.782 278.434 146.729 269.679 140.765C263.856 136.797 257.972 135.926 248.419 137.619ZM606.399 157.022C606.399 157.36 606.705 157.636 607.08 157.636C607.455 157.636 607.762 157.36 607.762 157.022C607.762 156.685 607.455 156.409 607.08 156.409C606.705 156.409 606.399 156.685 606.399 157.022ZM255.434 182.465C257.232 187.935 261.562 189.498 274.981 189.519L286.406 189.538L285.656 194.569C284.053 205.331 271.026 217.728 259.228 219.72C245.462 222.044 234.521 206.657 243.923 198.194C246.925 195.492 247.851 193.779 247.123 192.271C244.507 186.854 244.85 182.505 248.051 180.486C252.595 177.622 253.965 177.989 255.434 182.465ZM664.562 200.172C664.062 200.621 663.653 200.253 663.653 199.354C663.653 198.454 664.062 198.086 664.562 198.535C665.061 198.985 665.061 199.722 664.562 200.172ZM662.641 202.225C666.397 200.136 657.044 209.891 639.809 226.041C618.978 245.559 619.594 245.29 610.42 238.924C601.957 233.052 601.154 234.26 619.69 224.969L635.707 216.94L638.854 215.918C638.854 215.918 638.706 215.043 642.981 212.376C645.779 210.632 650.473 206.985 653.417 204.274C657.797 200.236 658.977 199.681 659.93 201.214C660.571 202.243 661.791 202.698 662.641 202.225ZM236.828 207.425C237.568 209.839 239.812 213.747 241.813 216.109L245.451 220.403L241.341 227.977C239.081 232.141 236.866 236.562 236.42 237.799C234.619 242.786 226.331 231.908 221.707 218.491L220.058 213.701L226.602 208.368C234.527 201.909 235.12 201.855 236.828 207.425ZM216.995 218.065C218.039 219.584 220.31 223.995 222.044 227.87C225.749 236.153 232.084 243.525 235.497 243.525C241.966 243.525 246.517 255.178 247.481 274.2C249.158 307.295 239.451 305.742 222.649 270.227C203.191 229.09 154.097 233.844 165.993 275.714C174.407 305.325 211.515 345.365 230.543 345.365C233.097 345.365 234.733 346.349 236.109 348.715L238.059 352.065L205.822 362.03C188.091 367.511 168.676 373.731 162.678 375.852C147.335 381.279 146.211 381.127 143.607 373.279C126.596 321.986 145.07 254.032 183.126 227.915C199.251 216.849 213.344 212.751 216.995 218.065ZM533.463 226.353C530.719 230.35 516.706 237.252 516.034 234.937C515.217 232.128 516.632 230.935 524.686 227.647C531.31 224.942 534.784 224.43 533.463 226.353ZM554.772 227.162C556.473 229.018 556.356 229.066 553.483 227.688C550.878 226.438 549.744 226.515 547.008 228.129C545.145 229.227 543.692 229.518 543.692 228.79C543.692 227.522 548.325 225.352 551.364 225.198C552.209 225.156 553.742 226.039 554.772 227.162ZM538.239 228.11C538.239 231.285 512.53 246.75 501.353 250.299C491.653 253.379 493.818 251.445 506.022 246.128C512.378 243.36 522.07 238.053 527.561 234.334C537.684 227.48 538.239 227.156 538.239 228.11ZM581.598 232.054C582.431 237.321 569.804 247.206 562.239 247.206C552.428 247.206 553.815 238.567 564.253 234.663C571.03 232.128 572.357 230.775 569.251 229.572C568.315 229.209 570.615 229.025 574.363 229.163C580.195 229.378 581.239 229.796 581.598 232.054ZM553.622 231.623C553.996 232.502 553.527 234.523 552.581 236.115L550.858 239.012L548.52 235.801C547.234 234.036 546.579 232.014 547.063 231.309C548.305 229.499 552.809 229.715 553.622 231.623ZM552.019 245.979C568.766 267.032 568.997 267.44 566.265 271.194C561.769 277.369 527.733 296.286 521.116 296.286C520.024 296.286 498.706 259.52 498.706 257.638C498.706 257.313 502.734 255.402 507.658 253.393C518.038 249.157 533.361 240.238 538.135 235.655C542.767 231.209 540.451 231.704 533.697 236.605C528.251 240.557 519.098 246.037 520.517 244.496C534.033 229.82 539.365 230.071 552.019 245.979ZM511.397 237.485C512.116 239.958 496.751 248.309 494.768 246.524C493.815 245.666 507.331 235.731 510.475 234.979C510.575 234.956 510.99 236.083 511.397 237.485ZM609.02 241.794C618.652 249.088 602.924 264.418 585.861 264.366C574.154 264.329 573.614 261.513 584.587 257.731C597.793 253.18 601.285 248.78 590.651 250.092C583.033 251.032 583.671 249.514 592.608 245.438C596.164 243.816 599.876 241.618 600.857 240.553C603.255 237.953 604.123 238.086 609.02 241.794ZM198.121 247.083C207.68 251.075 213.302 257.794 220.539 273.877C235.041 306.104 262.245 322.351 302.061 322.563L321.484 322.666L321.486 330.168L321.491 337.67L315.015 338.497C284.507 342.39 274.831 343.218 258.783 343.31C217.014 343.549 199.862 332.872 178.228 293.169C159.487 258.773 169.663 235.199 198.121 247.083ZM519.154 245.348C519.154 246.092 503.262 253.363 501.813 253.281C501.228 253.249 504.738 251.343 509.612 249.047C519.474 244.4 519.154 244.523 519.154 245.348ZM563.686 254.159C563.185 254.609 562.776 254.24 562.776 253.341C562.776 252.442 563.185 252.074 563.686 252.523C564.184 252.973 564.184 253.709 563.686 254.159ZM500.069 253.955C500.069 254.292 499.763 254.568 499.388 254.568C499.013 254.568 498.706 254.292 498.706 253.955C498.706 253.617 499.013 253.341 499.388 253.341C499.763 253.341 500.069 253.617 500.069 253.955ZM502.816 260.136C508.512 273.621 524.475 297.359 521.142 287.39C519.368 282.086 504.825 257.805 503.126 257.31C501.807 256.926 501.735 257.579 502.816 260.136ZM366.476 271.795C366.476 274.206 361.285 282.179 357.817 285.092C353.67 288.575 350.118 287.813 350.118 283.44C350.118 281.732 350.037 279.927 349.939 279.429C349.841 278.931 352.554 277.136 355.967 275.442C359.381 273.746 362.63 271.945 363.189 271.439C364.653 270.112 366.476 270.308 366.476 271.795ZM569.592 273.373C569.592 273.593 567.905 275.11 565.843 276.747L562.095 279.721L565.399 276.347C568.488 273.194 569.592 272.41 569.592 273.373ZM506.772 280.416C510.958 287.121 486.212 286.179 466.233 278.872L462.581 277.536L465.989 276.604C467.864 276.091 477.106 275.617 486.527 275.55L503.657 275.427L506.772 280.416ZM330.351 277.881C330.815 278.556 330.887 279.108 330.512 279.108C330.137 279.108 329.452 278.556 328.988 277.881C328.525 277.206 328.452 276.654 328.827 276.654C329.202 276.654 329.888 277.206 330.351 277.881ZM333.168 295.557C335.538 304.06 287.535 319.492 271.644 315.333C225.348 303.219 237.313 294.097 318.764 279.401L324.898 278.294L328.583 285.311C330.609 289.172 332.673 293.781 333.168 295.557ZM344.389 285.55C343.816 296.392 338.545 297.507 334.036 287.74L331.165 281.52L335.529 279.801C344.032 276.45 344.843 276.977 344.389 285.55ZM538.239 293.218C538.239 293.556 537.932 293.832 537.557 293.832C537.182 293.832 536.876 293.556 536.876 293.218C536.876 292.881 537.182 292.605 537.557 292.605C537.932 292.605 538.239 292.881 538.239 293.218ZM535.512 294.445C535.512 294.783 535.206 295.059 534.831 295.059C534.456 295.059 534.149 294.783 534.149 294.445C534.149 294.108 534.456 293.832 534.831 293.832C535.206 293.832 535.512 294.108 535.512 294.445ZM532.786 295.672C532.786 296.01 532.479 296.286 532.104 296.286C531.729 296.286 531.423 296.01 531.423 295.672C531.423 295.335 531.729 295.059 532.104 295.059C532.479 295.059 532.786 295.335 532.786 295.672ZM345.991 303.954L345.954 311.623L337.066 315.197C327.527 319.034 303.904 321.726 297.873 319.665C295.203 318.752 295.518 318.433 301.043 316.451C312.101 312.486 336.169 301.088 338.61 298.661C343.563 293.735 346.032 295.505 345.991 303.954ZM528.696 296.899C528.696 297.237 528.39 297.513 528.015 297.513C527.64 297.513 527.333 297.237 527.333 296.899C527.333 296.562 527.64 296.286 528.015 296.286C528.39 296.286 528.696 296.562 528.696 296.899ZM340.575 319.598L337.663 323.279L340.823 323.239C342.561 323.217 347.35 322.153 351.466 320.875C360.155 318.175 360.583 318.313 358.38 323.1C354.289 331.989 345.109 336.755 332.055 336.769L325.58 336.776V330.222V323.668L333.418 319.911C343.382 315.135 344.132 315.103 340.575 319.598ZM840.256 358.209C844.147 366.588 841.862 370.916 832.982 371.988L827.237 372.682V363.319V353.954H832.759C837.771 353.954 838.464 354.347 840.256 358.209ZM403.964 370.095C397.757 373.15 395.906 379.418 399.831 384.088C402.83 387.657 402.384 388.224 397.171 387.462C391.717 386.666 384.677 388.891 382.83 391.998C381.013 395.053 382.235 395.532 388.583 394.249C399.329 392.076 405.466 395.267 406.953 403.802L407.782 408.555L404.906 406.263C401.133 403.256 390.864 402.28 384.105 404.288C376.66 406.5 377.383 407.486 387.178 408.484C397.219 409.506 402.075 411.558 405.901 416.394C411.701 423.727 410.746 424.166 385.561 425.727C354.101 427.678 345.67 432.532 352.68 444.657C355.219 449.046 358.214 458.036 360.896 469.323C367.109 495.441 367.231 495.751 372.294 497.874C388.869 504.826 442.931 504.63 452.6 497.582C454.841 495.947 456.755 490.323 461.397 471.726C466.817 450.008 467.708 447.605 471.738 443.863C481.368 434.921 465.489 427.754 430.424 425.216C412.42 423.915 411.973 423.639 418.959 418.164C425.515 413.028 431.734 410.396 437.319 410.396C442.68 410.396 442.568 408.529 437.021 405.429C430.912 402.014 424.502 403.179 417.937 408.895L412.825 413.348V409.647C412.825 403.631 426.484 394.553 435.658 394.472C439.321 394.44 439.651 392.28 436.34 390.018C430.676 386.148 418.509 388.833 412.965 395.177L410.138 398.412L407.252 392.441C402.771 383.168 402.361 377.765 405.818 373.557C410.034 368.422 409.477 367.381 403.964 370.095ZM404.475 428.34C409.737 429.288 409.972 430.955 404.986 431.974C402.925 432.394 397.32 433.791 392.532 435.077C385.683 436.915 382.776 437.15 378.9 436.181C371.134 434.24 367.205 434.691 363.84 437.916C360.531 441.086 354.207 440.237 354.207 436.623C354.207 431.932 390.872 425.891 404.475 428.34ZM435.999 428.829C459.526 430.682 473.239 434.729 467.896 438.245C464.433 440.526 461.919 440.259 452.867 436.653C446.632 434.169 443.578 433.626 439.066 434.199C435.879 434.604 430.524 435.283 427.166 435.706C420.106 436.597 414.188 433.994 414.188 429.999C414.188 427.14 414.402 427.128 435.999 428.829ZM224.704 439.23C224.704 439.567 224.397 439.843 224.022 439.843C223.647 439.843 223.34 439.567 223.34 439.23C223.34 438.893 223.647 438.616 224.022 438.616C224.397 438.616 224.704 438.893 224.704 439.23ZM221.523 440.662C221.023 441.111 220.205 441.111 219.705 440.662C219.206 440.212 219.615 439.843 220.614 439.843C221.613 439.843 222.022 440.212 221.523 440.662ZM216.07 441.889C215.57 442.338 214.752 442.338 214.252 441.889C213.753 441.438 214.162 441.07 215.161 441.07C216.16 441.07 216.569 441.438 216.07 441.889ZM237.575 448.613C241.044 452.085 243.659 455.537 243.386 456.281C242.349 459.115 231.89 464.654 229.088 463.854C222.426 461.951 219.271 446.301 225.044 443.794C230.024 441.634 230.965 441.994 237.575 448.613ZM408.735 447.632C433.405 447.583 445.147 447.052 453.667 445.599C466.997 443.327 469.438 443.734 459.078 446.504C435.902 452.699 364.403 450.722 356.551 443.669C355.966 443.143 359.953 443.835 365.411 445.205C374.193 447.411 379.186 447.691 408.735 447.632ZM411.462 452.695C434.41 452.705 447.346 452.198 452.806 451.077C463.255 448.932 463.022 448.081 458.05 470.225C451.963 497.336 451.816 497.459 422.218 500.03C379.614 503.729 370.842 498.654 363.785 466.224C362.17 458.8 360.572 451.853 360.235 450.784C359.675 449.015 360.44 449.014 368.842 450.762C375.858 452.223 386.05 452.684 411.462 452.695ZM715.174 470.824L714.773 479.718L709.344 481.314C698.714 484.441 693.897 479.791 695.678 468.126L696.626 461.929H706.1H715.574L715.174 470.824ZM244.907 482.4C247.258 486.321 246.87 488.7 244.4 485.524C241.681 482.031 236.949 469.673 237.053 466.338C237.096 464.926 238.521 467.359 240.217 471.745C241.914 476.132 244.024 480.927 244.907 482.4ZM237.036 479.046C241.772 489.521 241.944 490.662 238.541 489.022C236.251 487.919 233.166 480.741 230.85 471.132C229.39 465.072 232.539 469.101 237.036 479.046ZM204.43 475.119C206.125 477.065 206.077 477.108 203.915 475.583C201.644 473.979 200.923 472.972 202.044 472.972C202.327 472.972 203.401 473.939 204.43 475.119ZM220.614 494.444C220.614 494.782 220.307 495.058 219.932 495.058C219.557 495.058 219.251 494.782 219.251 494.444C219.251 494.107 219.557 493.831 219.932 493.831C220.307 493.831 220.614 494.107 220.614 494.444ZM231.52 504.26C231.52 504.598 231.213 504.874 230.838 504.874C230.463 504.874 230.156 504.598 230.156 504.26C230.156 503.923 230.463 503.647 230.838 503.647C231.213 503.647 231.52 503.923 231.52 504.26ZM234.246 505.487C234.246 505.825 233.939 506.101 233.564 506.101C233.189 506.101 232.883 505.825 232.883 505.487C232.883 505.15 233.189 504.874 233.564 504.874C233.939 504.874 234.246 505.15 234.246 505.487Z" fill="#007C77"/>
<path fill-rule="evenodd" clip-rule="evenodd" d="M583.574 74.7743C583.126 75.8326 582.76 77.6997 582.76 78.9234C582.76 81.3647 576.068 86.9966 570.729 89.0474C558.808 93.6283 560.207 101.857 573.886 107.635C594.178 116.207 612.856 100.337 598.851 86.4261C596.638 84.2293 594.828 81.3696 594.828 80.0729C594.828 74.8388 585.421 70.4087 583.574 74.7743ZM606.369 90.5873C605.921 91.6456 605.555 95.92 605.555 100.086V107.662L613.032 113.517C622.587 121.001 623.657 120.195 623.657 105.522C623.657 91.8706 610.598 80.5886 606.369 90.5873ZM664.554 196.922C664.554 197.591 665.157 198.138 665.895 198.138C666.632 198.138 667.236 197.591 667.236 196.922C667.236 196.253 666.632 195.705 665.895 195.705C665.157 195.705 664.554 196.253 664.554 196.922ZM572.759 227.635C573.133 228.523 571.033 230.189 567.708 231.64C556.526 236.521 555.984 244.361 566.831 244.361C575.965 244.361 587.184 232.775 582.746 227.924C580.687 225.673 571.823 225.418 572.759 227.635ZM602.719 238.112C600.96 239.358 596.956 241.558 593.823 243.002C586.415 246.414 586.314 248.583 593.611 247.524C601.712 246.349 599.843 249.046 589.392 253.609C578.842 258.215 578.165 260.632 587.276 261.159C604.625 262.16 622.104 246.589 612.156 238.995C607.235 235.238 606.829 235.2 602.719 238.112ZM565.329 250.443C565.329 251.112 565.932 251.659 566.67 251.659C567.407 251.659 568.011 251.112 568.011 250.443C568.011 249.774 567.407 249.226 566.67 249.226C565.932 249.226 565.329 249.774 565.329 250.443ZM825.459 359.309V368.432H829.585C834.351 368.432 841.55 362.732 841.55 358.959C841.55 354.318 836.451 350.186 830.725 350.186H825.459V359.309ZM696.459 462.398C695.153 474.494 699.541 479.294 709.642 476.818C715.741 475.324 716.848 473.129 716.848 462.55V457.228H706.932H697.017L696.459 462.398Z" fill="#D89687"/>
<path fill-rule="evenodd" clip-rule="evenodd" d="M250.179 183.08C248.746 184.542 247.956 187.519 247.951 191.453C247.949 195.363 246.984 199.017 245.267 201.618C243.793 203.852 242.587 206.503 242.587 207.51C242.587 209.894 240.411 209.873 239.416 207.481C238.132 204.386 235.117 205.35 228.334 211.023L221.875 216.426L225.684 225.394C230.473 236.676 234.706 241.518 238.143 239.65C242.411 237.328 248.4 224.251 246.738 220.881C245.335 218.034 245.363 218.021 248.666 220.021C257.354 225.282 272.64 219.898 282.826 207.993C292.502 196.68 290.057 192.418 272.892 190.677C264.24 189.8 263.087 189.337 259.386 185.265C254.798 180.215 253.326 179.865 250.179 183.08ZM242.587 212.442C242.587 212.783 242.285 213.062 241.916 213.062C241.547 213.062 241.245 212.783 241.245 212.442C241.245 212.101 241.547 211.822 241.916 211.822C242.285 211.822 242.587 212.101 242.587 212.442ZM356.46 277.937C350.263 282.304 348.807 286.762 352.817 289.099C356.132 291.032 358.998 289.365 363.407 282.941C370.27 272.94 366.946 270.546 356.46 277.937ZM330.515 281.285C330.971 281.967 331.646 282.525 332.015 282.525C332.384 282.525 332.313 281.967 331.857 281.285C331.401 280.602 330.725 280.044 330.356 280.044C329.987 280.044 330.058 280.602 330.515 281.285ZM334.877 282.624C331.809 284.275 331.915 287.162 335.225 292.18C340.187 299.697 345.952 298.102 345.952 289.212C345.952 281.56 341.631 278.99 334.877 282.624ZM333.535 322.92L327.159 325.986V333.405V340.824L332.864 340.817C345.12 340.802 355.718 335.34 359.391 327.146C361.72 321.951 360.6 321.497 351.345 323.874C340.903 326.557 340.146 326.53 341.878 323.54C344.689 318.687 342.651 318.535 333.535 322.92ZM226.478 444.398C226.478 444.739 226.78 445.018 227.15 445.018C227.519 445.018 227.821 444.739 227.821 444.398C227.821 444.057 227.519 443.778 227.15 443.778C226.78 443.778 226.478 444.057 226.478 444.398ZM222.898 445.845C223.391 446.299 224.196 446.299 224.689 445.845C225.18 445.39 224.778 445.018 223.794 445.018C222.81 445.018 222.407 445.39 222.898 445.845ZM217.529 447.086C218.021 447.54 218.827 447.54 219.319 447.086C219.811 446.631 219.408 446.259 218.424 446.259C217.44 446.259 217.037 446.631 217.529 447.086ZM227.457 448.903C221.469 451.999 226.163 468.586 233.027 468.586C237.826 468.586 245.821 463.697 246.333 460.45C247.135 455.363 232.397 446.348 227.457 448.903ZM239.916 474.405C239.931 478.321 245.469 490.113 247.962 491.537C249.797 492.584 249.396 490.965 244.953 479.401C241.811 471.224 239.897 469.325 239.916 474.405ZM233.488 478.009C234.419 484.387 239.704 494.634 242.064 494.634C244.825 494.634 244.369 492.048 240.03 483.112C235.211 473.188 232.474 471.053 233.488 478.009ZM205 478.978C205 479.235 205.92 480.151 207.044 481.013C208.753 482.325 208.951 482.248 208.243 480.545C207.521 478.807 205 477.587 205 478.978ZM222.451 500.216C222.451 500.557 222.753 500.836 223.122 500.836C223.492 500.836 223.794 500.557 223.794 500.216C223.794 499.875 223.492 499.596 223.122 499.596C222.753 499.596 222.451 499.875 222.451 500.216ZM233.19 510.139C233.19 510.48 233.492 510.76 233.862 510.76C234.231 510.76 234.533 510.48 234.533 510.139C234.533 509.798 234.231 509.519 233.862 509.519C233.492 509.519 233.19 509.798 233.19 510.139ZM235.875 511.38C235.875 511.721 236.177 512 236.546 512C236.916 512 237.218 511.721 237.218 511.38C237.218 511.039 236.916 510.76 236.546 510.76C236.177 510.76 235.875 511.039 235.875 511.38Z" fill="#B16C5C"/>
<path fill-rule="evenodd" clip-rule="evenodd" d="M220.013 212.485C221.057 214.037 223.329 218.546 225.063 222.507C228.769 230.974 235.105 238.509 238.519 238.509C244.989 238.509 249.542 250.42 250.506 269.863C252.183 303.692 242.473 302.104 225.668 265.802C206.206 223.753 157.101 228.613 169 271.411C177.416 301.677 214.531 342.605 233.564 342.605C236.118 342.605 237.754 343.61 239.131 346.028L241.081 349.452L208.837 359.639C191.102 365.241 171.684 371.598 165.684 373.767C150.338 379.314 149.213 379.159 146.609 371.137C129.594 318.708 148.072 249.248 186.137 222.553C202.265 211.242 216.361 207.053 220.013 212.485ZM201.135 242.146C210.696 246.226 216.319 253.093 223.558 269.533C238.062 302.474 265.272 319.08 305.097 319.297L324.524 319.403L324.527 327.07L324.531 334.738L318.054 335.584C287.539 339.563 277.861 340.41 261.81 340.504C220.032 340.748 202.876 329.835 181.238 289.252C162.492 254.094 172.671 229.998 201.135 242.146ZM336.21 291.693C338.582 300.384 290.568 316.158 274.673 311.908C228.368 299.525 240.335 290.2 321.804 275.179L327.94 274.048L331.625 281.221C333.651 285.166 335.716 289.878 336.21 291.693Z" fill="#16314F"/>
<path fill-rule="evenodd" clip-rule="evenodd" d="M361.815 453.066C373.565 458.577 436.216 460.16 456.209 455.453C466.653 452.994 465.108 452.72 451.177 454.559C425.351 457.971 379 456.757 361.163 452.203C359.42 451.758 359.635 452.044 361.815 453.066ZM363.702 459.177C364.093 460.554 365.829 467.182 367.558 473.908C374.244 499.914 382.565 504.143 421.223 501.186C451.507 498.87 451.348 498.983 457.223 475.643C461.997 456.683 462.174 457.273 452.187 458.975C433.151 462.217 377.626 461.21 365.332 457.4C363.385 456.796 363.108 457.097 363.702 459.177Z" fill="#C4C4C4"/>
<path fill-rule="evenodd" clip-rule="evenodd" d="M574.745 49.6596C555.237 56.1726 544.118 75.6512 549.061 94.6541C556.112 121.766 570.267 137.598 588.985 139.314L595.43 139.904L588.637 138.28C576.313 135.334 569.139 130.441 564.219 121.628L561.91 117.489L566.442 120.565C572.786 124.87 580.679 128.218 588.637 129.98C599.199 132.317 603.287 135.242 607.479 143.456C609.724 147.858 613.125 152.104 615.984 154.077L620.747 157.364L619.804 168.61C619.287 174.795 618.288 180.857 617.586 182.079C615.736 185.298 593.551 208.308 585.399 215.46C581.576 218.816 578.447 222.485 578.447 223.615C578.447 227.392 562.012 228.08 556.698 224.525L552.451 221.684L547.064 224.354C541.768 226.979 541.648 226.984 540.034 224.647C536.195 219.084 507.09 231.194 494.268 243.688L490.929 246.943L497.325 258.593C500.843 265.002 503.722 270.719 503.722 271.3C503.722 271.881 493.328 272.757 480.625 273.249C462.904 273.935 457.528 274.52 457.528 275.764C457.528 279.095 459.261 281.275 461.908 281.275C463.411 281.275 476.091 283.266 490.088 285.697L515.536 290.119L518.443 295.532C522.442 302.98 531.418 300.9 555.107 287.034C574.935 275.429 577.537 272.192 572.165 265.819C566.593 259.208 566.14 251.292 571.138 247.791C573.29 246.283 577.848 242.704 581.268 239.837C585.996 235.873 587.864 234.968 589.066 236.056C590.269 237.144 591.836 236.974 595.615 235.343C607.59 230.177 604.183 237.617 592.034 243.166C580.239 248.553 578.298 252.152 586.599 253.237C589.295 253.59 588.313 254.203 581.844 256.21C567.358 260.703 574.344 267.355 592.375 266.236C601.264 265.685 605.355 262.952 612.61 252.723C614.982 249.378 617.797 246.854 619.156 246.854C621.69 246.854 648.978 222.119 661.199 208.745C682.913 184.981 694.587 221.84 683.802 280.121C675.475 325.132 674.445 388.227 682.038 388.227C682.764 388.227 683.023 386.983 682.616 385.461C682.207 383.939 681.124 372.665 680.207 360.407C677.976 330.566 678.663 323.822 690.61 258.228C691.985 250.676 691.219 227.791 689.355 220.715L687.486 213.631L691.049 213.009C734.756 205.388 757.333 190.314 750.309 173.443C739.468 147.4 707.096 114.599 681.272 103.491C677.667 101.939 674.227 98.7306 669.995 92.97C648.886 64.2406 599.007 41.5608 574.745 49.6596ZM589.218 74.0887C593.566 76.122 595.192 78.9274 593.999 82.3301C593.377 84.1041 594.131 84.9449 597.219 85.9185C606.287 88.7792 603.839 106.737 593.793 111.051C584.823 114.902 568.172 109.841 558.741 100.398C553.03 94.6762 553.115 94.5312 564.323 90.8383C575.716 87.0839 583.027 81.5864 581.056 78.2537C577.895 72.9098 582.106 70.761 589.218 74.0887ZM614.648 90.2962L623.557 92.3209L623.066 106.585C622.43 125.047 621.906 125.708 613.961 118.081C610.493 114.754 606.195 111.142 604.405 110.054C601.408 108.231 601.289 107.78 602.88 104.303C603.99 101.878 604.286 98.3433 603.708 94.4009C602.674 87.3531 602.308 87.4908 614.648 90.2962ZM652.739 95.0819C702.317 106.052 764.64 168.063 745.946 187.825C735.83 198.517 711.57 208.817 692.266 210.613L685.101 211.28L673.829 201.422L662.558 191.565L665.237 183.253C672.016 162.224 672.915 132.409 666.989 125.166C665.247 123.037 664.158 120.503 664.569 119.537C664.978 118.569 664.76 116.532 664.085 115.011C662.918 112.386 662.851 112.424 662.769 115.755C662.699 118.603 662.233 119.102 660.305 118.389C640.75 111.154 627.851 119.797 622.03 144.034L619.626 154.04L618.057 147.526C615.327 136.184 615.928 124.019 619.182 124.79C623.263 125.755 624.641 120.819 624.641 105.224V91.6029L634.058 92.3172C639.237 92.7106 647.644 93.9546 652.739 95.0819ZM640.945 104.253C640.945 106.495 641.509 107.771 642.303 107.326C643.051 106.908 643.662 105.525 643.662 104.253C643.662 102.98 643.051 101.597 642.303 101.179C641.509 100.734 640.945 102.01 640.945 104.253ZM681.724 112.009C681.712 114.821 682.246 116.387 683.063 115.931C684.78 114.971 684.78 111.575 683.063 109.17C682.084 107.802 681.741 108.532 681.724 112.009ZM660.406 120.82C674.677 129.281 671.463 178.919 655.274 200.056C649.867 207.116 592.744 238.072 589.888 235.489C589.539 235.173 587.171 232.265 584.626 229.025L579.999 223.137L593.853 209.487C620.952 182.788 620.09 184.271 621.894 161.281C624.857 123.5 639.312 108.314 660.406 120.82ZM685.78 131.225C685.78 133.214 686.391 135.183 687.139 135.6C687.947 136.053 688.497 134.589 688.497 131.985C688.497 129.579 687.886 127.61 687.139 127.61C686.391 127.61 685.78 129.236 685.78 131.225ZM276.128 137.06C280.306 140.953 282.15 141.716 289.18 142.466C293.997 142.98 298.477 144.249 300.062 145.548C302.212 147.307 302.595 147.368 301.947 145.84C300.808 143.155 295.299 141.132 289.121 141.132C285.12 141.132 282.53 140.113 278.187 136.83C270.823 131.263 270.005 131.354 276.128 137.06ZM251.143 138.068C247.552 139.081 242.661 141.971 238.915 145.291C235.482 148.335 229.921 151.898 226.558 153.207C209.106 160.004 204.662 171.861 216.504 180.033C221.428 183.431 221.973 185.844 219.156 191.788C217.416 195.459 224.421 200.576 230.054 199.749C242.331 197.947 225.625 208.802 208.441 213.794C152.553 230.031 121.074 312.048 145.205 378.556C147.318 384.379 147.712 387.745 147.033 394.172C144.741 415.851 155.551 434.795 173.495 440.543C181.409 443.079 202.149 444.35 205.643 442.515C207.645 441.463 205.287 441.154 195.021 441.125C163.88 441.037 150.655 429.36 149.389 400.832C148.573 382.491 157.218 378.001 234.031 356.872C331.523 330.055 398.773 344.085 362.224 383.617C359.256 386.829 357.627 389.456 358.605 389.456C364.48 389.456 372.536 374.2 371.493 365.053C369.911 351.19 360.425 344.466 335.929 339.852C334.435 339.569 336.375 339.275 340.24 339.196C345.764 339.084 348.237 338.33 351.789 335.673C363.883 326.626 369.983 312.395 360.345 315.71C358.401 316.379 356.33 316.926 355.742 316.926C355.153 316.926 354.263 311.664 353.764 305.233L352.855 293.539L357.877 289.559C368.19 281.385 374.956 266.344 368.197 266.621C366.777 266.678 366.503 266.967 367.518 267.337C371.914 268.943 367.172 279.122 358.487 286.728C352.047 292.366 352.193 292.419 351.01 284.028C350.145 277.897 350.278 277.498 353.543 276.375C358.229 274.763 357.902 273.426 353.038 274.306C349.473 274.952 349.124 274.728 349.454 272.001C349.657 270.341 349.31 268.982 348.687 268.982C348.063 268.982 346.238 266.216 344.631 262.836C343.024 259.455 341.172 256.689 340.517 256.689C338.894 256.689 339.012 257.487 341.209 261.36C343.65 265.661 346.969 277.581 348.161 286.323L349.1 293.213L344.722 294.006C342.315 294.442 339.885 294.798 339.323 294.798C338.281 294.798 332.532 283.578 332.532 281.542C332.532 280.926 333.907 279.815 335.589 279.074C338.303 277.876 338.149 277.804 334.231 278.425C331.408 278.872 329.815 278.625 329.815 277.741C329.815 275.254 284.951 282.104 262.353 288.042C251.999 290.761 252.118 290.83 253.125 282.786C254.386 272.703 251.546 258.034 246.112 246.545C241.02 235.781 241.058 234.57 246.749 226.242C250.229 221.153 250.499 221.02 255.908 221.745C269.509 223.57 290.211 207.459 290.385 194.915C290.402 193.654 291.451 192.764 292.921 192.764C299.492 192.764 303.186 182.053 299.425 173.909C297.492 169.72 297.488 168.824 299.387 164.529C303.828 154.487 299.06 148.54 285.764 147.543C279.695 147.087 277.87 146.411 276.092 143.954C271.471 137.575 261.354 135.187 251.143 138.068ZM231.919 141.863C229.345 144.293 223.264 148.026 218.406 150.161C201.563 157.56 197.839 171.464 210.591 179.341C214.947 182.032 214.936 182.005 209.915 177.443C200.263 168.675 204.153 158.23 219.572 151.499C224.918 149.166 230.011 145.769 232.932 142.587C238.725 136.277 238.221 135.916 231.919 141.863ZM630.076 141.132C630.076 143.161 630.687 144.82 631.434 144.82C632.181 144.82 632.793 143.161 632.793 141.132C632.793 139.104 632.181 137.444 631.434 137.444C630.687 137.444 630.076 139.104 630.076 141.132ZM596.222 140.251C596.535 140.443 598.012 141.41 599.506 142.402C602.02 144.071 602.083 144.045 600.359 142.054C599.333 140.871 597.855 139.903 597.075 139.903C596.296 139.903 595.911 140.059 596.222 140.251ZM653.172 144.82C653.172 146.849 653.784 148.508 654.531 148.508C655.278 148.508 655.89 146.849 655.89 144.82C655.89 142.792 655.278 141.132 654.531 141.132C653.784 141.132 653.172 142.792 653.172 144.82ZM602.903 146.664C602.903 147.002 603.208 147.279 603.582 147.279C603.956 147.279 604.261 147.002 604.261 146.664C604.261 146.326 603.956 146.05 603.582 146.05C603.208 146.05 602.903 146.326 602.903 146.664ZM717.485 147.976C717.036 149.036 717.36 150.529 718.207 151.295C719.353 152.333 719.746 151.841 719.746 149.369C719.746 145.67 718.728 145.044 717.485 147.976ZM701.182 149.205C700.732 150.265 701.057 151.759 701.903 152.525C703.05 153.562 703.442 153.07 703.442 150.598C703.442 146.899 702.425 146.273 701.182 149.205ZM681.724 158.723C681.712 161.536 682.246 163.102 683.063 162.646C684.78 161.686 684.78 158.289 683.063 155.884C682.084 154.516 681.741 155.246 681.724 158.723ZM656.346 165.187C655.897 166.246 656.221 167.74 657.068 168.506C658.214 169.543 658.607 169.052 658.607 166.579C658.607 162.88 657.589 162.255 656.346 165.187ZM630.076 168.792C630.076 170.483 630.687 171.866 631.434 171.866C632.181 171.866 632.793 170.483 632.793 168.792C632.793 167.102 632.181 165.719 631.434 165.719C630.687 165.719 630.076 167.102 630.076 168.792ZM711.015 168.998C710.537 170.125 710.778 171.618 711.549 172.317C712.515 173.191 712.953 172.55 712.953 170.267C712.953 166.475 712.275 166.03 711.015 168.998ZM695.373 171.866C695.373 175.375 695.629 175.772 696.758 174.017C697.698 172.555 697.698 171.176 696.758 169.714C695.629 167.959 695.373 168.356 695.373 171.866ZM735.513 170.127C735.059 171.199 735.281 172.998 736.006 174.123C737.057 175.75 737.334 175.351 737.368 172.173C737.413 167.798 736.792 167.113 735.513 170.127ZM257.807 180.888C257.807 187.255 270.313 190.787 283.282 188.083L289.056 186.879L289.042 191.358C288.996 206.97 268.395 223.985 254.546 219.85C245.574 217.171 234.586 198.911 241.946 198.911C246.279 198.911 250.296 192.984 247.712 190.401C243.188 185.877 248.316 176.783 255.393 176.783C257.224 176.783 257.807 177.774 257.807 180.888ZM690.678 182.421C690.224 183.493 690.446 185.291 691.171 186.416C692.221 188.043 692.498 187.644 692.532 184.466C692.577 180.091 691.956 179.406 690.678 182.421ZM674.931 185.695C674.946 188.412 675.328 189.155 676.124 188.018C677.192 186.492 676.668 181.7 675.431 181.7C675.146 181.7 674.92 183.499 674.931 185.695ZM649.096 188.461C649.096 190.152 649.708 191.535 650.455 191.535C651.202 191.535 651.814 190.152 651.814 188.461C651.814 186.771 651.202 185.388 650.455 185.388C649.708 185.388 649.096 186.771 649.096 188.461ZM633.537 188.154C632.968 189.338 632.968 191.273 633.537 192.457C634.839 195.164 636.1 191.783 635.141 188.154C634.598 186.105 634.522 186.105 633.537 188.154ZM727.361 189.796C726.907 190.868 727.129 192.667 727.854 193.792C728.905 195.419 729.182 195.02 729.216 191.842C729.261 187.467 728.64 186.782 727.361 189.796ZM710.922 191.525C710.464 192.196 710.714 193.717 711.479 194.906C712.673 196.759 712.877 196.586 712.912 193.686C712.954 190.151 712.327 189.468 710.922 191.525ZM665.381 196.191L668.381 198.388L662.527 205.104C659.308 208.797 648.472 219.412 638.446 228.694L620.217 245.569L616.655 243.186C614.696 241.877 610.693 238.939 607.762 236.657L602.431 232.511L613.197 227.228C644.496 211.87 655.338 204.824 658.588 197.723C660.572 193.389 661.324 193.219 665.381 196.191ZM661.345 198.603C661.334 200.801 661.559 202.599 661.845 202.599C663.081 202.599 663.606 197.807 662.538 196.281C661.741 195.144 661.36 195.887 661.345 198.603ZM606.979 200.755C606.979 202.445 607.59 203.828 608.337 203.828C609.084 203.828 609.696 202.445 609.696 200.755C609.696 199.064 609.084 197.681 608.337 197.681C607.59 197.681 606.979 199.064 606.979 200.755ZM697.172 199.45C696.759 200.424 697.066 202.221 697.853 203.446C699.069 205.338 699.29 205.072 699.326 201.677C699.369 197.463 698.428 196.489 697.172 199.45ZM681.167 200.86C680.714 201.932 680.935 203.731 681.661 204.856C682.711 206.483 682.988 206.084 683.022 202.906C683.067 198.531 682.446 197.846 681.167 200.86ZM239.43 204.707C240.677 210.722 243.511 215.532 247.176 217.855C249.898 219.581 249.969 219.921 248.022 221.925C245.256 224.77 240.779 233.011 239.609 237.408C237.577 245.053 229.588 236.141 223.179 219.079L220.542 212.06L223.889 210.095C225.729 209.015 229.376 206.348 231.991 204.169C238.001 199.163 238.285 199.184 239.43 204.707ZM765.115 208.131C765.569 209.145 766.276 210.722 766.687 211.635C767.187 212.747 764.693 214.476 759.155 216.86C751.678 220.078 750.951 220.721 751.661 223.497C752.093 225.188 753.201 230.876 754.124 236.138C755.046 241.401 756.249 245.688 756.795 245.666C767.496 245.229 768.657 245.57 768.657 249.153C768.657 254.439 761.103 276.414 755.587 287.17C748.601 300.795 741.992 319.334 738.832 334.171C734.675 353.685 726.493 402.118 727.24 402.793C728.507 403.939 729.013 402.272 731.117 390.071C741.958 327.162 744.51 316.627 753.739 296.642C769.068 263.453 773.581 246.88 772.32 228.415C771.592 217.751 768.145 206.287 765.667 206.287C764.91 206.287 764.661 207.116 765.115 208.131ZM622.559 211.328C622.061 212.748 622.326 214.518 623.148 215.262C624.233 216.244 624.641 215.539 624.641 212.679C624.641 208.138 623.857 207.629 622.559 211.328ZM222.435 221.308C228.689 237.067 235.346 245.03 239.596 241.839C247.521 235.889 254.783 278.035 248.775 295.105C245.018 305.78 232.194 291.501 221.92 265.203C213.003 242.382 181.627 234.593 170.128 252.347C155.835 274.415 203.43 343.971 232.822 343.971C235.83 343.971 242.626 350.741 241.05 352.168C240.637 352.541 228.8 356.326 214.748 360.577C200.694 364.828 180.423 371.406 169.702 375.193C146.181 383.502 148.322 383.464 145.715 375.626C126.235 317.078 151.219 239.344 195.792 219.826C216.264 210.861 218.334 210.977 222.435 221.308ZM770.036 224.8C772.368 239.577 771.146 243.166 763.782 243.166C758.181 243.166 757.78 242.945 757.658 239.786C757.586 237.927 756.821 233.363 755.959 229.644L754.391 222.883L761.185 219.105C769.387 214.543 768.309 213.849 770.036 224.8ZM598.827 220.424C598.827 222.114 599.438 223.497 600.185 223.497C600.933 223.497 601.544 222.114 601.544 220.424C601.544 218.734 600.933 217.351 600.185 217.351C599.438 217.351 598.827 218.734 598.827 220.424ZM637.555 218.57C637.097 219.241 637.347 220.762 638.112 221.951C639.306 223.805 639.51 223.631 639.545 220.731C639.587 217.196 638.96 216.513 637.555 218.57ZM536.329 224.708C536.329 228.369 501.048 248.084 494.498 248.084C488.59 248.084 510.575 232.94 525.782 226.534C533.485 223.288 536.329 222.796 536.329 224.708ZM559.426 228.241C559.426 230.332 557.664 230.684 555.771 228.97C553.227 226.669 549.345 226.689 547.21 229.016C546.287 230.022 544.961 230.526 544.261 230.136C542.617 229.216 545.58 225.969 549.189 224.738C552.001 223.777 559.426 226.319 559.426 228.241ZM545.255 234.003C548.746 238.429 551.888 241.792 552.237 241.476C552.587 241.16 551.513 239.237 549.852 237.205C546.672 233.313 546.984 230.112 550.67 228.834C554.243 227.592 557.508 231.474 555.714 234.832C551.966 241.852 552.386 243.177 562.359 255.817L571.968 267.995L565.358 274.327L558.747 280.661L565.719 274.704C570.154 270.913 573.034 269.249 573.635 270.128C576.276 273.995 532.394 299.715 523.154 299.715C520.536 299.715 521.005 297.527 523.762 296.874C525.555 296.45 525.389 296.277 523.089 296.17C520.356 296.042 510.071 279.562 494.503 250.37C494.274 249.938 496.992 248.686 500.548 247.591C508.606 245.106 522.669 237.606 531.587 231.038C535.316 228.29 538.489 226.023 538.637 226C538.787 225.976 541.765 229.577 545.255 234.003ZM583.902 230.294C586.996 235.524 569.399 250.335 562.775 248.073C553.201 244.805 553.104 236.555 562.611 234.055C570.117 232.08 575.299 228.769 568.449 230.325C566.56 230.754 564.217 230.637 563.24 230.067C561.366 228.971 567.973 227.69 577.198 227.36C581.118 227.22 582.421 227.79 583.902 230.294ZM723.822 230.675C723.822 248.98 716.263 294.048 709.596 315.484C701.364 341.955 698.928 444.776 706.532 444.776C707.388 444.776 707.575 441.704 707.04 436.478C703.154 398.578 704.869 338.664 710.303 322.458C719.883 293.886 730.341 228.415 725.325 228.415C724.499 228.415 723.822 229.432 723.822 230.675ZM561.464 232.102C561.926 232.779 561.35 233.332 560.185 233.332C559.021 233.332 558.067 232.779 558.067 232.102C558.067 231.426 558.642 230.873 559.346 230.873C560.05 230.873 561.002 231.426 561.464 232.102ZM514.1 234.185C512.57 235.569 513.17 237.02 515.27 237.02C516.391 237.02 517.308 236.5 517.308 235.863C517.308 234.313 515.186 233.203 514.1 234.185ZM621.088 235.101C620.675 236.074 620.982 237.872 621.769 239.096C622.985 240.988 623.206 240.723 623.242 237.327C623.285 233.113 622.343 232.139 621.088 235.101ZM611.341 241.155L616.382 245.187L611.824 251.312C601.907 264.635 585.799 269.887 576.43 262.85C573.223 260.443 573.825 259.923 582.709 257.416C587.282 256.126 592.627 253.726 594.586 252.084C597.199 249.892 597.483 249.29 595.652 249.822C582.149 253.745 578.762 251.11 590.335 245.688C594.633 243.674 599.676 240.913 601.544 239.551C605.81 236.441 605.354 236.366 611.341 241.155ZM206.444 248.783C213.801 253.462 218.296 259.681 223.098 271.823C236.389 305.438 264.333 321.843 308.294 321.843H325.739V329.707V337.572L317.248 338.876C227.016 352.723 198.523 340.599 170.938 276.62C160.608 252.658 183.864 234.425 206.444 248.783ZM560.785 249.928C560.785 250.266 560.479 250.542 560.105 250.542C559.732 250.542 559.426 250.266 559.426 249.928C559.426 249.59 559.732 249.313 560.105 249.313C560.479 249.313 560.785 249.59 560.785 249.928ZM566.219 253.688C566.219 255.472 565.631 256.506 564.861 256.074C564.113 255.656 563.502 254.241 563.502 252.928C563.502 251.616 564.113 250.542 564.861 250.542C565.608 250.542 566.219 251.959 566.219 253.688ZM512.625 274.03C517.532 282.892 521.849 289.87 522.215 289.538C523.112 288.728 506.099 257.918 504.756 257.918C504.177 257.918 507.717 265.169 512.625 274.03ZM509.553 280.688C511.576 284.421 513.232 287.647 513.232 287.856C513.232 289.513 460.865 278.964 460.495 277.232C460.048 275.139 461.604 275.002 495.627 274.155L505.872 273.9L509.553 280.688ZM330.59 282.197C331.783 284.734 333.921 289.433 335.342 292.643L337.924 298.479L327.124 303.391C288.027 321.178 284.716 321.656 263.921 312.522C248.665 305.821 247.438 304.513 249.84 297.516C250.98 294.196 252.665 291.7 253.798 291.658C254.882 291.618 256.686 291.224 257.807 290.784C263.225 288.659 318.718 278.013 326.061 277.691C327.55 277.626 329.22 279.288 330.59 282.197ZM446.998 280.86C446.065 281.202 445.3 282.264 445.3 283.221C445.3 285.851 450.434 285.31 452.093 282.505C453.586 279.98 451.37 279.264 446.998 280.86ZM555.176 282.197C553.487 284.147 553.535 284.19 555.69 282.662C556.997 281.734 558.067 280.765 558.067 280.511C558.067 279.499 556.952 280.149 555.176 282.197ZM431.261 282.095C429.166 283.99 430.468 286.349 433.398 285.972C437.245 285.475 438.459 281.275 434.757 281.275C433.332 281.275 431.758 281.644 431.261 282.095ZM450.055 282.505C449.593 283.181 448.604 283.734 447.857 283.734C447.11 283.734 446.876 283.181 447.338 282.505C447.8 281.829 448.789 281.275 449.536 281.275C450.283 281.275 450.517 281.829 450.055 282.505ZM435.11 283.734C434.648 284.41 433.659 284.963 432.912 284.963C432.165 284.963 431.931 284.41 432.393 283.734C432.855 283.058 433.844 282.505 434.591 282.505C435.338 282.505 435.572 283.058 435.11 283.734ZM550.466 285.154C549.864 286.033 550.092 286.239 551.064 285.695C551.926 285.213 552.633 284.575 552.633 284.276C552.633 283.251 551.433 283.737 550.466 285.154ZM545.08 288.104C542.548 289.941 542.564 289.963 545.5 288.676C547.182 287.938 548.557 287.078 548.557 286.764C548.557 285.824 547.852 286.096 545.08 288.104ZM424.337 289.353C421.854 291.602 421.632 293.104 423.621 294.217C425.608 295.328 428.996 292.499 428.996 289.731C428.996 286.916 427.193 286.771 424.337 289.353ZM438.778 288.897C436.62 290.851 436.698 293.569 438.914 293.569C439.886 293.569 441.414 292.905 442.311 292.094C444.47 290.14 444.391 287.422 442.175 287.422C441.204 287.422 439.675 288.086 438.778 288.897ZM449.328 289.318C446.669 292.216 449.531 293.949 453.168 291.644C454.819 290.597 456.169 289.219 456.169 288.581C456.169 286.716 451.226 287.249 449.328 289.318ZM441.197 290.525C440.251 291.555 439.125 292.079 438.691 291.688C438.259 291.297 438.806 290.462 439.905 289.833C442.781 288.187 443.157 288.388 441.197 290.525ZM453.452 289.881C453.452 290.557 452.804 291.11 452.013 291.11C451.222 291.11 450.952 290.557 451.414 289.881C451.876 289.205 452.522 288.651 452.853 288.651C453.183 288.651 453.452 289.205 453.452 289.881ZM427.638 290.423C427.638 290.722 427.026 291.307 426.279 291.725C425.532 292.143 424.92 291.898 424.92 291.183C424.92 290.467 425.532 289.881 426.279 289.881C427.026 289.881 427.638 290.124 427.638 290.423ZM540.405 290.495C540.405 290.833 540.711 291.11 541.084 291.11C541.458 291.11 541.764 290.833 541.764 290.495C541.764 290.157 541.458 289.881 541.084 289.881C540.711 289.881 540.405 290.157 540.405 290.495ZM534.97 292.339C533.85 292.995 533.544 293.531 534.291 293.531C535.038 293.531 536.567 292.995 537.688 292.339C538.809 291.684 539.114 291.148 538.367 291.148C537.62 291.148 536.091 291.684 534.97 292.339ZM443.591 294.952C440.708 296.411 440.44 300.945 443.236 300.945C444.342 300.945 445.64 299.536 446.116 297.814C447.178 293.987 446.659 293.398 443.591 294.952ZM528.177 294.798C527.056 295.453 526.751 295.989 527.498 295.989C528.245 295.989 529.774 295.453 530.895 294.798C532.015 294.143 532.321 293.607 531.574 293.607C530.827 293.607 529.298 294.143 528.177 294.798ZM349.331 300.502C350.949 311.18 350.562 313.238 346.937 313.238C345.143 313.238 340.406 314.791 336.407 316.689C329.534 319.95 328.094 320.152 310.115 320.356L291.094 320.571L296.528 318.123C299.517 316.778 310.37 312.108 320.644 307.746C332.215 302.835 339.326 299.128 339.326 298.008C339.326 296.424 341.461 295.573 346.953 294.965C347.786 294.873 348.855 297.365 349.331 300.502ZM430.627 296.273C429.73 297.085 428.996 298.468 428.996 299.347C428.996 301.352 432 301.423 434.159 299.469C436.318 297.516 436.239 294.798 434.023 294.798C433.052 294.798 431.523 295.462 430.627 296.273ZM418.05 298.618C417.022 300.355 416.967 301.616 417.883 302.444C419.904 304.274 422.203 302.456 422.203 299.028C422.203 295.341 420.109 295.135 418.05 298.618ZM433.564 297.871C433.133 298.886 432.16 299.715 431.402 299.715C430.606 299.715 430.738 298.935 431.714 297.871C432.644 296.857 433.617 296.027 433.875 296.027C434.133 296.027 433.993 296.857 433.564 297.871ZM444.19 298.753C443.216 299.634 442.583 299.707 442.583 298.937C442.583 298.238 442.99 297.297 443.489 296.847C443.986 296.396 444.71 296.314 445.096 296.663C445.482 297.012 445.074 297.953 444.19 298.753ZM452.365 297.503C450.116 299.537 450.319 302.174 452.725 302.174C454.464 302.174 457.528 298.696 457.528 296.723C457.528 295.468 454.031 295.995 452.365 297.503ZM420.392 300.535C419.893 300.985 419.486 300.616 419.486 299.715C419.486 298.814 419.893 298.445 420.392 298.895C420.889 299.347 420.889 300.084 420.392 300.535ZM454.81 299.028C454.81 299.327 454.199 299.912 453.452 300.33C452.705 300.748 452.093 300.503 452.093 299.788C452.093 299.072 452.705 298.486 453.452 298.486C454.199 298.486 454.81 298.729 454.81 299.028ZM437.42 303.649C435.442 305.439 435.284 309.122 437.143 310.161C439.05 311.228 442.061 304.898 440.372 303.37C439.515 302.594 438.477 302.693 437.42 303.649ZM425.192 304.879C423.15 306.726 423.096 309.144 425.072 310.249C426.824 311.229 428.945 308.677 428.976 305.555C429 303.052 427.506 302.785 425.192 304.879ZM427.638 306.477C427.638 307.491 427.045 308.321 426.321 308.321C425.598 308.321 425.358 307.491 425.787 306.477C426.218 305.462 426.81 304.633 427.104 304.633C427.397 304.633 427.638 305.462 427.638 306.477ZM446.206 305.453C444.871 306.661 445.104 312.009 446.493 312.009C447.148 312.009 448.44 311.186 449.361 310.181C452.027 307.274 449.077 302.854 446.206 305.453ZM439.865 306.404C439.865 306.703 439.254 307.288 438.507 307.706C437.759 308.124 437.148 307.879 437.148 307.164C437.148 306.448 437.759 305.862 438.507 305.862C439.254 305.862 439.865 306.105 439.865 306.404ZM413.843 310.086C412.226 313.297 413.053 316.926 415.4 316.926C417.325 316.926 419.608 311.27 418.623 308.946C417.468 306.225 415.558 306.681 413.843 310.086ZM448.509 308.935C448.078 309.949 447.486 310.779 447.193 310.779C446.899 310.779 446.659 309.949 446.659 308.935C446.659 307.921 447.251 307.091 447.975 307.091C448.698 307.091 448.938 307.921 448.509 308.935ZM418.107 310.472C418.094 310.98 417.517 312.208 416.821 313.202C415.256 315.442 413.419 314.041 414.52 311.447C415.332 309.531 418.145 308.767 418.107 310.472ZM421.805 315.416C418.95 318.27 418.744 323.073 421.476 323.073C424.314 323.073 426.464 318.822 425.195 315.717C424.149 313.158 424.07 313.151 421.805 315.416ZM432.485 315.95C430.011 319.146 429.769 321.37 431.773 322.491C433.924 323.693 437.148 320.677 437.148 317.463C437.148 313.424 434.985 312.722 432.485 315.95ZM346.672 316.004C346.141 316.85 344.729 318.59 343.535 319.874C340.805 322.807 349.687 321.966 357.632 318.538C363.985 315.796 364.67 316.89 360.891 323.736C355.411 333.667 347.38 337.802 333.551 337.817L327.098 337.824V329.93C327.098 322.119 327.145 322.019 331.514 320.684C333.941 319.941 337.458 318.251 339.326 316.927C343.175 314.202 348.203 313.569 346.672 316.004ZM442.114 316.26C441.047 318.771 442.52 322.067 444.448 321.486C445.29 321.231 445.979 319.732 445.979 318.155C445.979 314.811 443.288 313.491 442.114 316.26ZM350.195 317.409C350.195 318.351 349.264 319.445 348.126 319.841C346.437 320.426 346.321 320.111 347.494 318.127C349.18 315.277 350.195 315.008 350.195 317.409ZM423.562 318.77C423.562 320.46 422.95 321.843 422.203 321.843C420.685 321.843 420.34 317.791 421.751 316.517C423.248 315.161 423.562 315.552 423.562 318.77ZM435.789 316.825C435.789 319.114 434.113 321.811 433.057 321.22C431.671 320.445 432.989 315.697 434.59 315.697C435.249 315.697 435.789 316.204 435.789 316.825ZM444.869 319.616C444.436 320.595 444.114 320.304 444.049 318.872C443.99 317.576 444.311 316.851 444.762 317.259C445.213 317.667 445.262 318.728 444.869 319.616ZM410.247 323.318C408.315 325.067 408.081 330.003 409.883 331.012C411.782 332.074 415.21 326.947 414.422 324.222C413.629 321.477 412.542 321.242 410.247 323.318ZM411.462 328.366C409.687 329.971 409.44 328.193 410.953 324.71C411.898 322.538 411.951 322.539 412.44 324.739C412.72 325.995 412.278 327.627 411.462 328.366ZM441.197 328.037C439.431 331.023 440.653 335.366 443.262 335.366C445.593 335.366 447.116 331.233 445.979 327.99C444.875 324.842 443.076 324.86 441.197 328.037ZM417.04 329.465C414.374 331.877 414.945 338.085 417.787 337.597C419.449 337.312 420.291 335.805 420.586 332.59C421.02 327.863 419.9 326.877 417.04 329.465ZM428.428 329.908C425.726 332.354 426.082 337.21 428.964 337.21C431.614 337.21 434.114 330.9 432.163 329.134C431.15 328.217 430.044 328.447 428.428 329.908ZM444.477 332.19C443.803 333.777 443.289 333.942 442.519 332.815C441.145 330.801 442.555 327.474 444.167 328.931C444.839 329.54 444.978 331.007 444.477 332.19ZM418.255 335.742C417.179 336.716 416.768 336.396 416.768 334.588C416.768 331.337 418.668 329.613 419.274 332.313C419.53 333.459 419.071 335.003 418.255 335.742ZM431.714 332.22C431.714 334.065 429.275 336.027 428.195 335.05C427.246 334.193 429.123 330.448 430.5 330.448C431.167 330.448 431.714 331.245 431.714 332.22ZM408.888 335.612C406.595 337.687 406.792 343.971 409.15 343.971C411.341 343.971 412.692 341.353 412.692 337.109C412.692 333.848 411.4 333.339 408.888 335.612ZM410.103 341.889C409.027 342.862 408.617 342.543 408.617 340.734C408.617 337.484 410.516 335.759 411.122 338.46C411.379 339.606 410.919 341.15 410.103 341.889ZM439.913 340.202C437.978 343.473 438.152 345.862 440.45 347.588C443.329 349.75 445.752 345.207 443.975 340.978C442.387 337.199 441.761 337.079 439.913 340.202ZM427.215 342.485C424.333 345.366 424.191 350.118 426.987 350.118C429.82 350.118 432.36 344.798 430.762 342.214C429.617 340.364 429.313 340.388 427.215 342.485ZM442.583 343.602C442.583 345.885 442.145 346.526 441.179 345.652C440.407 344.953 440.167 343.46 440.645 342.332C441.905 339.365 442.583 339.81 442.583 343.602ZM415.99 342.453C412.023 344.912 413.158 351.163 417.311 349.721C418.643 349.258 419.486 347.521 419.486 345.238C419.486 341.473 418.649 340.807 415.99 342.453ZM416.896 348.035C415.82 349.009 415.41 348.689 415.41 346.881C415.41 343.631 417.309 341.906 417.915 344.607C418.172 345.752 417.713 347.296 416.896 348.035ZM429.389 346.431C428.999 347.782 428.139 348.888 427.479 348.888C426.078 348.888 425.946 347.417 427.101 344.694C428.263 341.955 430.248 343.462 429.389 346.431ZM254.41 346.495L262.562 346.594L257.067 348.152C245.225 351.508 243.373 351.496 241.641 348.055C240.147 345.091 240.244 344.939 243.153 345.643C244.861 346.057 249.927 346.441 254.41 346.495ZM363.781 345.815C363.781 346.153 364.087 346.43 364.461 346.43C364.834 346.43 365.14 346.153 365.14 345.815C365.14 345.477 364.834 345.2 364.461 345.2C364.087 345.2 363.781 345.477 363.781 345.815ZM771.375 347.362C771.375 348.779 789.286 351.008 809.815 352.145L824.362 352.95V363.054V373.158L817.908 373.901C809.618 374.857 779.73 377.008 757.109 378.277L739.446 379.269L757.109 379.409C772.429 379.531 798.518 377.898 824.459 375.195L832.03 374.405L837.137 381.367C842.395 388.535 842.505 388.576 849.836 386.083C850.771 385.764 851.534 386.335 851.534 387.349C851.534 389.355 848.763 390.685 844.582 390.685C842.312 390.685 842.148 391.057 843.446 393.252C844.942 395.781 847.029 395.861 853.446 393.632C854.833 393.151 855.61 393.544 855.61 394.725C855.61 396.723 852.842 398.061 848.706 398.061C846.993 398.061 846.1 398.917 846.1 400.558C846.1 403.746 849.429 404.911 853.611 403.186C855.93 402.23 857.132 402.224 857.773 403.163C858.921 404.844 855.862 406.624 851.783 406.648C849.434 406.662 848.808 407.212 849.319 408.818C849.695 410.001 850.756 413.341 851.677 416.239C853.95 423.388 858.665 427.836 863.44 427.338L867.159 426.951L866.891 407.281C866.652 389.724 863.409 350.618 862.094 349.428C860 347.534 846.005 347.584 841.536 349.503C835.2 352.224 798.649 350.779 775.79 346.904C773.248 346.474 771.375 346.667 771.375 347.362ZM865.553 356.572C865.997 360.121 867.035 372.43 867.861 383.924C870.437 419.765 870.872 423.585 871.99 420.189C874.062 413.894 872.751 374.67 869.822 355.342C868.543 346.903 864.491 348.07 865.553 356.572ZM840.824 356.572C845.607 366.915 843.519 371.954 834.17 372.622L827.079 373.128V362.852V352.576H833.028C838.455 352.576 839.14 352.927 840.824 356.572ZM319.625 362.069C308.437 364.547 251.707 383.423 219.143 395.502C203.423 401.333 191.232 401.699 192.603 396.299C192.709 395.882 192.493 394.864 192.122 394.035C191.751 393.207 191.399 394.308 191.341 396.482C191.073 406.332 198.49 405.606 236.069 392.102C245.409 388.746 257.943 384.244 263.921 382.097C319.037 362.314 341.562 359.245 349.653 370.419C355.462 378.44 345.005 386.721 274.45 429.965C260.172 438.716 253.947 443.687 259.277 442.079C262.182 441.202 324.943 401.698 339.922 391.317C365.034 373.914 351.859 354.928 319.625 362.069ZM308.077 385.153C308.077 385.492 308.383 385.768 308.756 385.768C309.13 385.768 309.436 385.492 309.436 385.153C309.436 384.815 309.13 384.539 308.756 384.539C308.383 384.539 308.077 384.815 308.077 385.153ZM404.541 387.612C404.541 387.95 404.846 388.227 405.22 388.227C405.594 388.227 405.899 387.95 405.899 387.612C405.899 387.274 405.594 386.997 405.22 386.997C404.846 386.997 404.541 387.274 404.541 387.612ZM301.963 391.076C296.497 393.914 269.322 410.406 257.652 417.97C254.204 420.205 246.714 425.007 241.009 428.641C234.638 432.699 230.634 436.102 230.634 437.458C230.634 439.699 226.815 441.252 217.048 442.985C191.941 447.438 188.56 457.682 206.878 473.793C213.066 479.235 218.338 485.259 220.868 489.774C228.854 504.034 260.485 515.649 267.051 506.732C267.572 506.026 269.106 505.078 270.461 504.624C276.501 502.606 272.83 496.131 263.242 491.89C251.481 486.687 242.862 474.545 242.862 463.18C242.862 459.828 249.898 457.789 252.177 460.483C254.343 463.042 289.699 442.14 291.61 437.17C292.355 435.231 290.409 436.418 271.854 449.217L255.332 460.616L247.398 452.502C234.054 438.855 232.864 437.124 235.782 435.606C237.135 434.902 242.797 431.249 248.364 427.49C263.349 417.369 284.003 404.46 298.227 396.324C305.139 392.371 310.794 388.932 310.794 388.682C310.794 387.468 306.86 388.535 301.963 391.076ZM405.935 389.456C405.932 389.794 406.831 392.762 407.933 396.05C409.036 399.339 410.281 407.139 410.701 413.384L411.463 424.736L397.421 425.558C357.101 427.917 344.563 433.745 355.97 444.824C358.099 446.891 360.098 453.412 364.015 471.069C367.757 487.935 369.89 495.007 371.576 496.137C383.63 504.217 441.623 504.581 453.365 496.651C456.242 494.707 457.37 491.381 462.01 471.145C466.19 452.914 468.048 447.118 470.588 444.386C480.286 433.959 469.678 428.626 434.086 426.038C415.194 424.665 414.057 424.437 414.328 422.077C415.092 415.472 410.554 395.361 407.246 390.685C406.528 389.671 405.939 389.118 405.935 389.456ZM411.334 430.106C411.334 433.229 415.275 446.873 415.275 446.873C413.88 446.473 410.141 447.038 410.141 447.038L393.859 447.377L375.701 445.477C375.701 445.477 363.478 442.093 359.837 440.945C345.419 436.398 358.087 430.181 386.878 427.676C410.021 425.662 411.334 425.792 411.334 430.106ZM450.404 428.901C461.394 430.417 471.663 433.891 472.168 436.265C472.807 439.263 457.806 446.551 454.976 444.386L431.2 447.485C431.2 447.485 412.699 435.162 415.275 426.497C415.474 425.828 440.565 427.545 450.404 428.901ZM688.605 435.744C688.546 437.877 689.715 445.068 691.202 451.725C695.54 471.142 695.368 472 686.12 476.984C679.523 480.538 678.388 481.66 678.822 484.19C679.716 489.394 679.695 489.637 678.307 490.07C677.56 490.303 676.363 488.782 675.648 486.69C674.934 484.597 673.539 482.885 672.549 482.885C669.836 482.885 668.851 486.503 670.492 490.437C671.295 492.363 671.465 494.211 670.869 494.545C669.194 495.482 666.796 492.222 666.46 488.55C665.889 482.312 660.589 484.822 660.902 491.183C661.229 497.836 657.803 498.49 656.464 492.031C655.797 488.813 655.015 487.843 653.511 488.365C652.384 488.756 648.806 489.682 645.557 490.422C638.093 492.122 632.514 496.956 633.066 501.245L633.472 504.398H655.89C689.581 504.398 718.059 502.676 720.471 500.492C722.788 498.396 723.312 482.275 721.105 481.041C719.404 480.089 719.34 467.072 720.993 458.217C723.469 444.962 723.833 441.088 722.609 441.088C721.923 441.088 720.845 445.098 720.215 450L719.067 458.913H706.839H694.611L692.254 446.675C689.554 432.658 688.755 430.268 688.605 435.744ZM241.223 448.748C249.504 457.714 249.461 457.564 244.318 459.491C242.131 460.311 239.285 462.038 237.994 463.327C231.997 469.325 224.337 462.9 223.367 451.059C222.861 444.884 222.997 444.589 227.077 442.969C233.448 440.441 233.616 440.51 241.223 448.748ZM393.859 447.377C393.859 447.377 452.758 446.864 469.076 441.619L471.794 440.746L469.076 443.321C458.202 453.629 378.983 454.769 358.624 444.91C352.763 442.071 355.775 441.556 365.357 443.759C370.706 444.988 383.533 446.616 393.859 447.377ZM270.035 444.161C270.035 444.499 270.341 444.776 270.714 444.776C271.088 444.776 271.393 444.499 271.393 444.161C271.393 443.823 271.088 443.546 270.714 443.546C270.341 443.546 270.035 443.823 270.035 444.161ZM460.881 469.068C455.112 496.046 455.695 494.681 448.972 496.925C430.163 503.207 382.411 502.215 373.254 495.353C370.585 493.354 359.799 450.428 361.564 448.831C361.955 448.477 365.213 448.802 368.803 449.554C392.866 454.594 436.345 454.432 458.207 449.221C461.943 448.331 465.094 447.657 465.21 447.725C465.324 447.794 463.377 457.397 460.881 469.068ZM192.646 462.97C192.564 467.258 195.727 471.801 203.514 478.582C207.397 481.963 212.725 487.771 215.352 491.49C223.482 502.992 233.709 509.995 242.183 509.864C243.836 509.839 242.976 509.2 239.984 508.232C230.278 505.094 225.716 501.562 221.148 493.65C218.659 489.339 212.369 481.906 206.835 476.738C201.404 471.667 196.002 465.859 194.831 463.83C192.871 460.436 192.697 460.367 192.646 462.97ZM718.387 470.56C718.387 480.914 715.375 483.284 703.037 482.64L695.97 482.27L695.576 472.128L695.18 461.986H706.785H718.387V470.56ZM244.619 473.973C250.29 488.205 250.193 487.802 247.943 487.802C244.737 487.802 236.165 467.227 238.493 465.12C240.143 463.627 240.978 464.833 244.619 473.973ZM239.355 476.124C241.017 480.856 243.119 485.973 244.026 487.495C245.983 490.778 240.429 491.689 237.555 488.556C236.127 486.999 232.073 472.207 232.016 468.35C231.945 463.442 236.653 468.429 239.355 476.124ZM697.328 505.072C690.603 505.582 674.427 506.414 661.383 506.921C623.857 508.38 637.314 510.312 679.836 509.571C713.956 508.976 721.105 508.178 721.105 504.97C721.105 503.659 715.661 503.683 697.328 505.072ZM246.598 510.744C247.533 511.085 249.061 511.085 249.995 510.744C250.93 510.403 250.165 510.124 248.297 510.124C246.428 510.124 245.665 510.403 246.598 510.744Z" fill="#16314F"/>
</svg>
