<svg width="914" height="570" viewBox="0 0 914 570" fill="none" xmlns="http://www.w3.org/2000/svg">
<path fill-rule="evenodd" clip-rule="evenodd" d="M463.885 33.9865C594.246 27.9029 751.978 -27.4728 845.626 17.4003C944.053 64.5636 827.641 147.72 841.354 214.858C850.814 261.175 913.291 299.953 912.845 346.5C912.241 409.649 930.874 483.727 838.359 527.667C745.067 571.976 587.449 579.369 463.885 559.734C350.22 541.672 318.793 471.687 232.167 431.341C162.401 398.846 41.2491 391.882 8.32457 347.552C-24.745 303.026 50.0924 258.576 69.3661 212.142C92.1966 157.14 47.3195 88.7536 131.532 50.7253C215.499 12.8074 350.237 39.2902 463.885 33.9865Z" fill="#A5C2DF"/>
<path fill-rule="evenodd" clip-rule="evenodd" d="M436.76 241.141C434.182 242.948 433.75 244.744 435.894 244.744C437.784 244.744 441.225 240.881 440.005 240.127C439.48 239.802 438.02 240.258 436.76 241.141ZM424.675 241.651C422.493 242.923 422.195 245.803 424.246 245.803C426.056 245.803 429.414 242.157 428.472 241.216C427.539 240.283 426.897 240.357 424.675 241.651ZM426.214 251.665C422.661 255.219 421.722 256.778 422.602 257.658C423.934 258.991 427.058 257.086 427.058 254.942C427.058 254.285 428.844 252.216 431.028 250.345C434.132 247.686 434.564 246.934 433.006 246.903C431.911 246.881 428.853 249.023 426.214 251.665ZM416.941 249.073C416.55 249.707 416.74 250.735 417.364 251.359C418.685 252.681 422.122 250.418 421.16 248.861C420.354 247.556 417.799 247.686 416.941 249.073ZM436.852 249.246C437.095 249.975 438.167 250.57 439.235 250.57C440.302 250.57 441.375 249.975 441.617 249.246C441.897 248.407 441.023 247.922 439.235 247.922C437.446 247.922 436.573 248.407 436.852 249.246ZM431.999 253.925C430.982 254.941 431.129 258.514 432.188 258.514C433.213 258.514 436.587 254.998 436.587 253.929C436.587 253.007 432.919 253.004 431.999 253.925ZM413.404 255.732C411.962 257.469 412.943 260.633 414.923 260.633C416.534 260.633 417.988 256.939 417.005 255.346C416.094 253.874 414.834 254.008 413.404 255.732ZM439.976 255.548C438.515 257.01 438.275 259.573 439.6 259.573C441.017 259.573 444.08 255.771 443.296 254.986C442.272 253.963 441.416 254.108 439.976 255.548ZM418.798 260.845C418.1 261.544 417.528 263.009 417.528 264.1C417.528 267.329 421.178 265.864 421.568 262.477C421.925 259.385 420.876 258.766 418.798 260.845ZM427.764 261.339C426.729 262.374 426.902 265.929 427.987 265.929C428.498 265.929 429.492 265.235 430.196 264.387C432.077 262.119 429.816 259.286 427.764 261.339ZM434.872 264.289C434.548 265.136 434.605 266.351 434.999 266.989C435.904 268.453 438.705 266.354 438.705 264.211C438.705 262.27 435.622 262.334 434.872 264.289ZM410.731 265.465C408.71 267.486 408.517 271.225 410.433 271.225C412.377 271.225 414.351 269.015 414.351 266.839C414.351 264.172 412.663 263.531 410.731 265.465ZM424.469 271.161C422.243 273.621 423.029 276.839 425.731 276.324C427.761 275.937 428.874 271.559 427.334 270.019C426.758 269.442 425.61 269.9 424.469 271.161ZM415.093 270.835C413.958 271.971 414.21 276.31 415.457 277.08C417.158 278.131 419.785 275.382 419.432 272.918C419.115 270.709 416.483 269.446 415.093 270.835ZM431.816 271.235C430.989 272.575 432.179 276.521 433.411 276.521C434.642 276.521 435.832 272.575 435.005 271.235C434.642 270.647 433.924 270.166 433.411 270.166C432.897 270.166 432.179 270.647 431.816 271.235ZM407.151 277.792C405.563 279.381 405.502 282.518 407.041 283.469C408.909 284.624 411.486 281.289 410.682 278.758C409.875 276.213 408.975 275.967 407.151 277.792ZM430.94 281.465C429.745 282.66 430.157 285.731 431.682 286.997C432.781 287.909 433.439 287.826 434.417 286.648C436.788 283.79 433.506 278.897 430.94 281.465ZM420.639 284.638C419.928 286.509 419.922 287.814 420.62 288.512C422.166 290.059 424.94 287.375 424.94 284.336C424.94 280.876 421.99 281.084 420.639 284.638ZM411.881 283.583C410.617 284.847 411.138 289.232 412.551 289.232C414.515 289.232 416.469 287.014 416.469 284.783C416.469 282.914 413.361 282.101 411.881 283.583ZM405.967 288.599C404.326 290.576 404.878 293.999 406.839 293.999C409.457 293.999 410.824 290.547 408.948 288.67C407.473 287.194 407.138 287.186 405.967 288.599ZM430.931 291.007C430.028 291.911 430.028 297.146 430.931 298.05C431.988 299.107 434.47 296.636 434.47 294.528C434.47 292.421 431.988 289.95 430.931 291.007ZM411.23 293.932C409.75 295.715 410.529 300.884 412.276 300.884C414.478 300.884 415.912 295.636 414.183 293.907C412.752 292.476 412.436 292.478 411.23 293.932ZM419.002 296.195C418.614 297.741 418.838 299.44 419.518 300.121C421.338 301.941 424.296 298.566 423.389 295.706C422.408 292.613 419.829 292.902 419.002 296.195Z" fill="#A5C2DF"/>
<path fill-rule="evenodd" clip-rule="evenodd" d="M519.489 177.271C513.491 180.465 511.087 182.74 512.348 184.03C513.349 185.053 522.653 179.845 525.426 176.708C528.606 173.114 527.011 173.265 519.489 177.271ZM541.733 175.244C540.162 176.282 540.349 176.531 542.704 176.548C544.305 176.559 545.617 175.972 545.617 175.244C545.617 173.585 544.243 173.585 541.733 175.244ZM521.666 183.982C518.105 186.523 510.981 191.071 505.833 194.087C493.517 201.304 494.707 201.975 507.841 195.223C513.558 192.282 518.437 190.492 518.681 191.244C519.469 193.658 529.525 185.141 529.525 182.061C529.525 178.435 529.392 178.467 521.666 183.982ZM526.197 189.98C522.28 192.923 513.728 198.286 507.193 201.901L495.309 208.47L497.299 213.371C511.847 249.214 518.064 252.672 540.667 237.498C561.444 223.55 562.057 221.407 550.35 203.725C537.352 184.091 535.464 183.017 526.197 189.98ZM500.951 188.3C496.482 191.122 491.538 196.427 493.376 196.427C495.467 196.427 506.777 188.631 506.777 187.189C506.777 185.244 505.361 185.514 500.951 188.3ZM509.937 197.162C507.524 199.14 507.54 199.164 510.337 197.778C511.939 196.984 513.25 196.057 513.25 195.719C513.25 194.706 512.578 194.999 509.937 197.162ZM505.482 199.737C505.482 200.101 505.774 200.399 506.13 200.399C506.486 200.399 506.777 200.101 506.777 199.737C506.777 199.373 506.486 199.075 506.13 199.075C505.774 199.075 505.482 199.373 505.482 199.737ZM510.227 227.848C516.452 240.337 517.286 245.828 511.547 236.531C506.952 229.088 499.004 212.671 499.038 210.693C499.088 207.775 503.906 215.161 510.227 227.848ZM465.497 229.405C461.78 231.812 479.751 237.412 491.318 237.45C502.085 237.486 505.497 230.75 495.561 229.071C488.232 227.833 467.57 228.062 465.497 229.405Z" fill="#F2AA4B"/>
<path fill-rule="evenodd" clip-rule="evenodd" d="M640.699 48.3794C647.344 49.6339 657.838 52.5061 664.02 54.7627L675.258 58.8662V63.9451C675.258 70.2893 676.959 72.1204 678.081 66.9855C681.878 49.6168 741.224 111.932 741.224 133.287C741.224 149.633 682.873 169.994 677.373 155.567C676.179 152.438 675.557 151.921 674.631 153.291C673.166 155.458 669.84 154.029 662.334 148.008L657.406 144.055L659.329 138.95C665.507 122.543 667.143 93.2172 662.616 80.0044C661.159 75.7546 659.96 71.0415 659.95 69.5335C659.93 66.3284 658.972 66.1041 655.958 68.5996C654.271 69.9979 652.755 70.143 649.303 69.2372C635.6 65.6421 619.309 78.6219 616.573 95.3165C615.32 102.955 613.513 100.427 612.395 89.4721C611.64 82.0708 611.8 81.4381 615.155 78.5939C619.168 75.1914 621.265 66.6564 621.279 53.685C621.288 44.6331 621.113 44.6806 640.699 48.3794ZM635.946 57.6471C635.946 59.3234 636.545 60.6949 637.278 60.6949C638.011 60.6949 638.611 59.3234 638.611 57.6471C638.611 55.9708 638.011 54.5993 637.278 54.5993C636.545 54.5993 635.946 55.9708 635.946 57.6471ZM649.922 72.5154C670.663 81.5637 665.345 136.608 641.752 157.069C615.588 179.761 567.004 192.978 578.609 174.247C583.055 167.073 600.148 152.815 601.838 154.871C604.353 157.934 605.295 157.518 605.295 153.341C605.295 151.326 607.686 145.429 610.61 140.236C615.272 131.95 616.179 128.927 618.008 115.555C623.192 77.6491 632.602 64.9594 649.922 72.5154ZM679.923 85.0771C679.923 87.0887 680.522 88.7345 681.255 88.7345C681.988 88.7345 682.588 87.0887 682.588 85.0771C682.588 83.0656 681.988 81.4198 681.255 81.4198C680.522 81.4198 679.923 83.0656 679.923 85.0771ZM625.285 93.6109C625.285 95.6225 625.884 97.2683 626.617 97.2683C627.35 97.2683 627.95 95.6225 627.95 93.6109C627.95 91.5994 627.35 89.9536 626.617 89.9536C625.884 89.9536 625.285 91.5994 625.285 93.6109ZM647.939 97.8778C647.939 100.225 648.539 102.145 649.272 102.145C650.005 102.145 650.605 100.225 650.605 97.8778C650.605 95.531 650.005 93.6109 649.272 93.6109C648.539 93.6109 647.939 95.531 647.939 97.8778ZM710.573 102.145C710.573 106.053 712.427 107.058 713.762 103.873C715.132 100.606 714.664 98.4874 712.572 98.4874C711.239 98.4874 710.573 99.7065 710.573 102.145ZM694.582 102.073C694.582 103.375 695.181 104.778 695.914 105.193C696.67 105.62 697.247 104.595 697.247 102.826C697.247 101.111 696.647 99.7065 695.914 99.7065C695.181 99.7065 694.582 100.771 694.582 102.073ZM675.225 108.29C673.971 110.145 675.738 115.804 677.296 114.923C678.947 113.991 678.986 108.608 677.349 107.683C676.667 107.297 675.711 107.57 675.225 108.29ZM650.605 119.212C650.605 121.224 651.164 122.87 651.848 122.87C653.467 122.87 655.016 118.372 653.944 116.785C652.313 114.372 650.605 115.615 650.605 119.212ZM625.285 121.722C625.285 123.899 625.84 125.138 626.617 124.698C627.35 124.284 627.95 122.606 627.95 120.969C627.95 119.332 627.35 117.993 626.617 117.993C625.884 117.993 625.285 119.672 625.285 121.722ZM703.91 121.579C703.91 122.881 704.51 124.284 705.243 124.698C705.998 125.126 706.575 124.101 706.575 122.332C706.575 120.617 705.976 119.212 705.243 119.212C704.51 119.212 703.91 120.277 703.91 121.579ZM688.451 122.138C687.964 123.301 688.224 124.856 689.03 125.593C690.096 126.568 690.738 126.358 691.383 124.82C691.871 123.657 691.611 122.103 690.805 121.365C689.739 120.39 689.096 120.601 688.451 122.138ZM727.559 121.955C726.807 124 727.937 127.746 729.307 127.746C731.184 127.746 732.106 125.397 731.225 122.859C730.276 120.123 728.403 119.661 727.559 121.955ZM683.92 136.28C683.92 139.877 685.629 141.12 687.26 138.707C688.332 137.12 686.783 132.623 685.164 132.623C684.48 132.623 683.92 134.268 683.92 136.28ZM667.929 137.427C667.929 138.729 668.478 140.103 669.148 140.482C670.609 141.309 671.783 138.728 670.922 136.585C669.969 134.216 667.929 134.791 667.929 137.427ZM643.941 141.228C643.941 143.404 644.497 144.644 645.274 144.204C646.007 143.79 646.607 142.112 646.607 140.475C646.607 138.838 646.007 137.499 645.274 137.499C644.541 137.499 643.941 139.178 643.941 141.228ZM627.95 142.985C627.95 144.661 628.549 146.033 629.282 146.033C630.015 146.033 630.615 144.661 630.615 142.985C630.615 141.309 630.015 139.937 629.282 139.937C628.549 139.937 627.95 141.309 627.95 142.985ZM719.502 142.791C719.125 143.69 719.335 145.194 719.97 146.133C721.525 148.434 724.577 145.747 723.452 143.067C722.47 140.726 720.427 140.583 719.502 142.791ZM703.91 144.742C703.91 146.044 704.51 147.447 705.243 147.861C705.998 148.289 706.575 147.264 706.575 145.495C706.575 143.78 705.976 142.375 705.243 142.375C704.51 142.375 703.91 143.44 703.91 144.742ZM690.584 152.056C690.584 153.358 691.133 154.732 691.803 155.111C693.264 155.938 694.438 153.357 693.577 151.214C692.624 148.845 690.584 149.421 690.584 152.056ZM659.933 151.519C659.933 151.854 659.633 152.128 659.267 152.128C658.9 152.128 658.6 151.854 658.6 151.519C658.6 151.184 658.9 150.909 659.267 150.909C659.633 150.909 659.933 151.184 659.933 151.519ZM655.558 158.104C619.629 194.597 616.714 196.594 607.522 191.025C598.91 185.806 599.363 185.024 615.853 176.617C632.47 168.146 631.626 168.401 632.188 171.683C632.803 175.277 635.279 174.063 635.279 170.166C635.279 165.13 652.265 151.533 655.936 153.632C658.459 155.072 658.451 155.166 655.558 158.104ZM617.289 164.929C617.289 166.605 617.888 167.977 618.621 167.977C619.354 167.977 619.954 166.605 619.954 164.929C619.954 163.253 619.354 161.881 618.621 161.881C617.888 161.881 617.289 163.253 617.289 164.929ZM594.634 172.244C594.634 173.92 595.234 175.291 595.967 175.291C596.699 175.291 597.299 173.92 597.299 172.244C597.299 170.567 596.699 169.196 595.967 169.196C595.234 169.196 594.634 170.567 594.634 172.244ZM615.956 188.702C615.956 192.299 617.665 193.542 619.296 191.129C620.367 189.542 618.819 185.044 617.199 185.044C616.516 185.044 615.956 186.69 615.956 188.702ZM535.998 244.171C535.998 244.507 535.698 244.781 535.332 244.781C534.965 244.781 534.665 244.507 534.665 244.171C534.665 243.836 534.965 243.562 535.332 243.562C535.698 243.562 535.998 243.836 535.998 244.171ZM533.333 245.39C533.333 245.726 533.033 246 532.666 246C532.3 246 532 245.726 532 245.39C532 245.055 532.3 244.781 532.666 244.781C533.033 244.781 533.333 245.055 533.333 245.39Z" fill="#ED4865"/>
<path fill-rule="evenodd" clip-rule="evenodd" d="M564.955 2.48534C525.712 20.2693 538.373 87.7574 581.918 92.9059C589.284 93.777 593.748 96.7095 596.365 102.395C597.266 104.352 598.55 105.955 599.219 105.955C604.755 105.955 592.21 91.7329 585.705 90.6347C576.232 89.0347 556.776 78.2789 556.776 74.6421C556.776 73.22 558.015 73.5293 562.13 75.9796C565.074 77.7341 572.827 80.7746 579.359 82.7378C592.942 86.8188 594.211 87.5783 597.675 93.6911C599.067 96.1464 602.922 101.156 606.241 104.824L612.277 111.494L611.336 122.159C610.208 134.939 609.308 136.349 589.819 155.886C582.283 163.439 574.453 171.583 572.419 173.984C568.25 178.903 558.296 180.095 551.323 176.507C546.945 174.254 541.803 174.265 538.469 176.536C536.148 178.115 535.554 178.097 533.441 176.377C527.281 171.358 495.081 184.798 485.338 196.452L482.742 199.557L489.156 211.18C496.92 225.247 498.795 223.759 472.044 224.756L449.765 225.586L449.335 228.961C448.774 233.336 449.344 233.513 480.301 238.559C494.098 240.808 505.879 243.227 506.483 243.934C507.088 244.64 509.389 247.141 511.599 249.492L515.616 253.767L522.2 252.181C530.129 250.272 554.843 237.245 562.315 231.037C568.486 225.908 569.132 222.265 564.961 216.107C559.161 207.544 571.717 187.261 581.15 189.957C582.692 190.398 585.789 189.866 588.188 188.75C590.545 187.653 592.81 187.059 593.221 187.429C594.561 188.636 590.484 191.972 584.126 194.875C574.95 199.063 571.699 202.589 575.006 204.766C577.359 206.314 577.223 206.536 572.944 208.146C563.119 211.842 563.119 216.355 572.941 218.81C586.34 222.159 595.337 219.245 603.892 208.785C607.116 204.844 612.71 199.497 616.322 196.902C623.6 191.675 648.338 168.966 657.406 159.185L663.227 152.907L671.223 160.412L679.22 167.918L678.004 182.513C677.336 190.54 675.565 203.239 674.068 210.734C664.975 256.292 665.347 296.607 675.355 350.126C676.807 357.887 678.638 369.205 679.426 375.279C680.214 381.353 682.156 393.562 683.744 402.413C687.202 421.685 686.663 424.149 677.997 428.701C672.874 431.392 671.845 432.595 671.158 436.702L670.35 441.536L669.284 437.549C667.3 430.129 662.419 433.122 662.878 441.478C663.08 445.145 662.794 445.963 661.786 444.604C661.035 443.592 660.412 441.244 660.4 439.389C660.377 435.674 658.242 435.073 654.294 437.672C652.365 438.941 651.981 440.244 652.65 443.254C653.195 445.706 653.018 446.9 652.18 446.433C651.441 446.022 650.837 444.652 650.837 443.387C650.837 438.422 632.991 440.484 628.135 446.01C618.233 457.279 628.209 461.674 665.832 462.617C714.257 463.833 715.729 463.268 715.208 443.62C714.343 410.884 713.96 416.183 720.413 371.509C721.883 361.336 724.047 348.36 725.222 342.674L727.361 332.334L752.828 332.158C766.835 332.06 784.737 331.339 792.609 330.555C800.482 329.772 811.217 328.842 816.465 328.49L826.008 327.849L830.449 334.079C834.24 339.399 835.535 340.325 839.31 340.407L843.729 340.504L839.907 341.758C834.263 343.611 835.626 346.899 842.38 347.72L847.819 348.38L843.388 349.35C836.238 350.916 838.489 356.174 846.388 356.358L850.545 356.455L846.797 357.687C837.814 360.64 847.16 379.574 857.598 379.574H862.132L862.385 372.518L862.637 365.463L863.137 371.905C865.234 398.879 868.203 363.458 866.488 331.932C864.694 298.964 863.759 297.843 840.113 300.335C836.104 300.757 829.461 301.424 825.349 301.818C808.586 303.423 753.257 297.268 741.165 292.455L735.006 290.002L735.919 284.789C737.428 276.178 741.968 263.568 751.711 240.924C764.769 210.573 766.016 205.71 766.021 185.096C766.027 165.882 766.008 165.825 753.321 148.286C748.015 140.951 747.076 138.712 746.889 132.949C746.348 116.242 706.183 71.6421 679.006 57.5723C671.8 53.8422 668.618 51.2422 664.969 46.1085C643.765 16.2718 588.105 -8.00542 564.955 2.48534ZM582.373 28.111C584.31 29.3319 585.403 31.2938 585.403 33.549C585.403 36.068 586.573 37.8251 589.493 39.6975C597.138 44.5968 594.306 60.0324 585.241 62.8778C566.97 68.6102 541.266 50.3428 558.667 43.9919C568.492 40.4054 574.498 35.5073 574.498 31.084C574.498 25.7896 577.122 24.7994 582.373 28.111ZM606.125 43.5343C615.158 45.2643 615.352 45.5564 615.354 57.4888C615.358 73.3378 613.601 75.9023 607.178 69.4299C605.324 67.5624 602.178 64.9391 600.187 63.6017C597.003 61.4618 595.453 42.1515 598.466 42.1515C598.706 42.1515 602.152 42.7735 606.125 43.5343ZM656.971 52.0189C672.559 56.9575 675.436 59.56 675.436 59.56L676.801 60.1737C677.551 60.1737 678.166 61.333 678.166 61.333C678.166 61.333 678.431 60.6483 689.663 68.2372C717.297 86.9059 739.93 113.765 741.806 130.113L742.565 136.739L735.893 142.513C718.695 157.394 679.355 167.497 677.577 157.488C676.823 153.247 674.011 150.344 674.011 153.807C674.011 156.28 670.73 154.906 663.669 149.476L656.44 143.917L658.385 138.956C665.048 121.956 666.88 90.5881 661.873 79.2225C660.302 75.6544 658.378 75.2973 658.378 73.6752L654.076 70.5761C654.076 70.5761 652.97 70.1047 649.79 68.9906C633.943 63.4459 614.031 79.8458 614.031 98.4433C614.031 104.383 611.337 99.2359 610.451 91.6016C609.432 82.8397 610.522 77.7341 613.409 77.7341C616.629 77.7341 618.266 72.0544 619.099 58.0091L619.866 45.0324L632.285 46.5821C639.115 47.4349 650.223 49.8815 656.971 52.0189ZM650.441 72.7832C664.347 80.4151 665.494 117.154 652.632 143.025C642.236 163.936 586.409 192.147 578.016 180.731L574.356 175.752L582.478 167.541C596.376 153.488 598.596 151.858 599.676 154.919C601.18 159.182 603.125 157.814 603.125 152.495C603.125 149.021 604.308 145.94 607.013 142.372C613.593 133.691 614.047 132.284 616.094 114.253C620.27 77.4777 632.372 62.8667 650.441 72.7832ZM242.419 89.6188C240.843 89.8985 235.936 92.8924 231.514 96.2727C227.093 99.6519 219.891 104.145 215.51 106.258C199.87 113.8 196.745 122.732 206.435 132.193C211.644 137.28 211.847 137.779 210.992 143.392C209.937 150.323 212.103 152.549 219.986 152.632L224.838 152.682L219.568 156.873C216.054 159.666 210.128 162.312 201.779 164.816C145.978 181.549 115.024 252.466 133.216 321.896C135.249 329.653 136.931 339.04 136.954 342.755C137.206 383.159 157.418 400.101 199.619 395.281C203.747 394.81 205.584 394.864 203.708 395.403C192.195 398.707 185.987 403.475 185.987 409.013C185.987 410.447 185.416 411.302 184.718 410.915C177.734 407.03 184.076 420.667 193.696 430.221C198.602 435.095 205.013 442.232 207.942 446.08C214.371 454.532 220.526 458.954 229.083 461.271C235.904 463.119 255.063 463.617 248.694 461.782C245.663 460.908 245.856 460.786 250.441 460.678C270.077 460.211 270.536 449.684 251.304 440.891C244.393 437.732 243.42 436.772 240.74 430.469C235.858 418.988 237.03 409.496 242.921 412.807C247.092 415.151 259.045 408.836 281.411 392.469C287.034 388.354 301.639 378.182 313.867 369.866C340.239 351.927 358.569 336.706 362.023 329.88C368.013 318.041 361.622 295.982 350.262 289.283L346.858 287.276L350.466 283.424C359.066 274.245 360.143 266.308 352.709 266.902C343 267.677 343.255 251.044 353.111 240.651C363.127 230.089 364.831 225.1 361.14 217.147C358.467 211.391 352.116 210.934 345.409 216.013L341.037 219.325L338.443 216.442C335.187 212.824 335.724 211.323 340.796 209.863C348.526 207.637 355.1 200.405 352.225 197.287C348.59 193.346 338.778 196.152 334.523 202.348L331.813 206.296L327.723 202.856C322.849 198.758 313.409 196.832 310.707 199.383C306.491 203.364 315.86 211.463 324.692 211.471C328.933 211.476 334.575 214.948 334.575 217.553C334.575 218.229 331.796 218.426 327.976 218.018C317.702 216.924 312.804 220.267 317.639 225.076C319.647 227.074 319.312 227.3 312.527 228.539C298.944 231.016 252.114 239.871 249.234 240.508C246.481 241.115 246.337 240.6 245.658 227.843C245.065 216.693 244.114 212.337 239.772 200.893L234.593 187.244L238.07 181.261L241.547 175.28L250.608 174.458C265.557 173.102 277.106 165.012 281.543 152.79C282.441 150.313 285.387 146.555 288.088 144.439C293.302 140.355 293.396 139.854 292.214 122.519C292.076 120.495 292.424 116.798 292.987 114.303C295.038 105.226 290.134 99.8433 279.775 99.8016C274.841 99.7819 272.434 98.7292 263.679 92.7648C257.856 88.7967 251.972 87.9255 242.419 89.6188ZM600.399 109.022C600.399 109.36 600.705 109.636 601.08 109.636C601.455 109.636 601.762 109.36 601.762 109.022C601.762 108.685 601.455 108.409 601.08 108.409C600.705 108.409 600.399 108.685 600.399 109.022ZM249.434 134.465C251.232 139.935 255.562 141.498 268.981 141.519L280.406 141.538L279.656 146.569C278.053 157.331 265.026 169.728 253.228 171.72C239.462 174.044 228.521 158.657 237.923 150.194C240.925 147.492 241.851 145.779 241.123 144.271C238.507 138.854 238.85 134.505 242.051 132.486C246.595 129.622 247.965 129.989 249.434 134.465ZM658.562 152.172C658.062 152.621 657.653 152.253 657.653 151.354C657.653 150.454 658.062 150.086 658.562 150.535C659.061 150.985 659.061 151.722 658.562 152.172ZM656.641 154.225C660.397 152.136 651.044 161.891 633.809 178.041C612.978 197.559 613.594 197.29 604.42 190.924C595.957 185.052 595.154 186.26 613.69 176.969L629.707 168.94L632.854 167.918C632.854 167.918 632.706 167.043 636.981 164.376C639.779 162.632 644.473 158.985 647.417 156.274C651.797 152.236 652.977 151.681 653.93 153.214C654.571 154.243 655.791 154.698 656.641 154.225ZM230.828 159.425C231.568 161.839 233.812 165.747 235.813 168.109L239.451 172.403L235.341 179.977C233.081 184.141 230.866 188.562 230.42 189.799C228.619 194.786 220.331 183.908 215.707 170.491L214.058 165.701L220.602 160.368C228.527 153.909 229.12 153.855 230.828 159.425ZM210.995 170.065C212.039 171.584 214.31 175.995 216.044 179.87C219.749 188.153 226.084 195.525 229.497 195.525C235.966 195.525 240.517 207.178 241.481 226.2C243.158 259.295 233.451 257.742 216.649 222.227C197.191 181.09 148.097 185.844 159.993 227.714C168.407 257.325 205.515 297.365 224.543 297.365C227.097 297.365 228.733 298.349 230.109 300.715L232.059 304.065L199.822 314.03C182.091 319.511 162.676 325.731 156.678 327.852C141.335 333.279 140.211 333.127 137.607 325.279C120.596 273.986 139.07 206.032 177.126 179.915C193.251 168.849 207.344 164.751 210.995 170.065ZM527.463 178.353C524.719 182.35 510.706 189.252 510.034 186.937C509.217 184.128 510.632 182.935 518.686 179.647C525.31 176.942 528.784 176.43 527.463 178.353ZM548.772 179.162C550.473 181.018 550.356 181.066 547.483 179.688C544.878 178.438 543.744 178.515 541.008 180.129C539.145 181.227 537.692 181.518 537.692 180.79C537.692 179.522 542.325 177.352 545.364 177.198C546.209 177.156 547.742 178.039 548.772 179.162ZM532.239 180.11C532.239 183.285 506.53 198.75 495.353 202.299C485.653 205.379 487.818 203.445 500.022 198.128C506.378 195.36 516.07 190.053 521.561 186.334C531.684 179.48 532.239 179.156 532.239 180.11ZM575.598 184.054C576.431 189.321 563.804 199.206 556.239 199.206C546.428 199.206 547.815 190.567 558.253 186.663C565.03 184.128 566.357 182.775 563.251 181.572C562.315 181.209 564.615 181.025 568.363 181.163C574.195 181.378 575.239 181.796 575.598 184.054ZM547.622 183.623C547.996 184.502 547.527 186.523 546.581 188.115L544.858 191.012L542.52 187.801C541.234 186.036 540.579 184.014 541.063 183.309C542.305 181.499 546.809 181.715 547.622 183.623ZM546.019 197.979C562.766 219.032 562.997 219.44 560.265 223.194C555.769 229.369 521.733 248.286 515.116 248.286C514.024 248.286 492.706 211.52 492.706 209.638C492.706 209.313 496.734 207.402 501.658 205.393C512.038 201.157 527.361 192.238 532.135 187.655C536.767 183.209 534.451 183.704 527.697 188.605C522.251 192.557 513.098 198.037 514.517 196.496C528.033 181.82 533.365 182.071 546.019 197.979ZM505.397 189.485C506.116 191.958 490.751 200.309 488.768 198.524C487.815 197.666 501.331 187.731 504.475 186.979C504.575 186.956 504.99 188.083 505.397 189.485ZM603.02 193.794C612.652 201.088 596.924 216.418 579.861 216.366C568.154 216.329 567.614 213.513 578.587 209.731C591.793 205.18 595.285 200.78 584.651 202.092C577.033 203.032 577.671 201.514 586.608 197.438C590.164 195.816 593.876 193.618 594.857 192.553C597.255 189.953 598.123 190.086 603.02 193.794ZM192.121 199.083C201.68 203.075 207.302 209.794 214.539 225.877C229.041 258.104 256.245 274.351 296.061 274.563L315.484 274.666L315.486 282.168L315.491 289.67L309.015 290.497C278.507 294.39 268.831 295.218 252.783 295.31C211.014 295.549 193.862 284.872 172.228 245.169C153.487 210.773 163.663 187.199 192.121 199.083ZM513.154 197.348C513.154 198.092 497.262 205.363 495.813 205.281C495.228 205.249 498.738 203.343 503.612 201.047C513.474 196.4 513.154 196.523 513.154 197.348ZM557.686 206.159C557.185 206.609 556.776 206.24 556.776 205.341C556.776 204.442 557.185 204.074 557.686 204.523C558.184 204.973 558.184 205.709 557.686 206.159ZM494.069 205.955C494.069 206.292 493.763 206.568 493.388 206.568C493.013 206.568 492.706 206.292 492.706 205.955C492.706 205.617 493.013 205.341 493.388 205.341C493.763 205.341 494.069 205.617 494.069 205.955ZM496.816 212.136C502.512 225.621 518.475 249.359 515.142 239.39C513.368 234.086 498.825 209.805 497.126 209.31C495.807 208.926 495.735 209.579 496.816 212.136ZM360.476 223.795C360.476 226.206 355.285 234.179 351.817 237.092C347.67 240.575 344.118 239.813 344.118 235.44C344.118 233.732 344.037 231.927 343.939 231.429C343.841 230.931 346.554 229.136 349.967 227.442C353.381 225.746 356.63 223.945 357.189 223.439C358.653 222.112 360.476 222.308 360.476 223.795ZM563.592 225.373C563.592 225.593 561.905 227.11 559.843 228.747L556.095 231.721L559.399 228.347C562.488 225.194 563.592 224.41 563.592 225.373ZM500.772 232.416C504.958 239.121 480.212 238.179 460.233 230.872L456.581 229.536L459.989 228.604C461.864 228.091 471.106 227.617 480.527 227.55L497.657 227.427L500.772 232.416ZM324.351 229.881C324.815 230.556 324.887 231.108 324.512 231.108C324.137 231.108 323.452 230.556 322.988 229.881C322.525 229.206 322.452 228.654 322.827 228.654C323.202 228.654 323.888 229.206 324.351 229.881ZM327.168 247.557C329.538 256.06 281.535 271.492 265.644 267.333C219.348 255.219 231.313 246.097 312.764 231.401L318.898 230.294L322.583 237.311C324.609 241.172 326.673 245.781 327.168 247.557ZM338.389 237.55C337.816 248.392 332.545 249.507 328.036 239.74L325.165 233.52L329.529 231.801C338.032 228.45 338.843 228.977 338.389 237.55ZM532.239 245.218C532.239 245.556 531.932 245.832 531.557 245.832C531.182 245.832 530.876 245.556 530.876 245.218C530.876 244.881 531.182 244.605 531.557 244.605C531.932 244.605 532.239 244.881 532.239 245.218ZM529.512 246.445C529.512 246.783 529.206 247.059 528.831 247.059C528.456 247.059 528.149 246.783 528.149 246.445C528.149 246.108 528.456 245.832 528.831 245.832C529.206 245.832 529.512 246.108 529.512 246.445ZM526.786 247.672C526.786 248.01 526.479 248.286 526.104 248.286C525.729 248.286 525.423 248.01 525.423 247.672C525.423 247.335 525.729 247.059 526.104 247.059C526.479 247.059 526.786 247.335 526.786 247.672ZM339.991 255.954L339.954 263.623L331.066 267.197C321.527 271.034 297.904 273.726 291.873 271.665C289.203 270.752 289.518 270.433 295.043 268.451C306.101 264.486 330.169 253.088 332.61 250.661C337.563 245.735 340.032 247.505 339.991 255.954ZM522.696 248.899C522.696 249.237 522.39 249.513 522.015 249.513C521.64 249.513 521.333 249.237 521.333 248.899C521.333 248.562 521.64 248.286 522.015 248.286C522.39 248.286 522.696 248.562 522.696 248.899ZM334.575 271.598L331.663 275.279L334.823 275.239C336.561 275.217 341.35 274.153 345.466 272.875C354.155 270.175 354.583 270.313 352.38 275.1C348.289 283.989 339.109 288.755 326.055 288.769L319.58 288.776V282.222V275.668L327.418 271.911C337.382 267.135 338.132 267.103 334.575 271.598ZM834.256 310.209C838.147 318.589 835.862 322.916 826.982 323.988L821.237 324.682V315.319V305.954H826.759C831.771 305.954 832.464 306.347 834.256 310.209ZM397.964 322.095C391.757 325.15 389.906 331.418 393.831 336.088C396.83 339.657 396.384 340.224 391.171 339.462C385.717 338.666 378.677 340.891 376.83 343.998C375.013 347.053 376.235 347.532 382.583 346.249C393.329 344.076 399.466 347.267 400.953 355.802L401.782 360.555L398.906 358.263C395.133 355.256 384.864 354.28 378.105 356.288C370.66 358.5 371.383 359.486 381.178 360.484C391.219 361.506 396.075 363.558 399.901 368.394C405.701 375.727 404.746 376.166 379.561 377.727C348.101 379.678 339.67 384.532 346.68 396.657C349.219 401.046 352.214 410.036 354.896 421.323C361.109 447.441 361.231 447.751 366.294 449.874C382.869 456.826 436.931 456.63 446.6 449.582C448.841 447.948 450.755 442.323 455.397 423.726C460.817 402.008 461.708 399.605 465.738 395.863C475.368 386.921 459.489 379.754 424.424 377.216C406.42 375.915 405.973 375.639 412.959 370.164C419.515 365.028 425.734 362.396 431.319 362.396C436.68 362.396 436.568 360.529 431.021 357.429C424.912 354.014 418.502 355.179 411.937 360.895L406.825 365.348V361.647C406.825 355.631 420.484 346.553 429.658 346.472C433.321 346.44 433.651 344.28 430.34 342.018C424.676 338.148 412.509 340.833 406.965 347.177L404.138 350.412L401.252 344.441C396.771 335.168 396.361 329.765 399.818 325.557C404.034 320.422 403.477 319.381 397.964 322.095ZM398.475 380.34C403.737 381.288 403.971 382.955 398.986 383.974C396.925 384.394 391.32 385.791 386.532 387.077C379.683 388.915 376.776 389.15 372.9 388.181C365.134 386.24 361.205 386.691 357.84 389.916C354.531 393.086 348.207 392.237 348.207 388.623C348.207 383.932 384.872 377.891 398.475 380.34ZM429.999 380.829C453.526 382.682 467.239 386.729 461.896 390.245C458.433 392.526 455.919 392.259 446.867 388.653C440.632 386.169 437.578 385.626 433.066 386.199C429.879 386.604 424.524 387.283 421.166 387.706C414.106 388.597 408.188 385.994 408.188 381.999C408.188 379.14 408.402 379.128 429.999 380.829ZM218.704 391.23C218.704 391.567 218.397 391.843 218.022 391.843C217.647 391.843 217.34 391.567 217.34 391.23C217.34 390.893 217.647 390.616 218.022 390.616C218.397 390.616 218.704 390.893 218.704 391.23ZM215.523 392.662C215.023 393.111 214.205 393.111 213.705 392.662C213.206 392.212 213.615 391.843 214.614 391.843C215.613 391.843 216.022 392.212 215.523 392.662ZM210.07 393.889C209.57 394.338 208.752 394.338 208.252 393.889C207.753 393.438 208.162 393.07 209.161 393.07C210.16 393.07 210.569 393.438 210.07 393.889ZM231.575 400.613C235.044 404.085 237.659 407.537 237.386 408.281C236.349 411.115 225.89 416.654 223.088 415.854C216.426 413.951 213.271 398.301 219.044 395.794C224.024 393.634 224.965 393.994 231.575 400.613ZM402.735 399.632C427.405 399.583 439.147 399.052 447.667 397.599C460.997 395.327 463.438 395.734 453.078 398.504C429.902 404.699 358.403 402.722 350.551 395.669C349.966 395.143 353.953 395.835 359.411 397.205C368.193 399.411 373.186 399.691 402.735 399.632ZM405.462 404.695C428.41 404.705 441.346 404.198 446.806 403.077C457.255 400.932 457.022 400.081 452.05 422.225C445.963 449.336 445.816 449.459 416.218 452.03C373.614 455.729 364.842 450.654 357.785 418.224C356.17 410.8 354.572 403.853 354.235 402.784C353.675 401.015 354.44 401.014 362.842 402.762C369.858 404.223 380.05 404.684 405.462 404.695ZM709.174 422.824L708.773 431.718L703.344 433.314C692.714 436.441 687.897 431.791 689.678 420.126L690.626 413.929H700.1H709.574L709.174 422.824ZM238.907 434.4C241.258 438.321 240.87 440.7 238.4 437.524C235.681 434.031 230.949 421.673 231.053 418.338C231.096 416.926 232.521 419.359 234.217 423.745C235.914 428.132 238.024 432.927 238.907 434.4ZM231.036 431.046C235.772 441.521 235.944 442.662 232.541 441.022C230.251 439.919 227.166 432.741 224.85 423.132C223.39 417.072 226.539 421.101 231.036 431.046ZM198.43 427.119C200.125 429.065 200.077 429.108 197.915 427.583C195.644 425.979 194.923 424.972 196.044 424.972C196.327 424.972 197.401 425.939 198.43 427.119ZM214.614 446.444C214.614 446.782 214.307 447.058 213.932 447.058C213.557 447.058 213.251 446.782 213.251 446.444C213.251 446.107 213.557 445.831 213.932 445.831C214.307 445.831 214.614 446.107 214.614 446.444ZM225.52 456.26C225.52 456.598 225.213 456.874 224.838 456.874C224.463 456.874 224.156 456.598 224.156 456.26C224.156 455.923 224.463 455.647 224.838 455.647C225.213 455.647 225.52 455.923 225.52 456.26ZM228.246 457.487C228.246 457.825 227.939 458.101 227.564 458.101C227.189 458.101 226.883 457.825 226.883 457.487C226.883 457.15 227.189 456.874 227.564 456.874C227.939 456.874 228.246 457.15 228.246 457.487Z" fill="#007C77"/>
<path fill-rule="evenodd" clip-rule="evenodd" d="M577.574 26.7743C577.126 27.8326 576.76 29.6997 576.76 30.9234C576.76 33.3647 570.068 38.9966 564.729 41.0474C552.808 45.6283 554.207 53.8572 567.886 59.635C588.178 68.2069 606.856 52.3367 592.851 38.4261C590.638 36.2293 588.828 33.3696 588.828 32.0729C588.828 26.8388 579.421 22.4087 577.574 26.7743ZM600.369 42.5873C599.921 43.6456 599.555 47.92 599.555 52.0861V59.6618L607.032 65.5175C616.587 73.0007 617.657 72.1954 617.657 57.5222C617.657 43.8706 604.598 32.5886 600.369 42.5873ZM658.554 148.922C658.554 149.591 659.157 150.138 659.895 150.138C660.632 150.138 661.236 149.591 661.236 148.922C661.236 148.253 660.632 147.705 659.895 147.705C659.157 147.705 658.554 148.253 658.554 148.922ZM566.759 179.635C567.133 180.523 565.033 182.189 561.708 183.64C550.526 188.521 549.984 196.361 560.831 196.361C569.965 196.361 581.184 184.775 576.746 179.924C574.687 177.673 565.823 177.418 566.759 179.635ZM596.719 190.112C594.96 191.358 590.956 193.558 587.823 195.002C580.415 198.414 580.314 200.583 587.611 199.524C595.712 198.349 593.843 201.046 583.392 205.609C572.842 210.215 572.165 212.632 581.276 213.159C598.625 214.16 616.104 198.589 606.156 190.995C601.235 187.238 600.829 187.2 596.719 190.112ZM559.329 202.443C559.329 203.112 559.932 203.659 560.67 203.659C561.407 203.659 562.011 203.112 562.011 202.443C562.011 201.774 561.407 201.226 560.67 201.226C559.932 201.226 559.329 201.774 559.329 202.443ZM819.459 311.309V320.432H823.585C828.351 320.432 835.55 314.732 835.55 310.959C835.55 306.318 830.451 302.186 824.725 302.186H819.459V311.309ZM690.459 414.398C689.153 426.494 693.541 431.294 703.642 428.818C709.741 427.324 710.848 425.129 710.848 414.55V409.228H700.932H691.017L690.459 414.398Z" fill="#D89687"/>
<path fill-rule="evenodd" clip-rule="evenodd" d="M244.179 135.08C242.746 136.542 241.956 139.519 241.951 143.453C241.949 147.363 240.984 151.017 239.267 153.618C237.793 155.852 236.587 158.503 236.587 159.51C236.587 161.894 234.411 161.873 233.416 159.481C232.132 156.386 229.117 157.35 222.334 163.023L215.875 168.426L219.684 177.394C224.473 188.676 228.706 193.518 232.143 191.65C236.411 189.328 242.4 176.251 240.738 172.881C239.335 170.034 239.363 170.021 242.666 172.021C251.354 177.282 266.64 171.898 276.826 159.993C286.502 148.68 284.057 144.418 266.892 142.677C258.24 141.8 257.087 141.337 253.386 137.265C248.798 132.215 247.326 131.865 244.179 135.08ZM236.587 164.442C236.587 164.783 236.285 165.062 235.916 165.062C235.547 165.062 235.245 164.783 235.245 164.442C235.245 164.101 235.547 163.822 235.916 163.822C236.285 163.822 236.587 164.101 236.587 164.442ZM350.46 229.937C344.263 234.304 342.807 238.762 346.817 241.099C350.132 243.032 352.998 241.365 357.407 234.941C364.27 224.94 360.946 222.546 350.46 229.937ZM324.515 233.285C324.971 233.967 325.646 234.525 326.015 234.525C326.384 234.525 326.313 233.967 325.857 233.285C325.401 232.602 324.725 232.044 324.356 232.044C323.987 232.044 324.058 232.602 324.515 233.285ZM328.877 234.624C325.809 236.275 325.915 239.162 329.225 244.18C334.187 251.697 339.952 250.102 339.952 241.212C339.952 233.56 335.631 230.99 328.877 234.624ZM327.535 274.92L321.159 277.986V285.405V292.824L326.864 292.817C339.12 292.802 349.718 287.34 353.391 279.146C355.72 273.951 354.6 273.497 345.345 275.874C334.903 278.557 334.146 278.53 335.878 275.54C338.689 270.687 336.651 270.535 327.535 274.92ZM220.478 396.398C220.478 396.739 220.78 397.018 221.15 397.018C221.519 397.018 221.821 396.739 221.821 396.398C221.821 396.057 221.519 395.778 221.15 395.778C220.78 395.778 220.478 396.057 220.478 396.398ZM216.898 397.845C217.391 398.299 218.196 398.299 218.689 397.845C219.18 397.39 218.778 397.018 217.794 397.018C216.81 397.018 216.407 397.39 216.898 397.845ZM211.529 399.086C212.021 399.54 212.827 399.54 213.319 399.086C213.811 398.631 213.408 398.259 212.424 398.259C211.44 398.259 211.037 398.631 211.529 399.086ZM221.457 400.903C215.469 403.999 220.163 420.586 227.027 420.586C231.826 420.586 239.821 415.697 240.333 412.45C241.135 407.363 226.397 398.348 221.457 400.903ZM233.916 426.405C233.931 430.321 239.469 442.113 241.962 443.537C243.797 444.584 243.396 442.965 238.953 431.401C235.811 423.224 233.897 421.325 233.916 426.405ZM227.488 430.009C228.419 436.387 233.704 446.634 236.064 446.634C238.825 446.634 238.369 444.048 234.03 435.112C229.211 425.188 226.474 423.053 227.488 430.009ZM199 430.978C199 431.235 199.92 432.151 201.044 433.013C202.753 434.325 202.951 434.248 202.243 432.545C201.521 430.807 199 429.587 199 430.978ZM216.451 452.216C216.451 452.557 216.753 452.836 217.122 452.836C217.492 452.836 217.794 452.557 217.794 452.216C217.794 451.875 217.492 451.596 217.122 451.596C216.753 451.596 216.451 451.875 216.451 452.216ZM227.19 462.139C227.19 462.48 227.492 462.76 227.862 462.76C228.231 462.76 228.533 462.48 228.533 462.139C228.533 461.798 228.231 461.519 227.862 461.519C227.492 461.519 227.19 461.798 227.19 462.139ZM229.875 463.38C229.875 463.721 230.177 464 230.546 464C230.916 464 231.218 463.721 231.218 463.38C231.218 463.039 230.916 462.76 230.546 462.76C230.177 462.76 229.875 463.039 229.875 463.38Z" fill="#B16C5C"/>
<path fill-rule="evenodd" clip-rule="evenodd" d="M214.013 164.485C215.057 166.037 217.329 170.546 219.063 174.507C222.769 182.974 229.105 190.509 232.519 190.509C238.989 190.509 243.542 202.42 244.506 221.863C246.183 255.692 236.473 254.104 219.668 217.802C200.206 175.753 151.101 180.613 163 223.411C171.416 253.677 208.531 294.605 227.564 294.605C230.118 294.605 231.754 295.61 233.131 298.028L235.081 301.452L202.837 311.639C185.102 317.241 165.684 323.598 159.684 325.767C144.338 331.314 143.213 331.159 140.609 323.137C123.594 270.708 142.072 201.248 180.137 174.553C196.265 163.242 210.361 159.053 214.013 164.485ZM195.135 194.146C204.696 198.226 210.319 205.093 217.558 221.533C232.062 254.474 259.272 271.08 299.097 271.297L318.524 271.403L318.527 279.07L318.531 286.738L312.054 287.584C281.539 291.563 271.861 292.41 255.81 292.504C214.032 292.748 196.876 281.835 175.238 241.252C156.492 206.094 166.671 181.998 195.135 194.146ZM330.21 243.693C332.582 252.384 284.568 268.158 268.673 263.908C222.368 251.525 234.335 242.2 315.804 227.179L321.94 226.048L325.625 233.221C327.651 237.166 329.716 241.878 330.21 243.693Z" fill="#16314F"/>
<path fill-rule="evenodd" clip-rule="evenodd" d="M355.815 405.066C367.565 410.577 430.216 412.16 450.209 407.453C460.653 404.994 459.108 404.72 445.177 406.559C419.351 409.971 373 408.757 355.163 404.203C353.42 403.758 353.635 404.044 355.815 405.066ZM357.702 411.177C358.093 412.554 359.829 419.182 361.558 425.908C368.244 451.914 376.565 456.143 415.223 453.186C445.507 450.87 445.348 450.983 451.223 427.643C455.997 408.683 456.174 409.273 446.187 410.975C427.151 414.217 371.626 413.21 359.332 409.4C357.385 408.796 357.108 409.097 357.702 411.177Z" fill="#C4C4C4"/>
<path fill-rule="evenodd" clip-rule="evenodd" d="M568.745 1.6596C549.237 8.17256 538.118 27.6512 543.061 46.6541C550.112 73.7657 564.267 89.5981 582.985 91.3143L589.43 91.9043L582.637 90.2804C570.313 87.3337 563.139 82.441 558.219 73.628L555.91 69.4888L560.442 72.5646C566.786 76.8697 574.679 80.2184 582.637 81.98C593.199 84.3169 597.287 87.2415 601.479 95.4559C603.724 99.8581 607.125 104.104 609.984 106.077L614.747 109.364L613.804 120.61C613.287 126.795 612.288 132.857 611.586 134.079C609.736 137.298 587.551 160.308 579.399 167.46C575.576 170.816 572.447 174.485 572.447 175.615C572.447 179.392 556.012 180.08 550.698 176.525L546.451 173.684L541.064 176.354C535.768 178.979 535.648 178.984 534.034 176.647C530.195 171.084 501.09 183.194 488.268 195.688L484.929 198.943L491.325 210.593C494.843 217.002 497.722 222.719 497.722 223.3C497.722 223.881 487.328 224.757 474.625 225.249C456.904 225.935 451.528 226.52 451.528 227.764C451.528 231.095 453.261 233.275 455.908 233.275C457.411 233.275 470.091 235.266 484.088 237.697L509.536 242.119L512.443 247.532C516.442 254.98 525.418 252.9 549.107 239.034C568.935 227.429 571.537 224.192 566.165 217.819C560.593 211.208 560.14 203.292 565.138 199.791C567.29 198.283 571.848 194.704 575.268 191.837C579.996 187.873 581.864 186.968 583.066 188.056C584.269 189.144 585.836 188.974 589.615 187.343C601.59 182.177 598.183 189.617 586.034 195.166C574.239 200.553 572.298 204.152 580.599 205.237C583.295 205.59 582.313 206.203 575.844 208.21C561.358 212.703 568.344 219.355 586.375 218.236C595.264 217.685 599.355 214.952 606.61 204.723C608.982 201.378 611.797 198.854 613.156 198.854C615.69 198.854 642.978 174.119 655.199 160.745C676.913 136.981 688.587 173.84 677.802 232.121C669.475 277.132 668.445 340.227 676.038 340.227C676.764 340.227 677.023 338.983 676.616 337.461C676.207 335.939 675.124 324.665 674.207 312.407C671.976 282.566 672.663 275.822 684.61 210.228C685.985 202.676 685.219 179.791 683.355 172.715L681.486 165.631L685.049 165.009C728.756 157.388 751.333 142.314 744.309 125.443C733.468 99.3995 701.096 66.5987 675.272 55.4905C671.667 53.9391 668.227 50.7306 663.995 44.97C642.886 16.2406 593.007 -6.43919 568.745 1.6596ZM583.218 26.0887C587.566 28.122 589.192 30.9274 587.999 34.3301C587.377 36.1041 588.131 36.9449 591.219 37.9185C600.287 40.7792 597.839 58.7372 587.793 63.0509C578.823 66.9023 562.172 61.8412 552.741 52.3975C547.03 46.6762 547.115 46.5312 558.323 42.8383C569.716 39.0839 577.027 33.5864 575.056 30.2537C571.895 24.9098 576.106 22.761 583.218 26.0887ZM608.648 42.2962L617.557 44.3209L617.066 58.5847C616.43 77.0467 615.906 77.7081 607.961 70.0814C604.493 66.7536 600.195 63.1418 598.405 62.0539C595.408 60.2308 595.289 59.7796 596.88 56.3031C597.99 53.8776 598.286 50.3433 597.708 46.4009C596.674 39.3531 596.308 39.4908 608.648 42.2962ZM646.739 47.0819C696.317 58.0524 758.64 120.063 739.946 139.825C729.83 150.517 705.57 160.817 686.266 162.613L679.101 163.28L667.829 153.422L656.558 143.565L659.237 135.253C666.016 114.224 666.915 84.4091 660.989 77.166C659.247 75.0368 658.158 72.5031 658.569 71.5369C658.978 70.5694 658.76 68.5324 658.085 67.0105C656.918 64.3859 656.851 64.424 656.769 67.7555C656.699 70.6026 656.233 71.1017 654.305 70.3887C634.75 63.1541 621.851 71.7975 616.03 96.0336L613.626 106.04L612.057 99.5262C609.327 88.1844 609.928 76.019 613.182 76.7898C617.263 77.7548 618.641 72.8191 618.641 57.2238V43.6029L628.058 44.3172C633.237 44.7106 641.644 45.9546 646.739 47.0819ZM634.945 56.2527C634.945 58.495 635.509 59.771 636.303 59.326C637.051 58.908 637.662 57.525 637.662 56.2527C637.662 54.9803 637.051 53.5973 636.303 53.1794C635.509 52.7344 634.945 54.0104 634.945 56.2527ZM675.724 64.0085C675.712 66.8212 676.246 68.3874 677.063 67.9313C678.78 66.9712 678.78 63.5746 677.063 61.17C676.084 59.8018 675.741 60.532 675.724 64.0085ZM654.406 72.8203C668.677 81.2805 665.463 130.919 649.274 152.056C643.867 159.116 586.744 190.072 583.888 187.489C583.539 187.173 581.171 184.265 578.626 181.025L573.999 175.137L587.853 161.487C614.952 134.788 614.09 136.271 615.894 113.281C618.857 75.5002 633.312 60.3144 654.406 72.8203ZM679.78 83.2253C679.78 85.2143 680.391 87.1825 681.139 87.6005C681.947 88.0529 682.497 86.5888 682.497 83.985C682.497 81.5792 681.886 79.6099 681.139 79.6099C680.391 79.6099 679.78 81.2363 679.78 83.2253ZM270.128 89.0597C274.306 92.9529 276.15 93.7164 283.18 94.4663C287.997 94.9801 292.477 96.2488 294.062 97.5482C296.212 99.3073 296.595 99.3676 295.947 97.8395C294.808 95.1547 289.299 93.1324 283.121 93.1324C279.12 93.1324 276.53 92.1133 272.187 88.8298C264.823 83.2634 264.005 83.3544 270.128 89.0597ZM245.143 90.0677C241.552 91.0807 236.661 93.9708 232.915 97.2912C229.482 100.335 223.921 103.898 220.558 105.207C203.106 112.004 198.662 123.861 210.504 132.033C215.428 135.431 215.973 137.844 213.156 143.788C211.416 147.459 218.421 152.576 224.054 151.749C236.331 149.947 219.625 160.802 202.441 165.794C146.553 182.031 115.074 264.048 139.205 330.556C141.318 336.379 141.712 339.745 141.033 346.172C138.741 367.851 149.551 386.795 167.495 392.543C175.409 395.079 196.149 396.35 199.643 394.515C201.645 393.463 199.287 393.154 189.021 393.125C157.88 393.037 144.655 381.36 143.389 352.832C142.573 334.491 151.218 330.001 228.031 308.872C325.523 282.055 392.773 296.085 356.224 335.617C353.256 338.829 351.627 341.456 352.605 341.456C358.48 341.456 366.536 326.2 365.493 317.053C363.911 303.19 354.425 296.466 329.929 291.852C328.435 291.569 330.375 291.275 334.24 291.196C339.764 291.084 342.237 290.33 345.789 287.673C357.883 278.626 363.983 264.395 354.345 267.71C352.401 268.379 350.33 268.926 349.742 268.926C349.153 268.926 348.263 263.664 347.764 257.233L346.855 245.539L351.877 241.559C362.19 233.385 368.956 218.344 362.197 218.621C360.777 218.678 360.503 218.967 361.518 219.337C365.914 220.943 361.172 231.122 352.487 238.728C346.047 244.366 346.193 244.419 345.01 236.028C344.145 229.897 344.278 229.498 347.543 228.375C352.229 226.763 351.902 225.426 347.038 226.306C343.473 226.952 343.124 226.728 343.454 224.001C343.657 222.341 343.31 220.982 342.687 220.982C342.063 220.982 340.238 218.216 338.631 214.836C337.024 211.455 335.172 208.689 334.517 208.689C332.894 208.689 333.012 209.487 335.209 213.36C337.65 217.661 340.969 229.581 342.161 238.323L343.1 245.213L338.722 246.006C336.315 246.442 333.885 246.798 333.323 246.798C332.281 246.798 326.532 235.578 326.532 233.542C326.532 232.926 327.907 231.815 329.589 231.074C332.303 229.876 332.149 229.804 328.231 230.425C325.408 230.872 323.815 230.625 323.815 229.741C323.815 227.254 278.951 234.104 256.353 240.042C245.999 242.761 246.118 242.83 247.125 234.786C248.386 224.703 245.546 210.034 240.112 198.545C235.02 187.781 235.058 186.57 240.749 178.242C244.229 173.153 244.499 173.02 249.908 173.745C263.509 175.57 284.211 159.459 284.385 146.915C284.402 145.654 285.451 144.764 286.921 144.764C293.492 144.764 297.186 134.053 293.425 125.909C291.492 121.72 291.488 120.824 293.387 116.529C297.828 106.487 293.06 100.54 279.764 99.5434C273.695 99.0873 271.87 98.4111 270.092 95.9537C265.471 89.5748 255.354 87.1874 245.143 90.0677ZM225.919 93.8626C223.345 96.293 217.264 100.026 212.406 102.161C195.563 109.56 191.839 123.464 204.591 131.341C208.947 134.032 208.936 134.005 203.915 129.443C194.263 120.675 198.153 110.23 213.572 103.499C218.918 101.166 224.011 97.7694 226.932 94.5867C232.725 88.2766 232.221 87.9164 225.919 93.8626ZM624.076 93.1324C624.076 95.1608 624.687 96.8204 625.434 96.8204C626.181 96.8204 626.793 95.1608 626.793 93.1324C626.793 91.104 626.181 89.4445 625.434 89.4445C624.687 89.4445 624.076 91.104 624.076 93.1324ZM590.222 92.251C590.535 92.4428 592.012 93.4103 593.506 94.4023C596.02 96.0705 596.083 96.0447 594.359 94.0544C593.333 92.8706 591.855 91.9031 591.075 91.9031C590.296 91.9031 589.911 92.0592 590.222 92.251ZM647.172 96.8204C647.172 98.8488 647.784 100.508 648.531 100.508C649.278 100.508 649.89 98.8488 649.89 96.8204C649.89 94.792 649.278 93.1324 648.531 93.1324C647.784 93.1324 647.172 94.792 647.172 96.8204ZM596.903 98.6644C596.903 99.0025 597.208 99.2791 597.582 99.2791C597.956 99.2791 598.261 99.0025 598.261 98.6644C598.261 98.3263 597.956 98.0497 597.582 98.0497C597.208 98.0497 596.903 98.3263 596.903 98.6644ZM711.485 99.9761C711.036 101.036 711.36 102.529 712.207 103.295C713.353 104.333 713.746 103.841 713.746 101.369C713.746 97.6699 712.728 97.0441 711.485 99.9761ZM695.182 101.205C694.732 102.265 695.057 103.759 695.903 104.525C697.05 105.562 697.442 105.07 697.442 102.598C697.442 98.8992 696.425 98.2735 695.182 101.205ZM675.724 110.723C675.712 113.536 676.246 115.102 677.063 114.646C678.78 113.686 678.78 110.289 677.063 107.884C676.084 106.516 675.741 107.246 675.724 110.723ZM650.346 117.187C649.897 118.246 650.221 119.74 651.068 120.506C652.214 121.543 652.607 121.052 652.607 118.579C652.607 114.88 651.589 114.255 650.346 117.187ZM624.076 120.792C624.076 122.483 624.687 123.866 625.434 123.866C626.181 123.866 626.793 122.483 626.793 120.792C626.793 119.102 626.181 117.719 625.434 117.719C624.687 117.719 624.076 119.102 624.076 120.792ZM705.015 120.998C704.537 122.125 704.778 123.618 705.549 124.317C706.515 125.191 706.953 124.55 706.953 122.267C706.953 118.475 706.275 118.03 705.015 120.998ZM689.373 123.866C689.373 127.375 689.629 127.772 690.758 126.017C691.698 124.555 691.698 123.176 690.758 121.714C689.629 119.959 689.373 120.356 689.373 123.866ZM729.513 122.127C729.059 123.199 729.281 124.998 730.006 126.123C731.057 127.75 731.334 127.351 731.368 124.173C731.413 119.798 730.792 119.113 729.513 122.127ZM251.807 132.888C251.807 139.255 264.313 142.787 277.282 140.083L283.056 138.879L283.042 143.358C282.996 158.97 262.395 175.985 248.546 171.85C239.574 169.171 228.586 150.911 235.946 150.911C240.279 150.911 244.296 144.984 241.712 142.401C237.188 137.877 242.316 128.783 249.393 128.783C251.224 128.783 251.807 129.774 251.807 132.888ZM684.678 134.421C684.224 135.493 684.445 137.291 685.171 138.416C686.221 140.043 686.498 139.644 686.532 136.466C686.577 132.091 685.956 131.406 684.678 134.421ZM668.931 137.695C668.946 140.412 669.328 141.155 670.124 140.018C671.192 138.492 670.668 133.7 669.431 133.7C669.146 133.7 668.92 135.499 668.931 137.695ZM643.096 140.461C643.096 142.152 643.708 143.535 644.455 143.535C645.202 143.535 645.814 142.152 645.814 140.461C645.814 138.771 645.202 137.388 644.455 137.388C643.708 137.388 643.096 138.771 643.096 140.461ZM627.537 140.154C626.968 141.338 626.968 143.273 627.537 144.457C628.839 147.164 630.1 143.783 629.141 140.154C628.599 138.105 628.522 138.105 627.537 140.154ZM721.361 141.796C720.907 142.868 721.129 144.667 721.854 145.792C722.905 147.419 723.182 147.02 723.216 143.842C723.261 139.467 722.64 138.782 721.361 141.796ZM704.922 143.525C704.464 144.196 704.714 145.717 705.479 146.906C706.673 148.759 706.877 148.586 706.912 145.686C706.954 142.151 706.327 141.468 704.922 143.525ZM659.381 148.191L662.381 150.388L656.527 157.104C653.308 160.797 642.472 171.412 632.446 180.694L614.217 197.569L610.655 195.186C608.696 193.877 604.693 190.939 601.762 188.657L596.431 184.511L607.197 179.228C638.496 163.87 649.338 156.824 652.588 149.723C654.572 145.389 655.324 145.219 659.381 148.191ZM655.345 150.603C655.334 152.801 655.559 154.599 655.845 154.599C657.081 154.599 657.606 149.807 656.538 148.281C655.742 147.144 655.36 147.887 655.345 150.603ZM600.979 152.755C600.979 154.445 601.59 155.828 602.337 155.828C603.084 155.828 603.696 154.445 603.696 152.755C603.696 151.064 603.084 149.681 602.337 149.681C601.59 149.681 600.979 151.064 600.979 152.755ZM691.172 151.45C690.759 152.424 691.066 154.221 691.853 155.446C693.069 157.338 693.29 157.072 693.326 153.677C693.369 149.463 692.428 148.489 691.172 151.45ZM675.167 152.86C674.714 153.932 674.935 155.731 675.661 156.856C676.711 158.483 676.988 158.084 677.022 154.906C677.067 150.531 676.446 149.846 675.167 152.86ZM233.43 156.707C234.677 162.722 237.511 167.532 241.176 169.855C243.898 171.581 243.969 171.921 242.022 173.925C239.256 176.77 234.779 185.011 233.609 189.408C231.577 197.053 223.588 188.141 217.179 171.079L214.542 164.06L217.889 162.095C219.729 161.015 223.376 158.348 225.991 156.169C232.001 151.163 232.285 151.184 233.43 156.707ZM759.115 160.131C759.569 161.145 760.276 162.722 760.687 163.635C761.187 164.747 758.693 166.476 753.155 168.86C745.678 172.078 744.951 172.721 745.661 175.497C746.093 177.188 747.201 182.876 748.124 188.138C749.046 193.401 750.249 197.688 750.795 197.666C761.496 197.229 762.657 197.57 762.657 201.153C762.657 206.439 755.103 228.414 749.587 239.17C742.601 252.795 735.992 271.334 732.832 286.171C728.675 305.685 720.493 354.118 721.24 354.793C722.507 355.939 723.013 354.272 725.117 342.071C735.958 279.162 738.51 268.627 747.739 248.642C763.068 215.453 767.581 198.88 766.32 180.415C765.592 169.751 762.145 158.287 759.667 158.287C758.91 158.287 758.661 159.116 759.115 160.131ZM616.559 163.328C616.061 164.748 616.326 166.518 617.148 167.262C618.233 168.244 618.641 167.539 618.641 164.679C618.641 160.138 617.857 159.629 616.559 163.328ZM216.435 173.308C222.689 189.066 229.346 197.03 233.596 193.839C241.521 187.889 248.783 230.035 242.775 247.105C239.018 257.78 226.194 243.501 215.92 217.203C207.003 194.382 175.627 186.593 164.128 204.347C149.835 226.415 197.43 295.971 226.822 295.971C229.83 295.971 236.626 302.741 235.05 304.168C234.637 304.541 222.8 308.326 208.748 312.577C194.694 316.828 174.423 323.406 163.702 327.193C140.181 335.502 142.322 335.464 139.715 327.626C120.235 269.078 145.219 191.344 189.792 171.826C210.264 162.861 212.334 162.977 216.435 173.308ZM764.036 176.8C766.368 191.577 765.146 195.166 757.782 195.166C752.181 195.166 751.78 194.945 751.658 191.786C751.586 189.927 750.821 185.363 749.959 181.644L748.391 174.883L755.185 171.105C763.387 166.543 762.309 165.849 764.036 176.8ZM592.827 172.424C592.827 174.114 593.438 175.497 594.185 175.497C594.933 175.497 595.544 174.114 595.544 172.424C595.544 170.734 594.933 169.351 594.185 169.351C593.438 169.351 592.827 170.734 592.827 172.424ZM631.555 170.57C631.097 171.241 631.347 172.762 632.112 173.951C633.306 175.805 633.51 175.631 633.545 172.731C633.587 169.196 632.96 168.513 631.555 170.57ZM530.329 176.708C530.329 180.369 495.048 200.084 488.498 200.084C482.59 200.084 504.575 184.94 519.782 178.534C527.485 175.288 530.329 174.796 530.329 176.708ZM553.426 180.241C553.426 182.332 551.664 182.684 549.771 180.97C547.227 178.669 543.345 178.689 541.21 181.016C540.287 182.022 538.961 182.526 538.261 182.136C536.617 181.216 539.58 177.969 543.189 176.738C546.001 175.777 553.426 178.319 553.426 180.241ZM539.255 186.003C542.746 190.429 545.888 193.792 546.237 193.476C546.587 193.16 545.513 191.237 543.852 189.205C540.672 185.313 540.984 182.112 544.67 180.834C548.243 179.592 551.508 183.474 549.714 186.832C545.966 193.852 546.386 195.177 556.359 207.817L565.968 219.995L559.358 226.327L552.747 232.661L559.719 226.704C564.154 222.913 567.034 221.249 567.635 222.128C570.276 225.995 526.394 251.715 517.154 251.715C514.536 251.715 515.005 249.527 517.762 248.874C519.555 248.45 519.389 248.277 517.089 248.17C514.356 248.042 504.071 231.562 488.503 202.37C488.274 201.938 490.992 200.686 494.548 199.591C502.606 197.106 516.669 189.606 525.587 183.038C529.316 180.29 532.489 178.023 532.637 178C532.787 177.976 535.765 181.577 539.255 186.003ZM577.902 182.294C580.996 187.524 563.398 202.335 556.775 200.073C547.201 196.805 547.104 188.555 556.611 186.055C564.117 184.08 569.299 180.769 562.449 182.325C560.56 182.754 558.217 182.637 557.24 182.067C555.366 180.971 561.973 179.69 571.198 179.36C575.118 179.22 576.421 179.79 577.902 182.294ZM717.822 182.675C717.822 200.98 710.263 246.048 703.596 267.484C695.364 293.955 692.928 396.776 700.532 396.776C701.388 396.776 701.575 393.704 701.04 388.478C697.154 350.578 698.869 290.664 704.303 274.458C713.883 245.886 724.341 180.415 719.325 180.415C718.499 180.415 717.822 181.432 717.822 182.675ZM555.464 184.102C555.926 184.779 555.35 185.332 554.185 185.332C553.021 185.332 552.067 184.779 552.067 184.102C552.067 183.426 552.642 182.873 553.346 182.873C554.05 182.873 555.002 183.426 555.464 184.102ZM508.1 186.185C506.57 187.569 507.17 189.02 509.27 189.02C510.391 189.02 511.308 188.5 511.308 187.863C511.308 186.313 509.186 185.203 508.1 186.185ZM615.088 187.101C614.675 188.074 614.982 189.872 615.769 191.096C616.985 192.988 617.206 192.723 617.242 189.327C617.285 185.113 616.344 184.139 615.088 187.101ZM605.341 193.155L610.382 197.187L605.824 203.312C595.907 216.635 579.799 221.887 570.43 214.85C567.223 212.443 567.825 211.923 576.709 209.416C581.282 208.126 586.627 205.726 588.586 204.084C591.199 201.892 591.483 201.29 589.652 201.822C576.149 205.745 572.762 203.11 584.335 197.688C588.633 195.674 593.676 192.913 595.544 191.551C599.81 188.441 599.354 188.366 605.341 193.155ZM200.444 200.783C207.801 205.462 212.296 211.681 217.098 223.823C230.389 257.438 258.333 273.843 302.294 273.843H319.739V281.707V289.572L311.248 290.876C221.016 304.723 192.523 292.599 164.938 228.62C154.608 204.658 177.864 186.425 200.444 200.783ZM554.785 201.928C554.785 202.266 554.479 202.542 554.105 202.542C553.732 202.542 553.426 202.266 553.426 201.928C553.426 201.59 553.732 201.313 554.105 201.313C554.479 201.313 554.785 201.59 554.785 201.928ZM560.219 205.688C560.219 207.472 559.631 208.506 558.861 208.074C558.113 207.656 557.502 206.241 557.502 204.928C557.502 203.616 558.113 202.542 558.861 202.542C559.608 202.542 560.219 203.959 560.219 205.688ZM506.625 226.03C511.532 234.892 515.849 241.87 516.215 241.538C517.112 240.728 500.099 209.918 498.756 209.918C498.177 209.918 501.717 217.169 506.625 226.03ZM503.553 232.688C505.576 236.421 507.232 239.647 507.232 239.856C507.232 241.513 454.865 230.964 454.495 229.232C454.048 227.139 455.604 227.002 489.627 226.155L499.872 225.9L503.553 232.688ZM324.59 234.197C325.783 236.734 327.921 241.433 329.342 244.643L331.924 250.479L321.124 255.391C282.027 273.178 278.716 273.656 257.921 264.522C242.665 257.821 241.438 256.513 243.84 249.516C244.98 246.196 246.665 243.7 247.798 243.658C248.882 243.618 250.686 243.224 251.807 242.784C257.225 240.659 312.718 230.013 320.061 229.691C321.55 229.626 323.22 231.288 324.59 234.197ZM440.998 232.86C440.065 233.202 439.3 234.264 439.3 235.221C439.3 237.851 444.434 237.31 446.093 234.505C447.586 231.98 445.37 231.264 440.998 232.86ZM549.176 234.197C547.487 236.147 547.535 236.19 549.69 234.662C550.997 233.734 552.067 232.765 552.067 232.511C552.067 231.499 550.952 232.149 549.176 234.197ZM425.261 234.095C423.166 235.99 424.468 238.349 427.398 237.972C431.245 237.475 432.459 233.275 428.757 233.275C427.332 233.275 425.758 233.644 425.261 234.095ZM444.055 234.505C443.593 235.181 442.604 235.734 441.857 235.734C441.11 235.734 440.876 235.181 441.338 234.505C441.8 233.829 442.789 233.275 443.536 233.275C444.283 233.275 444.517 233.829 444.055 234.505ZM429.11 235.734C428.648 236.41 427.659 236.963 426.912 236.963C426.165 236.963 425.931 236.41 426.393 235.734C426.855 235.058 427.844 234.505 428.591 234.505C429.338 234.505 429.572 235.058 429.11 235.734ZM544.466 237.154C543.864 238.033 544.092 238.239 545.064 237.695C545.926 237.213 546.633 236.575 546.633 236.276C546.633 235.251 545.433 235.737 544.466 237.154ZM539.08 240.104C536.548 241.941 536.564 241.963 539.5 240.676C541.182 239.938 542.557 239.078 542.557 238.764C542.557 237.824 541.852 238.096 539.08 240.104ZM418.337 241.353C415.854 243.602 415.632 245.104 417.621 246.217C419.608 247.328 422.996 244.499 422.996 241.731C422.996 238.916 421.193 238.771 418.337 241.353ZM432.778 240.897C430.62 242.851 430.698 245.569 432.914 245.569C433.886 245.569 435.414 244.905 436.311 244.094C438.47 242.14 438.391 239.422 436.175 239.422C435.204 239.422 433.675 240.086 432.778 240.897ZM443.328 241.318C440.669 244.216 443.531 245.949 447.168 243.644C448.819 242.597 450.169 241.219 450.169 240.581C450.169 238.716 445.226 239.249 443.328 241.318ZM435.197 242.525C434.251 243.555 433.125 244.079 432.691 243.688C432.259 243.297 432.806 242.462 433.905 241.833C436.781 240.187 437.157 240.388 435.197 242.525ZM447.452 241.881C447.452 242.557 446.804 243.11 446.013 243.11C445.222 243.11 444.952 242.557 445.414 241.881C445.876 241.205 446.522 240.651 446.853 240.651C447.183 240.651 447.452 241.205 447.452 241.881ZM421.638 242.423C421.638 242.722 421.026 243.307 420.279 243.725C419.532 244.143 418.92 243.898 418.92 243.183C418.92 242.467 419.532 241.881 420.279 241.881C421.026 241.881 421.638 242.124 421.638 242.423ZM534.405 242.495C534.405 242.833 534.711 243.11 535.084 243.11C535.458 243.11 535.764 242.833 535.764 242.495C535.764 242.157 535.458 241.881 535.084 241.881C534.711 241.881 534.405 242.157 534.405 242.495ZM528.97 244.339C527.85 244.995 527.544 245.531 528.291 245.531C529.038 245.531 530.567 244.995 531.688 244.339C532.809 243.684 533.114 243.148 532.367 243.148C531.62 243.148 530.091 243.684 528.97 244.339ZM437.591 246.952C434.708 248.411 434.44 252.945 437.236 252.945C438.342 252.945 439.64 251.536 440.116 249.814C441.178 245.987 440.659 245.398 437.591 246.952ZM522.177 246.798C521.056 247.453 520.751 247.989 521.498 247.989C522.245 247.989 523.774 247.453 524.895 246.798C526.015 246.143 526.321 245.607 525.574 245.607C524.827 245.607 523.298 246.143 522.177 246.798ZM343.331 252.502C344.949 263.18 344.562 265.238 340.937 265.238C339.143 265.238 334.406 266.791 330.407 268.689C323.534 271.95 322.094 272.152 304.115 272.356L285.094 272.571L290.528 270.123C293.517 268.778 304.37 264.108 314.644 259.746C326.215 254.835 333.326 251.128 333.326 250.008C333.326 248.424 335.461 247.573 340.953 246.965C341.786 246.873 342.855 249.365 343.331 252.502ZM424.627 248.273C423.73 249.085 422.996 250.468 422.996 251.347C422.996 253.352 426 253.423 428.159 251.469C430.318 249.516 430.239 246.798 428.023 246.798C427.052 246.798 425.523 247.462 424.627 248.273ZM412.05 250.618C411.022 252.355 410.967 253.616 411.883 254.444C413.904 256.274 416.203 254.456 416.203 251.028C416.203 247.341 414.109 247.135 412.05 250.618ZM427.564 249.871C427.133 250.886 426.16 251.715 425.402 251.715C424.606 251.715 424.738 250.935 425.714 249.871C426.644 248.857 427.617 248.027 427.875 248.027C428.133 248.027 427.993 248.857 427.564 249.871ZM438.19 250.753C437.216 251.634 436.583 251.707 436.583 250.937C436.583 250.238 436.99 249.297 437.489 248.847C437.986 248.396 438.71 248.314 439.096 248.663C439.482 249.012 439.074 249.953 438.19 250.753ZM446.365 249.503C444.116 251.537 444.319 254.174 446.725 254.174C448.464 254.174 451.528 250.696 451.528 248.723C451.528 247.468 448.031 247.995 446.365 249.503ZM414.392 252.535C413.893 252.985 413.486 252.616 413.486 251.715C413.486 250.814 413.893 250.445 414.392 250.895C414.889 251.347 414.889 252.084 414.392 252.535ZM448.81 251.028C448.81 251.327 448.199 251.912 447.452 252.33C446.705 252.748 446.093 252.503 446.093 251.788C446.093 251.072 446.705 250.486 447.452 250.486C448.199 250.486 448.81 250.729 448.81 251.028ZM431.42 255.649C429.442 257.439 429.284 261.122 431.143 262.161C433.05 263.228 436.061 256.898 434.372 255.37C433.515 254.594 432.477 254.693 431.42 255.649ZM419.192 256.879C417.15 258.726 417.096 261.144 419.072 262.249C420.824 263.229 422.945 260.677 422.976 257.555C423 255.052 421.506 254.785 419.192 256.879ZM421.638 258.477C421.638 259.491 421.045 260.321 420.321 260.321C419.598 260.321 419.358 259.491 419.787 258.477C420.218 257.462 420.81 256.633 421.104 256.633C421.397 256.633 421.638 257.462 421.638 258.477ZM440.206 257.453C438.871 258.661 439.104 264.009 440.493 264.009C441.148 264.009 442.44 263.186 443.361 262.181C446.027 259.274 443.077 254.854 440.206 257.453ZM433.865 258.404C433.865 258.703 433.254 259.288 432.507 259.706C431.759 260.124 431.148 259.879 431.148 259.164C431.148 258.448 431.759 257.862 432.507 257.862C433.254 257.862 433.865 258.105 433.865 258.404ZM407.843 262.086C406.226 265.297 407.053 268.926 409.4 268.926C411.325 268.926 413.608 263.27 412.623 260.946C411.468 258.225 409.558 258.681 407.843 262.086ZM442.509 260.935C442.078 261.949 441.486 262.779 441.193 262.779C440.899 262.779 440.659 261.949 440.659 260.935C440.659 259.921 441.251 259.091 441.975 259.091C442.698 259.091 442.938 259.921 442.509 260.935ZM412.107 262.472C412.094 262.98 411.517 264.208 410.821 265.202C409.256 267.442 407.419 266.041 408.52 263.447C409.332 261.531 412.145 260.767 412.107 262.472ZM415.805 267.416C412.95 270.27 412.744 275.073 415.476 275.073C418.314 275.073 420.464 270.822 419.195 267.717C418.149 265.158 418.07 265.151 415.805 267.416ZM426.485 267.95C424.011 271.146 423.769 273.37 425.773 274.491C427.924 275.693 431.148 272.677 431.148 269.463C431.148 265.424 428.985 264.722 426.485 267.95ZM340.672 268.004C340.141 268.85 338.729 270.59 337.535 271.874C334.805 274.807 343.687 273.966 351.632 270.538C357.985 267.796 358.67 268.89 354.891 275.736C349.411 285.667 341.38 289.802 327.551 289.817L321.098 289.824V281.93C321.098 274.119 321.145 274.019 325.514 272.684C327.941 271.941 331.458 270.251 333.326 268.927C337.175 266.202 342.203 265.569 340.672 268.004ZM436.114 268.26C435.047 270.771 436.52 274.067 438.448 273.486C439.29 273.231 439.979 271.732 439.979 270.155C439.979 266.811 437.288 265.491 436.114 268.26ZM344.195 269.409C344.195 270.351 343.264 271.445 342.126 271.841C340.437 272.426 340.321 272.111 341.494 270.127C343.18 267.277 344.195 267.008 344.195 269.409ZM417.562 270.77C417.562 272.46 416.95 273.843 416.203 273.843C414.685 273.843 414.34 269.791 415.751 268.517C417.248 267.161 417.562 267.552 417.562 270.77ZM429.789 268.825C429.789 271.114 428.113 273.811 427.057 273.22C425.671 272.445 426.989 267.697 428.59 267.697C429.249 267.697 429.789 268.204 429.789 268.825ZM438.869 271.616C438.436 272.595 438.114 272.304 438.049 270.872C437.99 269.576 438.311 268.851 438.762 269.259C439.213 269.667 439.262 270.728 438.869 271.616ZM404.247 275.318C402.315 277.067 402.081 282.003 403.883 283.012C405.782 284.074 409.21 278.947 408.422 276.222C407.629 273.477 406.542 273.242 404.247 275.318ZM405.462 280.366C403.687 281.971 403.44 280.193 404.953 276.71C405.898 274.538 405.951 274.539 406.44 276.739C406.72 277.995 406.278 279.627 405.462 280.366ZM435.197 280.037C433.431 283.023 434.653 287.366 437.262 287.366C439.593 287.366 441.116 283.233 439.979 279.99C438.875 276.842 437.076 276.86 435.197 280.037ZM411.04 281.465C408.374 283.877 408.945 290.085 411.787 289.597C413.449 289.312 414.291 287.805 414.586 284.59C415.02 279.863 413.9 278.877 411.04 281.465ZM422.428 281.908C419.726 284.354 420.082 289.21 422.964 289.21C425.614 289.21 428.114 282.9 426.163 281.134C425.15 280.217 424.044 280.447 422.428 281.908ZM438.477 284.19C437.803 285.777 437.289 285.942 436.519 284.815C435.145 282.801 436.555 279.474 438.167 280.931C438.839 281.54 438.978 283.007 438.477 284.19ZM412.255 287.742C411.179 288.716 410.768 288.396 410.768 286.588C410.768 283.337 412.668 281.613 413.274 284.313C413.53 285.459 413.071 287.003 412.255 287.742ZM425.714 284.22C425.714 286.065 423.275 288.027 422.195 287.05C421.246 286.193 423.123 282.448 424.5 282.448C425.167 282.448 425.714 283.245 425.714 284.22ZM402.888 287.612C400.595 289.687 400.792 295.971 403.15 295.971C405.341 295.971 406.692 293.353 406.692 289.109C406.692 285.848 405.4 285.339 402.888 287.612ZM404.103 293.889C403.027 294.862 402.617 294.543 402.617 292.734C402.617 289.484 404.516 287.759 405.122 290.46C405.379 291.606 404.919 293.15 404.103 293.889ZM433.913 292.202C431.978 295.473 432.152 297.862 434.45 299.588C437.329 301.75 439.752 297.207 437.975 292.978C436.387 289.199 435.761 289.079 433.913 292.202ZM421.215 294.485C418.333 297.366 418.191 302.118 420.987 302.118C423.82 302.118 426.36 296.798 424.762 294.214C423.617 292.364 423.313 292.388 421.215 294.485ZM436.583 295.602C436.583 297.885 436.145 298.526 435.179 297.652C434.408 296.953 434.167 295.46 434.645 294.332C435.905 291.365 436.583 291.81 436.583 295.602ZM409.99 294.453C406.023 296.911 407.159 303.163 411.311 301.721C412.643 301.258 413.486 299.521 413.486 297.238C413.486 293.473 412.649 292.807 409.99 294.453ZM410.896 300.035C409.82 301.009 409.41 300.689 409.41 298.881C409.41 295.631 411.309 293.906 411.915 296.607C412.172 297.752 411.713 299.296 410.896 300.035ZM423.389 298.431C422.999 299.782 422.139 300.888 421.479 300.888C420.078 300.888 419.946 299.417 421.101 296.694C422.263 293.955 424.248 295.462 423.389 298.431ZM248.41 298.495L256.562 298.594L251.067 300.152C239.225 303.508 237.373 303.496 235.641 300.055C234.147 297.091 234.244 296.939 237.153 297.643C238.861 298.057 243.927 298.441 248.41 298.495ZM357.781 297.815C357.781 298.153 358.087 298.43 358.461 298.43C358.834 298.43 359.14 298.153 359.14 297.815C359.14 297.477 358.834 297.2 358.461 297.2C358.087 297.2 357.781 297.477 357.781 297.815ZM765.375 299.362C765.375 300.779 783.286 303.008 803.815 304.145L818.362 304.95V315.054V325.158L811.908 325.901C803.618 326.857 773.73 329.008 751.109 330.277L733.446 331.269L751.109 331.409C766.429 331.531 792.518 329.898 818.459 327.195L826.03 326.405L831.137 333.367C836.395 340.535 836.505 340.576 843.836 338.083C844.771 337.764 845.534 338.335 845.534 339.349C845.534 341.355 842.763 342.685 838.582 342.685C836.312 342.685 836.148 343.057 837.446 345.252C838.942 347.781 841.029 347.861 847.446 345.632C848.833 345.151 849.61 345.544 849.61 346.725C849.61 348.723 846.842 350.061 842.706 350.061C840.993 350.061 840.1 350.917 840.1 352.558C840.1 355.746 843.429 356.911 847.611 355.186C849.93 354.23 851.132 354.224 851.773 355.163C852.921 356.844 849.862 358.624 845.783 358.648C843.434 358.662 842.808 359.212 843.319 360.818C843.695 362.001 844.756 365.341 845.677 368.239C847.95 375.388 852.665 379.836 857.44 379.338L861.159 378.951L860.891 359.281C860.652 341.724 857.409 302.618 856.094 301.428C854 299.534 840.005 299.584 835.536 301.503C829.2 304.224 792.649 302.779 769.79 298.904C767.248 298.474 765.375 298.667 765.375 299.362ZM859.553 308.572C859.997 312.121 861.035 324.43 861.861 335.924C864.437 371.765 864.872 375.585 865.99 372.189C868.062 365.894 866.751 326.67 863.822 307.342C862.543 298.903 858.491 300.07 859.553 308.572ZM834.824 308.572C839.607 318.915 837.519 323.954 828.17 324.622L821.079 325.128V314.852V304.576H827.028C832.455 304.576 833.14 304.927 834.824 308.572ZM313.625 314.069C302.437 316.547 245.707 335.423 213.143 347.502C197.423 353.333 185.232 353.699 186.603 348.299C186.709 347.882 186.493 346.864 186.122 346.035C185.751 345.207 185.399 346.308 185.341 348.482C185.073 358.332 192.49 357.606 230.069 344.102C239.409 340.746 251.943 336.244 257.921 334.097C313.037 314.314 335.562 311.245 343.653 322.419C349.462 330.44 339.005 338.721 268.45 381.965C254.172 390.716 247.947 395.687 253.277 394.079C256.182 393.202 318.943 353.698 333.922 343.317C359.034 325.914 345.859 306.928 313.625 314.069ZM302.077 337.153C302.077 337.492 302.383 337.768 302.756 337.768C303.13 337.768 303.436 337.492 303.436 337.153C303.436 336.815 303.13 336.539 302.756 336.539C302.383 336.539 302.077 336.815 302.077 337.153ZM398.541 339.612C398.541 339.95 398.846 340.227 399.22 340.227C399.594 340.227 399.899 339.95 399.899 339.612C399.899 339.274 399.594 338.997 399.22 338.997C398.846 338.997 398.541 339.274 398.541 339.612ZM295.963 343.076C290.497 345.914 263.322 362.406 251.652 369.97C248.204 372.205 240.714 377.007 235.009 380.641C228.638 384.699 224.634 388.102 224.634 389.458C224.634 391.699 220.815 393.252 211.048 394.985C185.941 399.438 182.56 409.682 200.878 425.793C207.066 431.235 212.338 437.259 214.868 441.774C222.854 456.034 254.485 467.649 261.051 458.732C261.572 458.026 263.106 457.078 264.461 456.624C270.501 454.606 266.83 448.131 257.242 443.89C245.481 438.687 236.862 426.545 236.862 415.18C236.862 411.828 243.898 409.789 246.177 412.483C248.343 415.042 283.699 394.14 285.61 389.17C286.355 387.231 284.409 388.418 265.854 401.217L249.332 412.616L241.398 404.502C228.054 390.855 226.864 389.124 229.782 387.606C231.135 386.902 236.797 383.249 242.364 379.49C257.349 369.369 278.003 356.46 292.227 348.324C299.139 344.371 304.794 340.932 304.794 340.682C304.794 339.468 300.86 340.535 295.963 343.076ZM399.935 341.456C399.932 341.794 400.831 344.762 401.933 348.05C403.036 351.339 404.281 359.139 404.701 365.384L405.463 376.736L391.421 377.558C351.101 379.917 338.563 385.745 349.97 396.824C352.099 398.891 354.098 405.412 358.015 423.069C361.757 439.935 363.89 447.007 365.576 448.137C377.63 456.217 435.623 456.581 447.365 448.651C450.242 446.707 451.37 443.381 456.01 423.145C460.19 404.914 462.048 399.118 464.588 396.386C474.286 385.959 463.678 380.626 428.086 378.038C409.194 376.665 408.057 376.437 408.328 374.077C409.092 367.472 404.554 347.361 401.246 342.685C400.528 341.671 399.939 341.118 399.935 341.456ZM405.334 382.106C405.334 385.229 409.275 398.873 409.275 398.873C407.88 398.473 404.141 399.038 404.141 399.038L387.859 399.377L369.701 397.477C369.701 397.477 357.478 394.093 353.837 392.945C339.419 388.398 352.087 382.181 380.878 379.676C404.021 377.662 405.334 377.792 405.334 382.106ZM444.404 380.901C455.394 382.417 465.663 385.891 466.168 388.265C466.807 391.263 451.806 398.551 448.976 396.386L425.2 399.485C425.2 399.485 406.699 387.162 409.275 378.497C409.474 377.828 434.565 379.545 444.404 380.901ZM682.605 387.744C682.546 389.877 683.715 397.068 685.202 403.725C689.54 423.142 689.368 424 680.12 428.984C673.523 432.538 672.388 433.66 672.822 436.19C673.716 441.394 673.695 441.637 672.307 442.07C671.56 442.303 670.363 440.782 669.648 438.69C668.934 436.597 667.539 434.885 666.549 434.885C663.836 434.885 662.851 438.503 664.492 442.437C665.295 444.363 665.465 446.211 664.869 446.545C663.194 447.482 660.796 444.222 660.46 440.55C659.889 434.312 654.589 436.822 654.902 443.183C655.229 449.836 651.803 450.49 650.464 444.031C649.797 440.813 649.015 439.843 647.511 440.365C646.384 440.756 642.806 441.682 639.557 442.422C632.093 444.122 626.514 448.956 627.066 453.245L627.472 456.398H649.89C683.581 456.398 712.059 454.676 714.471 452.492C716.788 450.396 717.312 434.275 715.105 433.041C713.404 432.089 713.34 419.072 714.993 410.217C717.469 396.962 717.833 393.088 716.609 393.088C715.923 393.088 714.845 397.098 714.215 402L713.067 410.913H700.839H688.611L686.254 398.675C683.554 384.658 682.755 382.268 682.605 387.744ZM235.223 400.748C243.504 409.714 243.461 409.564 238.318 411.491C236.131 412.311 233.285 414.038 231.994 415.327C225.997 421.325 218.337 414.9 217.367 403.059C216.861 396.884 216.997 396.589 221.077 394.969C227.448 392.441 227.616 392.51 235.223 400.748ZM387.859 399.377C387.859 399.377 446.758 398.864 463.076 393.619L465.794 392.746L463.076 395.321C452.202 405.629 372.983 406.769 352.624 396.91C346.763 394.071 349.775 393.556 359.357 395.759C364.706 396.988 377.533 398.616 387.859 399.377ZM264.035 396.161C264.035 396.499 264.341 396.776 264.714 396.776C265.088 396.776 265.393 396.499 265.393 396.161C265.393 395.823 265.088 395.546 264.714 395.546C264.341 395.546 264.035 395.823 264.035 396.161ZM454.881 421.068C449.112 448.046 449.695 446.681 442.972 448.925C424.163 455.207 376.411 454.215 367.254 447.353C364.585 445.354 353.799 402.428 355.564 400.831C355.955 400.477 359.213 400.802 362.803 401.554C386.866 406.594 430.345 406.432 452.207 401.221C455.943 400.331 459.094 399.657 459.21 399.725C459.324 399.794 457.377 409.397 454.881 421.068ZM186.646 414.97C186.564 419.258 189.727 423.801 197.514 430.582C201.397 433.963 206.725 439.771 209.352 443.49C217.482 454.992 227.709 461.995 236.183 461.864C237.836 461.839 236.976 461.2 233.984 460.232C224.278 457.094 219.716 453.562 215.148 445.65C212.659 441.339 206.369 433.906 200.835 428.738C195.404 423.667 190.002 417.859 188.831 415.83C186.871 412.436 186.697 412.367 186.646 414.97ZM712.387 422.56C712.387 432.914 709.375 435.284 697.037 434.64L689.97 434.27L689.576 424.128L689.18 413.986H700.785H712.387V422.56ZM238.619 425.973C244.29 440.205 244.193 439.802 241.943 439.802C238.737 439.802 230.165 419.227 232.493 417.12C234.143 415.627 234.978 416.833 238.619 425.973ZM233.355 428.124C235.017 432.856 237.119 437.973 238.026 439.495C239.983 442.778 234.429 443.689 231.555 440.556C230.127 438.999 226.073 424.207 226.016 420.35C225.945 415.442 230.653 420.429 233.355 428.124ZM691.328 457.072C684.603 457.582 668.427 458.414 655.383 458.921C617.857 460.38 631.314 462.312 673.836 461.571C707.956 460.976 715.105 460.178 715.105 456.97C715.105 455.659 709.661 455.683 691.328 457.072ZM240.598 462.744C241.533 463.085 243.061 463.085 243.995 462.744C244.93 462.403 244.165 462.124 242.297 462.124C240.428 462.124 239.665 462.403 240.598 462.744Z" fill="#16314F"/>
</svg>
