<svg width="576" height="400" viewBox="0 0 576 400" fill="none" xmlns="http://www.w3.org/2000/svg">
<path fill-rule="evenodd" clip-rule="evenodd" d="M302.18 155.339C297.281 157.892 295.317 159.711 296.347 160.742C297.165 161.56 304.764 157.396 307.029 154.889C309.625 152.015 308.323 152.136 302.18 155.339ZM320.346 153.718C319.063 154.548 319.216 154.747 321.139 154.761C322.447 154.769 323.518 154.3 323.518 153.718C323.518 152.392 322.396 152.392 320.346 153.718ZM303.957 160.704C301.049 162.735 295.231 166.371 291.027 168.782C280.968 174.551 281.94 175.088 292.667 169.69C297.336 167.339 301.32 165.908 301.52 166.509C302.163 168.439 310.376 161.63 310.376 159.168C310.376 156.269 310.267 156.294 303.957 160.704ZM307.658 165.499C304.459 167.851 297.474 172.139 292.137 175.029L282.431 180.281L284.057 184.199C295.938 212.853 301.015 215.617 319.476 203.487C336.444 192.336 336.945 190.622 327.384 176.487C316.768 160.791 315.226 159.932 307.658 165.499ZM287.039 164.155C283.389 166.412 279.351 170.653 280.853 170.653C282.56 170.653 291.797 164.42 291.797 163.267C291.797 161.713 290.641 161.928 287.039 164.155ZM294.378 171.241C292.407 172.822 292.42 172.841 294.705 171.733C296.013 171.098 297.084 170.357 297.084 170.087C297.084 169.277 296.535 169.511 294.378 171.241ZM290.74 173.299C290.74 173.59 290.978 173.828 291.269 173.828C291.559 173.828 291.797 173.59 291.797 173.299C291.797 173.008 291.559 172.77 291.269 172.77C290.978 172.77 290.74 173.008 290.74 173.299ZM294.615 195.772C299.699 205.756 300.38 210.146 295.693 202.714C291.94 196.763 285.449 183.639 285.477 182.058C285.518 179.725 289.452 185.63 294.615 195.772ZM258.084 197.016C255.048 198.941 269.725 203.418 279.172 203.448C287.966 203.477 290.752 198.092 282.638 196.75C276.652 195.76 259.777 195.943 258.084 197.016Z" fill="#C4C4C4"/>
<path fill-rule="evenodd" clip-rule="evenodd" d="M243.84 201.401C241.262 203.208 240.83 205.005 242.974 205.005C244.864 205.005 248.305 201.142 247.085 200.388C246.56 200.062 245.1 200.519 243.84 201.401ZM231.755 201.912C229.573 203.184 229.275 206.064 231.326 206.064C233.136 206.064 236.494 202.418 235.552 201.477C234.619 200.543 233.977 200.617 231.755 201.912ZM233.294 211.926C229.741 215.48 228.802 217.039 229.682 217.919C231.014 219.252 234.138 217.347 234.138 215.203C234.138 214.545 235.924 212.477 238.108 210.606C241.212 207.946 241.644 207.194 240.086 207.164C238.992 207.141 235.933 209.284 233.294 211.926ZM224.021 209.334C223.631 209.967 223.82 210.996 224.444 211.62C225.765 212.942 229.202 210.679 228.24 209.122C227.434 207.817 224.879 207.946 224.021 209.334ZM243.932 209.507C244.175 210.235 245.247 210.831 246.315 210.831C247.382 210.831 248.455 210.235 248.697 209.507C248.977 208.668 248.103 208.183 246.315 208.183C244.526 208.183 243.653 208.668 243.932 209.507ZM239.079 214.185C238.062 215.202 238.209 218.775 239.268 218.775C240.293 218.775 243.667 215.258 243.667 214.19C243.667 213.268 240 213.265 239.079 214.185ZM220.484 215.992C219.042 217.73 220.023 220.893 222.003 220.893C223.614 220.893 225.068 217.2 224.085 215.607C223.174 214.134 221.914 214.269 220.484 215.992ZM247.056 215.809C245.595 217.271 245.355 219.834 246.68 219.834C248.097 219.834 251.16 216.032 250.376 215.247C249.353 214.223 248.496 214.369 247.056 215.809ZM225.879 221.105C225.18 221.804 224.608 223.269 224.608 224.36C224.608 227.59 228.258 226.125 228.649 222.738C229.005 219.646 227.956 219.027 225.879 221.105ZM234.844 221.6C233.809 222.635 233.982 226.19 235.067 226.19C235.578 226.19 236.572 225.496 237.276 224.647C239.157 222.38 236.896 219.547 234.844 221.6ZM241.952 224.55C241.628 225.396 241.685 226.611 242.079 227.25C242.984 228.714 245.785 226.614 245.785 224.472C245.785 222.531 242.702 222.595 241.952 224.55ZM217.811 225.726C215.79 227.747 215.597 231.486 217.513 231.486C219.458 231.486 221.431 229.275 221.431 227.1C221.431 224.432 219.743 223.792 217.811 225.726ZM231.549 231.421C229.323 233.882 230.109 237.1 232.811 236.585C234.841 236.197 235.954 231.82 234.414 230.279C233.838 229.703 232.69 230.161 231.549 231.421ZM222.174 231.096C221.038 232.232 221.29 236.57 222.537 237.34C224.238 238.392 226.865 235.642 226.512 233.179C226.195 230.97 223.563 229.706 222.174 231.096ZM238.896 231.495C238.069 232.835 239.259 236.782 240.491 236.782C241.722 236.782 242.912 232.835 242.086 231.495C241.722 230.908 241.004 230.427 240.491 230.427C239.977 230.427 239.259 230.908 238.896 231.495ZM214.231 238.053C212.643 239.642 212.582 242.779 214.121 243.73C215.989 244.884 218.566 241.55 217.762 239.019C216.955 236.474 216.055 236.228 214.231 238.053ZM238.021 241.726C236.825 242.92 237.237 245.992 238.762 247.258C239.861 248.17 240.519 248.086 241.497 246.908C243.868 244.051 240.586 239.158 238.021 241.726ZM227.719 244.899C227.008 246.77 227.002 248.075 227.7 248.773C229.246 250.319 232.02 247.636 232.02 244.597C232.02 241.137 229.07 241.344 227.719 244.899ZM218.961 243.844C217.697 245.108 218.218 249.493 219.631 249.493C221.595 249.493 223.549 247.275 223.549 245.044C223.549 243.175 220.441 242.362 218.961 243.844ZM213.047 248.86C211.406 250.837 211.958 254.26 213.919 254.26C216.537 254.26 217.904 250.808 216.028 248.931C214.553 247.455 214.218 247.447 213.047 248.86ZM238.011 251.267C237.108 252.172 237.108 257.407 238.011 258.311C239.068 259.367 241.55 256.897 241.55 254.789C241.55 252.681 239.068 250.211 238.011 251.267ZM218.31 254.193C216.831 255.976 217.609 261.145 219.356 261.145C221.558 261.145 222.992 255.897 221.263 254.167C219.832 252.736 219.516 252.739 218.31 254.193ZM226.082 256.455C225.694 258.002 225.918 259.701 226.599 260.382C228.418 262.202 231.376 258.827 230.469 255.967C229.488 252.874 226.909 253.162 226.082 256.455Z" fill="#A5C2DF"/>
<path fill-rule="evenodd" clip-rule="evenodd" d="M398.176 44.7179C403.458 45.8068 411.802 48.2999 416.717 50.2586L425.651 53.8205V58.229C425.651 63.7359 427.003 65.3253 427.895 60.8682C430.914 45.792 478.095 99.8819 478.095 118.418C478.095 132.607 431.705 150.281 427.333 137.758C426.383 135.042 425.889 134.593 425.152 135.782C423.988 137.663 421.343 136.423 415.376 131.196L411.458 127.766L412.987 123.334C417.899 109.092 419.199 83.6375 415.6 72.1687C414.442 68.4798 413.488 64.3888 413.481 63.0798C413.465 60.2978 412.703 60.1031 410.307 62.2692C408.966 63.483 407.761 63.6089 405.016 62.8227C394.122 59.702 381.17 70.9687 378.995 85.4597C377.999 92.0904 376.563 89.8957 375.674 80.3867C375.073 73.9623 375.2 73.4131 377.868 70.9443C381.058 67.9909 382.726 60.5824 382.736 49.3232C382.744 41.466 382.605 41.5073 398.176 44.7179ZM394.397 52.7623C394.397 54.2174 394.873 55.4078 395.456 55.4078C396.039 55.4078 396.516 54.2174 396.516 52.7623C396.516 51.3073 396.039 50.1168 395.456 50.1168C394.873 50.1168 394.397 51.3073 394.397 52.7623ZM405.508 65.6682C421.998 73.5221 417.77 121.301 399.013 139.062C378.212 158.758 339.587 170.231 348.813 153.972C352.347 147.745 365.937 135.369 367.281 137.154C369.28 139.812 370.029 139.451 370.029 135.826C370.029 134.077 371.93 128.958 374.254 124.45C377.961 117.258 378.682 114.634 380.136 103.027C384.258 70.1242 391.739 59.1094 405.508 65.6682ZM429.359 76.5719C429.359 78.3179 429.836 79.7465 430.419 79.7465C431.001 79.7465 431.478 78.3179 431.478 76.5719C431.478 74.8258 431.001 73.3973 430.419 73.3973C429.836 73.3973 429.359 74.8258 429.359 76.5719ZM385.921 83.9793C385.921 85.7253 386.398 87.1539 386.98 87.1539C387.563 87.1539 388.04 85.7253 388.04 83.9793C388.04 82.2332 387.563 80.8047 386.98 80.8047C386.398 80.8047 385.921 82.2332 385.921 83.9793ZM403.932 87.683C403.932 89.72 404.409 91.3867 404.991 91.3867C405.574 91.3867 406.051 89.72 406.051 87.683C406.051 85.6459 405.574 83.9793 404.991 83.9793C404.409 83.9793 403.932 85.6459 403.932 87.683ZM453.727 91.3867C453.727 94.7793 455.201 95.6512 456.263 92.8872C457.352 90.0512 456.98 88.2121 455.316 88.2121C454.257 88.2121 453.727 89.2703 453.727 91.3867ZM441.014 91.3242C441.014 92.4544 441.49 93.6724 442.073 94.0322C442.674 94.4036 443.132 93.5137 443.132 91.9782C443.132 90.4893 442.656 89.2703 442.073 89.2703C441.49 89.2703 441.014 90.1941 441.014 91.3242ZM425.625 96.7211C424.628 98.3306 426.033 103.243 427.271 102.479C428.584 101.669 428.615 96.9973 427.313 96.1941C426.771 95.8586 426.011 96.0957 425.625 96.7211ZM406.051 106.201C406.051 107.948 406.496 109.376 407.039 109.376C408.327 109.376 409.558 105.472 408.706 104.095C407.409 102 406.051 103.079 406.051 106.201ZM385.921 108.38C385.921 110.269 386.363 111.345 386.98 110.963C387.563 110.604 388.04 109.148 388.04 107.726C388.04 106.305 387.563 105.143 386.98 105.143C386.398 105.143 385.921 106.6 385.921 108.38ZM448.43 108.255C448.43 109.386 448.907 110.604 449.489 110.963C450.09 111.335 450.549 110.445 450.549 108.909C450.549 107.421 450.072 106.201 449.489 106.201C448.907 106.201 448.43 107.125 448.43 108.255ZM436.14 108.741C435.752 109.751 435.959 111.1 436.6 111.74C437.447 112.587 437.958 112.404 438.471 111.069C438.859 110.06 438.652 108.71 438.011 108.07C437.163 107.224 436.653 107.407 436.14 108.741ZM467.231 108.582C466.634 110.357 467.532 113.609 468.621 113.609C470.113 113.609 470.846 111.57 470.146 109.367C469.392 106.992 467.902 106.591 467.231 108.582ZM432.538 121.016C432.538 124.139 433.896 125.217 435.193 123.123C436.045 121.745 434.814 117.842 433.526 117.842C432.983 117.842 432.538 119.27 432.538 121.016ZM419.824 122.012C419.824 123.142 420.261 124.335 420.793 124.664C421.955 125.381 422.888 123.141 422.204 121.281C421.446 119.225 419.824 119.724 419.824 122.012ZM400.754 125.312C400.754 127.2 401.195 128.277 401.813 127.895C402.396 127.535 402.873 126.079 402.873 124.658C402.873 123.236 402.396 122.075 401.813 122.075C401.23 122.075 400.754 123.532 400.754 125.312ZM388.04 126.836C388.04 128.291 388.517 129.482 389.099 129.482C389.682 129.482 390.159 128.291 390.159 126.836C390.159 125.381 389.682 124.191 389.099 124.191C388.517 124.191 388.04 125.381 388.04 126.836ZM460.826 126.668C460.526 127.448 460.693 128.754 461.198 129.569C462.434 131.567 464.86 129.234 463.966 126.907C463.185 124.876 461.561 124.752 460.826 126.668ZM448.43 128.361C448.43 129.491 448.907 130.709 449.489 131.069C450.09 131.441 450.549 130.551 450.549 129.015C450.549 127.526 450.072 126.307 449.489 126.307C448.907 126.307 448.43 127.231 448.43 128.361ZM437.835 134.71C437.835 135.841 438.272 137.033 438.805 137.362C439.966 138.08 440.899 135.84 440.215 133.979C439.457 131.923 437.835 132.423 437.835 134.71ZM413.467 134.244C413.467 134.535 413.229 134.773 412.937 134.773C412.646 134.773 412.408 134.535 412.408 134.244C412.408 133.953 412.646 133.715 412.937 133.715C413.229 133.715 413.467 133.953 413.467 134.244ZM409.989 139.96C381.425 171.636 379.107 173.37 371.799 168.536C364.953 164.006 365.313 163.326 378.423 156.029C391.634 148.677 390.963 148.898 391.409 151.746C391.898 154.866 393.867 153.812 393.867 150.43C393.867 146.059 407.371 134.257 410.29 136.078C412.295 137.328 412.289 137.41 409.989 139.96ZM379.564 145.884C379.564 147.339 380.041 148.53 380.624 148.53C381.206 148.53 381.683 147.339 381.683 145.884C381.683 144.429 381.206 143.239 380.624 143.239C380.041 143.239 379.564 144.429 379.564 145.884ZM361.553 152.233C361.553 153.688 362.03 154.879 362.613 154.879C363.195 154.879 363.672 153.688 363.672 152.233C363.672 150.778 363.195 149.588 362.613 149.588C362.03 149.588 361.553 150.778 361.553 152.233ZM378.505 166.519C378.505 169.642 379.863 170.72 381.16 168.626C382.011 167.248 380.78 163.344 379.493 163.344C378.95 163.344 378.505 164.773 378.505 166.519ZM314.936 214.667C314.936 214.958 314.698 215.196 314.407 215.196C314.115 215.196 313.877 214.958 313.877 214.667C313.877 214.376 314.115 214.138 314.407 214.138C314.698 214.138 314.936 214.376 314.936 214.667ZM312.817 215.725C312.817 216.016 312.579 216.254 312.288 216.254C311.996 216.254 311.758 216.016 311.758 215.725C311.758 215.434 311.996 215.196 312.288 215.196C312.579 215.196 312.817 215.434 312.817 215.725Z" fill="#ED4865"/>
<path fill-rule="evenodd" clip-rule="evenodd" d="M339.902 2.14716C309.408 17.5113 319.247 75.8164 353.083 80.2643C358.807 81.0169 362.275 83.5504 364.309 88.4626C365.009 90.1533 366.007 91.5377 366.527 91.5377C370.828 91.5377 361.08 79.2509 356.025 78.3021C348.664 76.9198 333.547 67.6276 333.547 64.4856C333.547 63.2571 334.509 63.5242 337.706 65.6411C339.994 67.1569 346.018 69.7837 351.094 71.4798C361.649 75.0054 362.635 75.6616 365.327 80.9427C366.408 83.0638 369.404 87.3919 371.983 90.5604L376.673 96.3227L375.941 105.537C375.065 116.578 374.366 117.796 359.222 134.675C353.366 141.2 347.282 148.236 345.702 150.31C342.462 154.56 334.728 155.589 329.31 152.49C325.907 150.543 321.912 150.553 319.321 152.515C317.518 153.879 317.056 153.863 315.414 152.377C310.627 148.042 285.607 159.652 278.036 169.721L276.019 172.403L281.003 182.445C287.035 194.597 288.493 193.313 267.706 194.173L250.395 194.891L250.06 197.806C249.624 201.586 250.067 201.739 274.122 206.099C284.843 208.042 293.997 210.131 294.466 210.742C294.936 211.352 296.725 213.513 298.442 215.544L301.563 219.237L306.679 217.867C312.84 216.218 332.045 204.963 337.85 199.6C342.646 195.169 343.148 192.022 339.906 186.701C335.399 179.303 345.156 161.781 352.486 164.11C353.684 164.49 356.091 164.031 357.955 163.067C359.787 162.119 361.546 161.606 361.866 161.926C362.907 162.968 359.739 165.85 354.799 168.358C347.669 171.976 345.142 175.023 347.712 176.903C349.54 178.241 349.434 178.433 346.109 179.824C338.475 183.017 338.475 186.915 346.107 189.036C356.519 191.93 363.51 189.413 370.158 180.376C372.663 176.971 377.009 172.352 379.816 170.11C385.472 165.594 404.694 145.975 411.74 137.525L416.263 132.101L422.477 138.585L428.691 145.069L427.746 157.679C427.227 164.613 425.851 175.585 424.688 182.059C417.621 221.418 417.91 256.248 425.688 302.485C426.816 309.189 428.238 318.968 428.851 324.215C429.463 329.462 430.972 340.011 432.206 347.657C434.893 364.307 434.474 366.435 427.74 370.368C423.76 372.693 422.96 373.733 422.426 377.281L421.798 381.457L420.97 378.012C419.428 371.602 415.635 374.187 415.992 381.406C416.149 384.575 415.926 385.282 415.144 384.107C414.56 383.233 414.076 381.205 414.066 379.602C414.048 376.392 412.39 375.873 409.322 378.118C407.823 379.215 407.524 380.341 408.044 382.941C408.468 385.059 408.331 386.09 407.679 385.688C407.105 385.333 406.636 384.148 406.636 383.056C406.636 378.767 392.769 380.548 388.996 385.322C381.301 395.057 389.053 398.854 418.288 399.67C455.916 400.72 457.06 400.231 456.655 383.257C455.982 354.975 455.685 359.554 460.699 320.958C461.841 312.169 463.523 300.959 464.436 296.047L466.098 287.114L485.888 286.961C496.771 286.877 510.682 286.254 516.799 285.577C522.916 284.901 531.258 284.097 535.336 283.793L542.751 283.238L546.202 288.621C549.148 293.218 550.154 294.017 553.087 294.088L556.521 294.172L553.551 295.255C549.166 296.856 550.225 299.697 555.473 300.406L559.699 300.976L556.256 301.815C550.701 303.167 552.449 307.709 558.587 307.868L561.818 307.952L558.905 309.016C551.925 311.568 559.187 327.925 567.298 327.925H570.821L571.017 321.83L571.213 315.735L571.602 321.3C573.231 344.604 575.538 314.003 574.206 286.766C572.812 258.284 572.085 257.315 553.711 259.468C550.596 259.833 545.434 260.41 542.239 260.75C529.213 262.136 486.22 256.819 476.824 252.661L472.039 250.542L472.748 246.038C473.921 238.598 477.448 227.704 485.019 208.141C495.166 181.92 496.135 177.72 496.139 159.91C496.143 143.311 496.128 143.261 486.27 128.109C482.147 121.772 481.417 119.837 481.272 114.858C480.852 100.425 449.642 61.8939 428.524 49.7385C422.925 46.5159 420.453 44.2697 417.617 39.8345C401.14 14.0577 357.891 -6.91613 339.902 2.14716ZM353.436 24.286C354.942 25.3407 355.791 27.0357 355.791 28.984C355.791 31.1603 356.7 32.6783 358.969 34.2959C364.909 38.5286 362.709 51.8638 355.665 54.322C341.468 59.2745 321.494 43.4927 335.016 38.006C342.65 34.9075 347.317 30.6759 347.317 26.8544C347.317 22.2804 349.356 21.4249 353.436 24.286ZM371.893 37.6106C378.912 39.1052 379.062 39.3575 379.064 49.6664C379.067 63.3588 377.702 65.5743 372.711 59.9826C371.27 58.3693 368.825 56.1029 367.279 54.9475C364.804 53.0988 363.6 36.4159 365.941 36.4159C366.127 36.4159 368.805 36.9534 371.893 37.6106ZM411.402 44.9407C423.515 49.2074 425.75 51.4557 425.75 51.4557L426.811 51.9859C427.393 51.9859 427.871 52.9875 427.871 52.9875C427.871 52.9875 428.077 52.396 436.806 58.9523C458.278 75.0807 475.865 98.2848 477.322 112.409L477.912 118.133L472.728 123.121C459.365 135.978 428.795 144.706 427.414 136.059C426.828 132.395 424.643 129.887 424.643 132.879C424.643 135.015 422.094 133.828 416.607 129.137L410.989 124.334L412.501 120.048C417.678 105.362 419.102 78.2619 415.211 68.4428C413.99 65.3602 412.495 65.0517 412.495 63.6503L409.153 60.9729C409.153 60.9729 408.293 60.5656 405.822 59.6031C393.508 54.8128 378.036 68.9813 378.036 85.0482C378.036 90.1798 375.942 85.733 375.254 79.1374C374.463 71.5677 375.309 67.1569 377.553 67.1569C380.055 67.1569 381.327 62.25 381.974 50.1158L382.57 38.9049L392.22 40.2437C397.527 40.9804 406.159 43.0942 411.402 44.9407ZM406.328 62.8797C417.134 69.4731 418.025 101.213 408.031 123.563C399.953 141.63 356.573 166.002 350.051 156.139L347.207 151.838L353.518 144.744C364.317 132.603 366.043 131.195 366.882 133.839C368.05 137.522 369.562 136.34 369.562 131.745C369.562 128.744 370.481 126.082 372.582 123C377.696 115.5 378.048 114.284 379.639 98.7067C382.884 66.9354 392.288 54.3125 406.328 62.8797ZM89.2776 77.4244C88.0531 77.6661 84.2398 80.2526 80.8036 83.173C77.3684 86.0923 71.7723 89.9742 68.3678 91.7996C56.2149 98.3156 53.7871 106.032 61.3163 114.205C65.3637 118.6 65.5216 119.032 64.8574 123.88C64.0376 129.869 65.7207 131.791 71.8464 131.864L75.6163 131.907L71.5212 135.527C68.7905 137.941 64.1859 140.226 57.6989 142.39C14.3391 156.845 -9.71355 218.113 4.4223 278.096C6.00166 284.798 7.30878 292.907 7.32679 296.117C7.52275 331.023 23.2284 345.66 56.02 341.496C59.2274 341.089 60.6553 341.135 59.1978 341.601C50.2513 344.455 45.4274 348.575 45.4274 353.359C45.4274 354.598 44.9836 355.337 44.4412 355.002C39.0146 351.646 43.9423 363.427 51.4175 371.681C55.2298 375.892 60.2115 382.058 62.4879 385.382C67.4833 392.684 72.2659 396.504 78.9149 398.507C84.2154 400.103 99.1023 400.533 94.1534 398.948C91.7987 398.193 91.948 398.087 95.5114 397.994C110.769 397.591 111.126 388.496 96.1819 380.899C90.8115 378.17 90.0551 377.341 87.9726 371.896C84.1794 361.977 85.0904 353.776 89.6675 356.636C92.9088 358.662 102.196 353.206 119.576 339.066C123.945 335.511 135.294 326.723 144.796 319.538C165.288 304.041 179.531 290.891 182.215 284.994C186.87 274.766 181.904 255.708 173.076 249.921L170.431 248.186L173.235 244.859C179.918 236.929 180.754 230.071 174.977 230.584C167.433 231.254 167.631 216.885 175.29 207.906C183.073 198.781 184.397 194.471 181.529 187.6C179.452 182.628 174.516 182.232 169.305 186.621L165.908 189.482L163.892 186.991C161.363 183.866 161.78 182.568 165.72 181.307C171.727 179.384 176.835 173.136 174.601 170.442C171.777 167.038 164.153 169.462 160.847 174.815L158.741 178.225L155.562 175.254C151.775 171.713 144.44 170.049 142.34 172.253C139.064 175.693 146.344 182.689 153.207 182.696C156.503 182.701 160.887 185.701 160.887 187.951C160.887 188.535 158.727 188.705 155.759 188.353C147.775 187.407 143.969 190.296 147.727 194.45C149.287 196.176 149.026 196.372 143.754 197.441C133.2 199.582 96.8111 207.232 94.5729 207.782C92.4343 208.307 92.322 207.862 91.7945 196.84C91.3337 187.208 90.5943 183.445 87.2206 173.558L83.1964 161.766L85.8986 156.597L88.5997 151.43L95.6406 150.719C107.256 149.548 116.231 142.559 119.678 132C120.377 129.86 122.666 126.613 124.764 124.786C128.816 121.257 128.889 120.824 127.97 105.848C127.863 104.099 128.133 100.905 128.571 98.7502C130.165 90.9081 126.354 86.2577 118.305 86.2217C114.471 86.2047 112.6 85.2952 105.798 80.1424C101.273 76.7142 96.701 75.9616 89.2776 77.4244ZM367.443 94.1878C367.443 94.4793 367.681 94.7178 367.973 94.7178C368.264 94.7178 368.502 94.4793 368.502 94.1878C368.502 93.8963 368.264 93.6578 367.973 93.6578C367.681 93.6578 367.443 93.8963 367.443 94.1878ZM94.7286 116.169C96.1258 120.894 99.49 122.245 109.917 122.263L118.795 122.279L118.212 126.626C116.967 135.923 106.844 146.633 97.6765 148.354C86.9801 150.362 78.4785 137.068 85.7842 129.757C88.1167 127.423 88.8359 125.943 88.2703 124.64C86.2376 119.96 86.5045 116.203 88.9916 114.459C92.5222 111.985 93.5867 112.302 94.7286 116.169ZM412.638 131.466C412.25 131.854 411.932 131.536 411.932 130.759C411.932 129.982 412.25 129.664 412.638 130.052C413.026 130.441 413.026 131.077 412.638 131.466ZM411.146 133.239C414.064 131.435 406.797 139.863 393.404 153.815C377.218 170.678 377.697 170.445 370.568 164.945C363.992 159.872 363.368 160.916 377.771 152.889L390.217 145.952L392.662 145.069C392.662 145.069 392.547 144.314 395.869 142.009C398.043 140.503 401.691 137.352 403.978 135.01C407.381 131.521 408.299 131.042 409.039 132.366C409.537 133.255 410.485 133.649 411.146 133.239ZM80.2707 137.732C80.8459 139.818 82.5895 143.194 84.1445 145.235L86.9716 148.944L83.778 155.487C82.0217 159.085 80.3004 162.905 79.954 163.973C78.5547 168.282 72.1144 158.884 68.5214 147.292L67.2397 143.154L72.3252 138.547C78.4827 132.967 78.9435 132.92 80.2707 137.732ZM64.8595 146.925C65.6709 148.237 67.4357 152.048 68.7831 155.395C71.6621 162.552 76.5845 168.92 79.2369 168.92C84.2631 168.92 87.8 178.987 88.5489 195.421C89.8518 224.013 82.3088 222.671 69.2534 191.989C54.1335 156.449 15.9852 160.557 25.2294 196.729C31.7671 222.311 60.6013 256.903 75.3875 256.903C77.3715 256.903 78.6427 257.753 79.7125 259.797L81.2273 262.691L56.1778 271.3C42.4 276.036 27.314 281.409 22.6533 283.242C10.7313 287.93 9.85737 287.799 7.83418 281.019C-5.38435 236.705 8.97077 177.997 38.5422 155.434C51.0722 145.874 62.0228 142.333 64.8595 146.925ZM310.769 154.085C308.637 157.538 297.748 163.5 297.226 161.501C296.591 159.074 297.691 158.043 303.949 155.202C309.096 152.866 311.796 152.423 310.769 154.085ZM327.327 154.784C328.649 156.387 328.557 156.429 326.326 155.238C324.301 154.158 323.42 154.225 321.294 155.619C319.846 156.568 318.717 156.819 318.717 156.19C318.717 155.094 322.317 153.22 324.678 153.086C325.335 153.05 326.527 153.814 327.327 154.784ZM314.48 155.603C314.48 158.345 294.503 171.706 285.818 174.773C278.281 177.433 279.963 175.763 289.446 171.169C294.385 168.777 301.916 164.192 306.183 160.979C314.049 155.058 314.48 154.778 314.48 155.603ZM348.172 159.01C348.819 163.561 339.007 172.1 333.129 172.1C325.506 172.1 326.583 164.637 334.694 161.264C339.96 159.074 340.991 157.905 338.578 156.866C337.85 156.552 339.637 156.393 342.55 156.513C347.082 156.698 347.893 157.059 348.172 159.01ZM326.434 158.638C326.724 159.397 326.36 161.143 325.624 162.519L324.285 165.021L322.469 162.247C321.47 160.722 320.96 158.975 321.336 158.367C322.301 156.803 325.801 156.99 326.434 158.638ZM325.188 171.04C338.201 189.228 338.38 189.581 336.257 192.824C332.764 198.159 306.316 214.502 301.174 214.502C300.326 214.502 283.761 182.739 283.761 181.113C283.761 180.832 286.891 179.181 290.717 177.445C298.783 173.786 310.69 166.08 314.399 162.121C317.999 158.28 316.199 158.708 310.95 162.942C306.719 166.356 299.607 171.09 300.709 169.759C311.212 157.08 315.355 157.297 325.188 171.04ZM293.623 163.702C294.181 165.839 282.242 173.053 280.701 171.511C279.961 170.77 290.463 162.187 292.906 161.537C292.984 161.517 293.306 162.491 293.623 163.702ZM369.48 167.425C376.965 173.726 364.743 186.97 351.484 186.925C342.387 186.893 341.968 184.46 350.495 181.193C360.756 177.262 363.47 173.46 355.206 174.594C349.287 175.406 349.783 174.094 356.727 170.573C359.49 169.171 362.374 167.273 363.137 166.353C365 164.107 365.675 164.221 369.48 167.425ZM50.1941 171.994C57.6216 175.443 61.99 181.247 67.6136 195.142C78.8821 222.984 100.021 237.02 130.96 237.203L146.052 237.292L146.054 243.773L146.057 250.254L141.026 250.969C117.319 254.332 109.801 255.048 97.3312 255.127C64.8744 255.334 51.5467 246.11 34.7363 211.809C20.1735 182.093 28.0809 161.727 50.1941 171.994ZM299.65 170.495C299.65 171.138 287.301 177.42 286.175 177.349C285.721 177.321 288.449 175.675 292.235 173.69C299.899 169.676 299.65 169.782 299.65 170.495ZM334.253 178.108C333.864 178.495 333.547 178.177 333.547 177.4C333.547 176.623 333.864 176.305 334.253 176.693C334.641 177.082 334.641 177.718 334.253 178.108ZM284.821 177.93C284.821 178.222 284.582 178.461 284.291 178.461C284 178.461 283.761 178.222 283.761 177.93C283.761 177.639 284 177.4 284.291 177.4C284.582 177.4 284.821 177.639 284.821 177.93ZM286.955 183.271C291.381 194.921 303.785 215.429 301.195 206.816C299.817 202.234 288.516 181.257 287.195 180.83C286.171 180.498 286.115 181.062 286.955 183.271ZM181.013 193.343C181.013 195.426 176.979 202.314 174.284 204.831C171.062 207.84 168.302 207.182 168.302 203.404C168.302 201.929 168.239 200.369 168.163 199.939C168.087 199.509 170.195 197.958 172.847 196.494C175.499 195.029 178.025 193.473 178.459 193.036C179.597 191.889 181.013 192.059 181.013 193.343ZM338.843 194.707C338.843 194.896 337.532 196.208 335.93 197.622L333.017 200.191L335.585 197.276C337.985 194.552 338.843 193.874 338.843 194.707ZM290.029 200.791C293.282 206.584 274.053 205.77 258.529 199.458L255.691 198.303L258.339 197.498C259.796 197.055 266.977 196.645 274.298 196.587L287.609 196.481L290.029 200.791ZM152.942 198.601C153.303 199.184 153.359 199.661 153.067 199.661C152.776 199.661 152.243 199.184 151.883 198.601C151.523 198.018 151.467 197.541 151.758 197.541C152.05 197.541 152.582 198.018 152.942 198.601ZM155.131 213.872C156.973 221.218 119.672 234.55 107.324 230.958C71.3507 220.492 80.6479 212.611 143.939 199.915L148.705 198.958L151.569 205.021C153.143 208.356 154.746 212.338 155.131 213.872ZM163.851 205.226C163.405 214.594 159.31 215.556 155.806 207.119L153.575 201.745L156.966 200.26C163.573 197.365 164.203 197.82 163.851 205.226ZM314.48 211.852C314.48 212.143 314.242 212.382 313.95 212.382C313.659 212.382 313.421 212.143 313.421 211.852C313.421 211.56 313.659 211.322 313.95 211.322C314.242 211.322 314.48 211.56 314.48 211.852ZM312.361 212.912C312.361 213.203 312.123 213.442 311.832 213.442C311.54 213.442 311.302 213.203 311.302 212.912C311.302 212.62 311.54 212.382 311.832 212.382C312.123 212.382 312.361 212.62 312.361 212.912ZM310.243 213.972C310.243 214.263 310.004 214.502 309.713 214.502C309.422 214.502 309.184 214.263 309.184 213.972C309.184 213.68 309.422 213.442 309.713 213.442C310.004 213.442 310.243 213.68 310.243 213.972ZM165.095 221.127L165.067 227.752L158.16 230.84C150.748 234.155 132.392 236.48 127.706 234.7C125.63 233.911 125.875 233.635 130.168 231.923C138.761 228.497 157.463 218.651 159.359 216.554C163.209 212.298 165.127 213.827 165.095 221.127ZM307.065 215.032C307.065 215.323 306.827 215.562 306.535 215.562C306.244 215.562 306.006 215.323 306.006 215.032C306.006 214.74 306.244 214.502 306.535 214.502C306.827 214.502 307.065 214.74 307.065 215.032ZM160.887 234.642L158.624 237.822L161.08 237.787C162.43 237.768 166.151 236.849 169.349 235.745C176.101 233.413 176.434 233.531 174.722 237.668C171.543 245.347 164.41 249.465 154.267 249.476L149.235 249.483V243.82V238.158L155.326 234.913C163.068 230.786 163.651 230.758 160.887 234.642ZM549.16 267.999C552.184 275.238 550.408 278.977 543.508 279.904L539.043 280.503V272.413V264.323H543.335C547.23 264.323 547.768 264.662 549.16 267.999ZM210.143 278.268C205.32 280.907 203.881 286.322 206.931 290.357C209.261 293.44 208.915 293.93 204.864 293.272C200.626 292.584 195.156 294.507 193.721 297.191C192.309 299.83 193.258 300.244 198.191 299.135C206.541 297.257 211.31 300.015 212.466 307.388L213.11 311.495L210.875 309.515C207.943 306.916 199.963 306.074 194.711 307.808C188.927 309.719 189.488 310.571 197.099 311.433C204.901 312.316 208.674 314.089 211.648 318.267C216.155 324.602 215.412 324.982 195.843 326.33C171.397 328.015 164.845 332.209 170.293 342.684C172.266 346.476 174.593 354.243 176.677 363.994C181.504 386.558 181.6 386.826 185.534 388.66C198.413 394.666 240.422 394.496 247.935 388.408C249.676 386.996 251.164 382.137 254.77 366.07C258.982 347.307 259.675 345.231 262.806 341.998C270.289 334.273 257.95 328.081 230.703 325.889C216.713 324.764 216.366 324.526 221.794 319.796C226.888 315.359 231.721 313.085 236.061 313.085C240.227 313.085 240.14 311.473 235.83 308.794C231.082 305.844 226.101 306.85 221 311.788L217.028 315.635V312.438C217.028 307.241 227.642 299.398 234.77 299.328C237.617 299.3 237.873 297.434 235.3 295.48C230.899 292.136 221.445 294.456 217.137 299.937L214.94 302.731L212.698 297.573C209.216 289.562 208.897 284.894 211.583 281.258C214.859 276.822 214.426 275.923 210.143 278.268ZM210.54 328.588C214.629 329.406 214.811 330.847 210.937 331.727C209.335 332.09 204.98 333.296 201.26 334.407C195.938 335.995 193.678 336.199 190.667 335.361C184.632 333.684 181.58 334.075 178.964 336.86C176.393 339.599 171.48 338.866 171.48 335.743C171.48 331.691 199.969 326.472 210.54 328.588ZM235.035 329.01C253.317 330.61 263.972 334.107 259.821 337.144C257.129 339.115 255.176 338.885 248.143 335.77C243.298 333.623 240.925 333.154 237.419 333.649C234.942 333.999 230.781 334.585 228.171 334.951C222.685 335.721 218.087 333.472 218.087 330.021C218.087 327.551 218.253 327.541 235.035 329.01ZM70.8497 337.996C70.8497 338.287 70.6113 338.526 70.32 338.526C70.0287 338.526 69.7904 338.287 69.7904 337.996C69.7904 337.704 70.0287 337.466 70.32 337.466C70.6113 337.466 70.8497 337.704 70.8497 337.996ZM68.3784 339.233C67.9897 339.621 67.3541 339.621 66.9654 339.233C66.5777 338.844 66.8954 338.526 67.6719 338.526C68.4483 338.526 68.7661 338.844 68.3784 339.233ZM64.1414 340.293C63.7526 340.681 63.1171 340.681 62.7283 340.293C62.3406 339.904 62.6584 339.586 63.4348 339.586C64.2113 339.586 64.5291 339.904 64.1414 340.293ZM80.8512 346.102C83.547 349.102 85.5787 352.084 85.3669 352.727C84.5608 355.175 76.4341 359.961 74.2563 359.269C69.0796 357.625 66.6285 344.105 71.1145 341.939C74.984 340.072 75.7149 340.384 80.8512 346.102ZM213.85 345.255C233.019 345.212 242.144 344.753 248.764 343.498C259.122 341.535 261.019 341.887 252.969 344.28C234.96 349.632 179.402 347.924 173.3 341.831C172.846 341.376 175.944 341.974 180.186 343.158C187.009 345.064 190.889 345.306 213.85 345.255ZM215.969 349.628C233.8 349.637 243.853 349.199 248.095 348.23C256.214 346.377 256.033 345.643 252.17 364.773C247.44 388.196 247.326 388.302 224.327 390.522C191.222 393.718 184.406 389.334 178.922 361.316C177.667 354.903 176.425 348.901 176.164 347.978C175.728 346.449 176.322 346.448 182.852 347.959C188.303 349.22 196.223 349.619 215.969 349.628ZM451.966 365.29L451.654 372.975L447.436 374.354C439.176 377.055 435.433 373.037 436.817 362.959L437.553 357.606H444.915H452.277L451.966 365.29ZM86.549 375.292C88.3752 378.679 88.0743 380.734 86.1549 377.991C84.0417 374.973 80.365 364.296 80.4455 361.415C80.4794 360.195 81.5864 362.297 82.9041 366.087C84.2229 369.876 85.8626 374.019 86.549 375.292ZM80.4328 372.394C84.1127 381.443 84.2462 382.429 81.6022 381.013C79.8227 380.06 77.4256 373.859 75.6259 365.557C74.4914 360.321 76.9383 363.802 80.4328 372.394ZM55.0963 369.002C56.413 370.683 56.3759 370.72 54.6959 369.402C52.9312 368.017 52.3708 367.147 53.2426 367.147C53.4619 367.147 54.2966 367.982 55.0963 369.002ZM67.6719 385.697C67.6719 385.989 67.4336 386.227 67.1423 386.227C66.851 386.227 66.6126 385.989 66.6126 385.697C66.6126 385.406 66.851 385.167 67.1423 385.167C67.4336 385.167 67.6719 385.406 67.6719 385.697ZM76.146 394.177C76.146 394.469 75.9076 394.707 75.6163 394.707C75.325 394.707 75.0867 394.469 75.0867 394.177C75.0867 393.886 75.325 393.647 75.6163 393.647C75.9076 393.647 76.146 393.886 76.146 394.177ZM78.2645 395.237C78.2645 395.529 78.0262 395.768 77.7349 395.768C77.4436 395.768 77.2052 395.529 77.2052 395.237C77.2052 394.946 77.4436 394.707 77.7349 394.707C78.0262 394.707 78.2645 394.946 78.2645 395.237Z" fill="#017260"/>
<path fill-rule="evenodd" clip-rule="evenodd" d="M349.196 21.7201C348.842 22.6423 348.553 24.2695 348.553 25.3358C348.553 27.4633 343.266 32.3713 339.048 34.1585C329.632 38.1506 330.736 45.3217 341.543 50.3569C357.573 57.827 372.328 43.9967 361.264 31.8741C359.517 29.9597 358.087 27.4676 358.087 26.3376C358.087 21.7763 350.655 17.9156 349.196 21.7201ZM367.204 35.5005C366.85 36.4227 366.561 40.1477 366.561 43.7783V50.3802L372.467 55.4832C380.015 62.0045 380.861 61.3028 380.861 48.5156C380.861 36.6189 370.545 26.787 367.204 35.5005ZM413.168 128.167C413.168 128.75 413.645 129.227 414.227 129.227C414.81 129.227 415.287 128.75 415.287 128.167C415.287 127.584 414.81 127.107 414.227 127.107C413.645 127.107 413.168 127.584 413.168 128.167ZM340.652 154.932C340.948 155.706 339.289 157.157 336.662 158.422C327.829 162.676 327.401 169.508 335.969 169.508C343.185 169.508 352.048 159.411 348.542 155.184C346.916 153.223 339.913 153 340.652 154.932ZM364.32 164.063C362.931 165.148 359.768 167.066 357.292 168.324C351.441 171.297 351.36 173.187 357.125 172.265C363.525 171.241 362.048 173.591 353.792 177.567C345.458 181.582 344.923 183.688 352.121 184.147C365.826 185.019 379.634 171.45 371.775 164.832C367.888 161.558 367.567 161.525 364.32 164.063ZM334.783 174.808C334.783 175.391 335.259 175.868 335.842 175.868C336.425 175.868 336.901 175.391 336.901 174.808C336.901 174.225 336.425 173.748 335.842 173.748C335.259 173.748 334.783 174.225 334.783 174.808ZM540.28 269.681V277.631H543.539C547.304 277.631 552.991 272.664 552.991 269.376C552.991 265.332 548.962 261.731 544.439 261.731H540.28V269.681ZM438.372 359.519C437.341 370.06 440.808 374.243 448.787 372.086C453.604 370.783 454.479 368.871 454.479 359.652V355.014H446.646H438.813L438.372 359.519Z" fill="#D89687"/>
<path fill-rule="evenodd" clip-rule="evenodd" d="M88.669 112.085C87.5388 113.333 86.9149 115.876 86.9117 119.238C86.9096 122.578 86.1479 125.7 84.7932 127.922C83.6301 129.83 82.6789 132.095 82.6789 132.955C82.6789 134.992 80.9618 134.974 80.1769 132.93C79.1632 130.286 76.7841 131.109 71.4316 135.956L66.3355 140.572L69.3406 148.233C73.1201 157.871 76.4599 162.008 79.1716 160.412C82.5401 158.428 87.2655 147.256 85.9541 144.377C84.8472 141.945 84.8694 141.935 87.4752 143.643C94.3307 148.137 106.393 143.538 114.43 133.367C122.065 123.703 120.136 120.062 106.592 118.574C99.7648 117.825 98.8549 117.43 95.9345 113.951C92.3139 109.637 91.153 109.338 88.669 112.085ZM82.6789 137.168C82.6789 137.46 82.4405 137.698 82.1492 137.698C81.8579 137.698 81.6196 137.46 81.6196 137.168C81.6196 136.877 81.8579 136.638 82.1492 136.638C82.4405 136.638 82.6789 136.877 82.6789 137.168ZM172.534 193.119C167.643 196.851 166.495 200.659 169.659 202.655C172.274 204.306 174.536 202.882 178.016 197.394C183.431 188.851 180.808 186.806 172.534 193.119ZM152.061 195.98C152.421 196.562 152.953 197.039 153.245 197.039C153.536 197.039 153.48 196.562 153.12 195.98C152.76 195.397 152.227 194.92 151.936 194.92C151.644 194.92 151.7 195.397 152.061 195.98ZM155.503 197.124C153.082 198.534 153.165 201 155.777 205.288C159.693 211.709 164.242 210.346 164.242 202.752C164.242 196.215 160.832 194.019 155.503 197.124ZM154.444 231.548L149.412 234.168V240.505V246.843L153.914 246.837C163.585 246.824 171.948 242.159 174.846 235.158C176.684 230.721 175.801 230.333 168.497 232.363C160.258 234.655 159.661 234.632 161.027 232.078C163.245 227.932 161.637 227.802 154.444 231.548ZM69.9677 335.325C69.9677 335.617 70.2061 335.855 70.4974 335.855C70.7886 335.855 71.027 335.617 71.027 335.325C71.027 335.034 70.7886 334.795 70.4974 334.795C70.2061 334.795 69.9677 335.034 69.9677 335.325ZM67.1427 336.562C67.5314 336.95 68.167 336.95 68.5557 336.562C68.9434 336.173 68.6256 335.855 67.8492 335.855C67.0728 335.855 66.755 336.173 67.1427 336.562ZM62.9056 337.621C63.2944 338.009 63.9299 338.009 64.3187 337.621C64.7064 337.233 64.3886 336.915 63.6122 336.915C62.8357 336.915 62.5179 337.233 62.9056 337.621ZM70.7399 339.174C66.0146 341.819 69.7188 355.989 75.1348 355.989C78.9217 355.989 85.2306 351.812 85.6342 349.038C86.2676 344.693 74.638 336.991 70.7399 339.174ZM80.5709 360.959C80.5826 364.305 84.9531 374.379 86.9202 375.596C88.3682 376.49 88.0514 375.107 84.5453 365.228C82.0666 358.242 80.5561 356.62 80.5709 360.959ZM75.4992 364.039C76.2333 369.488 80.4036 378.242 82.2658 378.242C84.4447 378.242 84.0845 376.032 80.661 368.398C76.8582 359.92 74.6984 358.096 75.4992 364.039ZM53.0195 364.866C53.0195 365.086 53.7451 365.869 54.6328 366.605C55.9812 367.725 56.1369 367.66 55.5787 366.205C55.0088 364.72 53.0195 363.679 53.0195 364.866ZM66.7899 383.01C66.7899 383.301 67.0283 383.54 67.3196 383.54C67.6109 383.54 67.8492 383.301 67.8492 383.01C67.8492 382.719 67.6109 382.48 67.3196 382.48C67.0283 382.48 66.7899 382.719 66.7899 383.01ZM75.264 391.487C75.264 391.779 75.5024 392.017 75.7937 392.017C76.085 392.017 76.3233 391.779 76.3233 391.487C76.3233 391.196 76.085 390.957 75.7937 390.957C75.5024 390.957 75.264 391.196 75.264 391.487ZM77.3826 392.547C77.3826 392.838 77.6209 393.077 77.9122 393.077C78.2035 393.077 78.4418 392.838 78.4418 392.547C78.4418 392.256 78.2035 392.017 77.9122 392.017C77.6209 392.017 77.3826 392.256 77.3826 392.547Z" fill="#B16C5C"/>
<path fill-rule="evenodd" clip-rule="evenodd" d="M67.672 145.034C68.4834 146.347 70.2482 150.157 71.5956 153.505C74.4746 160.661 79.397 167.03 82.0494 167.03C87.0756 167.03 90.6125 177.097 91.3614 193.531C92.6643 222.123 85.1213 220.781 72.0659 190.098C56.946 154.559 18.7977 158.666 28.0419 194.839C34.5796 220.421 63.4138 255.013 78.2001 255.013C80.184 255.013 81.4552 255.863 82.525 257.907L84.0398 260.801L58.9903 269.41C45.2125 274.145 30.1265 279.519 25.4658 281.351C13.5438 286.04 12.6699 285.908 10.6467 279.128C-2.57185 234.815 11.7833 176.107 41.3547 153.544C53.8847 143.984 64.8353 140.443 67.672 145.034ZM53.0066 170.104C60.4341 173.552 64.8025 179.357 70.4261 193.252C81.6945 221.094 102.833 235.13 133.772 235.313L148.864 235.402L148.867 241.883L148.87 248.364L143.838 249.079C120.132 252.442 112.613 253.158 100.144 253.237C67.6869 253.444 54.3592 244.219 37.5488 209.919C22.986 180.203 30.8934 159.837 53.0066 170.104ZM157.943 211.982C159.785 219.328 122.485 232.66 110.137 229.067C74.1632 218.602 83.4604 210.72 146.751 198.024L151.518 197.068L154.381 203.13C155.955 206.465 157.559 210.448 157.943 211.982Z" fill="#A5C2DF"/>
<path fill-rule="evenodd" clip-rule="evenodd" d="M176.421 341.477C185.849 346.965 236.119 348.542 252.16 343.854C260.54 341.405 259.301 341.132 248.123 342.964C227.401 346.362 190.21 345.153 175.898 340.618C174.499 340.174 174.672 340.459 176.421 341.477ZM177.935 347.563C178.249 348.935 179.642 355.536 181.029 362.234C186.394 388.134 193.071 392.346 224.089 389.402C248.388 387.096 248.26 387.208 252.974 363.962C256.805 345.079 256.947 345.667 248.933 347.362C233.659 350.59 189.108 349.587 179.243 345.793C177.681 345.192 177.459 345.492 177.935 347.563Z" fill="#16314F"/>
<path fill-rule="evenodd" clip-rule="evenodd" d="M192.205 332.066C180.43 333.561 173.887 335.79 173.887 338.308C173.887 339.48 173.416 340.147 172.84 339.79C170.997 338.648 171.721 341.292 173.832 343.407C183.256 352.855 259.72 351.923 259.72 342.361C259.72 341.305 260.214 340.132 260.818 339.759C266.062 336.509 242.437 330.871 223.576 330.871C219.176 330.871 218.781 331.079 219.085 333.223C219.644 337.149 224.534 338.769 231.481 337.331C241.219 335.315 259.856 339.713 252.916 342.39C237.411 348.371 177.027 348.64 177.027 342.729C177.027 339.476 183.21 337.05 189.808 337.714C196.818 338.42 214.71 334.977 214.71 332.924C214.71 330.715 205.592 330.367 192.205 332.066ZM258.673 340.778C258.673 341.033 258.129 341.577 257.464 341.989C256.716 342.454 256.54 342.277 257.003 341.527C257.749 340.317 258.673 339.903 258.673 340.778Z" fill="#F3E7E2"/>
<path fill-rule="evenodd" clip-rule="evenodd" d="M341.652 1.45791C326.427 7.07591 317.749 23.8779 321.607 40.2696C327.11 63.6556 338.157 77.3125 352.766 78.7928L357.797 79.3018L352.495 77.901C342.876 75.3592 337.277 71.1388 333.437 63.5368L331.635 59.9665L335.172 62.6196C340.123 66.3331 346.284 69.2216 352.495 70.7412C360.738 72.757 363.929 75.2797 367.2 82.3653C368.953 86.1625 371.607 89.8252 373.839 91.5271L377.556 94.3626L376.82 104.063C376.416 109.398 375.637 114.627 375.089 115.681C373.646 118.458 356.33 138.306 349.968 144.475C346.984 147.37 344.542 150.535 344.542 151.51C344.542 154.767 331.714 155.361 327.567 152.294L324.252 149.844L320.048 152.147C315.914 154.411 315.821 154.415 314.561 152.399C311.565 147.601 288.849 158.047 278.842 168.824L276.235 171.632L281.228 181.681C283.973 187.209 286.22 192.141 286.22 192.641C286.22 193.143 278.108 193.899 268.193 194.323C254.362 194.915 250.166 195.42 250.166 196.493C250.166 199.365 251.519 201.247 253.585 201.247C254.758 201.247 264.655 202.963 275.579 205.061L295.441 208.875L297.709 213.544C300.831 219.969 307.836 218.175 326.325 206.213C341.801 196.203 343.831 193.411 339.639 187.914C335.29 182.211 334.937 175.383 338.837 172.363C340.517 171.062 344.074 167.975 346.743 165.503C350.433 162.083 351.892 161.302 352.83 162.241C353.768 163.179 354.992 163.033 357.941 161.626C367.287 157.17 364.628 163.588 355.146 168.374C345.941 173.021 344.425 176.125 350.904 177.061C353.008 177.365 352.242 177.894 347.193 179.625C335.887 183.501 341.339 189.239 355.412 188.274C362.35 187.799 365.543 185.441 371.206 176.618C373.057 173.732 375.254 171.555 376.315 171.555C378.292 171.555 399.59 150.219 409.129 138.683C426.076 118.184 435.187 149.978 426.769 200.251C420.27 239.076 419.466 293.501 425.393 293.501C425.959 293.501 426.162 292.428 425.844 291.115C425.524 289.803 424.679 280.078 423.964 269.504C422.222 243.764 422.759 237.947 432.083 181.366C433.156 174.852 432.558 155.112 431.103 149.008L429.645 142.897L432.426 142.36C466.539 135.787 484.159 122.784 478.677 108.232C470.216 85.767 444.95 57.4735 424.795 47.8917C421.982 46.5535 419.297 43.7859 415.994 38.8168C399.518 14.0353 360.589 -5.52799 341.652 1.45791ZM352.949 22.5301C356.342 24.284 357.611 26.7039 356.68 29.6391C356.195 31.1692 356.783 31.8945 359.193 32.7344C366.27 35.2019 364.36 50.6922 356.519 54.4132C349.518 57.7354 336.522 53.3697 329.162 45.2237C324.704 40.2886 324.771 40.1635 333.518 36.9781C342.41 33.7396 348.116 28.9975 346.578 26.1228C344.111 21.5132 347.398 19.6596 352.949 22.5301ZM372.796 36.5105L379.749 38.2569L379.366 50.5607C378.87 66.4858 378.461 67.0563 372.26 60.4776C369.554 57.6071 366.198 54.4916 364.802 53.5532C362.463 51.9806 362.369 51.5914 363.611 48.5926C364.477 46.5005 364.709 43.4518 364.258 40.0511C363.451 33.9718 363.165 34.0906 372.796 36.5105ZM402.526 40.6386C441.221 50.1016 489.862 103.591 475.272 120.637C467.376 129.861 448.442 138.745 433.376 140.294L427.783 140.87L418.986 132.366L410.189 123.864L412.28 116.694C417.57 98.5544 418.272 72.8365 413.647 66.5886C412.288 64.752 411.438 62.5666 411.758 61.7331C412.078 60.8986 411.908 59.1415 411.381 57.8287C410.47 55.5648 410.418 55.5976 410.353 58.4713C410.299 60.9272 409.936 61.3577 408.431 60.7427C393.169 54.5022 383.101 61.9579 378.557 82.8636L376.681 91.4953L375.457 85.8762C373.326 76.093 373.795 65.5993 376.335 66.2642C379.52 67.0966 380.595 62.8391 380.595 49.3869V37.6377L387.945 38.2537C391.987 38.5931 398.549 39.6662 402.526 40.6386ZM393.32 48.5492C393.32 50.4833 393.76 51.584 394.381 51.2001C394.964 50.8396 395.441 49.6467 395.441 48.5492C395.441 47.4516 394.964 46.2587 394.381 45.8982C393.76 45.5143 393.32 46.615 393.32 48.5492ZM425.148 55.2392C425.139 57.6654 425.555 59.0163 426.193 58.6229C427.533 57.7948 427.533 54.8649 426.193 52.7907C425.429 51.6105 425.161 52.2404 425.148 55.2392ZM408.509 62.8401C419.648 70.1378 417.139 112.956 404.504 131.188C400.284 137.278 355.7 163.98 353.471 161.752C353.199 161.479 351.351 158.971 349.365 156.176L345.753 151.097L356.566 139.322C377.716 116.293 377.043 117.572 378.451 97.741C380.764 65.1518 392.046 52.0527 408.509 62.8401ZM428.313 71.8153C428.313 73.5311 428.791 75.2288 429.374 75.5893C430.005 75.9795 430.434 74.7166 430.434 72.4707C430.434 70.3955 429.957 68.6967 429.374 68.6967C428.791 68.6967 428.313 70.0996 428.313 71.8153ZM108.587 76.848C111.848 80.2063 113.287 80.8648 118.773 81.5116C122.534 81.9549 126.03 83.0492 127.267 84.1701C128.945 85.6875 129.244 85.7394 128.738 84.4214C127.849 82.1055 123.55 80.3611 118.728 80.3611C115.605 80.3611 113.584 79.482 110.194 76.6497C104.446 71.8482 103.808 71.9267 108.587 76.848ZM89.0866 77.7175C86.2839 78.5913 82.4665 81.0843 79.543 83.9484C76.8634 86.574 72.5232 89.647 69.8987 90.7763C56.2778 96.6393 52.8093 106.867 62.0517 113.916C65.8946 116.847 66.3198 118.929 64.1216 124.056C62.7632 127.222 68.2307 131.637 72.6271 130.923C82.2088 129.368 69.1702 138.732 55.7583 143.038C12.1388 157.044 -12.4296 227.79 6.40413 285.159C8.05305 290.182 8.36056 293.086 7.83036 298.629C6.04147 317.329 14.4791 333.67 28.4837 338.629C34.6606 340.816 50.8476 341.913 53.5749 340.329C55.1369 339.422 53.2971 339.156 45.2847 339.13C20.9793 339.055 10.6574 328.982 9.6691 304.375C9.03286 288.553 15.7802 284.681 75.7309 266.455C151.822 243.323 204.309 255.425 175.784 289.525C173.467 292.296 172.195 294.562 172.959 294.562C177.544 294.562 183.832 281.402 183.018 273.512C181.783 261.554 174.38 255.754 155.261 251.773C154.094 251.53 155.609 251.276 158.625 251.208C162.937 251.112 164.867 250.461 167.639 248.169C177.078 240.366 181.84 228.089 174.317 230.949C172.8 231.526 171.184 231.998 170.725 231.998C170.264 231.998 169.57 227.46 169.181 221.912L168.471 211.825L172.39 208.392C180.44 201.341 185.721 188.367 180.445 188.606C179.337 188.655 179.123 188.905 179.915 189.224C183.346 190.609 179.646 199.389 172.867 205.949C167.84 210.813 167.955 210.859 167.031 203.621C166.356 198.333 166.46 197.988 169.008 197.02C172.665 195.629 172.411 194.476 168.614 195.235C165.832 195.792 165.559 195.599 165.817 193.247C165.975 191.814 165.705 190.643 165.218 190.643C164.731 190.643 163.307 188.257 162.053 185.341C160.798 182.424 159.353 180.039 158.842 180.039C157.575 180.039 157.667 180.727 159.381 184.068C161.287 187.777 163.878 198.06 164.808 205.601L165.54 211.544L162.124 212.228C160.245 212.603 158.349 212.911 157.91 212.911C157.096 212.911 152.61 203.233 152.61 201.477C152.61 200.945 153.683 199.987 154.996 199.347C157.113 198.315 156.993 198.252 153.935 198.787C151.732 199.173 150.489 198.96 150.489 198.198C150.489 196.053 115.474 201.961 97.8359 207.083C89.7546 209.429 89.8479 209.488 90.6337 202.55C91.6177 193.852 89.4015 181.199 85.1599 171.288C81.1855 162.003 81.2152 160.959 85.6572 153.776C88.3729 149.386 88.5839 149.271 92.8054 149.897C103.421 151.47 119.578 137.574 119.714 126.754C119.728 125.666 120.546 124.898 121.694 124.898C126.822 124.898 129.705 115.659 126.77 108.633C125.261 105.021 125.258 104.248 126.74 100.543C130.207 91.8802 126.485 86.7511 116.108 85.8911C111.371 85.4977 109.947 84.9145 108.559 82.7947C104.952 77.2923 97.0565 75.233 89.0866 77.7175ZM74.083 80.991C72.0735 83.0874 67.3272 86.3078 63.5363 88.1487C50.3905 94.5312 47.484 106.524 57.4369 113.319C60.8365 115.641 60.828 115.617 56.9088 111.682C49.3757 104.119 52.4116 95.1091 64.4461 89.3034C68.6188 87.2908 72.5931 84.3609 74.873 81.6156C79.3945 76.1725 79.0011 75.8618 74.083 80.991ZM384.837 80.3611C384.837 82.1108 385.314 83.5423 385.897 83.5423C386.481 83.5423 386.958 82.1108 386.958 80.3611C386.958 78.6115 386.481 77.1799 385.897 77.1799C385.314 77.1799 384.837 78.6115 384.837 80.3611ZM358.415 79.6008C358.659 79.7662 359.812 80.6008 360.978 81.4565C362.94 82.8955 362.99 82.8732 361.644 81.1564C360.843 80.1352 359.69 79.3007 359.081 79.3007C358.472 79.3007 358.172 79.4354 358.415 79.6008ZM402.864 83.5423C402.864 85.292 403.341 86.7235 403.924 86.7235C404.507 86.7235 404.985 85.292 404.985 83.5423C404.985 81.7926 404.507 80.3611 403.924 80.3611C403.341 80.3611 402.864 81.7926 402.864 83.5423ZM363.629 85.1329C363.629 85.4245 363.868 85.6631 364.159 85.6631C364.451 85.6631 364.689 85.4245 364.689 85.1329C364.689 84.8413 364.451 84.6027 364.159 84.6027C363.868 84.6027 363.629 84.8413 363.629 85.1329ZM453.059 86.2643C452.708 87.1784 452.961 88.4668 453.622 89.1274C454.517 90.0224 454.823 89.5982 454.823 87.4658C454.823 84.275 454.029 83.7353 453.059 86.2643ZM440.334 87.3247C439.983 88.2388 440.236 89.5272 440.897 90.1878C441.792 91.0828 442.099 90.6586 442.099 88.5262C442.099 85.3354 441.304 84.7957 440.334 87.3247ZM425.148 95.5344C425.139 97.9606 425.555 99.3115 426.193 98.9181C427.533 98.0899 427.533 95.16 426.193 93.0859C425.429 91.9057 425.161 92.5356 425.148 95.5344ZM405.341 101.11C404.99 102.024 405.243 103.312 405.904 103.973C406.799 104.868 407.105 104.444 407.105 102.311C407.105 99.1206 406.311 98.5809 405.341 101.11ZM384.837 104.22C384.837 105.678 385.314 106.871 385.897 106.871C386.481 106.871 386.958 105.678 386.958 104.22C386.958 102.762 386.481 101.569 385.897 101.569C385.314 101.569 384.837 102.762 384.837 104.22ZM448.009 104.397C447.636 105.37 447.824 106.658 448.426 107.26C449.18 108.014 449.521 107.462 449.521 105.493C449.521 102.221 448.992 101.837 448.009 104.397ZM435.801 106.871C435.801 109.899 436 110.241 436.881 108.727C437.615 107.466 437.615 106.276 436.881 105.015C436 103.501 435.801 103.844 435.801 106.871ZM467.129 105.372C466.775 106.296 466.948 107.848 467.514 108.818C468.334 110.222 468.55 109.877 468.577 107.136C468.612 103.362 468.127 102.772 467.129 105.372ZM94.2878 114.653C94.2878 120.146 104.049 123.193 114.17 120.86L118.677 119.822L118.666 123.685C118.63 137.152 102.552 151.829 91.7429 148.262C84.74 145.951 76.1646 130.2 81.9087 130.2C85.2903 130.2 88.4259 125.088 86.4091 122.86C82.8779 118.957 86.8799 111.113 92.4035 111.113C93.8329 111.113 94.2878 111.967 94.2878 114.653ZM432.136 115.976C431.782 116.9 431.955 118.452 432.521 119.422C433.341 120.826 433.557 120.481 433.584 117.74C433.619 113.966 433.134 113.376 432.136 115.976ZM419.846 118.801C419.858 121.144 420.156 121.785 420.777 120.804C421.611 119.488 421.201 115.354 420.236 115.354C420.014 115.354 419.838 116.906 419.846 118.801ZM399.683 121.186C399.683 122.645 400.16 123.837 400.743 123.837C401.326 123.837 401.803 122.645 401.803 121.186C401.803 119.728 401.326 118.535 400.743 118.535C400.16 118.535 399.683 119.728 399.683 121.186ZM387.539 120.921C387.095 121.943 387.095 123.612 387.539 124.633C388.555 126.968 389.539 124.052 388.79 120.921C388.367 119.154 388.308 119.154 387.539 120.921ZM460.767 122.338C460.413 123.263 460.586 124.814 461.152 125.784C461.971 127.188 462.188 126.844 462.214 124.103C462.249 120.329 461.765 119.738 460.767 122.338ZM447.936 123.829C447.579 124.408 447.774 125.72 448.371 126.745C449.303 128.344 449.462 128.195 449.489 125.693C449.522 122.643 449.033 122.055 447.936 123.829ZM412.393 127.854L414.734 129.749L410.165 135.542C407.653 138.728 399.195 147.884 391.37 155.89L377.143 170.446L374.362 168.391C372.833 167.262 369.709 164.727 367.422 162.759L363.261 159.183L371.664 154.626C396.092 141.379 404.554 135.3 407.091 129.175C408.639 125.437 409.226 125.29 412.393 127.854ZM409.242 129.935C409.234 131.831 409.41 133.381 409.632 133.381C410.597 133.381 411.007 129.248 410.173 127.932C409.552 126.951 409.254 127.591 409.242 129.935ZM366.81 131.79C366.81 133.248 367.287 134.441 367.871 134.441C368.454 134.441 368.931 133.248 368.931 131.79C368.931 130.332 368.454 129.139 367.871 129.139C367.287 129.139 366.81 130.332 366.81 131.79ZM437.205 130.665C436.882 131.505 437.122 133.055 437.736 134.112C438.685 135.744 438.858 135.515 438.886 132.586C438.919 128.951 438.185 128.111 437.205 130.665ZM424.713 131.882C424.359 132.806 424.532 134.358 425.098 135.328C425.918 136.732 426.134 136.387 426.161 133.646C426.196 129.872 425.711 129.282 424.713 131.882ZM79.9449 135.2C80.9183 140.388 83.1303 144.537 85.9902 146.541C88.1153 148.029 88.1704 148.323 86.6508 150.052C84.4919 152.505 80.9979 159.614 80.0849 163.407C78.4985 170.002 72.2634 162.314 67.2615 147.597L65.2032 141.542L67.815 139.847C69.2518 138.915 72.0979 136.615 74.1392 134.735C78.8293 130.417 79.051 130.435 79.9449 135.2ZM490.233 138.153C490.587 139.028 491.139 140.388 491.46 141.176C491.85 142.135 489.903 143.627 485.581 145.683C479.746 148.459 479.179 149.013 479.732 151.408C480.069 152.866 480.935 157.772 481.655 162.312C482.375 166.851 483.313 170.549 483.739 170.53C492.091 170.154 492.998 170.447 492.998 173.538C492.998 178.098 487.102 197.053 482.797 206.331C477.344 218.084 472.186 234.075 469.72 246.873C466.475 263.706 460.089 305.484 460.672 306.066C461.661 307.054 462.056 305.616 463.698 295.092C472.16 240.828 474.151 231.74 481.354 214.502C493.318 185.873 496.841 171.578 495.857 155.649C495.288 146.452 492.598 136.562 490.664 136.562C490.073 136.562 489.879 137.278 490.233 138.153ZM378.971 140.911C378.582 142.136 378.788 143.663 379.43 144.304C380.277 145.151 380.595 144.543 380.595 142.076C380.595 138.159 379.984 137.72 378.971 140.911ZM66.6804 149.519C71.5614 163.112 76.7573 169.982 80.0742 167.229C86.2596 162.097 91.9274 198.451 87.2383 213.176C84.3063 222.383 74.2972 210.067 66.2785 187.383C59.3191 167.698 34.8302 160.979 25.8561 176.293C14.7007 195.328 51.8475 255.327 74.7871 255.327C77.1348 255.327 82.4389 261.166 81.2089 262.398C80.8865 262.719 71.6483 265.984 60.6806 269.651C49.7119 273.318 33.8907 278.992 25.5231 282.259C7.1655 289.426 8.83668 289.393 6.80178 282.632C-8.40221 232.13 11.0975 165.077 45.8859 148.241C61.864 140.508 63.4801 140.608 66.6804 149.519ZM494.074 152.532C495.894 165.278 494.94 168.374 489.193 168.374C484.821 168.374 484.508 168.183 484.413 165.458C484.356 163.855 483.759 159.918 483.087 156.71L481.863 150.878L487.165 147.619C493.567 143.684 492.726 143.086 494.074 152.532ZM360.448 148.757C360.448 150.215 360.925 151.408 361.508 151.408C362.091 151.408 362.569 150.215 362.569 148.757C362.569 147.299 362.091 146.106 361.508 146.106C360.925 146.106 360.448 147.299 360.448 148.757ZM390.674 147.158C390.317 147.737 390.512 149.048 391.109 150.074C392.041 151.673 392.2 151.523 392.228 149.022C392.261 145.972 391.771 145.384 390.674 147.158ZM311.67 152.452C311.67 155.61 284.133 172.616 279.021 172.616C274.41 172.616 291.569 159.553 303.438 154.027C309.45 151.228 311.67 150.803 311.67 152.452ZM329.696 155.5C329.696 157.304 328.321 157.607 326.844 156.129C324.858 154.144 321.828 154.161 320.162 156.168C319.441 157.036 318.406 157.471 317.86 157.134C316.577 156.341 318.89 153.54 321.706 152.478C323.901 151.65 329.696 153.841 329.696 155.5ZM318.636 160.47C321.361 164.287 323.813 167.189 324.086 166.916C324.358 166.644 323.521 164.985 322.224 163.232C319.742 159.875 319.985 157.114 322.862 156.011C325.651 154.94 328.199 158.289 326.799 161.185C323.874 167.241 324.201 168.384 331.986 179.287L339.485 189.791L334.326 195.253L329.166 200.716L334.608 195.578C338.069 192.308 340.317 190.873 340.786 191.631C342.847 194.967 308.599 217.153 301.387 217.153C299.343 217.153 299.709 215.265 301.861 214.702C303.261 214.336 303.131 214.187 301.336 214.094C299.202 213.984 291.175 199.768 279.025 174.588C278.846 174.215 280.968 173.135 283.743 172.191C290.032 170.048 301.008 163.578 307.969 157.912C310.878 155.542 313.356 153.587 313.471 153.567C313.588 153.546 315.912 156.653 318.636 160.47ZM348.799 157.271C351.214 161.782 337.48 174.557 332.31 172.606C324.838 169.788 324.762 162.671 332.182 160.515C338.041 158.812 342.085 155.955 336.738 157.297C335.264 157.667 333.435 157.567 332.673 157.075C331.211 156.13 336.367 155.025 343.567 154.74C346.627 154.619 347.644 155.111 348.799 157.271ZM458.004 157.599C458.004 173.389 452.104 212.264 446.901 230.754C440.476 253.588 438.575 342.28 444.51 342.28C445.178 342.28 445.324 339.63 444.906 335.122C441.874 302.43 443.212 250.749 447.454 236.77C454.93 212.124 463.092 155.649 459.177 155.649C458.533 155.649 458.004 156.527 458.004 157.599ZM331.287 158.831C331.647 159.414 331.198 159.891 330.289 159.891C329.38 159.891 328.636 159.414 328.636 158.831C328.636 158.247 329.084 157.77 329.634 157.77C330.183 157.77 330.926 158.247 331.287 158.831ZM294.32 160.627C293.126 161.821 293.594 163.072 295.233 163.072C296.108 163.072 296.824 162.624 296.824 162.074C296.824 160.737 295.168 159.78 294.32 160.627ZM377.822 161.417C377.5 162.257 377.74 163.807 378.354 164.863C379.303 166.495 379.476 166.266 379.503 163.337C379.537 159.702 378.802 158.862 377.822 161.417ZM370.215 166.639L374.149 170.117L370.592 175.4C362.852 186.893 350.28 191.423 342.967 185.353C340.465 183.277 340.934 182.828 347.868 180.665C351.438 179.553 355.609 177.483 357.138 176.066C359.177 174.176 359.399 173.656 357.97 174.115C347.431 177.499 344.788 175.226 353.82 170.549C357.174 168.812 361.111 166.43 362.569 165.256C365.898 162.573 365.542 162.508 370.215 166.639ZM54.1995 173.219C59.9415 177.255 63.4504 182.62 67.1978 193.093C77.5717 222.089 99.3809 236.24 133.692 236.24H147.308V243.023V249.808L140.68 250.932C70.256 262.876 48.0173 252.418 26.4881 197.231C18.4259 176.562 36.5767 160.834 54.1995 173.219ZM330.757 174.206C330.757 174.498 330.518 174.737 330.226 174.737C329.935 174.737 329.696 174.498 329.696 174.206C329.696 173.915 329.935 173.676 330.226 173.676C330.518 173.676 330.757 173.915 330.757 174.206ZM334.998 177.45C334.998 178.989 334.539 179.881 333.938 179.508C333.355 179.148 332.877 177.927 332.877 176.795C332.877 175.662 333.355 174.737 333.938 174.737C334.521 174.737 334.998 175.958 334.998 177.45ZM293.169 194.997C296.999 202.641 300.368 208.66 300.654 208.373C301.354 207.675 288.076 181.099 287.027 181.099C286.575 181.099 289.339 187.353 293.169 194.997ZM290.771 200.74C292.35 203.96 293.643 206.743 293.643 206.923C293.643 208.352 252.771 199.253 252.482 197.759C252.133 195.953 253.348 195.835 279.902 195.105L287.899 194.884L290.771 200.74ZM151.093 202.042C152.024 204.229 153.693 208.283 154.803 211.052L156.817 216.086L148.388 220.323C117.874 235.666 115.29 236.079 99.0596 228.2C87.1524 222.42 86.1949 221.291 88.0697 215.255C88.9593 212.391 90.2742 210.239 91.1586 210.203C92.0048 210.168 93.413 209.828 94.2878 209.449C98.5167 207.615 141.828 198.432 147.559 198.154C148.721 198.098 150.024 199.532 151.093 202.042ZM241.948 200.888C241.22 201.183 240.623 202.099 240.623 202.925C240.623 205.193 244.63 204.727 245.925 202.307C247.09 200.129 245.361 199.512 241.948 200.888ZM326.379 202.042C325.061 203.724 325.098 203.761 326.78 202.443C327.8 201.642 328.636 200.806 328.636 200.587C328.636 199.714 327.765 200.275 326.379 202.042ZM229.666 201.954C228.031 203.588 229.046 205.623 231.334 205.297C234.336 204.869 235.284 201.247 232.394 201.247C231.282 201.247 230.054 201.565 229.666 201.954ZM244.334 202.307C243.974 202.89 243.202 203.367 242.618 203.367C242.035 203.367 241.853 202.89 242.213 202.307C242.574 201.724 243.346 201.247 243.929 201.247C244.512 201.247 244.695 201.724 244.334 202.307ZM232.67 203.367C232.309 203.951 231.537 204.428 230.954 204.428C230.371 204.428 230.189 203.951 230.549 203.367C230.91 202.784 231.682 202.307 232.265 202.307C232.848 202.307 233.03 202.784 232.67 203.367ZM322.703 204.592C322.233 205.35 322.411 205.528 323.17 205.059C323.843 204.643 324.394 204.093 324.394 203.835C324.394 202.951 323.458 203.369 322.703 204.592ZM318.5 207.137C316.523 208.721 316.536 208.74 318.827 207.63C320.14 206.994 321.213 206.252 321.213 205.981C321.213 205.17 320.663 205.404 318.5 207.137ZM224.262 208.214C222.324 210.154 222.151 211.45 223.703 212.409C225.253 213.368 227.898 210.928 227.898 208.54C227.898 206.112 226.491 205.987 224.262 208.214ZM235.533 207.821C233.848 209.506 233.909 211.851 235.639 211.851C236.397 211.851 237.59 211.278 238.29 210.578C239.975 208.893 239.913 206.549 238.184 206.549C237.426 206.549 236.233 207.121 235.533 207.821ZM243.767 208.184C241.692 210.684 243.925 212.178 246.764 210.19C248.052 209.288 249.106 208.099 249.106 207.548C249.106 205.94 245.248 206.399 243.767 208.184ZM237.42 209.225C236.682 210.114 235.803 210.565 235.465 210.228C235.128 209.891 235.554 209.171 236.412 208.628C238.657 207.208 238.951 207.382 237.42 209.225ZM246.985 208.669C246.985 209.253 246.479 209.73 245.862 209.73C245.245 209.73 245.034 209.253 245.395 208.669C245.755 208.086 246.26 207.609 246.518 207.609C246.775 207.609 246.985 208.086 246.985 208.669ZM226.838 209.137C226.838 209.395 226.36 209.899 225.777 210.26C225.194 210.62 224.717 210.409 224.717 209.792C224.717 209.175 225.194 208.669 225.777 208.669C226.36 208.669 226.838 208.879 226.838 209.137ZM314.851 209.2C314.851 209.491 315.089 209.73 315.381 209.73C315.673 209.73 315.911 209.491 315.911 209.2C315.911 208.908 315.673 208.669 315.381 208.669C315.089 208.669 314.851 208.908 314.851 209.2ZM310.609 210.79C309.734 211.355 309.496 211.818 310.079 211.818C310.662 211.818 311.855 211.355 312.73 210.79C313.605 210.225 313.843 209.763 313.26 209.763C312.677 209.763 311.484 210.225 310.609 210.79ZM239.289 213.043C237.039 214.302 236.83 218.213 239.012 218.213C239.875 218.213 240.888 216.998 241.26 215.512C242.088 212.211 241.683 211.703 239.289 213.043ZM305.307 212.911C304.432 213.476 304.194 213.938 304.777 213.938C305.36 213.938 306.553 213.476 307.428 212.911C308.303 212.346 308.541 211.883 307.958 211.883C307.375 211.883 306.182 212.346 305.307 212.911ZM165.721 217.831C166.983 227.042 166.681 228.817 163.852 228.817C162.452 228.817 158.755 230.156 155.634 231.793C150.269 234.607 149.145 234.781 135.113 234.957L120.268 235.142L124.509 233.031C126.842 231.871 135.313 227.842 143.331 224.08C152.362 219.844 157.912 216.646 157.912 215.68C157.912 214.314 159.579 213.579 163.865 213.055C164.515 212.976 165.349 215.125 165.721 217.831ZM229.171 214.183C228.471 214.883 227.898 216.076 227.898 216.834C227.898 218.564 230.243 218.625 231.928 216.94C233.613 215.255 233.551 212.911 231.822 212.911C231.063 212.911 229.87 213.484 229.171 214.183ZM219.354 216.206C218.553 217.704 218.509 218.792 219.224 219.507C220.802 221.084 222.596 219.516 222.596 216.56C222.596 213.38 220.962 213.201 219.354 216.206ZM231.463 215.562C231.127 216.437 230.368 217.153 229.776 217.153C229.155 217.153 229.257 216.479 230.019 215.562C230.745 214.687 231.504 213.971 231.706 213.971C231.907 213.971 231.798 214.687 231.463 215.562ZM239.756 216.322C238.996 217.083 238.502 217.145 238.502 216.481C238.502 215.878 238.82 215.067 239.209 214.679C239.597 214.289 240.163 214.218 240.464 214.52C240.765 214.821 240.447 215.632 239.756 216.322ZM246.137 215.244C244.382 216.999 244.54 219.273 246.418 219.273C247.775 219.273 250.166 216.273 250.166 214.572C250.166 213.489 247.437 213.944 246.137 215.244ZM221.183 217.86C220.793 218.248 220.475 217.93 220.475 217.153C220.475 216.375 220.793 216.057 221.183 216.445C221.571 216.834 221.571 217.471 221.183 217.86ZM248.046 216.56C248.046 216.817 247.568 217.322 246.985 217.683C246.402 218.043 245.925 217.832 245.925 217.215C245.925 216.598 246.402 216.092 246.985 216.092C247.568 216.092 248.046 216.302 248.046 216.56ZM234.473 220.546C232.929 222.09 232.806 225.267 234.256 226.163C235.745 227.083 238.095 221.623 236.777 220.305C236.108 219.636 235.298 219.721 234.473 220.546ZM224.929 221.606C223.335 223.2 223.293 225.286 224.836 226.239C226.202 227.084 227.858 224.883 227.882 222.189C227.901 220.03 226.735 219.8 224.929 221.606ZM226.838 222.985C226.838 223.86 226.375 224.575 225.81 224.575C225.246 224.575 225.058 223.86 225.393 222.985C225.73 222.11 226.192 221.394 226.421 221.394C226.65 221.394 226.838 222.11 226.838 222.985ZM241.33 222.101C240.288 223.144 240.47 227.757 241.554 227.757C242.065 227.757 243.073 227.047 243.792 226.18C245.873 223.673 243.571 219.86 241.33 222.101ZM236.381 222.922C236.381 223.18 235.904 223.685 235.321 224.045C234.738 224.406 234.26 224.195 234.26 223.577C234.26 222.96 234.738 222.455 235.321 222.455C235.904 222.455 236.381 222.664 236.381 222.922ZM216.071 226.098C214.81 228.868 215.454 231.998 217.287 231.998C218.789 231.998 220.571 227.119 219.802 225.115C218.901 222.767 217.41 223.161 216.071 226.098ZM243.127 225.106C242.791 225.98 242.329 226.696 242.1 226.696C241.871 226.696 241.683 225.98 241.683 225.106C241.683 224.231 242.146 223.515 242.711 223.515C243.275 223.515 243.463 224.231 243.127 225.106ZM219.399 226.431C219.389 226.869 218.939 227.928 218.396 228.786C217.174 230.718 215.741 229.509 216.599 227.272C217.234 225.62 219.429 224.96 219.399 226.431ZM222.285 230.696C220.057 233.157 219.896 237.3 222.029 237.3C224.244 237.3 225.921 233.633 224.931 230.956C224.115 228.748 224.053 228.742 222.285 230.696ZM230.621 231.156C228.69 233.913 228.501 235.831 230.065 236.799C231.744 237.836 234.26 235.233 234.26 232.461C234.26 228.977 232.572 228.372 230.621 231.156ZM163.645 231.203C163.231 231.932 162.129 233.434 161.197 234.541C159.067 237.071 165.998 236.346 172.2 233.388C177.158 231.024 177.692 231.967 174.743 237.873C170.466 246.439 164.198 250.006 153.405 250.019L148.368 250.025V243.215C148.368 236.477 148.405 236.391 151.814 235.24C153.709 234.599 156.454 233.141 157.912 231.999C160.916 229.648 164.84 229.102 163.645 231.203ZM238.136 231.423C237.304 233.59 238.453 236.433 239.958 235.931C240.615 235.712 241.153 234.419 241.153 233.059C241.153 230.174 239.052 229.035 238.136 231.423ZM166.395 232.415C166.395 233.227 165.669 234.171 164.78 234.512C163.462 235.017 163.372 234.746 164.287 233.034C165.603 230.576 166.395 230.344 166.395 232.415ZM223.656 233.589C223.656 235.047 223.179 236.24 222.596 236.24C221.412 236.24 221.142 232.745 222.243 231.645C223.411 230.475 223.656 230.813 223.656 233.589ZM233.2 231.911C233.2 233.886 231.892 236.212 231.068 235.702C229.986 235.034 231.015 230.938 232.264 230.938C232.778 230.938 233.2 231.376 233.2 231.911ZM240.287 234.318C239.948 235.163 239.697 234.912 239.646 233.677C239.601 232.559 239.851 231.933 240.203 232.285C240.555 232.638 240.593 233.553 240.287 234.318ZM213.265 237.512C211.757 239.02 211.574 243.279 212.98 244.148C214.463 245.064 217.138 240.642 216.523 238.292C215.904 235.924 215.056 235.721 213.265 237.512ZM214.213 241.866C212.828 243.251 212.635 241.717 213.816 238.713C214.553 236.839 214.594 236.84 214.976 238.738C215.194 239.821 214.85 241.229 214.213 241.866ZM237.42 241.582C236.042 244.158 236.996 247.904 239.032 247.904C240.852 247.904 242.041 244.339 241.153 241.542C240.291 238.826 238.887 238.842 237.42 241.582ZM218.567 242.814C216.486 244.895 216.931 250.25 219.15 249.829C220.447 249.583 221.104 248.283 221.334 245.51C221.672 241.432 220.799 240.582 218.567 242.814ZM227.455 243.196C225.346 245.306 225.623 249.495 227.873 249.495C229.941 249.495 231.893 244.052 230.37 242.529C229.579 241.738 228.716 241.936 227.455 243.196ZM239.98 245.165C239.454 246.534 239.053 246.676 238.452 245.704C237.38 243.967 238.481 241.096 239.738 242.354C240.263 242.879 240.372 244.144 239.98 245.165ZM219.515 248.229C218.675 249.068 218.354 248.793 218.354 247.233C218.354 244.429 219.837 242.941 220.31 245.271C220.51 246.259 220.152 247.591 219.515 248.229ZM230.019 245.191C230.019 246.782 228.115 248.475 227.272 247.632C226.532 246.892 227.997 243.662 229.072 243.662C229.593 243.662 230.019 244.35 230.019 245.191ZM212.204 248.116C210.414 249.906 210.568 255.327 212.409 255.327C214.118 255.327 215.173 253.068 215.173 249.408C215.173 246.594 214.165 246.155 212.204 248.116ZM213.152 253.531C212.312 254.37 211.992 254.095 211.992 252.535C211.992 249.731 213.475 248.243 213.947 250.573C214.148 251.561 213.789 252.893 213.152 253.531ZM236.418 252.076C234.908 254.897 235.044 256.958 236.837 258.447C239.084 260.312 240.976 256.393 239.589 252.745C238.349 249.485 237.86 249.382 236.418 252.076ZM226.508 254.045C224.259 256.53 224.147 260.629 226.33 260.629C228.541 260.629 230.524 256.041 229.277 253.812C228.383 252.216 228.145 252.236 226.508 254.045ZM238.502 255.009C238.502 256.978 238.161 257.53 237.407 256.776C236.804 256.174 236.617 254.886 236.99 253.913C237.973 251.354 238.502 251.737 238.502 255.009ZM217.747 254.017C214.65 256.138 215.537 261.53 218.778 260.286C219.818 259.888 220.475 258.389 220.475 256.42C220.475 253.172 219.822 252.597 217.747 254.017ZM218.454 258.833C217.614 259.672 217.294 259.397 217.294 257.837C217.294 255.033 218.776 253.545 219.249 255.875C219.45 256.863 219.091 258.195 218.454 258.833ZM228.204 257.449C227.9 258.614 227.229 259.568 226.714 259.568C225.62 259.568 225.517 258.299 226.419 255.95C227.325 253.588 228.875 254.888 228.204 257.449ZM91.6368 257.504L97.9992 257.59L93.7099 258.933C84.4675 261.828 83.0221 261.818 81.6701 258.85C80.5048 256.293 80.5801 256.161 82.8504 256.769C84.1833 257.126 88.1375 257.457 91.6368 257.504ZM176.999 256.917C176.999 257.209 177.238 257.448 177.529 257.448C177.821 257.448 178.059 257.209 178.059 256.917C178.059 256.626 177.821 256.387 177.529 256.387C177.238 256.387 176.999 256.626 176.999 256.917ZM495.118 258.251C495.118 259.474 509.098 261.397 525.12 262.377L536.474 263.072V271.787V280.503L531.437 281.144C524.967 281.968 501.64 283.824 483.984 284.918L470.199 285.774L483.984 285.895C495.941 286 516.303 284.592 536.55 282.26L542.459 281.579L546.445 287.584C550.549 293.767 550.635 293.802 556.356 291.652C557.086 291.377 557.682 291.869 557.682 292.744C557.682 294.475 555.519 295.622 552.256 295.622C550.484 295.622 550.356 295.942 551.369 297.836C552.537 300.017 554.166 300.086 559.174 298.164C560.257 297.749 560.863 298.087 560.863 299.107C560.863 300.83 558.702 301.984 555.474 301.984C554.137 301.984 553.44 302.722 553.44 304.138C553.44 306.888 556.038 307.893 559.302 306.405C561.112 305.58 562.051 305.575 562.551 306.385C563.447 307.835 561.059 309.37 557.876 309.391C556.043 309.403 555.554 309.878 555.952 311.263C556.246 312.283 557.074 315.164 557.793 317.665C559.567 323.831 563.247 327.667 566.974 327.238L569.877 326.904L569.668 309.937C569.481 294.793 566.95 261.06 565.923 260.034C564.289 258.4 553.366 258.443 549.878 260.099C544.933 262.445 516.406 261.199 498.565 257.857C496.581 257.486 495.118 257.652 495.118 258.251ZM568.623 266.196C568.97 269.257 569.78 279.875 570.425 289.79C572.435 320.706 572.775 324 573.647 321.072C575.264 315.641 574.241 281.807 571.955 265.136C570.957 257.856 567.794 258.862 568.623 266.196ZM549.323 266.196C553.055 275.118 551.426 279.465 544.129 280.041L538.595 280.477V271.614V262.75H543.238C547.473 262.75 548.008 263.052 549.323 266.196ZM142.536 270.938C133.804 273.076 89.5266 289.357 64.111 299.777C51.8422 304.806 42.3273 305.122 43.3972 300.464C43.4799 300.104 43.3113 299.226 43.0218 298.512C42.7323 297.797 42.4577 298.747 42.4121 300.622C42.2032 309.119 47.9919 308.492 77.3215 296.844C84.6117 293.949 94.3939 290.066 99.0596 288.214C142.077 271.149 159.657 268.502 165.972 278.14C170.506 285.059 162.344 292.202 107.278 329.504C96.134 337.053 91.2752 341.34 95.4352 339.953C97.7023 339.197 146.686 305.121 158.377 296.167C177.977 281.155 167.694 264.778 142.536 270.938ZM133.523 290.85C133.523 291.142 133.761 291.38 134.053 291.38C134.344 291.38 134.583 291.142 134.583 290.85C134.583 290.559 134.344 290.32 134.053 290.32C133.761 290.32 133.523 290.559 133.523 290.85ZM208.811 292.971C208.811 293.263 209.049 293.501 209.341 293.501C209.633 293.501 209.871 293.263 209.871 292.971C209.871 292.679 209.633 292.441 209.341 292.441C209.049 292.441 208.811 292.679 208.811 292.971ZM128.751 295.959C124.485 298.407 103.275 312.633 94.1669 319.158C91.4757 321.085 85.6297 325.227 81.1771 328.362C76.2049 331.862 73.0799 334.797 73.0799 335.967C73.0799 337.9 70.0991 339.24 62.4759 340.735C42.8808 344.576 40.2414 353.413 54.5388 367.309C59.3679 372.004 63.4833 377.2 65.4577 381.094C71.6907 393.395 96.3779 403.414 101.503 395.723C101.909 395.113 103.106 394.295 104.164 393.904C108.878 392.163 106.013 386.578 98.5294 382.919C89.3506 378.432 82.6234 367.958 82.6234 358.155C82.6234 355.263 88.1153 353.505 89.8935 355.828C91.5838 358.036 119.179 340.006 120.671 335.719C121.252 334.047 119.733 335.07 105.251 346.111L92.3558 355.943L86.1641 348.944C75.7489 337.173 74.82 335.68 77.0977 334.37C78.1539 333.762 82.5725 330.612 86.9181 327.369C98.6132 318.639 114.733 307.504 125.835 300.486C131.23 297.076 135.643 294.11 135.643 293.894C135.643 292.847 132.572 293.767 128.751 295.959ZM209.899 294.562C209.897 294.853 210.599 297.413 211.459 300.25C212.32 303.086 213.291 309.814 213.619 315.201L214.214 324.994L203.254 325.702C171.785 327.737 162 332.765 170.903 342.321C172.564 344.105 174.124 349.729 177.181 364.959C180.102 379.508 181.766 385.609 183.082 386.583C192.49 393.553 237.753 393.867 246.917 387.026C249.163 385.35 250.043 382.48 253.665 365.025C256.928 349.299 258.377 344.3 260.36 341.943C267.929 332.949 259.65 328.349 231.87 326.117C217.125 324.932 216.238 324.735 216.45 322.7C217.046 317.003 213.504 299.655 210.922 295.622C210.362 294.747 209.902 294.27 209.899 294.562ZM214.113 329.626C214.113 332.319 217.189 344.089 217.189 344.089C216.1 343.743 213.182 344.231 213.182 344.231L200.474 344.523L186.302 342.885C186.302 342.885 176.762 339.966 173.921 338.975C162.668 335.053 172.555 329.691 195.026 327.529C213.089 325.792 214.113 325.905 214.113 329.626ZM244.607 328.587C253.184 329.894 261.199 332.891 261.593 334.938C262.092 337.525 250.383 343.811 248.175 341.943L229.618 344.616C229.618 344.616 215.179 333.987 217.189 326.513C217.344 325.936 236.927 327.417 244.607 328.587ZM430.518 334.489C430.472 336.329 431.384 342.532 432.545 348.274C435.931 365.023 435.797 365.763 428.578 370.062C423.43 373.128 422.544 374.096 422.883 376.278C423.581 380.767 423.564 380.977 422.481 381.35C421.898 381.55 420.964 380.239 420.406 378.434C419.848 376.629 418.759 375.152 417.987 375.152C415.87 375.152 415.101 378.273 416.382 381.666C417.008 383.328 417.141 384.921 416.675 385.21C415.368 386.018 413.496 383.206 413.234 380.038C412.789 374.658 408.653 376.823 408.896 382.31C409.152 388.048 406.478 388.613 405.433 383.041C404.912 380.265 404.302 379.429 403.128 379.879C402.249 380.216 399.456 381.015 396.92 381.653C391.094 383.12 386.74 387.289 387.171 390.989L387.488 393.709H404.985C431.28 393.709 453.506 392.223 455.39 390.34C457.198 388.532 457.607 374.626 455.884 373.561C454.556 372.741 454.506 361.512 455.797 353.874C457.729 342.441 458.013 339.098 457.058 339.098C456.522 339.098 455.681 342.557 455.189 346.786L454.293 354.474H444.75H435.206L433.366 343.918C431.259 331.827 430.636 329.766 430.518 334.489ZM81.3446 345.706C87.8077 353.44 87.7738 353.311 83.7602 354.973C82.0529 355.68 79.8314 357.17 78.824 358.282C74.1434 363.456 68.1649 357.913 67.4078 347.699C67.0133 342.373 67.1194 342.118 70.3037 340.721C75.2759 338.541 75.4074 338.6 81.3446 345.706ZM200.474 344.523C200.474 344.523 246.443 344.081 259.18 339.556L261.301 338.804L259.18 341.025C250.692 349.917 188.864 350.9 172.974 342.395C168.399 339.947 170.75 339.502 178.229 341.403C182.404 342.463 192.415 343.867 200.474 344.523ZM103.831 341.749C103.831 342.041 104.07 342.28 104.362 342.28C104.653 342.28 104.892 342.041 104.892 341.749C104.892 341.458 104.653 341.219 104.362 341.219C104.07 341.219 103.831 341.458 103.831 341.749ZM252.783 363.234C248.281 386.505 248.736 385.328 243.489 387.263C228.809 392.681 191.539 391.826 184.392 385.906C182.309 384.182 173.891 347.155 175.268 345.778C175.574 345.472 178.117 345.752 180.918 346.401C199.699 350.749 233.634 350.609 250.697 346.114C253.613 345.346 256.072 344.765 256.162 344.823C256.251 344.883 254.731 353.167 252.783 363.234ZM43.4311 357.973C43.3664 361.672 45.835 365.591 51.9133 371.441C54.9439 374.357 59.1017 379.367 61.1525 382.575C67.4979 392.496 75.4795 398.537 82.0932 398.423C83.3838 398.402 82.7125 397.851 80.3775 397.016C72.802 394.309 69.2412 391.263 65.6762 384.438C63.7335 380.719 58.8239 374.308 54.5049 369.85C50.2665 365.476 46.0503 360.465 45.1362 358.716C43.6061 355.788 43.4704 355.729 43.4311 357.973ZM453.763 364.52C453.763 373.452 451.412 375.497 441.783 374.941L436.266 374.622L435.959 365.873L435.65 357.125H444.707H453.763V364.52ZM83.9945 367.465C88.4206 379.741 88.3453 379.393 86.5893 379.393C84.0868 379.393 77.3967 361.646 79.2132 359.828C80.5016 358.541 81.1527 359.581 83.9945 367.465ZM79.8866 369.32C81.1834 373.402 82.8239 377.816 83.5322 379.128C85.0592 381.961 80.7243 382.747 78.4815 380.044C77.367 378.701 74.2028 365.941 74.1583 362.615C74.1031 358.381 77.7774 362.683 79.8866 369.32ZM437.327 394.29C432.078 394.73 419.453 395.448 409.272 395.885C379.984 397.144 390.487 398.81 423.674 398.171C450.304 397.658 455.884 396.97 455.884 394.202C455.884 393.072 451.635 393.092 437.327 394.29ZM85.5395 399.183C86.2691 399.477 87.462 399.477 88.1905 399.183C88.9201 398.889 88.3231 398.648 86.865 398.648C85.407 398.648 84.811 398.889 85.5395 399.183Z" fill="#16314F"/>
</svg>
