<svg width="1201" height="100" viewBox="0 0 1201 100" fill="none" xmlns="http://www.w3.org/2000/svg">
<path fill-rule="evenodd" clip-rule="evenodd" d="M0.976562 159.507L50.9766 123.507C100.977 87.5068 200.977 15.5068 300.977 9.50675C400.977 3.50675 500.977 63.5068 600.977 69.5068C700.977 75.5068 800.977 27.5068 900.977 9.50675C1000.98 -8.49325 1100.98 3.50675 1150.98 9.50675L1200.98 15.5068V231.507H1150.98C1100.98 231.507 1000.98 231.507 900.977 231.507C800.977 231.507 700.977 231.507 600.977 231.507C500.977 231.507 400.977 231.507 300.977 231.507C200.977 231.507 100.977 231.507 50.9766 231.507H0.976562V159.507Z" fill="#BFDBD7"/>
</svg>
