<svg width="890" height="383" viewBox="0 0 890 383" fill="none" xmlns="http://www.w3.org/2000/svg">
<path d="M206.131 27.6146C287.554 3.81998 289.823 3.22877 307.552 1.06596C311.887 0.537403 323.691 0.397957 336.527 0.569347C349.351 0.740555 363.148 1.22089 371.449 1.92286C398.637 4.22243 436.951 5.58465 556.479 8.50149C678.684 11.4844 688.181 12.1029 749.919 21.0834C803.081 28.817 817.229 32.0726 828.845 39.1122C837.194 44.1724 843.781 50.433 851.082 60.2735C854.782 65.2601 860.343 72.163 863.448 75.6207C872.175 85.3385 876.627 91.6612 880.454 99.7407C889.029 117.839 890.418 133.586 887.089 176.488C882.191 239.587 880.005 252.681 871.879 268.436C864.426 282.888 850.874 294.613 834.12 301.072C829.537 302.839 818.812 307.443 810.285 311.303C775.263 327.158 749.712 337.003 692.328 356.752C652.036 370.618 626.522 376.608 592.438 380.208C578.706 381.659 520.632 381.809 459.188 381.113C397.759 380.418 333.034 378.881 306.026 376.966C286.261 375.564 261.585 372.393 244.086 369.007C229.2 366.126 223.671 365.362 197.544 362.57C179.504 360.643 135.86 354.569 121.58 351.999C78.5163 344.248 50.4282 331.925 30.7687 312.253C18.3218 299.799 10.5008 286.438 5.55266 269.17C1.57444 255.285 0.502001 244.915 0.500003 220.027C0.499003 207.333 0.769131 199.031 1.74218 191.888C2.71394 184.754 4.38889 178.762 7.2149 170.692C13.6425 152.338 27.1673 131.176 43.6679 112.025C60.1671 92.876 79.6062 75.7783 97.8291 65.5305C118.194 54.0779 131.312 49.4786 206.131 27.6146Z"  fill='#f3e7e2' stroke="#f3e7e2"/>

<!-- fill="#D89687"
stroke="#D89687" -->

<!-- fill='#a5c2df' stroke="#a5c2df" -->
</svg>
