<svg width="2432" height="1184" viewBox="0 0 2432 1184" fill="none" xmlns="http://www.w3.org/2000/svg">
<path fill-rule="evenodd" clip-rule="evenodd" d="M1205.93 5.4308C1445.4 -20.8108 1680.81 52.6294 1887.23 127.34C2106.33 206.635 2343 298.212 2411.96 441.915C2480.07 583.847 2362.62 732.238 2239.43 861.255C2133.4 972.304 1963.32 1054.84 1769.51 1114.76C1596.35 1168.3 1402.26 1175.95 1205.93 1180.78C1000.02 1185.84 794.856 1191.29 606.268 1143.38C381.397 1086.26 133.765 1017.11 43.3263 885.431C-48.4665 751.776 15.4331 592.246 142.894 468.688C257.705 357.393 510.825 336.627 690.031 258.531C874.687 178.061 978.5 30.3534 1205.93 5.4308Z" fill="#D89687"/>
</svg>
