<svg width="450" height="530" viewBox="0 0 450 530" fill="none" xmlns="http://www.w3.org/2000/svg">
<path fill-rule="evenodd" clip-rule="evenodd" d="M228.39 31.6015C292.572 25.9448 370.23 -25.5449 416.337 16.1792C464.796 60.0329 407.482 137.354 414.233 199.781C418.891 242.847 449.651 278.903 449.431 322.185C449.134 380.901 458.308 449.782 412.759 490.638C366.827 531.838 289.226 538.711 228.39 520.454C172.428 503.66 156.955 438.587 114.305 401.071C79.9565 370.857 20.3086 364.382 4.09853 323.162C-12.183 281.761 24.6625 240.43 34.1518 197.255C45.3922 146.112 23.2974 82.5253 64.7585 47.1656C106.099 11.9086 172.436 36.533 228.39 31.6015Z" fill="black"/>
</svg>
