<?xml version="1.0"?>
<svg xmlns="http://www.w3.org/2000/svg"  version="1.1" width="512" height="512" x="0" y="0" viewBox="0 0 512 512" style="enable-background:new 0 0 512 512" xml:space="preserve" class=""><g>
<g xmlns="http://www.w3.org/2000/svg">
	<g>
		<path d="M494.818,121.221L437.246,26.35c-6.886-11.347-17.798-19.252-30.727-22.26c-12.929-3.007-26.211-0.728-37.396,6.414    l-23.665,15.11C318.44,8.969,287.181,0,255.079,0c-31.729,0-62.634,8.764-89.437,25.04l-22.764-14.535    c-11.188-7.143-24.47-9.422-37.396-6.414c-12.929,3.006-23.84,10.912-30.726,22.259l-57.571,94.871    c-11.6,19.115-14.928,41.57-9.37,63.228c5.557,21.657,19.286,39.735,38.656,50.904l23.879,13.767l-4.271,30.548    c-4.695,33.579,5.375,67.509,27.628,93.091c11.569,13.3,25.833,23.641,41.624,30.515l-3.752,40.152h-6.522    c-4.199,0-7.604,3.405-7.604,7.604v53.365c0,4.199,3.405,7.604,7.604,7.604h36.656c4.199,0,7.604-3.405,7.604-7.604    s-3.405-7.604-7.604-7.604H132.66v-38.159h5.843c0.003,0,0.007,0,0.01,0c0.003,0,0.007,0,0.01,0h79.504v38.159h-30.968    c-4.199,0-7.604,3.405-7.604,7.604s3.405,7.604,7.604,7.604h198.04c4.2,0,7.604-3.405,7.604-7.604v-53.367    c0-4.199-3.404-7.604-7.604-7.604h-3.601l-3.871-41.415c14.676-6.852,27.94-16.743,38.821-29.251    c22.253-25.581,32.324-59.512,27.629-93.091l-4.133-29.564l25.584-14.751c19.37-11.168,33.099-29.246,38.658-50.904    C509.745,162.792,506.416,140.338,494.818,121.221z M54.067,222.179c-15.796-9.106-26.99-23.848-31.522-41.508    c-4.532-17.66-1.819-35.971,7.64-51.559L87.756,34.24c4.745-7.818,12.263-13.265,21.17-15.337    c8.908-2.072,18.058-0.503,25.766,4.418l17.212,10.99c-3.392,2.536-6.705,5.197-9.92,7.994    c-31.362,27.282-51.803,64.978-57.559,106.145l-11.803,84.424L54.067,222.179z M146.853,443.425l3.258-34.865    c10.296,2.92,21.041,4.452,31.965,4.452h20.767c22.42,0,41.988-12.401,52.236-30.696c10.248,18.295,29.817,30.696,52.236,30.696    h20.766c11.933,0,23.653-1.825,34.806-5.295l3.338,35.708H146.853z M241.53,336.374l-22.317-38.654    c-4.267-7.393-4.267-16.22,0-23.613c4.268-7.393,11.913-11.806,20.449-11.806h30.837c8.536,0,16.18,4.413,20.449,11.806    c4.268,7.393,4.268,16.22,0,23.613l-22.318,38.654c-2.828,4.898-7.893,7.823-13.549,7.823    C249.423,344.197,244.358,341.273,241.53,336.374z M276.919,496.792h-43.682v-38.159h43.682V496.792z M292.128,496.792v-38.159    h82.425c0.003,0,0.007,0,0.01,0s0.007,0,0.01,0h2.922v38.159H292.128z M489.456,180.67c-4.533,17.66-15.727,32.402-31.523,41.508    l-20.259,11.681l-4.235-30.287c-0.582-4.159-4.433-7.061-8.583-6.478c-4.16,0.582-7.06,4.424-6.479,8.583l10.639,76.097    c4.085,29.219-4.677,58.743-24.041,81.003c-19.365,22.259-47.391,35.026-76.895,35.026h-20.766    c-22.843,0-41.722-17.254-44.317-39.411c7.851-2.046,14.585-7.117,18.8-14.416l22.318-38.654c7.017-12.154,7.017-26.667,0-38.821    c-7.017-12.154-19.585-19.41-33.619-19.41h-30.837c-14.034,0-26.602,7.256-33.619,19.409c-7.017,12.154-7.017,26.667,0,38.821    l22.317,38.654c4.214,7.299,10.949,12.37,18.8,14.416c-2.594,22.157-21.474,39.411-44.317,39.411h-20.767    c-29.503,0-57.531-12.767-76.894-35.026c-19.364-22.26-28.127-51.784-24.041-81.003l4.993-35.71    c0.002-0.017,0.005-0.034,0.007-0.052l13.346-95.454c5.248-37.534,23.886-71.903,52.479-96.778    c28.594-24.873,65.214-38.572,103.112-38.572c37.898,0,74.519,13.699,103.113,38.572c28.593,24.874,47.231,59.244,52.479,96.778    l3.755,26.859c0.581,4.159,4.43,7.057,8.583,6.478c4.16-0.582,7.06-4.424,6.479-8.583l-3.755-26.859    c-5.757-41.167-26.198-78.864-57.559-106.145c-2.946-2.563-5.971-5.018-9.067-7.363l18.201-11.622    c7.709-4.921,16.858-6.491,25.766-4.419c8.908,2.072,16.426,7.52,21.17,15.338l57.571,94.87    C491.275,144.699,493.988,163.01,489.456,180.67z" fill="#017260" data-original="#000000" style="" class=""/>
	</g>
</g>
<g xmlns="http://www.w3.org/2000/svg">
	<g>
		<path d="M330.323,199.394c-4.2,0-7.604,3.405-7.604,7.604v23.453c0,4.199,3.404,7.604,7.604,7.604s7.604-3.405,7.604-7.604    v-23.453C337.927,202.799,334.522,199.394,330.323,199.394z" fill="#017260" data-original="#000000" style="" class=""/>
	</g>
</g>
<g xmlns="http://www.w3.org/2000/svg">
	<g>
		<path d="M179.836,199.394c-4.199,0-7.604,3.405-7.604,7.604v23.453c0,4.199,3.405,7.604,7.604,7.604s7.604-3.405,7.604-7.604    v-23.453C187.44,202.799,184.036,199.394,179.836,199.394z" fill="#017260" data-original="#000000" style="" class=""/>
	</g>
</g>
<g xmlns="http://www.w3.org/2000/svg">
</g>
<g xmlns="http://www.w3.org/2000/svg">
</g>
<g xmlns="http://www.w3.org/2000/svg">
</g>
<g xmlns="http://www.w3.org/2000/svg">
</g>
<g xmlns="http://www.w3.org/2000/svg">
</g>
<g xmlns="http://www.w3.org/2000/svg">
</g>
<g xmlns="http://www.w3.org/2000/svg">
</g>
<g xmlns="http://www.w3.org/2000/svg">
</g>
<g xmlns="http://www.w3.org/2000/svg">
</g>
<g xmlns="http://www.w3.org/2000/svg">
</g>
<g xmlns="http://www.w3.org/2000/svg">
</g>
<g xmlns="http://www.w3.org/2000/svg">
</g>
<g xmlns="http://www.w3.org/2000/svg">
</g>
<g xmlns="http://www.w3.org/2000/svg">
</g>
<g xmlns="http://www.w3.org/2000/svg">
</g>
</g></svg>
