<?xml version="1.0"?>
<svg xmlns="http://www.w3.org/2000/svg"   version="1.1" width="512" height="512" x="0" y="0" viewBox="0 0 512.00049 512" style="enable-background:new 0 0 512 512" xml:space="preserve"><g><path xmlns="http://www.w3.org/2000/svg" d="m469.253906 218.167969c-1.378906-1.242188-3.167968-1.929688-5.023437-1.929688h-14.902344c-.183594-.269531-.375-.539062-.597656-.789062l-34.113281-38.816407c17.507812-13.332031 40.078124-24.550781 68.003906-33.859374 3.371094-1.125 5.492187-4.457032 5.082031-7.988282-.40625-3.53125-3.238281-6.289062-6.777344-6.613281-40.695312-3.699219-73.128906 1.394531-98.9375 11.332031l-28.832031-32.8125c13.847656-11.351562 30.347656-20.664062 49.699219-28.105468 3.25-1.25 5.214843-4.574219 4.742187-8.027344-.472656-3.449219-3.257812-6.125-6.726562-6.453125-27.894532-2.65625-53.453125.734375-76.277344 10.082031l-62.953125-71.636719c-1.425781-1.621093-3.480469-2.550781-5.640625-2.550781s-4.214844.929688-5.640625 2.550781l-82.625 94.023438c-12.839844-1.777344-26.402344-1.925781-40.664063-.425781-3.378906.355468-6.097656 2.9375-6.628906 6.292968-.53125 3.359375 1.261719 6.652344 4.367188 8.035156 7.421875 3.296876 14.402344 7.007813 20.941406 11.117188l-15.648438 17.804688c-28.25-10.878907-61.34375-14.652344-99.03125-11.226563-3.539062.320313-6.367187 3.082031-6.777343 6.613281-.410157 3.527344 1.710937 6.863282 5.082031 7.988282 27.949219 9.316406 50.503906 20.53125 68.003906 33.859374l-34.804687 39.605469h-14.804688c-1.855469 0-3.644531.6875-5.023437 1.925781-34.683594 31.21875-48.675782 78.859376-40.453125 137.765626 6.09375 43.675781 21.992187 77.8125 22.664062 79.246093 1.59375 3.382813 5.558594 5.089844 9.113281 3.941407 3.253907-1.050782 5.421876-4.289063 5.167969-7.699219-.023437-.316407-1.667969-23.554688 1.394531-54.082031 17.371094 35.503906 43.234376 66.105468 75.839844 89.472656 40.855469 29.28125 89.101563 44.757812 139.527344 44.757812 53.578125 0 104.25-17.28125 146.535156-49.972656 3.28125-2.539062 3.882813-7.253906 1.347656-10.535156-2.539062-3.28125-7.25-3.882813-10.53125-1.347656-39.632812 30.644531-87.125 46.839843-137.351562 46.839843-94.304688 0-179.027344-59.367187-211.242188-147.855469.453126-2.367187.9375-4.746093 1.457032-7.128906 5.410156-24.792968 13.359375-45.558594 23.792968-62.253906h42.679688c-1.140625 17.347656-.582031 36.210938 1.707031 56.40625 6.035157 53.328125 21.761719 96.996094 22.425781 98.828125 1.316407 3.613281 5.277344 5.671875 8.992188 4.6875 3.414062-.90625 5.777344-4.195313 5.558594-7.71875-.082032-1.339844-4.6875-83.839844 17.613281-152.207031h176.679687c5.242188 13.441406 9.148438 28.875 11.671876 46.320312 7.15625 49.386719.058593 96.726563-.015626 97.195313-.523437 3.398437 1.40625 6.808593 4.589844 8.097656 3.484375 1.414063 7.578125-.027344 9.398438-3.3125.835937-1.511719 20.605468-37.519531 30.679687-83.109375 5.230469-23.671875 6.789063-45.496094 4.777344-65.191406h35.230469c10.429687 16.699218 18.382812 37.464844 23.792968 62.253906.523438 2.414062 1.015626 4.816406 1.46875 7.207031-.078124.175781-.15625.347657-.226562.53125-10.640625 28.964844-26.882812 55.039063-48.28125 77.5-2.59375 2.726563-2.742188 7.101563-.328125 9.988281 2.839844 3.394532 8.152344 3.570313 11.203125.367188 17.046875-17.894531 31.027344-37.945312 41.742188-59.832031 3.066406 30.535156 1.417968 53.777343 1.394531 54.089843-.253907 3.410157 1.914062 6.652344 5.167969 7.703126 3.554687 1.152343 7.519531-.558594 9.113281-3.941407.671875-1.429687 16.574219-35.570312 22.667969-79.246093 8.21875-58.90625-5.769532-106.546876-40.457032-137.761719zm-39.820312-1.929688h-46.777344c-.464844-.589843-.921875-1.1875-1.394531-1.769531 5.550781-10.183594 12.824219-19.546875 21.898437-28.128906zm-33.640625 21.585938c6.027343 2.671875 11.71875 5.925781 17.066406 9.757812-4.1875 4.242188-7.300781 8.460938-9.332031 12.644531-1.914063-7.894531-4.492188-15.371093-7.734375-22.402343zm-25.304688-34.773438c-.324219-.300781-.632812-.605469-.960937-.902343-1.378906-1.238282-3.167969-1.925782-5.023438-1.925782h-38.929687c20.476562-27.300781 56.144531-54.679687 117.488281-57.910156-33.832031 15.917969-57.765625 35.980469-72.574219 60.738281zm-61.023437 61.242188h-6.746094c-1.191406-8.699219-3.933594-24.742188-9.722656-43.632813 8.828125 3.734375 16.808594 8.789063 23.933594 15.160156-4.167969 8.421876-6.667969 17.957032-7.464844 28.472657zm-63.570313-72.410157c7.953125 7.503907 31.601563 32.984376 34.347657 72.410157h-65.058594c-1.117188-15.625-5.746094-30.734375-13.789063-45.070313 11.867188-13.132812 26.492188-22.878906 44.5-27.339844zm61.367188 8.339844h-6.308594c6.625-34.601562 20.0625-62.074218 41.101563-83.414062l25.539062 29.058594c-28.664062 14.390624-47.757812 34.960937-60.332031 54.355468zm8.472656-75.300781c-14.824219 20.757813-24.65625 45.359375-30.011719 75.054687-6.210937-15.558593-14.515625-31.847656-25.59375-46.851562 25.96875-44.695312 61.839844-69.53125 106.949219-74.109375-21.074219 12.234375-38.273437 27.597656-51.34375 45.90625zm-59.734375-106.039063 54.507812 62.023438c-2.472656 1.355469-4.910156 2.78125-7.304687 4.289062-20.578125 12.949219-38.421875 31.621094-53.152344 55.542969-4.824219-5.363281-10.070312-10.457031-15.785156-15.167969-14.75-12.164062-31.3125-20.695312-49.550781-25.574218zm-31.34375 118.226563c17.6875 14.570313 30.582031 33.542969 39.953125 52.648437-6.367187-7.390624-11.34375-11.449218-11.925781-11.917968-1.320313-1.054688-3.007813-1.644532-4.691406-1.644532h-35.011719c-12.539063-27.277343-31.53125-49.292968-56.675781-65.699218 26.15625 1.824218 49.066406 10.730468 68.351562 26.613281zm-66.53125-6.851563c16.019531 12.476563 28.78125 27.832032 38.160156 45.9375h-10.582031c-12.054687-12.519531-25.808594-22.664062-41.214844-30.421874zm5.5625 45.9375h-3.792969c-1.855469 0-3.644531.6875-5.023437 1.925782-6.332032 5.699218-11.964844 12.160156-16.914063 19.335937-14.992187-22.238281-37.816406-40.488281-69.132812-55.199219 38.207031 1.902344 69.96875 13.261719 94.863281 33.9375zm-54.847656 10.144532c8.34375 7.898437 15.167968 16.449218 20.53125 25.695312-.691406 1.382813-1.363282 2.78125-2.015625 4.203125h-44.789063zm-77.371094 152.355468c-3.925781 18.105469-5.941406 35.574219-6.917969 50.433594-2.925781-10.597656-5.65625-22.726562-7.4375-35.632812-7.328125-53.101563 3.96875-94.210938 33.589844-122.238282h45.894531c-13.898437 8.652344-25.972656 20.460938-36.085937 35.320313-13.050781 19.179687-22.820313 43.441406-29.042969 72.117187zm56.121094-81.429687c2.519531 2.445313 4.527344 4.808594 5.976562 7.027344h-12.5625c2.121094-2.46875 4.3125-4.8125 6.585938-7.027344zm22.53125 7.027344c-1.757813-5.503907-5.429688-11.089844-10.980469-16.710938 6.441406-4.617187 13.378906-8.390625 20.808594-11.320312-1.425781 4.882812-2.675781 9.9375-3.710938 15.191406-.820312 4.160156-1.511719 8.449219-2.085937 12.839844zm34.199218 51.148437c-4.269531 22.339844-6.46875 44.121094-7.542968 62.71875-12.089844-55.464844-20.921875-141.976562 26.0625-186.949218h47.933594c-13.433594 8.992187-25.195313 21.496093-35.183594 37.433593-14.023438 22.382813-24.542969 51.585938-31.269532 86.796875zm46.914063-83.238281c4.984375 10.335937 7.949219 21.078125 8.875 32.089844h-25.671875c4.644531-11.523438 10.1875-22.386719 16.796875-32.089844zm133.296875 32.089844c.539062-5.953125 1.738281-11.464844 3.582031-16.503907 3.910157 4.980469 7.476563 10.476563 10.691407 16.503907zm62.863281 76.648437c-3.210937 14.625-7.542969 28.347656-11.886719 40.136719.328126-16.707031-.304687-36.691406-3.261718-57.285156-7.441406-51.777344-27.128906-88.578125-57.648438-108.554688h46.964844c29.328125 27.929688 38.019531 70.199219 25.832031 125.703125zm31.039063-76.648437c1.453125-2.21875 3.457031-4.582031 5.976562-7.027344 2.273438 2.214844 4.464844 4.558594 6.585938 7.027344zm76.453125 89.203125c-1.78125 12.90625-4.515625 25.035156-7.4375 35.632812-.976563-14.859375-2.992188-32.328125-6.917969-50.4375-6.222656-28.671875-15.992188-52.933594-29.042969-72.113281-10.113281-14.863281-22.1875-26.667969-36.085937-35.324219h45.894531c29.621094 28.03125 40.917969 69.136719 33.589844 122.242188zm0 0" fill="#017260" data-original="#000000" style=""/></g></svg>
