<svg width="542" height="378" viewBox="0 0 542 378"  xmlns="http://www.w3.org/2000/svg">
<path fill-rule="nonzero" clip-rule="nonzero" d="M319.697 2.13808C314.05 4.99708 306.736 12.2431 304.21 17.4801C301.025 24.0831 301 34.0521 304.146 43.4231C308.025 54.9771 311.529 61.8431 316.055 66.7521C320.525 71.6021 324.542 73.6251 332.697 75.1321C337.628 76.0431 342.697 79.0631 342.697 81.0891C342.697 82.7361 344.786 87.2251 345.309 86.7021C346.064 85.9471 342.4 77.8261 340.404 75.8301C339.52 74.9461 336.647 73.9001 334.02 73.5061C326.873 72.4341 321.213 69.1531 316.924 63.5951C313.732 59.4601 314.178 58.4831 317.947 61.3551C319.735 62.7181 324.347 64.7941 328.197 65.9691C339.842 69.5221 341.9 70.8711 344.818 76.8571C346.259 79.8141 349.126 83.9741 351.19 86.1001L354.942 89.9661L354.517 98.7231C354.008 109.196 353.652 109.782 335.891 129.387C329.459 136.486 324.317 142.844 324.463 143.516C324.642 144.339 322.687 144.891 318.463 145.207C313.406 145.587 311.737 145.321 309.812 143.829C308.5 142.812 306.609 141.98 305.609 141.98C303.114 141.98 298.697 144.086 298.697 145.275C298.697 145.811 297.764 145.064 296.624 143.614C294.97 141.512 294.009 141.109 291.874 141.623C284.886 143.306 265.464 154.919 261.758 159.629L259.769 162.159L264.697 171.98L269.626 181.802L264.911 182.379C262.319 182.697 254.685 183.075 247.948 183.218L235.699 183.48L235.698 186.543L235.697 189.606L256.643 193.494L277.589 197.382L279.8 201.681C281.548 205.079 282.555 205.978 284.604 205.97C292.146 205.942 322.697 186.844 322.697 182.157C322.697 181.215 321.612 178.848 320.287 176.897C318.961 174.947 317.746 171.536 317.586 169.319C317.31 165.498 317.647 164.958 324.072 158.948C329.231 154.122 331.052 152.936 331.697 153.98C332.402 155.12 333.237 155.04 336.631 153.51C345.155 149.666 342.13 154.975 333.346 159.276C324.998 163.363 323.667 166.254 329.697 167.205C331.688 167.519 331.045 167.952 326.537 169.334C323.424 170.289 320.632 171.708 320.332 172.488C319.515 174.617 324.069 177.659 329.234 178.433C338.4 179.808 344.351 176.656 349.89 167.496C351.709 164.487 353.731 162.216 354.383 162.447C355.681 162.908 379.683 139.002 387.33 129.632L392.103 123.785L398.046 129.934L403.989 136.083L403.408 147.282C403.089 153.441 401.893 163.15 400.751 168.859C398.122 182.001 394.695 215.063 394.703 227.207C394.706 232.307 395.179 239.18 395.753 242.48C396.328 245.78 397.424 254.555 398.19 261.98C398.955 269.405 400.74 282.905 402.157 291.98C403.574 301.055 404.93 311.18 405.169 314.48C405.408 317.78 406.38 324.08 407.329 328.48C410.53 343.32 409.921 345.511 401.332 350.082C397.583 352.076 397.485 352.264 398.081 356.309C398.647 360.159 398.579 360.33 397.196 358.539C396.371 357.471 395.697 355.784 395.697 354.789C395.697 352.796 394.917 352.555 392.802 353.894C391.811 354.522 391.568 355.98 391.963 358.928C392.432 362.424 392.297 362.893 391.108 361.906C390.332 361.262 389.697 359.392 389.697 357.751C389.697 355.44 389.34 354.903 388.115 355.373C387.245 355.707 386.168 355.98 385.722 355.98C384.259 355.98 383.734 358.947 384.733 361.575C385.477 363.532 385.41 364.053 384.455 363.739C383.763 363.512 383.055 362.123 382.881 360.653C382.67 358.877 381.968 357.98 380.787 357.98C377.564 357.98 367.454 361.931 366.095 363.722C364.209 366.207 364.281 371.98 366.197 371.98C367.022 371.98 367.697 372.607 367.697 373.373C367.697 375.486 370.265 376.119 381.197 376.703C391.814 377.27 427.708 375.375 428.882 374.186C429.264 373.798 430.128 369.654 430.802 364.978C431.899 357.355 431.845 356.094 430.274 352.783C428.413 348.862 428.43 347.834 430.718 325.98C431.947 314.241 435.02 291.631 436.63 282.48C437.211 279.18 437.936 275.007 438.241 273.207L438.796 269.934L444.997 270.565C452.268 271.305 483.274 269.501 499.582 267.39C505.843 266.579 511.054 266.043 511.161 266.198C511.267 266.353 512.884 268.884 514.754 271.821C518.087 277.06 518.226 277.151 521.998 276.548C526.503 275.827 526.236 277.483 521.686 278.483C518.505 279.181 518.21 279.663 519.61 281.874C520.256 282.894 521.66 283.096 524.845 282.625C528.851 282.034 529.043 282.102 527.256 283.481C526.188 284.306 524.276 284.98 523.006 284.98C520.363 284.98 520.13 285.822 522.047 288.444C523.075 289.85 524.148 290.14 526.547 289.66C528.4 289.289 529.697 289.442 529.697 290.03C529.697 290.58 528.347 291.3 526.697 291.63C523.257 292.318 523.183 292.713 525.22 299.428C527.193 305.934 530.112 308.98 534.371 308.98C537.436 308.98 537.705 308.725 537.797 305.73C537.89 302.679 537.943 302.633 538.656 304.98L539.416 307.48L540.557 304.665C542.631 299.543 541.112 248.148 538.814 245.734C538.424 245.323 533.984 244.695 528.948 244.337C521.314 243.795 519.368 243.966 517.236 245.363C514.936 246.87 513.147 246.93 499.438 245.966C467.841 243.744 452.519 240.979 446.206 236.363C444.526 235.135 444.476 234.529 445.617 229.25C447.716 219.535 450.276 211.922 457.008 195.367C466.517 171.985 469.989 154.655 467.705 141.98C466.358 134.506 463.525 128.398 456.789 118.444C452.914 112.717 452.202 111.015 452.967 109.302C454.533 105.79 446.181 88.8251 436.808 76.4801C427.568 64.3111 409.442 48.8781 398.662 44.0021C397.268 43.3711 395.126 40.9711 393.903 38.6681C390.893 33.0001 381.773 22.9251 374.788 17.5501C355.952 3.05608 331.431 -3.80392 319.697 2.13808ZM333.574 22.6071C335.407 23.8911 335.774 24.8441 335.316 27.1371C334.822 29.6051 335.144 30.2201 337.466 31.2401C341.269 32.9101 341.665 33.7331 341.677 39.9801C341.696 50.4381 334.513 54.4051 322.676 50.4731C316.922 48.5621 306.553 39.6661 308.252 38.0981C308.772 37.6181 311.488 36.4831 314.287 35.5761C317.087 34.6681 321.261 32.5401 323.563 30.8471C327.414 28.0151 327.697 27.4981 327.111 24.3751C326.532 21.2851 326.689 20.9801 328.863 20.9801C330.177 20.9801 332.297 21.7121 333.574 22.6071ZM350.893 35.0001L356.59 36.2741L357.26 41.6341C358.034 47.8351 356.679 60.1641 355.168 60.6611C354.602 60.8471 353.344 59.6521 352.371 58.0051C351.398 56.3581 348.595 53.6301 346.143 51.9431C342.222 49.2451 341.815 48.6281 342.774 46.8361C343.374 45.7141 343.715 42.1321 343.531 38.8751C343.324 35.2061 343.577 33.1001 344.197 33.3391C344.747 33.5511 347.76 34.2991 350.893 35.0001ZM371.458 37.4661C400.205 40.6661 431.26 65.0701 446.86 96.7171L451.906 106.955L449.967 110.691C445.682 118.949 429.416 127.912 412.337 131.426C403.235 133.298 401.187 132.576 402.224 127.859C402.562 126.318 402.377 124.252 401.813 123.268C400.92 121.712 400.701 121.897 400.125 124.691L399.463 127.902L393.161 122.336L386.86 116.769L388.335 112.624C391.184 104.621 392.999 92.3651 393.098 80.4801C393.186 69.8371 392.942 68.0041 390.947 64.2701C389.709 61.9541 388.697 58.4671 388.697 56.5201C388.697 52.6931 386.848 51.6871 385.972 55.0371C385.598 56.4661 384.941 56.8871 383.816 56.4151C379.567 54.6371 372.984 54.7931 369.123 56.7631C361.406 60.7021 357.959 67.4121 355.398 83.4801C354.94 86.3521 352.697 73.2041 352.697 67.6481C352.697 63.6751 352.989 62.9801 354.662 62.9801C357.957 62.9801 359.099 59.1821 359.324 47.4801C359.441 41.4301 359.572 36.3471 359.617 36.1851C359.661 36.0221 361.159 36.1121 362.947 36.3851C364.735 36.6571 368.564 37.1441 371.458 37.4661ZM370.476 44.7301C369.916 46.8911 370.557 48.9801 371.78 48.9801C372.284 48.9801 372.697 47.6301 372.697 45.9801C372.697 42.7291 371.212 41.8931 370.476 44.7301ZM400.197 50.9801C399.415 53.4441 400.503 57.2181 401.769 56.4361C402.982 55.6861 402.978 48.9801 401.764 48.9801C401.251 48.9801 400.546 49.8801 400.197 50.9801ZM383.745 59.2331C390.004 63.4511 391.209 66.9311 391.104 80.4801C390.943 101.037 385.994 118.748 378.252 126.464C376.022 128.687 369.922 133.039 364.697 136.135C354.884 141.951 335.381 151.98 333.885 151.98C333.418 151.98 331.569 149.937 329.776 147.44L326.516 142.9L330.792 138.19C333.143 135.6 336.772 131.68 338.855 129.48C340.938 127.28 343.316 124.58 344.138 123.48C345.57 121.565 345.635 121.619 345.665 124.73C345.683 126.518 346.099 127.98 346.59 127.98C348.116 127.98 348.741 124.931 347.638 122.869C346.762 121.234 347.346 119.891 351.106 114.89C356.116 108.224 356.342 107.349 357.249 91.0791C358.003 77.5631 359.739 70.2111 363.503 64.6001C368.426 57.2601 377.318 54.9021 383.745 59.2331ZM403.697 68.4211C403.697 70.3141 404.096 72.1081 404.583 72.4091C405.593 73.0341 406.455 69.3521 405.912 66.7301C405.276 63.6521 403.697 64.8571 403.697 68.4211ZM98.3301 69.8981C100.054 70.9491 102.106 72.7261 102.891 73.8471C104.659 76.3711 108.723 77.9801 113.328 77.9801C117.668 77.9801 120.525 79.4451 121.743 82.2951C122.659 84.4371 122.672 84.4331 122.437 82.0801C122.03 78.0111 116.932 75.2561 109.437 75.0541C107.919 75.0131 105.894 74.0451 104.937 72.9011C103.01 70.5991 98.5111 67.9781 96.4971 67.9841C95.7821 67.9861 96.6071 68.8471 98.3301 69.8981ZM74.1161 71.8661C72.4211 72.9001 70.1091 75.0161 68.9781 76.5691C67.8391 78.1331 63.6361 80.9741 59.5591 82.9371C53.2191 85.9881 51.8851 87.0991 49.9471 90.9421C46.5691 97.6401 46.9681 100.286 52.1971 105.877C54.6721 108.523 56.7291 111.541 56.7671 112.584C56.8331 114.369 56.8841 114.363 57.6351 112.48C58.2541 110.931 57.5701 109.536 54.5991 106.289C49.8711 101.121 49.1051 98.3321 51.1041 93.5491C53.0011 89.0091 55.6701 86.7071 62.1971 83.9841C65.2971 82.6911 68.1471 80.5731 69.6971 78.4111C71.0721 76.4941 73.9971 73.8161 76.1971 72.4621C78.3971 71.1071 79.5221 69.9961 78.6971 69.9931C77.8721 69.9901 75.8111 70.8331 74.1161 71.8661ZM82.1971 73.4711C79.9971 74.2441 76.6221 76.6501 74.6971 78.8201C72.7721 80.9891 68.7141 83.9211 65.6791 85.3351C58.2031 88.8181 53.6881 93.6251 52.9881 98.8481C52.4641 102.752 52.6791 103.18 57.2631 107.39C61.7861 111.542 62.0151 111.987 60.8941 114.448C58.2691 120.209 60.7431 123.98 67.1481 123.98C70.2601 123.98 70.7361 124.228 69.7971 125.36C67.2331 128.449 60.5491 132.209 55.0831 133.636C29.1021 140.42 14.0411 158.637 4.69608 194.578C-1.41592 218.083 -1.56692 243.268 4.27308 265.048C6.20708 272.262 6.85209 277.302 7.01409 286.48C7.20009 297.023 7.53908 299.148 9.80208 303.98C13.3801 311.621 16.9181 315.466 23.0341 318.359C32.8131 322.986 44.8161 323.245 61.0291 319.18C71.1881 316.633 69.6451 318.115 59.1971 320.94C49.1951 323.644 41.6971 328.205 41.6971 331.584C41.6971 332.902 41.2471 333.98 40.6971 333.98C39.1571 333.98 39.5121 338.713 41.3181 342.28C42.2101 344.04 46.1481 348.905 50.0681 353.091C53.9891 357.277 58.5471 362.866 60.1971 365.511C62.2831 368.854 64.8461 371.239 68.6081 373.337C73.3101 375.96 75.1461 376.384 82.6081 376.574C90.0671 376.763 90.4731 376.694 85.6971 376.049L80.1971 375.306L86.4061 375.143C93.1631 374.966 99.3011 372.565 100.247 369.73C101.478 366.044 99.5571 363.849 91.8661 360.154L84.2171 356.48L81.4731 349.48C78.4681 341.815 78.2761 337.258 80.8881 335.623C82.1761 334.817 83.0561 334.995 84.5741 336.368C86.5211 338.13 86.8771 337.944 99.8821 328.344C107.205 322.938 114.322 317.489 115.697 316.235C117.072 314.981 125.018 308.898 133.355 302.718C154.53 287.02 168.047 274.955 170.777 269.315C172.691 265.36 172.898 263.738 172.365 256.832C172.028 252.467 170.909 246.987 169.877 244.655C168.133 240.711 163.471 235.777 160.484 234.713C159.552 234.381 159.788 233.597 161.342 231.867C169.106 223.226 169.987 214.078 162.678 217.99C160.551 219.128 160.188 217.85 159.346 206.273C158.906 200.226 158.978 200.003 162.156 197.579C168.866 192.461 174.925 179.772 171.319 178.388C170.427 178.046 169.697 176.689 169.697 175.373C169.697 173.339 169.209 172.981 166.447 172.984C163.037 172.988 156.697 176.227 156.697 177.965C156.697 180.291 154.616 178.721 153.197 175.326C152.358 173.317 151.789 171.581 151.934 171.468C152.079 171.355 154.202 170.637 156.652 169.871C159.847 168.874 161.643 167.556 163.003 165.215C165.417 161.057 164.643 158.98 160.679 158.98C156.249 158.98 152.174 161.415 150.717 164.933C149.227 168.529 148.618 168.684 146.883 165.906C145.091 163.036 139.481 160.873 135.759 161.618C131.697 162.43 131.813 164.731 136.127 168.912C139.042 171.738 140.241 172.223 144.12 172.145C148.238 172.062 148.838 172.352 150.264 175.11C152.106 178.672 151.674 179.573 148.848 178.061C146.23 176.66 142.136 176.683 139.381 178.115C136.163 179.788 136.164 179.783 138.653 182.433L140.95 184.878L138.574 185.387C137.266 185.667 126.857 187.718 115.441 189.945C104.025 192.172 92.7931 194.646 90.4801 195.443C88.1671 196.239 86.0811 196.697 85.8431 196.459C85.6051 196.222 85.5011 192.262 85.6121 187.66C85.8401 178.172 84.0561 169.252 80.1871 160.533C77.2151 153.835 77.3941 150.633 81.0541 145.078C83.2091 141.807 83.5461 141.673 89.8331 141.578C95.3761 141.495 97.0291 141.024 100.705 138.48C106.089 134.754 110.483 128.81 111.974 123.234C112.6 120.894 113.714 118.98 114.45 118.98C115.186 118.98 116.892 117.875 118.242 116.525C120.194 114.574 120.697 113.046 120.697 109.073C120.697 106.323 120.196 102.974 119.583 101.629C118.713 99.7191 118.835 98.0801 120.142 94.1461C121.637 89.6441 121.657 88.8041 120.331 86.2391C118.498 82.6941 114.914 80.9801 109.337 80.9801C105.87 80.9801 104.521 80.4011 102.134 77.8911C96.4391 71.9011 90.4541 70.5741 82.1971 73.4711ZM362.697 75.9801C362.697 78.1801 363.147 79.9801 363.697 79.9801C364.247 79.9801 364.697 78.1801 364.697 75.9801C364.697 73.7801 364.247 71.9801 363.697 71.9801C363.147 71.9801 362.697 73.7801 362.697 75.9801ZM379.697 78.9801C379.697 81.1801 380.095 82.9801 380.58 82.9801C381.79 82.9801 382.624 79.4191 381.987 76.9801C381.093 73.5631 379.697 74.7821 379.697 78.9801ZM426.697 81.9211C426.697 83.5391 427.134 85.1321 427.668 85.4621C428.829 86.1801 430.165 81.5471 429.232 80.0371C427.991 78.0291 426.697 78.9901 426.697 81.9211ZM415.145 81.2541C414.349 83.3281 414.915 86.0301 416.197 86.2831C417.591 86.5581 418.097 81.9801 416.814 80.6971C416.079 79.9621 415.577 80.1291 415.145 81.2541ZM400.263 88.5721C399.502 91.6071 400.439 95.2571 401.769 94.4361C402.956 93.7021 402.985 87.2761 401.804 86.5461C401.312 86.2421 400.619 87.1541 400.263 88.5721ZM345.697 88.4801C345.697 88.7551 345.922 88.9801 346.197 88.9801C346.472 88.9801 346.697 88.7551 346.697 88.4801C346.697 88.2051 346.472 87.9801 346.197 87.9801C345.922 87.9801 345.697 88.2051 345.697 88.4801ZM381.697 95.9211C381.697 97.5391 382.115 99.1201 382.625 99.4361C383.845 100.189 384.917 96.7181 384.113 94.6211C383.099 91.9781 381.697 92.7331 381.697 95.9211ZM362.697 98.4801C362.697 102.393 364.224 103.233 364.901 99.6921C365.422 96.9661 364.88 94.9801 363.614 94.9801C363.11 94.9801 362.697 96.5551 362.697 98.4801ZM422.145 97.2541C421.349 99.3281 421.915 102.03 423.197 102.283C424.591 102.558 425.097 97.9801 423.814 96.6971C423.079 95.9621 422.577 96.1291 422.145 97.2541ZM410.105 98.3581C409.288 100.489 409.974 103.24 411.447 103.73C412.263 104.002 412.697 103.097 412.697 101.122C412.697 97.7851 411.014 95.9901 410.105 98.3581ZM440.428 97.5821C439.311 98.7001 439.558 103.98 440.728 103.98C441.296 103.98 442.028 103.28 442.357 102.425C443.072 100.561 441.47 96.5401 440.428 97.5821ZM88.5161 108.887C88.9781 113.591 93.6491 115.356 104.041 114.754L111.902 114.299L111.274 118.222C108.831 133.504 93.4881 144.34 83.2521 138.014C79.8221 135.894 78.3101 133.501 76.8781 127.922C76.0311 124.625 76.1761 124.242 78.8481 122.708C82.6031 120.553 83.3541 118.372 81.4621 115.119C79.6371 111.98 80.4891 108.939 83.8571 106.581C86.9501 104.414 88.1351 105 88.5161 108.887ZM407.428 107.582C406.311 108.7 406.558 113.98 407.728 113.98C408.296 113.98 409.028 113.28 409.357 112.425C410.072 110.561 408.47 106.54 407.428 107.582ZM395.145 110.254C394.349 112.328 394.915 115.03 396.197 115.283C397.591 115.558 398.097 110.98 396.814 109.697C396.079 108.962 395.577 109.129 395.145 110.254ZM376.697 114.48C376.697 116.405 377.147 117.98 377.697 117.98C378.247 117.98 378.697 116.405 378.697 114.48C378.697 112.555 378.247 110.98 377.697 110.98C377.147 110.98 376.697 112.555 376.697 114.48ZM364.697 115.98C364.697 119.231 366.182 120.067 366.918 117.23C367.478 115.069 366.837 112.98 365.614 112.98C365.11 112.98 364.697 114.33 364.697 115.98ZM433.697 116.921C433.697 118.539 434.134 120.132 434.668 120.462C435.829 121.18 437.165 116.547 436.232 115.037C434.991 113.029 433.697 113.99 433.697 116.921ZM422.145 116.254C421.349 118.328 421.915 121.03 423.197 121.283C424.591 121.558 425.097 116.98 423.814 115.697C423.079 114.962 422.577 115.129 422.145 116.254ZM387.259 126.488C382.683 132.487 360.854 155.732 357.661 158.006L354.673 160.133L348.805 155.23L342.937 150.326L353.067 145.004C368.249 137.027 378.608 130.086 381.701 125.816C384.21 122.352 384.519 122.191 385.015 124.089C385.691 126.672 387.697 125.649 387.697 122.721C387.697 121.103 387.979 120.862 388.851 121.734C389.723 122.606 389.334 123.768 387.259 126.488ZM412.145 122.254C411.349 124.328 411.915 127.03 413.197 127.283C414.591 127.558 415.097 122.98 413.814 121.697C413.079 120.962 412.577 121.129 412.145 122.254ZM75.5231 130.578C76.1631 132.832 77.8081 135.887 79.1791 137.366L81.6711 140.056L78.7791 145.268C77.1891 148.134 75.5841 151.942 75.2131 153.73C74.4011 157.643 73.4821 157.793 70.8491 154.446C68.8881 151.953 63.2001 139.15 62.5361 135.737C62.1741 133.874 72.7081 124.571 73.7781 125.808C74.0981 126.178 74.8831 128.324 75.5231 130.578ZM356.697 133.98C356.697 136.069 357.122 137.005 357.947 136.73C358.635 136.501 359.197 135.263 359.197 133.98C359.197 132.697 358.635 131.459 357.947 131.23C357.122 130.955 356.697 131.891 356.697 133.98ZM63.2621 143.844C67.6521 154.735 71.0921 159.329 74.3871 158.699C76.5311 158.289 77.1211 158.881 79.1561 163.483C82.2591 170.499 83.6971 177.625 83.6971 185.98C83.6971 192.886 82.3351 201.349 80.8351 203.764C78.3151 207.819 69.7231 195.367 63.3111 178.371C59.9921 169.57 54.8601 163.431 48.2531 160.354C36.3751 154.823 24.8161 159.558 21.5931 171.275C19.9051 177.413 21.6751 184.466 28.1701 197.48C35.6471 212.462 42.8391 223.207 50.6911 231.126C56.3801 236.862 58.2141 238.059 64.0951 239.876C67.8421 241.033 71.4231 241.983 72.0521 241.986C72.6821 241.99 73.9381 243.294 74.8431 244.886L76.4881 247.779L66.3431 250.962C52.8541 255.194 32.6901 262.322 19.4431 267.541C12.8461 270.14 8.44808 271.386 8.06508 270.766C6.46408 268.177 3.64809 254.363 2.54809 243.707C1.05209 229.216 2.48008 211.101 6.31708 195.885C9.19708 184.466 16.2131 166.967 20.7431 159.908C24.5601 153.96 32.7421 146.204 39.1971 142.415C44.6441 139.217 56.3881 134.864 58.5441 135.243C59.2851 135.373 61.4081 139.244 63.2621 143.844ZM339.697 140.48C339.697 142.405 340.147 143.98 340.697 143.98C341.247 143.98 341.697 142.405 341.697 140.48C341.697 138.555 341.247 136.98 340.697 136.98C340.147 136.98 339.697 138.555 339.697 140.48ZM368.145 138.254C367.349 140.328 367.915 143.03 369.197 143.283C370.591 143.558 371.097 138.98 369.814 137.697C369.079 136.962 368.577 137.129 368.145 138.254ZM293.124 144.23C292.602 145.508 286.573 150.234 281.197 153.579C278.713 155.125 278.421 155.161 279.502 153.793C280.6 152.404 280.532 151.987 279.075 151.172C277.597 150.344 277.985 149.874 281.715 147.971C285.125 146.231 290.304 144.054 293.416 143.05C293.536 143.012 293.405 143.543 293.124 144.23ZM308.497 145.18C310.44 147.123 309.869 148.445 307.868 146.635C305.478 144.472 304.13 144.547 301.697 146.98C300.202 148.475 299.697 148.614 299.697 147.53C299.697 144.535 306.133 142.816 308.497 145.18ZM295.017 148.179C289.474 154.304 274.189 163.576 266.447 165.51C262.004 166.62 263.297 164.56 268.179 162.75C274.63 160.359 285.514 153.803 290.716 149.174C295.214 145.173 298.407 144.433 295.017 148.179ZM328.032 148.369C329.559 150.7 329.441 150.908 323.234 156.869C316.826 163.023 315.091 163.797 311.736 162.001C309.691 160.907 307.249 154.962 308.434 153.962C308.854 153.607 311.006 152.804 313.216 152.178C315.427 151.551 318.127 150.364 319.216 149.541C321.104 148.114 321.032 148.034 317.697 147.849C314.982 147.698 315.43 147.503 319.697 146.98C322.722 146.609 325.483 146.233 325.832 146.143C326.181 146.053 327.171 147.055 328.032 148.369ZM307.241 152.221C306.475 153.315 306.09 154.945 306.386 155.845C306.682 156.744 305.765 156.13 304.347 154.48C301.278 150.909 301.224 150.596 303.316 148.504C304.808 147.012 305.08 147.017 306.784 148.559C308.405 150.026 308.461 150.478 307.241 152.221ZM313.549 171.031C316.963 175.953 318.565 179.161 318.149 180.243C317.1 182.979 304.281 192.745 296.998 196.357C290.122 199.768 282.831 202.472 282.243 201.83C281.499 201.016 266.697 170.937 266.697 170.237C266.697 169.815 269.438 168.407 272.788 167.108C279.443 164.527 291.779 156.673 295.621 152.569C298.762 149.215 297.427 149.203 293.903 152.553C287.491 158.65 270.712 167.995 266.225 167.968C265.11 167.961 267.741 166.408 272.073 164.517C280.791 160.711 284.8 158.241 292.13 152.155L297.063 148.06L302.687 155.77C305.78 160.011 310.668 166.878 313.549 171.031ZM311.697 150.48C311.697 150.755 311.472 150.98 311.197 150.98C310.922 150.98 310.697 150.755 310.697 150.48C310.697 150.205 310.922 149.98 311.197 149.98C311.472 149.98 311.697 150.205 311.697 150.48ZM356.428 150.582C355.311 151.7 355.558 156.98 356.728 156.98C357.296 156.98 358.028 156.28 358.357 155.425C359.072 153.561 357.47 149.54 356.428 150.582ZM276.17 152.024C275.815 152.598 276.049 153.699 276.689 154.47C277.639 155.615 276.72 156.444 271.69 158.983C262.247 163.75 260.963 162.378 269.096 156.211C276.133 150.875 277.31 150.179 276.17 152.024ZM351.697 160.619C351.697 160.878 349.879 163.766 347.658 167.037C342.996 173.902 340.274 175.967 334.985 176.648C330.994 177.162 323.48 175.13 323.536 173.552C323.553 173.041 326.365 171.611 329.783 170.373C333.202 169.135 336.944 167.175 338.098 166.017L340.197 163.911L334.447 164.583C331.284 164.953 328.697 164.975 328.697 164.632C328.697 164.289 331.284 162.702 334.447 161.104C337.61 159.506 341.045 157.26 342.082 156.112L343.966 154.025L347.832 157.087C349.958 158.77 351.697 160.36 351.697 160.619ZM45.1971 161.082C51.8361 162.892 58.6201 170.792 62.0581 180.717C67.7441 197.13 77.4041 209.009 90.6701 215.898C102.102 221.836 108.987 223.37 124.447 223.429L137.697 223.48V229.602V235.724L133.947 236.315C97.5381 242.045 72.8201 242.072 61.0191 236.395C51.7441 231.932 40.7371 218.035 30.9441 198.423C21.7991 180.107 20.7671 172.616 26.4581 165.852C31.0511 160.394 37.0621 158.864 45.1971 161.082ZM315.682 168.289C315.669 170.07 315.485 170.199 314.697 168.98C313.424 167.01 313.424 164.693 314.697 165.48C315.247 165.82 315.69 167.084 315.682 168.289ZM269.697 170.911C269.697 172.585 282.079 196.98 282.928 196.98C284.435 196.98 283.62 194.796 277.729 183.043C272.234 172.082 269.697 168.25 269.697 170.911ZM170.697 180.512C170.697 183.763 161.83 196.98 159.649 196.98C158.821 196.98 158.412 195.739 157.172 189.457C156.875 187.951 157.593 187.079 159.985 186.043C161.752 185.278 164.547 183.606 166.197 182.327C169.115 180.066 170.697 179.428 170.697 180.512ZM319.108 184.09C318.057 185.258 315.172 187.564 312.697 189.215C308.469 192.036 308.56 191.884 314.197 186.706C320.013 181.363 322.989 179.778 319.108 184.09ZM273.254 189.092C274.671 191.89 275.658 194.352 275.446 194.565C274.955 195.055 239.627 188.244 238.903 187.519C237.461 186.077 240.936 185.445 252.844 184.983C259.986 184.707 266.92 184.373 268.253 184.242C270.254 184.046 271.125 184.89 273.254 189.092ZM143.697 186.98C143.697 187.53 143.499 187.98 143.256 187.98C143.013 187.98 142.537 187.53 142.197 186.98C141.857 186.43 142.056 185.98 142.638 185.98C143.22 185.98 143.697 186.43 143.697 186.98ZM154.072 189.105C154.925 193.371 154.859 198.771 153.947 199.283C153.535 199.514 152.011 199.986 150.561 200.332C148.57 200.807 147.802 200.535 147.42 199.22C147.142 198.263 146.19 195.806 145.305 193.76L143.695 190.039L147.946 188.046C153.444 185.469 153.341 185.451 154.072 189.105ZM143.068 193.73C144.584 197.442 146.074 201.273 146.38 202.243C146.836 203.687 144.433 205.196 133.067 210.601C111.372 220.917 111.179 220.977 104.697 219.347C98.5961 217.813 85.4291 211.446 83.1511 208.929C81.9011 207.548 81.8811 206.75 83.0171 203.47C84.0831 200.391 85.1251 199.348 88.2721 198.208C91.1471 197.167 135.42 187.569 139.755 187.047C140.062 187.01 141.553 190.018 143.068 193.73ZM227.254 189.917C225.436 191.926 225.864 193.98 228.101 193.98C229.94 193.98 233.017 190.306 232.236 189.043C231.23 187.415 229.195 187.773 227.254 189.917ZM216.268 190.551C214.27 192.55 214.273 193.88 216.28 194.65C218.188 195.383 222.239 191.665 221.259 190.081C220.29 188.513 218.1 188.72 216.268 190.551ZM307.697 192.421C307.697 192.664 307.177 193.183 306.542 193.575C305.827 194.018 305.659 193.85 306.102 193.135C306.814 191.982 307.697 191.587 307.697 192.421ZM230.947 195.065C228.681 195.922 227.703 199.98 229.763 199.98C231.762 199.98 234.697 197.913 234.697 196.504C234.697 194.52 233.552 194.081 230.947 195.065ZM304.697 194.421C304.697 194.664 304.177 195.183 303.542 195.575C302.827 196.018 302.659 195.85 303.102 195.135C303.814 193.982 304.697 193.587 304.697 194.421ZM210.897 196.18C210.237 196.84 209.697 198.09 209.697 198.958C209.697 199.826 208.797 201.306 207.697 202.248C205.495 204.134 205.049 207.461 206.849 208.574C208.451 209.564 210.895 205.914 210.278 203.451C209.92 202.023 210.425 201.135 211.984 200.451C214.472 199.359 215.659 194.98 213.467 194.98C212.713 194.98 211.557 195.52 210.897 196.18ZM220.767 196.849C219.698 198.847 220.25 199.98 222.292 199.98C223.76 199.98 226.697 197.265 226.697 195.909C226.697 194.177 221.78 194.957 220.767 196.849ZM301.697 196.48C301.697 196.755 301.472 196.98 301.197 196.98C300.922 196.98 300.697 196.755 300.697 196.48C300.697 196.205 300.922 195.98 301.197 195.98C301.472 195.98 301.697 196.205 301.697 196.48ZM223.697 197.48C223.697 197.755 223.472 197.98 223.197 197.98C222.922 197.98 222.697 197.755 222.697 197.48C222.697 197.205 222.922 196.98 223.197 196.98C223.472 196.98 223.697 197.205 223.697 197.48ZM231.697 197.48C231.697 197.755 231.472 197.98 231.197 197.98C230.922 197.98 230.697 197.755 230.697 197.48C230.697 197.205 230.922 196.98 231.197 196.98C231.472 196.98 231.697 197.205 231.697 197.48ZM299.697 197.48C299.697 197.755 299.472 197.98 299.197 197.98C298.922 197.98 298.697 197.755 298.697 197.48C298.697 197.205 298.922 196.98 299.197 196.98C299.472 196.98 299.697 197.205 299.697 197.48ZM212.697 198.48C212.697 198.755 212.472 198.98 212.197 198.98C211.922 198.98 211.697 198.755 211.697 198.48C211.697 198.205 211.922 197.98 212.197 197.98C212.472 197.98 212.697 198.205 212.697 198.48ZM297.697 198.48C297.697 198.755 297.472 198.98 297.197 198.98C296.922 198.98 296.697 198.755 296.697 198.48C296.697 198.205 296.922 197.98 297.197 197.98C297.472 197.98 297.697 198.205 297.697 198.48ZM295.697 199.48C295.697 199.755 295.472 199.98 295.197 199.98C294.922 199.98 294.697 199.755 294.697 199.48C294.697 199.205 294.922 198.98 295.197 198.98C295.472 198.98 295.697 199.205 295.697 199.48ZM216.447 201.06C214.523 202.181 214.094 205.489 215.741 206.507C217.339 207.495 219.697 205.021 219.697 202.358C219.697 199.757 219.096 199.517 216.447 201.06ZM224.313 201.507C222.416 203.404 222.222 205.568 223.859 206.58C225.163 207.386 228.961 203.272 228.417 201.641C227.829 199.876 226.003 199.817 224.313 201.507ZM293.697 200.48C293.697 200.755 293.472 200.98 293.197 200.98C292.922 200.98 292.697 200.755 292.697 200.48C292.697 200.205 292.922 199.98 293.197 199.98C293.472 199.98 293.697 200.205 293.697 200.48ZM155.697 207.98C155.697 213.567 155.391 214.98 154.182 214.98C153.349 214.98 150.308 216.311 147.425 217.938C142.713 220.597 140.962 220.965 130.087 221.58C122.33 222.018 117.768 221.904 117.37 221.26C117.027 220.704 119.747 219.006 123.474 217.45C135.245 212.534 149.421 205.141 150.008 203.613C150.32 202.8 151.615 201.937 152.886 201.694C154.157 201.451 155.31 201.191 155.447 201.116C155.584 201.041 155.697 204.13 155.697 207.98ZM289.697 202.48C288.322 203.266 286.297 203.891 285.197 203.868C283.887 203.842 284.405 203.363 286.697 202.48C291.324 200.698 292.814 200.698 289.697 202.48ZM230.686 204.001C229.595 206.04 230.081 207.98 231.685 207.98C233.062 207.98 235.697 204.978 235.697 203.409C235.697 201.25 231.919 201.697 230.686 204.001ZM217.697 203.48C217.697 203.755 217.472 203.98 217.197 203.98C216.922 203.98 216.697 203.755 216.697 203.48C216.697 203.205 216.922 202.98 217.197 202.98C217.472 202.98 217.697 203.205 217.697 203.48ZM233.697 204.48C233.697 204.755 233.472 204.98 233.197 204.98C232.922 204.98 232.697 204.755 232.697 204.48C232.697 204.205 232.922 203.98 233.197 203.98C233.472 203.98 233.697 204.205 233.697 204.48ZM208.697 205.48C208.697 205.755 208.472 205.98 208.197 205.98C207.922 205.98 207.697 205.755 207.697 205.48C207.697 205.205 207.922 204.98 208.197 204.98C208.472 204.98 208.697 205.205 208.697 205.48ZM211.897 208.18C210.194 209.883 210.381 213.98 212.162 213.98C214.044 213.98 215.869 210.592 215.086 208.552C214.364 206.669 213.508 206.569 211.897 208.18ZM219.655 209.058C218.343 211.51 219.047 213.98 221.059 213.98C222.616 213.98 223.697 211.898 223.697 208.898C223.697 206.344 221.052 206.448 219.655 209.058ZM226.482 211.552C225.539 213.622 225.585 214.293 226.72 214.994C228.643 216.183 230.697 214.304 230.697 211.358C230.697 208.146 227.977 208.272 226.482 211.552ZM205.001 210.792C203.159 211.93 201.759 216.465 202.757 218.063C204.079 220.183 207.122 217.914 207.525 214.507C207.896 211.378 206.76 209.705 205.001 210.792ZM221.697 210.48C221.697 210.755 221.472 210.98 221.197 210.98C220.922 210.98 220.697 210.755 220.697 210.48C220.697 210.205 220.922 209.98 221.197 209.98C221.472 209.98 221.697 210.205 221.697 210.48ZM228.697 212.48C228.697 212.755 228.472 212.98 228.197 212.98C227.922 212.98 227.697 212.755 227.697 212.48C227.697 212.205 227.922 211.98 228.197 211.98C228.472 211.98 228.697 212.205 228.697 212.48ZM205.364 215.647C204.997 216.013 204.697 215.713 204.697 214.98C204.697 214.247 204.997 213.947 205.364 214.313C205.73 214.68 205.73 215.28 205.364 215.647ZM209.002 217.197C207.15 219.587 206.83 221.779 208.083 223.494C209.26 225.103 209.433 225.101 211.069 223.465C212.925 221.609 212.944 216.879 211.097 216.274C210.492 216.076 209.549 216.491 209.002 217.197ZM216.732 217.914C215.265 220.655 215.45 223.671 217.124 224.314C219.461 225.211 221.121 222.25 220.815 217.73C220.657 215.383 218.023 215.502 216.732 217.914ZM224.897 217.18C223.222 218.855 223.398 222.651 225.182 223.336C227.2 224.11 228.667 221.027 227.611 218.23C226.627 215.625 226.501 215.576 224.897 217.18ZM151.697 220.48C149.621 222.621 148.866 223.975 149.751 223.968C152.008 223.95 161.047 221.398 163.493 220.089C166.192 218.645 166.351 219.784 164.08 224.28C160.112 232.132 155.367 234.98 146.247 234.98H139.697V228.98C139.697 224.584 140.061 222.98 141.059 222.98C141.808 222.98 144.845 221.654 147.809 220.033C154.913 216.147 155.798 216.249 151.697 220.48ZM210.697 220.48C210.697 221.305 210.261 221.98 209.728 221.98C209.196 221.98 209.019 221.305 209.335 220.48C209.652 219.655 210.088 218.98 210.304 218.98C210.52 218.98 210.697 219.655 210.697 220.48ZM219.059 220.48C218.742 221.305 218.306 221.98 218.09 221.98C217.874 221.98 217.697 221.305 217.697 220.48C217.697 219.655 218.133 218.98 218.666 218.98C219.198 218.98 219.375 219.655 219.059 220.48ZM226.364 220.647C225.997 221.013 225.697 220.713 225.697 219.98C225.697 219.247 225.997 218.947 226.364 219.313C226.73 219.68 226.73 220.28 226.364 220.647ZM155.697 220.48C155.697 220.755 155.472 220.98 155.197 220.98C154.922 220.98 154.697 220.755 154.697 220.48C154.697 220.205 154.922 219.98 155.197 219.98C155.472 219.98 155.697 220.205 155.697 220.48ZM200.137 224.431C198.221 227.356 198.574 230.333 200.891 230.779C203.064 231.197 205.035 227.462 204.263 224.387C203.493 221.318 202.167 221.333 200.137 224.431ZM202.297 227.58C201.941 228.507 201.425 229.041 201.15 228.766C200.875 228.491 200.941 227.507 201.297 226.58C201.653 225.653 202.169 225.119 202.444 225.394C202.719 225.669 202.653 226.653 202.297 227.58ZM223.323 227.513C222.309 230.155 222.6 232.655 224.064 233.87C225.992 235.47 227.934 232.902 227.519 229.299C227.158 226.161 224.307 224.947 223.323 227.513ZM214.331 228.832C212.375 230.993 212.142 235.98 213.997 235.98C216.11 235.98 217.697 233.774 217.697 230.839C217.697 227.32 216.399 226.547 214.331 228.832ZM205.313 229.507C203.224 231.596 203.239 234.867 205.342 235.674C207.351 236.445 209.894 233.31 209.485 230.566C209.1 227.985 207.293 227.526 205.313 229.507ZM225.38 231.168C225.061 231.965 224.824 231.728 224.776 230.563C224.733 229.509 224.969 228.919 225.301 229.251C225.633 229.583 225.669 230.446 225.38 231.168ZM206.88 233.197C206.163 233.914 205.697 233.973 205.697 233.347C205.697 232.012 206.88 230.829 207.547 231.497C207.831 231.781 207.531 232.546 206.88 233.197ZM215.38 233.168C215.061 233.965 214.824 233.728 214.776 232.563C214.733 231.509 214.969 230.919 215.301 231.251C215.633 231.583 215.669 232.446 215.38 233.168ZM198.544 235.416C197.24 238.278 198.01 240.98 200.13 240.98C202.137 240.98 203.958 237.379 203.185 234.942C202.325 232.234 199.88 232.483 198.544 235.416ZM200.88 238.197C200.163 238.914 199.697 238.973 199.697 238.347C199.697 237.012 200.88 235.829 201.547 236.497C201.831 236.781 201.531 237.546 200.88 238.197ZM222.747 237.42C221.047 239.469 221.825 244.392 223.911 244.788C225.911 245.167 227.244 241.279 226.22 238.052C225.447 235.618 224.4 235.428 222.747 237.42ZM204.272 239.898C202.18 242.209 202.544 246.335 204.88 246.78C207.065 247.196 209.037 243.47 208.263 240.387C207.533 237.479 206.567 237.361 204.272 239.898ZM213.002 239.197C211.09 241.663 210.846 243.8 212.266 245.633C213.652 247.422 213.746 247.417 215.239 245.481C216.93 243.29 216.842 238.846 215.097 238.274C214.492 238.076 213.549 238.491 213.002 239.197ZM224.359 242.23C224.082 242.918 223.855 242.355 223.855 240.98C223.855 239.605 224.082 239.043 224.359 239.73C224.637 240.418 224.637 241.543 224.359 242.23ZM205.88 243.197C205.163 243.914 204.697 243.973 204.697 243.347C204.697 242.012 205.88 240.829 206.547 241.497C206.831 241.781 206.531 242.546 205.88 243.197ZM214.697 242.48C214.697 243.305 214.261 243.98 213.728 243.98C213.196 243.98 213.019 243.305 213.335 242.48C213.652 241.655 214.088 240.98 214.304 240.98C214.52 240.98 214.697 241.655 214.697 242.48ZM535.404 252.218C535.165 253.462 534.96 252.68 534.949 250.48C534.938 248.28 535.134 247.262 535.384 248.218C535.634 249.174 535.643 250.974 535.404 252.218ZM517.171 250.93C518.01 252.553 518.697 255.88 518.697 258.323C518.697 263.315 517.864 263.98 511.615 263.98H507.697V256.543V249.107L510.947 248.703C512.735 248.482 514.523 248.228 514.921 248.14C515.32 248.052 516.332 249.308 517.171 250.93ZM536.404 264.218C536.165 265.462 535.96 264.68 535.949 262.48C535.938 260.28 536.134 259.262 536.384 260.218C536.634 261.174 536.643 262.974 536.404 264.218ZM195.62 263.903C192.179 267.344 191.995 269.316 194.701 273.754C197.222 277.89 197.203 278.321 194.56 276.907C191.644 275.346 185.905 276.436 183.084 279.086C179.948 282.032 180.863 282.979 185.668 281.759C190.028 280.653 195.442 281.306 197.955 283.243C198.842 283.926 199.847 286.72 200.2 289.48C200.552 292.23 200.47 294.004 200.018 293.422C196.499 288.888 188.531 287.672 181.915 290.658L178.197 292.336L184.697 292.975C192.784 293.77 196.467 295.507 199.445 299.93C203.422 305.839 202.662 306.393 189.509 307.166C175.481 307.991 168.095 309.268 162.147 311.899C158.316 313.594 157.697 314.282 157.697 316.847C157.697 318.575 158.759 321.089 160.226 322.833C162.292 325.287 163.447 329.291 166.522 344.651C170.205 363.043 170.361 363.511 173.511 365.634C183.16 372.136 225.676 371.808 233.655 365.17C235.249 363.843 236.521 359.311 239.571 344.087C242.251 330.707 243.934 324.427 245.001 323.83C245.851 323.354 247.093 321.311 247.76 319.289C248.896 315.846 248.809 315.473 246.37 313.375C242.52 310.063 226.412 307.036 212.447 307C203.116 306.976 202.661 306.007 209.343 300.387C214.942 295.679 216.112 295.141 220.947 295.05C225.071 294.973 225.607 294.089 222.947 291.753C218.41 287.769 211.738 288.892 206.848 294.461L203.899 297.819L203.329 295.15C202.851 292.913 203.518 291.774 207.442 288.124C212.736 283.199 215.297 281.98 220.345 281.98C224.777 281.98 224.384 280.292 219.344 277.676C215.77 275.822 215.426 275.812 211.168 277.438C206.886 279.073 202.723 283.336 202.673 286.134C202.629 288.651 197.444 275.5 196.955 271.631C196.59 268.743 196.996 267.067 198.582 264.921C199.745 263.348 200.697 261.818 200.697 261.52C200.697 260.118 198.263 261.26 195.62 263.903ZM537.415 276.716C537.185 278.236 536.991 277.23 536.983 274.48C536.976 271.73 537.164 270.486 537.401 271.716C537.638 272.946 537.644 275.196 537.415 276.716ZM538.43 296.204C538.219 298.556 538.043 296.88 538.04 292.48C538.036 288.08 538.209 286.156 538.424 288.204C538.639 290.252 538.642 293.852 538.43 296.204ZM201.507 310.73C201.278 311.92 199.895 312.664 197.184 313.055C194.991 313.371 190.854 314.482 187.991 315.524C183.468 317.17 182.187 317.258 178.227 316.199C171.664 314.444 170.097 314.66 167.945 317.614C166.146 320.084 165.851 320.162 163.186 318.864C161.623 318.103 160.168 316.937 159.952 316.272C159.402 314.583 165.042 312.437 173.781 311.01C177.86 310.345 181.872 309.668 182.697 309.506C183.522 309.344 188.167 309.16 193.02 309.096C200.919 308.992 201.808 309.163 201.507 310.73ZM235.431 311.469C239.409 312.384 243.661 313.94 244.88 314.927L247.097 316.722L243.845 318.403C240.662 320.049 240.466 320.021 234.486 317.032C227.627 313.605 225.48 313.396 217.884 315.418C210.725 317.323 205.364 315.704 204.866 311.485L204.535 308.678L216.366 309.241C222.873 309.551 231.452 310.553 235.431 311.469ZM80.6731 332.063C80.7131 333.038 73.3101 338.651 71.0271 339.375C67.9781 340.343 64.3171 334.981 64.0881 329.212C63.9931 326.821 63.6091 324.559 63.2361 324.185C62.8621 323.812 64.2761 322.747 66.3771 321.819L70.1971 320.131L75.4231 325.805C78.2971 328.926 80.6591 331.742 80.6731 332.063ZM182.703 325.069C201.857 327.074 230.589 325.323 242.962 321.396C244.213 320.999 244.709 321.151 244.304 321.807C242.281 325.08 222.733 327.98 202.697 327.98C181.635 327.98 164.923 325.367 161.783 321.583C161.045 320.695 162.357 320.851 166.018 322.087C168.935 323.072 176.444 324.414 182.703 325.069ZM178.193 328.633C190.863 330.567 224.99 329.963 234.189 327.642C237.484 326.81 240.332 326.282 240.518 326.467C240.703 326.653 239.265 334.822 237.322 344.622C233.534 363.728 233.297 364.207 226.728 365.967C220.067 367.751 204.194 369.08 196.697 368.48C185.946 367.62 175.178 365.173 173.409 363.188C172.573 362.248 170.467 354.28 168.73 345.48C166.994 336.68 165.324 328.624 165.02 327.579C164.574 326.05 164.831 325.817 166.328 326.392C167.352 326.785 172.691 327.794 178.193 328.633ZM42.3641 336.647C41.9971 337.013 41.6971 336.713 41.6971 335.98C41.6971 335.247 41.9971 334.947 42.3641 335.313C42.7301 335.68 42.7301 336.28 42.3641 336.647ZM426.697 344.031V351.082L423.229 352.531C419.498 354.09 414.878 354.402 413.091 353.215C411.479 352.144 410.542 345.802 411.298 341.076L411.953 336.98H419.325H426.697V344.031ZM43.6971 338.48C43.6971 338.755 43.4721 338.98 43.1971 338.98C42.9221 338.98 42.6971 338.755 42.6971 338.48C42.6971 338.205 42.9221 337.98 43.1971 337.98C43.4721 337.98 43.6971 338.205 43.6971 338.48ZM76.7211 341.23C76.7401 343.09 78.4801 347.87 82.3631 356.73C82.6641 357.418 82.3881 357.98 81.7491 357.98C81.1101 357.98 79.4921 355.504 78.1531 352.477C75.2421 345.895 73.9181 338.98 75.5691 338.98C76.1891 338.98 76.7081 339.992 76.7211 341.23ZM59.6971 356.237C59.6971 356.9 46.4691 343.959 44.6551 341.521C43.8531 340.444 46.9101 343.205 51.4471 347.657C55.9841 352.11 59.6971 355.971 59.6971 356.237ZM75.3821 350.728C77.1341 355.521 78.3911 359.619 78.1751 359.835C77.9601 360.051 77.0691 359.953 76.1951 359.618C74.2081 358.855 72.1641 354.052 70.9241 347.229C69.4161 338.932 71.7371 340.753 75.3821 350.728ZM60.6971 358.48C60.6971 358.755 60.4721 358.98 60.1971 358.98C59.9221 358.98 59.6971 358.755 59.6971 358.48C59.6971 358.205 59.9221 357.98 60.1971 357.98C60.4721 357.98 60.6971 358.205 60.6971 358.48ZM61.6971 360.48C61.6971 360.755 61.4721 360.98 61.1971 360.98C60.9221 360.98 60.6971 360.755 60.6971 360.48C60.6971 360.205 60.9221 359.98 61.1971 359.98C61.4721 359.98 61.6971 360.205 61.6971 360.48ZM62.6971 362.48C62.6971 362.755 62.4721 362.98 62.1971 362.98C61.9221 362.98 61.6971 362.755 61.6971 362.48C61.6971 362.205 61.9221 361.98 62.1971 361.98C62.4721 361.98 62.6971 362.205 62.6971 362.48ZM71.6361 371.452C73.8811 372.465 75.5301 373.481 75.3001 373.71C74.7421 374.268 68.6651 371.15 66.3541 369.121C65.3411 368.231 64.0671 366.597 63.5231 365.491C62.9801 364.385 63.6641 364.86 65.0441 366.546C66.4241 368.232 69.3901 370.44 71.6361 371.452ZM426.961 370.684C425.731 370.921 423.481 370.927 421.961 370.698C420.441 370.468 421.447 370.274 424.197 370.266C426.947 370.259 428.191 370.447 426.961 370.684ZM413.447 371.696C411.935 371.925 409.459 371.925 407.947 371.696C406.435 371.467 407.672 371.28 410.697 371.28C413.722 371.28 414.959 371.467 413.447 371.696ZM395.947 372.703C394.159 372.925 391.235 372.925 389.447 372.703C387.659 372.482 389.122 372.3 392.697 372.3C396.272 372.3 397.735 372.482 395.947 372.703ZM79.4261 374.584C79.0941 374.916 78.2311 374.952 77.5101 374.663C76.7121 374.344 76.9491 374.107 78.1141 374.059C79.1681 374.016 79.7581 374.252 79.4261 374.584Z" fill="#017260"/>
<path fill-rule="evenodd" clip-rule="evenodd" d="M322.106 2.17209C312.233 5.81509 301.812 19.6561 301.847 29.0811C301.881 38.2511 308.24 56.3381 314.428 64.8641C318.409 70.3511 325.577 74.3911 332.587 75.1021L337.331 75.5821L332.331 74.2611C323.26 71.8641 317.98 67.8841 314.359 60.7151L312.659 57.3481L315.995 59.8501C320.664 63.3521 326.474 66.0761 332.331 67.5091C340.105 69.4101 343.114 71.7891 346.199 78.4711C347.852 82.0521 350.355 85.5061 352.459 87.1111L355.965 89.7851L355.271 98.9331C354.89 103.964 354.155 108.895 353.638 109.889C352.277 112.508 335.948 131.225 329.948 137.043C327.134 139.773 324.831 142.758 324.831 143.677C324.831 144.994 323.467 145.494 318.39 146.038C312.621 146.656 311.622 146.486 308.823 144.417L305.697 142.106L301.732 144.278C297.834 146.413 297.746 146.417 296.558 144.516C295.894 143.452 294.297 142.581 293.009 142.581C288.236 142.581 268.406 154.046 262.873 160.005L260.415 162.653L265.123 172.13C267.712 177.343 269.831 181.994 269.831 182.466C269.831 182.939 262.181 183.652 252.831 184.052C239.788 184.61 235.831 185.086 235.831 186.098C235.831 188.807 237.107 190.581 239.055 190.581C240.161 190.581 249.494 192.2 259.796 194.178L278.527 197.775L280.666 202.178C281.852 204.619 283.508 206.581 284.384 206.581C290.949 206.581 322.831 186.528 322.831 182.398C322.831 181.875 321.65 179.9 320.207 178.008C318.635 175.946 317.381 172.767 317.077 170.071C316.62 166.012 316.851 165.357 319.451 163.343C321.035 162.116 324.39 159.205 326.907 156.873C330.387 153.648 331.762 152.912 332.647 153.797C333.532 154.682 334.686 154.544 337.467 153.217C339.932 152.042 341.453 151.803 342.135 152.485C343.658 154.008 341.266 156.332 334.831 159.581C326.15 163.963 324.721 166.89 330.831 167.773C332.815 168.06 332.093 168.559 327.331 170.191C322.806 171.742 321.331 172.718 321.331 174.16C321.331 176.851 327.869 178.842 335.082 178.347C341.625 177.899 344.636 175.676 349.976 167.355C351.722 164.634 353.794 162.581 354.794 162.581C356.659 162.581 376.744 142.46 385.739 131.581C388.695 128.006 391.538 124.918 392.057 124.719C392.576 124.52 395.357 126.789 398.235 129.761C403.082 134.765 403.557 135.694 404.65 142.316C406.705 154.76 406.097 167.413 402.375 189.642C397.192 220.601 396.232 233.35 397.694 251.757C399.404 273.275 399.968 277.581 401.077 277.581C401.611 277.581 401.802 276.569 401.502 275.331C401.201 274.093 400.404 264.922 399.729 254.951C398.087 230.677 398.593 225.191 407.386 171.833C408.398 165.69 407.834 147.074 406.462 141.318L405.087 135.555L407.709 135.049C425.381 131.644 436.474 127.235 445.05 120.208C454.787 112.229 454.874 107.633 445.604 91.0811C435.436 72.9261 415.707 53.1841 400.513 45.9611C397.86 44.6991 395.328 42.0891 392.213 37.4031C386.395 28.6511 373.953 17.1521 364.37 11.6691C348.907 2.82209 331.156 -1.16691 322.106 2.17209ZM332.759 22.0441C335.959 23.6981 337.156 25.9801 336.278 28.7481C335.82 30.1911 336.375 30.8751 338.648 31.6671C341.304 32.5931 341.686 33.2681 342.29 38.1001C344.011 51.8711 333.83 57.1201 319.17 50.0211C313.743 47.3921 306.048 39.8901 307.487 38.6301C307.951 38.2241 311.078 36.8921 314.435 35.6691C317.792 34.4471 322.178 32.0951 324.182 30.4431C327.294 27.8781 327.669 27.1471 326.751 25.4321C324.425 21.0851 327.524 19.3371 332.759 22.0441ZM351.476 35.2281L358.033 36.8751L357.672 48.4781C357.473 54.8601 356.927 60.6821 356.459 61.4161C355.821 62.4171 354.45 61.5221 350.97 57.8301C348.418 55.1231 345.254 52.1851 343.937 51.3001C341.731 49.8171 341.643 49.4501 342.814 46.6221C343.631 44.6491 343.849 41.7741 343.424 38.5671C342.663 32.8341 342.393 32.9461 351.476 35.2281ZM379.512 39.1211C387.737 41.1321 402.17 47.8241 410.19 53.3451C418.27 58.9071 429.991 70.5391 437.044 79.9951C443.205 88.2561 451.831 104.708 451.831 108.197C451.831 111.188 445.231 118.366 438.451 122.748C431.843 127.019 416.716 132.266 408.605 133.1L403.331 133.643L395.035 125.624L386.739 117.606L388.711 110.844C391.823 100.172 393.051 89.9801 392.677 77.9111C392.373 68.0921 392.049 66.3611 390 63.5931C388.718 61.8611 387.917 59.8001 388.219 59.0141C388.52 58.2271 388.36 56.5701 387.863 55.3321C387.004 53.1971 386.955 53.2281 386.894 55.9381C386.843 58.2541 386.5 58.6601 385.081 58.0801C379.652 55.8601 376.273 55.4321 372.683 56.5071C364.384 58.9941 359.84 65.4561 356.909 78.9411L355.14 87.0811L353.985 81.7821C353.351 78.8671 352.831 73.3971 352.831 69.6251C352.831 63.2811 352.979 62.8071 354.813 63.2871C357.817 64.0721 358.831 60.0571 358.831 47.3711V36.2911L365.762 36.8721C369.574 37.1921 375.762 38.2041 379.512 39.1211ZM370.831 46.5811C370.831 48.4051 371.246 49.4431 371.831 49.0811C372.381 48.7411 372.831 47.6161 372.831 46.5811C372.831 45.5461 372.381 44.4211 371.831 44.0811C371.246 43.7191 370.831 44.7571 370.831 46.5811ZM400.846 52.8901C400.837 55.1781 401.23 56.4521 401.831 56.0811C403.095 55.3001 403.095 52.5371 401.831 50.5811C401.111 49.4681 400.858 50.0621 400.846 52.8901ZM385.155 60.0581C386.573 60.9871 388.655 63.6511 389.782 65.9801C393.687 74.0471 391.967 98.8501 386.447 114.057C383.04 123.445 379.711 127.703 371.519 133.15C363.467 138.504 333.977 154.06 333.252 153.336C332.995 153.079 331.252 150.713 329.379 148.078L325.973 143.288L336.17 132.184C347.245 120.125 352.951 113.269 354.659 109.971C355.26 108.81 356.227 101.16 356.809 92.9711C357.907 77.4911 359.382 70.6611 362.833 65.0781C367.702 57.1991 377.447 55.0071 385.155 60.0581ZM403.831 68.5221C403.831 70.1401 404.281 71.7411 404.831 72.0811C405.426 72.4491 405.831 71.2581 405.831 69.1401C405.831 67.1831 405.381 65.5811 404.831 65.5811C404.281 65.5811 403.831 66.9041 403.831 68.5221ZM102.316 73.2681C105.391 76.4351 106.748 77.0561 111.922 77.6661C115.468 78.0841 118.765 79.1161 119.932 80.1731C121.514 81.6041 121.796 81.6531 121.319 80.4101C120.481 78.2261 116.426 76.5811 111.879 76.5811C108.934 76.5811 107.028 75.7521 103.831 73.0811C98.4111 68.5531 97.8091 68.6271 102.316 73.2681ZM83.9261 74.0881C81.2831 74.9121 77.6831 77.2631 74.9261 79.9641C72.3991 82.4401 68.3061 85.3381 65.8311 86.4031C60.3371 88.7681 54.1601 94.8061 53.3191 98.6341C52.5351 102.204 53.9031 104.772 58.4311 108.225C62.0551 110.989 62.4561 112.952 60.3831 117.787C59.8811 118.957 60.4871 120.328 62.3151 122.155C64.4941 124.334 65.6011 124.718 68.4041 124.263C70.2891 123.957 71.8091 124.016 71.7831 124.394C71.7571 124.772 69.6451 126.749 67.0901 128.787C63.9171 131.319 59.2931 133.506 52.4961 135.688C41.3131 139.279 30.1231 146.085 24.3891 152.784C16.8881 161.547 7.4141 183.941 3.3221 202.581C2.3661 206.932 1.4451 217.076 1.1271 226.74C0.536097 244.733 1.9831 257.622 5.9531 269.714C7.5081 274.451 7.79809 277.189 7.29809 282.417C6.51009 290.653 8.72009 302.009 12.2991 308.117C15.4891 313.56 20.9091 318.061 26.7751 320.138C32.6001 322.201 47.8651 323.235 50.4371 321.742C51.9101 320.886 50.1751 320.635 42.6191 320.611C26.4431 320.561 17.5251 315.915 12.1981 304.763C9.8791 299.91 9.4181 297.441 9.0321 287.835C8.7201 280.084 8.9451 276.149 9.7551 275.173C11.1161 273.533 25.3961 267.74 45.9441 260.493C92.7741 243.977 126.37 237.322 146.828 240.508C169.346 244.015 177.933 259.19 165.685 273.831C163.5 276.444 162.301 278.581 163.021 278.581C164.752 278.581 169.554 272.488 171.506 267.816C173.658 262.665 172.716 254.517 169.387 249.487C165.941 244.279 158.922 240.852 146.331 238.23C145.231 238 146.659 237.761 149.504 237.697C153.57 237.606 155.39 236.992 158.004 234.831C162.516 231.101 164.406 228.75 166.399 224.385C168.631 219.495 167.82 217.255 164.302 218.592C162.871 219.136 161.347 219.581 160.914 219.581C160.48 219.581 159.825 215.301 159.458 210.069L158.789 200.557L162.485 197.319C167.62 192.821 171.831 185.867 171.831 181.885C171.831 179.375 171.411 178.6 170.081 178.66C169.036 178.707 168.834 178.942 169.581 179.243C172.817 180.549 169.327 188.829 162.934 195.016C160.698 197.18 158.695 198.755 158.485 198.516C158.274 198.277 157.8 195.714 157.431 192.82C156.794 187.833 156.892 187.508 159.295 186.595C162.744 185.283 162.504 184.196 158.924 184.912C156.3 185.437 156.043 185.255 156.286 183.037C156.435 181.686 156.18 180.581 155.721 180.581C155.262 180.581 153.919 178.331 152.736 175.581C151.553 172.831 150.19 170.581 149.708 170.581C148.513 170.581 148.6 171.23 150.217 174.381C152.014 177.879 154.457 187.576 155.334 194.687L156.025 200.292L152.803 200.937C151.031 201.291 149.243 201.581 148.829 201.581C148.062 201.581 143.831 192.454 143.831 190.798C143.831 190.297 144.843 189.393 146.081 188.79C148.078 187.816 147.965 187.757 145.081 188.262C143.003 188.626 141.831 188.425 141.831 187.706C141.831 187.087 140.751 186.581 139.43 186.581C136.385 186.581 99.0421 194.092 92.1771 196.085C84.5561 198.297 84.6441 198.353 85.3851 191.81C86.3131 183.608 84.2231 171.675 80.2231 162.329C76.4751 153.573 76.5031 152.588 80.6921 145.814C83.2531 141.674 83.4521 141.566 87.4331 142.156C95.7291 143.385 106.404 136.137 110.909 126.218C111.942 123.943 112.797 121.294 112.809 120.331C112.822 119.305 113.594 118.581 114.676 118.581C119.512 118.581 122.231 109.868 119.463 103.243C118.04 99.8361 118.037 99.1071 119.435 95.6131C122.704 87.4441 119.194 82.6071 109.408 81.7961C104.941 81.4251 103.598 80.8751 102.289 78.8761C100.546 76.2161 93.5731 72.5971 90.3311 72.6701C89.2311 72.6951 86.3491 73.3331 83.9261 74.0881ZM69.7771 77.1751C67.8821 79.1521 63.4061 82.1891 59.8311 83.9251C52.2001 87.6301 48.8311 91.8781 48.8311 97.7951C48.8311 102.713 49.9711 104.858 54.0791 107.662C57.2851 109.851 57.2771 109.829 53.5811 106.118C46.4771 98.9861 49.3401 90.4891 60.6891 85.0141C64.6241 83.1161 68.3721 80.3531 70.5221 77.7641C74.7861 72.6311 74.4151 72.3381 69.7771 77.1751ZM362.831 76.5811C362.831 78.2311 363.281 79.5811 363.831 79.5811C364.381 79.5811 364.831 78.2311 364.831 76.5811C364.831 74.9311 364.381 73.5811 363.831 73.5811C363.281 73.5811 362.831 74.9311 362.831 76.5811ZM337.914 75.8641C338.144 76.0201 339.231 76.8071 340.331 77.6141C342.181 78.9711 342.228 78.9501 340.959 77.3311C340.204 76.3681 339.116 75.5811 338.542 75.5811C337.968 75.5811 337.685 75.7081 337.914 75.8641ZM379.831 79.5811C379.831 81.2311 380.281 82.5811 380.831 82.5811C381.381 82.5811 381.831 81.2311 381.831 79.5811C381.831 77.9311 381.381 76.5811 380.831 76.5811C380.281 76.5811 379.831 77.9311 379.831 79.5811ZM342.831 81.0811C342.831 81.3561 343.056 81.5811 343.331 81.5811C343.606 81.5811 343.831 81.3561 343.831 81.0811C343.831 80.8061 343.606 80.5811 343.331 80.5811C343.056 80.5811 342.831 80.8061 342.831 81.0811ZM427.167 82.1481C426.836 83.0101 427.075 84.2251 427.698 84.8481C428.542 85.6921 428.831 85.2921 428.831 83.2811C428.831 80.2721 428.082 79.7631 427.167 82.1481ZM415.167 83.1481C414.836 84.0101 415.075 85.2251 415.698 85.8481C416.542 86.6921 416.831 86.2921 416.831 84.2811C416.831 81.2721 416.082 80.7631 415.167 83.1481ZM400.846 90.8901C400.837 93.1781 401.23 94.4521 401.831 94.0811C403.095 93.3001 403.095 90.5371 401.831 88.5811C401.111 87.4681 400.858 88.0621 400.846 90.8901ZM382.167 96.1481C381.836 97.0101 382.075 98.2251 382.698 98.8481C383.542 99.6921 383.831 99.2921 383.831 97.2811C383.831 94.2721 383.082 93.7631 382.167 96.1481ZM362.831 99.0811C362.831 100.456 363.281 101.581 363.831 101.581C364.381 101.581 364.831 100.456 364.831 99.0811C364.831 97.7061 364.381 96.5811 363.831 96.5811C363.281 96.5811 362.831 97.7061 362.831 99.0811ZM422.405 99.2481C422.053 100.165 422.23 101.38 422.798 101.948C423.509 102.659 423.831 102.138 423.831 100.281C423.831 97.1961 423.332 96.8341 422.405 99.2481ZM410.892 101.581C410.892 104.436 411.08 104.759 411.911 103.331C412.603 102.142 412.603 101.02 411.911 99.8311C411.08 98.4031 410.892 98.7261 410.892 101.581ZM440.436 100.167C440.102 101.039 440.265 102.502 440.799 103.417C441.572 104.741 441.776 104.416 441.801 101.831C441.834 98.2721 441.377 97.7151 440.436 100.167ZM88.8311 108.92C88.8311 111.579 89.3821 112.511 91.5341 113.492C95.5251 115.31 102.749 115.887 107.581 114.773L111.831 113.794L111.821 117.437C111.811 121.254 108.222 129.659 105.137 133.09C96.9851 142.157 87.0531 143.661 80.5891 136.808C76.8821 132.877 74.4701 123.581 77.1571 123.581C77.8861 123.581 79.5351 122.461 80.8211 121.091C83.0641 118.704 83.0881 118.522 81.4011 116.659C78.0711 112.979 81.8451 105.581 87.0541 105.581C88.4021 105.581 88.8311 106.387 88.8311 108.92ZM407.436 110.167C407.102 111.039 407.265 112.502 407.799 113.417C408.572 114.741 408.776 114.416 408.801 111.831C408.834 108.272 408.377 107.715 407.436 110.167ZM395.846 112.831C395.857 115.041 396.138 115.645 396.724 114.72C397.51 113.479 397.124 109.581 396.214 109.581C396.004 109.581 395.838 111.044 395.846 112.831ZM376.831 115.081C376.831 116.456 377.281 117.581 377.831 117.581C378.381 117.581 378.831 116.456 378.831 115.081C378.831 113.706 378.381 112.581 377.831 112.581C377.281 112.581 376.831 113.706 376.831 115.081ZM365.379 114.831C364.96 115.794 364.96 117.368 365.379 118.331C366.104 119.998 366.16 119.998 366.559 118.331C366.789 117.368 366.789 115.794 366.559 114.831C366.16 113.164 366.104 113.164 365.379 114.831ZM434.436 116.167C434.102 117.039 434.265 118.502 434.799 119.417C435.572 120.741 435.776 120.416 435.801 117.831C435.834 114.272 435.377 113.715 434.436 116.167ZM422.336 117.573C421.999 118.119 422.183 119.356 422.746 120.323C423.625 121.831 423.775 121.69 423.801 119.331C423.832 116.455 423.37 115.9 422.336 117.573ZM388.817 121.369L391.025 123.156L386.716 128.619C384.347 131.623 376.371 140.258 368.992 147.808L355.575 161.535L352.953 159.597C351.511 158.532 348.565 156.142 346.408 154.286L342.484 150.913L350.408 146.616C373.445 134.123 381.425 128.391 383.817 122.615C385.277 119.089 385.831 118.951 388.817 121.369ZM385.846 123.331C385.838 125.119 386.004 126.581 386.214 126.581C387.124 126.581 387.51 122.683 386.724 121.442C386.138 120.517 385.857 121.121 385.846 123.331ZM345.831 125.081C345.831 126.456 346.281 127.581 346.831 127.581C347.381 127.581 347.831 126.456 347.831 125.081C347.831 123.706 347.381 122.581 346.831 122.581C346.281 122.581 345.831 123.706 345.831 125.081ZM412.216 124.02C411.912 124.812 412.138 126.274 412.717 127.27C413.612 128.809 413.775 128.593 413.801 125.831C413.833 122.403 413.14 121.611 412.216 124.02ZM400.436 125.167C400.102 126.039 400.265 127.502 400.799 128.417C401.572 129.741 401.776 129.416 401.801 126.831C401.834 123.272 401.377 122.715 400.436 125.167ZM75.3051 128.296C76.2231 133.189 78.3091 137.102 81.0061 138.991C83.0101 140.395 83.0621 140.672 81.6291 142.302C79.5931 144.616 76.2981 151.32 75.4371 154.897C74.9711 156.835 74.2241 157.613 73.0451 157.392C71.0501 157.016 66.1351 148.198 63.3441 139.987L61.4031 134.277L63.8661 132.679C65.2211 131.8 67.9051 129.631 69.8301 127.858C71.7561 126.085 73.6181 124.623 73.9701 124.608C74.3211 124.593 74.9221 126.253 75.3051 128.296ZM462.224 131.081C462.558 131.906 463.078 133.189 463.381 133.932C463.749 134.836 461.913 136.243 457.837 138.182C452.334 140.8 451.799 141.323 452.321 143.581C452.639 144.956 453.455 149.583 454.134 153.864C454.813 158.145 455.698 161.632 456.1 161.614C463.976 161.259 464.831 161.536 464.831 164.451C464.831 168.751 459.271 186.626 455.211 195.376C450.069 206.459 445.205 221.54 442.879 233.609C439.819 249.483 433.797 288.881 434.347 289.43C435.279 290.362 435.652 289.006 437.2 279.081C445.18 227.908 447.058 219.338 453.851 203.081C465.133 176.083 468.455 162.602 467.527 147.581C466.991 138.907 464.454 129.581 462.63 129.581C462.073 129.581 461.89 130.256 462.224 131.081ZM357.299 133.682C356.932 134.837 357.127 136.277 357.732 136.882C358.531 137.681 358.831 137.107 358.831 134.781C358.831 131.087 358.254 130.673 357.299 133.682ZM62.7961 141.8C65.6711 149.806 70.3941 158.199 72.4731 158.997C73.3591 159.337 74.6891 159.114 75.4271 158.501C76.4951 157.615 77.3081 158.584 79.3931 163.234C82.8831 171.012 85.0851 183.487 84.3091 191.081C83.6151 197.865 81.0961 206.581 79.8291 206.581C76.7521 206.581 66.8511 190.049 62.4171 177.507C55.8541 158.943 32.7601 152.607 24.2971 167.049C19.3031 175.57 21.9481 187.11 33.4701 207.081C46.2351 229.207 59.4951 241.581 70.4411 241.581C72.6551 241.581 77.6571 247.088 76.4971 248.249C76.1931 248.552 67.4811 251.631 57.1381 255.089C46.7941 258.547 31.8741 263.898 23.9831 266.979C16.0911 270.06 9.2461 272.581 8.7721 272.581C6.0391 272.581 1.8451 247.98 1.8371 231.903C1.8261 212.036 6.0671 191.359 13.8181 173.489C19.0321 161.467 22.8131 155.712 29.5321 149.571C36.9571 142.785 56.6141 133.499 59.9361 135.208C60.2681 135.38 61.5561 138.346 62.7961 141.8ZM465.846 144.641C466.431 148.733 466.626 153.769 466.282 155.831C465.668 159.503 465.563 159.581 461.243 159.581C457.12 159.581 456.825 159.401 456.735 156.831C456.682 155.319 456.119 151.606 455.485 148.581L454.331 143.081L459.331 140.008C462.081 138.317 464.433 136.994 464.558 137.068C464.682 137.141 465.262 140.549 465.846 144.641ZM339.831 141.081C339.831 142.456 340.281 143.581 340.831 143.581C341.381 143.581 341.831 142.456 341.831 141.081C341.831 139.706 341.381 138.581 340.831 138.581C340.281 138.581 339.831 139.706 339.831 141.081ZM368.336 139.573C367.999 140.119 368.183 141.356 368.746 142.323C369.625 143.831 369.775 143.69 369.801 141.331C369.832 138.455 369.37 137.9 368.336 139.573ZM293.831 144.566C293.831 147.544 267.863 163.581 263.042 163.581C258.694 163.581 274.875 151.262 286.068 146.051C291.738 143.411 293.831 143.011 293.831 144.566ZM310.831 147.44C310.831 149.141 309.534 149.427 308.141 148.033C306.268 146.161 303.411 146.177 301.84 148.07C301.16 148.889 300.184 149.299 299.669 148.981C298.459 148.233 300.64 145.592 303.296 144.59C305.366 143.809 310.831 145.876 310.831 147.44ZM300.401 152.127C302.97 155.727 305.283 158.463 305.54 158.206C305.797 157.949 305.007 156.385 303.784 154.732C301.444 151.566 301.673 148.962 304.386 147.922C305.266 147.584 306.709 148.031 307.593 148.915C308.87 150.192 308.974 150.991 308.099 152.801C305.34 158.512 305.649 159.59 312.99 169.872L320.062 179.778L315.197 184.929L310.331 190.081L315.463 185.235C318.727 182.152 320.847 180.798 321.289 181.513C322.83 184.006 308.519 194.419 293.71 201.58C289.16 203.781 284.85 205.581 284.134 205.581C282.207 205.581 282.552 203.801 284.581 203.27C285.901 202.925 285.779 202.784 284.086 202.697C282.213 202.6 280.311 199.56 272.598 184.331C267.515 174.293 263.216 165.793 263.046 165.441C262.877 165.089 264.878 164.071 267.495 163.18C273.426 161.159 283.777 155.058 290.341 149.715C293.085 147.48 295.421 145.636 295.53 145.617C295.64 145.597 297.832 148.527 300.401 152.127ZM328.846 149.11C330.129 151.507 329.943 151.9 325.265 156.688C322.551 159.465 319.206 162.323 317.831 163.039C313.554 165.265 309.378 162.567 308.232 156.837C307.636 153.856 307.753 153.745 313.175 152.169C318.7 150.563 322.514 147.869 317.472 149.135C316.082 149.484 314.357 149.389 313.638 148.925C312.259 148.034 317.122 146.992 323.912 146.723C326.797 146.609 327.756 147.073 328.846 149.11ZM431.831 149.42C431.831 154.86 428.518 184.648 426.808 194.581C425.72 200.906 423.268 211.628 421.36 218.408C416.536 235.554 415.375 250.22 416.202 283.581C416.947 313.671 417.666 323.581 419.105 323.581C419.735 323.581 419.873 321.082 419.479 316.831C419.134 313.119 418.554 297.902 418.189 283.017C417.466 253.494 418.639 234.768 421.881 224.081C426.463 208.977 428.979 196.536 431.287 177.581C433.58 158.74 434.194 147.581 432.937 147.581C432.329 147.581 431.831 148.409 431.831 149.42ZM312.331 150.581C312.671 151.131 312.247 151.581 311.39 151.581C310.533 151.581 309.831 151.131 309.831 150.581C309.831 150.031 310.254 149.581 310.772 149.581C311.29 149.581 311.991 150.031 312.331 150.581ZM277.47 152.275C276.344 153.401 276.785 154.581 278.331 154.581C279.156 154.581 279.831 154.158 279.831 153.64C279.831 152.379 278.269 151.476 277.47 152.275ZM356.216 153.02C355.912 153.812 356.138 155.274 356.717 156.27C357.612 157.809 357.775 157.593 357.801 154.831C357.833 151.403 357.14 150.611 356.216 153.02ZM349.042 157.945L352.752 161.225L349.397 166.207C347.552 168.946 344.342 172.681 342.263 174.507C338.607 177.716 338.261 177.809 331.672 177.338C325.589 176.902 321.815 175.509 321.84 173.709C321.844 173.363 324.602 172.222 327.968 171.172C331.334 170.123 335.268 168.171 336.71 166.835C338.633 165.052 338.842 164.562 337.494 164.995C336.483 165.32 333.895 165.867 331.744 166.211C326.003 167.129 326.8 165.144 333.581 161.632C336.744 159.994 340.456 157.748 341.831 156.64C343.206 155.532 344.556 154.634 344.831 154.645C345.106 154.656 347.001 156.14 349.042 157.945ZM51.0261 164.15C56.4411 167.956 59.7501 173.015 63.2841 182.892C73.0671 210.236 93.6341 223.581 125.991 223.581H138.831V229.978V236.376L132.581 237.436C115.571 240.321 106.748 241.046 88.8311 241.031C64.9901 241.011 61.0931 239.907 51.9031 230.574C42.7191 221.246 30.7911 201.912 24.8931 186.794C20.9621 176.715 22.8641 167.455 29.8311 162.764C32.8321 160.744 34.2871 160.46 40.0381 160.775C45.5291 161.075 47.5211 161.687 51.0261 164.15ZM311.831 165.081C311.831 165.356 311.606 165.581 311.331 165.581C311.056 165.581 310.831 165.356 310.831 165.081C310.831 164.806 311.056 164.581 311.331 164.581C311.606 164.581 311.831 164.806 311.831 165.081ZM315.831 168.14C315.831 169.591 315.398 170.432 314.831 170.081C314.281 169.741 313.831 168.59 313.831 167.522C313.831 166.454 314.281 165.581 314.831 165.581C315.381 165.581 315.831 166.733 315.831 168.14ZM276.384 184.687C279.996 191.896 283.173 197.572 283.443 197.302C284.103 196.643 271.581 171.581 270.592 171.581C270.166 171.581 272.772 177.479 276.384 184.687ZM274.123 190.103C275.612 193.14 276.831 195.764 276.831 195.934C276.831 196.104 268.168 194.597 257.581 192.584C242.443 189.707 238.264 188.577 238.015 187.292C237.686 185.589 238.831 185.478 263.873 184.789L271.414 184.581L274.123 190.103ZM142.401 191.331C143.279 193.394 144.853 197.217 145.899 199.828L147.799 204.575L139.85 208.571C135.479 210.769 127.273 214.632 121.616 217.154C111.434 221.695 111.276 221.729 105.831 220.569C99.7641 219.276 87.6871 213.753 83.9181 210.549C81.5661 208.548 81.5421 208.381 82.9671 203.792C83.8061 201.091 85.0461 199.061 85.8801 199.027C86.6781 198.994 88.0061 198.674 88.8311 198.316C92.8191 196.587 133.663 187.927 139.068 187.665C140.164 187.612 141.393 188.964 142.401 191.331ZM228.081 190.243C227.394 190.521 226.831 191.385 226.831 192.164C226.831 194.303 230.61 193.863 231.831 191.581C232.719 189.923 232.597 189.594 231.116 189.66C230.134 189.703 228.769 189.966 228.081 190.243ZM307.703 191.331C306.46 192.917 306.495 192.952 308.081 191.709C309.043 190.954 309.831 190.166 309.831 189.959C309.831 189.136 309.01 189.665 307.703 191.331ZM216.498 191.248C214.956 192.789 215.914 194.708 218.071 194.401C220.902 193.997 221.796 190.581 219.071 190.581C218.022 190.581 216.864 190.881 216.498 191.248ZM230.331 191.581C229.991 192.131 229.263 192.581 228.713 192.581C228.163 192.581 227.991 192.131 228.331 191.581C228.671 191.031 229.399 190.581 229.949 190.581C230.499 190.581 230.671 191.031 230.331 191.581ZM219.331 192.581C218.991 193.131 218.263 193.581 217.713 193.581C217.163 193.581 216.991 193.131 217.331 192.581C217.671 192.031 218.399 191.581 218.949 191.581C219.499 191.581 219.671 192.031 219.331 192.581ZM304.236 193.736C303.793 194.451 303.961 194.619 304.676 194.176C305.311 193.784 305.831 193.265 305.831 193.022C305.831 192.188 304.948 192.583 304.236 193.736ZM300.272 196.136C298.408 197.63 298.42 197.648 300.581 196.601C301.819 196.001 302.831 195.301 302.831 195.046C302.831 194.281 302.312 194.502 300.272 196.136ZM211.402 197.152C209.574 198.981 209.411 200.203 210.875 201.108C212.337 202.012 214.831 199.711 214.831 197.459C214.831 195.169 213.504 195.051 211.402 197.152ZM222.031 196.781C220.442 198.37 220.5 200.581 222.131 200.581C222.846 200.581 223.971 200.041 224.631 199.381C226.22 197.792 226.162 195.581 224.531 195.581C223.816 195.581 222.691 196.121 222.031 196.781ZM229.796 197.123C227.839 199.481 229.945 200.89 232.622 199.015C233.837 198.164 234.831 197.043 234.831 196.524C234.831 195.007 231.193 195.44 229.796 197.123ZM223.811 198.105C223.115 198.943 222.286 199.369 221.967 199.051C221.649 198.733 222.051 198.054 222.86 197.542C224.977 196.203 225.254 196.367 223.811 198.105ZM232.831 197.581C232.831 198.131 232.354 198.581 231.772 198.581C231.19 198.581 230.991 198.131 231.331 197.581C231.671 197.031 232.147 196.581 232.39 196.581C232.633 196.581 232.831 197.031 232.831 197.581ZM213.831 198.022C213.831 198.265 213.381 198.741 212.831 199.081C212.281 199.421 211.831 199.222 211.831 198.64C211.831 198.058 212.281 197.581 212.831 197.581C213.381 197.581 213.831 197.779 213.831 198.022ZM296.831 198.081C296.831 198.356 297.056 198.581 297.331 198.581C297.606 198.581 297.831 198.356 297.831 198.081C297.831 197.806 297.606 197.581 297.331 197.581C297.056 197.581 296.831 197.806 296.831 198.081ZM292.831 199.581C292.006 200.114 291.781 200.55 292.331 200.55C292.881 200.55 294.006 200.114 294.831 199.581C295.656 199.048 295.881 198.612 295.331 198.612C294.781 198.612 293.656 199.048 292.831 199.581ZM225.573 201.706C223.451 202.893 223.254 206.581 225.312 206.581C226.126 206.581 227.081 205.435 227.432 204.034C228.213 200.921 227.831 200.442 225.573 201.706ZM287.831 201.581C287.006 202.114 286.781 202.55 287.331 202.55C287.881 202.55 289.006 202.114 289.831 201.581C290.656 201.048 290.881 200.612 290.331 200.612C289.781 200.612 288.656 201.048 287.831 201.581ZM156.195 206.221C157.386 214.907 157.101 216.581 154.433 216.581C153.113 216.581 149.626 217.844 146.683 219.388C141.624 222.041 140.564 222.205 127.331 222.371L113.331 222.546L117.331 220.555C119.531 219.461 127.519 215.662 135.081 212.114C143.597 208.119 148.831 205.103 148.831 204.192C148.831 202.904 150.403 202.211 154.445 201.717C155.058 201.642 155.845 203.669 156.195 206.221ZM216.031 202.781C215.371 203.441 214.831 204.566 214.831 205.281C214.831 206.912 217.042 206.97 218.631 205.381C220.22 203.792 220.162 201.581 218.531 201.581C217.816 201.581 216.691 202.121 216.031 202.781ZM206.774 204.688C206.018 206.101 205.977 207.127 206.651 207.801C208.139 209.289 209.831 207.81 209.831 205.022C209.831 202.023 208.29 201.855 206.774 204.688ZM218.193 204.081C217.876 204.906 217.16 205.581 216.602 205.581C216.016 205.581 216.113 204.946 216.831 204.081C217.516 203.256 218.232 202.581 218.422 202.581C218.612 202.581 218.509 203.256 218.193 204.081ZM226.014 204.798C225.297 205.515 224.831 205.574 224.831 204.948C224.831 204.379 225.131 203.614 225.498 203.248C225.864 202.881 226.397 202.814 226.681 203.098C226.965 203.382 226.665 204.147 226.014 204.798ZM232.031 203.781C230.376 205.436 230.525 207.581 232.296 207.581C233.576 207.581 235.831 204.752 235.831 203.147C235.831 202.126 233.257 202.555 232.031 203.781ZM208.498 206.248C208.131 206.614 207.831 206.314 207.831 205.581C207.831 204.848 208.131 204.548 208.498 204.914C208.864 205.281 208.864 205.881 208.498 206.248ZM233.831 205.022C233.831 205.265 233.381 205.741 232.831 206.081C232.281 206.421 231.831 206.222 231.831 205.64C231.831 205.058 232.281 204.581 232.831 204.581C233.381 204.581 233.831 204.779 233.831 205.022ZM221.031 208.781C219.575 210.237 219.459 213.233 220.827 214.078C222.231 214.946 224.447 209.797 223.204 208.554C222.573 207.923 221.809 208.003 221.031 208.781ZM212.031 209.781C210.528 211.284 210.488 213.251 211.943 214.15C213.232 214.947 214.793 212.871 214.816 210.331C214.834 208.295 213.734 208.078 212.031 209.781ZM213.831 211.081C213.831 211.906 213.395 212.581 212.862 212.581C212.33 212.581 212.153 211.906 212.469 211.081C212.786 210.256 213.222 209.581 213.438 209.581C213.654 209.581 213.831 210.256 213.831 211.081ZM227.498 210.248C226.515 211.231 226.687 215.581 227.709 215.581C228.191 215.581 229.142 214.912 229.82 214.094C231.782 211.73 229.611 208.134 227.498 210.248ZM222.831 211.022C222.831 211.265 222.381 211.741 221.831 212.081C221.281 212.421 220.831 212.222 220.831 211.64C220.831 211.058 221.281 210.581 221.831 210.581C222.381 210.581 222.831 210.779 222.831 211.022ZM203.678 214.017C202.488 216.629 203.096 219.581 204.824 219.581C206.241 219.581 207.921 214.98 207.196 213.09C206.346 210.876 204.94 211.247 203.678 214.017ZM229.193 213.081C228.876 213.906 228.44 214.581 228.224 214.581C228.008 214.581 227.831 213.906 227.831 213.081C227.831 212.256 228.267 211.581 228.8 211.581C229.332 211.581 229.509 212.256 229.193 213.081ZM206.816 214.331C206.807 214.744 206.382 215.743 205.87 216.552C204.718 218.374 203.366 217.234 204.176 215.124C204.774 213.566 206.844 212.944 206.816 214.331ZM209.538 218.353C207.437 220.674 207.285 224.581 209.296 224.581C211.385 224.581 212.967 221.123 212.033 218.598C211.263 216.516 211.205 216.51 209.538 218.353ZM217.399 218.787C215.578 221.387 215.4 223.196 216.875 224.108C218.458 225.086 220.831 222.632 220.831 220.018C220.831 216.732 219.239 216.161 217.399 218.787ZM154.238 218.831C153.847 219.519 152.808 220.935 151.929 221.979C150.39 223.807 150.486 223.853 154.567 223.219C156.897 222.858 160.379 221.81 162.305 220.892C164.23 219.974 166.083 219.499 166.421 219.837C167.444 220.86 162.565 229.627 159.571 232.147C156.158 235.018 150.912 236.568 144.581 236.575L139.831 236.581V230.159C139.831 223.805 139.866 223.724 143.081 222.638C144.868 222.034 147.456 220.659 148.831 219.582C151.664 217.365 155.365 216.85 154.238 218.831ZM224.486 219.039C223.701 221.082 224.785 223.763 226.204 223.29C226.824 223.083 227.331 221.864 227.331 220.581C227.331 217.861 225.35 216.787 224.486 219.039ZM156.831 219.974C156.831 220.74 156.146 221.63 155.308 221.952C154.065 222.428 153.98 222.172 154.843 220.558C156.084 218.24 156.831 218.021 156.831 219.974ZM210.831 221.081C210.831 222.456 210.381 223.581 209.831 223.581C208.714 223.581 208.46 220.285 209.498 219.248C210.6 218.145 210.831 218.463 210.831 221.081ZM219.831 219.499C219.831 221.361 218.597 223.555 217.82 223.074C216.8 222.444 217.77 218.581 218.948 218.581C219.433 218.581 219.831 218.994 219.831 219.499ZM226.514 221.769C226.195 222.566 225.958 222.329 225.91 221.164C225.867 220.11 226.103 219.52 226.435 219.852C226.767 220.184 226.803 221.047 226.514 221.769ZM201.031 224.781C199.609 226.203 199.437 230.219 200.763 231.039C202.161 231.903 204.684 227.733 204.104 225.516C203.52 223.283 202.72 223.092 201.031 224.781ZM201.925 228.887C200.619 230.193 200.437 228.746 201.551 225.913C202.246 224.146 202.285 224.147 202.645 225.937C202.851 226.958 202.526 228.286 201.925 228.887ZM223.811 228.619C222.511 231.048 223.411 234.581 225.331 234.581C227.047 234.581 228.168 231.219 227.331 228.581C226.518 226.02 225.194 226.035 223.811 228.619ZM206.031 229.781C205.371 230.441 204.831 232.274 204.831 233.854C204.831 236.05 205.243 236.649 206.581 236.396C207.804 236.164 208.424 234.938 208.641 232.323C208.96 228.478 208.136 227.676 206.031 229.781ZM214.413 230.141C212.424 232.131 212.686 236.081 214.807 236.081C216.758 236.081 218.598 230.948 217.162 229.512C216.416 228.766 215.602 228.953 214.413 230.141ZM226.225 231.998C225.729 233.289 225.351 233.423 224.784 232.506C223.773 230.868 224.811 228.161 225.997 229.347C226.492 229.842 226.594 231.035 226.225 231.998ZM206.925 234.887C206.133 235.679 205.831 235.419 205.831 233.948C205.831 231.304 207.229 229.901 207.675 232.098C207.864 233.03 207.526 234.286 206.925 234.887ZM216.831 232.022C216.831 233.523 215.036 235.119 214.241 234.324C213.543 233.627 214.924 230.581 215.938 230.581C216.429 230.581 216.831 231.229 216.831 232.022ZM200.031 234.781C198.343 236.469 198.488 241.581 200.224 241.581C201.836 241.581 202.831 239.451 202.831 235.999C202.831 233.346 201.88 232.932 200.031 234.781ZM200.925 239.887C200.133 240.679 199.831 240.419 199.831 238.948C199.831 236.304 201.229 234.901 201.675 237.098C201.864 238.03 201.526 239.286 200.925 239.887ZM222.866 238.515C221.442 241.176 221.57 243.119 223.261 244.523C225.38 246.282 227.164 242.586 225.856 239.146C224.687 236.072 224.226 235.975 222.866 238.515ZM213.52 240.372C211.399 242.716 211.294 246.581 213.352 246.581C215.437 246.581 217.307 242.254 216.131 240.152C215.288 238.647 215.064 238.666 213.52 240.372ZM224.831 241.281C224.831 243.138 224.509 243.659 223.798 242.948C223.23 242.38 223.053 241.165 223.405 240.248C224.332 237.834 224.831 238.196 224.831 241.281ZM205.258 240.346C202.338 242.346 203.174 247.431 206.23 246.258C207.211 245.882 207.831 244.469 207.831 242.612C207.831 239.549 207.215 239.007 205.258 240.346ZM205.925 244.887C205.133 245.679 204.831 245.419 204.831 243.948C204.831 241.304 206.229 239.901 206.675 242.098C206.864 243.03 206.526 244.286 205.925 244.887ZM215.12 243.582C214.833 244.681 214.2 245.581 213.714 245.581C212.683 245.581 212.586 244.384 213.436 242.169C214.291 239.941 215.752 241.167 215.12 243.582ZM86.3311 243.634L92.3311 243.715L88.2861 244.982C79.5701 247.712 78.2071 247.702 76.9321 244.903C75.8331 242.492 75.9041 242.368 78.0451 242.941C79.3021 243.278 83.0311 243.59 86.3311 243.634ZM166.831 243.081C166.831 243.356 167.056 243.581 167.331 243.581C167.606 243.581 167.831 243.356 167.831 243.081C167.831 242.806 167.606 242.581 167.331 242.581C167.056 242.581 166.831 242.806 166.831 243.081ZM466.831 244.339C466.831 245.492 480.014 247.305 495.124 248.23L505.831 248.885V257.104V265.323L501.081 265.928C494.979 266.705 472.981 268.455 456.331 269.487L443.331 270.294L456.331 270.408C467.607 270.507 486.809 269.179 505.903 266.98L511.475 266.338L515.234 272.001C519.104 277.832 519.185 277.865 524.581 275.837C525.269 275.578 525.831 276.042 525.831 276.867C525.831 278.499 523.791 279.581 520.714 279.581C519.043 279.581 518.922 279.883 519.878 281.669C520.979 283.726 522.515 283.791 527.238 281.978C528.259 281.587 528.831 281.906 528.831 282.867C528.831 284.492 526.793 285.581 523.749 285.581C522.488 285.581 521.831 286.277 521.831 287.612C521.831 290.205 524.281 291.153 527.359 289.75C529.066 288.972 529.951 288.967 530.423 289.731C531.268 291.098 529.016 292.546 526.014 292.566C524.285 292.577 523.824 293.025 524.2 294.331C524.477 295.293 525.258 298.01 525.936 300.368C527.609 306.183 531.079 309.801 534.594 309.396L537.331 309.081L537.134 293.081C536.958 278.799 534.571 246.988 533.603 246.02C533.397 245.814 530.733 245.352 527.683 244.993C523.453 244.496 521.268 244.754 518.472 246.081C515.318 247.578 513.034 247.726 502.069 247.143C489.621 246.48 476.593 245.187 470.081 243.967C468.21 243.617 466.831 243.774 466.831 244.339ZM536.149 251.831C536.476 254.718 537.24 264.731 537.848 274.081C539.744 303.236 540.064 306.343 540.887 303.581C541.981 299.908 541.964 283.989 540.85 268.581C539.456 249.299 538.996 246.581 537.132 246.581C535.822 246.581 535.656 247.467 536.149 251.831ZM517.948 251.831C519.285 255.027 519.84 262.906 518.8 263.945C518.509 264.237 515.921 264.661 513.05 264.887L507.831 265.299V256.94V248.581H512.21C516.204 248.581 516.708 248.866 517.948 251.831ZM134.331 256.303C126.096 258.319 84.3411 273.673 60.3731 283.499C54.8961 285.744 49.0461 287.567 47.3731 287.549C44.4811 287.519 40.5371 285.465 40.8391 284.147C40.9171 283.808 40.7581 282.98 40.4851 282.306C40.2121 281.632 39.9531 282.528 39.9101 284.296C39.8211 287.934 41.9081 289.581 46.6091 289.581C49.8491 289.581 54.5291 288.002 72.8311 280.733C79.7061 278.003 88.9311 274.341 93.3311 272.595C97.7311 270.85 109.358 266.721 119.169 263.421C138.504 256.916 145.763 255.943 151.77 259.049C158.679 262.622 159.319 268.039 153.516 273.812C150.158 277.151 123.082 296.63 101.081 311.533C94.3431 316.097 88.8311 320.263 88.8311 320.79C88.8311 322.287 90.3321 321.481 100.436 314.554C153.198 278.381 159.831 272.984 159.831 266.227C159.831 259.806 153.076 255.53 143.195 255.697C139.42 255.761 135.431 256.033 134.331 256.303ZM125.831 275.081C125.831 275.356 126.056 275.581 126.331 275.581C126.606 275.581 126.831 275.356 126.831 275.081C126.831 274.806 126.606 274.581 126.331 274.581C126.056 274.581 125.831 274.806 125.831 275.081ZM196.831 277.081C196.831 277.356 197.056 277.581 197.331 277.581C197.606 277.581 197.831 277.356 197.831 277.081C197.831 276.806 197.606 276.581 197.331 276.581C197.056 276.581 196.831 276.806 196.831 277.081ZM121.331 279.899C117.308 282.207 97.3061 295.623 88.7171 301.776C86.1791 303.594 80.6661 307.5 76.4671 310.456C71.7781 313.757 68.8311 316.525 68.8311 317.628C68.8311 319.451 66.0201 320.715 58.8311 322.124C54.3711 322.999 45.3391 327.362 43.2801 329.637C41.9431 331.115 41.8801 332.05 42.8691 335.732C43.7651 339.071 45.7351 341.732 51.3461 347.185C55.9001 351.612 59.7811 356.512 61.6431 360.185C67.0341 370.823 74.3061 375.06 87.1351 375.038C91.4351 375.031 95.2511 374.556 95.6351 373.98C96.0181 373.405 97.1471 372.634 98.1451 372.265C99.4911 371.768 99.8781 370.754 99.6451 368.339C99.3641 365.424 98.6511 364.751 92.8311 361.906C89.2561 360.158 85.5361 357.933 84.5631 356.961C83.0391 355.437 77.8311 341.197 77.8311 338.552C77.8311 338.044 79.0041 336.859 80.4371 335.919C82.9431 334.278 83.1071 334.295 84.6871 336.358C86.3241 338.496 86.3881 338.463 99.8311 328.495C107.256 322.99 113.502 317.994 113.711 317.394C114.259 315.817 112.827 316.782 99.1701 327.194L87.0091 336.466L81.1701 329.866C77.9581 326.236 74.3141 321.893 73.0701 320.215C70.9251 317.319 70.9021 317.11 72.6201 316.122C73.6161 315.549 77.7831 312.578 81.8811 309.52C92.9101 301.287 108.112 290.786 118.581 284.168C123.669 280.952 127.831 278.155 127.831 277.951C127.831 276.964 124.935 277.832 121.331 279.899ZM197.857 278.581C197.855 278.856 198.517 281.27 199.328 283.945C200.14 286.62 201.056 292.965 201.365 298.045L201.926 307.28L191.591 307.948C174.611 309.046 163.692 311.254 159.849 314.365C157.284 316.442 157.766 320.061 161.082 323.62C162.649 325.302 164.12 330.606 167.003 344.969C169.757 358.689 171.327 364.442 172.568 365.361C178.84 370.008 206.303 372.153 221.831 369.209C234.857 366.739 234.532 367.193 239.13 345.031C242.207 330.201 243.574 325.486 245.444 323.264C252.582 314.782 244.774 310.444 218.577 308.339C204.672 307.222 203.835 307.036 204.035 305.117C204.597 299.744 201.257 283.384 198.822 279.581C198.294 278.756 197.86 278.306 197.857 278.581ZM201.831 311.648C201.831 314.188 201.51 314.614 199.963 314.123C198.936 313.797 194.474 314.674 190.048 316.072C182.317 318.514 181.817 318.553 177.373 317.044C171.934 315.197 169.548 315.712 168.022 319.062C167.021 321.257 166.608 321.399 163.928 320.465C159.691 318.988 158.391 317.164 160.248 315.306C163.103 312.452 181.477 309.165 197.081 308.717C201.745 308.583 201.831 308.637 201.831 311.648ZM230.588 310.668C238.677 311.901 246.235 314.727 246.607 316.658C246.784 317.578 245.456 318.866 243.242 319.922C240.116 321.413 239.346 321.466 237.957 320.292C235.363 318.098 228.6 315.274 225.853 315.237C224.466 315.219 220.631 315.799 217.331 316.526C212.153 317.668 210.837 317.641 207.729 316.328C204.663 315.033 204.165 314.381 204.38 311.944C204.519 310.369 204.677 308.915 204.732 308.712C204.878 308.168 223.346 309.565 230.588 310.668ZM405.91 316.234C405.867 317.969 406.727 323.819 407.822 329.234C408.916 334.65 409.816 340.718 409.822 342.719C409.83 346.087 409.405 346.61 404.081 349.781C399.226 352.672 398.39 353.585 398.71 355.643C399.368 359.876 399.352 360.074 398.331 360.426C397.781 360.615 396.9 359.378 396.374 357.676C395.848 355.974 394.821 354.581 394.093 354.581C392.096 354.581 391.371 357.524 392.579 360.724C393.17 362.291 393.295 363.794 392.856 364.066C391.623 364.828 389.858 362.176 389.611 359.189C389.439 357.114 388.925 356.566 387.36 356.79C385.649 357.035 385.361 357.748 385.52 361.331C385.761 366.743 383.239 367.275 382.254 362.021C381.763 359.403 381.187 358.614 380.08 359.039C379.251 359.357 376.617 360.11 374.226 360.712C368.732 362.095 364.626 366.027 365.032 369.516L365.331 372.081H381.831C406.629 372.081 427.589 370.68 429.365 368.904C431.07 367.199 431.456 354.085 429.831 353.081C428.579 352.307 428.532 341.718 429.749 334.515C431.571 323.733 431.839 320.581 430.938 320.581C430.433 320.581 429.64 323.843 429.176 327.831L428.331 335.081H419.331H410.331L408.596 325.126C406.609 313.724 406.021 311.78 405.91 316.234ZM76.6251 326.812C79.4881 330.239 81.8311 333.334 81.8311 333.691C81.8311 334.047 80.5141 334.884 78.9031 335.551C77.2931 336.218 75.1981 337.623 74.2481 338.672C69.8341 343.551 64.1961 338.324 63.4821 328.692C63.1101 323.669 63.2101 323.429 66.2131 322.111C67.9281 321.359 69.8011 320.707 70.3751 320.663C70.9491 320.618 73.7621 323.385 76.6251 326.812ZM188.969 325.697C208.549 327.291 232.32 325.28 244.331 321.013L246.331 320.303L244.331 322.398C241.473 325.392 232.408 327.476 216.504 328.795C196.407 330.462 171.19 328.054 163.035 323.69C158.721 321.381 160.938 320.962 167.991 322.754C171.928 323.754 181.369 325.078 188.969 325.697ZM97.8311 323.081C97.8311 323.356 98.0561 323.581 98.3311 323.581C98.6061 323.581 98.8311 323.356 98.8311 323.081C98.8311 322.806 98.6061 322.581 98.3311 322.581C98.0561 322.581 97.8311 322.806 97.8311 323.081ZM238.299 343.342C236.462 352.835 234.684 361.469 234.348 362.527C233.104 366.447 219.19 369.559 202.831 369.575C191.704 369.587 176.634 367.067 173.803 364.723C172.281 363.463 170.99 358.935 168.247 345.243C166.282 335.432 164.91 327.169 165.199 326.88C165.487 326.592 167.885 326.856 170.527 327.468C188.238 331.568 220.24 331.436 236.331 327.197C239.081 326.473 241.4 325.925 241.485 325.98C241.569 326.036 240.136 333.848 238.299 343.342ZM40.8711 338.381C40.8101 341.869 43.1381 345.565 48.8701 351.081C51.7281 353.831 55.6491 358.556 57.5831 361.581C59.5181 364.606 62.0531 368.153 63.2161 369.463C65.6531 372.208 74.3841 376.578 77.3311 376.527C78.5481 376.507 77.9151 375.987 75.7131 375.2C68.5691 372.647 65.2111 369.774 61.8491 363.338C60.0171 359.831 55.3871 353.785 51.3141 349.581C47.3171 345.456 43.3411 340.731 42.4791 339.081C41.0361 336.32 40.9081 336.264 40.8711 338.381ZM427.831 344.555C427.831 351.318 427.738 351.578 424.783 353.106C422.842 354.109 419.845 354.573 416.533 354.382L411.331 354.081L411.041 345.831L410.75 337.581H419.291H427.831V344.555ZM79.1241 347.332C83.2981 358.909 83.2271 358.581 81.5711 358.581C79.2111 358.581 72.9021 341.844 74.6151 340.13C75.8301 338.916 76.4441 339.897 79.1241 347.332ZM75.2501 349.081C76.4731 352.931 78.0201 357.093 78.6881 358.331C79.7921 360.378 79.6841 360.581 77.4891 360.581C74.1151 360.581 72.9891 358.822 71.3201 350.944C69.4721 342.222 69.4821 341.364 71.4281 341.758C72.4231 341.959 73.8641 344.719 75.2501 349.081ZM412.331 372.629C407.381 373.044 395.475 373.721 385.874 374.133C373.102 374.682 369.076 375.14 370.874 375.838C372.333 376.405 383.942 376.588 399.456 376.289C424.569 375.805 429.831 375.156 429.831 372.546C429.831 371.48 425.824 371.499 412.331 372.629ZM80.5811 377.243C81.2691 377.521 82.3941 377.521 83.0811 377.243C83.7691 376.966 83.2061 376.739 81.8311 376.739C80.4561 376.739 79.8941 376.966 80.5811 377.243Z" fill="#16314F"/>
</svg>
