<svg width="543" height="379" viewBox="0 0 543 379" fill="none" xmlns="http://www.w3.org/2000/svg">
<path fill-rule="evenodd" clip-rule="evenodd" d="M284.967 147.466C280.347 149.874 278.496 151.589 279.467 152.562C280.238 153.333 287.404 149.407 289.54 147.042C291.989 144.332 290.76 144.446 284.967 147.466ZM302.099 145.938C300.889 146.721 301.033 146.908 302.847 146.921C304.08 146.929 305.09 146.487 305.09 145.938C305.09 144.687 304.032 144.687 302.099 145.938ZM286.643 152.526C283.901 154.441 278.414 157.87 274.449 160.144C264.964 165.584 265.88 166.09 275.996 161C280.399 158.783 284.156 157.434 284.345 158.001C284.951 159.82 292.697 153.399 292.697 151.077C292.697 148.344 292.594 148.367 286.643 152.526ZM290.133 157.047C287.117 159.266 280.53 163.31 275.496 166.035L266.344 170.987L267.876 174.682C279.081 201.704 283.869 204.311 301.278 192.872C317.28 182.356 317.753 180.74 308.736 167.41C298.724 152.608 297.271 151.798 290.133 157.047ZM270.689 155.781C267.247 157.909 263.439 161.908 264.855 161.908C266.465 161.908 275.176 156.03 275.176 154.943C275.176 153.477 274.085 153.681 270.689 155.781ZM277.61 162.462C275.752 163.953 275.764 163.971 277.918 162.926C279.152 162.327 280.162 161.629 280.162 161.374C280.162 160.611 279.644 160.831 277.61 162.462ZM274.179 164.404C274.179 164.678 274.403 164.903 274.678 164.903C274.952 164.903 275.176 164.678 275.176 164.404C275.176 164.129 274.952 163.905 274.678 163.905C274.403 163.905 274.179 164.129 274.179 164.404ZM277.834 185.596C282.628 195.012 283.27 199.152 278.85 192.143C275.311 186.531 269.19 174.154 269.215 172.663C269.254 170.463 272.965 176.032 277.834 185.596ZM243.383 186.77C240.52 188.585 254.361 192.807 263.27 192.836C271.563 192.863 274.19 187.784 266.538 186.518C260.893 185.585 244.979 185.758 243.383 186.77Z" fill="#C4C4C4"/>
<path fill-rule="evenodd" clip-rule="evenodd" d="M229.951 190.905C227.519 192.609 227.112 194.303 229.134 194.303C230.917 194.303 234.162 190.66 233.012 189.949C232.516 189.642 231.139 190.073 229.951 190.905ZM218.554 191.386C216.496 192.586 216.216 195.302 218.15 195.302C219.857 195.302 223.023 191.864 222.135 190.976C221.256 190.096 220.649 190.166 218.554 191.386ZM220.005 200.83C216.655 204.181 215.77 205.652 216.599 206.482C217.855 207.738 220.801 205.942 220.801 203.921C220.801 203.3 222.486 201.349 224.546 199.585C227.473 197.077 227.88 196.368 226.411 196.339C225.379 196.318 222.495 198.339 220.005 200.83ZM211.261 198.386C210.893 198.983 211.071 199.953 211.659 200.541C212.906 201.788 216.147 199.654 215.239 198.186C214.479 196.955 212.07 197.077 211.261 198.386ZM230.038 198.548C230.267 199.236 231.278 199.797 232.285 199.797C233.291 199.797 234.303 199.236 234.531 198.548C234.795 197.757 233.971 197.3 232.285 197.3C230.598 197.3 229.774 197.757 230.038 198.548ZM225.461 202.961C224.502 203.92 224.641 207.289 225.639 207.289C226.606 207.289 229.788 203.972 229.788 202.965C229.788 202.096 226.329 202.092 225.461 202.961ZM207.925 204.665C206.566 206.303 207.49 209.287 209.358 209.287C210.877 209.287 212.249 205.803 211.321 204.301C210.462 202.913 209.274 203.039 207.925 204.665ZM232.984 204.492C231.606 205.87 231.38 208.288 232.629 208.288C233.965 208.288 236.854 204.702 236.115 203.961C235.149 202.997 234.342 203.133 232.984 204.492ZM213.012 209.486C212.353 210.146 211.814 211.527 211.814 212.556C211.814 215.602 215.256 214.22 215.625 211.026C215.961 208.11 214.972 207.527 213.012 209.486ZM221.467 209.953C220.492 210.929 220.654 214.281 221.678 214.281C222.159 214.281 223.097 213.627 223.761 212.827C225.534 210.688 223.402 208.017 221.467 209.953ZM228.171 212.735C227.865 213.533 227.919 214.679 228.29 215.281C229.144 216.662 231.785 214.682 231.785 212.661C231.785 210.831 228.878 210.891 228.171 212.735ZM205.405 213.844C203.498 215.75 203.317 219.276 205.124 219.276C206.957 219.276 208.819 217.191 208.819 215.139C208.819 212.624 207.227 212.02 205.405 213.844ZM218.36 219.215C216.261 221.535 217.002 224.57 219.55 224.085C221.464 223.719 222.514 219.59 221.062 218.138C220.519 217.595 219.436 218.026 218.36 219.215ZM209.519 218.908C208.448 219.979 208.686 224.07 209.861 224.797C211.466 225.789 213.943 223.195 213.61 220.872C213.311 218.789 210.829 217.598 209.519 218.908ZM225.289 219.285C224.509 220.548 225.631 224.27 226.793 224.27C227.954 224.27 229.076 220.548 228.296 219.285C227.954 218.73 227.277 218.277 226.793 218.277C226.308 218.277 225.631 218.73 225.289 219.285ZM202.028 225.469C200.531 226.967 200.474 229.925 201.925 230.822C203.686 231.911 206.116 228.766 205.359 226.38C204.598 223.98 203.749 223.748 202.028 225.469ZM224.463 228.932C223.336 230.059 223.724 232.956 225.162 234.15C226.198 235.01 226.82 234.931 227.741 233.82C229.977 231.125 226.882 226.511 224.463 228.932ZM214.748 231.925C214.078 233.689 214.072 234.92 214.73 235.578C216.188 237.036 218.804 234.506 218.804 231.64C218.804 228.377 216.022 228.573 214.748 231.925ZM206.489 230.93C205.297 232.122 205.788 236.257 207.121 236.257C208.973 236.257 210.816 234.165 210.816 232.062C210.816 230.299 207.885 229.533 206.489 230.93ZM200.912 235.66C199.364 237.525 199.885 240.752 201.734 240.752C204.203 240.752 205.492 237.497 203.723 235.727C202.332 234.335 202.016 234.327 200.912 235.66ZM224.454 237.93C223.602 238.783 223.602 243.72 224.454 244.573C225.45 245.569 227.791 243.24 227.791 241.252C227.791 239.264 225.45 236.934 224.454 237.93ZM205.875 240.689C204.48 242.371 205.214 247.245 206.861 247.245C208.938 247.245 210.29 242.297 208.66 240.665C207.311 239.316 207.012 239.318 205.875 240.689ZM213.204 242.823C212.839 244.281 213.049 245.884 213.692 246.526C215.407 248.242 218.197 245.06 217.341 242.363C216.417 239.446 213.984 239.717 213.204 242.823Z" fill="#A5C2DF"/>
<path fill-rule="evenodd" clip-rule="evenodd" d="M375.496 43.1462C380.477 44.1731 388.346 46.5242 392.981 48.3713L401.406 51.7304V55.8877C401.406 61.0809 402.681 62.5798 403.522 58.3766C406.369 44.1591 450.863 95.1682 450.863 112.649C450.863 126.029 407.115 142.696 402.992 130.887C402.097 128.325 401.63 127.902 400.936 129.024C399.838 130.797 397.344 129.628 391.717 124.699L388.022 121.464L389.464 117.284C394.096 103.854 395.321 79.849 391.927 69.0334C390.835 65.5546 389.936 61.6967 389.929 60.4622C389.914 57.8387 389.196 57.6551 386.936 59.6978C385.671 60.8424 384.535 60.9612 381.946 60.2197C371.673 57.2768 359.459 67.9018 357.408 81.5674C356.468 87.8204 355.114 85.7507 354.275 76.7833C353.709 70.7249 353.829 70.207 356.345 67.8788C359.353 65.0936 360.926 58.1071 360.936 47.4892C360.943 40.0796 360.812 40.1185 375.496 43.1462ZM371.932 50.7324C371.932 52.1046 372.382 53.2273 372.931 53.2273C373.481 53.2273 373.93 52.1046 373.93 50.7324C373.93 49.3603 373.481 48.2376 372.931 48.2376C372.382 48.2376 371.932 49.3603 371.932 50.7324ZM382.411 62.9032C397.961 70.3098 393.974 115.367 376.285 132.116C356.669 150.691 320.244 161.51 328.944 146.177C332.278 140.305 345.093 128.634 346.36 130.317C348.246 132.824 348.952 132.484 348.952 129.065C348.952 127.415 350.744 122.588 352.937 118.337C356.432 111.554 357.112 109.08 358.484 98.134C362.37 67.1054 369.425 56.718 382.411 62.9032ZM404.903 73.1858C404.903 74.8324 405.353 76.1796 405.902 76.1796C406.452 76.1796 406.901 74.8324 406.901 73.1858C406.901 71.5392 406.452 70.192 405.902 70.192C405.353 70.192 404.903 71.5392 404.903 73.1858ZM363.939 80.1713C363.939 81.8179 364.389 83.1651 364.938 83.1651C365.488 83.1651 365.937 81.8179 365.937 80.1713C365.937 78.5247 365.488 77.1775 364.938 77.1775C364.389 77.1775 363.939 78.5247 363.939 80.1713ZM380.924 83.664C380.924 85.5851 381.374 87.1568 381.923 87.1568C382.473 87.1568 382.922 85.5851 382.922 83.664C382.922 81.743 382.473 80.1713 381.923 80.1713C381.374 80.1713 380.924 81.743 380.924 83.664ZM427.883 87.1568C427.883 90.3561 429.273 91.1784 430.274 88.5719C431.301 85.8974 430.95 84.163 429.382 84.163C428.383 84.163 427.883 85.1609 427.883 87.1568ZM415.894 87.0979C415.894 88.1637 416.343 89.3123 416.893 89.6516C417.459 90.0019 417.892 89.1626 417.892 87.7146C417.892 86.3105 417.442 85.1609 416.893 85.1609C416.343 85.1609 415.894 86.0321 415.894 87.0979ZM401.381 92.1873C400.441 93.7052 401.766 98.3376 402.934 97.6171C404.172 96.8537 404.201 92.4478 402.974 91.6904C402.462 91.374 401.746 91.5976 401.381 92.1873ZM382.922 101.128C382.922 102.774 383.342 104.122 383.855 104.122C385.068 104.122 386.229 100.44 385.426 99.1409C384.203 97.166 382.922 98.1829 382.922 101.128ZM363.939 103.183C363.939 104.964 364.356 105.979 364.938 105.618C365.488 105.279 365.937 103.906 365.937 102.566C365.937 101.226 365.488 100.13 364.938 100.13C364.389 100.13 363.939 101.504 363.939 103.183ZM422.887 103.065C422.887 104.131 423.337 105.279 423.887 105.618C424.453 105.969 424.886 105.129 424.886 103.681C424.886 102.277 424.436 101.128 423.887 101.128C423.337 101.128 422.887 101.999 422.887 103.065ZM411.298 103.523C410.932 104.475 411.127 105.747 411.731 106.351C412.531 107.149 413.012 106.977 413.496 105.718C413.861 104.766 413.666 103.494 413.062 102.89C412.263 102.092 411.781 102.264 411.298 103.523ZM440.618 103.373C440.054 105.047 440.902 108.113 441.929 108.113C443.336 108.113 444.027 106.19 443.367 104.113C442.655 101.873 441.25 101.495 440.618 103.373ZM407.901 115.099C407.901 118.044 409.181 119.061 410.404 117.086C411.208 115.786 410.047 112.105 408.833 112.105C408.32 112.105 407.901 113.452 407.901 115.099ZM395.911 116.038C395.911 117.104 396.323 118.228 396.825 118.539C397.92 119.215 398.8 117.103 398.155 115.348C397.441 113.409 395.911 113.88 395.911 116.038ZM377.927 119.149C377.927 120.931 378.343 121.946 378.926 121.585C379.475 121.246 379.925 119.873 379.925 118.533C379.925 117.192 379.475 116.097 378.926 116.097C378.376 116.097 377.927 117.471 377.927 119.149ZM365.937 120.587C365.937 121.96 366.387 123.082 366.936 123.082C367.486 123.082 367.935 121.96 367.935 120.587C367.935 119.215 367.486 118.093 366.936 118.093C366.387 118.093 365.937 119.215 365.937 120.587ZM434.577 120.429C434.294 121.164 434.452 122.396 434.928 123.164C436.094 125.048 438.382 122.849 437.539 120.654C436.802 118.738 435.271 118.621 434.577 120.429ZM422.887 122.025C422.887 123.091 423.337 124.24 423.887 124.579C424.453 124.929 424.886 124.09 424.886 122.642C424.886 121.238 424.436 120.088 423.887 120.088C423.337 120.088 422.887 120.96 422.887 122.025ZM412.896 128.013C412.896 129.079 413.308 130.203 413.81 130.514C414.905 131.19 415.786 129.078 415.14 127.323C414.426 125.384 412.896 125.855 412.896 128.013ZM389.916 127.573C389.916 127.847 389.691 128.072 389.417 128.072C389.142 128.072 388.917 127.847 388.917 127.573C388.917 127.298 389.142 127.074 389.417 127.074C389.691 127.074 389.916 127.298 389.916 127.573ZM386.636 132.964C359.699 162.836 357.514 164.47 350.622 159.912C344.165 155.64 344.505 154.999 356.868 148.117C369.326 141.184 368.694 141.392 369.114 144.079C369.576 147.02 371.432 146.027 371.432 142.837C371.432 138.715 384.167 127.585 386.92 129.302C388.811 130.482 388.805 130.559 386.636 132.964ZM357.944 138.55C357.944 139.922 358.394 141.045 358.943 141.045C359.493 141.045 359.942 139.922 359.942 138.55C359.942 137.178 359.493 136.055 358.943 136.055C358.394 136.055 357.944 137.178 357.944 138.55ZM340.959 144.538C340.959 145.91 341.409 147.032 341.958 147.032C342.508 147.032 342.957 145.91 342.957 144.538C342.957 143.165 342.508 142.043 341.958 142.043C341.409 142.043 340.959 143.165 340.959 144.538ZM356.945 158.01C356.945 160.955 358.226 161.971 359.449 159.997C360.252 158.697 359.091 155.016 357.877 155.016C357.365 155.016 356.945 156.363 356.945 158.01ZM296.997 203.415C296.997 203.69 296.773 203.914 296.498 203.914C296.223 203.914 295.998 203.69 295.998 203.415C295.998 203.141 296.223 202.916 296.498 202.916C296.773 202.916 296.997 203.141 296.997 203.415ZM294.999 204.413C294.999 204.688 294.774 204.912 294.5 204.912C294.225 204.912 294 204.688 294 204.413C294 204.139 294.225 203.914 294.5 203.914C294.774 203.914 294.999 204.139 294.999 204.413Z" fill="#ED4865"/>
<path fill-rule="evenodd" clip-rule="evenodd" d="M320.541 2.99996C291.784 17.489 301.062 72.4731 332.971 76.6676C338.369 77.3774 341.64 79.7666 343.558 84.399C344.218 85.9934 345.159 87.299 345.65 87.299C349.706 87.299 340.513 75.712 335.746 74.8173C328.805 73.5137 314.548 64.7507 314.548 61.7878C314.548 60.6291 315.456 60.8811 318.471 62.8774C320.628 64.3069 326.309 66.784 331.096 68.3835C341.049 71.7083 341.979 72.3271 344.518 77.3074C345.538 79.3077 348.363 83.3893 350.795 86.3773L355.218 91.8114L354.528 100.5C353.702 110.913 353.043 112.061 338.761 127.979C333.239 134.133 327.501 140.768 326.011 142.724C322.956 146.732 315.662 147.702 310.552 144.779C307.344 142.944 303.576 142.953 301.132 144.803C299.432 146.09 298.997 146.075 297.448 144.673C292.934 140.585 269.338 151.534 262.199 161.029L260.297 163.559L264.997 173.029C270.686 184.489 272.06 183.277 252.458 184.089L236.132 184.765L235.816 187.515C235.406 191.079 235.823 191.223 258.508 195.335C268.618 197.167 277.251 199.138 277.693 199.713C278.137 200.289 279.823 202.326 281.442 204.242L284.386 207.725L289.211 206.433C295.021 204.878 313.131 194.264 318.607 189.206C323.129 185.027 323.602 182.059 320.545 177.042C316.295 170.066 325.496 153.541 332.409 155.737C333.539 156.096 335.808 155.663 337.566 154.754C339.293 153.86 340.953 153.376 341.254 153.678C342.236 154.661 339.248 157.379 334.589 159.744C327.866 163.156 325.483 166.029 327.907 167.802C329.631 169.064 329.531 169.245 326.395 170.556C319.196 173.567 319.196 177.244 326.393 179.244C336.212 181.973 342.805 179.599 349.074 171.077C351.436 167.866 355.535 163.51 358.182 161.396C363.515 157.137 381.643 138.635 388.288 130.667L392.553 125.552L398.413 131.667L404.273 137.782L403.382 149.673C402.892 156.212 401.594 166.559 400.498 172.665C393.834 209.782 394.106 242.628 401.441 286.231C402.504 292.553 403.846 301.775 404.423 306.724C405.001 311.672 406.424 321.619 407.588 328.83C410.121 344.532 409.727 346.539 403.377 350.248C399.623 352.44 398.868 353.421 398.365 356.766L397.773 360.705L396.991 357.456C395.538 351.411 391.961 353.849 392.297 360.657C392.445 363.645 392.236 364.312 391.497 363.204C390.947 362.379 390.49 360.467 390.481 358.956C390.464 355.929 388.9 355.439 386.007 357.556C384.594 358.591 384.312 359.652 384.802 362.104C385.202 364.102 385.072 365.074 384.458 364.695C383.916 364.36 383.474 363.243 383.474 362.212C383.474 358.168 370.397 359.847 366.839 364.35C359.583 373.531 366.893 377.111 394.462 377.88C429.947 378.871 431.026 378.41 430.644 362.402C430.01 335.732 429.729 340.049 434.458 303.652C435.535 295.363 437.121 284.792 437.982 280.16L439.55 271.736L458.212 271.592C468.476 271.512 481.594 270.925 487.362 270.286C493.131 269.648 500.998 268.891 504.844 268.604L511.836 268.081L515.091 273.157C517.869 277.492 518.818 278.245 521.584 278.312L524.822 278.391L522.021 279.413C517.886 280.922 518.885 283.601 523.833 284.27L527.819 284.808L524.573 285.599C519.333 286.874 520.982 291.158 526.77 291.308L529.817 291.387L527.07 292.39C520.488 294.797 527.337 310.222 534.985 310.222H538.308L538.493 304.474L538.677 298.726L539.044 303.974C540.58 325.951 542.756 297.093 541.499 271.408C540.185 244.548 539.5 243.634 522.172 245.665C519.234 246.008 514.366 246.552 511.354 246.873C499.07 248.181 458.525 243.166 449.665 239.245L445.152 237.246L445.821 232.999C446.927 225.983 450.253 215.71 457.393 197.261C466.961 172.534 467.875 168.572 467.879 151.777C467.883 136.123 467.869 136.076 458.572 121.787C454.684 115.811 453.996 113.987 453.859 109.291C453.463 95.6801 424.03 59.3436 404.116 47.8805C398.835 44.8416 396.504 42.7233 393.83 38.5407C378.291 14.2321 337.505 -5.5471 320.541 2.99996ZM333.305 23.8778C334.724 24.8724 335.525 26.4709 335.525 28.3083C335.525 30.3606 336.382 31.7921 338.522 33.3175C344.124 37.3092 342.049 49.8848 335.406 52.203C322.018 56.8734 303.182 41.9906 315.933 36.8163C323.133 33.8943 327.534 29.9037 327.534 26.3C327.534 21.9864 329.457 21.1797 333.305 23.8778ZM350.71 36.4435C357.329 37.853 357.471 38.0909 357.473 47.8126C357.476 60.7251 356.188 62.8144 351.481 57.5412C350.123 56.0197 347.817 53.8825 346.359 52.7928C344.025 51.0494 342.889 35.3169 345.097 35.3169C345.273 35.3169 347.798 35.8237 350.71 36.4435ZM387.969 43.3561C399.392 47.3797 401.5 49.5 401.5 49.5L402.5 50C403.049 50 403.5 50.9445 403.5 50.9445C403.5 50.9445 403.694 50.3867 411.925 56.5695C432.175 71.7793 448.76 93.6618 450.134 106.981L450.691 112.379L445.802 117.084C433.2 129.208 404.371 137.439 403.069 129.285C402.516 125.829 400.456 123.464 400.456 126.286C400.456 128.3 398.051 127.18 392.877 122.757L387.579 118.227L389.005 114.186C393.888 100.336 395.23 74.7793 391.561 65.5195C390.409 62.6125 389 62.3215 389 61L385.848 58.4751C385.848 58.4751 385.037 58.091 382.707 57.1833C371.094 52.6659 356.503 66.0273 356.503 81.1791C356.503 86.0184 354.529 81.8249 353.88 75.605C353.133 68.4665 353.932 64.3069 356.047 64.3069C358.407 64.3069 359.607 59.6795 360.217 48.2364L360.779 37.664L369.879 38.9266C374.884 39.6214 383.024 41.6147 387.969 43.3561ZM383.184 60.2733C393.374 66.4911 394.214 96.4228 384.789 117.501C377.172 134.538 336.263 157.522 330.112 148.221L327.43 144.164L333.382 137.475C343.566 126.026 345.193 124.697 345.984 127.191C347.086 130.664 348.511 129.549 348.511 125.216C348.511 122.386 349.378 119.876 351.36 116.969C356.182 109.896 356.515 108.75 358.015 94.0597C361.075 64.098 369.943 52.1941 383.184 60.2733ZM84.1921 73.9896C83.0373 74.2175 79.4412 76.6566 76.2007 79.4107C72.9611 82.1638 67.6838 85.8245 64.4732 87.5459C53.0125 93.6908 50.723 100.967 57.8234 108.676C61.6403 112.82 61.7891 113.227 61.1628 117.8C60.3896 123.447 61.9769 125.26 67.7537 125.328L71.3089 125.369L67.4471 128.783C64.8718 131.059 60.5295 133.214 54.412 135.255C13.5219 148.887 -9.16074 206.665 4.16995 263.232C5.65935 269.551 6.89203 277.199 6.90901 280.226C7.09381 313.143 21.9049 326.947 52.8287 323.02C55.8535 322.636 57.2 322.68 55.8255 323.119C47.3886 325.811 42.8395 329.696 42.8395 334.207C42.8395 335.376 42.4209 336.072 41.9095 335.757C36.7919 332.592 41.439 343.702 48.4884 351.486C52.0835 355.457 56.7815 361.272 58.9282 364.407C63.6391 371.292 68.1493 374.895 74.4196 376.783C79.4182 378.289 93.4571 378.695 88.7902 377.199C86.5695 376.488 86.7104 376.388 90.0708 376.3C104.459 375.92 104.796 367.343 90.7031 360.179C85.6385 357.605 84.9253 356.823 82.9614 351.688C79.3842 342.334 80.2433 334.601 84.5597 337.298C87.6164 339.208 96.375 334.063 112.764 320.729C116.885 317.376 127.588 309.089 136.548 302.313C155.873 287.698 169.305 275.297 171.836 269.736C176.225 260.091 171.542 242.119 163.217 236.661L160.723 235.025L163.367 231.887C169.669 224.409 170.459 217.942 165.01 218.426C157.896 219.058 158.083 205.506 165.305 197.039C172.645 188.434 173.894 184.37 171.189 177.89C169.23 173.2 164.576 172.828 159.661 176.966L156.458 179.664L154.557 177.315C152.171 174.368 152.565 173.144 156.281 171.955C161.946 170.142 166.762 164.25 164.656 161.709C161.993 158.499 154.802 160.785 151.685 165.833L149.699 169.049L146.701 166.247C143.13 162.908 136.212 161.339 134.232 163.417C131.143 166.661 138.008 173.258 144.48 173.265C147.588 173.269 151.723 176.098 151.723 178.221C151.723 178.772 149.686 178.931 146.887 178.6C139.358 177.708 135.769 180.432 139.312 184.35C140.783 185.977 140.538 186.162 135.566 187.171C125.613 189.189 91.2965 196.403 89.1857 196.922C87.1689 197.417 87.063 196.997 86.5655 186.604C86.131 177.52 85.4338 173.971 82.2522 164.647L78.4572 153.527L81.0055 148.653L83.5528 143.78L90.1926 143.11C101.147 142.005 109.61 135.414 112.861 125.457C113.52 123.439 115.678 120.377 117.657 118.653C121.478 115.325 121.547 114.917 120.681 100.794C120.58 99.1449 120.835 96.1329 121.247 94.1006C122.751 86.7052 119.157 82.3197 111.566 82.2857C107.951 82.2697 106.186 81.412 99.7714 76.5527C95.5039 73.3198 91.1926 72.61 84.1921 73.9896ZM346.514 89.7981C346.514 90.073 346.738 90.298 347.013 90.298C347.288 90.298 347.513 90.073 347.513 89.7981C347.513 89.5232 347.288 89.2983 347.013 89.2983C346.738 89.2983 346.514 89.5232 346.514 89.7981ZM89.3326 110.527C90.6502 114.983 93.8228 116.257 103.656 116.274L112.028 116.289L111.479 120.389C110.304 129.157 100.758 139.256 92.1126 140.88C82.0254 142.773 74.008 130.236 80.8976 123.342C83.0973 121.14 83.7755 119.745 83.2421 118.516C81.3252 114.103 81.5769 110.559 83.9224 108.915C87.2518 106.581 88.2557 106.88 89.3326 110.527ZM389.135 124.953C388.768 125.319 388.469 125.019 388.469 124.286C388.469 123.554 388.768 123.254 389.135 123.619C389.5 123.986 389.5 124.586 389.135 124.953ZM387.727 126.625C390.479 124.924 383.626 132.871 370.996 146.029C355.732 161.931 356.183 161.711 349.46 156.525C343.259 151.741 342.671 152.725 356.253 145.156L367.991 138.614L370.296 137.782C370.296 137.782 370.188 137.069 373.321 134.896C375.371 133.475 378.811 130.504 380.968 128.295C384.177 125.005 385.042 124.553 385.741 125.802C386.21 126.64 387.104 127.011 387.727 126.625ZM75.6982 130.862C76.2406 132.829 77.8849 136.013 79.3513 137.938L82.0174 141.435L79.0057 147.606C77.3494 150.999 75.7262 154.601 75.3995 155.609C74.0799 159.672 68.0064 150.809 64.6181 139.878L63.4094 135.975L68.2052 131.631C74.012 126.369 74.4465 126.325 75.6982 130.862ZM61.1648 139.531C61.93 140.769 63.5942 144.362 64.8648 147.519C67.5799 154.268 72.2219 160.274 74.7232 160.274C79.4632 160.274 82.7986 169.768 83.5048 185.265C84.7335 212.229 77.6201 210.963 65.3083 182.028C51.0496 148.513 15.0742 152.387 23.7919 186.499C29.9573 210.624 57.1491 243.245 71.0931 243.245C72.9641 243.245 74.1628 244.047 75.1718 245.974L76.6002 248.704L52.9776 256.823C39.9845 261.288 25.7578 266.355 21.3625 268.084C10.1196 272.505 9.29545 272.381 7.3875 265.988C-5.07813 224.198 8.45935 168.834 36.3464 147.556C48.1627 138.54 58.4897 135.202 61.1648 139.531ZM293.068 146.284C291.057 149.54 280.788 155.163 280.296 153.277C279.697 150.988 280.734 150.016 286.636 147.337C291.49 145.134 294.036 144.716 293.068 146.284ZM308.682 146.942C309.929 148.455 309.843 148.494 307.738 147.371C305.829 146.353 304.998 146.416 302.993 147.73C301.628 148.625 300.563 148.862 300.563 148.269C300.563 147.235 303.958 145.468 306.185 145.342C306.804 145.308 307.928 146.028 308.682 146.942ZM296.567 147.715C296.567 150.301 277.728 162.901 269.538 165.793C262.43 168.302 264.016 166.727 272.96 162.394C277.617 160.139 284.719 155.815 288.743 152.785C296.161 147.201 296.567 146.937 296.567 147.715ZM328.34 150.928C328.95 155.22 319.697 163.273 314.154 163.273C306.965 163.273 307.981 156.234 315.63 153.053C320.596 150.988 321.568 149.886 319.293 148.906C318.607 148.61 320.292 148.46 323.039 148.573C327.312 148.748 328.077 149.089 328.34 150.928ZM307.84 150.577C308.114 151.293 307.77 152.939 307.077 154.237L305.814 156.597L304.101 153.981C303.159 152.543 302.679 150.895 303.033 150.321C303.943 148.847 307.244 149.023 307.84 150.577ZM306.665 162.273C318.937 179.425 319.106 179.758 317.104 182.816C313.81 187.847 288.868 203.259 284.02 203.259C283.219 203.259 267.598 173.305 267.598 171.772C267.598 171.507 270.55 169.951 274.158 168.313C281.764 164.862 292.993 157.596 296.491 153.862C299.886 150.239 298.188 150.643 293.239 154.636C289.248 157.856 282.541 162.32 283.581 161.065C293.485 149.108 297.392 149.313 306.665 162.273ZM276.898 155.353C277.425 157.368 266.166 164.172 264.712 162.717C264.014 162.018 273.918 153.924 276.222 153.311C276.296 153.292 276.6 154.211 276.898 155.353ZM348.435 158.863C355.493 164.806 343.967 177.296 331.464 177.253C322.885 177.223 322.489 174.929 330.531 171.848C340.207 168.14 342.767 164.555 334.974 165.624C329.392 166.39 329.859 165.153 336.408 161.832C339.014 160.511 341.734 158.72 342.453 157.853C344.21 155.734 344.846 155.842 348.435 158.863ZM47.3346 163.173C54.3391 166.425 58.4587 171.899 63.762 185.002C74.3886 211.258 94.3232 224.495 123.5 224.668L137.733 224.752L137.735 230.864L137.738 236.976L132.993 237.649C110.637 240.821 103.546 241.496 91.7869 241.571C61.1788 241.766 48.6103 233.067 32.7573 200.72C19.024 172.697 26.481 153.49 47.3346 163.173ZM282.582 161.759C282.582 162.365 270.937 168.289 269.875 168.222C269.446 168.196 272.019 166.644 275.59 164.772C282.817 160.987 282.582 161.087 282.582 161.759ZM315.214 168.938C314.848 169.304 314.548 169.004 314.548 168.271C314.548 167.538 314.848 167.238 315.214 167.604C315.58 167.971 315.58 168.571 315.214 168.938ZM268.597 168.771C268.597 169.046 268.372 169.271 268.098 169.271C267.823 169.271 267.598 169.046 267.598 168.771C267.598 168.496 267.823 168.271 268.098 168.271C268.372 168.271 268.597 168.496 268.597 168.771ZM270.61 173.807C274.784 184.793 286.481 204.134 284.039 196.012C282.739 191.69 272.082 171.908 270.837 171.505C269.871 171.192 269.818 171.724 270.61 173.807ZM170.702 183.306C170.702 185.27 166.898 191.766 164.357 194.139C161.318 196.977 158.715 196.357 158.715 192.794C158.715 191.402 158.656 189.932 158.584 189.526C158.512 189.12 160.5 187.657 163.002 186.277C165.503 184.895 167.884 183.428 168.294 183.016C169.367 181.934 170.702 182.094 170.702 183.306ZM319.543 184.592C319.543 184.77 318.306 186.007 316.795 187.341L314.048 189.764L316.47 187.015C318.733 184.446 319.543 183.807 319.543 184.592ZM273.509 190.33C276.577 195.793 258.443 195.025 243.803 189.072L241.127 187.983L243.624 187.224C244.998 186.806 251.77 186.42 258.674 186.365L271.226 186.265L273.509 190.33ZM144.231 188.264C144.57 188.814 144.623 189.264 144.349 189.264C144.074 189.264 143.571 188.814 143.232 188.264C142.892 187.714 142.839 187.265 143.114 187.265C143.389 187.265 143.891 187.714 144.231 188.264ZM146.294 202.665C148.032 209.593 112.855 222.166 101.211 218.778C67.2862 208.908 76.0538 201.476 135.74 189.503L140.235 188.601L142.935 194.318C144.419 197.463 145.932 201.219 146.294 202.665ZM154.518 194.512C154.097 203.346 150.235 204.254 146.931 196.297L144.827 191.229L148.025 189.829C154.256 187.099 154.85 187.528 154.518 194.512ZM296.567 200.76C296.567 201.035 296.342 201.26 296.068 201.26C295.793 201.26 295.568 201.035 295.568 200.76C295.568 200.485 295.793 200.26 296.068 200.26C296.342 200.26 296.567 200.485 296.567 200.76ZM294.569 201.76C294.569 202.035 294.345 202.259 294.07 202.259C293.795 202.259 293.57 202.035 293.57 201.76C293.57 201.485 293.795 201.26 294.07 201.26C294.345 201.26 294.569 201.485 294.569 201.76ZM292.571 202.759C292.571 203.034 292.347 203.259 292.072 203.259C291.797 203.259 291.573 203.034 291.573 202.759C291.573 202.484 291.797 202.259 292.072 202.259C292.347 202.259 292.571 202.484 292.571 202.759ZM155.691 209.507L155.664 215.755L149.151 218.667C142.161 221.793 124.85 223.986 120.431 222.307C118.474 221.563 118.705 221.303 122.754 219.688C130.857 216.458 148.494 207.172 150.282 205.194C153.912 201.181 155.721 202.623 155.691 209.507ZM289.575 203.759C289.575 204.034 289.35 204.259 289.075 204.259C288.801 204.259 288.576 204.034 288.576 203.759C288.576 203.484 288.801 203.259 289.075 203.259C289.35 203.259 289.575 203.484 289.575 203.759ZM151.723 222.253L149.589 225.252L151.904 225.219C153.178 225.201 156.687 224.334 159.703 223.292C166.07 221.093 166.384 221.205 164.77 225.106C161.772 232.347 155.045 236.231 145.479 236.242L140.734 236.248V230.908V225.568L146.478 222.508C153.779 218.616 154.329 218.59 151.723 222.253ZM517.881 253.71C520.732 260.536 519.057 264.062 512.55 264.936L508.34 265.501V257.872V250.243H512.387C516.06 250.243 516.567 250.563 517.881 253.71ZM198.173 263.393C193.625 265.883 192.268 270.989 195.144 274.794C197.342 277.702 197.015 278.163 193.195 277.543C189.198 276.894 184.04 278.707 182.686 281.238C181.355 283.727 182.25 284.117 186.902 283.072C194.776 281.301 199.274 283.901 200.363 290.855L200.971 294.728L198.863 292.86C196.098 290.41 188.573 289.615 183.62 291.251C178.165 293.053 178.695 293.857 185.872 294.67C193.23 295.502 196.788 297.174 199.592 301.114C203.843 307.088 203.142 307.446 184.687 308.718C161.634 310.307 155.456 314.262 160.593 324.141C162.453 327.716 164.648 335.041 166.614 344.237C171.166 365.515 171.256 365.768 174.966 367.498C187.112 373.162 226.727 373.002 233.813 367.26C235.455 365.928 236.857 361.346 240.259 346.194C244.23 328.5 244.884 326.543 247.836 323.494C254.893 316.208 243.257 310.369 217.562 308.302C204.369 307.241 204.041 307.016 209.161 302.556C213.965 298.371 218.522 296.227 222.615 296.227C226.543 296.227 226.461 294.707 222.397 292.181C217.92 289.398 213.223 290.347 208.412 295.005L204.666 298.632V295.617C204.666 290.716 214.675 283.32 221.398 283.254C224.082 283.228 224.324 281.468 221.897 279.625C217.747 276.472 208.831 278.659 204.769 283.828L202.697 286.464L200.582 281.599C197.299 274.044 196.998 269.642 199.531 266.213C202.621 262.03 202.212 261.182 198.173 263.393ZM198.547 310.847C202.403 311.619 202.575 312.977 198.922 313.807C197.412 314.15 193.304 315.288 189.796 316.335C184.777 317.833 182.646 318.025 179.806 317.235C174.116 315.653 171.237 316.021 168.77 318.648C166.346 321.232 161.712 320.54 161.712 317.595C161.712 313.773 188.579 308.852 198.547 310.847ZM221.648 311.245C238.888 312.754 248.936 316.052 245.021 318.916C242.483 320.775 240.641 320.558 234.008 317.62C229.439 315.595 227.202 315.154 223.895 315.62C221.56 315.95 217.636 316.503 215.175 316.848C210.001 317.574 205.665 315.454 205.665 312.199C205.665 309.869 205.822 309.859 221.648 311.245ZM66.8137 319.719C66.8137 319.994 66.589 320.219 66.3143 320.219C66.0396 320.219 65.8148 319.994 65.8148 319.719C65.8148 319.444 66.0396 319.219 66.3143 319.219C66.589 319.219 66.8137 319.444 66.8137 319.719ZM64.4832 320.886C64.1166 321.252 63.5173 321.252 63.1507 320.886C62.785 320.519 63.0847 320.219 63.8169 320.219C64.5492 320.219 64.8488 320.519 64.4832 320.886ZM60.4875 321.885C60.1209 322.251 59.5216 322.251 59.1549 321.885C58.7893 321.518 59.089 321.219 59.8212 321.219C60.5534 321.219 60.8531 321.518 60.4875 321.885ZM76.2456 327.363C78.7879 330.192 80.7038 333.005 80.504 333.611C79.7439 335.92 72.0801 340.433 70.0263 339.781C65.1445 338.231 62.833 325.48 67.0635 323.438C70.7125 321.677 71.4018 321.971 76.2456 327.363ZM201.669 326.565C219.747 326.525 228.351 326.092 234.595 324.908C244.362 323.057 246.151 323.389 238.559 325.645C221.577 330.692 169.183 329.082 163.429 323.336C163.001 322.907 165.922 323.471 169.922 324.587C176.357 326.385 180.016 326.613 201.669 326.565ZM203.667 330.689C220.483 330.697 229.963 330.284 233.963 329.371C241.62 327.623 241.449 326.931 237.806 344.971C233.346 367.06 233.238 367.16 211.549 369.254C180.33 372.268 173.902 368.133 168.73 341.712C167.547 335.664 166.376 330.004 166.129 329.133C165.719 327.691 166.279 327.69 172.436 329.115C177.577 330.304 185.046 330.68 203.667 330.689ZM426.222 345.459L425.928 352.706L421.951 354.006C414.161 356.553 410.631 352.765 411.936 343.261L412.631 338.213H419.573H426.516L426.222 345.459ZM81.6188 354.891C83.341 358.085 83.0573 360.023 81.2472 357.436C79.2544 354.59 75.7871 344.522 75.863 341.804C75.895 340.654 76.9389 342.636 78.1815 346.21C79.4252 349.784 80.9715 353.69 81.6188 354.891ZM75.851 352.158C79.3213 360.692 79.4472 361.622 76.9538 360.286C75.2757 359.387 73.0151 353.539 71.3179 345.71C70.248 340.773 72.5556 344.056 75.851 352.158ZM51.9577 348.959C53.1993 350.544 53.1644 350.579 51.5801 349.337C49.9159 348.03 49.3874 347.21 50.2095 347.21C50.4163 347.21 51.2035 347.997 51.9577 348.959ZM63.8169 364.704C63.8169 364.979 63.5922 365.203 63.3175 365.203C63.0428 365.203 62.818 364.979 62.818 364.704C62.818 364.429 63.0428 364.204 63.3175 364.204C63.5922 364.204 63.8169 364.429 63.8169 364.704ZM71.8084 372.701C71.8084 372.976 71.5836 373.201 71.3089 373.201C71.0342 373.201 70.8094 372.976 70.8094 372.701C70.8094 372.426 71.0342 372.201 71.3089 372.201C71.5836 372.201 71.8084 372.426 71.8084 372.701ZM73.8062 373.701C73.8062 373.975 73.5815 374.2 73.3068 374.2C73.0321 374.2 72.8073 373.975 72.8073 373.701C72.8073 373.426 73.0321 373.201 73.3068 373.201C73.5815 373.201 73.8062 373.426 73.8062 373.701Z" fill="#017260"/>
<path fill-rule="evenodd" clip-rule="evenodd" d="M329.307 21.4582C328.974 22.3279 328.701 23.8623 328.701 24.868C328.701 26.8743 323.715 31.5027 319.738 33.1881C310.857 36.9528 311.899 43.7155 322.09 48.4639C337.207 55.5085 351.122 42.4659 340.688 31.0339C339.04 29.2285 337.691 26.8783 337.691 25.8127C337.691 21.5112 330.683 17.8704 329.307 21.4582ZM346.289 34.4537C345.955 35.3234 345.683 38.8362 345.683 42.26V48.4859L351.253 53.2982C358.371 59.4481 359.168 58.7863 359.168 46.7275C359.168 35.5083 349.44 26.2365 346.289 34.4537ZM389.636 121.842C389.636 122.391 390.085 122.841 390.634 122.841C391.184 122.841 391.633 122.391 391.633 121.842C391.633 121.292 391.184 120.842 390.634 120.842C390.085 120.842 389.636 121.292 389.636 121.842ZM321.25 147.083C321.529 147.813 319.964 149.181 317.487 150.374C309.157 154.385 308.753 160.828 316.834 160.828C323.638 160.828 331.996 151.307 328.69 147.32C327.157 145.471 320.553 145.261 321.25 147.083ZM343.57 155.693C342.259 156.717 339.277 158.525 336.942 159.712C331.424 162.516 331.348 164.298 336.784 163.428C342.82 162.463 341.427 164.679 333.642 168.429C325.782 172.214 325.278 174.201 332.065 174.634C344.989 175.456 358.011 162.66 350.6 156.419C346.934 153.331 346.632 153.3 343.57 155.693ZM315.715 165.827C315.715 166.376 316.164 166.826 316.714 166.826C317.263 166.826 317.713 166.376 317.713 165.827C317.713 165.277 317.263 164.827 316.714 164.827C316.164 164.827 315.715 165.277 315.715 165.827ZM509.507 255.296V262.793H512.581C516.131 262.793 521.494 258.109 521.494 255.008C521.494 251.194 517.695 247.798 513.43 247.798H509.507V255.296ZM413.404 340.017C412.431 349.957 415.701 353.902 423.225 351.868C427.769 350.639 428.594 348.836 428.594 340.142V335.768H421.207H413.82L413.404 340.017Z" fill="#D89687"/>
<path fill-rule="evenodd" clip-rule="evenodd" d="M83.6189 106.676C82.5531 107.853 81.9647 110.252 81.9617 113.421C81.9597 116.571 81.2415 119.515 79.9638 121.611C78.867 123.41 77.97 125.546 77.97 126.357C77.97 128.278 76.3507 128.261 75.6105 126.333C74.6545 123.84 72.411 124.617 67.3634 129.187L62.5575 133.54L65.3915 140.765C68.9557 149.854 72.1053 153.755 74.6625 152.25C77.8391 150.38 82.2953 139.844 81.0587 137.129C80.0148 134.836 80.0358 134.826 82.4931 136.436C88.9582 140.675 100.333 136.338 107.913 126.746C115.113 117.633 113.294 114.199 100.521 112.796C94.0827 112.089 93.2246 111.717 90.4706 108.436C87.0562 104.368 85.9614 104.086 83.6189 106.676ZM77.97 130.331C77.97 130.605 77.7452 130.83 77.4705 130.83C77.1958 130.83 76.9711 130.605 76.9711 130.331C76.9711 130.056 77.1958 129.831 77.4705 129.831C77.7452 129.831 77.97 130.056 77.97 130.331ZM162.707 183.095C158.095 186.614 157.012 190.205 159.996 192.088C162.462 193.645 164.595 192.302 167.877 187.126C172.983 179.07 170.51 177.141 162.707 183.095ZM143.4 185.792C143.739 186.342 144.242 186.791 144.517 186.791C144.791 186.791 144.738 186.342 144.399 185.792C144.059 185.243 143.557 184.793 143.282 184.793C143.007 184.793 143.06 185.243 143.4 185.792ZM146.646 186.871C144.363 188.201 144.442 190.527 146.905 194.57C150.597 200.626 154.887 199.341 154.887 192.179C154.887 186.014 151.672 183.943 146.646 186.871ZM145.647 219.335L140.902 221.805V227.782V233.759L145.148 233.753C154.268 233.741 162.155 229.341 164.888 222.74C166.621 218.554 165.788 218.189 158.9 220.103C151.13 222.265 150.567 222.243 151.856 219.835C153.947 215.924 152.431 215.802 145.647 219.335ZM65.9828 317.201C65.9828 317.476 66.2076 317.701 66.4823 317.701C66.757 317.701 66.9818 317.476 66.9818 317.201C66.9818 316.926 66.757 316.701 66.4823 316.701C66.2076 316.701 65.9828 316.926 65.9828 317.201ZM63.3187 318.367C63.6853 318.733 64.2847 318.733 64.6513 318.367C65.0169 318 64.7172 317.701 63.985 317.701C63.2528 317.701 62.9531 318 63.3187 318.367ZM59.323 319.366C59.6896 319.732 60.289 319.732 60.6556 319.366C61.0212 319 60.7215 318.7 59.9893 318.7C59.2571 318.7 58.9574 319 59.323 319.366ZM66.7111 320.83C62.2548 323.325 65.7481 336.687 70.8556 336.687C74.4268 336.687 80.3764 332.749 80.757 330.133C81.3544 326.035 70.3871 318.772 66.7111 320.83ZM75.9821 341.375C75.9931 344.53 80.1147 354.03 81.9697 355.178C83.3352 356.021 83.0365 354.717 79.7301 345.4C77.3926 338.813 75.9681 337.283 75.9821 341.375ZM71.1993 344.279C71.8915 349.418 75.8243 357.673 77.5804 357.673C79.6352 357.673 79.2956 355.589 76.067 348.39C72.4809 340.395 70.4441 338.675 71.1993 344.279ZM50 345.06C50 345.266 50.6843 346.005 51.5214 346.699C52.793 347.756 52.9398 347.694 52.4134 346.322C51.876 344.922 50 343.939 50 345.06ZM62.9861 362.17C62.9861 362.445 63.2108 362.669 63.4855 362.669C63.7602 362.669 63.985 362.445 63.985 362.17C63.985 361.895 63.7602 361.67 63.4855 361.67C63.2108 361.67 62.9861 361.895 62.9861 362.17ZM70.9775 370.164C70.9775 370.439 71.2022 370.664 71.477 370.664C71.7517 370.664 71.9764 370.439 71.9764 370.164C71.9764 369.889 71.7517 369.665 71.477 369.665C71.2022 369.665 70.9775 369.889 70.9775 370.164ZM72.9753 371.163C72.9753 371.438 73.2001 371.663 73.4748 371.663C73.7495 371.663 73.9743 371.438 73.9743 371.163C73.9743 370.889 73.7495 370.664 73.4748 370.664C73.2001 370.664 72.9753 370.889 72.9753 371.163Z" fill="#B16C5C"/>
<path fill-rule="evenodd" clip-rule="evenodd" d="M63.8171 137.748C64.5823 138.986 66.2465 142.58 67.5172 145.737C70.2323 152.485 74.8743 158.491 77.3756 158.491C82.1155 158.491 85.4509 167.985 86.1572 183.483C87.3858 210.446 80.2725 209.181 67.9607 180.246C53.702 146.73 17.7266 150.604 26.4442 184.716C32.6096 208.841 59.8014 241.463 73.7455 241.463C75.6165 241.463 76.8152 242.264 77.8241 244.192L79.2526 246.921L55.6299 255.04C42.6369 259.505 28.4101 264.573 24.0148 266.301C12.7719 270.723 11.9478 270.599 10.0398 264.205C-2.42578 222.415 11.1117 167.051 38.9988 145.774C50.8151 136.758 61.142 133.419 63.8171 137.748ZM49.987 161.39C56.9915 164.642 61.111 170.116 66.4143 183.22C77.0409 209.476 96.9756 222.712 126.152 222.885L140.385 222.969L140.387 229.081L140.39 235.193L135.645 235.867C113.289 239.038 106.199 239.713 94.4393 239.788C63.8311 239.983 51.2626 231.284 35.4096 198.937C21.6764 170.914 29.1334 151.707 49.987 161.39ZM148.947 200.883C150.684 207.81 115.508 220.383 103.863 216.995C69.9386 207.125 78.7062 199.693 138.392 187.72L142.887 186.818L145.587 192.535C147.072 195.68 148.584 199.436 148.947 200.883Z" fill="#A5C2DF"/>
<path fill-rule="evenodd" clip-rule="evenodd" d="M166.373 323.001C175.264 328.177 222.671 329.664 237.798 325.243C245.701 322.933 244.532 322.676 233.991 324.404C214.449 327.608 179.377 326.468 165.88 322.191C164.561 321.772 164.724 322.042 166.373 323.001ZM167.801 328.741C168.097 330.034 169.411 336.26 170.719 342.576C175.778 367.001 182.075 370.973 211.326 368.197C234.241 366.022 234.12 366.128 238.566 344.206C242.178 326.399 242.312 326.953 234.755 328.551C220.351 331.596 178.337 330.65 169.035 327.072C167.561 326.504 167.352 326.788 167.801 328.741Z" fill="#16314F"/>
<path fill-rule="evenodd" clip-rule="evenodd" d="M181.257 314.127C170.153 315.536 163.982 317.639 163.982 320.013C163.982 321.118 163.538 321.748 162.995 321.411C161.257 320.334 161.94 322.827 163.93 324.822C172.817 333.731 244.926 332.853 244.926 323.836C244.926 322.839 245.392 321.734 245.961 321.382C250.907 318.317 228.628 313 210.841 313C206.692 313 206.319 313.196 206.606 315.218C207.133 318.921 211.744 320.448 218.296 319.092C227.479 317.191 245.054 321.338 238.51 323.862C223.888 329.503 166.944 329.757 166.944 324.182C166.944 321.114 172.775 318.827 178.996 319.453C185.607 320.119 202.48 316.872 202.48 314.936C202.48 312.853 193.881 312.525 181.257 314.127ZM243.939 322.342C243.939 322.583 243.426 323.096 242.799 323.484C242.093 323.923 241.927 323.757 242.364 323.049C243.067 321.908 243.939 321.517 243.939 322.342Z" fill="#F3E7E2"/>
<path fill-rule="evenodd" clip-rule="evenodd" d="M322.192 2.35001C307.834 7.64801 299.65 23.493 303.288 38.951C308.478 61.005 318.896 73.884 332.673 75.28L337.417 75.76L332.417 74.439C323.346 72.042 318.066 68.062 314.445 60.893L312.745 57.526L316.081 60.028C320.75 63.53 326.56 66.254 332.417 67.687C340.191 69.588 343.2 71.967 346.285 78.649C347.938 82.23 350.441 85.684 352.545 87.289L356.051 89.963L355.357 99.111C354.976 104.142 354.241 109.073 353.724 110.067C352.363 112.686 336.034 131.403 330.034 137.221C327.22 139.951 324.917 142.936 324.917 143.855C324.917 146.927 312.82 147.487 308.909 144.595L305.783 142.284L301.818 144.456C297.92 146.591 297.832 146.595 296.644 144.694C293.818 140.169 272.396 150.02 262.959 160.183L260.501 162.831L265.209 172.308C267.798 177.521 269.917 182.172 269.917 182.644C269.917 183.117 262.267 183.83 252.917 184.23C239.874 184.788 235.917 185.264 235.917 186.276C235.917 188.985 237.193 190.759 239.141 190.759C240.247 190.759 249.58 192.378 259.882 194.356L278.613 197.953L280.752 202.356C283.696 208.415 290.302 206.723 307.738 195.443C322.332 186.003 324.247 183.37 320.293 178.186C316.192 172.808 315.859 166.369 319.537 163.521C321.121 162.294 324.476 159.383 326.993 157.051C330.473 153.826 331.848 153.09 332.733 153.975C333.618 154.86 334.772 154.722 337.553 153.395C346.367 149.193 343.859 155.245 334.917 159.759C326.236 164.141 324.807 167.068 330.917 167.951C332.901 168.238 332.179 168.737 327.417 170.369C316.755 174.024 321.897 179.435 335.168 178.525C341.711 178.077 344.722 175.854 350.062 167.533C351.808 164.812 353.88 162.759 354.88 162.759C356.745 162.759 376.83 142.638 385.825 131.759C401.807 112.428 410.399 142.411 402.461 189.82C396.332 226.434 395.574 277.759 401.163 277.759C401.697 277.759 401.888 276.747 401.588 275.509C401.287 274.271 400.49 265.1 399.815 255.129C398.173 230.855 398.679 225.369 407.472 172.011C408.484 165.868 407.92 147.252 406.548 141.496L405.173 135.733L407.795 135.227C439.965 129.028 456.582 116.766 451.412 103.042C443.433 81.857 419.606 55.175 400.599 46.139C397.946 44.877 395.414 42.267 392.299 37.581C376.762 14.211 340.05 -4.23799 322.192 2.35001ZM332.845 22.222C336.045 23.876 337.242 26.158 336.364 28.926C335.906 30.369 336.461 31.053 338.734 31.845C345.408 34.172 343.606 48.78 336.212 52.289C329.61 55.422 317.354 51.305 310.413 43.623C306.209 38.969 306.272 38.851 314.521 35.847C322.907 32.793 328.288 28.321 326.837 25.61C324.511 21.263 327.61 19.515 332.845 22.222ZM351.562 35.406L358.119 37.053L357.758 48.656C357.29 63.674 356.904 64.212 351.056 58.008C348.504 55.301 345.34 52.363 344.023 51.478C341.817 49.995 341.729 49.628 342.9 46.8C343.717 44.827 343.935 41.952 343.51 38.745C342.749 33.012 342.479 33.124 351.562 35.406ZM379.598 39.299C416.089 48.223 461.96 98.666 448.201 114.741C440.755 123.439 422.899 131.817 408.691 133.278L403.417 133.821L395.121 125.802L386.825 117.784L388.797 111.022C393.786 93.916 394.448 69.663 390.086 63.771C388.804 62.039 388.003 59.978 388.305 59.192C388.606 58.405 388.446 56.748 387.949 55.51C387.09 53.375 387.041 53.406 386.98 56.116C386.929 58.432 386.586 58.838 385.167 58.258C370.774 52.373 361.28 59.404 356.995 79.119L355.226 87.259L354.071 81.96C352.062 72.734 352.504 62.838 354.899 63.465C357.903 64.25 358.917 60.235 358.917 47.549V36.469L365.848 37.05C369.66 37.37 375.848 38.382 379.598 39.299ZM370.917 46.759C370.917 48.583 371.332 49.621 371.917 49.259C372.467 48.919 372.917 47.794 372.917 46.759C372.917 45.724 372.467 44.599 371.917 44.259C371.332 43.897 370.917 44.935 370.917 46.759ZM400.932 53.068C400.923 55.356 401.316 56.63 401.917 56.259C403.181 55.478 403.181 52.715 401.917 50.759C401.197 49.646 400.944 50.24 400.932 53.068ZM385.241 60.236C395.745 67.118 393.379 107.497 381.464 124.691C377.484 130.434 335.44 155.615 333.338 153.514C333.081 153.257 331.338 150.891 329.465 148.256L326.059 143.466L336.256 132.362C356.202 110.644 355.567 111.85 356.895 93.149C359.076 62.416 369.715 50.063 385.241 60.236ZM403.917 68.7C403.917 70.318 404.367 71.919 404.917 72.259C405.512 72.627 405.917 71.436 405.917 69.318C405.917 67.361 405.467 65.759 404.917 65.759C404.367 65.759 403.917 67.082 403.917 68.7ZM102.402 73.446C105.477 76.613 106.834 77.234 112.008 77.844C115.554 78.262 118.851 79.294 120.018 80.351C121.6 81.782 121.882 81.831 121.405 80.588C120.567 78.404 116.512 76.759 111.965 76.759C109.02 76.759 107.114 75.93 103.917 73.259C98.4974 68.731 97.8954 68.805 102.402 73.446ZM84.0124 74.266C81.3694 75.09 77.7694 77.441 75.0124 80.142C72.4854 82.618 68.3924 85.516 65.9174 86.581C53.0724 92.11 49.8014 101.755 58.5174 108.403C62.1414 111.167 62.5424 113.13 60.4694 117.965C59.1884 120.951 64.3444 125.114 68.4904 124.441C77.5264 122.975 65.2304 131.805 52.5824 135.866C11.4474 149.074 -11.7216 215.791 6.03936 269.892C7.59436 274.629 7.88436 277.367 7.38436 282.595C5.69736 300.23 13.6544 315.64 26.8614 320.316C32.6864 322.379 47.9514 323.413 50.5234 321.92C51.9964 321.064 50.2614 320.813 42.7054 320.789C19.7844 320.718 10.0504 311.219 9.11836 288.013C8.51836 273.093 14.8814 269.441 71.4174 252.253C143.174 230.439 192.672 241.852 165.771 274.009C163.586 276.622 162.387 278.759 163.107 278.759C167.431 278.759 173.361 266.349 172.593 258.908C171.429 247.631 164.447 242.162 146.417 238.408C145.317 238.178 146.745 237.939 149.59 237.875C153.656 237.784 155.476 237.17 158.09 235.009C166.992 227.65 171.482 216.073 164.388 218.77C162.957 219.314 161.433 219.759 161 219.759C160.566 219.759 159.911 215.479 159.544 210.247L158.875 200.735L162.571 197.497C170.162 190.848 175.142 178.613 170.167 178.838C169.122 178.885 168.92 179.12 169.667 179.421C172.903 180.727 169.413 189.007 163.02 195.194C158.28 199.781 158.388 199.824 157.517 192.998C156.88 188.011 156.978 187.686 159.381 186.773C162.83 185.461 162.59 184.374 159.01 185.09C156.386 185.615 156.129 185.433 156.372 183.215C156.521 181.864 156.266 180.759 155.807 180.759C155.348 180.759 154.005 178.509 152.822 175.759C151.639 173.009 150.276 170.759 149.794 170.759C148.599 170.759 148.686 171.408 150.303 174.559C152.1 178.057 154.543 187.754 155.42 194.865L156.111 200.47L152.889 201.115C151.117 201.469 149.329 201.759 148.915 201.759C148.148 201.759 143.917 192.632 143.917 190.976C143.917 190.475 144.929 189.571 146.167 188.968C148.164 187.994 148.051 187.935 145.167 188.44C143.089 188.804 141.917 188.603 141.917 187.884C141.917 185.861 108.896 191.433 92.2634 196.263C84.6424 198.475 84.7304 198.531 85.4714 191.988C86.3994 183.786 84.3094 171.853 80.3094 162.507C76.5614 153.751 76.5894 152.766 80.7784 145.992C83.3394 141.852 83.5384 141.744 87.5194 142.334C97.5304 143.818 112.767 130.713 112.895 120.509C112.908 119.483 113.68 118.759 114.762 118.759C119.598 118.759 122.317 110.046 119.549 103.421C118.126 100.014 118.123 99.285 119.521 95.791C122.79 87.622 119.28 82.785 109.494 81.974C105.027 81.603 103.684 81.053 102.375 79.054C98.9744 73.865 91.5284 71.923 84.0124 74.266ZM69.8634 77.353C67.9684 79.33 63.4924 82.367 59.9174 84.103C47.5204 90.122 44.7794 101.432 54.1654 107.84C57.3714 110.029 57.3634 110.007 53.6674 106.296C46.5634 99.164 49.4264 90.667 60.7754 85.192C64.7104 83.294 68.4584 80.531 70.6084 77.942C74.8724 72.809 74.5014 72.516 69.8634 77.353ZM362.917 76.759C362.917 78.409 363.367 79.759 363.917 79.759C364.467 79.759 364.917 78.409 364.917 76.759C364.917 75.109 364.467 73.759 363.917 73.759C363.367 73.759 362.917 75.109 362.917 76.759ZM338 76.042C338.23 76.198 339.317 76.985 340.417 77.792C342.267 79.149 342.314 79.128 341.045 77.509C340.29 76.546 339.202 75.759 338.628 75.759C338.054 75.759 337.771 75.886 338 76.042ZM379.917 79.759C379.917 81.409 380.367 82.759 380.917 82.759C381.467 82.759 381.917 81.409 381.917 79.759C381.917 78.109 381.467 76.759 380.917 76.759C380.367 76.759 379.917 78.109 379.917 79.759ZM342.917 81.259C342.917 81.534 343.142 81.759 343.417 81.759C343.692 81.759 343.917 81.534 343.917 81.259C343.917 80.984 343.692 80.759 343.417 80.759C343.142 80.759 342.917 80.984 342.917 81.259ZM427.253 82.326C426.922 83.188 427.161 84.403 427.784 85.026C428.628 85.87 428.917 85.47 428.917 83.459C428.917 80.45 428.168 79.941 427.253 82.326ZM415.253 83.326C414.922 84.188 415.161 85.403 415.784 86.026C416.628 86.87 416.917 86.47 416.917 84.459C416.917 81.45 416.168 80.941 415.253 83.326ZM400.932 91.068C400.923 93.356 401.316 94.63 401.917 94.259C403.181 93.478 403.181 90.715 401.917 88.759C401.197 87.646 400.944 88.24 400.932 91.068ZM382.253 96.326C381.922 97.188 382.161 98.403 382.784 99.026C383.628 99.87 383.917 99.47 383.917 97.459C383.917 94.45 383.168 93.941 382.253 96.326ZM362.917 99.259C362.917 100.634 363.367 101.759 363.917 101.759C364.467 101.759 364.917 100.634 364.917 99.259C364.917 97.884 364.467 96.759 363.917 96.759C363.367 96.759 362.917 97.884 362.917 99.259ZM422.491 99.426C422.139 100.343 422.316 101.558 422.884 102.126C423.595 102.837 423.917 102.316 423.917 100.459C423.917 97.374 423.418 97.012 422.491 99.426ZM410.978 101.759C410.978 104.614 411.166 104.937 411.997 103.509C412.689 102.32 412.689 101.198 411.997 100.009C411.166 98.581 410.978 98.904 410.978 101.759ZM440.522 100.345C440.188 101.217 440.351 102.68 440.885 103.595C441.658 104.919 441.862 104.594 441.887 102.009C441.92 98.45 441.463 97.893 440.522 100.345ZM88.9174 109.098C88.9174 114.278 98.1224 117.151 107.667 114.951L111.917 113.972L111.907 117.615C111.873 130.315 96.7104 144.156 86.5174 140.792C79.9134 138.613 71.8264 123.759 77.2434 123.759C80.4324 123.759 83.3894 118.938 81.4874 116.837C78.1574 113.157 81.9314 105.759 87.1404 105.759C88.4884 105.759 88.9174 106.565 88.9174 109.098ZM407.522 110.345C407.188 111.217 407.351 112.68 407.885 113.595C408.658 114.919 408.862 114.594 408.887 112.009C408.92 108.45 408.463 107.893 407.522 110.345ZM395.932 113.009C395.943 115.219 396.224 115.823 396.81 114.898C397.596 113.657 397.21 109.759 396.3 109.759C396.09 109.759 395.924 111.222 395.932 113.009ZM376.917 115.259C376.917 116.634 377.367 117.759 377.917 117.759C378.467 117.759 378.917 116.634 378.917 115.259C378.917 113.884 378.467 112.759 377.917 112.759C377.367 112.759 376.917 113.884 376.917 115.259ZM365.465 115.009C365.046 115.972 365.046 117.546 365.465 118.509C366.423 120.711 367.351 117.961 366.645 115.009C366.246 113.342 366.19 113.342 365.465 115.009ZM434.522 116.345C434.188 117.217 434.351 118.68 434.885 119.595C435.658 120.919 435.862 120.594 435.887 118.009C435.92 114.45 435.463 113.893 434.522 116.345ZM422.422 117.751C422.085 118.297 422.269 119.534 422.832 120.501C423.711 122.009 423.861 121.868 423.887 119.509C423.918 116.633 423.456 116.078 422.422 117.751ZM388.903 121.547L391.111 123.334L386.802 128.797C384.433 131.801 376.457 140.436 369.078 147.986L355.661 161.713L353.039 159.775C351.597 158.71 348.651 156.32 346.494 154.464L342.57 151.091L350.494 146.794C373.531 134.301 381.511 128.569 383.903 122.793C385.363 119.267 385.917 119.129 388.903 121.547ZM385.932 123.509C385.924 125.297 386.09 126.759 386.3 126.759C387.21 126.759 387.596 122.861 386.81 121.62C386.224 120.695 385.943 121.299 385.932 123.509ZM345.917 125.259C345.917 126.634 346.367 127.759 346.917 127.759C347.467 127.759 347.917 126.634 347.917 125.259C347.917 123.884 347.467 122.759 346.917 122.759C346.367 122.759 345.917 123.884 345.917 125.259ZM412.302 124.198C411.998 124.99 412.224 126.452 412.803 127.448C413.698 128.987 413.861 128.771 413.887 126.009C413.919 122.581 413.226 121.789 412.302 124.198ZM400.522 125.345C400.188 126.217 400.351 127.68 400.885 128.595C401.658 129.919 401.862 129.594 401.887 127.009C401.92 123.45 401.463 122.893 400.522 125.345ZM75.3914 128.474C76.3094 133.367 78.3954 137.28 81.0924 139.169C83.0964 140.573 83.1484 140.85 81.7154 142.48C79.6794 144.794 76.3844 151.498 75.5234 155.075C74.0274 161.294 68.1474 154.044 63.4304 140.165L61.4894 134.455L63.9524 132.857C65.3074 131.978 67.9914 129.809 69.9164 128.036C74.3394 123.964 74.5484 123.981 75.3914 128.474ZM462.31 131.259C462.644 132.084 463.164 133.367 463.467 134.11C463.835 135.014 461.999 136.421 457.923 138.36C452.42 140.978 451.885 141.501 452.407 143.759C452.725 145.134 453.541 149.761 454.22 154.042C454.899 158.323 455.784 161.81 456.186 161.792C464.062 161.437 464.917 161.714 464.917 164.629C464.917 168.929 459.357 186.804 455.297 195.554C450.155 206.637 445.291 221.718 442.965 233.787C439.905 249.661 433.883 289.059 434.433 289.608C435.365 290.54 435.738 289.184 437.286 279.259C445.266 228.086 447.144 219.516 453.937 203.259C465.219 176.261 468.541 162.78 467.613 147.759C467.077 139.085 464.54 129.759 462.716 129.759C462.159 129.759 461.976 130.434 462.31 131.259ZM357.385 133.86C357.018 135.015 357.213 136.455 357.818 137.06C358.617 137.859 358.917 137.285 358.917 134.959C358.917 131.265 358.34 130.851 357.385 133.86ZM62.8824 141.978C67.4854 154.797 72.3854 161.275 75.5134 158.679C81.3464 153.839 86.6914 188.123 82.2694 202.009C79.5044 210.692 70.0654 199.077 62.5034 177.685C55.9404 159.121 32.8464 152.785 24.3834 167.227C13.8634 185.178 48.8944 241.759 70.5274 241.759C72.7414 241.759 77.7434 247.266 76.5834 248.427C76.2794 248.73 67.5674 251.809 57.2244 255.267C46.8804 258.725 31.9604 264.076 24.0694 267.157C6.75736 273.916 8.33336 273.885 6.41436 267.509C-7.92364 219.883 10.4654 156.65 43.2724 140.773C58.3404 133.48 59.8644 133.574 62.8824 141.978ZM465.932 144.819C467.648 156.839 466.749 159.759 461.329 159.759C457.206 159.759 456.911 159.579 456.821 157.009C456.768 155.497 456.205 151.784 455.571 148.759L454.417 143.259L459.417 140.186C465.454 136.475 464.661 135.911 465.932 144.819ZM339.917 141.259C339.917 142.634 340.367 143.759 340.917 143.759C341.467 143.759 341.917 142.634 341.917 141.259C341.917 139.884 341.467 138.759 340.917 138.759C340.367 138.759 339.917 139.884 339.917 141.259ZM368.422 139.751C368.085 140.297 368.269 141.534 368.832 142.501C369.711 144.009 369.861 143.868 369.887 141.509C369.918 138.633 369.456 138.078 368.422 139.751ZM293.917 144.744C293.917 147.722 267.949 163.759 263.128 163.759C258.78 163.759 274.961 151.44 286.154 146.229C291.824 143.589 293.917 143.189 293.917 144.744ZM310.917 147.618C310.917 149.319 309.62 149.605 308.227 148.211C306.354 146.339 303.497 146.355 301.926 148.248C301.246 149.067 300.27 149.477 299.755 149.159C298.545 148.411 300.726 145.77 303.382 144.768C305.452 143.987 310.917 146.054 310.917 147.618ZM300.487 152.305C303.056 155.905 305.369 158.641 305.626 158.384C305.883 158.127 305.093 156.563 303.87 154.91C301.53 151.744 301.759 149.14 304.472 148.1C307.102 147.09 309.505 150.248 308.185 152.979C305.426 158.69 305.735 159.768 313.076 170.05L320.148 179.956L315.283 185.107L310.417 190.259L315.549 185.413C318.813 182.33 320.933 180.976 321.375 181.691C323.319 184.837 291.021 205.759 284.22 205.759C282.293 205.759 282.638 203.979 284.667 203.448C285.987 203.103 285.865 202.962 284.172 202.875C282.16 202.771 274.59 189.365 263.132 165.619C262.963 165.267 264.964 164.249 267.581 163.358C273.512 161.337 283.863 155.236 290.427 149.893C293.171 147.658 295.507 145.814 295.616 145.795C295.726 145.775 297.918 148.705 300.487 152.305ZM328.932 149.288C331.209 153.542 318.257 165.59 313.382 163.75C306.335 161.092 306.264 154.381 313.261 152.347C318.786 150.741 322.6 148.047 317.558 149.313C316.168 149.662 314.443 149.567 313.724 149.103C312.345 148.212 317.208 147.17 323.998 146.901C326.883 146.787 327.842 147.251 328.932 149.288ZM431.917 149.598C431.917 164.488 426.353 201.149 421.446 218.586C415.387 240.119 413.594 323.759 419.191 323.759C419.821 323.759 419.959 321.26 419.565 317.009C416.705 286.179 417.967 237.442 421.967 224.259C429.018 201.017 436.715 147.759 433.023 147.759C432.415 147.759 431.917 148.587 431.917 149.598ZM312.417 150.759C312.757 151.309 312.333 151.759 311.476 151.759C310.619 151.759 309.917 151.309 309.917 150.759C309.917 150.209 310.34 149.759 310.858 149.759C311.376 149.759 312.077 150.209 312.417 150.759ZM277.556 152.453C276.43 153.579 276.871 154.759 278.417 154.759C279.242 154.759 279.917 154.336 279.917 153.818C279.917 152.557 278.355 151.654 277.556 152.453ZM356.302 153.198C355.998 153.99 356.224 155.452 356.803 156.448C357.698 157.987 357.861 157.771 357.887 155.009C357.919 151.581 357.226 150.789 356.302 153.198ZM349.128 158.123L352.838 161.403L349.483 166.385C342.184 177.223 330.328 181.495 323.432 175.771C321.072 173.813 321.515 173.39 328.054 171.35C331.42 170.301 335.354 168.349 336.796 167.013C338.719 165.23 338.928 164.74 337.58 165.173C327.642 168.364 325.149 166.221 333.667 161.81C336.83 160.172 340.542 157.926 341.917 156.818C345.057 154.288 344.721 154.227 349.128 158.123ZM51.1124 164.328C56.5274 168.134 59.8364 173.193 63.3704 183.07C73.1534 210.414 93.7204 223.759 126.077 223.759H138.917V230.156V236.554L132.667 237.614C66.2544 248.878 45.2824 239.016 24.9794 186.972C17.3764 167.48 34.4934 152.648 51.1124 164.328ZM311.917 165.259C311.917 165.534 311.692 165.759 311.417 165.759C311.142 165.759 310.917 165.534 310.917 165.259C310.917 164.984 311.142 164.759 311.417 164.759C311.692 164.759 311.917 164.984 311.917 165.259ZM315.917 168.318C315.917 169.769 315.484 170.61 314.917 170.259C314.367 169.919 313.917 168.768 313.917 167.7C313.917 166.632 314.367 165.759 314.917 165.759C315.467 165.759 315.917 166.911 315.917 168.318ZM276.47 184.865C280.082 192.074 283.259 197.75 283.529 197.48C284.189 196.821 271.667 171.759 270.678 171.759C270.252 171.759 272.858 177.657 276.47 184.865ZM274.209 190.281C275.698 193.318 276.917 195.942 276.917 196.112C276.917 197.46 238.373 188.879 238.101 187.47C237.772 185.767 238.917 185.656 263.959 184.967L271.5 184.759L274.209 190.281ZM142.487 191.509C143.365 193.572 144.939 197.395 145.985 200.006L147.885 204.753L139.936 208.749C111.16 223.218 108.723 223.607 93.4174 216.177C82.1884 210.726 81.2854 209.662 83.0534 203.97C83.8924 201.269 85.1324 199.239 85.9664 199.205C86.7644 199.172 88.0924 198.852 88.9174 198.494C92.9054 196.765 133.749 188.105 139.154 187.843C140.25 187.79 141.479 189.142 142.487 191.509ZM228.167 190.421C227.48 190.699 226.917 191.563 226.917 192.342C226.917 194.481 230.696 194.041 231.917 191.759C233.016 189.705 231.385 189.123 228.167 190.421ZM307.789 191.509C306.546 193.095 306.581 193.13 308.167 191.887C309.129 191.132 309.917 190.344 309.917 190.137C309.917 189.314 309.096 189.843 307.789 191.509ZM216.584 191.426C215.042 192.967 216 194.886 218.157 194.579C220.988 194.175 221.882 190.759 219.157 190.759C218.108 190.759 216.95 191.059 216.584 191.426ZM230.417 191.759C230.077 192.309 229.349 192.759 228.799 192.759C228.249 192.759 228.077 192.309 228.417 191.759C228.757 191.209 229.485 190.759 230.035 190.759C230.585 190.759 230.757 191.209 230.417 191.759ZM219.417 192.759C219.077 193.309 218.349 193.759 217.799 193.759C217.249 193.759 217.077 193.309 217.417 192.759C217.757 192.209 218.485 191.759 219.035 191.759C219.585 191.759 219.757 192.209 219.417 192.759ZM304.322 193.914C303.879 194.629 304.047 194.797 304.762 194.354C305.397 193.962 305.917 193.443 305.917 193.2C305.917 192.366 305.034 192.761 304.322 193.914ZM300.358 196.314C298.494 197.808 298.506 197.826 300.667 196.779C301.905 196.179 302.917 195.479 302.917 195.224C302.917 194.459 302.398 194.68 300.358 196.314ZM211.488 197.33C209.66 199.159 209.497 200.381 210.961 201.286C212.423 202.19 214.917 199.889 214.917 197.637C214.917 195.347 213.59 195.229 211.488 197.33ZM222.117 196.959C220.528 198.548 220.586 200.759 222.217 200.759C222.932 200.759 224.057 200.219 224.717 199.559C226.306 197.97 226.248 195.759 224.617 195.759C223.902 195.759 222.777 196.299 222.117 196.959ZM229.882 197.301C227.925 199.659 230.031 201.068 232.708 199.193C233.923 198.342 234.917 197.221 234.917 196.702C234.917 195.185 231.279 195.618 229.882 197.301ZM223.897 198.283C223.201 199.121 222.372 199.547 222.053 199.229C221.735 198.911 222.137 198.232 222.946 197.72C225.063 196.381 225.34 196.545 223.897 198.283ZM232.917 197.759C232.917 198.309 232.44 198.759 231.858 198.759C231.276 198.759 231.077 198.309 231.417 197.759C231.757 197.209 232.233 196.759 232.476 196.759C232.719 196.759 232.917 197.209 232.917 197.759ZM213.917 198.2C213.917 198.443 213.467 198.919 212.917 199.259C212.367 199.599 211.917 199.4 211.917 198.818C211.917 198.236 212.367 197.759 212.917 197.759C213.467 197.759 213.917 197.957 213.917 198.2ZM296.917 198.259C296.917 198.534 297.142 198.759 297.417 198.759C297.692 198.759 297.917 198.534 297.917 198.259C297.917 197.984 297.692 197.759 297.417 197.759C297.142 197.759 296.917 197.984 296.917 198.259ZM292.917 199.759C292.092 200.292 291.867 200.728 292.417 200.728C292.967 200.728 294.092 200.292 294.917 199.759C295.742 199.226 295.967 198.79 295.417 198.79C294.867 198.79 293.742 199.226 292.917 199.759ZM225.659 201.884C223.537 203.071 223.34 206.759 225.398 206.759C226.212 206.759 227.167 205.613 227.518 204.212C228.299 201.099 227.917 200.62 225.659 201.884ZM287.917 201.759C287.092 202.292 286.867 202.728 287.417 202.728C287.967 202.728 289.092 202.292 289.917 201.759C290.742 201.226 290.967 200.79 290.417 200.79C289.867 200.79 288.742 201.226 287.917 201.759ZM156.281 206.399C157.472 215.085 157.187 216.759 154.519 216.759C153.199 216.759 149.712 218.022 146.769 219.566C141.71 222.219 140.65 222.383 127.417 222.549L113.417 222.724L117.417 220.733C119.617 219.639 127.605 215.84 135.167 212.292C143.683 208.297 148.917 205.281 148.917 204.37C148.917 203.082 150.489 202.389 154.531 201.895C155.144 201.82 155.931 203.847 156.281 206.399ZM216.117 202.959C215.457 203.619 214.917 204.744 214.917 205.459C214.917 207.09 217.128 207.148 218.717 205.559C220.306 203.97 220.248 201.759 218.617 201.759C217.902 201.759 216.777 202.299 216.117 202.959ZM206.86 204.866C206.104 206.279 206.063 207.305 206.737 207.979C208.225 209.467 209.917 207.988 209.917 205.2C209.917 202.201 208.376 202.033 206.86 204.866ZM218.279 204.259C217.962 205.084 217.246 205.759 216.688 205.759C216.102 205.759 216.199 205.124 216.917 204.259C217.602 203.434 218.318 202.759 218.508 202.759C218.698 202.759 218.595 203.434 218.279 204.259ZM226.1 204.976C225.383 205.693 224.917 205.752 224.917 205.126C224.917 204.557 225.217 203.792 225.584 203.426C225.95 203.059 226.483 202.992 226.767 203.276C227.051 203.56 226.751 204.325 226.1 204.976ZM232.117 203.959C230.462 205.614 230.611 207.759 232.382 207.759C233.662 207.759 235.917 204.93 235.917 203.325C235.917 202.304 233.343 202.733 232.117 203.959ZM208.584 206.426C208.217 206.792 207.917 206.492 207.917 205.759C207.917 205.026 208.217 204.726 208.584 205.092C208.95 205.459 208.95 206.059 208.584 206.426ZM233.917 205.2C233.917 205.443 233.467 205.919 232.917 206.259C232.367 206.599 231.917 206.4 231.917 205.818C231.917 205.236 232.367 204.759 232.917 204.759C233.467 204.759 233.917 204.957 233.917 205.2ZM221.117 208.959C219.661 210.415 219.545 213.411 220.913 214.256C222.317 215.124 224.533 209.975 223.29 208.732C222.659 208.101 221.895 208.181 221.117 208.959ZM212.117 209.959C210.614 211.462 210.574 213.429 212.029 214.328C213.318 215.125 214.879 213.049 214.902 210.509C214.92 208.473 213.82 208.256 212.117 209.959ZM213.917 211.259C213.917 212.084 213.481 212.759 212.948 212.759C212.416 212.759 212.239 212.084 212.555 211.259C212.872 210.434 213.308 209.759 213.524 209.759C213.74 209.759 213.917 210.434 213.917 211.259ZM227.584 210.426C226.601 211.409 226.773 215.759 227.795 215.759C228.277 215.759 229.228 215.09 229.906 214.272C231.868 211.908 229.697 208.312 227.584 210.426ZM222.917 211.2C222.917 211.443 222.467 211.919 221.917 212.259C221.367 212.599 220.917 212.4 220.917 211.818C220.917 211.236 221.367 210.759 221.917 210.759C222.467 210.759 222.917 210.957 222.917 211.2ZM203.764 214.195C202.574 216.807 203.182 219.759 204.91 219.759C206.327 219.759 208.007 215.158 207.282 213.268C206.432 211.054 205.026 211.425 203.764 214.195ZM229.279 213.259C228.962 214.084 228.526 214.759 228.31 214.759C228.094 214.759 227.917 214.084 227.917 213.259C227.917 212.434 228.353 211.759 228.886 211.759C229.418 211.759 229.595 212.434 229.279 213.259ZM206.902 214.509C206.893 214.922 206.468 215.921 205.956 216.73C204.804 218.552 203.452 217.412 204.262 215.302C204.86 213.744 206.93 213.122 206.902 214.509ZM209.624 218.531C207.523 220.852 207.371 224.759 209.382 224.759C211.471 224.759 213.053 221.301 212.119 218.776C211.349 216.694 211.291 216.688 209.624 218.531ZM217.485 218.965C215.664 221.565 215.486 223.374 216.961 224.286C218.544 225.264 220.917 222.81 220.917 220.196C220.917 216.91 219.325 216.339 217.485 218.965ZM154.324 219.009C153.933 219.697 152.894 221.113 152.015 222.157C150.006 224.543 156.543 223.859 162.391 221.07C167.067 218.84 167.571 219.73 164.79 225.299C160.756 233.377 154.845 236.741 144.667 236.753L139.917 236.759V230.337C139.917 223.983 139.952 223.902 143.167 222.816C144.954 222.212 147.542 220.837 148.917 219.76C151.75 217.543 155.451 217.028 154.324 219.009ZM224.572 219.217C223.787 221.26 224.871 223.941 226.29 223.468C226.91 223.261 227.417 222.042 227.417 220.759C227.417 218.039 225.436 216.965 224.572 219.217ZM156.917 220.152C156.917 220.918 156.232 221.808 155.394 222.13C154.151 222.606 154.066 222.35 154.929 220.736C156.17 218.418 156.917 218.199 156.917 220.152ZM210.917 221.259C210.917 222.634 210.467 223.759 209.917 223.759C208.8 223.759 208.546 220.463 209.584 219.426C210.686 218.323 210.917 218.641 210.917 221.259ZM219.917 219.677C219.917 221.539 218.683 223.733 217.906 223.252C216.886 222.622 217.856 218.759 219.034 218.759C219.519 218.759 219.917 219.172 219.917 219.677ZM226.6 221.947C226.281 222.744 226.044 222.507 225.996 221.342C225.953 220.288 226.189 219.698 226.521 220.03C226.853 220.362 226.889 221.225 226.6 221.947ZM201.117 224.959C199.695 226.381 199.523 230.397 200.849 231.217C202.247 232.081 204.77 227.911 204.19 225.694C203.606 223.461 202.806 223.27 201.117 224.959ZM202.011 229.065C200.705 230.371 200.523 228.924 201.637 226.091C202.332 224.324 202.371 224.325 202.731 226.115C202.937 227.136 202.612 228.464 202.011 229.065ZM223.897 228.797C222.597 231.226 223.497 234.759 225.417 234.759C227.133 234.759 228.254 231.397 227.417 228.759C226.604 226.198 225.28 226.213 223.897 228.797ZM206.117 229.959C204.155 231.921 204.575 236.971 206.667 236.574C207.89 236.342 208.51 235.116 208.727 232.501C209.046 228.656 208.222 227.854 206.117 229.959ZM214.499 230.319C212.51 232.309 212.772 236.259 214.893 236.259C216.844 236.259 218.684 231.126 217.248 229.69C216.502 228.944 215.688 229.131 214.499 230.319ZM226.311 232.176C225.815 233.467 225.437 233.601 224.87 232.684C223.859 231.046 224.897 228.339 226.083 229.525C226.578 230.02 226.68 231.213 226.311 232.176ZM207.011 235.065C206.219 235.857 205.917 235.597 205.917 234.126C205.917 231.482 207.315 230.079 207.761 232.276C207.95 233.208 207.612 234.464 207.011 235.065ZM216.917 232.2C216.917 233.701 215.122 235.297 214.327 234.502C213.629 233.805 215.01 230.759 216.024 230.759C216.515 230.759 216.917 231.407 216.917 232.2ZM200.117 234.959C198.429 236.647 198.574 241.759 200.31 241.759C201.922 241.759 202.917 239.629 202.917 236.177C202.917 233.524 201.966 233.11 200.117 234.959ZM201.011 240.065C200.219 240.857 199.917 240.597 199.917 239.126C199.917 236.482 201.315 235.079 201.761 237.276C201.95 238.208 201.612 239.464 201.011 240.065ZM222.952 238.693C221.528 241.354 221.656 243.297 223.347 244.701C225.466 246.46 227.25 242.764 225.942 239.324C224.773 236.25 224.312 236.153 222.952 238.693ZM213.606 240.55C211.485 242.894 211.38 246.759 213.438 246.759C215.523 246.759 217.393 242.432 216.217 240.33C215.374 238.825 215.15 238.844 213.606 240.55ZM224.917 241.459C224.917 243.316 224.595 243.837 223.884 243.126C223.316 242.558 223.139 241.343 223.491 240.426C224.418 238.012 224.917 238.374 224.917 241.459ZM205.344 240.524C202.424 242.524 203.26 247.609 206.316 246.436C207.297 246.06 207.917 244.647 207.917 242.79C207.917 239.727 207.301 239.185 205.344 240.524ZM206.011 245.065C205.219 245.857 204.917 245.597 204.917 244.126C204.917 241.482 206.315 240.079 206.761 242.276C206.95 243.208 206.612 244.464 206.011 245.065ZM215.206 243.76C214.919 244.859 214.286 245.759 213.8 245.759C212.769 245.759 212.672 244.562 213.522 242.347C214.377 240.119 215.838 241.345 215.206 243.76ZM86.4174 243.812L92.4174 243.893L88.3724 245.16C79.6564 247.89 78.2934 247.88 77.0184 245.081C75.9194 242.67 75.9904 242.546 78.1314 243.119C79.3884 243.456 83.1174 243.768 86.4174 243.812ZM166.917 243.259C166.917 243.534 167.142 243.759 167.417 243.759C167.692 243.759 167.917 243.534 167.917 243.259C167.917 242.984 167.692 242.759 167.417 242.759C167.142 242.759 166.917 242.984 166.917 243.259ZM466.917 244.517C466.917 245.67 480.1 247.483 495.21 248.408L505.917 249.063V257.282V265.501L501.167 266.106C495.065 266.883 473.067 268.633 456.417 269.665L443.417 270.472L456.417 270.586C467.693 270.685 486.895 269.357 505.989 267.158L511.561 266.516L515.32 272.179C519.19 278.01 519.271 278.043 524.667 276.015C525.355 275.756 525.917 276.22 525.917 277.045C525.917 278.677 523.877 279.759 520.8 279.759C519.129 279.759 519.008 280.061 519.964 281.847C521.065 283.904 522.601 283.969 527.324 282.156C528.345 281.765 528.917 282.084 528.917 283.045C528.917 284.67 526.879 285.759 523.835 285.759C522.574 285.759 521.917 286.455 521.917 287.79C521.917 290.383 524.367 291.331 527.445 289.928C529.152 289.15 530.037 289.145 530.509 289.909C531.354 291.276 529.102 292.724 526.1 292.744C524.371 292.755 523.91 293.203 524.286 294.509C524.563 295.471 525.344 298.188 526.022 300.546C527.695 306.361 531.165 309.979 534.68 309.574L537.417 309.259L537.22 293.259C537.044 278.977 534.657 247.166 533.689 246.198C532.148 244.657 521.847 244.698 518.558 246.259C513.894 248.472 486.992 247.297 470.167 244.145C468.296 243.795 466.917 243.952 466.917 244.517ZM536.235 252.009C536.562 254.896 537.326 264.909 537.934 274.259C539.83 303.414 540.15 306.521 540.973 303.759C542.498 298.638 541.533 266.731 539.377 251.009C538.436 244.144 535.453 245.093 536.235 252.009ZM518.034 252.009C521.554 260.423 520.017 264.522 513.136 265.065L507.917 265.477V257.118V248.759H512.296C516.29 248.759 516.794 249.044 518.034 252.009ZM134.417 256.481C126.182 258.497 84.4274 273.851 60.4594 283.677C48.8894 288.42 39.9164 288.718 40.9254 284.325C41.0034 283.986 40.8444 283.158 40.5714 282.484C40.2984 281.81 40.0394 282.706 39.9964 284.474C39.7994 292.487 45.2584 291.896 72.9174 280.911C79.7924 278.181 89.0174 274.519 93.4174 272.773C133.984 256.68 150.563 254.184 156.518 263.273C160.794 269.798 153.097 276.534 101.167 311.711C90.6584 318.83 86.0764 322.873 89.9994 321.565C92.1374 320.852 138.331 288.717 149.356 280.273C167.839 266.116 158.142 250.672 134.417 256.481ZM125.917 275.259C125.917 275.534 126.142 275.759 126.417 275.759C126.692 275.759 126.917 275.534 126.917 275.259C126.917 274.984 126.692 274.759 126.417 274.759C126.142 274.759 125.917 274.984 125.917 275.259ZM196.917 277.259C196.917 277.534 197.142 277.759 197.417 277.759C197.692 277.759 197.917 277.534 197.917 277.259C197.917 276.984 197.692 276.759 197.417 276.759C197.142 276.759 196.917 276.984 196.917 277.259ZM121.417 280.077C117.394 282.385 97.3924 295.801 88.8034 301.954C86.2654 303.772 80.7524 307.678 76.5534 310.634C71.8644 313.935 68.9174 316.703 68.9174 317.806C68.9174 319.629 66.1064 320.893 58.9174 322.302C40.4384 325.925 37.9494 334.258 51.4324 347.363C55.9864 351.79 59.8674 356.69 61.7294 360.363C67.6074 371.963 90.8884 381.411 95.7214 374.158C96.1044 373.583 97.2334 372.812 98.2314 372.443C102.676 370.801 99.9744 365.534 92.9174 362.084C84.2614 357.852 77.9174 347.975 77.9174 338.73C77.9174 336.003 83.0964 334.345 84.7734 336.536C86.3674 338.618 112.39 321.615 113.797 317.572C114.345 315.995 112.913 316.96 99.2564 327.372L87.0954 336.644L81.2564 330.044C71.4344 318.943 70.5584 317.535 72.7064 316.3C73.7024 315.727 77.8694 312.756 81.9674 309.698C92.9964 301.465 108.198 290.964 118.667 284.346C123.755 281.13 127.917 278.333 127.917 278.129C127.917 277.142 125.021 278.01 121.417 280.077ZM197.943 278.759C197.941 279.034 198.603 281.448 199.414 284.123C200.226 286.798 201.142 293.143 201.451 298.223L202.012 307.458L191.677 308.126C162 310.045 152.772 314.786 161.168 323.798C162.735 325.48 164.206 330.784 167.089 345.147C169.843 358.867 171.413 364.62 172.654 365.539C181.526 372.112 224.211 372.408 232.853 365.957C234.971 364.376 235.801 361.67 239.216 345.209C242.293 330.379 243.66 325.664 245.53 323.442C252.668 314.96 244.86 310.622 218.663 308.517C204.758 307.4 203.921 307.214 204.121 305.295C204.683 299.922 201.343 283.562 198.908 279.759C198.38 278.934 197.946 278.484 197.943 278.759ZM201.917 311.826C201.917 314.366 204.818 325.465 204.818 325.465C203.791 325.139 201.039 325.599 201.039 325.599L189.055 325.875L175.69 324.33C175.69 324.33 166.694 321.577 164.014 320.643C153.402 316.944 162.726 311.887 183.917 309.849C200.951 308.211 201.917 308.317 201.917 311.826ZM230.674 310.846C238.763 312.079 246.321 314.905 246.693 316.836C247.163 319.275 236.122 325.203 234.039 323.442L216.539 325.963C216.539 325.963 202.922 315.939 204.818 308.89C204.964 308.346 223.432 309.743 230.674 310.846ZM405.996 316.412C405.953 318.147 406.813 323.997 407.908 329.412C411.101 345.207 410.974 345.905 404.167 349.959C399.312 352.85 398.476 353.763 398.796 355.821C399.454 360.054 399.438 360.252 398.417 360.604C397.867 360.793 396.986 359.556 396.46 357.854C395.934 356.152 394.907 354.759 394.179 354.759C392.182 354.759 391.457 357.702 392.665 360.902C393.256 362.469 393.381 363.972 392.942 364.244C391.709 365.006 389.944 362.354 389.697 359.367C389.277 354.293 385.376 356.335 385.606 361.509C385.847 366.921 383.325 367.453 382.34 362.199C381.849 359.581 381.273 358.792 380.166 359.217C379.337 359.535 376.703 360.288 374.312 360.89C368.818 362.273 364.712 366.205 365.118 369.694L365.417 372.259H381.917C406.715 372.259 427.675 370.858 429.451 369.082C431.156 367.377 431.542 354.263 429.917 353.259C428.665 352.485 428.618 341.896 429.835 334.693C431.657 323.911 431.925 320.759 431.024 320.759C430.519 320.759 429.726 324.021 429.262 328.009L428.417 335.259H419.417H410.417L408.682 325.304C406.695 313.902 406.107 311.958 405.996 316.412ZM76.7114 326.99C82.8064 334.284 82.7744 334.162 78.9894 335.729C77.3794 336.396 75.2844 337.801 74.3344 338.85C69.9204 343.729 64.2824 338.502 63.5684 328.87C63.1964 323.847 63.2964 323.607 66.2994 322.289C70.9884 320.233 71.1124 320.289 76.7114 326.99ZM189.055 325.875C189.055 325.875 232.406 325.458 244.417 321.191L246.417 320.481L244.417 322.576C236.413 330.961 178.106 331.888 163.121 323.868C158.807 321.559 161.024 321.14 168.077 322.932C172.014 323.932 181.455 325.256 189.055 325.875ZM97.9174 323.259C97.9174 323.534 98.1424 323.759 98.4174 323.759C98.6924 323.759 98.9174 323.534 98.9174 323.259C98.9174 322.984 98.6924 322.759 98.4174 322.759C98.1424 322.759 97.9174 322.984 97.9174 323.259ZM238.385 343.52C234.139 365.465 234.568 364.355 229.62 366.18C215.776 371.29 180.629 370.483 173.889 364.901C171.925 363.275 163.986 328.357 165.285 327.058C165.573 326.77 167.971 327.034 170.613 327.646C188.324 331.746 220.326 331.614 236.417 327.375C239.167 326.651 241.486 326.103 241.571 326.158C241.655 326.214 240.222 334.026 238.385 343.52ZM40.9574 338.559C40.8964 342.047 43.2244 345.743 48.9564 351.259C51.8144 354.009 55.7354 358.734 57.6694 361.759C63.6534 371.115 71.1804 376.812 77.4174 376.705C78.6344 376.685 78.0014 376.165 75.7994 375.378C68.6554 372.825 65.2974 369.952 61.9354 363.516C60.1034 360.009 55.4734 353.963 51.4004 349.759C47.4034 345.634 43.4274 340.909 42.5654 339.259C41.1224 336.498 40.9944 336.442 40.9574 338.559ZM427.917 344.733C427.917 353.156 425.7 355.084 416.619 354.56L411.417 354.259L411.127 346.009L410.836 337.759H419.377H427.917V344.733ZM79.2104 347.51C83.3844 359.087 83.3134 358.759 81.6574 358.759C79.2974 358.759 72.9884 342.022 74.7014 340.308C75.9164 339.094 76.5304 340.075 79.2104 347.51ZM75.3364 349.259C76.5594 353.109 78.1064 357.271 78.7744 358.509C80.2144 361.18 76.1264 361.921 74.0114 359.372C72.9604 358.106 69.9764 346.073 69.9344 342.936C69.8824 338.943 73.3474 343 75.3364 349.259ZM412.417 372.807C407.467 373.222 395.561 373.899 385.96 374.311C358.34 375.498 368.245 377.07 399.542 376.467C424.655 375.983 429.917 375.334 429.917 372.724C429.917 371.658 425.91 371.677 412.417 372.807ZM80.6674 377.421C81.3554 377.699 82.4804 377.699 83.1674 377.421C83.8554 377.144 83.2924 376.917 81.9174 376.917C80.5424 376.917 79.9804 377.144 80.6674 377.421Z" fill="#16314F"/>
</svg>
