<svg width="544" height="378" viewBox="0 0 544 378" fill="none" xmlns="http://www.w3.org/2000/svg">
<path fill-rule="evenodd" clip-rule="evenodd" d="M321.697 2.13808C316.05 4.99708 308.736 12.2431 306.21 17.4801C303.025 24.0831 303 34.0521 306.146 43.4231C310.025 54.9771 313.529 61.8431 318.055 66.7521C322.525 71.6021 326.542 73.6251 334.697 75.1321C339.628 76.0431 344.697 79.0631 344.697 81.0891C344.697 82.7361 346.786 87.2251 347.309 86.7021C348.064 85.9471 344.4 77.8261 342.404 75.8301C341.52 74.9461 338.647 73.9001 336.02 73.5061C328.873 72.4341 323.213 69.1531 318.924 63.5951C315.732 59.4601 316.178 58.4831 319.947 61.3551C321.735 62.7181 326.347 64.7941 330.197 65.9691C341.842 69.5221 343.9 70.8711 346.818 76.8571C348.259 79.8141 351.126 83.9741 353.19 86.1001L356.942 89.9661L356.517 98.7231C356.008 109.196 355.652 109.782 337.891 129.387C331.459 136.486 326.317 142.844 326.463 143.516C326.642 144.339 324.687 144.891 320.463 145.207C315.406 145.587 313.737 145.321 311.812 143.829C310.5 142.812 308.609 141.98 307.609 141.98C305.114 141.98 300.697 144.086 300.697 145.275C300.697 145.811 299.764 145.064 298.624 143.614C296.97 141.512 296.009 141.109 293.874 141.623C286.886 143.306 267.464 154.919 263.758 159.629L261.769 162.159L266.697 171.98L271.626 181.802L266.911 182.379C264.319 182.697 256.685 183.075 249.948 183.218L237.699 183.48L237.698 186.543L237.697 189.606L258.643 193.494L279.589 197.382L281.8 201.681C283.548 205.079 284.555 205.978 286.604 205.97C294.146 205.942 324.697 186.844 324.697 182.157C324.697 181.215 323.612 178.848 322.287 176.897C320.961 174.947 319.746 171.536 319.586 169.319C319.31 165.498 319.647 164.958 326.072 158.948C331.231 154.122 333.052 152.936 333.697 153.98C334.402 155.12 335.237 155.04 338.631 153.51C347.155 149.666 344.13 154.975 335.346 159.276C326.998 163.363 325.667 166.254 331.697 167.205C333.688 167.519 333.045 167.952 328.537 169.334C325.424 170.289 322.632 171.708 322.332 172.488C321.515 174.617 326.069 177.659 331.234 178.433C340.4 179.808 346.351 176.656 351.89 167.496C353.709 164.487 355.731 162.216 356.383 162.447C357.681 162.908 381.683 139.002 389.33 129.632L394.103 123.785L400.046 129.934L405.989 136.083L405.408 147.282C405.089 153.441 403.893 163.15 402.751 168.859C400.122 182.001 396.695 215.063 396.703 227.207C396.706 232.307 397.179 239.18 397.753 242.48C398.328 245.78 399.424 254.555 400.19 261.98C400.955 269.405 402.74 282.905 404.157 291.98C405.574 301.055 406.93 311.18 407.169 314.48C407.408 317.78 408.38 324.08 409.329 328.48C412.53 343.32 411.921 345.511 403.332 350.082C399.583 352.076 399.485 352.264 400.081 356.309C400.647 360.159 400.579 360.33 399.196 358.539C398.371 357.471 397.697 355.784 397.697 354.789C397.697 352.796 396.917 352.555 394.802 353.894C393.811 354.522 393.568 355.98 393.963 358.928C394.432 362.424 394.297 362.893 393.108 361.906C392.332 361.262 391.697 359.392 391.697 357.751C391.697 355.44 391.34 354.903 390.115 355.373C389.245 355.707 388.168 355.98 387.722 355.98C386.259 355.98 385.734 358.947 386.733 361.575C387.477 363.532 387.41 364.053 386.455 363.739C385.763 363.512 385.055 362.123 384.881 360.653C384.67 358.877 383.968 357.98 382.787 357.98C379.564 357.98 369.454 361.931 368.095 363.722C366.209 366.207 366.281 371.98 368.197 371.98C369.022 371.98 369.697 372.607 369.697 373.373C369.697 375.486 372.265 376.119 383.197 376.703C393.814 377.27 429.708 375.375 430.882 374.186C431.264 373.798 432.128 369.654 432.802 364.978C433.899 357.355 433.845 356.094 432.274 352.783C430.413 348.862 430.43 347.834 432.718 325.98C433.947 314.241 437.02 291.631 438.63 282.48C439.211 279.18 439.936 275.007 440.241 273.207L440.796 269.934L446.997 270.565C454.268 271.305 485.274 269.501 501.582 267.39C507.843 266.579 513.054 266.043 513.161 266.198C513.267 266.353 514.884 268.884 516.754 271.821C520.087 277.06 520.226 277.151 523.998 276.548C528.503 275.827 528.236 277.483 523.686 278.483C520.505 279.181 520.21 279.663 521.61 281.874C522.256 282.894 523.66 283.096 526.845 282.625C530.851 282.034 531.043 282.102 529.256 283.481C528.188 284.306 526.276 284.98 525.006 284.98C522.363 284.98 522.13 285.822 524.047 288.444C525.075 289.85 526.148 290.14 528.547 289.66C530.4 289.289 531.697 289.442 531.697 290.03C531.697 290.58 530.347 291.3 528.697 291.63C525.257 292.318 525.183 292.713 527.22 299.428C529.193 305.934 532.112 308.98 536.371 308.98C539.436 308.98 539.705 308.725 539.797 305.73C539.89 302.679 539.943 302.633 540.656 304.98L541.416 307.48L542.557 304.665C544.631 299.543 543.112 248.148 540.814 245.734C540.424 245.323 535.984 244.695 530.948 244.337C523.314 243.795 521.368 243.966 519.236 245.363C516.936 246.87 515.147 246.93 501.438 245.966C469.841 243.744 454.519 240.979 448.206 236.363C446.526 235.135 446.476 234.529 447.617 229.25C449.716 219.535 452.276 211.922 459.008 195.367C468.517 171.985 471.989 154.655 469.705 141.98C468.358 134.506 465.525 128.398 458.789 118.444C454.914 112.717 454.202 111.015 454.967 109.302C456.533 105.79 448.181 88.8251 438.808 76.4801C429.568 64.3111 411.442 48.8781 400.662 44.0021C399.268 43.3711 397.126 40.9711 395.903 38.6681C392.893 33.0001 383.773 22.9251 376.788 17.5501C357.952 3.05608 333.431 -3.80392 321.697 2.13808ZM335.574 22.6071C337.407 23.8911 337.774 24.8441 337.316 27.1371C336.822 29.6051 337.144 30.2201 339.466 31.2401C343.269 32.9101 343.665 33.7331 343.677 39.9801C343.696 50.4381 336.513 54.4051 324.676 50.4731C318.922 48.5621 308.553 39.6661 310.252 38.0981C310.772 37.6181 313.488 36.4831 316.287 35.5761C319.087 34.6681 323.261 32.5401 325.563 30.8471C329.414 28.0151 329.697 27.4981 329.111 24.3751C328.532 21.2851 328.689 20.9801 330.863 20.9801C332.177 20.9801 334.297 21.7121 335.574 22.6071ZM352.893 35.0001L358.59 36.2741L359.26 41.6341C360.034 47.8351 358.679 60.1641 357.168 60.6611C356.602 60.8471 355.344 59.6521 354.371 58.0051C353.398 56.3581 350.595 53.6301 348.143 51.9431C344.222 49.2451 343.815 48.6281 344.774 46.8361C345.374 45.7141 345.715 42.1321 345.531 38.8751C345.324 35.2061 345.577 33.1001 346.197 33.3391C346.747 33.5511 349.76 34.2991 352.893 35.0001ZM373.458 37.4661C402.205 40.6661 433.26 65.0701 448.86 96.7171L453.906 106.955L451.967 110.691C447.682 118.949 431.416 127.912 414.337 131.426C405.235 133.298 403.187 132.576 404.224 127.859C404.562 126.318 404.377 124.252 403.813 123.268C402.92 121.712 402.701 121.897 402.125 124.691L401.463 127.902L395.161 122.336L388.86 116.769L390.335 112.624C393.184 104.621 394.999 92.3651 395.098 80.4801C395.186 69.8371 394.942 68.0041 392.947 64.2701C391.709 61.9541 390.697 58.4671 390.697 56.5201C390.697 52.6931 388.848 51.6871 387.972 55.0371C387.598 56.4661 386.941 56.8871 385.816 56.4151C381.567 54.6371 374.984 54.7931 371.123 56.7631C363.406 60.7021 359.959 67.4121 357.398 83.4801C356.94 86.3521 354.697 73.2041 354.697 67.6481C354.697 63.6751 354.989 62.9801 356.662 62.9801C359.957 62.9801 361.099 59.1821 361.324 47.4801C361.441 41.4301 361.572 36.3471 361.617 36.1851C361.661 36.0221 363.159 36.1121 364.947 36.3851C366.735 36.6571 370.564 37.1441 373.458 37.4661ZM372.476 44.7301C371.916 46.8911 372.557 48.9801 373.78 48.9801C374.284 48.9801 374.697 47.6301 374.697 45.9801C374.697 42.7291 373.212 41.8931 372.476 44.7301ZM402.197 50.9801C401.415 53.4441 402.503 57.2181 403.769 56.4361C404.982 55.6861 404.978 48.9801 403.764 48.9801C403.251 48.9801 402.546 49.8801 402.197 50.9801ZM385.745 59.2331C392.004 63.4511 393.209 66.9311 393.104 80.4801C392.943 101.037 387.994 118.748 380.252 126.464C378.022 128.687 371.922 133.039 366.697 136.135C356.884 141.951 337.381 151.98 335.885 151.98C335.418 151.98 333.569 149.937 331.776 147.44L328.516 142.9L332.792 138.19C335.143 135.6 338.772 131.68 340.855 129.48C342.938 127.28 345.316 124.58 346.138 123.48C347.57 121.565 347.635 121.619 347.665 124.73C347.683 126.518 348.099 127.98 348.59 127.98C350.116 127.98 350.741 124.931 349.638 122.869C348.762 121.234 349.346 119.891 353.106 114.89C358.116 108.224 358.342 107.349 359.249 91.0791C360.003 77.5631 361.739 70.2111 365.503 64.6001C370.426 57.2601 379.318 54.9021 385.745 59.2331ZM405.697 68.4211C405.697 70.3141 406.096 72.1081 406.583 72.4091C407.593 73.0341 408.455 69.3521 407.912 66.7301C407.276 63.6521 405.697 64.8571 405.697 68.4211ZM100.33 69.8981C102.054 70.9491 104.106 72.7261 104.891 73.8471C106.659 76.3711 110.723 77.9801 115.328 77.9801C119.668 77.9801 122.525 79.4451 123.743 82.2951C124.659 84.4371 124.672 84.4331 124.437 82.0801C124.03 78.0111 118.932 75.2561 111.437 75.0541C109.919 75.0131 107.894 74.0451 106.937 72.9011C105.01 70.5991 100.511 67.9781 98.4971 67.9841C97.7821 67.9861 98.6071 68.8471 100.33 69.8981ZM76.1161 71.8661C74.4211 72.9001 72.1091 75.0161 70.9781 76.5691C69.8391 78.1331 65.6361 80.9741 61.5591 82.9371C55.2191 85.9881 53.8851 87.0991 51.9471 90.9421C48.5691 97.6401 48.9681 100.286 54.1971 105.877C56.6721 108.523 58.7291 111.541 58.7671 112.584C58.8331 114.369 58.8841 114.363 59.6351 112.48C60.2541 110.931 59.5701 109.536 56.5991 106.289C51.8711 101.121 51.1051 98.3321 53.1041 93.5491C55.0011 89.0091 57.6701 86.7071 64.1971 83.9841C67.2971 82.6911 70.1471 80.5731 71.6971 78.4111C73.0721 76.4941 75.9971 73.8161 78.1971 72.4621C80.3971 71.1071 81.5221 69.9961 80.6971 69.9931C79.8721 69.9901 77.8111 70.8331 76.1161 71.8661ZM84.1971 73.4711C81.9971 74.2441 78.6221 76.6501 76.6971 78.8201C74.7721 80.9891 70.7141 83.9211 67.6791 85.3351C60.2031 88.8181 55.6881 93.6251 54.9881 98.8481C54.4641 102.752 54.6791 103.18 59.2631 107.39C63.7861 111.542 64.0151 111.987 62.8941 114.448C60.2691 120.209 62.7431 123.98 69.1481 123.98C72.2601 123.98 72.7361 124.228 71.7971 125.36C69.2331 128.449 62.5491 132.209 57.0831 133.636C31.1021 140.42 16.0411 158.637 6.69608 194.578C0.584085 218.083 0.433084 243.268 6.27308 265.048C8.20708 272.262 8.85209 277.302 9.01409 286.48C9.20009 297.023 9.53908 299.148 11.8021 303.98C15.3801 311.621 18.9181 315.466 25.0341 318.359C34.8131 322.986 46.8161 323.245 63.0291 319.18C73.1881 316.633 71.6451 318.115 61.1971 320.94C51.1951 323.644 43.6971 328.205 43.6971 331.584C43.6971 332.902 43.2471 333.98 42.6971 333.98C41.1571 333.98 41.5121 338.713 43.3181 342.28C44.2101 344.04 48.1481 348.905 52.0681 353.091C55.9891 357.277 60.5471 362.866 62.1971 365.511C64.2831 368.854 66.8461 371.239 70.6081 373.337C75.3101 375.96 77.1461 376.384 84.6081 376.574C92.0671 376.763 92.4731 376.694 87.6971 376.049L82.1971 375.306L88.4061 375.143C95.1631 374.966 101.301 372.565 102.247 369.73C103.478 366.044 101.557 363.849 93.8661 360.154L86.2171 356.48L83.4731 349.48C80.4681 341.815 80.2761 337.258 82.8881 335.623C84.1761 334.817 85.0561 334.995 86.5741 336.368C88.5211 338.13 88.8771 337.944 101.882 328.344C109.205 322.938 116.322 317.489 117.697 316.235C119.072 314.981 127.018 308.898 135.355 302.718C156.53 287.02 170.047 274.955 172.777 269.315C174.691 265.36 174.898 263.738 174.365 256.832C174.028 252.467 172.909 246.987 171.877 244.655C170.133 240.711 165.471 235.777 162.484 234.713C161.552 234.381 161.788 233.597 163.342 231.867C171.106 223.226 171.987 214.078 164.678 217.99C162.551 219.128 162.188 217.85 161.346 206.273C160.906 200.226 160.978 200.003 164.156 197.579C170.866 192.461 176.925 179.772 173.319 178.388C172.427 178.046 171.697 176.689 171.697 175.373C171.697 173.339 171.209 172.981 168.447 172.984C165.037 172.988 158.697 176.227 158.697 177.965C158.697 180.291 156.616 178.721 155.197 175.326C154.358 173.317 153.789 171.581 153.934 171.468C154.079 171.355 156.202 170.637 158.652 169.871C161.847 168.874 163.643 167.556 165.003 165.215C167.417 161.057 166.643 158.98 162.679 158.98C158.249 158.98 154.174 161.415 152.717 164.933C151.227 168.529 150.618 168.684 148.883 165.906C147.091 163.036 141.481 160.873 137.759 161.618C133.697 162.43 133.813 164.731 138.127 168.912C141.042 171.738 142.241 172.223 146.12 172.145C150.238 172.062 150.838 172.352 152.264 175.11C154.106 178.672 153.674 179.573 150.848 178.061C148.23 176.66 144.136 176.683 141.381 178.115C138.163 179.788 138.164 179.783 140.653 182.433L142.95 184.878L140.574 185.387C139.266 185.667 128.857 187.718 117.441 189.945C106.025 192.172 94.7931 194.646 92.4801 195.443C90.1671 196.239 88.0811 196.697 87.8431 196.459C87.6051 196.222 87.5011 192.262 87.6121 187.66C87.8401 178.172 86.0561 169.252 82.1871 160.533C79.2151 153.835 79.3941 150.633 83.0541 145.078C85.2091 141.807 85.5461 141.673 91.8331 141.578C97.3761 141.495 99.0291 141.024 102.705 138.48C108.089 134.754 112.483 128.81 113.974 123.234C114.6 120.894 115.714 118.98 116.45 118.98C117.186 118.98 118.892 117.875 120.242 116.525C122.194 114.574 122.697 113.046 122.697 109.073C122.697 106.323 122.196 102.974 121.583 101.629C120.713 99.7191 120.835 98.0801 122.142 94.1461C123.637 89.6441 123.657 88.8041 122.331 86.2391C120.498 82.6941 116.914 80.9801 111.337 80.9801C107.87 80.9801 106.521 80.4011 104.134 77.8911C98.4391 71.9011 92.4541 70.5741 84.1971 73.4711ZM364.697 75.9801C364.697 78.1801 365.147 79.9801 365.697 79.9801C366.247 79.9801 366.697 78.1801 366.697 75.9801C366.697 73.7801 366.247 71.9801 365.697 71.9801C365.147 71.9801 364.697 73.7801 364.697 75.9801ZM381.697 78.9801C381.697 81.1801 382.095 82.9801 382.58 82.9801C383.79 82.9801 384.624 79.4191 383.987 76.9801C383.093 73.5631 381.697 74.7821 381.697 78.9801ZM428.697 81.9211C428.697 83.5391 429.134 85.1321 429.668 85.4621C430.829 86.1801 432.165 81.5471 431.232 80.0371C429.991 78.0291 428.697 78.9901 428.697 81.9211ZM417.145 81.2541C416.349 83.3281 416.915 86.0301 418.197 86.2831C419.591 86.5581 420.097 81.9801 418.814 80.6971C418.079 79.9621 417.577 80.1291 417.145 81.2541ZM402.263 88.5721C401.502 91.6071 402.439 95.2571 403.769 94.4361C404.956 93.7021 404.985 87.2761 403.804 86.5461C403.312 86.2421 402.619 87.1541 402.263 88.5721ZM347.697 88.4801C347.697 88.7551 347.922 88.9801 348.197 88.9801C348.472 88.9801 348.697 88.7551 348.697 88.4801C348.697 88.2051 348.472 87.9801 348.197 87.9801C347.922 87.9801 347.697 88.2051 347.697 88.4801ZM383.697 95.9211C383.697 97.5391 384.115 99.1201 384.625 99.4361C385.845 100.189 386.917 96.7181 386.113 94.6211C385.099 91.9781 383.697 92.7331 383.697 95.9211ZM364.697 98.4801C364.697 102.393 366.224 103.233 366.901 99.6921C367.422 96.9661 366.88 94.9801 365.614 94.9801C365.11 94.9801 364.697 96.5551 364.697 98.4801ZM424.145 97.2541C423.349 99.3281 423.915 102.03 425.197 102.283C426.591 102.558 427.097 97.9801 425.814 96.6971C425.079 95.9621 424.577 96.1291 424.145 97.2541ZM412.105 98.3581C411.288 100.489 411.974 103.24 413.447 103.73C414.263 104.002 414.697 103.097 414.697 101.122C414.697 97.7851 413.014 95.9901 412.105 98.3581ZM442.428 97.5821C441.311 98.7001 441.558 103.98 442.728 103.98C443.296 103.98 444.028 103.28 444.357 102.425C445.072 100.561 443.47 96.5401 442.428 97.5821ZM90.5161 108.887C90.9781 113.591 95.6491 115.356 106.041 114.754L113.902 114.299L113.274 118.222C110.831 133.504 95.4881 144.34 85.2521 138.014C81.8221 135.894 80.3101 133.501 78.8781 127.922C78.0311 124.625 78.1761 124.242 80.8481 122.708C84.6031 120.553 85.3541 118.372 83.4621 115.119C81.6371 111.98 82.4891 108.939 85.8571 106.581C88.9501 104.414 90.1351 105 90.5161 108.887ZM409.428 107.582C408.311 108.7 408.558 113.98 409.728 113.98C410.296 113.98 411.028 113.28 411.357 112.425C412.072 110.561 410.47 106.54 409.428 107.582ZM397.145 110.254C396.349 112.328 396.915 115.03 398.197 115.283C399.591 115.558 400.097 110.98 398.814 109.697C398.079 108.962 397.577 109.129 397.145 110.254ZM378.697 114.48C378.697 116.405 379.147 117.98 379.697 117.98C380.247 117.98 380.697 116.405 380.697 114.48C380.697 112.555 380.247 110.98 379.697 110.98C379.147 110.98 378.697 112.555 378.697 114.48ZM366.697 115.98C366.697 119.231 368.182 120.067 368.918 117.23C369.478 115.069 368.837 112.98 367.614 112.98C367.11 112.98 366.697 114.33 366.697 115.98ZM435.697 116.921C435.697 118.539 436.134 120.132 436.668 120.462C437.829 121.18 439.165 116.547 438.232 115.037C436.991 113.029 435.697 113.99 435.697 116.921ZM424.145 116.254C423.349 118.328 423.915 121.03 425.197 121.283C426.591 121.558 427.097 116.98 425.814 115.697C425.079 114.962 424.577 115.129 424.145 116.254ZM389.259 126.488C384.683 132.487 362.854 155.732 359.661 158.006L356.673 160.133L350.805 155.23L344.937 150.326L355.067 145.004C370.249 137.027 380.608 130.086 383.701 125.816C386.21 122.352 386.519 122.191 387.015 124.089C387.691 126.672 389.697 125.649 389.697 122.721C389.697 121.103 389.979 120.862 390.851 121.734C391.723 122.606 391.334 123.768 389.259 126.488ZM414.145 122.254C413.349 124.328 413.915 127.03 415.197 127.283C416.591 127.558 417.097 122.98 415.814 121.697C415.079 120.962 414.577 121.129 414.145 122.254ZM77.5231 130.578C78.1631 132.832 79.8081 135.887 81.1791 137.366L83.6711 140.056L80.7791 145.268C79.1891 148.134 77.5841 151.942 77.2131 153.73C76.4011 157.643 75.4821 157.793 72.8491 154.446C70.8881 151.953 65.2001 139.15 64.5361 135.737C64.1741 133.874 74.7081 124.571 75.7781 125.808C76.0981 126.178 76.8831 128.324 77.5231 130.578ZM358.697 133.98C358.697 136.069 359.122 137.005 359.947 136.73C360.635 136.501 361.197 135.263 361.197 133.98C361.197 132.697 360.635 131.459 359.947 131.23C359.122 130.955 358.697 131.891 358.697 133.98ZM65.2621 143.844C69.6521 154.735 73.0921 159.329 76.3871 158.699C78.5311 158.289 79.1211 158.881 81.1561 163.483C84.2591 170.499 85.6971 177.625 85.6971 185.98C85.6971 192.886 84.3351 201.349 82.8351 203.764C80.3151 207.819 71.7231 195.367 65.3111 178.371C61.9921 169.57 56.8601 163.431 50.2531 160.354C38.3751 154.823 26.8161 159.558 23.5931 171.275C21.9051 177.413 23.6751 184.466 30.1701 197.48C37.6471 212.462 44.8391 223.207 52.6911 231.126C58.3801 236.862 60.2141 238.059 66.0951 239.876C69.8421 241.033 73.4231 241.983 74.0521 241.986C74.6821 241.99 75.9381 243.294 76.8431 244.886L78.4881 247.779L68.3431 250.962C54.8541 255.194 34.6901 262.322 21.4431 267.541C14.8461 270.14 10.4481 271.386 10.0651 270.766C8.46408 268.177 5.64809 254.363 4.54809 243.707C3.05209 229.216 4.48008 211.101 8.31708 195.885C11.1971 184.466 18.2131 166.967 22.7431 159.908C26.5601 153.96 34.7421 146.204 41.1971 142.415C46.6441 139.217 58.3881 134.864 60.5441 135.243C61.2851 135.373 63.4081 139.244 65.2621 143.844ZM341.697 140.48C341.697 142.405 342.147 143.98 342.697 143.98C343.247 143.98 343.697 142.405 343.697 140.48C343.697 138.555 343.247 136.98 342.697 136.98C342.147 136.98 341.697 138.555 341.697 140.48ZM370.145 138.254C369.349 140.328 369.915 143.03 371.197 143.283C372.591 143.558 373.097 138.98 371.814 137.697C371.079 136.962 370.577 137.129 370.145 138.254ZM295.124 144.23C294.602 145.508 288.573 150.234 283.197 153.579C280.713 155.125 280.421 155.161 281.502 153.793C282.6 152.404 282.532 151.987 281.075 151.172C279.597 150.344 279.985 149.874 283.715 147.971C287.125 146.231 292.304 144.054 295.416 143.05C295.536 143.012 295.405 143.543 295.124 144.23ZM310.497 145.18C312.44 147.123 311.869 148.445 309.868 146.635C307.478 144.472 306.13 144.547 303.697 146.98C302.202 148.475 301.697 148.614 301.697 147.53C301.697 144.535 308.133 142.816 310.497 145.18ZM297.017 148.179C291.474 154.304 276.189 163.576 268.447 165.51C264.004 166.62 265.297 164.56 270.179 162.75C276.63 160.359 287.514 153.803 292.716 149.174C297.214 145.173 300.407 144.433 297.017 148.179ZM330.032 148.369C331.559 150.7 331.441 150.908 325.234 156.869C318.826 163.023 317.091 163.797 313.736 162.001C311.691 160.907 309.249 154.962 310.434 153.962C310.854 153.607 313.006 152.804 315.216 152.178C317.427 151.551 320.127 150.364 321.216 149.541C323.104 148.114 323.032 148.034 319.697 147.849C316.982 147.698 317.43 147.503 321.697 146.98C324.722 146.609 327.483 146.233 327.832 146.143C328.181 146.053 329.171 147.055 330.032 148.369ZM309.241 152.221C308.475 153.315 308.09 154.945 308.386 155.845C308.682 156.744 307.765 156.13 306.347 154.48C303.278 150.909 303.224 150.596 305.316 148.504C306.808 147.012 307.08 147.017 308.784 148.559C310.405 150.026 310.461 150.478 309.241 152.221ZM315.549 171.031C318.963 175.953 320.565 179.161 320.149 180.243C319.1 182.979 306.281 192.745 298.998 196.357C292.122 199.768 284.831 202.472 284.243 201.83C283.499 201.016 268.697 170.937 268.697 170.237C268.697 169.815 271.438 168.407 274.788 167.108C281.443 164.527 293.779 156.673 297.621 152.569C300.762 149.215 299.427 149.203 295.903 152.553C289.491 158.65 272.712 167.995 268.225 167.968C267.11 167.961 269.741 166.408 274.073 164.517C282.791 160.711 286.8 158.241 294.13 152.155L299.063 148.06L304.687 155.77C307.78 160.011 312.668 166.878 315.549 171.031ZM313.697 150.48C313.697 150.755 313.472 150.98 313.197 150.98C312.922 150.98 312.697 150.755 312.697 150.48C312.697 150.205 312.922 149.98 313.197 149.98C313.472 149.98 313.697 150.205 313.697 150.48ZM358.428 150.582C357.311 151.7 357.558 156.98 358.728 156.98C359.296 156.98 360.028 156.28 360.357 155.425C361.072 153.561 359.47 149.54 358.428 150.582ZM278.17 152.024C277.815 152.598 278.049 153.699 278.689 154.47C279.639 155.615 278.72 156.444 273.69 158.983C264.247 163.75 262.963 162.378 271.096 156.211C278.133 150.875 279.31 150.179 278.17 152.024ZM353.697 160.619C353.697 160.878 351.879 163.766 349.658 167.037C344.996 173.902 342.274 175.967 336.985 176.648C332.994 177.162 325.48 175.13 325.536 173.552C325.553 173.041 328.365 171.611 331.783 170.373C335.202 169.135 338.944 167.175 340.098 166.017L342.197 163.911L336.447 164.583C333.284 164.953 330.697 164.975 330.697 164.632C330.697 164.289 333.284 162.702 336.447 161.104C339.61 159.506 343.045 157.26 344.082 156.112L345.966 154.025L349.832 157.087C351.958 158.77 353.697 160.36 353.697 160.619ZM47.1971 161.082C53.8361 162.892 60.6201 170.792 64.0581 180.717C69.7441 197.13 79.4041 209.009 92.6701 215.898C104.102 221.836 110.987 223.37 126.447 223.429L139.697 223.48V229.602V235.724L135.947 236.315C99.5381 242.045 74.8201 242.072 63.0191 236.395C53.7441 231.932 42.7371 218.035 32.9441 198.423C23.7991 180.107 22.7671 172.616 28.4581 165.852C33.0511 160.394 39.0621 158.864 47.1971 161.082ZM317.682 168.289C317.669 170.07 317.485 170.199 316.697 168.98C315.424 167.01 315.424 164.693 316.697 165.48C317.247 165.82 317.69 167.084 317.682 168.289ZM271.697 170.911C271.697 172.585 284.079 196.98 284.928 196.98C286.435 196.98 285.62 194.796 279.729 183.043C274.234 172.082 271.697 168.25 271.697 170.911ZM172.697 180.512C172.697 183.763 163.83 196.98 161.649 196.98C160.821 196.98 160.412 195.739 159.172 189.457C158.875 187.951 159.593 187.079 161.985 186.043C163.752 185.278 166.547 183.606 168.197 182.327C171.115 180.066 172.697 179.428 172.697 180.512ZM321.108 184.09C320.057 185.258 317.172 187.564 314.697 189.215C310.469 192.036 310.56 191.884 316.197 186.706C322.013 181.363 324.989 179.778 321.108 184.09ZM275.254 189.092C276.671 191.89 277.658 194.352 277.446 194.565C276.955 195.055 241.627 188.244 240.903 187.519C239.461 186.077 242.936 185.445 254.844 184.983C261.986 184.707 268.92 184.373 270.253 184.242C272.254 184.046 273.125 184.89 275.254 189.092ZM145.697 186.98C145.697 187.53 145.499 187.98 145.256 187.98C145.013 187.98 144.537 187.53 144.197 186.98C143.857 186.43 144.056 185.98 144.638 185.98C145.22 185.98 145.697 186.43 145.697 186.98ZM156.072 189.105C156.925 193.371 156.859 198.771 155.947 199.283C155.535 199.514 154.011 199.986 152.561 200.332C150.57 200.807 149.802 200.535 149.42 199.22C149.142 198.263 148.19 195.806 147.305 193.76L145.695 190.039L149.946 188.046C155.444 185.469 155.341 185.451 156.072 189.105ZM145.068 193.73C146.584 197.442 148.074 201.273 148.38 202.243C148.836 203.687 146.433 205.196 135.067 210.601C113.372 220.917 113.179 220.977 106.697 219.347C100.596 217.813 87.4291 211.446 85.1511 208.929C83.9011 207.548 83.8811 206.75 85.0171 203.47C86.0831 200.391 87.1251 199.348 90.2721 198.208C93.1471 197.167 137.42 187.569 141.755 187.047C142.062 187.01 143.553 190.018 145.068 193.73ZM229.254 189.917C227.436 191.926 227.864 193.98 230.101 193.98C231.94 193.98 235.017 190.306 234.236 189.043C233.23 187.415 231.195 187.773 229.254 189.917ZM218.268 190.551C216.27 192.55 216.273 193.88 218.28 194.65C220.188 195.383 224.239 191.665 223.259 190.081C222.29 188.513 220.1 188.72 218.268 190.551ZM309.697 192.421C309.697 192.664 309.177 193.183 308.542 193.575C307.827 194.018 307.659 193.85 308.102 193.135C308.814 191.982 309.697 191.587 309.697 192.421ZM232.947 195.065C230.681 195.922 229.703 199.98 231.763 199.98C233.762 199.98 236.697 197.913 236.697 196.504C236.697 194.52 235.552 194.081 232.947 195.065ZM306.697 194.421C306.697 194.664 306.177 195.183 305.542 195.575C304.827 196.018 304.659 195.85 305.102 195.135C305.814 193.982 306.697 193.587 306.697 194.421ZM212.897 196.18C212.237 196.84 211.697 198.09 211.697 198.958C211.697 199.826 210.797 201.306 209.697 202.248C207.495 204.134 207.049 207.461 208.849 208.574C210.451 209.564 212.895 205.914 212.278 203.451C211.92 202.023 212.425 201.135 213.984 200.451C216.472 199.359 217.659 194.98 215.467 194.98C214.713 194.98 213.557 195.52 212.897 196.18ZM222.767 196.849C221.698 198.847 222.25 199.98 224.292 199.98C225.76 199.98 228.697 197.265 228.697 195.909C228.697 194.177 223.78 194.957 222.767 196.849ZM303.697 196.48C303.697 196.755 303.472 196.98 303.197 196.98C302.922 196.98 302.697 196.755 302.697 196.48C302.697 196.205 302.922 195.98 303.197 195.98C303.472 195.98 303.697 196.205 303.697 196.48ZM225.697 197.48C225.697 197.755 225.472 197.98 225.197 197.98C224.922 197.98 224.697 197.755 224.697 197.48C224.697 197.205 224.922 196.98 225.197 196.98C225.472 196.98 225.697 197.205 225.697 197.48ZM233.697 197.48C233.697 197.755 233.472 197.98 233.197 197.98C232.922 197.98 232.697 197.755 232.697 197.48C232.697 197.205 232.922 196.98 233.197 196.98C233.472 196.98 233.697 197.205 233.697 197.48ZM301.697 197.48C301.697 197.755 301.472 197.98 301.197 197.98C300.922 197.98 300.697 197.755 300.697 197.48C300.697 197.205 300.922 196.98 301.197 196.98C301.472 196.98 301.697 197.205 301.697 197.48ZM214.697 198.48C214.697 198.755 214.472 198.98 214.197 198.98C213.922 198.98 213.697 198.755 213.697 198.48C213.697 198.205 213.922 197.98 214.197 197.98C214.472 197.98 214.697 198.205 214.697 198.48ZM299.697 198.48C299.697 198.755 299.472 198.98 299.197 198.98C298.922 198.98 298.697 198.755 298.697 198.48C298.697 198.205 298.922 197.98 299.197 197.98C299.472 197.98 299.697 198.205 299.697 198.48ZM297.697 199.48C297.697 199.755 297.472 199.98 297.197 199.98C296.922 199.98 296.697 199.755 296.697 199.48C296.697 199.205 296.922 198.98 297.197 198.98C297.472 198.98 297.697 199.205 297.697 199.48ZM218.447 201.06C216.523 202.181 216.094 205.489 217.741 206.507C219.339 207.495 221.697 205.021 221.697 202.358C221.697 199.757 221.096 199.517 218.447 201.06ZM226.313 201.507C224.416 203.404 224.222 205.568 225.859 206.58C227.163 207.386 230.961 203.272 230.417 201.641C229.829 199.876 228.003 199.817 226.313 201.507ZM295.697 200.48C295.697 200.755 295.472 200.98 295.197 200.98C294.922 200.98 294.697 200.755 294.697 200.48C294.697 200.205 294.922 199.98 295.197 199.98C295.472 199.98 295.697 200.205 295.697 200.48ZM157.697 207.98C157.697 213.567 157.391 214.98 156.182 214.98C155.349 214.98 152.308 216.311 149.425 217.938C144.713 220.597 142.962 220.965 132.087 221.58C124.33 222.018 119.768 221.904 119.37 221.26C119.027 220.704 121.747 219.006 125.474 217.45C137.245 212.534 151.421 205.141 152.008 203.613C152.32 202.8 153.615 201.937 154.886 201.694C156.157 201.451 157.31 201.191 157.447 201.116C157.584 201.041 157.697 204.13 157.697 207.98ZM291.697 202.48C290.322 203.266 288.297 203.891 287.197 203.868C285.887 203.842 286.405 203.363 288.697 202.48C293.324 200.698 294.814 200.698 291.697 202.48ZM232.686 204.001C231.595 206.04 232.081 207.98 233.685 207.98C235.062 207.98 237.697 204.978 237.697 203.409C237.697 201.25 233.919 201.697 232.686 204.001ZM219.697 203.48C219.697 203.755 219.472 203.98 219.197 203.98C218.922 203.98 218.697 203.755 218.697 203.48C218.697 203.205 218.922 202.98 219.197 202.98C219.472 202.98 219.697 203.205 219.697 203.48ZM235.697 204.48C235.697 204.755 235.472 204.98 235.197 204.98C234.922 204.98 234.697 204.755 234.697 204.48C234.697 204.205 234.922 203.98 235.197 203.98C235.472 203.98 235.697 204.205 235.697 204.48ZM210.697 205.48C210.697 205.755 210.472 205.98 210.197 205.98C209.922 205.98 209.697 205.755 209.697 205.48C209.697 205.205 209.922 204.98 210.197 204.98C210.472 204.98 210.697 205.205 210.697 205.48ZM213.897 208.18C212.194 209.883 212.381 213.98 214.162 213.98C216.044 213.98 217.869 210.592 217.086 208.552C216.364 206.669 215.508 206.569 213.897 208.18ZM221.655 209.058C220.343 211.51 221.047 213.98 223.059 213.98C224.616 213.98 225.697 211.898 225.697 208.898C225.697 206.344 223.052 206.448 221.655 209.058ZM228.482 211.552C227.539 213.622 227.585 214.293 228.72 214.994C230.643 216.183 232.697 214.304 232.697 211.358C232.697 208.146 229.977 208.272 228.482 211.552ZM207.001 210.792C205.159 211.93 203.759 216.465 204.757 218.063C206.079 220.183 209.122 217.914 209.525 214.507C209.896 211.378 208.76 209.705 207.001 210.792ZM223.697 210.48C223.697 210.755 223.472 210.98 223.197 210.98C222.922 210.98 222.697 210.755 222.697 210.48C222.697 210.205 222.922 209.98 223.197 209.98C223.472 209.98 223.697 210.205 223.697 210.48ZM230.697 212.48C230.697 212.755 230.472 212.98 230.197 212.98C229.922 212.98 229.697 212.755 229.697 212.48C229.697 212.205 229.922 211.98 230.197 211.98C230.472 211.98 230.697 212.205 230.697 212.48ZM207.364 215.647C206.997 216.013 206.697 215.713 206.697 214.98C206.697 214.247 206.997 213.947 207.364 214.313C207.73 214.68 207.73 215.28 207.364 215.647ZM211.002 217.197C209.15 219.587 208.83 221.779 210.083 223.494C211.26 225.103 211.433 225.101 213.069 223.465C214.925 221.609 214.944 216.879 213.097 216.274C212.492 216.076 211.549 216.491 211.002 217.197ZM218.732 217.914C217.265 220.655 217.45 223.671 219.124 224.314C221.461 225.211 223.121 222.25 222.815 217.73C222.657 215.383 220.023 215.502 218.732 217.914ZM226.897 217.18C225.222 218.855 225.398 222.651 227.182 223.336C229.2 224.11 230.667 221.027 229.611 218.23C228.627 215.625 228.501 215.576 226.897 217.18ZM153.697 220.48C151.621 222.621 150.866 223.975 151.751 223.968C154.008 223.95 163.047 221.398 165.493 220.089C168.192 218.645 168.351 219.784 166.08 224.28C162.112 232.132 157.367 234.98 148.247 234.98H141.697V228.98C141.697 224.584 142.061 222.98 143.059 222.98C143.808 222.98 146.845 221.654 149.809 220.033C156.913 216.147 157.798 216.249 153.697 220.48ZM212.697 220.48C212.697 221.305 212.261 221.98 211.728 221.98C211.196 221.98 211.019 221.305 211.335 220.48C211.652 219.655 212.088 218.98 212.304 218.98C212.52 218.98 212.697 219.655 212.697 220.48ZM221.059 220.48C220.742 221.305 220.306 221.98 220.09 221.98C219.874 221.98 219.697 221.305 219.697 220.48C219.697 219.655 220.133 218.98 220.666 218.98C221.198 218.98 221.375 219.655 221.059 220.48ZM228.364 220.647C227.997 221.013 227.697 220.713 227.697 219.98C227.697 219.247 227.997 218.947 228.364 219.313C228.73 219.68 228.73 220.28 228.364 220.647ZM157.697 220.48C157.697 220.755 157.472 220.98 157.197 220.98C156.922 220.98 156.697 220.755 156.697 220.48C156.697 220.205 156.922 219.98 157.197 219.98C157.472 219.98 157.697 220.205 157.697 220.48ZM202.137 224.431C200.221 227.356 200.574 230.333 202.891 230.779C205.064 231.197 207.035 227.462 206.263 224.387C205.493 221.318 204.167 221.333 202.137 224.431ZM204.297 227.58C203.941 228.507 203.425 229.041 203.15 228.766C202.875 228.491 202.941 227.507 203.297 226.58C203.653 225.653 204.169 225.119 204.444 225.394C204.719 225.669 204.653 226.653 204.297 227.58ZM225.323 227.513C224.309 230.155 224.6 232.655 226.064 233.87C227.992 235.47 229.934 232.902 229.519 229.299C229.158 226.161 226.307 224.947 225.323 227.513ZM216.331 228.832C214.375 230.993 214.142 235.98 215.997 235.98C218.11 235.98 219.697 233.774 219.697 230.839C219.697 227.32 218.399 226.547 216.331 228.832ZM207.313 229.507C205.224 231.596 205.239 234.867 207.342 235.674C209.351 236.445 211.894 233.31 211.485 230.566C211.1 227.985 209.293 227.526 207.313 229.507ZM227.38 231.168C227.061 231.965 226.824 231.728 226.776 230.563C226.733 229.509 226.969 228.919 227.301 229.251C227.633 229.583 227.669 230.446 227.38 231.168ZM208.88 233.197C208.163 233.914 207.697 233.973 207.697 233.347C207.697 232.012 208.88 230.829 209.547 231.497C209.831 231.781 209.531 232.546 208.88 233.197ZM217.38 233.168C217.061 233.965 216.824 233.728 216.776 232.563C216.733 231.509 216.969 230.919 217.301 231.251C217.633 231.583 217.669 232.446 217.38 233.168ZM200.544 235.416C199.24 238.278 200.01 240.98 202.13 240.98C204.137 240.98 205.958 237.379 205.185 234.942C204.325 232.234 201.88 232.483 200.544 235.416ZM202.88 238.197C202.163 238.914 201.697 238.973 201.697 238.347C201.697 237.012 202.88 235.829 203.547 236.497C203.831 236.781 203.531 237.546 202.88 238.197ZM224.747 237.42C223.047 239.469 223.825 244.392 225.911 244.788C227.911 245.167 229.244 241.279 228.22 238.052C227.447 235.618 226.4 235.428 224.747 237.42ZM206.272 239.898C204.18 242.209 204.544 246.335 206.88 246.78C209.065 247.196 211.037 243.47 210.263 240.387C209.533 237.479 208.567 237.361 206.272 239.898ZM215.002 239.197C213.09 241.663 212.846 243.8 214.266 245.633C215.652 247.422 215.746 247.417 217.239 245.481C218.93 243.29 218.842 238.846 217.097 238.274C216.492 238.076 215.549 238.491 215.002 239.197ZM226.359 242.23C226.082 242.918 225.855 242.355 225.855 240.98C225.855 239.605 226.082 239.043 226.359 239.73C226.637 240.418 226.637 241.543 226.359 242.23ZM207.88 243.197C207.163 243.914 206.697 243.973 206.697 243.347C206.697 242.012 207.88 240.829 208.547 241.497C208.831 241.781 208.531 242.546 207.88 243.197ZM216.697 242.48C216.697 243.305 216.261 243.98 215.728 243.98C215.196 243.98 215.019 243.305 215.335 242.48C215.652 241.655 216.088 240.98 216.304 240.98C216.52 240.98 216.697 241.655 216.697 242.48ZM537.404 252.218C537.165 253.462 536.96 252.68 536.949 250.48C536.938 248.28 537.134 247.262 537.384 248.218C537.634 249.174 537.643 250.974 537.404 252.218ZM519.171 250.93C520.01 252.553 520.697 255.88 520.697 258.323C520.697 263.315 519.864 263.98 513.615 263.98H509.697V256.543V249.107L512.947 248.703C514.735 248.482 516.523 248.228 516.921 248.14C517.32 248.052 518.332 249.308 519.171 250.93ZM538.404 264.218C538.165 265.462 537.96 264.68 537.949 262.48C537.938 260.28 538.134 259.262 538.384 260.218C538.634 261.174 538.643 262.974 538.404 264.218ZM197.62 263.903C194.179 267.344 193.995 269.316 196.701 273.754C199.222 277.89 199.203 278.321 196.56 276.907C193.644 275.346 187.905 276.436 185.084 279.086C181.948 282.032 182.863 282.979 187.668 281.759C192.028 280.653 197.442 281.306 199.955 283.243C200.842 283.926 201.847 286.72 202.2 289.48C202.552 292.23 202.47 294.004 202.018 293.422C198.499 288.888 190.531 287.672 183.915 290.658L180.197 292.336L186.697 292.975C194.784 293.77 198.467 295.507 201.445 299.93C205.422 305.839 204.662 306.393 191.509 307.166C177.481 307.991 170.095 309.268 164.147 311.899C160.316 313.594 159.697 314.282 159.697 316.847C159.697 318.575 160.759 321.089 162.226 322.833C164.292 325.287 165.447 329.291 168.522 344.651C172.205 363.043 172.361 363.511 175.511 365.634C185.16 372.136 227.676 371.808 235.655 365.17C237.249 363.843 238.521 359.311 241.571 344.087C244.251 330.707 245.934 324.427 247.001 323.83C247.851 323.354 249.093 321.311 249.76 319.289C250.896 315.846 250.809 315.473 248.37 313.375C244.52 310.063 228.412 307.036 214.447 307C205.116 306.976 204.661 306.007 211.343 300.387C216.942 295.679 218.112 295.141 222.947 295.05C227.071 294.973 227.607 294.089 224.947 291.753C220.41 287.769 213.738 288.892 208.848 294.461L205.899 297.819L205.329 295.15C204.851 292.913 205.518 291.774 209.442 288.124C214.736 283.199 217.297 281.98 222.345 281.98C226.777 281.98 226.384 280.292 221.344 277.676C217.77 275.822 217.426 275.812 213.168 277.438C208.886 279.073 204.723 283.336 204.673 286.134C204.629 288.651 199.444 275.5 198.955 271.631C198.59 268.743 198.996 267.067 200.582 264.921C201.745 263.348 202.697 261.818 202.697 261.52C202.697 260.118 200.263 261.26 197.62 263.903ZM539.415 276.716C539.185 278.236 538.991 277.23 538.983 274.48C538.976 271.73 539.164 270.486 539.401 271.716C539.638 272.946 539.644 275.196 539.415 276.716ZM540.43 296.204C540.219 298.556 540.043 296.88 540.04 292.48C540.036 288.08 540.209 286.156 540.424 288.204C540.639 290.252 540.642 293.852 540.43 296.204ZM203.507 310.73C203.278 311.92 201.895 312.664 199.184 313.055C196.991 313.371 192.854 314.482 189.991 315.524C185.468 317.17 184.187 317.258 180.227 316.199C173.664 314.444 172.097 314.66 169.945 317.614C168.146 320.084 167.851 320.162 165.186 318.864C163.623 318.103 162.168 316.937 161.952 316.272C161.402 314.583 167.042 312.437 175.781 311.01C179.86 310.345 183.872 309.668 184.697 309.506C185.522 309.344 190.167 309.16 195.02 309.096C202.919 308.992 203.808 309.163 203.507 310.73ZM237.431 311.469C241.409 312.384 245.661 313.94 246.88 314.927L249.097 316.722L245.845 318.403C242.662 320.049 242.466 320.021 236.486 317.032C229.627 313.605 227.48 313.396 219.884 315.418C212.725 317.323 207.364 315.704 206.866 311.485L206.535 308.678L218.366 309.241C224.873 309.551 233.452 310.553 237.431 311.469ZM82.6731 332.063C82.7131 333.038 75.3101 338.651 73.0271 339.375C69.9781 340.343 66.3171 334.981 66.0881 329.212C65.9931 326.821 65.6091 324.559 65.2361 324.185C64.8621 323.812 66.2761 322.747 68.3771 321.819L72.1971 320.131L77.4231 325.805C80.2971 328.926 82.6591 331.742 82.6731 332.063ZM184.703 325.069C203.857 327.074 232.589 325.323 244.962 321.396C246.213 320.999 246.709 321.151 246.304 321.807C244.281 325.08 224.733 327.98 204.697 327.98C183.635 327.98 166.923 325.367 163.783 321.583C163.045 320.695 164.357 320.851 168.018 322.087C170.935 323.072 178.444 324.414 184.703 325.069ZM180.193 328.633C192.863 330.567 226.99 329.963 236.189 327.642C239.484 326.81 242.332 326.282 242.518 326.467C242.703 326.653 241.265 334.822 239.322 344.622C235.534 363.728 235.297 364.207 228.728 365.967C222.067 367.751 206.194 369.08 198.697 368.48C187.946 367.62 177.178 365.173 175.409 363.188C174.573 362.248 172.467 354.28 170.73 345.48C168.994 336.68 167.324 328.624 167.02 327.579C166.574 326.05 166.831 325.817 168.328 326.392C169.352 326.785 174.691 327.794 180.193 328.633ZM44.3641 336.647C43.9971 337.013 43.6971 336.713 43.6971 335.98C43.6971 335.247 43.9971 334.947 44.3641 335.313C44.7301 335.68 44.7301 336.28 44.3641 336.647ZM428.697 344.031V351.082L425.229 352.531C421.498 354.09 416.878 354.402 415.091 353.215C413.479 352.144 412.542 345.802 413.298 341.076L413.953 336.98H421.325H428.697V344.031ZM45.6971 338.48C45.6971 338.755 45.4721 338.98 45.1971 338.98C44.9221 338.98 44.6971 338.755 44.6971 338.48C44.6971 338.205 44.9221 337.98 45.1971 337.98C45.4721 337.98 45.6971 338.205 45.6971 338.48ZM78.7211 341.23C78.7401 343.09 80.4801 347.87 84.3631 356.73C84.6641 357.418 84.3881 357.98 83.7491 357.98C83.1101 357.98 81.4921 355.504 80.1531 352.477C77.2421 345.895 75.9181 338.98 77.5691 338.98C78.1891 338.98 78.7081 339.992 78.7211 341.23ZM61.6971 356.237C61.6971 356.9 48.4691 343.959 46.6551 341.521C45.8531 340.444 48.9101 343.205 53.4471 347.657C57.9841 352.11 61.6971 355.971 61.6971 356.237ZM77.3821 350.728C79.1341 355.521 80.3911 359.619 80.1751 359.835C79.9601 360.051 79.0691 359.953 78.1951 359.618C76.2081 358.855 74.1641 354.052 72.9241 347.229C71.4161 338.932 73.7371 340.753 77.3821 350.728ZM62.6971 358.48C62.6971 358.755 62.4721 358.98 62.1971 358.98C61.9221 358.98 61.6971 358.755 61.6971 358.48C61.6971 358.205 61.9221 357.98 62.1971 357.98C62.4721 357.98 62.6971 358.205 62.6971 358.48ZM63.6971 360.48C63.6971 360.755 63.4721 360.98 63.1971 360.98C62.9221 360.98 62.6971 360.755 62.6971 360.48C62.6971 360.205 62.9221 359.98 63.1971 359.98C63.4721 359.98 63.6971 360.205 63.6971 360.48ZM64.6971 362.48C64.6971 362.755 64.4721 362.98 64.1971 362.98C63.9221 362.98 63.6971 362.755 63.6971 362.48C63.6971 362.205 63.9221 361.98 64.1971 361.98C64.4721 361.98 64.6971 362.205 64.6971 362.48ZM73.6361 371.452C75.8811 372.465 77.5301 373.481 77.3001 373.71C76.7421 374.268 70.6651 371.15 68.3541 369.121C67.3411 368.231 66.0671 366.597 65.5231 365.491C64.9801 364.385 65.6641 364.86 67.0441 366.546C68.4241 368.232 71.3901 370.44 73.6361 371.452ZM428.961 370.684C427.731 370.921 425.481 370.927 423.961 370.698C422.441 370.468 423.447 370.274 426.197 370.266C428.947 370.259 430.191 370.447 428.961 370.684ZM415.447 371.696C413.935 371.925 411.459 371.925 409.947 371.696C408.435 371.467 409.672 371.28 412.697 371.28C415.722 371.28 416.959 371.467 415.447 371.696ZM397.947 372.703C396.159 372.925 393.235 372.925 391.447 372.703C389.659 372.482 391.122 372.3 394.697 372.3C398.272 372.3 399.735 372.482 397.947 372.703ZM81.4261 374.584C81.0941 374.916 80.2311 374.952 79.5101 374.663C78.7121 374.344 78.9491 374.107 80.1141 374.059C81.1681 374.016 81.7581 374.252 81.4261 374.584Z" fill="#017260"/>
<path fill-rule="evenodd" clip-rule="evenodd" d="M327.604 25.8851C327.604 30.0048 325.289 32.2545 316.615 36.5631C313.044 38.3371 309.928 39.9662 309.69 40.1841C307.108 42.5577 323.811 52.5441 330.364 52.5441C340.543 52.5441 345.898 40.4089 338.594 33.8966C336.934 32.4174 335.596 30.2167 335.596 28.9644C335.596 26.6307 331.385 22.561 328.968 22.561C328.089 22.561 327.604 23.7423 327.604 25.8851ZM344.233 39.2816C342.715 48.4654 343.179 49.9706 349.226 55.4994C355.764 61.4761 356.288 61.2672 356.656 52.5441C357.226 39.0237 356.49 37.5486 348.468 36.1453C344.918 35.5247 344.844 35.5787 344.233 39.2816ZM360.124 46.2976C358.955 60.9574 358.607 62.4705 356.012 64.1716C353.435 65.8606 352.599 74.3049 354.541 79.0292C355.449 81.24 355.493 81.169 357.61 74.032C361.14 62.1297 366.1 57.7962 377.217 56.8997C381.524 56.5519 385.644 55.7963 386.372 55.2196C387.838 54.0603 389.5 55.8283 389.528 58.5757C389.536 59.4192 390.496 62.7923 391.662 66.0715C394.793 74.8805 392.685 107.768 388.487 115.615C386.508 119.315 397.644 128.439 400.077 125.111C401.702 122.888 402.73 124.447 402.73 129.137C402.73 139.978 443.212 124.103 450.551 110.385C451.735 108.17 447.136 98.4822 438.748 85.5255C429.931 71.9042 404.962 48.5893 403.65 52.751C401.905 58.2849 401.392 59.0435 400.491 57.4324C399.962 56.4859 399.958 54.548 400.482 52.72C401.745 48.3125 388.579 42.122 372.56 39.5924C360.347 37.6635 360.835 37.4016 360.124 46.2976ZM372.922 46.0478C373.604 47.8268 372.717 50.5452 371.454 50.5452C370.963 50.5452 370.562 49.196 370.562 47.5469C370.562 44.3877 371.947 43.5082 372.922 46.0478ZM371.006 60.4447C367.456 61.9768 362.715 68.3072 361.137 73.6222C359.723 78.3866 358.952 83.4097 356.706 102.516C356.014 108.397 355.045 111.304 352.207 116.008C350.061 119.564 348.588 123.303 348.587 125.194C348.584 128.982 347.136 130.247 345.635 127.773C344.689 126.212 343.62 126.992 336.583 134.389C327.766 143.655 327.31 145.011 331.444 149.639L334.284 152.82L345.68 147.031C383.241 127.949 388.735 120.484 390.203 86.525C391.166 64.2585 384.175 54.7599 371.006 60.4447ZM406.511 69.8434C406.502 71.0477 406.084 72.6848 405.58 73.4803C404.44 75.2833 402.972 70.431 403.914 67.9744C404.731 65.8446 406.53 67.1389 406.511 69.8434ZM365.016 79.6878C364.691 80.7162 364.006 81.2989 363.497 80.9841C362.409 80.3115 362.247 75.1874 363.28 74.1539C364.326 73.1075 365.708 77.511 365.016 79.6878ZM382.378 80.9371C382.198 82.3953 381.601 83.6876 381.051 83.8075C379.852 84.0704 379.148 80.0256 380.007 77.7899C380.942 75.3513 382.769 77.7769 382.378 80.9371ZM429.317 83.7765C428.997 87.1017 427.272 87.9122 426.671 85.0198C426.223 82.857 427.19 80.5284 428.536 80.5284C429.169 80.5284 429.497 81.8996 429.317 83.7765ZM417.35 85.6605C417.167 86.9607 416.566 87.9352 416.017 87.8272C414.736 87.5744 414.171 84.8739 414.966 82.8011C415.869 80.4484 417.766 82.7221 417.35 85.6605ZM402.53 92.0219C402.53 93.9458 402.081 95.5199 401.531 95.5199C400.982 95.5199 400.532 93.9458 400.532 92.0219C400.532 90.098 400.982 88.5238 401.531 88.5238C402.081 88.5238 402.53 90.098 402.53 92.0219ZM346.586 90.023C346.586 90.2979 346.361 90.5227 346.086 90.5227C345.811 90.5227 345.587 90.2979 345.587 90.023C345.587 89.7482 345.811 89.5233 346.086 89.5233C346.361 89.5233 346.586 89.7482 346.586 90.023ZM384.548 97.4598C384.548 99.0769 384.111 100.669 383.578 100.999C382.418 101.716 381.083 97.086 382.016 95.5769C383.255 93.57 384.548 94.5305 384.548 97.4598ZM365.402 100.652C365.218 101.952 364.618 102.927 364.068 102.819C362.788 102.566 362.222 99.8655 363.017 97.7926C363.92 95.44 365.818 97.7137 365.402 100.652ZM424.344 101.651C424.16 102.952 423.559 103.926 423.01 103.818C421.729 103.565 421.164 100.865 421.959 98.7921C422.862 96.4394 424.759 98.7131 424.344 101.651ZM412.52 102.658C412.52 104.632 412.087 105.536 411.272 105.264C409.8 104.775 409.115 102.025 409.931 99.8954C410.839 97.5288 412.52 99.3228 412.52 102.658ZM442.326 102.651C442.142 103.951 441.542 104.926 440.992 104.818C439.711 104.565 439.146 101.864 439.941 99.7915C440.844 97.4388 442.741 99.7126 442.326 102.651ZM83.742 109.616C81.6891 111.67 81.5822 114.099 83.3434 118.654C83.759 119.728 82.8969 121.408 80.8579 123.495C78.2135 126.202 77.8389 127.175 78.4173 129.846C82.2905 147.748 107.569 140.351 111.347 120.209L112.041 116.508L104.686 116.452C94.872 116.376 90.7221 114.879 88.9109 110.761C87.2326 106.947 86.5592 106.798 83.742 109.616ZM409.358 112.645C409.175 113.946 408.574 114.92 408.025 114.812C406.744 114.559 406.179 111.859 406.974 109.786C407.877 107.433 409.774 109.707 409.358 112.645ZM397.535 114.068C397.535 115.571 396.96 116.508 396.037 116.508C394.541 116.508 393.891 112.492 395.176 111.205C396.309 110.072 397.535 111.561 397.535 114.068ZM379.042 117.543C378.695 118.639 377.993 119.278 377.483 118.963C376.402 118.294 376.236 114.162 377.25 113.149C378.369 112.029 379.732 115.368 379.042 117.543ZM367.565 117.508C367.565 119.97 365.722 121.073 364.953 119.07C364.166 117.018 365.275 114.21 366.559 115.005C367.112 115.347 367.565 116.473 367.565 117.508ZM436.31 118.757C435.99 122.082 434.265 122.893 433.664 120C433.216 117.837 434.183 115.509 435.53 115.509C436.162 115.509 436.491 116.88 436.31 118.757ZM424.344 120.641C424.16 121.941 423.559 122.915 423.01 122.808C421.729 122.555 421.164 119.854 421.959 117.781C422.862 115.429 424.759 117.702 424.344 120.641ZM414.518 126.062C414.518 127.564 413.943 128.501 413.02 128.501C411.524 128.501 410.874 124.486 412.16 123.198C413.293 122.065 414.518 123.554 414.518 126.062ZM377.158 131.974C371.902 136.77 370.392 138.737 370.792 140.267C371.08 141.369 370.971 142.829 370.551 143.51C369.344 145.464 367.328 143.511 367.832 140.877C368.393 137.94 368.863 137.86 362.286 141.822C359.25 143.651 354.251 146.461 351.178 148.068C344.482 151.569 344.342 152.399 349.779 156.399C355.293 160.455 356.598 160.394 355.903 156.113C355.211 151.845 357.031 150.573 358.853 154.052L360.227 156.674L371.761 144.509C387.898 127.489 391.666 118.738 377.158 131.974ZM68.5241 131.797C63.2323 136.727 63.2673 138.39 68.8927 149.55C73.4372 158.561 73.9297 158.559 78.0387 149.512L81.6201 141.623L79.3823 138.311C78.1516 136.489 76.5392 133.312 75.7989 131.25C74.1235 126.583 74.1195 126.583 68.5241 131.797ZM359.573 135.497C359.573 136.532 359.12 137.658 358.567 138C357.283 138.795 356.174 135.987 356.961 133.935C357.73 131.932 359.573 133.035 359.573 135.497ZM51.8486 138.937C14.8852 152.567 -6.91317 215.1 7.49556 266.174C9.30876 272.6 5.85218 273.059 35.9194 262.393C49.9165 257.428 64.628 252.211 68.611 250.799C78.2035 247.398 77.6241 245.339 66.1145 241.92C57.3432 239.314 48.9495 231.8 39.8945 218.451C17.6944 185.72 16.7923 161.298 37.6916 158.821C48.7767 157.508 57.0465 164.664 65.9836 183.302C79.0776 210.609 83.4034 211.525 83.3074 186.968C83.2485 172.079 79.3294 160.483 74.3553 160.483C72.2524 160.483 67.8088 154.539 64.6449 147.493C60.0235 137.201 58.7917 136.377 51.8486 138.937ZM342.205 143.054C341.901 143.845 341.19 144.492 340.623 144.492C339.472 144.492 339.204 140.218 340.287 139.134C341.287 138.134 342.859 141.347 342.205 143.054ZM285.896 148.103C281.56 150.202 278.763 153.487 281.312 153.487C282.597 153.487 291.64 147.27 291.64 146.387C291.64 145.251 292.029 145.135 285.896 148.103ZM291.64 150.607C289.717 152.277 283.985 156.108 278.903 159.12C268.19 165.47 266.502 167.395 276.405 161.969C284.679 157.435 295.636 149.726 295.636 148.439C295.636 147.148 295.606 147.164 291.64 150.607ZM320.252 149.986C319.913 150.868 317.384 152.526 314.629 153.671C310.635 155.331 309.622 156.227 309.622 158.095C309.622 161.529 313.757 164.008 316.798 162.398C326.803 157.099 330.863 149.356 323.986 148.686C321.843 148.477 320.674 148.885 320.252 149.986ZM303.236 151.07C302.109 154.008 305.2 157.152 306.615 154.507C307.255 153.31 307.532 151.692 307.233 150.911C306.501 149.004 303.99 149.104 303.236 151.07ZM293.258 156.382C288.306 160.669 277.657 167.218 271.41 169.817C266.732 171.763 266.356 170.022 275.242 187.572C283.964 204.799 282.009 203.928 296.136 196.883C306.551 191.689 317.614 183.287 317.614 180.57C317.614 178.671 304.287 158.831 300.208 154.66L297.934 152.334L293.258 156.382ZM270.134 158.006L265.166 162.525L269.125 160.966C273.7 159.165 276.655 156.758 276.655 154.832C276.655 152.623 275.358 153.253 270.134 158.006ZM291.64 154.986C291.64 155.261 291.865 155.486 292.14 155.486C292.414 155.486 292.639 155.261 292.639 154.986C292.639 154.712 292.414 154.487 292.14 154.487C291.865 154.487 291.64 154.712 291.64 154.986ZM336.596 155.486C335.771 156.019 333.792 156.462 332.198 156.471C327.625 156.495 318.613 165.978 318.613 170.767C318.613 174.573 320.015 176.473 320.975 173.969C321.291 173.146 323.099 171.734 324.994 170.831C327.92 169.434 328.272 168.921 327.333 167.414C325.864 165.063 327.283 163.419 334.097 159.572C337.029 157.916 339.716 156.095 340.069 155.524C340.873 154.221 338.592 154.196 336.596 155.486ZM342.076 157.508C341.728 158.07 339.117 160.12 336.273 162.062L331.101 165.595L334.732 164.949C342.058 163.644 339.994 167.451 331.101 171.648C325.173 174.446 325.057 175.686 330.62 176.797C336.679 178.007 342.94 174.631 347.899 167.479L351.712 161.983L348.437 159.234C344.978 156.331 343.116 155.825 342.076 157.508ZM31.285 164.33C22.149 170.071 22.2859 178.383 31.8404 197.948C51.8366 238.895 64.7958 245.04 118.28 238.932C137.937 236.687 137.792 236.75 137.792 230.469V225.447L132.548 225.446C95.2137 225.44 79.7789 216.346 63.4271 184.718C52.3401 163.275 42.6977 157.158 31.285 164.33ZM266.665 165.98C266.665 166.255 266.89 166.48 267.164 166.48C267.439 166.48 267.664 166.255 267.664 165.98C267.664 165.705 267.439 165.481 267.164 165.481C266.89 165.481 266.665 165.705 266.665 165.98ZM273.658 165.98C273.658 166.255 273.883 166.48 274.157 166.48C274.432 166.48 274.657 166.255 274.657 165.98C274.657 165.705 274.432 165.481 274.157 165.481C273.883 165.481 273.658 165.705 273.658 165.98ZM271.66 166.98C271.66 167.255 271.885 167.479 272.159 167.479C272.434 167.479 272.659 167.255 272.659 166.98C272.659 166.705 272.434 166.48 272.159 166.48C271.885 166.48 271.66 166.705 271.66 166.98ZM314.617 167.979C314.617 168.254 314.842 168.479 315.117 168.479C315.392 168.479 315.616 168.254 315.616 167.979C315.616 167.704 315.392 167.479 315.117 167.479C314.842 167.479 314.617 167.704 314.617 167.979ZM278.574 184.601C283.582 194.429 285.565 201.516 282.035 196.963C280.099 194.468 271.194 176.852 270.161 173.476C268.485 167.998 273.481 174.605 278.574 184.601ZM164.016 185.499C158.664 188.571 157.539 191.087 159.378 195.881C160.386 198.509 161.511 197.732 165.751 191.486C172.564 181.449 172.352 180.716 164.016 185.499ZM244.687 187.388L240.191 188.007L247.684 189.745C262.344 193.144 274.657 195.17 274.657 194.182C274.657 193.643 273.721 191.686 272.577 189.835L270.498 186.469L259.84 186.619C253.978 186.702 247.159 187.047 244.687 187.388ZM147.586 190.011C145.195 191.309 145.003 191.783 145.878 194.218C149.482 204.253 156.947 201.258 154.331 190.828C153.653 188.125 151.531 187.868 147.586 190.011ZM123.806 191.989C83.8759 201.13 83.8459 201.141 83.8459 207.167C83.8459 212.165 100.919 219.84 110.795 219.281C117.232 218.917 146.831 206.145 146.76 203.761C146.428 192.462 138.807 188.554 123.806 191.989ZM147.283 207.521C143.986 209.663 136.681 213.538 131.049 216.133C113.999 223.988 130.259 225.459 149.401 217.792L155.867 215.203L155.571 209.66C155.205 202.81 154.725 202.686 147.283 207.521ZM146.534 222.563L140.79 225.479V230.46V235.441H145.817C154.035 235.441 161.08 231.554 164.387 225.197C166.15 221.806 165.42 221.703 156.757 224.113C150.127 225.955 148.542 225.475 151.279 222.448C154.082 219.35 152.804 219.381 146.534 222.563ZM218.712 221.949C218.712 222.224 218.937 222.448 219.212 222.448C219.487 222.448 219.711 222.224 219.711 221.949C219.711 221.674 219.487 221.449 219.212 221.449C218.937 221.449 218.712 221.674 218.712 221.949ZM507.426 257.429V264.425H510.841C516.552 264.425 517.416 263.679 517.416 258.755C517.416 252.215 516.126 250.433 511.387 250.433H507.426V257.429ZM66.3273 323.793C62.9856 326.239 66.61 339.383 70.627 339.383C78.722 339.383 81.4103 333.51 76.0037 327.639C70.9067 322.105 69.4352 321.521 66.3273 323.793ZM165.765 323.891C165.765 324.166 165.99 324.391 166.264 324.391C166.539 324.391 166.764 324.166 166.764 323.891C166.764 323.617 166.539 323.392 166.264 323.392C165.99 323.392 165.765 323.617 165.765 323.891ZM241.69 323.891C241.69 324.166 241.914 324.391 242.189 324.391C242.464 324.391 242.689 324.166 242.689 323.891C242.689 323.617 242.464 323.392 242.189 323.392C241.914 323.392 241.69 323.617 241.69 323.891ZM168.762 324.891C168.762 325.166 168.987 325.391 169.261 325.391C169.536 325.391 169.761 325.166 169.761 324.891C169.761 324.616 169.536 324.391 169.261 324.391C168.987 324.391 168.762 324.616 168.762 324.891ZM237.693 324.891C237.693 325.166 237.918 325.391 238.193 325.391C238.468 325.391 238.693 325.166 238.693 324.891C238.693 324.616 238.468 324.391 238.193 324.391C237.918 324.391 237.693 324.616 237.693 324.891ZM173.757 325.89C173.757 326.165 173.982 326.39 174.256 326.39C174.531 326.39 174.756 326.165 174.756 325.89C174.756 325.615 174.531 325.391 174.256 325.391C173.982 325.391 173.757 325.615 173.757 325.89ZM232.032 326.057C232.399 326.423 232.998 326.423 233.365 326.057C233.73 325.69 233.431 325.391 232.698 325.391C231.966 325.391 231.666 325.69 232.032 326.057ZM179.564 327.073C180.284 327.361 181.147 327.325 181.478 326.994C181.81 326.662 181.22 326.426 180.167 326.469C179.004 326.517 178.767 326.754 179.564 327.073ZM224.52 327.073C225.24 327.361 226.102 327.325 226.434 326.994C226.765 326.662 226.176 326.426 225.123 326.469C223.959 326.517 223.722 326.754 224.52 327.073ZM201.998 328.082C202.97 328.336 204.319 328.319 204.995 328.045C205.671 327.771 204.876 327.564 203.228 327.584C201.579 327.604 201.026 327.828 201.998 328.082ZM167.123 332.981C171.486 365.453 174.04 367.885 203.727 367.841C233.548 367.796 234.365 367.023 239.507 334.046L240.417 328.208L237.806 328.799C226.683 331.313 182.426 331.29 169.862 328.763L166.465 328.079L167.123 332.981ZM411.778 344.987C412.872 358.62 426.506 357.595 426.506 343.88V338.383H418.877H411.248L411.778 344.987ZM75.8538 342.381C75.8538 343.114 76.1535 343.413 76.5202 343.048C76.8858 342.681 76.8858 342.081 76.5202 341.714C76.1535 341.349 75.8538 341.648 75.8538 342.381ZM71.8878 346.451C71.8288 351.507 75.8438 360.714 77.4213 359.135C77.9208 358.637 74.4932 348.305 72.9477 345.648C72.0486 344.103 71.9147 344.204 71.8878 346.451ZM76.9078 345.879C76.8768 347.981 81.6331 358.658 81.769 356.793C81.8129 356.199 80.743 353.051 79.3923 349.797C78.0427 346.543 76.9238 344.78 76.9078 345.879Z" fill="white"/>
<path fill-rule="evenodd" clip-rule="evenodd" d="M321.106 2.17209C311.233 5.81509 300.812 19.6561 300.847 29.0811C300.881 38.2511 307.24 56.3381 313.428 64.8641C317.409 70.3511 324.577 74.3911 331.587 75.1021L336.331 75.5821L331.331 74.2611C322.26 71.8641 316.98 67.8841 313.359 60.7151L311.659 57.3481L314.995 59.8501C319.664 63.3521 325.474 66.0761 331.331 67.5091C339.105 69.4101 342.114 71.7891 345.199 78.4711C346.852 82.0521 349.355 85.5061 351.459 87.1111L354.965 89.7851L354.271 98.9331C353.89 103.964 353.155 108.895 352.638 109.889C351.277 112.508 334.948 131.225 328.948 137.043C326.134 139.773 323.831 142.758 323.831 143.677C323.831 144.994 322.467 145.494 317.39 146.038C311.621 146.656 310.622 146.486 307.823 144.417L304.697 142.106L300.732 144.278C296.834 146.413 296.746 146.417 295.558 144.516C294.894 143.452 293.297 142.581 292.009 142.581C287.236 142.581 267.406 154.046 261.873 160.005L259.415 162.653L264.123 172.13C266.712 177.343 268.831 181.994 268.831 182.466C268.831 182.939 261.181 183.652 251.831 184.052C238.788 184.61 234.831 185.086 234.831 186.098C234.831 188.807 236.107 190.581 238.055 190.581C239.161 190.581 248.494 192.2 258.796 194.178L277.527 197.775L279.666 202.178C280.852 204.619 282.508 206.581 283.384 206.581C289.949 206.581 321.831 186.528 321.831 182.398C321.831 181.875 320.65 179.9 319.207 178.008C317.635 175.946 316.381 172.767 316.077 170.071C315.62 166.012 315.851 165.357 318.451 163.343C320.035 162.116 323.39 159.205 325.907 156.873C329.387 153.648 330.762 152.912 331.647 153.797C332.532 154.682 333.686 154.544 336.467 153.217C338.932 152.042 340.453 151.803 341.135 152.485C342.658 154.008 340.266 156.332 333.831 159.581C325.15 163.963 323.721 166.89 329.831 167.773C331.815 168.06 331.093 168.559 326.331 170.191C321.806 171.742 320.331 172.718 320.331 174.16C320.331 176.851 326.869 178.842 334.082 178.347C340.625 177.899 343.636 175.676 348.976 167.355C350.722 164.634 352.794 162.581 353.794 162.581C355.659 162.581 375.744 142.46 384.739 131.581C387.695 128.006 390.538 124.918 391.057 124.719C391.576 124.52 394.357 126.789 397.235 129.761C402.082 134.765 402.557 135.694 403.65 142.316C405.705 154.76 405.097 167.413 401.375 189.642C396.192 220.601 395.232 233.35 396.694 251.757C398.404 273.275 398.968 277.581 400.077 277.581C400.611 277.581 400.802 276.569 400.502 275.331C400.201 274.093 399.404 264.922 398.729 254.951C397.087 230.677 397.593 225.191 406.386 171.833C407.398 165.69 406.834 147.074 405.462 141.318L404.087 135.555L406.709 135.049C424.381 131.644 435.474 127.235 444.05 120.208C453.787 112.229 453.874 107.633 444.604 91.0811C434.436 72.9261 414.707 53.1841 399.513 45.9611C396.86 44.6991 394.328 42.0891 391.213 37.4031C385.395 28.6511 372.953 17.1521 363.37 11.6691C347.907 2.82209 330.156 -1.16691 321.106 2.17209ZM331.759 22.0441C334.959 23.6981 336.156 25.9801 335.278 28.7481C334.82 30.1911 335.375 30.8751 337.648 31.6671C340.304 32.5931 340.686 33.2681 341.29 38.1001C343.011 51.8711 332.83 57.1201 318.17 50.0211C312.743 47.3921 305.048 39.8901 306.487 38.6301C306.951 38.2241 310.078 36.8921 313.435 35.6691C316.792 34.4471 321.178 32.0951 323.182 30.4431C326.294 27.8781 326.669 27.1471 325.751 25.4321C323.425 21.0851 326.524 19.3371 331.759 22.0441ZM350.476 35.2281L357.033 36.8751L356.672 48.4781C356.473 54.8601 355.927 60.6821 355.459 61.4161C354.821 62.4171 353.45 61.5221 349.97 57.8301C347.418 55.1231 344.254 52.1851 342.937 51.3001C340.731 49.8171 340.643 49.4501 341.814 46.6221C342.631 44.6491 342.849 41.7741 342.424 38.5671C341.663 32.8341 341.393 32.9461 350.476 35.2281ZM378.512 39.1211C386.737 41.1321 401.17 47.8241 409.19 53.3451C417.27 58.9071 428.991 70.5391 436.044 79.9951C442.205 88.2561 450.831 104.708 450.831 108.197C450.831 111.188 444.231 118.366 437.451 122.748C430.843 127.019 415.716 132.266 407.605 133.1L402.331 133.643L394.035 125.624L385.739 117.606L387.711 110.844C390.823 100.172 392.051 89.9801 391.677 77.9111C391.373 68.0921 391.049 66.3611 389 63.5931C387.718 61.8611 386.917 59.8001 387.219 59.0141C387.52 58.2271 387.36 56.5701 386.863 55.3321C386.004 53.1971 385.955 53.2281 385.894 55.9381C385.843 58.2541 385.5 58.6601 384.081 58.0801C378.652 55.8601 375.273 55.4321 371.683 56.5071C363.384 58.9941 358.84 65.4561 355.909 78.9411L354.14 87.0811L352.985 81.7821C352.351 78.8671 351.831 73.3971 351.831 69.6251C351.831 63.2811 351.979 62.8071 353.813 63.2871C356.817 64.0721 357.831 60.0571 357.831 47.3711V36.2911L364.762 36.8721C368.574 37.1921 374.762 38.2041 378.512 39.1211ZM369.831 46.5811C369.831 48.4051 370.246 49.4431 370.831 49.0811C371.381 48.7411 371.831 47.6161 371.831 46.5811C371.831 45.5461 371.381 44.4211 370.831 44.0811C370.246 43.7191 369.831 44.7571 369.831 46.5811ZM399.846 52.8901C399.837 55.1781 400.23 56.4521 400.831 56.0811C402.095 55.3001 402.095 52.5371 400.831 50.5811C400.111 49.4681 399.858 50.0621 399.846 52.8901ZM384.155 60.0581C385.573 60.9871 387.655 63.6511 388.782 65.9801C392.687 74.0471 390.967 98.8501 385.447 114.057C382.04 123.445 378.711 127.703 370.519 133.15C362.467 138.504 332.977 154.06 332.252 153.336C331.995 153.079 330.252 150.713 328.379 148.078L324.973 143.288L335.17 132.184C346.245 120.125 351.951 113.269 353.659 109.971C354.26 108.81 355.227 101.16 355.809 92.9711C356.907 77.4911 358.382 70.6611 361.833 65.0781C366.702 57.1991 376.447 55.0071 384.155 60.0581ZM402.831 68.5221C402.831 70.1401 403.281 71.7411 403.831 72.0811C404.426 72.4491 404.831 71.2581 404.831 69.1401C404.831 67.1831 404.381 65.5811 403.831 65.5811C403.281 65.5811 402.831 66.9041 402.831 68.5221ZM101.316 73.2681C104.391 76.4351 105.748 77.0561 110.922 77.6661C114.468 78.0841 117.765 79.1161 118.932 80.1731C120.514 81.6041 120.796 81.6531 120.319 80.4101C119.481 78.2261 115.426 76.5811 110.879 76.5811C107.934 76.5811 106.028 75.7521 102.831 73.0811C97.4111 68.5531 96.8091 68.6271 101.316 73.2681ZM82.9261 74.0881C80.2831 74.9121 76.6831 77.2631 73.9261 79.9641C71.3991 82.4401 67.3061 85.3381 64.8311 86.4031C59.3371 88.7681 53.1601 94.8061 52.3191 98.6341C51.5351 102.204 52.9031 104.772 57.4311 108.225C61.0551 110.989 61.4561 112.952 59.3831 117.787C58.8811 118.957 59.4871 120.328 61.3151 122.155C63.4941 124.334 64.6011 124.718 67.4041 124.263C69.2891 123.957 70.8091 124.016 70.7831 124.394C70.7571 124.772 68.6451 126.749 66.0901 128.787C62.9171 131.319 58.2931 133.506 51.4961 135.688C40.3131 139.279 29.1231 146.085 23.3891 152.784C15.8881 161.547 6.4141 183.941 2.3221 202.581C1.3661 206.932 0.445097 217.076 0.127097 226.74C-0.463903 244.733 0.983097 257.622 4.9531 269.714C6.5081 274.451 6.79809 277.189 6.29809 282.417C5.51009 290.653 7.72009 302.009 11.2991 308.117C14.4891 313.56 19.9091 318.061 25.7751 320.138C31.6001 322.201 46.8651 323.235 49.4371 321.742C50.9101 320.886 49.1751 320.635 41.6191 320.611C25.4431 320.561 16.5251 315.915 11.1981 304.763C8.8791 299.91 8.4181 297.441 8.0321 287.835C7.7201 280.084 7.9451 276.149 8.7551 275.173C10.1161 273.533 24.3961 267.74 44.9441 260.493C91.7741 243.977 125.37 237.322 145.828 240.508C168.346 244.015 176.933 259.19 164.685 273.831C162.5 276.444 161.301 278.581 162.021 278.581C163.752 278.581 168.554 272.488 170.506 267.816C172.658 262.665 171.716 254.517 168.387 249.487C164.941 244.279 157.922 240.852 145.331 238.23C144.231 238 145.659 237.761 148.504 237.697C152.57 237.606 154.39 236.992 157.004 234.831C161.516 231.101 163.406 228.75 165.399 224.385C167.631 219.495 166.82 217.255 163.302 218.592C161.871 219.136 160.347 219.581 159.914 219.581C159.48 219.581 158.825 215.301 158.458 210.069L157.789 200.557L161.485 197.319C166.62 192.821 170.831 185.867 170.831 181.885C170.831 179.375 170.411 178.6 169.081 178.66C168.036 178.707 167.834 178.942 168.581 179.243C171.817 180.549 168.327 188.829 161.934 195.016C159.698 197.18 157.695 198.755 157.485 198.516C157.274 198.277 156.8 195.714 156.431 192.82C155.794 187.833 155.892 187.508 158.295 186.595C161.744 185.283 161.504 184.196 157.924 184.912C155.3 185.437 155.043 185.255 155.286 183.037C155.435 181.686 155.18 180.581 154.721 180.581C154.262 180.581 152.919 178.331 151.736 175.581C150.553 172.831 149.19 170.581 148.708 170.581C147.513 170.581 147.6 171.23 149.217 174.381C151.014 177.879 153.457 187.576 154.334 194.687L155.025 200.292L151.803 200.937C150.031 201.291 148.243 201.581 147.829 201.581C147.062 201.581 142.831 192.454 142.831 190.798C142.831 190.297 143.843 189.393 145.081 188.79C147.078 187.816 146.965 187.757 144.081 188.262C142.003 188.626 140.831 188.425 140.831 187.706C140.831 187.087 139.751 186.581 138.43 186.581C135.385 186.581 98.0421 194.092 91.1771 196.085C83.5561 198.297 83.6441 198.353 84.3851 191.81C85.3131 183.608 83.2231 171.675 79.2231 162.329C75.4751 153.573 75.5031 152.588 79.6921 145.814C82.2531 141.674 82.4521 141.566 86.4331 142.156C94.7291 143.385 105.404 136.137 109.909 126.218C110.942 123.943 111.797 121.294 111.809 120.331C111.822 119.305 112.594 118.581 113.676 118.581C118.512 118.581 121.231 109.868 118.463 103.243C117.04 99.8361 117.037 99.1071 118.435 95.6131C121.704 87.4441 118.194 82.6071 108.408 81.7961C103.941 81.4251 102.598 80.8751 101.289 78.8761C99.5461 76.2161 92.5731 72.5971 89.3311 72.6701C88.2311 72.6951 85.3491 73.3331 82.9261 74.0881ZM68.7771 77.1751C66.8821 79.1521 62.4061 82.1891 58.8311 83.9251C51.2001 87.6301 47.8311 91.8781 47.8311 97.7951C47.8311 102.713 48.9711 104.858 53.0791 107.662C56.2851 109.851 56.2771 109.829 52.5811 106.118C45.4771 98.9861 48.3401 90.4891 59.6891 85.0141C63.6241 83.1161 67.3721 80.3531 69.5221 77.7641C73.7861 72.6311 73.4151 72.3381 68.7771 77.1751ZM361.831 76.5811C361.831 78.2311 362.281 79.5811 362.831 79.5811C363.381 79.5811 363.831 78.2311 363.831 76.5811C363.831 74.9311 363.381 73.5811 362.831 73.5811C362.281 73.5811 361.831 74.9311 361.831 76.5811ZM336.914 75.8641C337.144 76.0201 338.231 76.8071 339.331 77.6141C341.181 78.9711 341.228 78.9501 339.959 77.3311C339.204 76.3681 338.116 75.5811 337.542 75.5811C336.968 75.5811 336.685 75.7081 336.914 75.8641ZM378.831 79.5811C378.831 81.2311 379.281 82.5811 379.831 82.5811C380.381 82.5811 380.831 81.2311 380.831 79.5811C380.831 77.9311 380.381 76.5811 379.831 76.5811C379.281 76.5811 378.831 77.9311 378.831 79.5811ZM341.831 81.0811C341.831 81.3561 342.056 81.5811 342.331 81.5811C342.606 81.5811 342.831 81.3561 342.831 81.0811C342.831 80.8061 342.606 80.5811 342.331 80.5811C342.056 80.5811 341.831 80.8061 341.831 81.0811ZM426.167 82.1481C425.836 83.0101 426.075 84.2251 426.698 84.8481C427.542 85.6921 427.831 85.2921 427.831 83.2811C427.831 80.2721 427.082 79.7631 426.167 82.1481ZM414.167 83.1481C413.836 84.0101 414.075 85.2251 414.698 85.8481C415.542 86.6921 415.831 86.2921 415.831 84.2811C415.831 81.2721 415.082 80.7631 414.167 83.1481ZM399.846 90.8901C399.837 93.1781 400.23 94.4521 400.831 94.0811C402.095 93.3001 402.095 90.5371 400.831 88.5811C400.111 87.4681 399.858 88.0621 399.846 90.8901ZM381.167 96.1481C380.836 97.0101 381.075 98.2251 381.698 98.8481C382.542 99.6921 382.831 99.2921 382.831 97.2811C382.831 94.2721 382.082 93.7631 381.167 96.1481ZM361.831 99.0811C361.831 100.456 362.281 101.581 362.831 101.581C363.381 101.581 363.831 100.456 363.831 99.0811C363.831 97.7061 363.381 96.5811 362.831 96.5811C362.281 96.5811 361.831 97.7061 361.831 99.0811ZM421.405 99.2481C421.053 100.165 421.23 101.38 421.798 101.948C422.509 102.659 422.831 102.138 422.831 100.281C422.831 97.1961 422.332 96.8341 421.405 99.2481ZM409.892 101.581C409.892 104.436 410.08 104.759 410.911 103.331C411.603 102.142 411.603 101.02 410.911 99.8311C410.08 98.4031 409.892 98.7261 409.892 101.581ZM439.436 100.167C439.102 101.039 439.265 102.502 439.799 103.417C440.572 104.741 440.776 104.416 440.801 101.831C440.834 98.2721 440.377 97.7151 439.436 100.167ZM87.8311 108.92C87.8311 111.579 88.3821 112.511 90.5341 113.492C94.5251 115.31 101.749 115.887 106.581 114.773L110.831 113.794L110.821 117.437C110.811 121.254 107.222 129.659 104.137 133.09C95.9851 142.157 86.0531 143.661 79.5891 136.808C75.8821 132.877 73.4701 123.581 76.1571 123.581C76.8861 123.581 78.5351 122.461 79.8211 121.091C82.0641 118.704 82.0881 118.522 80.4011 116.659C77.0711 112.979 80.8451 105.581 86.0541 105.581C87.4021 105.581 87.8311 106.387 87.8311 108.92ZM406.436 110.167C406.102 111.039 406.265 112.502 406.799 113.417C407.572 114.741 407.776 114.416 407.801 111.831C407.834 108.272 407.377 107.715 406.436 110.167ZM394.846 112.831C394.857 115.041 395.138 115.645 395.724 114.72C396.51 113.479 396.124 109.581 395.214 109.581C395.004 109.581 394.838 111.044 394.846 112.831ZM375.831 115.081C375.831 116.456 376.281 117.581 376.831 117.581C377.381 117.581 377.831 116.456 377.831 115.081C377.831 113.706 377.381 112.581 376.831 112.581C376.281 112.581 375.831 113.706 375.831 115.081ZM364.379 114.831C363.96 115.794 363.96 117.368 364.379 118.331C365.104 119.998 365.16 119.998 365.559 118.331C365.789 117.368 365.789 115.794 365.559 114.831C365.16 113.164 365.104 113.164 364.379 114.831ZM433.436 116.167C433.102 117.039 433.265 118.502 433.799 119.417C434.572 120.741 434.776 120.416 434.801 117.831C434.834 114.272 434.377 113.715 433.436 116.167ZM421.336 117.573C420.999 118.119 421.183 119.356 421.746 120.323C422.625 121.831 422.775 121.69 422.801 119.331C422.832 116.455 422.37 115.9 421.336 117.573ZM387.817 121.369L390.025 123.156L385.716 128.619C383.347 131.623 375.371 140.258 367.992 147.808L354.575 161.535L351.953 159.597C350.511 158.532 347.565 156.142 345.408 154.286L341.484 150.913L349.408 146.616C372.445 134.123 380.425 128.391 382.817 122.615C384.277 119.089 384.831 118.951 387.817 121.369ZM384.846 123.331C384.838 125.119 385.004 126.581 385.214 126.581C386.124 126.581 386.51 122.683 385.724 121.442C385.138 120.517 384.857 121.121 384.846 123.331ZM344.831 125.081C344.831 126.456 345.281 127.581 345.831 127.581C346.381 127.581 346.831 126.456 346.831 125.081C346.831 123.706 346.381 122.581 345.831 122.581C345.281 122.581 344.831 123.706 344.831 125.081ZM411.216 124.02C410.912 124.812 411.138 126.274 411.717 127.27C412.612 128.809 412.775 128.593 412.801 125.831C412.833 122.403 412.14 121.611 411.216 124.02ZM399.436 125.167C399.102 126.039 399.265 127.502 399.799 128.417C400.572 129.741 400.776 129.416 400.801 126.831C400.834 123.272 400.377 122.715 399.436 125.167ZM74.3051 128.296C75.2231 133.189 77.3091 137.102 80.0061 138.991C82.0101 140.395 82.0621 140.672 80.6291 142.302C78.5931 144.616 75.2981 151.32 74.4371 154.897C73.9711 156.835 73.2241 157.613 72.0451 157.392C70.0501 157.016 65.1351 148.198 62.3441 139.987L60.4031 134.277L62.8661 132.679C64.2211 131.8 66.9051 129.631 68.8301 127.858C70.7561 126.085 72.6181 124.623 72.9701 124.608C73.3211 124.593 73.9221 126.253 74.3051 128.296ZM461.224 131.081C461.558 131.906 462.078 133.189 462.381 133.932C462.749 134.836 460.913 136.243 456.837 138.182C451.334 140.8 450.799 141.323 451.321 143.581C451.639 144.956 452.455 149.583 453.134 153.864C453.813 158.145 454.698 161.632 455.1 161.614C462.976 161.259 463.831 161.536 463.831 164.451C463.831 168.751 458.271 186.626 454.211 195.376C449.069 206.459 444.205 221.54 441.879 233.609C438.819 249.483 432.797 288.881 433.347 289.43C434.279 290.362 434.652 289.006 436.2 279.081C444.18 227.908 446.058 219.338 452.851 203.081C464.133 176.083 467.455 162.602 466.527 147.581C465.991 138.907 463.454 129.581 461.63 129.581C461.073 129.581 460.89 130.256 461.224 131.081ZM356.299 133.682C355.932 134.837 356.127 136.277 356.732 136.882C357.531 137.681 357.831 137.107 357.831 134.781C357.831 131.087 357.254 130.673 356.299 133.682ZM61.7961 141.8C64.6711 149.806 69.3941 158.199 71.4731 158.997C72.3591 159.337 73.6891 159.114 74.4271 158.501C75.4951 157.615 76.3081 158.584 78.3931 163.234C81.8831 171.012 84.0851 183.487 83.3091 191.081C82.6151 197.865 80.0961 206.581 78.8291 206.581C75.7521 206.581 65.8511 190.049 61.4171 177.507C54.8541 158.943 31.7601 152.607 23.2971 167.049C18.3031 175.57 20.9481 187.11 32.4701 207.081C45.2351 229.207 58.4951 241.581 69.4411 241.581C71.6551 241.581 76.6571 247.088 75.4971 248.249C75.1931 248.552 66.4811 251.631 56.1381 255.089C45.7941 258.547 30.8741 263.898 22.9831 266.979C15.0911 270.06 8.2461 272.581 7.7721 272.581C5.0391 272.581 0.845096 247.98 0.837096 231.903C0.826096 212.036 5.0671 191.359 12.8181 173.489C18.0321 161.467 21.8131 155.712 28.5321 149.571C35.9571 142.785 55.6141 133.499 58.9361 135.208C59.2681 135.38 60.5561 138.346 61.7961 141.8ZM464.846 144.641C465.431 148.733 465.626 153.769 465.282 155.831C464.668 159.503 464.563 159.581 460.243 159.581C456.12 159.581 455.825 159.401 455.735 156.831C455.682 155.319 455.119 151.606 454.485 148.581L453.331 143.081L458.331 140.008C461.081 138.317 463.433 136.994 463.558 137.068C463.682 137.141 464.262 140.549 464.846 144.641ZM338.831 141.081C338.831 142.456 339.281 143.581 339.831 143.581C340.381 143.581 340.831 142.456 340.831 141.081C340.831 139.706 340.381 138.581 339.831 138.581C339.281 138.581 338.831 139.706 338.831 141.081ZM367.336 139.573C366.999 140.119 367.183 141.356 367.746 142.323C368.625 143.831 368.775 143.69 368.801 141.331C368.832 138.455 368.37 137.9 367.336 139.573ZM292.831 144.566C292.831 147.544 266.863 163.581 262.042 163.581C257.694 163.581 273.875 151.262 285.068 146.051C290.738 143.411 292.831 143.011 292.831 144.566ZM309.831 147.44C309.831 149.141 308.534 149.427 307.141 148.033C305.268 146.161 302.411 146.177 300.84 148.07C300.16 148.889 299.184 149.299 298.669 148.981C297.459 148.233 299.64 145.592 302.296 144.59C304.366 143.809 309.831 145.876 309.831 147.44ZM299.401 152.127C301.97 155.727 304.283 158.463 304.54 158.206C304.797 157.949 304.007 156.385 302.784 154.732C300.444 151.566 300.673 148.962 303.386 147.922C304.266 147.584 305.709 148.031 306.593 148.915C307.87 150.192 307.974 150.991 307.099 152.801C304.34 158.512 304.649 159.59 311.99 169.872L319.062 179.778L314.197 184.929L309.331 190.081L314.463 185.235C317.727 182.152 319.847 180.798 320.289 181.513C321.83 184.006 307.519 194.419 292.71 201.58C288.16 203.781 283.85 205.581 283.134 205.581C281.207 205.581 281.552 203.801 283.581 203.27C284.901 202.925 284.779 202.784 283.086 202.697C281.213 202.6 279.311 199.56 271.598 184.331C266.515 174.293 262.216 165.793 262.046 165.441C261.877 165.089 263.878 164.071 266.495 163.18C272.426 161.159 282.777 155.058 289.341 149.715C292.085 147.48 294.421 145.636 294.53 145.617C294.64 145.597 296.832 148.527 299.401 152.127ZM327.846 149.11C329.129 151.507 328.943 151.9 324.265 156.688C321.551 159.465 318.206 162.323 316.831 163.039C312.554 165.265 308.378 162.567 307.232 156.837C306.636 153.856 306.753 153.745 312.175 152.169C317.7 150.563 321.514 147.869 316.472 149.135C315.082 149.484 313.357 149.389 312.638 148.925C311.259 148.034 316.122 146.992 322.912 146.723C325.797 146.609 326.756 147.073 327.846 149.11ZM430.831 149.42C430.831 154.86 427.518 184.648 425.808 194.581C424.72 200.906 422.268 211.628 420.36 218.408C415.536 235.554 414.375 250.22 415.202 283.581C415.947 313.671 416.666 323.581 418.105 323.581C418.735 323.581 418.873 321.082 418.479 316.831C418.134 313.119 417.554 297.902 417.189 283.017C416.466 253.494 417.639 234.768 420.881 224.081C425.463 208.977 427.979 196.536 430.287 177.581C432.58 158.74 433.194 147.581 431.937 147.581C431.329 147.581 430.831 148.409 430.831 149.42ZM311.331 150.581C311.671 151.131 311.247 151.581 310.39 151.581C309.533 151.581 308.831 151.131 308.831 150.581C308.831 150.031 309.254 149.581 309.772 149.581C310.29 149.581 310.991 150.031 311.331 150.581ZM276.47 152.275C275.344 153.401 275.785 154.581 277.331 154.581C278.156 154.581 278.831 154.158 278.831 153.64C278.831 152.379 277.269 151.476 276.47 152.275ZM355.216 153.02C354.912 153.812 355.138 155.274 355.717 156.27C356.612 157.809 356.775 157.593 356.801 154.831C356.833 151.403 356.14 150.611 355.216 153.02ZM348.042 157.945L351.752 161.225L348.397 166.207C346.552 168.946 343.342 172.681 341.263 174.507C337.607 177.716 337.261 177.809 330.672 177.338C324.589 176.902 320.815 175.509 320.84 173.709C320.844 173.363 323.602 172.222 326.968 171.172C330.334 170.123 334.268 168.171 335.71 166.835C337.633 165.052 337.842 164.562 336.494 164.995C335.483 165.32 332.895 165.867 330.744 166.211C325.003 167.129 325.8 165.144 332.581 161.632C335.744 159.994 339.456 157.748 340.831 156.64C342.206 155.532 343.556 154.634 343.831 154.645C344.106 154.656 346.001 156.14 348.042 157.945ZM50.0261 164.15C55.4411 167.956 58.7501 173.015 62.2841 182.892C72.0671 210.236 92.6341 223.581 124.991 223.581H137.831V229.978V236.376L131.581 237.436C114.571 240.321 105.748 241.046 87.8311 241.031C63.9901 241.011 60.0931 239.907 50.9031 230.574C41.7191 221.246 29.7911 201.912 23.8931 186.794C19.9621 176.715 21.8641 167.455 28.8311 162.764C31.8321 160.744 33.2871 160.46 39.0381 160.775C44.5291 161.075 46.5211 161.687 50.0261 164.15ZM310.831 165.081C310.831 165.356 310.606 165.581 310.331 165.581C310.056 165.581 309.831 165.356 309.831 165.081C309.831 164.806 310.056 164.581 310.331 164.581C310.606 164.581 310.831 164.806 310.831 165.081ZM314.831 168.14C314.831 169.591 314.398 170.432 313.831 170.081C313.281 169.741 312.831 168.59 312.831 167.522C312.831 166.454 313.281 165.581 313.831 165.581C314.381 165.581 314.831 166.733 314.831 168.14ZM275.384 184.687C278.996 191.896 282.173 197.572 282.443 197.302C283.103 196.643 270.581 171.581 269.592 171.581C269.166 171.581 271.772 177.479 275.384 184.687ZM273.123 190.103C274.612 193.14 275.831 195.764 275.831 195.934C275.831 196.104 267.168 194.597 256.581 192.584C241.443 189.707 237.264 188.577 237.015 187.292C236.686 185.589 237.831 185.478 262.873 184.789L270.414 184.581L273.123 190.103ZM141.401 191.331C142.279 193.394 143.853 197.217 144.899 199.828L146.799 204.575L138.85 208.571C134.479 210.769 126.273 214.632 120.616 217.154C110.434 221.695 110.276 221.729 104.831 220.569C98.7641 219.276 86.6871 213.753 82.9181 210.549C80.5661 208.548 80.5421 208.381 81.9671 203.792C82.8061 201.091 84.0461 199.061 84.8801 199.027C85.6781 198.994 87.0061 198.674 87.8311 198.316C91.8191 196.587 132.663 187.927 138.068 187.665C139.164 187.612 140.393 188.964 141.401 191.331ZM227.081 190.243C226.394 190.521 225.831 191.385 225.831 192.164C225.831 194.303 229.61 193.863 230.831 191.581C231.719 189.923 231.597 189.594 230.116 189.66C229.134 189.703 227.769 189.966 227.081 190.243ZM306.703 191.331C305.46 192.917 305.495 192.952 307.081 191.709C308.043 190.954 308.831 190.166 308.831 189.959C308.831 189.136 308.01 189.665 306.703 191.331ZM215.498 191.248C213.956 192.789 214.914 194.708 217.071 194.401C219.902 193.997 220.796 190.581 218.071 190.581C217.022 190.581 215.864 190.881 215.498 191.248ZM229.331 191.581C228.991 192.131 228.263 192.581 227.713 192.581C227.163 192.581 226.991 192.131 227.331 191.581C227.671 191.031 228.399 190.581 228.949 190.581C229.499 190.581 229.671 191.031 229.331 191.581ZM218.331 192.581C217.991 193.131 217.263 193.581 216.713 193.581C216.163 193.581 215.991 193.131 216.331 192.581C216.671 192.031 217.399 191.581 217.949 191.581C218.499 191.581 218.671 192.031 218.331 192.581ZM303.236 193.736C302.793 194.451 302.961 194.619 303.676 194.176C304.311 193.784 304.831 193.265 304.831 193.022C304.831 192.188 303.948 192.583 303.236 193.736ZM299.272 196.136C297.408 197.63 297.42 197.648 299.581 196.601C300.819 196.001 301.831 195.301 301.831 195.046C301.831 194.281 301.312 194.502 299.272 196.136ZM210.402 197.152C208.574 198.981 208.411 200.203 209.875 201.108C211.337 202.012 213.831 199.711 213.831 197.459C213.831 195.169 212.504 195.051 210.402 197.152ZM221.031 196.781C219.442 198.37 219.5 200.581 221.131 200.581C221.846 200.581 222.971 200.041 223.631 199.381C225.22 197.792 225.162 195.581 223.531 195.581C222.816 195.581 221.691 196.121 221.031 196.781ZM228.796 197.123C226.839 199.481 228.945 200.89 231.622 199.015C232.837 198.164 233.831 197.043 233.831 196.524C233.831 195.007 230.193 195.44 228.796 197.123ZM222.811 198.105C222.115 198.943 221.286 199.369 220.967 199.051C220.649 198.733 221.051 198.054 221.86 197.542C223.977 196.203 224.254 196.367 222.811 198.105ZM231.831 197.581C231.831 198.131 231.354 198.581 230.772 198.581C230.19 198.581 229.991 198.131 230.331 197.581C230.671 197.031 231.147 196.581 231.39 196.581C231.633 196.581 231.831 197.031 231.831 197.581ZM212.831 198.022C212.831 198.265 212.381 198.741 211.831 199.081C211.281 199.421 210.831 199.222 210.831 198.64C210.831 198.058 211.281 197.581 211.831 197.581C212.381 197.581 212.831 197.779 212.831 198.022ZM295.831 198.081C295.831 198.356 296.056 198.581 296.331 198.581C296.606 198.581 296.831 198.356 296.831 198.081C296.831 197.806 296.606 197.581 296.331 197.581C296.056 197.581 295.831 197.806 295.831 198.081ZM291.831 199.581C291.006 200.114 290.781 200.55 291.331 200.55C291.881 200.55 293.006 200.114 293.831 199.581C294.656 199.048 294.881 198.612 294.331 198.612C293.781 198.612 292.656 199.048 291.831 199.581ZM224.573 201.706C222.451 202.893 222.254 206.581 224.312 206.581C225.126 206.581 226.081 205.435 226.432 204.034C227.213 200.921 226.831 200.442 224.573 201.706ZM286.831 201.581C286.006 202.114 285.781 202.55 286.331 202.55C286.881 202.55 288.006 202.114 288.831 201.581C289.656 201.048 289.881 200.612 289.331 200.612C288.781 200.612 287.656 201.048 286.831 201.581ZM155.195 206.221C156.386 214.907 156.101 216.581 153.433 216.581C152.113 216.581 148.626 217.844 145.683 219.388C140.624 222.041 139.564 222.205 126.331 222.371L112.331 222.546L116.331 220.555C118.531 219.461 126.519 215.662 134.081 212.114C142.597 208.119 147.831 205.103 147.831 204.192C147.831 202.904 149.403 202.211 153.445 201.717C154.058 201.642 154.845 203.669 155.195 206.221ZM215.031 202.781C214.371 203.441 213.831 204.566 213.831 205.281C213.831 206.912 216.042 206.97 217.631 205.381C219.22 203.792 219.162 201.581 217.531 201.581C216.816 201.581 215.691 202.121 215.031 202.781ZM205.774 204.688C205.018 206.101 204.977 207.127 205.651 207.801C207.139 209.289 208.831 207.81 208.831 205.022C208.831 202.023 207.29 201.855 205.774 204.688ZM217.193 204.081C216.876 204.906 216.16 205.581 215.602 205.581C215.016 205.581 215.113 204.946 215.831 204.081C216.516 203.256 217.232 202.581 217.422 202.581C217.612 202.581 217.509 203.256 217.193 204.081ZM225.014 204.798C224.297 205.515 223.831 205.574 223.831 204.948C223.831 204.379 224.131 203.614 224.498 203.248C224.864 202.881 225.397 202.814 225.681 203.098C225.965 203.382 225.665 204.147 225.014 204.798ZM231.031 203.781C229.376 205.436 229.525 207.581 231.296 207.581C232.576 207.581 234.831 204.752 234.831 203.147C234.831 202.126 232.257 202.555 231.031 203.781ZM207.498 206.248C207.131 206.614 206.831 206.314 206.831 205.581C206.831 204.848 207.131 204.548 207.498 204.914C207.864 205.281 207.864 205.881 207.498 206.248ZM232.831 205.022C232.831 205.265 232.381 205.741 231.831 206.081C231.281 206.421 230.831 206.222 230.831 205.64C230.831 205.058 231.281 204.581 231.831 204.581C232.381 204.581 232.831 204.779 232.831 205.022ZM220.031 208.781C218.575 210.237 218.459 213.233 219.827 214.078C221.231 214.946 223.447 209.797 222.204 208.554C221.573 207.923 220.809 208.003 220.031 208.781ZM211.031 209.781C209.528 211.284 209.488 213.251 210.943 214.15C212.232 214.947 213.793 212.871 213.816 210.331C213.834 208.295 212.734 208.078 211.031 209.781ZM212.831 211.081C212.831 211.906 212.395 212.581 211.862 212.581C211.33 212.581 211.153 211.906 211.469 211.081C211.786 210.256 212.222 209.581 212.438 209.581C212.654 209.581 212.831 210.256 212.831 211.081ZM226.498 210.248C225.515 211.231 225.687 215.581 226.709 215.581C227.191 215.581 228.142 214.912 228.82 214.094C230.782 211.73 228.611 208.134 226.498 210.248ZM221.831 211.022C221.831 211.265 221.381 211.741 220.831 212.081C220.281 212.421 219.831 212.222 219.831 211.64C219.831 211.058 220.281 210.581 220.831 210.581C221.381 210.581 221.831 210.779 221.831 211.022ZM202.678 214.017C201.488 216.629 202.096 219.581 203.824 219.581C205.241 219.581 206.921 214.98 206.196 213.09C205.346 210.876 203.94 211.247 202.678 214.017ZM228.193 213.081C227.876 213.906 227.44 214.581 227.224 214.581C227.008 214.581 226.831 213.906 226.831 213.081C226.831 212.256 227.267 211.581 227.8 211.581C228.332 211.581 228.509 212.256 228.193 213.081ZM205.816 214.331C205.807 214.744 205.382 215.743 204.87 216.552C203.718 218.374 202.366 217.234 203.176 215.124C203.774 213.566 205.844 212.944 205.816 214.331ZM208.538 218.353C206.437 220.674 206.285 224.581 208.296 224.581C210.385 224.581 211.967 221.123 211.033 218.598C210.263 216.516 210.205 216.51 208.538 218.353ZM216.399 218.787C214.578 221.387 214.4 223.196 215.875 224.108C217.458 225.086 219.831 222.632 219.831 220.018C219.831 216.732 218.239 216.161 216.399 218.787ZM153.238 218.831C152.847 219.519 151.808 220.935 150.929 221.979C149.39 223.807 149.486 223.853 153.567 223.219C155.897 222.858 159.379 221.81 161.305 220.892C163.23 219.974 165.083 219.499 165.421 219.837C166.444 220.86 161.565 229.627 158.571 232.147C155.158 235.018 149.912 236.568 143.581 236.575L138.831 236.581V230.159C138.831 223.805 138.866 223.724 142.081 222.638C143.868 222.034 146.456 220.659 147.831 219.582C150.664 217.365 154.365 216.85 153.238 218.831ZM223.486 219.039C222.701 221.082 223.785 223.763 225.204 223.29C225.824 223.083 226.331 221.864 226.331 220.581C226.331 217.861 224.35 216.787 223.486 219.039ZM155.831 219.974C155.831 220.74 155.146 221.63 154.308 221.952C153.065 222.428 152.98 222.172 153.843 220.558C155.084 218.24 155.831 218.021 155.831 219.974ZM209.831 221.081C209.831 222.456 209.381 223.581 208.831 223.581C207.714 223.581 207.46 220.285 208.498 219.248C209.6 218.145 209.831 218.463 209.831 221.081ZM218.831 219.499C218.831 221.361 217.597 223.555 216.82 223.074C215.8 222.444 216.77 218.581 217.948 218.581C218.433 218.581 218.831 218.994 218.831 219.499ZM225.514 221.769C225.195 222.566 224.958 222.329 224.91 221.164C224.867 220.11 225.103 219.52 225.435 219.852C225.767 220.184 225.803 221.047 225.514 221.769ZM200.031 224.781C198.609 226.203 198.437 230.219 199.763 231.039C201.161 231.903 203.684 227.733 203.104 225.516C202.52 223.283 201.72 223.092 200.031 224.781ZM200.925 228.887C199.619 230.193 199.437 228.746 200.551 225.913C201.246 224.146 201.285 224.147 201.645 225.937C201.851 226.958 201.526 228.286 200.925 228.887ZM222.811 228.619C221.511 231.048 222.411 234.581 224.331 234.581C226.047 234.581 227.168 231.219 226.331 228.581C225.518 226.02 224.194 226.035 222.811 228.619ZM205.031 229.781C204.371 230.441 203.831 232.274 203.831 233.854C203.831 236.05 204.243 236.649 205.581 236.396C206.804 236.164 207.424 234.938 207.641 232.323C207.96 228.478 207.136 227.676 205.031 229.781ZM213.413 230.141C211.424 232.131 211.686 236.081 213.807 236.081C215.758 236.081 217.598 230.948 216.162 229.512C215.416 228.766 214.602 228.953 213.413 230.141ZM225.225 231.998C224.729 233.289 224.351 233.423 223.784 232.506C222.773 230.868 223.811 228.161 224.997 229.347C225.492 229.842 225.594 231.035 225.225 231.998ZM205.925 234.887C205.133 235.679 204.831 235.419 204.831 233.948C204.831 231.304 206.229 229.901 206.675 232.098C206.864 233.03 206.526 234.286 205.925 234.887ZM215.831 232.022C215.831 233.523 214.036 235.119 213.241 234.324C212.543 233.627 213.924 230.581 214.938 230.581C215.429 230.581 215.831 231.229 215.831 232.022ZM199.031 234.781C197.343 236.469 197.488 241.581 199.224 241.581C200.836 241.581 201.831 239.451 201.831 235.999C201.831 233.346 200.88 232.932 199.031 234.781ZM199.925 239.887C199.133 240.679 198.831 240.419 198.831 238.948C198.831 236.304 200.229 234.901 200.675 237.098C200.864 238.03 200.526 239.286 199.925 239.887ZM221.866 238.515C220.442 241.176 220.57 243.119 222.261 244.523C224.38 246.282 226.164 242.586 224.856 239.146C223.687 236.072 223.226 235.975 221.866 238.515ZM212.52 240.372C210.399 242.716 210.294 246.581 212.352 246.581C214.437 246.581 216.307 242.254 215.131 240.152C214.288 238.647 214.064 238.666 212.52 240.372ZM223.831 241.281C223.831 243.138 223.509 243.659 222.798 242.948C222.23 242.38 222.053 241.165 222.405 240.248C223.332 237.834 223.831 238.196 223.831 241.281ZM204.258 240.346C201.338 242.346 202.174 247.431 205.23 246.258C206.211 245.882 206.831 244.469 206.831 242.612C206.831 239.549 206.215 239.007 204.258 240.346ZM204.925 244.887C204.133 245.679 203.831 245.419 203.831 243.948C203.831 241.304 205.229 239.901 205.675 242.098C205.864 243.03 205.526 244.286 204.925 244.887ZM214.12 243.582C213.833 244.681 213.2 245.581 212.714 245.581C211.683 245.581 211.586 244.384 212.436 242.169C213.291 239.941 214.752 241.167 214.12 243.582ZM85.3311 243.634L91.3311 243.715L87.2861 244.982C78.5701 247.712 77.2071 247.702 75.9321 244.903C74.8331 242.492 74.9041 242.368 77.0451 242.941C78.3021 243.278 82.0311 243.59 85.3311 243.634ZM165.831 243.081C165.831 243.356 166.056 243.581 166.331 243.581C166.606 243.581 166.831 243.356 166.831 243.081C166.831 242.806 166.606 242.581 166.331 242.581C166.056 242.581 165.831 242.806 165.831 243.081ZM465.831 244.339C465.831 245.492 479.014 247.305 494.124 248.23L504.831 248.885V257.104V265.323L500.081 265.928C493.979 266.705 471.981 268.455 455.331 269.487L442.331 270.294L455.331 270.408C466.607 270.507 485.809 269.179 504.903 266.98L510.475 266.338L514.234 272.001C518.104 277.832 518.185 277.865 523.581 275.837C524.269 275.578 524.831 276.042 524.831 276.867C524.831 278.499 522.791 279.581 519.714 279.581C518.043 279.581 517.922 279.883 518.878 281.669C519.979 283.726 521.515 283.791 526.238 281.978C527.259 281.587 527.831 281.906 527.831 282.867C527.831 284.492 525.793 285.581 522.749 285.581C521.488 285.581 520.831 286.277 520.831 287.612C520.831 290.205 523.281 291.153 526.359 289.75C528.066 288.972 528.951 288.967 529.423 289.731C530.268 291.098 528.016 292.546 525.014 292.566C523.285 292.577 522.824 293.025 523.2 294.331C523.477 295.293 524.258 298.01 524.936 300.368C526.609 306.183 530.079 309.801 533.594 309.396L536.331 309.081L536.134 293.081C535.958 278.799 533.571 246.988 532.603 246.02C532.397 245.814 529.733 245.352 526.683 244.993C522.453 244.496 520.268 244.754 517.472 246.081C514.318 247.578 512.034 247.726 501.069 247.143C488.621 246.48 475.593 245.187 469.081 243.967C467.21 243.617 465.831 243.774 465.831 244.339ZM535.149 251.831C535.476 254.718 536.24 264.731 536.848 274.081C538.744 303.236 539.064 306.343 539.887 303.581C540.981 299.908 540.964 283.989 539.85 268.581C538.456 249.299 537.996 246.581 536.132 246.581C534.822 246.581 534.656 247.467 535.149 251.831ZM516.948 251.831C518.285 255.027 518.84 262.906 517.8 263.945C517.509 264.237 514.921 264.661 512.05 264.887L506.831 265.299V256.94V248.581H511.21C515.204 248.581 515.708 248.866 516.948 251.831ZM133.331 256.303C125.096 258.319 83.3411 273.673 59.3731 283.499C53.8961 285.744 48.0461 287.567 46.3731 287.549C43.4811 287.519 39.5371 285.465 39.8391 284.147C39.9171 283.808 39.7581 282.98 39.4851 282.306C39.2121 281.632 38.9531 282.528 38.9101 284.296C38.8211 287.934 40.9081 289.581 45.6091 289.581C48.8491 289.581 53.5291 288.002 71.8311 280.733C78.7061 278.003 87.9311 274.341 92.3311 272.595C96.7311 270.85 108.358 266.721 118.169 263.421C137.504 256.916 144.763 255.943 150.77 259.049C157.679 262.622 158.319 268.039 152.516 273.812C149.158 277.151 122.082 296.63 100.081 311.533C93.3431 316.097 87.8311 320.263 87.8311 320.79C87.8311 322.287 89.3321 321.481 99.4361 314.554C152.198 278.381 158.831 272.984 158.831 266.227C158.831 259.806 152.076 255.53 142.195 255.697C138.42 255.761 134.431 256.033 133.331 256.303ZM124.831 275.081C124.831 275.356 125.056 275.581 125.331 275.581C125.606 275.581 125.831 275.356 125.831 275.081C125.831 274.806 125.606 274.581 125.331 274.581C125.056 274.581 124.831 274.806 124.831 275.081ZM195.831 277.081C195.831 277.356 196.056 277.581 196.331 277.581C196.606 277.581 196.831 277.356 196.831 277.081C196.831 276.806 196.606 276.581 196.331 276.581C196.056 276.581 195.831 276.806 195.831 277.081ZM120.331 279.899C116.308 282.207 96.3061 295.623 87.7171 301.776C85.1791 303.594 79.6661 307.5 75.4671 310.456C70.7781 313.757 67.8311 316.525 67.8311 317.628C67.8311 319.451 65.0201 320.715 57.8311 322.124C53.3711 322.999 44.3391 327.362 42.2801 329.637C40.9431 331.115 40.8801 332.05 41.8691 335.732C42.7651 339.071 44.7351 341.732 50.3461 347.185C54.9001 351.612 58.7811 356.512 60.6431 360.185C66.0341 370.823 73.3061 375.06 86.1351 375.038C90.4351 375.031 94.2511 374.556 94.6351 373.98C95.0181 373.405 96.1471 372.634 97.1451 372.265C98.4911 371.768 98.8781 370.754 98.6451 368.339C98.3641 365.424 97.6511 364.751 91.8311 361.906C88.2561 360.158 84.5361 357.933 83.5631 356.961C82.0391 355.437 76.8311 341.197 76.8311 338.552C76.8311 338.044 78.0041 336.859 79.4371 335.919C81.9431 334.278 82.1071 334.295 83.6871 336.358C85.3241 338.496 85.3881 338.463 98.8311 328.495C106.256 322.99 112.502 317.994 112.711 317.394C113.259 315.817 111.827 316.782 98.1701 327.194L86.0091 336.466L80.1701 329.866C76.9581 326.236 73.3141 321.893 72.0701 320.215C69.9251 317.319 69.9021 317.11 71.6201 316.122C72.6161 315.549 76.7831 312.578 80.8811 309.52C91.9101 301.287 107.112 290.786 117.581 284.168C122.669 280.952 126.831 278.155 126.831 277.951C126.831 276.964 123.935 277.832 120.331 279.899ZM196.857 278.581C196.855 278.856 197.517 281.27 198.328 283.945C199.14 286.62 200.056 292.965 200.365 298.045L200.926 307.28L190.591 307.948C173.611 309.046 162.692 311.254 158.849 314.365C156.284 316.442 156.766 320.061 160.082 323.62C161.649 325.302 163.12 330.606 166.003 344.969C168.757 358.689 170.327 364.442 171.568 365.361C177.84 370.008 205.303 372.153 220.831 369.209C233.857 366.739 233.532 367.193 238.13 345.031C241.207 330.201 242.574 325.486 244.444 323.264C251.582 314.782 243.774 310.444 217.577 308.339C203.672 307.222 202.835 307.036 203.035 305.117C203.597 299.744 200.257 283.384 197.822 279.581C197.294 278.756 196.86 278.306 196.857 278.581ZM200.831 311.648C200.831 314.188 200.51 314.614 198.963 314.123C197.936 313.797 193.474 314.674 189.048 316.072C181.317 318.514 180.817 318.553 176.373 317.044C170.934 315.197 168.548 315.712 167.022 319.062C166.021 321.257 165.608 321.399 162.928 320.465C158.691 318.988 157.391 317.164 159.248 315.306C162.103 312.452 180.477 309.165 196.081 308.717C200.745 308.583 200.831 308.637 200.831 311.648ZM229.588 310.668C237.677 311.901 245.235 314.727 245.607 316.658C245.784 317.578 244.456 318.866 242.242 319.922C239.116 321.413 238.346 321.466 236.957 320.292C234.363 318.098 227.6 315.274 224.853 315.237C223.466 315.219 219.631 315.799 216.331 316.526C211.153 317.668 209.837 317.641 206.729 316.328C203.663 315.033 203.165 314.381 203.38 311.944C203.519 310.369 203.677 308.915 203.732 308.712C203.878 308.168 222.346 309.565 229.588 310.668ZM404.91 316.234C404.867 317.969 405.727 323.819 406.822 329.234C407.916 334.65 408.816 340.718 408.822 342.719C408.83 346.087 408.405 346.61 403.081 349.781C398.226 352.672 397.39 353.585 397.71 355.643C398.368 359.876 398.352 360.074 397.331 360.426C396.781 360.615 395.9 359.378 395.374 357.676C394.848 355.974 393.821 354.581 393.093 354.581C391.096 354.581 390.371 357.524 391.579 360.724C392.17 362.291 392.295 363.794 391.856 364.066C390.623 364.828 388.858 362.176 388.611 359.189C388.439 357.114 387.925 356.566 386.36 356.79C384.649 357.035 384.361 357.748 384.52 361.331C384.761 366.743 382.239 367.275 381.254 362.021C380.763 359.403 380.187 358.614 379.08 359.039C378.251 359.357 375.617 360.11 373.226 360.712C367.732 362.095 363.626 366.027 364.032 369.516L364.331 372.081H380.831C405.629 372.081 426.589 370.68 428.365 368.904C430.07 367.199 430.456 354.085 428.831 353.081C427.579 352.307 427.532 341.718 428.749 334.515C430.571 323.733 430.839 320.581 429.938 320.581C429.433 320.581 428.64 323.843 428.176 327.831L427.331 335.081H418.331H409.331L407.596 325.126C405.609 313.724 405.021 311.78 404.91 316.234ZM75.6251 326.812C78.4881 330.239 80.8311 333.334 80.8311 333.691C80.8311 334.047 79.5141 334.884 77.9031 335.551C76.2931 336.218 74.1981 337.623 73.2481 338.672C68.8341 343.551 63.1961 338.324 62.4821 328.692C62.1101 323.669 62.2101 323.429 65.2131 322.111C66.9281 321.359 68.8011 320.707 69.3751 320.663C69.9491 320.618 72.7621 323.385 75.6251 326.812ZM187.969 325.697C207.549 327.291 231.32 325.28 243.331 321.013L245.331 320.303L243.331 322.398C240.473 325.392 231.408 327.476 215.504 328.795C195.407 330.462 170.19 328.054 162.035 323.69C157.721 321.381 159.938 320.962 166.991 322.754C170.928 323.754 180.369 325.078 187.969 325.697ZM96.8311 323.081C96.8311 323.356 97.0561 323.581 97.3311 323.581C97.6061 323.581 97.8311 323.356 97.8311 323.081C97.8311 322.806 97.6061 322.581 97.3311 322.581C97.0561 322.581 96.8311 322.806 96.8311 323.081ZM237.299 343.342C235.462 352.835 233.684 361.469 233.348 362.527C232.104 366.447 218.19 369.559 201.831 369.575C190.704 369.587 175.634 367.067 172.803 364.723C171.281 363.463 169.99 358.935 167.247 345.243C165.282 335.432 163.91 327.169 164.199 326.88C164.487 326.592 166.885 326.856 169.527 327.468C187.238 331.568 219.24 331.436 235.331 327.197C238.081 326.473 240.4 325.925 240.485 325.98C240.569 326.036 239.136 333.848 237.299 343.342ZM39.8711 338.381C39.8101 341.869 42.1381 345.565 47.8701 351.081C50.7281 353.831 54.6491 358.556 56.5831 361.581C58.5181 364.606 61.0531 368.153 62.2161 369.463C64.6531 372.208 73.3841 376.578 76.3311 376.527C77.5481 376.507 76.9151 375.987 74.7131 375.2C67.5691 372.647 64.2111 369.774 60.8491 363.338C59.0171 359.831 54.3871 353.785 50.3141 349.581C46.3171 345.456 42.3411 340.731 41.4791 339.081C40.0361 336.32 39.9081 336.264 39.8711 338.381ZM426.831 344.555C426.831 351.318 426.738 351.578 423.783 353.106C421.842 354.109 418.845 354.573 415.533 354.382L410.331 354.081L410.041 345.831L409.75 337.581H418.291H426.831V344.555ZM78.1241 347.332C82.2981 358.909 82.2271 358.581 80.5711 358.581C78.2111 358.581 71.9021 341.844 73.6151 340.13C74.8301 338.916 75.4441 339.897 78.1241 347.332ZM74.2501 349.081C75.4731 352.931 77.0201 357.093 77.6881 358.331C78.7921 360.378 78.6841 360.581 76.4891 360.581C73.1151 360.581 71.9891 358.822 70.3201 350.944C68.4721 342.222 68.4821 341.364 70.4281 341.758C71.4231 341.959 72.8641 344.719 74.2501 349.081ZM411.331 372.629C406.381 373.044 394.475 373.721 384.874 374.133C372.102 374.682 368.076 375.14 369.874 375.838C371.333 376.405 382.942 376.588 398.456 376.289C423.569 375.805 428.831 375.156 428.831 372.546C428.831 371.48 424.824 371.499 411.331 372.629ZM79.5811 377.243C80.2691 377.521 81.3941 377.521 82.0811 377.243C82.7691 376.966 82.2061 376.739 80.8311 376.739C79.4561 376.739 78.8941 376.966 79.5811 377.243Z" fill="#16314F"/>
</svg>
