<svg width="388" height="509" viewBox="0 0 388 509" fill="none" xmlns="http://www.w3.org/2000/svg">
<path d="M9.68951 160.202L12.7607 148.775L16.6687 153.397C39.6432 180.574 68.9439 201.553 95.3053 212.484C108.485 217.949 120.956 220.913 131.551 220.866C142.147 220.819 150.92 217.758 156.603 211.108C160.123 206.988 162.19 203.19 162.03 199.214C161.871 195.233 159.487 191.226 154.493 186.668C149.495 182.106 141.807 176.924 130.882 170.597C119.95 164.267 105.751 156.776 87.713 147.599C78.223 142.77 70.9286 138.943 65.3803 135.627C59.8277 132.307 56.0589 129.519 53.5957 126.777C51.1478 124.053 49.9871 121.372 49.6599 118.239C49.3299 115.079 49.8448 111.435 50.8067 106.776L50.317 106.675L50.8067 106.776C55.124 85.8569 68.7525 65.7878 110.175 19.6371L109.803 19.3031L110.175 19.637C112.998 16.4916 114.638 14.7743 115.809 13.9254C116.384 13.5083 116.806 13.3323 117.164 13.2816C117.516 13.2317 117.865 13.2949 118.317 13.4672C118.518 13.5437 118.827 13.616 119.199 13.6871C119.581 13.7601 120.063 13.8375 120.629 13.9181C121.761 14.0793 123.245 14.2553 124.975 14.4355C128.436 14.7959 132.896 15.174 137.52 15.4832L137.553 14.9845L137.52 15.4832C149.635 16.2932 159.249 17.5871 166.661 19.6971C174.075 21.8072 179.236 24.7197 182.503 28.7305C185.763 32.7321 187.191 37.8932 187.002 44.617C186.813 51.3508 185.004 59.6133 181.826 69.767C176.788 85.8632 175.388 98.6438 177.6 107.575C178.709 112.053 180.73 115.583 183.674 118.065C186.618 120.548 190.445 121.948 195.104 122.235C200.534 122.57 204.943 121.176 208.266 117.989C211.576 114.816 213.75 109.923 214.847 103.376C217.037 90.2922 214.96 70.3705 208.688 43.5795C208.426 42.4581 208.175 41.3983 207.939 40.3971C207.029 36.5445 206.324 33.5608 205.917 31.2878C205.66 29.8566 205.526 28.7345 205.529 27.8713C205.531 26.9981 205.674 26.4623 205.898 26.1411C206.102 25.8502 206.422 25.6659 206.989 25.6207C207.576 25.5739 208.373 25.683 209.435 25.9497C211.12 26.3726 213.342 27.1554 216.231 28.1729C216.984 28.4382 217.782 28.7194 218.628 29.0143C241.377 36.9463 253.81 45.6798 257.241 58.5058C258.96 64.9319 258.44 72.4507 255.737 81.5182C253.033 90.5862 248.156 101.167 241.202 113.698C224.586 143.641 215.598 166.508 214.353 181.924C213.73 189.637 215.038 195.571 218.393 199.58C221.758 203.6 227.092 205.58 234.276 205.58C240.082 205.58 245.505 201.931 250.315 195.62C255.131 189.302 259.394 180.238 262.879 169.214C269.85 147.161 273.74 117.152 272.644 85.2625C272.396 78.035 272.313 72.5647 272.625 68.6421C272.781 66.6809 273.034 65.1312 273.404 63.9534C273.775 62.7721 274.249 62.0139 274.81 61.5748C275.356 61.1484 276.045 60.976 276.964 61.0932C277.899 61.2123 279.046 61.6288 280.448 62.3582C283.254 63.817 286.938 66.448 291.763 70.1011C310.69 84.4334 322.178 98.8274 326.968 115.546C331.759 132.27 329.872 151.403 321.878 175.263L319.586 182.102L306.608 191.005C283.514 206.846 266.159 221.777 255.94 234.141C250.834 240.318 247.481 245.89 246.105 250.64C244.724 255.406 245.32 259.417 248.223 262.325C252.039 266.147 257.681 266.126 264.037 263.47C270.406 260.809 277.648 255.452 284.882 248.308C299.357 234.014 313.923 212.448 321.536 190.555C322.284 188.404 324.552 185.861 327.769 183.286C330.966 180.728 335.026 178.197 339.249 176.054C343.472 173.91 347.839 172.163 351.646 171.165C353.55 170.666 355.302 170.357 356.819 170.276C358.342 170.194 359.591 170.344 360.514 170.73C362.506 171.564 364.421 173.602 366.206 176.726C367.983 179.837 369.595 183.958 371.014 188.851C373.851 198.634 375.898 211.429 376.988 225.224C379.17 252.828 377.513 284.308 370.78 303.531C360.684 332.361 336.148 353.349 310.577 361.956C284.994 370.568 258.544 366.752 244.434 346.242C242.895 344.004 241.545 342.816 239.978 341.437C239.683 341.177 239.38 340.911 239.067 340.63C237.098 338.859 234.635 336.429 230.907 331.209L230.54 330.696L230.124 331.17C229.929 331.393 229.773 331.425 229.619 331.396C229.413 331.358 229.109 331.188 228.709 330.774C227.917 329.954 226.965 328.411 225.873 326.175C223.701 321.724 221.068 314.725 218.1 305.871C212.167 288.173 204.922 263.153 197.372 236.502C195.429 229.643 193.466 222.676 191.5 215.699C185.827 195.571 180.131 175.357 174.824 157.396C167.682 133.221 161.234 113.086 156.493 102.736C154.577 98.5534 153.101 95.6602 152.052 94.0087C151.789 93.5942 151.547 93.2496 151.327 92.9789C151.112 92.7146 150.897 92.4937 150.682 92.3534C150.478 92.2204 150.142 92.0804 149.801 92.2633C149.501 92.4243 149.387 92.744 149.336 92.973C149.224 93.4658 149.249 94.2377 149.363 95.2158C149.48 96.2153 149.699 97.4954 150.015 99.0432C150.647 102.14 151.676 106.339 153.079 111.566C158.693 132.473 170.34 169.944 186.813 219.486C192.464 236.48 197.289 251.412 201.479 264.426C201.978 265.977 202.469 267.501 202.951 268.999C206.511 280.06 209.597 289.65 212.339 297.863C215.452 307.186 218.125 314.746 220.549 320.68C222.919 326.481 225.062 330.76 227.164 333.618C220.08 367.309 193.748 388.049 159.882 390.063C125.924 392.082 84.3434 375.263 47.0649 333.634C32.8988 317.815 21.9916 304.802 14.3057 294.462C6.60468 284.102 2.18386 276.487 0.918929 271.448C0.286624 268.93 0.472608 267.173 1.28931 266.033C2.10134 264.899 3.64706 264.223 6.10775 264.131C11.041 263.946 19.1572 266.129 30.4925 270.643C53.043 279.623 57.4945 281.012 69.9466 282.919C93.7544 286.565 123.705 283.213 144.489 277.263C149.689 275.774 154.325 274.12 158.154 272.368C161.977 270.618 165.024 268.757 167.023 266.843C169.014 264.936 170.05 262.885 169.598 260.794C169.151 258.731 167.295 256.839 164.041 255.133C162.836 254.502 161.039 254.092 158.877 253.865C156.701 253.636 154.109 253.589 151.279 253.711C145.619 253.956 138.977 254.883 132.772 256.429C108.518 262.475 85.0014 260.256 49.222 248.472C27.0494 241.17 13.3594 233.491 6.39267 223.16C-0.552567 212.861 -0.892803 199.803 3.98357 181.509C5.29675 176.583 7.86434 166.995 9.68951 160.202ZM250.568 258.261C249.24 256.231 249.35 253.276 251.017 249.428C252.676 245.597 255.827 241.005 260.345 235.827C269.376 225.477 283.785 212.879 302.337 199.466C309.845 194.037 313.796 191.23 315.746 190.199C316.234 189.941 316.552 189.819 316.747 189.782C316.755 189.78 316.761 189.779 316.768 189.778C316.768 189.832 316.763 189.905 316.75 189.999C316.713 190.255 316.626 190.594 316.498 191.024C311.244 208.688 297.048 229.21 282.923 243.449C275.861 250.569 268.851 256.081 263.027 258.882C260.112 260.284 257.537 260.985 255.423 260.904C253.338 260.824 251.696 259.986 250.568 258.261ZM316.865 189.77C316.865 189.77 316.862 189.77 316.857 189.769C316.863 189.769 316.865 189.77 316.865 189.77Z" fill="#017260" stroke="#017260"/>
<path fill-rule="evenodd" clip-rule="evenodd" d="M110.876 10.2141C67.1566 57.9051 51.0246 83.3011 51.0246 104.433C51.0246 121.256 55.1426 124.619 107.025 150.16C144.074 168.4 153.905 174.552 159.104 182.75C173.114 204.841 135.954 216.984 102.122 201.369C74.3356 188.545 37.8126 160.328 22.6406 139.964C16.8196 132.151 15.9826 132.001 14.2566 138.464C13.5216 141.214 10.3566 152.464 7.22258 163.464C-4.16242 203.426 1.04258 218.925 31.0546 234.426C64.9486 251.931 107.733 258.746 138.025 251.464C172.994 243.058 185.621 253.689 152.718 263.835C111.459 276.557 73.5306 274.34 33.3786 256.858C-17.6274 234.651 -10.2464 260.155 56.0026 335.029C98.2826 382.814 154.214 409.901 188.525 399.209C213.211 391.517 234.658 364.572 231.853 344.777C231.192 340.115 229.579 342.663 228.412 350.213C222.897 385.881 189.692 405.653 152.025 395.698C111.102 384.882 81.5116 361.994 32.1336 302.964C-1.89342 262.286 -4.72442 244.13 24.8996 256.587C56.8736 270.031 63.2176 272.004 81.0246 274.041C120.529 278.562 180.906 263.654 173.945 251.099C170.073 244.114 156.944 243.234 137.025 248.623C116.527 254.169 95.3236 252.681 63.5246 243.463C7.99758 227.368 -3.42642 210.783 9.79558 165.464C12.5236 156.114 15.3046 146.13 15.9746 143.278L17.1936 138.091L24.4566 146.778C68.5226 199.48 143.927 228.53 162.775 200.066C172.575 185.266 161.14 173.964 111.067 148.96C65.7676 126.339 59.4246 122.488 56.0746 115.568C49.1776 101.321 58.9056 76.7341 83.6936 45.7611C90.2606 37.5541 120.876 2.96407 121.572 2.96407C121.75 2.96407 123.162 3.45407 124.71 4.05207C126.258 4.65107 136.075 5.52807 146.525 6.00107C191.854 8.05507 201.39 22.2631 186.435 65.4641C177.197 92.1501 183.814 112.964 201.535 112.964C221.461 112.964 225.753 86.5201 213.829 37.2151C207.741 12.0381 207.044 13.4641 222.835 18.7901C271.921 35.3441 276.33 55.5851 243.235 112.431C214.069 162.528 212.784 196.195 240.038 196.195C263.299 196.195 282.238 128.61 276.604 65.7061C274.877 46.4171 281.934 46.7821 305.892 67.2191C337.794 94.4321 343.281 120.45 327.405 169.228C325.932 173.756 325.225 174.405 313.19 182.289C269.328 211.021 242.948 242.331 253.614 252.997C268.086 267.469 307.946 228.878 325.537 183.363L328.282 176.262L342.997 167.613C368.846 152.42 374.411 157.724 381.661 204.464C394.239 285.549 370.057 339.291 313.958 354.927C283.086 363.532 247.588 349.017 244.021 326.33C240.888 306.406 232.734 279.76 218.511 242.964C213.728 230.589 203.392 203.13 195.544 181.944C156.621 76.8701 142.175 50.7621 167.082 130.506C201.829 241.749 227.624 312.999 239.175 329.639L242.525 334.464L242.873 351.045C243.774 394.051 234.686 451.184 220.067 494.417C215.8 507.037 215.326 509.364 217.152 508.755C219.69 507.909 230.407 473.456 235.44 449.964C241.919 419.718 245.996 383.165 246.015 355.136L246.025 339.809L250.997 344.158C293.138 381.023 367.79 350.591 382.951 290.367C392.417 252.765 385.095 175.508 370.634 160.417C363.686 153.165 360.521 153.746 339.744 166.083C331.06 171.239 329.867 171.707 330.437 169.731C346.452 114.177 340.697 91.4361 302.868 60.7931C278.945 41.4131 269.259 45.6721 274.095 73.4431C276.759 88.7451 270.88 140.903 263.936 163.575C255.83 190.036 240.726 200.598 228.489 188.362C217.468 177.34 223.792 151.635 247.535 110.948C274.886 64.0761 273.928 39.5811 244.138 24.0841C233.283 18.4371 205.025 9.27207 205.025 11.3991C205.025 12.7551 208.552 28.3101 211.521 40.0511C222.635 83.9911 217.964 112.432 200.102 109.58C184.839 107.143 180.706 90.2721 189.395 65.8741C205.248 21.3591 192.054 3.06207 144.025 2.95607C138.25 2.94307 130.825 2.28107 127.525 1.48407C124.225 0.687074 121.243 0.019065 120.898 6.50136e-05C120.554 -0.019935 116.043 4.57707 110.876 10.2141ZM171.879 128.079C175.676 137.641 183.614 158.514 189.517 174.464C195.42 190.414 206.003 218.539 213.034 236.964C227.473 274.802 232.805 290.672 236.989 308.272C241.662 327.925 241.588 328.648 236.043 317.464C223.12 291.397 202.017 231.79 172.496 137.964C167.91 123.389 163.869 110.564 163.516 109.464C161.511 103.218 165.768 112.694 171.879 128.079ZM321.934 184.195C307.591 220.584 280.12 251.571 261.566 252.289C244.188 252.962 258.116 228.493 289.45 203.302C299.75 195.02 322.371 178.964 323.737 178.964C323.879 178.964 323.068 181.318 321.934 184.195Z" fill="#16314F"/>
</svg>
