<svg xmlns="http://www.w3.org/2000/svg" version="1.0" width="300.000000pt" height="84.000000pt" viewBox="0 0 300.000000 84.000000" preserveAspectRatio="xMidYMid meet">
<metadata>
Created by potrace 1.10, written by Peter Selinger 2001-2011
</metadata>
<g transform="translate(0.000000,84.000000) scale(0.100000,-0.100000)" fill="#017260" stroke="none">
<path d="M295 738 c-4 -18 -10 -37 -14 -43 -15 -25 -32 -85 -37 -137 -7 -61 -18 -74 -28 -35 -9 36 -136 98 -136 67 0 -5 10 -12 23 -15 52 -14 103 -131 78 -178 -9 -17 -8 -41 4 -112 26 -143 27 -149 38 -163 14 -18 212 -15 231 4 8 7 19 46 26 86 6 40 16 92 22 116 8 33 8 49 -2 67 -11 20 -10 30 8 67 33 67 67 97 125 112 33 8 36 26 5 26 -49 0 -178 -81 -178 -112 0 -4 -5 -8 -10 -8 -6 0 -8 20 -4 53 10 86 -24 227 -55 227 -9 0 -11 -5 -5 -17 24 -54 10 -249 -23 -315 -19 -40 -49 -37 -52 5 -12 186 -11 238 3 282 19 56 19 55 2 55 -8 0 -17 -14 -21 -32z m135 -174 c0 -90 -17 -164 -37 -164 -17 0 -16 16 2 65 8 22 14 75 15 118 0 50 4 76 10 72 6 -3 10 -44 10 -91z m-142 -48 c1 -94 -1 -116 -13 -116 -22 0 -29 82 -14 165 7 41 16 72 19 70 3 -2 7 -56 8 -119z m-83 -1 c33 -42 46 -115 21 -115 -11 0 -16 9 -16 29 0 33 -27 102 -44 113 -8 6 -8 8 1 8 7 0 24 -16 38 -35z m290 -40 c-14 -26 -25 -54 -25 -61 0 -8 -7 -14 -15 -14 -22 0 -18 25 11 73 47 73 68 75 29 2z m-9 -117 c-4 -13 -13 -61 -21 -108 -20 -124 -10 -115 -124 -115 -55 0 -103 4 -108 8 -4 5 -14 45 -21 90 -7 45 -15 97 -18 115 l-6 32 152 0 152 0 -6 -22z"/>
<path d="M363 703 c-7 -3 -13 -16 -13 -29 0 -14 -4 -33 -9 -42 -15 -29 -25 -132 -12 -132 6 0 11 9 11 20 0 11 5 20 10 20 6 0 10 17 10 38 0 20 5 57 11 81 11 48 10 50 -8 44z"/>
<path d="M343 455 c0 -22 2 -30 4 -17 2 12 2 30 0 40 -3 9 -5 -1 -4 -23z"/>
<path d="M1652 482 c-9 -3 -12 -56 -12 -183 l0 -179 55 0 55 0 0 74 c0 55 -4 77 -16 87 -14 11 -15 6 -12 -55 3 -69 -6 -87 -41 -81 -14 2 -16 23 -19 158 l-3 157 26 0 c25 0 33 -6 93 -73 18 -20 37 -37 42 -37 15 0 30 36 30 74 0 33 2 36 29 36 29 0 29 -1 31 -62 3 -134 0 -242 -7 -249 -5 -5 -18 -6 -31 -3 -16 5 -22 14 -22 34 0 29 -71 132 -78 112 -3 -11 36 -74 51 -80 4 -2 7 -24 7 -48 l0 -45 53 3 52 3 3 168 c3 169 -4 210 -32 188 -14 -10 -46 -10 -46 0 0 5 -7 6 -15 3 -11 -5 -15 -22 -15 -65 0 -32 -4 -59 -8 -59 -4 0 -15 12 -25 28 -44 72 -101 109 -145 94z"/>
<path d="M630 295 l0 -180 50 -2 c32 -1 50 3 51 10 0 7 1 32 2 57 l2 45 55 -3 c49 -3 59 -1 83 24 25 24 27 33 27 103 0 90 -18 120 -73 122 -18 1 -69 2 -114 3 l-83 2 0 -181z m213 151 c12 13 31 -45 32 -98 2 -76 -14 -96 -84 -104 -66 -8 -81 -21 -81 -69 0 -34 -2 -36 -27 -33 l-28 3 -1 152 0 152 70 3 c39 2 81 0 92 -4 12 -4 24 -4 27 -2z"/>
<path d="M735 400 c3 -5 15 -10 25 -10 35 0 50 -12 50 -39 0 -35 -17 -51 -53 -51 -16 0 -26 -4 -22 -10 9 -15 52 -12 69 6 23 23 21 91 -3 104 -25 13 -74 13 -66 0z"/>
<path d="M710 345 c0 -28 4 -44 10 -40 6 3 10 21 10 40 0 19 -4 37 -10 40 -6 4 -10 -12 -10 -40z"/>
<path d="M959 472 c-3 -20 1 -346 5 -349 2 -2 63 -5 135 -6 l131 -2 0 100 0 101 -45 -1 c-51 0 -61 -14 -50 -71 l6 -34 -43 0 -43 0 3 134 3 135 -50 -1 c-28 0 -51 -3 -52 -6z m79 -136 c1 -69 7 -125 13 -133 6 -7 29 -13 50 -13 38 0 39 1 50 45 13 50 20 58 44 49 13 -5 15 -19 13 -73 l-3 -66 -112 -3 -113 -3 0 155 c0 158 2 168 40 163 12 -2 15 -24 18 -121z"/>
<path d="M1335 443 c-9 -20 -18 -48 -22 -62 -3 -14 -10 -32 -16 -39 -14 -18 -22 -199 -9 -214 7 -9 27 -12 57 -10 l47 4 -5 44 -5 44 49 0 c27 0 49 5 49 10 0 6 -20 10 -44 10 -49 0 -76 -24 -76 -66 0 -16 -6 -21 -22 -20 -22 1 -23 6 -26 80 -3 83 23 190 55 221 18 19 116 20 131 3 24 -30 62 -167 62 -224 0 -67 -6 -79 -37 -81 -23 -2 -28 9 -23 52 2 16 0 17 -14 6 -18 -16 -21 -66 -4 -77 6 -4 30 -7 52 -7 l41 0 1 79 c1 77 -11 159 -26 179 -4 6 -11 26 -15 45 -12 55 -20 60 -106 60 l-79 0 -15 -37z"/>
<path d="M1989 472 c-3 -24 -1 -84 3 -87 3 -3 19 0 37 6 27 9 35 9 43 -2 5 -8 7 -70 5 -141 l-4 -128 44 0 c23 0 46 -1 51 -2 10 -4 13 203 2 238 -6 22 -9 6 -10 -66 -1 -52 -2 -99 -1 -103 3 -17 -19 -45 -34 -43 -25 4 -27 12 -26 112 2 120 -10 154 -55 154 -24 0 -33 5 -37 21 -7 28 3 30 129 27 104 -3 109 -4 112 -25 3 -20 -1 -23 -27 -23 -17 0 -31 -4 -31 -9 0 -11 25 -21 56 -21 22 0 24 4 24 48 l0 47 -140 2 c-77 2 -140 -1 -141 -5z"/>
<path d="M2320 301 c0 -108 4 -181 10 -183 5 -1 68 -2 140 0 l131 3 -3 92 -3 92 -50 0 -50 0 0 -39 c0 -23 5 -41 13 -44 8 -2 12 8 12 33 0 33 2 35 28 32 26 -3 27 -6 30 -67 2 -35 -1 -67 -7 -73 -6 -6 -56 -12 -111 -13 -90 -2 -101 0 -111 17 -12 23 -10 287 2 295 15 9 49 13 50 6 1 -4 2 -54 4 -112 3 -141 6 -150 56 -150 21 0 39 5 39 10 0 6 -18 10 -40 10 l-40 0 2 133 3 132 -52 3 -53 3 0 -180z"/>
<path d="M2623 473 c-11 -4 1 -163 13 -171 5 -4 24 -28 42 -54 24 -35 32 -57 32 -90 l0 -43 53 1 52 2 5 43 c4 37 28 89 50 109 28 26 40 66 40 133 l0 73 -47 -3 c-27 -1 -50 -2 -53 -2 -4 -1 -4 -17 -2 -37 5 -39 -15 -124 -29 -124 -5 0 -9 -5 -9 -11 0 -8 5 -7 16 1 24 21 36 50 43 104 5 46 8 51 31 51 23 0 25 -4 28 -56 3 -53 0 -62 -43 -127 -32 -51 -45 -81 -45 -107 0 -35 -1 -36 -32 -33 -28 3 -33 7 -36 33 -3 38 -18 70 -56 118 -24 32 -30 51 -34 105 l-4 67 31 1 c31 2 31 1 31 -48 0 -34 6 -59 21 -79 25 -36 41 -38 26 -4 -7 14 -16 25 -20 25 -5 0 -7 28 -6 62 l3 62 -46 1 c-26 0 -50 -1 -55 -2z"/>
<path d="M1413 402 c-13 -8 -43 -73 -43 -92 0 -19 30 17 30 37 1 29 24 55 38 41 7 -7 12 -20 12 -29 0 -10 5 -21 10 -24 6 -3 10 -13 10 -21 0 -10 -12 -14 -42 -14 -32 0 -39 -3 -30 -12 14 -14 65 -21 57 -7 -4 5 1 9 11 9 35 0 0 118 -36 120 -3 0 -10 -4 -17 -8z"/>
</g>
</svg>