<svg enable-background="new 0 0 283.465 283.465" height="512" viewBox="0 0 283.465 283.465" width="512" xmlns="http://www.w3.org/2000/svg"><g id="Layer_1_11_"><g clip-rule="evenodd" fill-rule="evenodd"><path d="m140.985 200.255c-1.914-.605-4.479.044-6.822 1.466-8.616 5.23-5.754 15.631-24.37 23.101-16.833 6.756-39.182.072-52.03-11.92-13.278-12.392-19.744-31.934-21.411-49.555-.334-3.539 2.573-2.886 3.647-2.444.068.036 22.596 12.165 55.233 10.863-9.401-1.018-20.328-2.785-30.182-5.857-24.212-7.547-27.554-13.715-27.564-13.732-.273-.478-.371-1.009-.314-1.518 1.272-20.87 10.985-42.405 23.781-58.732.848-1.085 2.416-1.278 3.501-.43.257.2.464.441.618.706.656 1.066 11.996 19.057 35.662 27.931l4.936 1.857c-12.257-8.812-27.792-22.046-37.102-37.793-.472-.799-.448-1.754-.021-2.507 8.555-16.258 20.261-32.067 35.126-43.071 1.107-.82 2.671-.588 3.491.518.22.297.364.627.437.966.274 1.112 4.17 16.173 16.513 27.575-5.917-11.873-11.34-24.349-9.702-37.802.038-.582.453-1.317.899-1.642 5.39-4.415 9.938-7.744 14.107-10.001 8.699-4.709 15.937-4.709 24.636 0 4.169 2.257 8.718 5.586 14.107 10.001.537.439.843 1.054.905 1.694 1.617 13.433-3.798 25.892-9.708 37.75 12.8-11.826 16.516-27.589 16.529-27.642.426-1.765 2.542-2.48 3.95-1.389 14.869 11.019 26.574 26.842 35.126 43.114.485.921.237 2.181-.083 2.459-9.31 15.747-24.821 28.957-37.078 37.768l4.936-1.857c24.359-9.134 35.661-27.929 35.694-27.982.724-1.172 2.261-1.535 3.433-.812.275.17.505.385.688.629 12.801 16.349 22.519 37.926 23.756 58.819.007.125.092.813-.322 1.388-.01.017-3.351 6.185-27.564 13.732-9.854 3.072-20.781 4.84-30.182 5.857 32.636 1.302 55.165-10.827 55.233-10.863 1.815-.956 3.914.567 3.637 2.552-1.669 17.586-8.157 37.087-21.401 49.447-12.847 11.993-35.198 18.677-52.03 11.92-18.615-7.47-15.754-17.87-24.37-23.101-2.342-1.422-4.907-2.071-6.821-1.466-.507.163-1.031.153-1.504.003zm-9.403-2.797c3.246-1.971 6.98-2.886 10.156-2.177 3.176-.709 6.909.206 10.156 2.177 10.279 6.24 5.972 15.637 23.647 22.729 14.991 6.017 35.371-.303 46.769-10.943 11.458-10.694 17.114-26.822 19.307-41.967-21.335 9.14-53.748 13.175-77.275 5.808-1.131-.241-1.98-1.245-1.98-2.448 0-1.382 1.121-2.504 2.504-2.504.084 0 29.198.134 52.076-6.999 18.076-5.634 23.075-9.643 24.325-10.968-1.33-18.512-9.692-37.598-20.612-52.454-4.436 5.98-16.239 19.618-36.173 27.094-1.846.692-12.737 5.673-20.553 7.651-1.669.422-7.04 1.738-7.788-.084-.333-.812-.3-2.376.962-3.063.105-.057 36.028-19.321 52.783-46.466-7.601-14.165-17.654-27.888-30.233-38.033-2.477 7.219-9.625 23.589-25.836 33.201-.72.488-1.676.588-2.511.175-1.236-.61-1.744-2.108-1.134-3.344.852-1.729 1.733-3.468 2.619-5.217 6.156-12.16 12.631-24.95 11.411-38.167-4.824-3.915-8.885-6.863-12.512-8.826-7.214-3.905-12.688-3.905-19.902 0-3.627 1.962-7.687 4.91-12.512 8.826-1.219 13.217 5.255 26.008 11.411 38.167.885 1.749 1.766 3.489 2.619 5.217.464 1.089.045 2.139-.088 2.366-.696 1.188-2.224 1.586-3.412.89-16.314-9.6-23.497-26.048-25.981-33.287-12.58 10.145-22.633 23.868-30.233 38.033 11.908 19.293 33.5 34.605 45.032 41.87.998.628 8.099 4.295 8.787 5.672 1.764 3.529-2.173 3.464-4.246 2.929-7.037-1.814-23.104-8.109-24.168-8.508-19.934-7.475-31.737-21.114-36.173-27.094-10.92 14.856-19.281 33.942-20.612 52.454 1.25 1.326 6.249 5.332 24.326 10.967 22.878 7.133 51.992 6.999 52.076 6.999 1.631.257 2.204 1.206 2.376 1.75.415 1.312-.311 2.714-1.623 3.13-23.293 7.411-55.714 3.599-77.505-5.736 2.192 15.141 7.85 31.275 19.306 41.967 11.4 10.639 31.776 16.961 46.769 10.943 17.673-7.093 13.366-16.49 23.645-22.73z"/><path d="m139.234 98.208c0-1.382 1.121-2.503 2.504-2.503s2.503 1.121 2.503 2.503v168.051c0 1.383-1.121 2.504-2.503 2.504s-2.504-1.121-2.504-2.504z"/></g></g></svg>