<svg width="690" height="602" viewBox="0 0 690 602" fill="none" xmlns="http://www.w3.org/2000/svg">
<path fill-rule="evenodd" clip-rule="evenodd" d="M352.544 1.08428C413.941 3.25854 457.737 55.491 510.546 86.8835C570.525 122.539 657.406 132.031 682.407 197.175C707.394 262.28 653.502 328.924 628.409 393.988C604.931 454.865 595.843 528.389 541.023 563.772C486.86 598.73 416.854 567.575 352.544 572.041C281.167 576.996 209.338 620.585 144.04 591.335C74.7064 560.278 23.9479 490.759 6.18576 416.893C-11.0044 345.405 17.2254 271.584 51.511 206.542C81.4642 149.719 133.142 111.608 186.198 75.3972C237.617 40.3031 290.329 -1.11897 352.544 1.08428Z" fill="black" stroke="black"/>
</svg>
