<svg width="589" height="544" viewBox="0 0 589 544" fill="none" xmlns="http://www.w3.org/2000/svg">
<path fill-rule="evenodd" clip-rule="evenodd" d="M320.208 57.029C369.829 70.1404 417.783 81.0665 461.536 107.896C508.915 136.949 563.561 164.921 581.779 217.427C600.101 270.232 574.15 326.176 555.562 378.888C537.455 430.237 520.792 485.881 476.132 517.027C431.828 547.924 374.221 542.642 320.208 543.022C265.774 543.405 212.626 540.888 162.683 519.231C101.225 492.582 19.014 470.528 3.01345 405.48C-13.1588 339.733 72.856 293.174 91.0355 227.954C110.623 157.683 53.2492 59.0788 111.726 15.465C169.954 -27.9632 249.979 38.4723 320.208 57.029Z" stroke="white"/>
</svg>
