<svg width="419" height="361" viewBox="0 0 419 361" fill="none" xmlns="http://www.w3.org/2000/svg">
<path fill-rule="evenodd" clip-rule="evenodd" d="M297.648 51.5002C283.745 59.3472 279.152 91.362 289.02 111.654C296.437 126.908 315.62 137.543 324.839 131.515C342.698 119.838 315.963 41.1654 297.648 51.5002ZM384.553 56.3393C359.513 65.6888 343.337 112.327 358.781 130.642C369.176 142.969 394.55 120.481 401.737 92.5725C406.659 73.4581 396.436 51.9017 384.553 56.3393ZM324.683 152.804C317.981 153.748 309.417 157.053 309.417 158.697C309.417 165.656 334.887 177.005 341.397 172.948C342.463 172.284 347.7 170.609 353.037 169.225C385.386 160.837 362.356 147.499 324.683 152.804ZM350.351 201.559C343.816 202.519 341.906 203.936 339.442 209.653C333.997 222.28 331.73 253.994 334.886 273.365C338.281 294.21 337.853 300.591 332.839 303.87C328.805 306.508 322.468 302.583 316.285 293.614C312.657 288.353 311.893 288.668 310.366 296.048C305.697 318.609 302.991 321.294 278.466 327.69C262.432 331.873 259.05 334.117 255.533 342.914C253.669 347.576 255.069 348.512 264.271 348.754C269.965 348.905 270.934 348.77 267.983 348.239C253.864 345.7 260.824 342.122 281.86 341.107C325.257 339.011 355.508 317.597 361.738 284.561L363.103 277.326L353.981 277.931C333.038 279.322 340.821 269.155 365.982 262.257C388.497 256.084 387.521 204.83 364.828 201.652C357.235 200.589 356.976 200.587 350.351 201.559Z" fill="#F3E7E2"/>
<path fill-rule="evenodd" clip-rule="evenodd" d="M387.93 12.724C385.185 13.8321 379.795 16.9648 375.952 19.6856C360.679 30.5011 356.152 32.0839 336.983 33.3116C325.075 34.0756 322.373 33.16 310.573 24.3693C301.613 17.6929 297.967 16.7215 281.878 16.7215C269.516 16.7215 268.389 17.6071 278.134 19.6657C292.544 22.7087 301.59 30.0004 301.59 38.5737C301.59 43.2154 301.842 43.6752 306.537 47.6029C335.95 72.2098 341.619 136.405 314.378 136.405C289.695 136.405 271.687 87.8694 285.73 59.1952C288.884 52.7552 288.807 51.2642 285.473 54.2114C258.64 77.9387 265.201 142.084 296.897 165.892C304.448 171.563 304.477 171.985 297.598 175.963C279.521 186.414 280.236 185.297 279.79 203.801C279.251 226.176 281.98 233.494 298.272 253.367C312.171 270.319 313.952 273.088 312.131 274.907C308.663 278.372 298.086 270.038 280.331 249.854C263.905 231.18 262.438 230.155 252.128 230.163C232.465 230.176 232.921 228.952 230.808 287.506C229.832 314.509 229.133 318.923 225.827 318.923C219.377 318.923 218.581 314.065 217.822 270.052C217.002 222.55 217.579 224.262 201.038 220.326C181.1 215.583 182.291 214.211 173.814 251.682C164.955 290.844 160.234 299.994 154.557 289.002C151.781 283.626 152.61 277.233 161.317 236.886C166.264 213.957 165.462 212.68 143.883 209.115C110.787 203.647 109.447 205.146 109.447 247.652C109.447 280.47 109.024 283.018 103.57 283.018C96.9981 283.018 93.6383 276.073 89.5779 254.094C82.9222 218.062 82.7226 217.719 71.4775 223.035C57.4975 229.644 47.54 243.031 46.3881 256.768L45.7962 263.818L51.8989 276.161C65.7122 304.098 61.1038 309.607 43.7819 285.864C26.9901 262.846 16.1942 269.678 12.0579 305.942C7.131 349.12 18.6915 355.931 62.035 335.386C84.8467 324.574 84.4115 324.522 81.0557 337.656C76.2087 356.623 78.4975 357.164 96.4711 341.297C112.48 327.165 118.869 324.203 135.46 323.225C154.225 322.118 156.144 324.135 152.737 341.37C149.091 359.809 150.111 359.925 166.722 342.962C181.907 327.453 182.911 327.006 204.355 326.182C226.169 325.342 227.029 325.885 229.285 341.958C232.258 363.123 238.692 362.725 251.001 340.614C257.061 329.729 260.645 326.551 269.902 323.85C299.117 315.327 300.722 314.108 305.031 297.189C309.065 281.345 309.661 281.127 320.555 291.495C324.877 295.609 328.802 298.975 329.276 298.975C332.948 298.975 333.392 292.457 330.819 276.315C322.703 225.395 335.014 190.58 359.483 195.257C378.535 198.898 381.889 204.341 381.92 231.653C381.949 257.611 382.312 257.081 358.235 266.155C345.818 270.836 344.959 272.047 354.059 272.047C365.292 272.047 366.054 273.456 362.478 287.595C357.22 308.381 349.648 316.803 322.302 332.281C316.506 335.562 316.477 335.925 321.803 338.645C324.135 339.836 330.267 343.517 335.427 346.822C349.628 355.92 352.161 355.314 348.516 343.696C345.141 332.939 345.905 331.156 360.81 315.015C372.991 301.823 375.694 297.353 377.862 286.809C380.789 272.579 379.946 273.171 398.909 272.065C420.376 270.812 420.944 269.834 405.569 260.585C389.185 250.727 389.105 250.534 396.539 239.089C407.48 222.243 410.947 201.611 405.132 187.933C402.263 181.186 402.502 181.23 360.98 179.775C325.909 178.548 315.419 177.489 313.894 175.022C313.481 174.355 314.103 174.237 315.658 174.689C316.979 175.072 322.551 175.602 328.041 175.864L338.022 176.343L330.69 174.293C295.564 164.475 297.225 149.845 333.603 148.645C369.256 147.469 385.414 156.783 365.206 166.863L357.985 170.464L362.425 169.848C400.204 164.602 427.487 94.1698 403.766 63.1278C399.414 57.4319 398.531 57.8548 401.398 64.2628C414.211 92.9011 378.677 149.499 358.059 133.292C339.491 118.699 357.614 51.6292 380.126 51.6292C384.171 51.6292 385.266 49.6554 383.003 46.4389C374.098 33.7794 384.686 18.3073 404.722 14.7018C413.575 13.108 412.165 11.6529 401.25 11.1173C394.536 10.7882 391.952 11.0993 387.93 12.724Z" fill="#017260"/>
<path fill-rule="evenodd" clip-rule="evenodd" d="M389.69 0.449719C380.877 2.06122 374.841 5.43172 364.812 14.3432C356.621 21.6207 352.914 22.9527 340.812 22.9672C337.374 22.9712 333.212 23.1857 331.562 23.4442C320.042 25.2462 318.717 24.9087 313.029 18.7242C303.735 8.61822 296.362 5.96722 277.55 5.96722C264.802 5.96722 259.63 7.28122 257.294 11.1122C255.105 14.7027 256.18 15.9427 261.062 15.4607C274.504 14.1342 289.312 19.6262 293.283 27.4117C295.653 32.0562 293.476 38.7122 289.245 39.7602C264.872 45.7957 251.745 83.5787 262.422 116.967C274.887 155.952 293.1 173.042 324.806 175.506C331.575 176.032 335.16 175.973 361.062 174.912C391.956 173.646 399.024 174.611 401.893 180.489C409.769 196.623 403.828 225.876 389.959 239.252C384.195 244.811 385.254 247.053 396.32 252.721C407.392 258.393 414.312 264.026 414.312 267.367C414.312 268.892 402.153 269.395 394.062 268.204C379.65 266.083 375.573 269.07 374.588 282.467C373.887 292.007 373.112 294.193 368.355 300.046C365.296 303.809 364.814 304.288 354.578 313.717C340.269 326.898 339.62 328.972 345.732 341.991C351.63 354.553 341.783 353.067 324.086 338.725C317.939 333.744 316.746 333.086 313.077 332.655C309.798 332.269 309.85 332.189 314.812 329.981C324.304 325.757 340.5 315.807 345.234 311.29C351.388 305.418 356.986 293.484 359.567 280.738C362.331 267.086 361.971 266.632 349.562 268.148C332.663 270.212 341.308 264.324 363.781 258.462C372.518 256.184 373.992 255.481 375.893 252.694C378.561 248.782 380.146 238.063 379.586 227.717C378.19 201.95 378.217 202.14 375.607 198.649C369.232 190.118 346.161 187.67 335.436 194.386C331.552 196.818 329.15 203.451 326.779 218.291C323.247 240.401 323.119 254.089 326.322 267.26C330.157 283.03 330.034 291.987 325.932 295.627C323.663 297.64 319.514 293.971 312.91 284.114C307.052 275.37 305.148 275.507 303.037 284.822C301.513 291.548 298.828 301.777 297.817 304.71C295.425 311.645 289.352 314.855 271.771 318.476C254.029 322.131 251.995 323.552 246.782 335.94C240.351 351.223 237.682 354.217 230.493 354.217C224.488 354.217 223.561 351.983 223.955 338.466C224.258 328.08 224.024 326.909 221.238 324.869C217.362 322.03 209.124 321.367 194.062 322.681C188.837 323.136 182.874 323.629 180.812 323.776C175.133 324.181 170.79 327.12 165.812 333.93C155.164 348.495 150.838 352.486 146.568 351.685C142.396 350.903 142.374 348.466 146.447 338.217C152.502 322.982 150.125 318.952 135.096 318.977C116.493 319.008 102.562 324.203 93.2174 334.596C81.6784 347.428 78.3924 349.967 73.3229 349.967C69.9449 349.967 69.7099 347.514 72.3929 340.261C80.2064 319.137 78.4109 318.241 55.9494 332.053C54.2369 333.106 52.7284 333.967 52.5964 333.967C52.4639 333.967 51.1649 334.67 49.7089 335.529C34.0574 344.761 17.3499 347.613 11.2414 342.094C-3.20113 329.046 3.59787 271.671 20.1634 266.8C23.9844 265.677 25.8689 266.347 29.5619 270.141C32.3779 273.034 33.7079 275.085 38.3649 283.717C44.1819 294.499 49.1599 298.447 53.0639 295.376C55.9604 293.098 53.8354 287.048 44.8414 271.967C38.9984 262.169 35.3119 254.772 35.3119 252.847C35.3119 250.089 42.4989 238.044 46.9134 233.404C47.2724 233.026 48.5739 231.498 49.8059 230.009C57.3139 220.927 70.0774 213.098 74.1679 215.065C78.2644 217.035 78.9544 219.933 82.8089 251.356C83.3584 255.832 84.1809 261.007 84.6379 262.856C88.5989 278.893 100.46 285.328 103.275 272.967C104.388 268.081 103.477 243.378 101.81 233.217C99.9169 221.676 100.176 208.964 102.346 206.935C108.268 201.402 141.263 201.869 153.986 207.667L157.684 209.352L158.314 211.978C159.506 216.946 158.573 222.963 153.699 241.717C145.745 272.328 145.041 282.781 150.586 287.99C155.112 292.242 159.818 285.29 163.461 268.967C165.775 258.601 167.786 248.855 169.336 240.495C172.595 222.926 175.359 213.816 177.711 212.895C180.7 211.725 193.083 213.787 199.106 216.458C208.699 220.712 212.746 223.419 213.853 226.321C214.339 227.596 214.501 239.216 214.092 243.467C213.999 244.43 213.77 247.692 213.584 250.717C213.397 253.742 213.035 258.242 212.779 260.717C211.975 268.508 211.636 291.248 212.237 297.071C213.502 309.326 217.789 317.637 221.71 315.439C225.696 313.204 225.991 310.084 226.045 269.467C226.092 235.106 226.104 234.695 227.149 232.717C229.812 227.675 236.414 225.209 248.819 224.623C258.183 224.18 259.584 225.22 273.674 243.084C291.669 265.899 302.682 274.616 308.607 270.734C311.589 268.78 310.481 267.251 294.466 251.217C272.998 229.723 268.183 222.271 267.387 209.302C266.639 197.101 270.375 186.353 278.226 178.115C279.654 176.616 280.153 175.719 279.963 174.99C279.475 173.127 277.616 173.753 275.202 176.592C267.288 185.902 263.812 194.943 263.812 206.217C263.812 221.609 268.758 229.879 291.997 253.338C306.02 267.494 306.925 268.618 303.44 267.554C297.378 265.702 290.869 259.599 279.352 244.97C262.357 223.382 259.778 221.248 250.881 221.413C236.149 221.687 227.552 224.829 224.151 231.181C223.064 233.214 223.062 233.272 223.043 266.717C223.019 309.577 222.207 317.525 218.664 309.592C214.396 300.037 213.632 279.654 216.596 254.467C217.487 246.896 218.095 230.599 217.608 227.348C216.601 220.638 202.349 212.31 187.414 209.705C173.444 207.269 172.649 208.331 166.603 237.467C165.661 242.005 164.167 249.542 163.283 254.217C160.051 271.312 155.772 285.123 153.488 285.837C148.378 287.434 150.256 263.51 156.868 242.794C157.381 241.187 158.605 236.134 159.587 231.565C164.297 209.664 162.966 206.128 148.631 202.469C128.147 197.239 101.617 199.293 98.4914 206.351C97.1724 209.329 97.1814 218.707 98.5169 233.717C99.3049 242.572 99.8829 248.863 100.056 250.467C101.633 265.1 100.39 275.967 97.1404 275.967C91.3549 275.967 86.8774 263.534 84.8064 241.717C82.8739 221.365 80.9004 214.809 75.9884 212.432C67.6769 208.408 50.9149 220.751 37.3554 240.878C30.5164 251.03 30.5774 253.977 37.8854 266.467C47.7569 283.34 50.7564 289.179 50.7919 291.592C50.8499 295.585 46.0874 290.959 41.6124 282.676C31.5204 263.997 24.4399 259.238 15.7264 265.276C-0.982129 276.856 -5.88413 329.654 8.42137 343.959C16.8939 352.432 33.9644 349.064 59.0619 333.967C65.5514 330.064 72.8354 326.324 73.2134 326.702C73.6034 327.092 72.5404 331.021 71.3204 333.699C65.2894 346.938 66.4039 354.123 74.3599 353.291C80.2194 352.679 81.6514 351.556 96.5859 335.863C104.99 327.031 117.365 322.624 134.312 322.427C147.223 322.277 148.301 323.71 144.004 335.303C139.222 348.205 139.083 348.92 140.821 351.733C145.097 358.65 155.542 354.212 163.803 341.967C171.821 330.082 174.894 327.62 182.562 326.934C185.037 326.713 189.649 326.248 192.812 325.901C207.352 324.308 220.022 325.532 220.391 328.565C220.435 328.924 220.491 333.942 220.516 339.717C220.573 352.738 222.227 356.656 228.138 357.765C236.622 359.356 244.138 352.599 249.028 338.984C252.969 328.01 255.307 325.718 264.812 323.509C270.631 322.156 276.131 320.855 282.062 319.429C296.82 315.879 300.372 311.7 304.339 293.217C305.166 289.367 306.206 285.254 306.651 284.076L307.46 281.935L309.525 285.076C319.833 300.751 326.242 303.482 330.699 294.097C332.678 289.931 333.223 282.054 331.873 277.148C326.198 256.529 326.185 231.519 331.839 209.329C335.217 196.073 337.977 193.967 351.976 193.967C368.082 193.967 374.312 197.948 375.058 208.717C375.23 211.192 375.59 215.355 375.858 217.967C377.442 233.4 375.656 249.484 372.024 252.499C371.641 252.817 368.905 253.691 365.945 254.443C348.678 258.825 337.934 263.419 337.09 266.782C335.893 271.551 341.019 272.881 353.252 270.973C358.042 270.226 358.156 270.348 357.379 275.426C355.355 288.646 349.724 301.966 343.533 308.178C337.573 314.158 320.271 324.557 308.812 329.046C306.749 329.854 304.387 330.815 303.562 331.181C297.801 333.74 290.722 335.085 284.062 334.888C262.632 334.254 252.757 336.264 256.574 340.481C259.377 343.578 270.965 343.127 288.062 339.256C311.815 333.879 312.89 333.933 321.628 340.951C336.095 352.569 344.697 356.152 348.77 352.255C351.641 349.509 351.365 346.317 347.535 337.962C343.277 328.673 343.431 328.392 362.429 310.781C374.792 299.32 377.036 295.215 378.039 282.217C378.908 270.965 380.783 269.728 394.312 271.485C416.898 274.42 424.915 268.168 411.444 258.126C410.409 257.354 409.449 256.602 409.312 256.454C408.583 255.669 403.397 252.693 398.433 250.211C389.526 245.757 388.49 244.526 391.634 242.129C407.819 229.783 414.357 189.013 402.345 175.332C399.223 171.776 386.007 170.496 364.562 171.671C330.039 173.563 319.675 172.946 305.062 168.129C289.687 163.061 277.502 148.126 267.869 122.541C257.083 93.8942 261.018 65.9847 278.097 50.0087C282.207 46.1642 289.244 41.9452 286.298 45.0922C269.746 62.7727 270.096 93.5047 287.101 115.717C299.265 131.605 320.105 134.707 326.728 121.615C330.011 115.127 329.797 95.4032 326.342 85.9672C326.09 85.2797 325.273 82.4672 324.525 79.7172C319.272 60.3932 306.962 41.7642 297.913 39.4447L295.517 38.8307L296.664 36.5642C302.598 24.8442 286.979 12.5682 265.772 12.2827C260.254 12.2087 259.992 11.6957 264.693 10.1677C267.106 9.38322 269.149 9.23622 277.562 9.24172C296.431 9.25422 302.18 11.5047 312.421 22.8872C316.444 27.3582 323.411 28.9772 330.062 26.9867C331.162 26.6577 336.562 26.2027 342.062 25.9762C356.529 25.3802 357.721 24.8997 368.812 15.1972C382.146 3.53222 395.904 0.316717 408.55 5.91072C411.973 7.42472 411.366 7.71372 404.686 7.75372C389.413 7.84522 381.007 13.2497 377.528 25.2172C375.489 32.2317 376.696 37.8902 381.088 41.9042L383.756 44.3432L381.818 44.6032C378.313 45.0732 370.273 49.4497 366.997 52.6702C366.411 53.2462 364.767 54.7297 363.343 55.9672C347.824 69.4552 339.755 99.8852 346.924 117.89C354.287 136.382 368.566 135.76 384.687 116.244C385.305 115.495 385.812 114.676 385.812 114.425C385.812 114.173 386.012 113.967 386.257 113.967C386.862 113.967 392.76 104.604 395.077 99.9672C400.977 88.1577 403.26 75.9247 401.097 67.7172C399.274 60.8052 398.138 57.9342 395.753 54.2172C393.059 50.0197 392.961 49.6487 394.941 51.1592C398.515 53.8847 402.417 59.7822 404.575 65.7172C405.075 67.0922 405.651 68.4422 405.855 68.7172C406.609 69.7322 408.293 77.3992 409.095 83.4672C412.487 109.142 403.839 135.122 387.08 149.602C372.005 162.628 351.252 169.536 334.013 167.267C316.688 164.986 298.952 153.736 305.937 149.457C317.773 142.205 363.275 144.255 366.896 152.203C368.583 155.904 356.853 161.353 342.562 163.507C336.081 164.484 333.892 167.285 339.79 167.054C350.339 166.64 366.542 160.699 369.303 156.231C374.563 147.72 359.615 141.847 332.812 141.896C300.959 141.954 291.099 151.219 310.618 162.752C326.873 172.356 347.215 173.306 367.261 165.398C390.218 156.34 404.582 139.378 411.025 113.717C418.18 85.2157 407 48.8987 389.783 44.7177C387.586 44.1842 380.426 36.8327 380.026 34.7007C378.739 27.8402 382.541 18.6622 388.159 15.0712C393.352 11.7512 397.588 10.7992 406.931 10.8522C416.635 10.9072 416.964 10.7597 414.994 7.23572C412.184 2.20722 399.168 -1.28328 389.69 0.449719ZM299.139 43.5562C315.95 51.4582 332.053 103.537 323.185 121.32C318 131.718 297.657 125.878 287.667 111.123C274.727 92.0102 273.997 68.2022 285.831 51.2172C291.981 42.3902 294.084 41.1797 299.139 43.5562ZM386.577 47.6992C390.295 48.5487 397.472 63.3772 398.564 72.4672C401.046 93.1162 374.564 131.238 360.018 127.957C344.569 124.473 343.576 88.0802 358.348 66.7122C366.279 55.2392 379.78 46.1462 386.577 47.6992ZM275.61 338.496C271.339 339.211 265.327 339.541 264.174 339.124C262.761 338.612 267.075 338.147 273.562 338.11C277.518 338.088 277.765 338.135 275.61 338.496Z" fill="#16314F"/>
</svg>
