<svg width="419" height="386" viewBox="0 0 419 386" fill="none" xmlns="http://www.w3.org/2000/svg">
<path fill-rule="evenodd" clip-rule="evenodd" d="M275.241 170.945C275.241 170.945 273.607 174.078 271.611 176.695C269.615 179.313 267.076 183.479 265.97 185.954C264.567 189.092 263.82 193.386 263.5 200.145C263.163 207.269 263.451 211.038 264.584 214.372C265.432 216.867 267.793 221.426 269.831 224.504C271.87 227.582 280.655 237.486 289.353 246.512C298.052 255.538 305.17 263.515 305.17 264.238C305.17 264.961 304.631 266.092 303.972 266.752C303.314 267.412 301.949 267.952 300.94 267.952C299.93 267.952 297.37 267.065 295.249 265.981C293.129 264.897 288.546 261.185 285.063 257.732C281.582 254.278 273.866 245.459 267.917 238.133C261.969 230.807 255.684 223.914 253.95 222.815C251.26 221.11 249.548 220.88 242.273 221.248C236.651 221.532 232.179 222.375 229.14 223.722C226.606 224.845 223.937 226.82 223.21 228.109C222.203 229.896 221.767 239.654 221.379 269.176C220.871 307.748 220.86 307.908 218.611 310.162C216.849 311.927 215.972 312.195 214.62 311.381C213.668 310.807 211.766 308.113 210.394 305.395C207.954 300.558 207.9 299.967 207.9 277.952C207.9 265.577 208.306 248.131 208.802 239.182L209.705 222.91L207.306 220.331C205.987 218.913 202.326 216.441 199.171 214.838C196.016 213.236 190.46 211.233 186.823 210.387C183.187 209.543 178.388 208.987 176.158 209.153C172.249 209.443 172.043 209.636 170.33 214.618C169.354 217.458 166.313 230.733 163.571 244.118C160.83 257.502 157.713 270.995 156.645 274.103C155.576 277.211 153.938 280.924 153.003 282.353C151.985 283.911 150.381 284.952 148.998 284.952C147.694 284.952 145.791 283.806 144.623 282.317C142.994 280.242 142.555 278.247 142.555 272.927C142.555 269.212 143.426 261.961 144.49 256.813C145.554 251.665 148.023 240.952 149.977 233.006C152.14 224.207 153.529 216.104 153.529 212.281C153.529 206.338 153.372 205.924 150.576 204.474C148.951 203.632 144.574 202.218 140.849 201.331C136.646 200.331 129.152 199.672 121.106 199.595C112.639 199.515 106.463 199.956 103.315 200.866C99.7286 201.903 98.2332 202.926 97.478 204.857C96.8684 206.414 96.6988 211.858 97.053 218.453C97.3782 224.503 98.0686 233.278 98.5874 237.953C99.1071 242.628 99.559 251.305 99.594 257.235C99.6359 264.377 99.182 269.154 98.2512 271.388C97.478 273.242 95.9297 275.051 94.8093 275.407C93.672 275.769 91.4473 275.368 89.7693 274.498C88.1172 273.642 85.6051 270.956 84.1865 268.531C82.7689 266.105 81.1766 262.621 80.6489 260.787C80.1211 258.953 78.5928 249.254 77.2519 239.233C75.9111 229.212 74.264 219.173 73.5916 216.924C72.9192 214.675 71.5245 212.382 70.491 211.827C69.4584 211.273 67.3215 211.104 65.7422 211.452C64.163 211.8 59.7973 214.248 56.0402 216.892C52.2831 219.537 46.6984 224.795 43.6296 228.577C40.5609 232.359 36.6482 237.964 34.9343 241.034C33.2203 244.103 31.8176 247.609 31.8176 248.824C31.8176 250.039 32.7714 252.927 33.9376 255.243C35.1039 257.558 38.7422 264.075 42.0225 269.723C45.3037 275.372 48.5779 281.961 49.3002 284.365C50.4205 288.096 50.3966 289.045 49.1396 290.844C48.3295 292.003 46.9418 292.952 46.0559 292.952C45.17 292.952 42.6141 291.023 40.3764 288.664C38.1377 286.306 34.5113 281.051 32.3165 276.986C30.1217 272.92 26.9262 268.1 25.2153 266.273C22.8419 263.74 21.2776 262.953 18.6159 262.953C16.5828 262.953 14.0158 263.829 12.4655 265.051C11.001 266.205 8.70843 269.315 7.3706 271.962C6.03277 274.609 3.98363 280.077 2.81839 284.113C1.34289 289.222 0.535803 295.513 0.16169 304.813C-0.196461 313.745 0.0399788 320.044 0.874999 323.812C1.56237 326.914 2.97502 331.132 4.01456 333.186C5.05409 335.241 6.90869 337.553 8.13678 338.324C9.36387 339.095 11.9677 340.006 13.9211 340.349C15.8754 340.691 19.8161 340.526 22.6783 339.981C25.5415 339.437 30.9008 337.783 34.5891 336.305C38.2773 334.826 46.6824 330.5 53.2668 326.69C59.8512 322.88 66.69 319.523 68.4628 319.23C70.884 318.829 71.8467 319.111 72.3256 320.362C72.6768 321.278 71.5624 326.459 69.8495 331.875C68.1365 337.291 66.7349 342.422 66.7349 343.278C66.7349 344.133 67.1928 345.117 67.7524 345.463C68.3111 345.81 70.3782 345.561 72.3436 344.911C74.6631 344.144 79.3001 340.302 85.5433 333.979C90.8367 328.617 97.2266 323.042 99.7426 321.591C102.26 320.141 107.83 318.054 112.123 316.953C117.209 315.649 123.193 314.952 129.297 314.952C135.721 314.952 139.583 315.429 141.592 316.47C143.292 317.351 144.811 319.135 145.21 320.719C145.689 322.619 144.932 326.218 142.73 332.531C140.988 337.525 139.562 342.812 139.562 344.281C139.562 346.588 139.974 346.951 142.59 346.951C144.256 346.951 146.707 346.235 148.039 345.361C149.371 344.486 153.84 339.35 157.972 333.948C162.104 328.545 167.021 323.172 168.901 322.008C171.478 320.412 175.177 319.631 183.959 318.826C190.362 318.239 199.57 317.915 204.422 318.106C211.474 318.382 213.809 318.874 216.059 320.555C218.815 322.613 218.884 322.906 219.373 334.653C219.724 343.098 220.303 347.17 221.329 348.407C222.464 349.775 223.785 350.051 227.303 349.653C230.823 349.256 232.408 348.436 234.486 345.941C235.953 344.18 238.63 339.3 240.436 335.095C242.242 330.891 244.789 325.797 246.096 323.775C247.403 321.753 249.946 319.4 251.746 318.543C253.547 317.686 260.695 315.634 267.631 313.982C274.566 312.331 282.467 309.849 285.187 308.467C287.908 307.085 290.68 304.942 291.348 303.703C292.017 302.465 294.17 295.377 296.133 287.952C299.204 276.343 299.999 274.41 301.813 274.149C303.43 273.916 305.049 275.431 308.76 280.649C311.421 284.391 314.686 288.464 316.015 289.702C317.343 290.94 319.061 291.952 319.832 291.952C320.603 291.952 321.884 290.391 322.679 288.484C323.474 286.577 324.125 283.419 324.125 281.468C324.125 279.516 323.002 272.265 321.631 265.355C319.906 256.666 319.138 249.502 319.142 242.122C319.144 236.254 320.018 225.603 321.084 218.453C322.15 211.303 323.763 203.003 324.668 200.007C325.638 196.797 327.613 193.257 329.477 191.389C332.026 188.834 334.033 187.969 339.819 186.933C345.316 185.948 348.553 185.905 353.631 186.748C357.278 187.354 362.321 188.886 364.838 190.152C367.354 191.418 370.246 193.607 371.265 195.015C372.687 196.981 373.359 200.698 374.157 211.014C374.729 218.406 374.964 228.292 374.681 232.985C374.397 237.678 373.4 243.433 372.465 245.774C371.453 248.309 369.683 250.592 368.086 251.419C366.612 252.183 361.168 254.026 355.988 255.514C350.809 257.003 344.214 259.261 341.334 260.532C338.454 261.803 336.096 263.16 336.096 263.548C336.096 263.935 340.058 263.971 344.898 263.626C351.067 263.187 354.053 263.352 354.875 264.176C355.521 264.823 356.049 266.875 356.049 268.735C356.049 270.596 355.116 275.794 353.977 280.285C352.837 284.777 350.535 291.337 348.861 294.863C347.187 298.389 344.036 303.211 341.861 305.578C339.684 307.944 334.302 312.196 329.899 315.027C325.497 317.858 318.525 321.9 314.407 324.011C307.502 327.551 307.124 327.903 309.561 328.516C311.015 328.882 316.099 332.091 320.858 335.648C325.618 339.204 331.2 342.978 333.263 344.033C335.326 345.088 338.154 345.951 339.548 345.951C341.43 345.951 342.082 345.428 342.082 343.921C342.082 342.804 340.96 339.218 339.588 335.951C338.216 332.684 337.094 328.588 337.094 326.849C337.094 325.11 337.964 322.284 339.027 320.57C340.09 318.855 345.926 312.807 351.996 307.13C358.066 301.453 364.207 294.8 365.641 292.346C367.482 289.197 368.513 285.518 369.148 279.84C369.642 275.416 370.682 270.56 371.461 269.051C372.24 267.541 373.468 265.829 374.19 265.245C374.912 264.661 376.87 263.892 378.54 263.534C380.21 263.177 385.48 263.329 390.252 263.873C395.025 264.416 401.177 264.594 403.927 264.268C406.675 263.941 408.924 263.217 408.924 262.659C408.924 262.1 407.209 260.026 405.113 258.048C403.017 256.071 397.741 252.492 393.39 250.096C389.039 247.699 384.47 244.808 383.235 243.672C381.999 242.535 380.99 241.078 380.99 240.434C380.99 239.791 383.189 236.746 385.876 233.667C388.564 230.589 391.924 225.681 393.344 222.762C394.763 219.842 396.829 213.894 397.935 209.544C399.132 204.832 399.92 198.566 399.884 194.044C399.85 189.87 399.063 184.026 398.134 181.059C397.041 177.566 395.452 174.922 393.626 173.559C390.872 171.503 389.899 171.454 351.729 171.454C316.851 171.454 311.955 171.257 306.167 169.62C302.601 168.611 296.989 166.382 293.697 164.666C290.02 162.75 275.241 170.945 275.241 170.945ZM351.56 167.454C351.56 167.454 345.176 166.389 336.096 166.418C326.615 166.448 323.355 166.037 317.313 164.054C313.292 162.733 307.369 159.947 304.15 157.861C300.931 155.776 297.57 152.66 296.68 150.936C295.206 148.079 295.202 147.591 296.634 145.4C297.498 144.078 299.444 142.354 300.96 141.569C302.474 140.784 306.368 139.649 309.613 139.048C312.857 138.447 321.827 137.963 329.546 137.972C337.76 137.983 346.335 138.575 350.227 139.402C353.883 140.179 358.256 141.53 359.944 142.406C361.633 143.281 363.76 145.138 364.672 146.533C366.235 148.924 366.219 149.223 364.387 151.762C363.319 153.243 359.851 155.763 356.683 157.363C353.513 158.963 348.595 160.871 345.752 161.604L340.586 162.935L345.574 162.357C348.317 162.04 354.394 160.343 359.077 158.587C363.76 156.831 370.817 153.245 374.761 150.617C378.704 147.989 384.216 143.278 387.011 140.147C389.804 137.016 393.859 130.855 396.023 126.455C398.186 122.055 400.871 114.855 401.988 110.455C403.398 104.901 404.035 99.0835 404.071 91.4306C404.1 85.3667 403.581 77.4919 402.919 73.9309C402.256 70.37 400.009 63.8561 397.925 59.4562C395.84 55.0563 393.054 50.4414 391.732 49.2014C389.584 47.1834 389.705 47.7044 392.892 54.1413C396.285 60.9952 396.45 61.8132 396.391 71.396C396.338 79.8898 395.905 82.5438 393.603 88.4437C392.104 92.2866 388.786 98.8115 386.23 102.943C383.676 107.074 379.094 113.089 376.05 116.309C373.006 119.528 368.719 123.186 366.524 124.438C364.329 125.689 361.047 126.987 359.229 127.321C357.298 127.677 354.603 127.363 352.745 126.566C350.996 125.815 348.354 123.908 346.875 122.328C345.395 120.748 343.231 117.296 342.068 114.657C340.686 111.525 339.762 106.838 339.405 101.157C338.976 94.3166 339.313 90.5596 340.978 83.5928C342.155 78.6699 344.928 71.199 347.22 66.7841C350.004 61.4192 353.485 56.7193 357.937 52.3153C362.172 48.1244 366.847 44.6835 371.014 42.6935L377.498 39.5956L374.839 36.7616C373.378 35.2036 371.886 32.1757 371.525 30.0347C371.164 27.8928 371.32 24.5028 371.871 22.5019C372.422 20.5009 374.038 16.872 375.462 14.437C377.011 11.7861 379.789 8.98912 382.385 7.46414C385.385 5.70118 389.441 4.5642 395.576 3.76721C404.082 2.66223 404.316 2.56523 401.441 1.33225C399.795 0.625268 395.069 0.0272783 390.938 0.00227879C384.42 -0.0367205 382.507 0.399272 376.459 3.30522C372.627 5.14619 366.578 9.12711 363.02 12.1521C359.46 15.177 354.999 18.4539 353.106 19.4339C350.868 20.5919 345.94 21.4919 339.023 22.0049C333.172 22.4389 326.307 23.1059 323.767 23.4879C321.228 23.8698 317.534 23.8778 315.559 23.5069C313.107 23.0459 309.973 20.9719 305.68 16.968C302.222 13.743 297.437 10.0841 295.048 8.83812C291.342 6.90415 288.766 6.50916 277.506 6.14917C270.247 5.91717 262.616 6.08517 260.546 6.52316C257.038 7.26515 257.292 7.36915 264.302 8.07213C268.437 8.48613 274.441 9.8081 277.648 11.0101C281.385 12.4121 285.257 14.917 288.443 17.996C293.154 22.5469 293.39 23.0199 292.976 27.1258C292.736 29.5077 292.212 32.1887 291.811 33.0837C291.282 34.2687 291.709 34.8696 293.388 35.2996C294.656 35.6236 297.388 37.2976 299.461 39.0186C301.533 40.7395 305.069 44.8625 307.317 48.1804C309.564 51.4984 312.864 57.4172 314.649 61.3342C316.435 65.2511 319.13 72.506 320.637 77.4559C322.841 84.6938 323.464 89.0017 323.819 99.4555C324.231 111.574 324.105 112.756 321.948 116.896C320.676 119.339 318.368 122.264 316.819 123.396C314.642 124.987 312.488 125.455 307.341 125.455C302.311 125.455 299.459 124.858 295.692 123.018C292.949 121.677 288.219 118.052 285.182 114.962C281.806 111.527 278.236 106.451 275.996 101.9C273.981 97.8055 271.646 91.5306 270.808 87.9557C269.97 84.3808 269.283 78.0809 269.282 73.9559C269.28 69.831 269.905 64.0961 270.671 61.2122C271.438 58.3282 273.058 53.9093 274.274 51.3934C275.489 48.8774 277.59 45.4995 278.943 43.8875C280.297 42.2755 280.873 40.9565 280.225 40.9565C279.576 40.9565 276.244 43.7695 272.819 47.2064C268.744 51.2964 265.481 55.7933 263.377 60.2202C261.608 63.9401 259.459 70.69 258.601 75.2199C257.531 80.8688 257.228 86.1247 257.638 91.9556C257.967 96.6305 259.155 103.961 260.278 108.245C261.401 112.53 264.064 120.091 266.196 125.047C268.328 130.004 271.571 136.623 273.405 139.757C275.238 142.891 279.88 148.631 283.72 152.512C287.561 156.392 292.767 160.524 295.289 161.693C297.811 162.863 302.749 164.637 306.263 165.637C311.944 167.253 316.965 167.454 351.56 167.454Z" fill="#017260"/>
<path fill-rule="evenodd" clip-rule="evenodd" d="M389.69 0.449719C380.877 2.06122 374.841 5.43172 364.812 14.3432C356.621 21.6207 352.914 22.9527 340.812 22.9672C337.374 22.9712 333.212 23.1857 331.562 23.4442C320.042 25.2462 318.717 24.9087 313.029 18.7242C303.735 8.61822 296.362 5.96722 277.55 5.96722C264.802 5.96722 259.63 7.28122 257.294 11.1122C255.105 14.7027 256.18 15.9427 261.062 15.4607C274.504 14.1342 289.312 19.6262 293.283 27.4117C295.653 32.0562 293.476 38.7122 289.245 39.7602C264.872 45.7957 251.745 83.5787 262.422 116.967C274.887 155.952 293.1 173.042 324.806 175.506C331.575 176.032 335.16 175.973 361.062 174.912C391.956 173.646 399.024 174.611 401.893 180.489C409.769 196.623 403.828 225.876 389.959 239.252C384.195 244.811 385.254 247.053 396.32 252.721C407.392 258.393 414.312 264.026 414.312 267.367C414.312 268.892 402.153 269.395 394.062 268.204C379.65 266.083 375.573 269.07 374.588 282.467C373.887 292.007 373.112 294.193 368.355 300.046C365.296 303.809 364.814 304.288 354.578 313.717C340.269 326.898 339.62 328.972 345.732 341.991C351.63 354.553 341.783 353.067 324.086 338.725C317.939 333.744 316.746 333.086 313.077 332.655C309.798 332.269 309.85 332.189 314.812 329.981C324.304 325.757 340.5 315.807 345.234 311.29C351.388 305.418 356.986 293.484 359.567 280.738C362.331 267.086 361.971 266.632 349.562 268.148C332.663 270.212 341.308 264.324 363.781 258.462C372.518 256.184 373.992 255.481 375.893 252.694C378.561 248.782 380.146 238.063 379.586 227.717C378.19 201.95 378.217 202.14 375.607 198.649C369.232 190.118 346.161 187.67 335.436 194.386C331.552 196.818 329.15 203.451 326.779 218.291C323.247 240.401 323.119 254.089 326.322 267.26C330.157 283.03 330.034 291.987 325.932 295.627C323.663 297.64 319.514 293.971 312.91 284.114C307.052 275.37 305.148 275.507 303.037 284.822C301.513 291.548 298.828 301.777 297.817 304.71C295.425 311.645 289.352 314.855 271.771 318.476C254.029 322.131 251.995 323.552 246.782 335.94C240.351 351.223 237.682 354.217 230.493 354.217C224.488 354.217 223.561 351.983 223.955 338.466C224.258 328.08 224.024 326.909 221.238 324.869C217.362 322.03 209.124 321.367 194.062 322.681C188.837 323.136 182.874 323.629 180.812 323.776C175.133 324.181 170.79 327.12 165.812 333.93C155.164 348.495 150.838 352.486 146.568 351.685C142.396 350.903 142.374 348.466 146.447 338.217C152.502 322.982 150.125 318.952 135.096 318.977C116.493 319.008 102.562 324.203 93.2174 334.596C81.6784 347.428 78.3924 349.967 73.3229 349.967C69.9449 349.967 69.7099 347.514 72.3929 340.261C80.2064 319.137 78.4109 318.241 55.9494 332.053C54.2369 333.106 52.7284 333.967 52.5964 333.967C52.4639 333.967 51.1649 334.67 49.7089 335.529C34.0574 344.761 17.3499 347.613 11.2414 342.094C-3.20113 329.046 3.59787 271.671 20.1634 266.8C23.9844 265.677 25.8689 266.347 29.5619 270.141C32.3779 273.034 33.7079 275.085 38.3649 283.717C44.1819 294.499 49.1599 298.447 53.0639 295.376C55.9604 293.098 53.8354 287.048 44.8414 271.967C38.9984 262.169 35.3119 254.772 35.3119 252.847C35.3119 250.089 42.4989 238.044 46.9134 233.404C47.2724 233.026 48.5739 231.498 49.8059 230.009C57.3139 220.927 70.0774 213.098 74.1679 215.065C78.2644 217.035 78.9544 219.933 82.8089 251.356C83.3584 255.832 84.1809 261.007 84.6379 262.856C88.5989 278.893 100.46 285.328 103.275 272.967C104.388 268.081 103.477 243.378 101.81 233.217C99.9169 221.676 100.176 208.964 102.346 206.935C108.268 201.402 141.263 201.869 153.986 207.667L157.684 209.352L158.314 211.978C159.506 216.946 158.573 222.963 153.699 241.717C145.745 272.328 145.041 282.781 150.586 287.99C155.112 292.242 159.818 285.29 163.461 268.967C165.775 258.601 167.786 248.855 169.336 240.495C172.595 222.926 175.359 213.816 177.711 212.895C180.7 211.725 193.083 213.787 199.106 216.458C208.699 220.712 212.746 223.419 213.853 226.321C214.339 227.596 214.501 239.216 214.092 243.467C213.999 244.43 213.77 247.692 213.584 250.717C213.397 253.742 213.035 258.242 212.779 260.717C211.975 268.508 211.636 291.248 212.237 297.071C213.502 309.326 217.789 317.637 221.71 315.439C225.696 313.204 225.991 310.084 226.045 269.467C226.092 235.106 226.104 234.695 227.149 232.717C229.812 227.675 236.414 225.209 248.819 224.623C258.183 224.18 259.584 225.22 273.674 243.084C291.669 265.899 302.682 274.616 308.607 270.734C311.589 268.78 310.481 267.251 294.466 251.217C272.998 229.723 268.183 222.271 267.387 209.302C266.639 197.101 270.375 186.353 278.226 178.115C279.654 176.616 280.153 175.719 279.963 174.99C279.475 173.127 277.616 173.753 275.202 176.592C267.288 185.902 263.812 194.943 263.812 206.217C263.812 221.609 268.758 229.879 291.997 253.338C306.02 267.494 306.925 268.618 303.44 267.554C297.378 265.702 290.869 259.599 279.352 244.97C262.357 223.382 259.778 221.248 250.881 221.413C236.149 221.687 227.552 224.829 224.151 231.181C223.064 233.214 223.062 233.272 223.043 266.717C223.019 309.577 222.207 317.525 218.664 309.592C214.396 300.037 213.632 279.654 216.596 254.467C217.487 246.896 218.095 230.599 217.608 227.348C216.601 220.638 202.349 212.31 187.414 209.705C173.444 207.269 172.649 208.331 166.603 237.467C165.661 242.005 164.167 249.542 163.283 254.217C160.051 271.312 155.772 285.123 153.488 285.837C148.378 287.434 150.256 263.51 156.868 242.794C157.381 241.187 158.605 236.134 159.587 231.565C164.297 209.664 162.966 206.128 148.631 202.469C128.147 197.239 101.617 199.293 98.4914 206.351C97.1724 209.329 97.1814 218.707 98.5169 233.717C99.3049 242.572 99.8829 248.863 100.056 250.467C101.633 265.1 100.39 275.967 97.1404 275.967C91.3549 275.967 86.8774 263.534 84.8064 241.717C82.8739 221.365 80.9004 214.809 75.9884 212.432C67.6769 208.408 50.9149 220.751 37.3554 240.878C30.5164 251.03 30.5774 253.977 37.8854 266.467C47.7569 283.34 50.7564 289.179 50.7919 291.592C50.8499 295.585 46.0874 290.959 41.6124 282.676C31.5204 263.997 24.4399 259.238 15.7264 265.276C-0.982129 276.856 -5.88413 329.654 8.42137 343.959C16.8939 352.432 33.9644 349.064 59.0619 333.967C65.5514 330.064 72.8354 326.324 73.2134 326.702C73.6034 327.092 72.5404 331.021 71.3204 333.699C65.2894 346.938 66.4039 354.123 74.3599 353.291C80.2194 352.679 81.6514 351.556 96.5859 335.863C104.99 327.031 117.365 322.624 134.312 322.427C147.223 322.277 148.301 323.71 144.004 335.303C139.222 348.205 139.083 348.92 140.821 351.733C145.097 358.65 155.542 354.212 163.803 341.967C171.821 330.082 174.894 327.62 182.562 326.934C185.037 326.713 189.649 326.248 192.812 325.901C207.352 324.308 220.022 325.532 220.391 328.565C220.435 328.924 220.491 333.942 220.516 339.717C220.573 352.738 222.227 356.656 228.138 357.765C236.622 359.356 244.138 352.599 249.028 338.984C252.969 328.01 255.307 325.718 264.812 323.509C270.631 322.156 276.131 320.855 282.062 319.429C296.82 315.879 300.372 311.7 304.339 293.217C305.166 289.367 306.206 285.254 306.651 284.076L307.46 281.935L309.525 285.076C319.833 300.751 326.242 303.482 330.699 294.097C332.678 289.931 333.223 282.054 331.873 277.148C326.198 256.529 326.185 231.519 331.839 209.329C335.217 196.073 337.977 193.967 351.976 193.967C368.082 193.967 374.312 197.948 375.058 208.717C375.23 211.192 375.59 215.355 375.858 217.967C377.442 233.4 375.656 249.484 372.024 252.499C371.641 252.817 368.905 253.691 365.945 254.443C348.678 258.825 337.934 263.419 337.09 266.782C335.893 271.551 341.019 272.881 353.252 270.973C358.042 270.226 358.156 270.348 357.379 275.426C355.355 288.646 349.724 301.966 343.533 308.178C337.573 314.158 320.271 324.557 308.812 329.046C306.749 329.854 304.387 330.815 303.562 331.181C297.801 333.74 290.722 335.085 284.062 334.888C262.632 334.254 252.757 336.264 256.574 340.481C259.377 343.578 270.965 343.127 288.062 339.256C311.815 333.879 312.89 333.933 321.628 340.951C336.095 352.569 344.697 356.152 348.77 352.255C351.641 349.509 351.365 346.317 347.535 337.962C343.277 328.673 343.431 328.392 362.429 310.781C374.792 299.32 377.036 295.215 378.039 282.217C378.908 270.965 380.783 269.728 394.312 271.485C416.898 274.42 424.915 268.168 411.444 258.126C410.409 257.354 409.449 256.602 409.312 256.454C408.583 255.669 403.397 252.693 398.433 250.211C389.526 245.757 388.49 244.526 391.634 242.129C407.819 229.783 414.357 189.013 402.345 175.332C399.223 171.776 386.007 170.496 364.562 171.671C330.039 173.563 319.675 172.946 305.062 168.129C289.687 163.061 277.502 148.126 267.869 122.541C257.083 93.8942 261.018 65.9847 278.097 50.0087C282.207 46.1642 289.244 41.9452 286.298 45.0922C269.746 62.7727 270.096 93.5047 287.101 115.717C299.265 131.605 320.105 134.707 326.728 121.615C330.011 115.127 329.797 95.4032 326.342 85.9672C326.09 85.2797 325.273 82.4672 324.525 79.7172C319.272 60.3932 306.962 41.7642 297.913 39.4447L295.517 38.8307L296.664 36.5642C302.598 24.8442 286.979 12.5682 265.772 12.2827C260.254 12.2087 259.992 11.6957 264.693 10.1677C267.106 9.38322 269.149 9.23622 277.562 9.24172C296.431 9.25422 302.18 11.5047 312.421 22.8872C316.444 27.3582 323.411 28.9772 330.062 26.9867C331.162 26.6577 336.562 26.2027 342.062 25.9762C356.529 25.3802 357.721 24.8997 368.812 15.1972C382.146 3.53222 395.904 0.316717 408.55 5.91072C411.973 7.42472 411.366 7.71372 404.686 7.75372C389.413 7.84522 381.007 13.2497 377.528 25.2172C375.489 32.2317 376.696 37.8902 381.088 41.9042L383.756 44.3432L381.818 44.6032C378.313 45.0732 370.273 49.4497 366.997 52.6702C366.411 53.2462 364.767 54.7297 363.343 55.9672C347.824 69.4552 339.755 99.8852 346.924 117.89C354.287 136.382 368.566 135.76 384.687 116.244C385.305 115.495 385.812 114.676 385.812 114.425C385.812 114.173 386.012 113.967 386.257 113.967C386.862 113.967 392.76 104.604 395.077 99.9672C400.977 88.1577 403.26 75.9247 401.097 67.7172C399.274 60.8052 398.138 57.9342 395.753 54.2172C393.059 50.0197 392.961 49.6487 394.941 51.1592C398.515 53.8847 402.417 59.7822 404.575 65.7172C405.075 67.0922 405.651 68.4422 405.855 68.7172C406.609 69.7322 408.293 77.3992 409.095 83.4672C412.487 109.142 403.839 135.122 387.08 149.602C372.005 162.628 351.252 169.536 334.013 167.267C316.688 164.986 298.952 153.736 305.937 149.457C317.773 142.205 363.275 144.255 366.896 152.203C368.583 155.904 356.853 161.353 342.562 163.507C336.081 164.484 333.892 167.285 339.79 167.054C350.339 166.64 366.542 160.699 369.303 156.231C374.563 147.72 359.615 141.847 332.812 141.896C300.959 141.954 291.099 151.219 310.618 162.752C326.873 172.356 347.215 173.306 367.261 165.398C390.218 156.34 404.582 139.378 411.025 113.717C418.18 85.2157 407 48.8987 389.783 44.7177C387.586 44.1842 380.426 36.8327 380.026 34.7007C378.739 27.8402 382.541 18.6622 388.159 15.0712C393.352 11.7512 397.588 10.7992 406.931 10.8522C416.635 10.9072 416.964 10.7597 414.994 7.23572C412.184 2.20722 399.168 -1.28328 389.69 0.449719ZM299.139 43.5562C315.95 51.4582 332.053 103.537 323.185 121.32C318 131.718 297.657 125.878 287.667 111.123C274.727 92.0102 273.997 68.2022 285.831 51.2172C291.981 42.3902 294.084 41.1797 299.139 43.5562ZM386.577 47.6992C390.295 48.5487 397.472 63.3772 398.564 72.4672C401.046 93.1162 374.564 131.238 360.018 127.957C344.569 124.473 343.576 88.0802 358.348 66.7122C366.279 55.2392 379.78 46.1462 386.577 47.6992ZM275.61 338.496C271.339 339.211 265.327 339.541 264.174 339.124C262.761 338.612 267.075 338.147 273.562 338.11C277.518 338.088 277.765 338.135 275.61 338.496Z" fill="#16314F"/>
</svg>
