<svg width="423" height="340" viewBox="0 0 423 340" fill="none" xmlns="http://www.w3.org/2000/svg">
<path fill-rule="evenodd" clip-rule="evenodd" d="M105.384 181.632C94.6261 207.193 95.4101 209.029 123.868 224.951C168.447 249.893 176.631 272.233 160.456 324.836C158.521 331.129 156.936 336.668 156.934 337.145C156.919 341.285 208.709 336.227 209.891 331.973C212.543 322.433 210.455 317.611 203.171 316.446C192.451 314.733 188.438 298.105 189.112 258.186L189.429 239.45L186.929 238.231C184.386 236.992 163.353 232.661 147.931 230.201C133.281 227.865 133.945 228.487 118.908 202.998C111.188 189.913 109.048 185.093 108.977 180.632C108.915 176.755 107.239 177.222 105.384 181.632Z" fill="#D89687"/>
<path fill-rule="evenodd" clip-rule="evenodd" d="M251.339 14.0819C239.114 32.1177 226.915 66.3283 232.709 66.3283C247.129 66.3283 263.004 35.1211 258.836 14.9659C257.237 7.23598 256.073 7.09914 251.339 14.0819ZM235.545 15.3724C214.728 25.5464 207.79 65.3295 226.834 65.3295C228.144 65.3295 228.361 64.3766 230.194 50.5929C231.818 38.3843 236.188 27.0736 243.284 16.7068C247.917 9.93779 246.991 9.77798 235.545 15.3724ZM189.264 66.3843C178.933 88.4712 195.176 109.518 219.708 105.835L224.403 105.13L222.367 102.958C221.246 101.764 219.841 98.6063 219.245 95.9414C217.545 88.3444 215.827 85.8683 203.39 73.0884L191.731 61.1085L189.264 66.3843ZM243.961 67.8595C238.393 69.6324 235.799 72.6459 233.47 80.0442C232.519 83.0646 231.167 85.7574 230.464 86.0271C227.625 87.1178 229.517 88.0977 235.42 88.5931C238.849 88.8818 245.44 89.8376 250.068 90.7176C265.941 93.737 278.534 89.0985 286.385 77.3424C289.03 73.381 288.464 72.8217 281.8 72.8097C277.87 72.8017 272.346 71.8009 266.851 70.0989C255.425 66.5591 249.775 66.0067 243.961 67.8595ZM149.67 147.483C147.721 150.007 147.056 151.558 148.236 150.828C149.417 150.097 151.78 146.234 151.047 146.234C150.82 146.234 150.201 146.797 149.67 147.483ZM145.403 153.725C145.403 154 145.628 154.225 145.902 154.225C146.176 154.225 146.401 154 146.401 153.725C146.401 153.451 146.176 153.226 145.902 153.226C145.628 153.226 145.403 153.451 145.403 153.725ZM229.518 169.873C229.884 170.239 230.483 170.239 230.849 169.873C231.214 169.507 230.914 169.207 230.183 169.207C229.452 169.207 229.153 169.507 229.518 169.873ZM234.816 177.447C235.71 182.34 240.078 191.757 242.516 194.051C247.735 198.96 266.29 202.417 267.698 198.742C270.797 190.653 257.724 177.89 243.674 175.289C234.482 173.588 234.126 173.674 234.816 177.447ZM230.815 180.856C230.468 183.392 230.183 187.553 230.183 190.104C230.183 192.654 229.492 197.199 228.646 200.203C225.683 210.731 225.447 212.018 225.968 214.75C228.003 225.409 237.251 227.843 245.873 219.989C249.587 216.606 255.991 211.324 260.106 208.253L267.586 202.668L259.607 202.095C244.425 201.007 233.176 191.939 233.176 180.792C233.176 175.558 231.534 175.602 230.815 180.856Z" fill="#017260"/>
<path fill-rule="evenodd" clip-rule="evenodd" d="M277.648 104.564C275.972 108.976 278.661 117.686 286.862 134.413C297.808 156.737 302.755 168.678 302.364 171.836C302.079 174.129 301.442 173.392 297.755 166.506C295.401 162.111 292.17 156.268 290.575 153.521C288.981 150.775 285.846 143.989 283.608 138.443C278.846 126.637 277.229 124.056 274.593 124.056C265.978 124.056 266.893 144.554 275.709 149.059C281.882 152.212 288.668 167.671 288.591 178.402L288.569 181.488L286.632 178.991C285.567 177.618 282.436 172.423 279.675 167.448C270.658 151.206 271.184 150.051 273.744 180.489C275.196 197.75 273.626 197.23 295.595 187.74C317.945 178.086 326.386 176.069 329.066 179.738C331.431 182.978 331.999 179.896 332.577 160.681C333.252 138.283 333.928 140.459 321.836 126.127C304.71 105.827 283.731 93.0715 297.494 111.327C303.877 119.793 326.601 171.434 325.049 173.948C323.333 176.729 320.704 174.849 318.483 169.253C317.23 166.094 314.096 159.24 311.519 154.021C308.942 148.802 305.838 141.351 304.621 137.463C303.234 133.035 300.738 128.183 297.938 124.478C292.574 117.378 289.611 111.894 289.611 109.068C289.611 103.259 279.577 99.4819 277.648 104.564ZM167.696 104.893C166.197 105.882 161.474 110.262 157.199 114.625C152.924 118.988 144.164 127.21 137.731 132.898C124.015 145.021 124.695 142.911 131.579 152.01C139.075 161.919 140.252 164.436 140.922 171.983C141.487 178.371 141.553 178.493 145.737 180.8C148.334 182.232 150.956 184.809 152.501 187.449C155.013 191.742 157.085 192.935 162.072 192.961C163.515 192.969 172.253 195.222 181.49 197.969C205.127 204.998 205.274 204.842 187.021 192.105C178.445 186.121 176.578 183.923 178.868 182.506C179.4 182.176 180.734 178.891 181.834 175.206C183.129 170.867 185.223 166.825 187.773 163.743C193.906 156.33 196.67 147.029 192.74 147.029C190.213 147.029 181.53 158.019 166.309 180.487C163.233 185.028 161.947 183.824 164.516 178.809C167.35 173.279 183.438 149.88 188.355 144.138C196.198 134.978 199.67 125.055 195.03 125.055C192.629 125.055 190.232 127.801 183.69 138.04C173.424 154.107 152.829 180.989 150.784 180.989C145.055 180.989 158.671 158.286 173.845 142.534C187.541 128.319 195.349 113.339 192.742 106.282C190.367 99.8535 182.642 106.322 171.591 123.99C169.492 127.345 164.148 134.913 159.716 140.807C155.283 146.701 149.595 154.67 147.075 158.515L142.493 165.507L142.185 161.254C141.778 155.612 144.8 150.157 155.583 137.066C176.394 111.798 182.732 94.9633 167.696 104.893ZM292.73 112.32C294.526 115.702 301.365 124.804 302.758 125.666C304.166 126.537 299.433 118.128 295.81 113.319C293.022 109.619 290.935 108.942 292.73 112.32ZM341.167 140.191C338.864 141.481 339.051 144.232 341.822 149.809C344.427 155.052 348.531 166.512 350.913 175.195C353.408 184.292 354.84 183.722 354.166 173.899C352.889 155.275 346.021 137.47 341.167 140.191ZM309.141 143.034C309.959 146.055 314.387 155.019 315.062 155.019C316.305 155.019 315.217 152.01 311.992 146.53C310.053 143.233 308.77 141.66 309.141 143.034ZM114.655 146.341C112.858 147.655 111.039 157.017 112.58 157.017C114.328 157.017 120.438 146.751 119.343 145.655C118.355 144.666 116.589 144.924 114.655 146.341ZM150.25 147.279C148.301 149.803 147.636 151.354 148.816 150.624C149.997 149.893 152.36 146.03 151.627 146.03C151.4 146.03 150.781 146.592 150.25 147.279ZM171.32 148.854C165.685 153.743 153.459 172.001 154.251 174.347C154.464 174.978 155.375 174.075 156.275 172.34C157.575 169.83 165.337 159.39 174.182 148.253C176.104 145.833 174.386 146.194 171.32 148.854ZM334.983 161.799L335.697 176.569L332.353 180.939C328.327 186.199 320.711 191.627 315.706 192.805C313.696 193.278 308.075 194.43 303.214 195.365C288.266 198.24 284.926 200.487 269.481 218.06C261.838 226.758 258.157 228.85 248.871 229.78L242.234 230.445L242.393 235.159C242.481 237.752 244.154 245.39 246.111 252.132C249.276 263.04 249.783 266.426 250.709 282.869C252.411 313.094 254.304 326.636 257.522 331.598C258.427 332.993 308.497 311.223 308.54 309.417C308.552 308.911 303.252 303.068 296.762 296.432C269.602 268.66 282.161 237.051 326.413 221.804C350.092 213.645 356.455 188.236 342.524 157.469C335.755 142.518 334.096 143.471 334.983 161.799ZM120.825 149.776C112.913 158.811 112.505 177.325 119.928 190.478C137.45 221.527 138.934 223.376 147.125 224.37C150.063 224.725 159.872 226.548 168.924 228.419C177.975 230.29 187.068 232.091 189.129 232.42C195.583 233.454 195.796 234.399 195.565 260.905C195.263 295.619 199.071 308.172 209.905 308.172C219.663 308.172 223.858 289.4 219.438 265.508C218.307 259.392 217.797 251.095 217.797 238.79V220.942H214.54C209.637 220.942 204.698 217.815 202.56 213.359C201.528 211.212 200.353 208.81 199.947 208.022C199.08 206.337 173.105 197.439 164.436 195.856C161.144 195.255 157.442 194.578 156.209 194.35C154.974 194.122 152.763 192.115 151.289 189.883C149.666 187.428 146.764 184.894 143.925 183.454L139.24 181.076L138.831 174.659C137.966 161.045 125.744 144.156 120.825 149.776ZM279.324 161.262C282.196 166.827 284.227 169.806 284.431 168.753C284.818 166.759 280.349 156.465 277.939 153.798C274.315 149.788 274.827 152.549 279.324 161.262ZM145.983 153.521C145.983 153.796 146.208 154.021 146.482 154.021C146.756 154.021 146.981 153.796 146.981 153.521C146.981 153.247 146.756 153.022 146.482 153.022C146.208 153.022 145.983 153.247 145.983 153.521ZM314.206 183.012C304.025 186.607 300.984 187.981 303.199 187.981C304.772 187.981 322.908 182.079 324.491 181.051C328.046 178.745 324.223 179.473 314.206 183.012ZM305.539 189.874C272.793 199.747 231.906 226.935 249.805 226.935C257.654 226.935 260.823 224.618 275.414 208.221C284.572 197.929 290.494 194.825 306.181 192.098C316.686 190.272 322.631 188.235 324.017 185.99C325.061 184.3 321.662 185.014 305.539 189.874ZM350.766 199.717C350.425 200.679 348.864 204.345 347.298 207.865C344.232 214.758 344.224 215.685 347.245 214.066C350.83 212.144 355.496 197.969 352.543 197.969C351.908 197.969 351.108 198.755 350.766 199.717ZM204.083 202.69C201.903 203.458 202.69 204.464 208.898 208.848C215.551 213.547 216.718 213.626 214.446 209.226C212.166 204.812 207.111 201.624 204.083 202.69ZM203.011 208.606C203.241 209.074 204.053 210.707 204.815 212.236C206.518 215.653 212.541 219.613 213.924 218.228C214.551 217.601 213.498 215.997 210.947 213.689C206.938 210.062 202.253 207.061 203.011 208.606Z" fill="#D89687"/>
<path fill-rule="evenodd" clip-rule="evenodd" d="M252.377 1.60677C251.959 2.51327 251.349 4.09927 251.02 5.13027C250.637 6.33027 250.116 7.00527 249.57 7.00527C249.101 7.00527 247.262 7.77477 245.484 8.71527C243.705 9.65627 239.1 11.4773 235.25 12.7623C226.348 15.7333 223.341 17.3443 219.552 21.1723C212.695 28.0998 209.899 34.9378 209.807 45.0053C209.702 56.5023 213.799 65.1203 222.02 70.6973L223.788 71.8978L223.633 87.0763C223.479 102.18 223.472 102.258 222.364 102.873C221.751 103.213 220.754 103.494 220.148 103.498C218.957 103.506 218.85 103.161 218.223 97.2553C217.811 93.3733 215.378 88.1383 212.085 84.0508C209.606 80.9733 207.582 79.0698 202.222 74.7748C196.351 70.0708 191.008 63.4653 190.997 60.8968C190.99 59.3063 189.888 56.5053 189.269 56.5053C188.001 56.5053 182.945 66.1208 181.271 71.7158C179.455 77.7853 178.856 82.7388 179.478 86.5513C180.527 92.9868 182.304 96.9108 185.979 100.911C187.438 102.499 188.048 103.903 186.997 103.253C185.744 102.479 178.766 106.261 176.053 109.184C174.577 110.774 174 110.486 174 108.16C174 106.759 173.614 106.01 172.214 104.689C170.635 103.2 170.112 103.005 167.695 103.005C163.786 103.005 161.44 104.392 156.5 109.625C147.807 118.832 140.642 125.858 137 128.746C131.03 133.481 125.018 138.853 121.425 142.665L118.1 146.194L116.117 145.599C112.696 144.574 109.783 144.832 108.021 146.315C105.316 148.591 104.786 150.175 104.865 155.755C104.903 158.505 105.303 162.322 105.753 164.237C106.748 168.47 106.457 170.654 104.22 175.769C101.777 181.356 97.826 192.07 96.9995 195.349C96.4235 197.635 96.012 200.959 96.0075 203.361C95.992 211.787 98.8245 215.552 108.75 220.298C118.478 224.95 125.745 229.042 134.75 234.941C145.562 242.023 158.218 253.096 160.54 257.505C164.638 265.288 165.433 269.868 164.559 280.642C163.587 292.608 161.838 306.035 160.505 311.755C158.264 321.373 157.35 324.882 156.038 328.894C155.203 331.445 154.283 333.977 153.992 334.519C153.471 335.494 152.597 335.505 76.7325 335.505H0V336.755V338.005H77.4885H154.977L155.687 336.88C157.372 334.211 160.852 322.127 162.922 311.755C164.426 304.216 164.776 301.874 166.509 287.715C166.815 285.218 167.087 279.593 167.113 275.215C167.159 267.634 167.09 267.053 165.688 263.005C162.533 253.906 156.725 247.6 141.322 236.552C132.142 229.967 122.767 224.434 111.25 218.802C103.657 215.089 101.895 213.813 99.8715 210.559C98.863 208.937 98.755 208.15 98.798 202.755C98.851 196.104 99.6225 193.181 104.162 182.429C105.364 179.584 106.498 176.829 106.685 176.309C107.235 174.771 107.59 175.722 107.82 179.349C108.277 186.57 109.953 190.677 115.739 198.755C117.511 201.23 120.581 206.518 122.561 210.505C128.414 222.294 131.736 226.596 136.841 228.996C138.524 229.786 139.926 229.981 143.607 229.936C147.247 229.892 149.601 230.212 154.5 231.42C175.333 236.555 175.535 236.595 183.75 237.235C187.398 237.519 188.631 238.672 189.469 242.579C190.034 245.213 189.639 251.323 188.475 257.964C187.838 261.595 187.87 279.841 188.524 285.9C189.479 294.754 190.814 300.145 193.315 305.255C196.118 310.981 200.185 314.005 205.081 314.005C209.811 314.005 213.586 310.885 216.675 304.422C219.359 298.807 220.041 295.426 220.033 287.792C220.026 281.272 219.598 277.938 217.492 268.005C215.168 257.045 214.976 253.838 215.689 238.005C216.172 227.294 215.715 221.38 213.93 215.255C211.809 207.979 208.888 204.62 203.002 202.688C199.379 201.498 199.324 201.357 201.029 197.636C201.563 196.47 202 195.391 202 195.238C202 195.085 203.111 193.314 204.468 191.303C207.502 186.807 212.033 182.943 216.994 180.622C219.06 179.655 221.14 178.671 221.618 178.435C223.581 177.464 223.851 177.863 224.208 182.265C224.398 184.608 224.403 189.614 224.218 193.39C223.893 200.026 223.816 200.397 221.895 204.505C218.535 211.69 218.703 218.556 222.376 224.105C223.944 226.475 228.353 229.59 232.15 231.011L234.875 232.03L235.117 237.643C235.374 243.589 235.199 242.923 240.677 258.755C243.346 266.468 244 271.262 244 283.119C244 287.603 244.226 294.868 244.501 299.264C245.891 321.39 248.062 332.597 251.799 336.92L253.385 338.755L338.193 338.909L423 339.063V337.809V336.556L338.703 336.406L254.405 336.255L253.258 334.816C250.667 331.567 248.699 322.021 247.525 307.005C246.849 298.365 245.989 279.189 245.995 272.887C246.001 266.517 245.426 264.123 240.977 252.005C239.916 249.118 238.676 245.293 238.221 243.505C237.325 239.986 237.022 234.636 237.661 233.63C237.928 233.211 239.49 232.999 242.404 232.987C244.794 232.978 247.987 232.665 249.5 232.293C257.865 230.234 261.781 227.256 267.629 218.505C270.955 213.527 279.771 204.005 281.053 204.005C281.352 204.005 282.193 203.592 282.923 203.087C284.575 201.945 290.425 199.607 293.75 198.76C298.249 197.615 308.442 196.005 311.198 196.005C314.306 196.005 318.184 193.66 324.156 188.17C332.69 180.324 332.772 180.059 330.961 165.889C329.843 157.145 329.862 152.124 331.022 149.792C331.961 147.905 332.688 147.698 333.393 149.117C333.704 149.743 334.822 151.83 335.878 153.755C336.933 155.68 338.509 159.055 339.38 161.255C340.886 165.058 344.497 177.717 346.227 185.255C346.668 187.18 347.224 189.478 347.462 190.362C347.889 191.948 347.432 193.943 345.768 197.755C345.408 198.58 344.662 200.493 344.11 202.005C341.436 209.328 339.723 213.433 338.378 215.735C335.672 220.362 335.783 220.294 326.5 222.979C321.936 224.298 313.308 227.633 309.302 229.626C306.149 231.195 298.74 235.853 297.5 237.045C297.088 237.442 295.42 238.889 293.794 240.261C287.527 245.551 281.527 254.424 278.923 262.255C277.965 265.135 277.759 266.818 277.755 271.755C277.75 278.446 278.301 281.04 280.787 286.005C285.398 295.218 294.425 297.97 297.79 291.189C298.668 289.42 298.754 287.996 298.792 274.505C298.838 258.095 299.033 256.726 302.259 250.159C304.511 245.576 308.904 241.487 316.358 237.034C324.421 232.218 330.354 228.176 334.138 224.92C336.001 223.317 337.815 222.005 338.169 222.005C339.154 222.005 343.981 219.571 345.905 218.103C348.235 216.326 349.869 213.594 350.829 209.869C351.48 207.342 351.555 205.624 351.227 200.755C350.668 192.48 350.734 191.221 351.919 187.505C354.37 179.826 354.316 175.477 351.658 166.505C350.965 164.168 350.283 161.693 350.142 161.005C350 160.318 349.329 157.618 348.651 155.005C344.847 140.345 340.787 136.173 334.784 140.755C333.523 141.718 332.409 142.505 332.307 142.505C332.206 142.505 330.128 139.862 327.69 136.63C307.982 110.51 291.813 97.9823 286.72 104.886C286.275 105.49 285.807 105.361 283.773 104.071C280.594 102.055 276.873 100.844 275.071 101.24C274.285 101.412 272.99 102.233 272.195 103.064C270.788 104.534 270.751 104.709 270.789 109.665C270.818 113.447 271.137 115.847 272.034 119.005C272.697 121.343 273.243 123.464 273.246 123.718C273.248 123.973 271.788 124.135 270 124.078C264.676 123.908 262.451 125.932 261.835 131.505C261.399 135.446 262.243 140.422 264.448 146.901C266.312 152.38 266.347 152.61 265.632 154.651C264.844 156.902 264.98 163.896 265.98 172.505C266.862 180.093 267.528 187.614 267.934 194.541C268.152 198.273 268.51 201.617 268.729 201.972C269.1 202.572 268.296 203.479 267.375 203.498C267.169 203.502 267 202.084 267 200.346C267 187.372 255.263 176.705 238.556 174.494C236.249 174.188 233.45 174.005 232.335 174.085L230.307 174.232L229.719 171.743C228.743 167.612 228.041 157.961 227.735 144.505C227.476 133.097 226.625 111.102 226.266 106.505C226.19 105.543 226.422 103.63 226.781 102.255C227.14 100.88 227.583 98.3448 227.767 96.6208C228.326 91.3638 230.062 91.2283 244 95.3553C246.011 95.9508 248.899 96.1783 254.75 96.2028C262.279 96.2343 262.965 96.1558 266.398 94.8733C273.965 92.0458 279.686 88.5893 282.106 85.3823C285.077 81.4443 290 70.7133 290 68.1728C290 66.5093 288.695 66.6968 287.103 68.5893C286.37 69.4608 284.765 70.8108 283.537 71.5893C281.714 72.7453 280.748 73.0043 278.277 72.9993C274.822 72.9928 273.151 72.5553 262.75 68.9378C255.819 66.5273 254.822 66.3118 249.618 66.1038C243.629 65.8648 240.86 66.3173 237.079 68.1548C234.406 69.4538 230.741 72.6228 229.887 74.3753C228.911 76.3758 228 76.3833 228 74.3903C228 72.3503 229.071 71.2548 234.75 67.4873C248.729 58.2138 255.25 50.3268 258.301 39.0053C260.157 32.1183 259.202 18.8648 256.172 9.45077C255.765 8.18327 255.278 5.59877 255.09 3.70677C254.691 -0.322729 253.64 -1.13623 252.377 1.60677ZM254.63 13.3803C257.801 26.0053 257.78 33.5443 254.548 42.7393C252.579 48.3423 247.248 54.8778 240 60.5758C236.466 63.3538 228.934 68.5053 228.406 68.5053C227.618 68.5053 228.013 61.0233 229.044 56.4183C231.409 45.8578 237.444 31.0353 242.07 24.4283C242.582 23.6983 243.01 22.9108 243.023 22.6783C243.035 22.4458 244.498 20.2303 246.275 17.7553C248.051 15.2803 250.199 12.0743 251.049 10.6303C251.9 9.18627 252.75 8.00527 252.938 8.00527C253.125 8.00527 253.887 10.4238 254.63 13.3803ZM241.621 15.5913C236.24 22.8768 232.116 30.4193 229.57 37.6363C227.674 43.0108 226 51.1368 226 54.9713C226 57.6643 224.66 68.0113 224.26 68.4118C223.754 68.9178 221.86 67.7223 219.623 65.4853C212.554 58.4163 210.135 46.0078 213.729 35.2543C215.507 29.9338 217.029 27.4243 220.943 23.3553C223.192 21.0163 225.233 19.4618 227.482 18.3753C230.608 16.8643 243.066 12.4968 243.419 12.7878C243.512 12.8648 242.704 14.1263 241.621 15.5913ZM238 26.5053C238 26.7803 237.762 27.0053 237.471 27.0053C237.18 27.0053 237.08 26.7803 237.25 26.5053C237.42 26.2303 237.658 26.0053 237.779 26.0053C237.901 26.0053 238 26.2303 238 26.5053ZM236.673 28.7768C236.51 29.2013 236.269 29.4413 236.138 29.3103C236.007 29.1793 236.048 28.8318 236.23 28.5388C236.723 27.7408 237.011 27.8958 236.673 28.7768ZM236 30.2258C236 30.3473 235.74 30.6068 235.423 30.8028C235.065 31.0243 234.981 30.9403 235.202 30.5828C235.558 30.0063 236 29.8088 236 30.2258ZM234.561 32.8428C234.126 33.5923 234.027 33.6138 234.015 32.9638C233.999 32.1218 234.525 31.3633 234.879 31.7178C234.996 31.8348 234.853 32.3408 234.561 32.8428ZM234 34.2553C234 34.3928 233.888 34.5053 233.75 34.5053C233.612 34.5053 233.5 34.3928 233.5 34.2553C233.5 34.1178 233.612 34.0053 233.75 34.0053C233.888 34.0053 234 34.1178 234 34.2553ZM233.5 35.2553C233.5 35.3928 233.388 35.5053 233.25 35.5053C233.112 35.5053 233 35.3928 233 35.2553C233 35.1178 233.112 35.0053 233.25 35.0053C233.388 35.0053 233.5 35.1178 233.5 35.2553ZM233 36.7258C233 36.8473 232.74 37.1068 232.423 37.3028C232.065 37.5243 231.981 37.4403 232.202 37.0828C232.558 36.5063 233 36.3088 233 36.7258ZM189.765 64.6503C191.48 68.2723 194.212 71.2783 200.568 76.5393C207.446 82.2323 210.037 84.9443 212.529 89.0593C214.97 93.0908 215.481 94.6593 215.968 99.6008C216.446 104.449 217.374 106.005 219.791 106.005C222.272 106.005 221.544 106.727 218.139 107.643C213.438 108.909 210.074 109.084 205.75 108.289C200.355 107.296 199.135 106.894 195.111 104.779C190.077 102.134 186.464 98.4058 183.999 93.3118C182.027 89.2388 181.962 88.9408 181.941 83.9303C181.915 77.8593 182.615 74.2848 184.863 69.0053C186.159 65.9608 188.11 62.0053 188.315 62.0053C188.424 62.0053 189.076 63.1953 189.765 64.6503ZM253.5 68.7478C254.737 68.9463 258 69.8903 260.75 70.8463C272.603 74.9668 274.571 75.5053 277.785 75.5053C279.568 75.5053 281.877 75.1463 283.01 74.6928C284.127 74.2458 285.142 73.9813 285.266 74.1043C285.389 74.2278 284.617 76.1123 283.549 78.2918C279.931 85.6838 273.399 90.3998 262.75 93.3103C259.808 94.1143 249.664 94.2308 246.75 93.4938C245.65 93.2158 243.288 92.5593 241.5 92.0348C235.525 90.2808 234.151 90.0053 231.385 90.0053C229.398 90.0053 228.285 90.2808 227.372 90.9993L226.108 91.9928L225.911 90.3038C225.639 87.9793 225.905 87.3038 226.798 88.0458C227.334 88.4903 227.676 88.4818 228.245 88.0098C228.654 87.6698 228.905 87.2488 228.803 87.0738C228.337 86.2753 229.533 80.8073 230.781 78.0243C234.211 70.3828 242.521 66.9898 253.5 68.7478ZM281.651 105.671C284.556 107.373 284.819 107.775 285.225 111.137C285.719 115.221 288.276 119.971 292.895 125.383C297.899 131.248 299.154 133.582 300.77 140.041C302.983 148.886 303.306 149.641 309.327 160.005C311.967 164.55 313.617 168.379 314.5 172.005C315.765 177.206 316.452 177.855 320.056 177.246C322.616 176.813 322.928 175.952 321.376 173.607C319.189 170.302 318.078 167.752 315.965 161.183C314.769 157.466 312.31 151.6 310.134 147.275C308.065 143.16 305.632 137.511 304.728 134.722C301.94 126.119 296.415 116.397 290.727 110.081C288.8 107.941 288.421 107.241 288.835 106.581C290.372 104.124 295.965 106.46 302.765 112.399C307.153 116.232 314.523 123.896 317.353 127.567C318.121 128.564 320.555 131.602 322.761 134.317C324.967 137.033 327.648 140.548 328.718 142.129L330.664 145.002L329.396 147.629C327.289 151.991 327.247 154.625 329.025 170.817C329.768 177.591 329.497 179.244 327.203 181.924C325.177 184.292 324.337 184.579 324.797 182.749C325.299 180.749 324.268 180.005 320.993 180.005C316.083 180.005 306.172 183.615 289.5 191.476C285.513 193.356 281.013 195.176 279.5 195.52C277.987 195.864 275.541 196.677 274.063 197.326C272.585 197.974 271.211 198.505 271.011 198.505C270.81 198.505 270.49 195.861 270.3 192.63C269.98 187.222 269.277 179.718 268.013 168.255C267.375 162.464 267.361 156.505 267.986 156.505C268.253 156.505 269.114 157.799 269.9 159.38C271.648 162.9 273.74 166.706 277.526 173.255C279.116 176.005 281.044 179.549 281.812 181.13C283.187 183.96 284.257 184.721 284.815 183.265C285.201 182.26 283.241 170.676 281.944 166.295C280.404 161.093 278.153 156.739 275.551 153.928C273.583 151.802 272.896 151.393 270.807 151.099L268.365 150.755L266.761 146.005C264.555 139.473 264 136.971 264 133.572C264 128.535 267.016 125.433 270.897 126.477C274.279 127.388 274.999 128.604 279.504 141.005C283.31 151.484 286.479 157.533 291.554 164.005C292.308 164.968 293.747 168.227 294.75 171.249C295.753 174.27 296.819 176.893 297.117 177.077C298.377 177.856 299 176.877 299 174.119C299 171.809 298.656 170.714 296.961 167.627C295.84 165.584 294.169 161.852 293.246 159.334C291.106 153.488 288.038 146.391 286.404 143.505C285.703 142.268 283.976 139.269 282.565 136.841C281.154 134.413 280 132.335 280 132.223C280 132.112 279.347 130.948 278.549 129.638C274.828 123.525 271.764 108.749 273.533 105.444C274.689 103.283 277.721 103.368 281.651 105.671ZM170.51 106.264C173.059 108.571 171.836 112.942 166.926 119.072C164.863 121.648 161.565 126.005 159.598 128.755C155.057 135.104 153.314 137.282 147.684 143.635C139.786 152.55 136.953 157.922 136.822 164.24C136.762 167.155 136.889 167.753 137.6 167.897C138.193 168.017 138.821 167.341 139.673 165.662C141.915 161.243 148.887 151.201 155.5 142.867C163.492 132.794 164.802 131.017 167.275 126.896C168.636 124.628 170.662 120.93 171.777 118.68C175.728 110.703 185.819 103.524 188.514 106.772C190.068 108.644 189.463 114.915 187.262 119.755C183.776 127.421 182.141 130.421 179.182 134.576C174.749 140.803 173.011 142.642 165.479 149.074C160.74 153.121 158.795 155.154 157.346 157.574C156.298 159.324 153.953 163.23 152.135 166.255C146.934 174.909 145.859 177.326 145.801 180.489C145.756 182.939 145.87 183.272 146.802 183.405C148.255 183.613 152.257 179.142 155.224 173.997C156.508 171.77 158.74 168.555 160.182 166.852C170.197 155.023 178.913 142.472 183.507 133.266C183.916 132.448 185.263 130.721 186.5 129.43C190.505 125.251 193.364 125.757 192.825 130.548C192.187 136.206 188.321 143.557 184.56 146.261C181.084 148.76 178.712 151.709 173.418 160.114C171.4 163.317 167.603 169.159 164.98 173.096C162.357 177.034 159.713 181.186 159.105 182.323C157.545 185.242 157.652 187.299 159.33 186.655C160.215 186.316 164.767 179.596 168.747 172.755C171.532 167.968 186.545 148.505 187.452 148.505C187.692 148.505 188.394 148.914 189.011 149.414C189.946 150.17 190.129 150.803 190.107 153.195C190.068 157.592 187.501 162.576 183.023 166.949C179.253 170.63 178.004 172.842 177.992 175.864C177.979 179.205 176.127 183.83 174.051 185.709C172.507 187.107 172.737 187.778 175.375 189.576C176.681 190.467 180.397 193.187 183.633 195.621C186.868 198.055 190.805 200.742 192.383 201.591C193.96 202.44 195.525 203.388 195.86 203.698C196.509 204.297 196.183 206.505 195.445 206.505C195.205 206.505 191.237 205.239 186.628 203.692C182.02 202.144 176.45 200.329 174.25 199.658C172.05 198.987 168 197.739 165.25 196.885C161.837 195.824 158.742 195.24 155.5 195.043L150.75 194.755L149.167 191.573C146.614 186.438 144.044 184.207 138.932 182.689C136.619 182.002 136.511 181.893 136.87 180.61C137.484 178.418 137.192 172.436 136.352 170.005C133.964 163.089 130.084 157.06 124.457 151.523L120.358 147.49L121.304 146.374C123.316 144.001 128.795 138.839 133.173 135.192C141.328 128.399 143.204 126.797 145.984 124.255C149.725 120.836 149.38 121.192 153.004 117.012C158.957 110.147 161.23 107.909 163.75 106.431C166.485 104.826 168.856 104.768 170.51 106.264ZM200.199 109.612C205.938 111.527 216.029 111.368 221.063 109.283C222.013 108.889 222.226 112.645 223.023 143.755C223.283 153.93 223.644 165.113 223.824 168.607L224.15 174.958L222.95 175.429C213.659 179.069 208.883 181.978 205.29 186.183C202.521 189.424 199.986 193.582 198.465 197.378C197.831 198.96 197.079 200.412 196.795 200.603C196.08 201.084 191.647 198.478 186.038 194.281C183.447 192.342 180.409 190.113 179.288 189.327C176.294 187.23 176.315 187.281 177.619 185.188C179.269 182.54 179.471 181.904 180.31 176.762L181.042 172.268L184.439 169.012C190.162 163.524 193.845 155.296 192.535 150.924C192.213 149.848 191.285 148.376 190.474 147.653C188.822 146.181 188.696 145.684 189.685 144.545C192.367 141.454 195.187 133.839 195.223 129.588C195.247 126.689 195.126 126.314 193.783 125.158C192.538 124.086 191.99 123.939 190.158 124.19C188.971 124.353 188 124.384 188 124.26C188 124.136 188.552 122.785 189.227 121.259C191.888 115.243 192.642 109.666 191.245 106.338C190.925 105.576 191.393 105.689 194.003 107.007C195.732 107.88 198.52 109.052 200.199 109.612ZM293.64 117.94C295.4 120.588 297.573 124.218 298.47 126.005C299.367 127.793 300.319 129.671 300.585 130.179C301.553 132.026 300.611 131.471 299.247 129.39C298.478 128.216 296.571 125.793 295.011 124.005C290.337 118.651 288 114.696 288 112.145V110.831L289.22 111.977C289.891 112.608 291.881 115.291 293.64 117.94ZM164 127.755C164 127.893 163.888 128.005 163.75 128.005C163.612 128.005 163.5 127.893 163.5 127.755C163.5 127.618 163.612 127.505 163.75 127.505C163.888 127.505 164 127.618 164 127.755ZM163 129.194C163 129.298 162.657 129.667 162.238 130.015C161.602 130.543 161.529 130.512 161.792 129.826C162.061 129.125 163 128.634 163 129.194ZM160.037 133.144L158.88 134.255L159.758 132.865C160.241 132.1 160.761 131.6 160.915 131.754C161.068 131.907 160.674 132.533 160.037 133.144ZM307.031 146.542C308.069 148.625 309.353 151.104 309.885 152.051C311.063 154.149 313.177 159.995 312.869 160.303C312.366 160.806 307.259 151.975 305.467 147.505C304.861 145.993 304.201 143.968 303.999 143.005C303.797 142.043 303.48 140.58 303.296 139.755C303.039 138.608 303.217 138.785 304.052 140.505C304.653 141.743 305.994 144.459 307.031 146.542ZM153.5 141.255C153.5 141.393 153.388 141.505 153.25 141.505C153.112 141.505 153 141.393 153 141.255C153 141.118 153.112 141.005 153.25 141.005C153.388 141.005 153.5 141.118 153.5 141.255ZM340.445 141.976C342.202 142.916 345.368 151.262 347.475 160.505C347.82 162.018 348.438 164.268 348.849 165.505C350.484 170.427 351.064 173.431 351.115 177.255C351.164 180.939 350.204 186.505 349.521 186.505C349.361 186.505 348.262 182.849 347.078 178.38C345.893 173.912 344.232 168.005 343.387 165.255C341.892 160.39 337.105 149.962 335.03 147.048C333.704 145.186 333.727 144.946 335.375 143.411C337.388 141.535 338.849 141.122 340.445 141.976ZM152.5 142.255C152.5 142.393 152.388 142.505 152.25 142.505C152.112 142.505 152 142.393 152 142.255C152 142.118 152.112 142.005 152.25 142.005C152.388 142.005 152.5 142.118 152.5 142.255ZM286.422 149.255C287.312 151.18 288.272 153.171 288.555 153.679C289.012 154.501 288.814 155.496 288.298 154.964C287.687 154.332 283.001 144.244 283.002 143.564C283.005 142.524 284.325 144.721 286.422 149.255ZM151.202 144.083C151.005 144.401 149.399 146.595 147.633 148.958C145.866 151.322 143.604 154.575 142.605 156.187C140.735 159.204 139.774 159.37 141.29 156.414C142.91 153.254 145.373 149.901 149.189 145.66C151.064 143.576 151.939 142.891 151.202 144.083ZM171.674 147.947C170.567 149.673 169.548 151.087 166.283 155.43C163.666 158.909 162.931 159.813 159.75 163.469C156.951 166.686 154.347 170.322 152.742 173.255C151.024 176.394 149.091 179.005 148.486 179.005C147.796 179.005 148.834 176.88 152.529 170.732C154.355 167.694 155.939 164.988 156.049 164.718C156.159 164.448 157.375 162.344 158.75 160.044C160.842 156.544 162.149 155.096 166.75 151.184C169.775 148.612 172.328 146.507 172.424 146.506C172.52 146.506 172.182 147.154 171.674 147.947ZM115.459 148.23C115.851 148.472 115.451 149.4 114.207 151.131C112.414 153.626 109.461 159.337 108.789 161.607L108.449 162.755L107.899 161.505C107.104 159.696 107.117 152.072 107.919 150.172C109.044 147.507 112.746 146.553 115.459 148.23ZM123.396 153.992C130.088 160.639 134.98 169.917 134.995 175.989C134.998 177.217 134.633 179.183 134.184 180.358C133.148 183.072 133.625 183.726 137.441 184.823C143.479 186.558 145.911 188.93 147.71 194.835C148.284 196.72 149.35 197.106 155.176 197.541C158.306 197.775 161.402 198.176 162.058 198.433C162.713 198.691 164.15 199.149 165.25 199.452C170.009 200.764 184.588 205.498 193.076 208.487C195.601 209.376 195.693 209.476 196.35 212.078C197.359 216.076 198.31 217.788 200.903 220.276C204.574 223.8 209.502 224.931 211.683 222.751C212.274 222.16 212.524 222.133 212.843 222.626C213.067 222.972 213.186 231.018 213.107 240.505L212.965 257.755L214.947 267.755C216.037 273.255 217.208 279.949 217.551 282.63C219.207 295.598 214.009 309.315 206.598 311.535C202.164 312.864 196.687 308.291 194.255 301.23C191.921 294.452 191.122 289.482 190.516 277.964C190.034 268.794 190.386 260.358 191.515 254.038C192.175 250.342 192.128 241.87 191.438 240.154C189.702 235.836 188.576 235.011 184.4 234.996C180.117 234.981 171.464 233.196 153.5 228.622C149.497 227.603 147.219 227.309 143.91 227.384C139.012 227.496 137.051 226.898 134.247 224.436C131.764 222.256 128.407 216.9 124.949 209.606C123.338 206.207 120.074 200.595 117.696 197.133C115.318 193.672 112.863 189.69 112.242 188.285C110.937 185.335 110 179.951 110 175.406C110 173.67 109.788 171.509 109.529 170.606C108.704 167.73 112.458 157.671 116.32 152.411C117.291 151.088 118.377 150.005 118.733 150.005C119.09 150.005 121.188 151.799 123.396 153.992ZM274.172 156.049C276.522 158.795 278.369 162.685 279.811 167.926C281.133 172.731 281.229 173.505 280.5 173.505C280.225 173.505 280 173.29 280 173.027C280 172.764 279.366 171.471 278.591 170.152C277.816 168.834 275.758 165.055 274.018 161.755C272.279 158.455 270.638 155.477 270.372 155.137C270.106 154.796 270.022 154.168 270.186 153.74C270.599 152.664 271.938 153.44 274.172 156.049ZM227.184 171.837C227.523 174.313 227.391 174.806 226.533 174.276C225.899 173.884 225.807 169.505 226.432 169.505C226.67 169.505 227.008 170.555 227.184 171.837ZM318.629 174.7C318.474 174.951 318.052 174.752 317.69 174.257C317.328 173.763 317.159 173.153 317.314 172.902C317.469 172.651 317.892 172.85 318.254 173.345C318.616 173.839 318.784 174.45 318.629 174.7ZM242 177.592C249.205 179.313 253.808 181.71 258.048 185.95C261.952 189.854 263.82 193.52 264.302 198.225C264.564 200.779 264.486 201.536 263.943 201.724C262.08 202.366 251.43 202.856 248.985 202.412C239.972 200.773 234.088 193.01 230.802 178.422C230.613 177.58 230.732 176.991 231.126 176.824C232.027 176.443 239.357 176.96 242 177.592ZM229.244 182.135C230.485 187.256 233.529 194.052 236.039 197.306C240.38 202.932 245.281 205.021 254.033 204.975C257.177 204.959 260.875 204.759 262.25 204.53C263.625 204.302 264.937 204.228 265.166 204.365C265.394 204.502 262.694 206.524 259.166 208.857C248.969 215.599 242.202 221.366 238.469 226.492C237.262 228.149 236.008 229.505 235.682 229.505C233.825 229.505 229.065 227.034 226.624 224.803C223.14 221.619 221.935 218.926 221.903 214.255C221.882 211.191 222.143 210.163 223.998 206.005C225.953 201.623 226.153 200.772 226.584 195.005C226.84 191.568 226.938 186.25 226.801 183.188C226.663 180.126 226.702 177.47 226.887 177.285C227.492 176.681 228.352 178.45 229.244 182.135ZM322 182.732C322 183.485 320.022 184.551 317 185.425C313.209 186.522 304.593 189.139 301.75 190.058C300.1 190.591 298.002 191.268 297.087 191.562C294.718 192.324 294.525 191.722 296.821 190.731C303.939 187.659 306.114 186.753 309 185.661C312.194 184.452 317.282 182.81 319.25 182.353C321.192 181.902 322 182.013 322 182.732ZM320 188.595C315.593 192.489 312.237 193.997 307.942 194.014C305.766 194.023 298.586 195.076 294.75 195.948C288.914 197.275 282.549 200.03 278.332 203.054C274.52 205.788 270.92 209.695 266.63 215.755C260.084 225.004 258.045 226.864 252.191 228.939C248.1 230.389 239.5 231.024 239.5 229.876C239.5 228.736 243.407 224.128 246.803 221.264C248.424 219.896 249.862 218.659 250 218.515C250.259 218.242 255.914 214.005 258.355 212.255C263.044 208.894 277.683 200.216 283 197.645C283.688 197.313 285.938 196.68 288 196.238C294.596 194.826 296.068 194.429 305.5 191.513C309.213 190.366 314.162 188.864 316.5 188.176C318.838 187.488 320.96 186.722 321.216 186.473C321.473 186.225 321.811 186.153 321.966 186.314C322.122 186.475 321.237 187.501 320 188.595ZM348.992 202.88C348.98 210.474 347.413 214.124 342.86 217.165C340.244 218.911 338.825 219.128 340.133 217.581C340.899 216.675 343.394 211.487 344.017 209.505C344.234 208.818 345.128 206.343 346.004 204.005C346.881 201.668 347.715 199.361 347.858 198.88C348.507 196.686 348.999 198.421 348.992 202.88ZM205.285 206.272C207.641 207.626 209.637 210.296 211.024 213.947C212.417 217.614 212.249 217.937 210.125 215.677C208.035 213.455 202.337 209.308 200.67 208.797C199.051 208.301 198.345 207.19 198.714 205.721C199.019 204.507 199.175 204.446 201.145 204.763C202.303 204.949 204.166 205.628 205.285 206.272ZM202.41 212.575C205.632 214.736 210 219.044 210 220.06C210 222.706 204.442 220.933 201.361 217.302C199.505 215.116 198.314 211.005 199.535 211.005C199.829 211.005 201.123 211.712 202.41 212.575ZM327.393 227.173C325.39 228.595 322.288 230.636 320.5 231.707C306.542 240.074 303.105 242.979 300.082 248.973C297.862 253.374 297.706 253.863 296.743 259.505C295.905 264.417 295.82 271.14 296.509 278.219C297.043 283.716 296.506 288.767 295.172 290.804C293.426 293.469 289.31 292.789 286.098 289.304C282.115 284.983 279.992 279.042 280.018 272.298C280.04 266.758 280.868 263.102 283.228 258.132C288.046 247.987 297.726 238.509 309.548 232.359C315.571 229.226 329.676 223.895 330.643 224.387C330.859 224.497 329.397 225.75 327.393 227.173Z" fill="black"/>
</svg>
