<svg width="566" height="566" viewBox="0 0 566 566" fill="none" xmlns="http://www.w3.org/2000/svg">
<rect x="0.0976562" y="292.638" width="400" height="400" transform="rotate(-47 0.0976562 292.638)" fill="#A5C2DF"/>
<path fill-rule="evenodd" clip-rule="evenodd" d="M155.384 271.632C144.626 297.193 145.41 299.029 173.868 314.951C218.447 339.893 226.631 362.233 210.456 414.836C208.521 421.129 206.936 426.668 206.934 427.145C206.919 431.285 258.709 426.227 259.891 421.973C262.543 412.433 260.455 407.611 253.171 406.446C242.451 404.733 238.438 388.105 239.112 348.186L239.429 329.45L236.929 328.231C234.386 326.992 213.353 322.661 197.931 320.201C183.281 317.865 183.945 318.487 168.908 292.998C161.188 279.913 159.048 275.093 158.977 270.632C158.915 266.755 157.239 267.222 155.384 271.632Z" fill="#D89687"/>
<path fill-rule="evenodd" clip-rule="evenodd" d="M301.339 104.082C289.114 122.118 276.915 156.328 282.709 156.328C297.129 156.328 313.004 125.121 308.836 104.966C307.237 97.236 306.073 97.0991 301.339 104.082ZM285.545 105.372C264.728 115.546 257.79 155.33 276.834 155.33C278.144 155.33 278.361 154.377 280.194 140.593C281.818 128.384 286.188 117.074 293.284 106.707C297.917 99.9378 296.991 99.778 285.545 105.372ZM239.264 156.384C228.933 178.471 245.176 199.518 269.708 195.835L274.403 195.13L272.367 192.958C271.246 191.764 269.841 188.606 269.245 185.941C267.545 178.344 265.827 175.868 253.39 163.088L241.731 151.108L239.264 156.384ZM293.961 157.86C288.393 159.632 285.799 162.646 283.47 170.044C282.519 173.065 281.167 175.757 280.464 176.027C277.625 177.118 279.517 178.098 285.42 178.593C288.849 178.882 295.44 179.838 300.068 180.718C315.941 183.737 328.534 179.098 336.385 167.342C339.03 163.381 338.464 162.822 331.8 162.81C327.87 162.802 322.346 161.801 316.851 160.099C305.425 156.559 299.775 156.007 293.961 157.86ZM199.67 237.483C197.721 240.007 197.056 241.558 198.236 240.828C199.417 240.097 201.78 236.234 201.047 236.234C200.82 236.234 200.201 236.797 199.67 237.483ZM195.403 243.725C195.403 244 195.628 244.225 195.902 244.225C196.176 244.225 196.401 244 196.401 243.725C196.401 243.451 196.176 243.226 195.902 243.226C195.628 243.226 195.403 243.451 195.403 243.725ZM279.518 259.873C279.884 260.239 280.483 260.239 280.849 259.873C281.214 259.507 280.914 259.207 280.183 259.207C279.452 259.207 279.153 259.507 279.518 259.873ZM284.816 267.447C285.71 272.34 290.078 281.757 292.516 284.051C297.735 288.96 316.29 292.417 317.698 288.742C320.797 280.653 307.724 267.89 293.674 265.289C284.482 263.588 284.126 263.674 284.816 267.447ZM280.815 270.856C280.468 273.392 280.183 277.553 280.183 280.104C280.183 282.654 279.492 287.199 278.646 290.203C275.683 300.731 275.447 302.018 275.968 304.75C278.003 315.409 287.251 317.843 295.873 309.989C299.587 306.606 305.991 301.324 310.106 298.253L317.586 292.668L309.607 292.095C294.425 291.007 283.176 281.939 283.176 270.792C283.176 265.558 281.534 265.602 280.815 270.856Z" fill="#017260"/>
<path fill-rule="evenodd" clip-rule="evenodd" d="M327.648 194.564C325.972 198.976 328.661 207.686 336.862 224.413C347.808 246.737 352.755 258.678 352.364 261.836C352.079 264.129 351.442 263.392 347.755 256.506C345.401 252.111 342.17 246.268 340.575 243.521C338.981 240.775 335.846 233.989 333.608 228.443C328.846 216.637 327.229 214.056 324.593 214.056C315.978 214.056 316.893 234.554 325.709 239.059C331.882 242.212 338.668 257.671 338.591 268.402L338.569 271.488L336.632 268.991C335.567 267.618 332.436 262.423 329.675 257.448C320.658 241.206 321.184 240.051 323.744 270.489C325.196 287.75 323.626 287.23 345.595 277.74C367.945 268.086 376.386 266.069 379.066 269.738C381.431 272.978 381.999 269.896 382.577 250.681C383.252 228.283 383.928 230.459 371.836 216.127C354.71 195.827 333.731 183.071 347.494 201.327C353.877 209.793 376.601 261.434 375.049 263.948C373.333 266.729 370.704 264.849 368.483 259.253C367.23 256.094 364.096 249.24 361.519 244.021C358.942 238.802 355.838 231.351 354.621 227.463C353.234 223.035 350.738 218.183 347.938 214.478C342.574 207.378 339.611 201.894 339.611 199.068C339.611 193.259 329.577 189.482 327.648 194.564ZM217.696 194.893C216.197 195.882 211.474 200.262 207.199 204.625C202.924 208.988 194.164 217.21 187.731 222.898C174.015 235.021 174.695 232.911 181.579 242.01C189.075 251.919 190.252 254.436 190.922 261.983C191.487 268.371 191.553 268.493 195.737 270.8C198.334 272.232 200.956 274.809 202.501 277.449C205.013 281.742 207.085 282.935 212.072 282.961C213.515 282.969 222.253 285.222 231.49 287.969C255.127 294.998 255.274 294.842 237.021 282.105C228.445 276.121 226.578 273.923 228.868 272.506C229.4 272.176 230.734 268.891 231.834 265.206C233.129 260.867 235.223 256.825 237.773 253.743C243.906 246.33 246.67 237.029 242.74 237.029C240.213 237.029 231.53 248.019 216.309 270.487C213.233 275.028 211.947 273.824 214.516 268.809C217.35 263.279 233.438 239.88 238.355 234.138C246.198 224.978 249.67 215.055 245.03 215.055C242.629 215.055 240.232 217.801 233.69 228.04C223.424 244.107 202.829 270.989 200.784 270.989C195.055 270.989 208.671 248.286 223.845 232.534C237.541 218.319 245.349 203.339 242.742 196.282C240.367 189.853 232.642 196.322 221.591 213.99C219.492 217.345 214.148 224.913 209.716 230.807C205.283 236.701 199.595 244.67 197.075 248.515L192.493 255.507L192.185 251.254C191.778 245.612 194.8 240.157 205.583 227.066C226.394 201.798 232.732 184.963 217.696 194.893ZM342.73 202.32C344.526 205.702 351.365 214.804 352.758 215.666C354.166 216.537 349.433 208.128 345.81 203.319C343.022 199.619 340.935 198.942 342.73 202.32ZM391.167 230.191C388.864 231.481 389.051 234.232 391.822 239.809C394.427 245.052 398.531 256.512 400.913 265.195C403.408 274.292 404.84 273.722 404.166 263.899C402.889 245.275 396.021 227.47 391.167 230.191ZM359.141 233.034C359.959 236.055 364.387 245.019 365.062 245.019C366.305 245.019 365.217 242.01 361.992 236.53C360.053 233.233 358.77 231.66 359.141 233.034ZM164.655 236.341C162.858 237.655 161.039 247.017 162.58 247.017C164.328 247.017 170.438 236.751 169.343 235.655C168.355 234.666 166.589 234.924 164.655 236.341ZM200.25 237.279C198.301 239.803 197.636 241.354 198.816 240.624C199.997 239.893 202.36 236.03 201.627 236.03C201.4 236.03 200.781 236.592 200.25 237.279ZM221.32 238.854C215.685 243.743 203.459 262.001 204.251 264.347C204.464 264.978 205.375 264.075 206.275 262.34C207.575 259.83 215.337 249.39 224.182 238.253C226.104 235.833 224.386 236.194 221.32 238.854ZM384.983 251.799L385.697 266.569L382.353 270.939C378.327 276.199 370.711 281.627 365.706 282.805C363.696 283.278 358.075 284.43 353.214 285.365C338.266 288.24 334.926 290.487 319.481 308.06C311.838 316.758 308.157 318.85 298.871 319.78L292.234 320.445L292.393 325.159C292.481 327.752 294.154 335.39 296.111 342.132C299.276 353.04 299.783 356.426 300.709 372.869C302.411 403.094 304.304 416.636 307.522 421.598C308.427 422.993 358.497 401.223 358.54 399.417C358.552 398.911 353.252 393.068 346.762 386.432C319.602 358.66 332.161 327.051 376.413 311.804C400.092 303.645 406.455 278.236 392.524 247.469C385.755 232.518 384.096 233.471 384.983 251.799ZM170.825 239.776C162.913 248.811 162.505 267.325 169.928 280.478C187.45 311.527 188.934 313.376 197.125 314.37C200.063 314.725 209.872 316.548 218.924 318.419C227.975 320.29 237.068 322.091 239.129 322.42C245.583 323.454 245.796 324.399 245.565 350.905C245.263 385.619 249.071 398.172 259.905 398.172C269.663 398.172 273.858 379.4 269.438 355.508C268.307 349.392 267.797 341.095 267.797 328.79V310.942H264.54C259.637 310.942 254.698 307.815 252.56 303.359C251.528 301.212 250.353 298.81 249.947 298.022C249.08 296.337 223.105 287.439 214.436 285.856C211.144 285.255 207.442 284.578 206.209 284.35C204.974 284.122 202.763 282.115 201.289 279.883C199.666 277.428 196.764 274.894 193.925 273.454L189.24 271.076L188.831 264.659C187.966 251.045 175.744 234.156 170.825 239.776ZM329.324 251.262C332.196 256.827 334.227 259.806 334.431 258.753C334.818 256.759 330.349 246.465 327.939 243.798C324.315 239.788 324.827 242.549 329.324 251.262ZM195.983 243.521C195.983 243.796 196.208 244.021 196.482 244.021C196.756 244.021 196.981 243.796 196.981 243.521C196.981 243.247 196.756 243.022 196.482 243.022C196.208 243.022 195.983 243.247 195.983 243.521ZM364.206 273.012C354.025 276.607 350.984 277.981 353.199 277.981C354.772 277.981 372.908 272.079 374.491 271.051C378.046 268.745 374.223 269.473 364.206 273.012ZM355.539 279.874C322.793 289.747 281.906 316.935 299.805 316.935C307.654 316.935 310.823 314.618 325.414 298.221C334.572 287.929 340.494 284.825 356.181 282.098C366.686 280.272 372.631 278.235 374.017 275.99C375.061 274.3 371.662 275.014 355.539 279.874ZM400.766 289.717C400.425 290.679 398.864 294.345 397.298 297.865C394.232 304.758 394.224 305.685 397.245 304.066C400.83 302.144 405.496 287.969 402.543 287.969C401.908 287.969 401.108 288.755 400.766 289.717ZM254.083 292.69C251.903 293.458 252.69 294.464 258.898 298.848C265.551 303.547 266.718 303.626 264.446 299.226C262.166 294.812 257.111 291.624 254.083 292.69ZM253.011 298.606C253.241 299.074 254.053 300.707 254.815 302.236C256.518 305.653 262.541 309.613 263.924 308.228C264.551 307.601 263.498 305.997 260.947 303.689C256.938 300.062 252.253 297.061 253.011 298.606Z" fill="#D89687"/>
<path fill-rule="evenodd" clip-rule="evenodd" d="M302.377 91.6068C301.959 92.5133 301.349 94.0993 301.02 95.1303C300.637 96.3303 300.116 97.0053 299.57 97.0053C299.101 97.0053 297.262 97.7748 295.484 98.7153C293.705 99.6563 289.1 101.477 285.25 102.762C276.348 105.733 273.341 107.344 269.552 111.172C262.695 118.1 259.899 124.938 259.807 135.005C259.702 146.502 263.799 155.12 272.02 160.697L273.788 161.898L273.633 177.076C273.479 192.18 273.472 192.258 272.364 192.873C271.751 193.213 270.754 193.494 270.148 193.498C268.957 193.506 268.85 193.161 268.223 187.255C267.811 183.373 265.378 178.138 262.085 174.051C259.606 170.973 257.582 169.07 252.222 164.775C246.351 160.071 241.008 153.465 240.997 150.897C240.99 149.306 239.888 146.505 239.269 146.505C238.001 146.505 232.945 156.121 231.271 161.716C229.455 167.785 228.856 172.739 229.478 176.551C230.527 182.987 232.304 186.911 235.979 190.911C237.438 192.499 238.048 193.903 236.997 193.253C235.744 192.479 228.766 196.261 226.053 199.184C224.577 200.774 224 200.486 224 198.16C224 196.759 223.614 196.01 222.214 194.689C220.635 193.2 220.112 193.005 217.695 193.005C213.786 193.005 211.44 194.392 206.5 199.625C197.807 208.832 190.642 215.858 187 218.746C181.03 223.481 175.018 228.853 171.425 232.665L168.1 236.194L166.117 235.599C162.696 234.574 159.783 234.832 158.021 236.315C155.316 238.591 154.786 240.175 154.865 245.755C154.903 248.505 155.303 252.322 155.753 254.237C156.748 258.47 156.457 260.654 154.22 265.769C151.777 271.356 147.826 282.07 146.999 285.349C146.423 287.635 146.012 290.959 146.007 293.361C145.992 301.787 148.825 305.552 158.75 310.298C168.478 314.95 175.745 319.042 184.75 324.941C195.562 332.023 208.218 343.096 210.54 347.505C214.638 355.288 215.433 359.868 214.559 370.642C213.587 382.608 211.838 396.035 210.505 401.755C208.264 411.373 207.35 414.882 206.038 418.894C205.203 421.445 204.283 423.977 203.992 424.519C203.471 425.494 202.597 425.505 126.732 425.505H50V426.755V428.005H127.489H204.977L205.687 426.88C207.372 424.211 210.852 412.127 212.922 401.755C214.426 394.216 214.776 391.874 216.509 377.715C216.815 375.218 217.087 369.593 217.113 365.215C217.159 357.634 217.09 357.053 215.688 353.005C212.533 343.906 206.725 337.6 191.322 326.552C182.142 319.967 172.767 314.434 161.25 308.802C153.657 305.089 151.895 303.813 149.871 300.559C148.863 298.937 148.755 298.15 148.798 292.755C148.851 286.104 149.623 283.181 154.162 272.429C155.364 269.584 156.498 266.829 156.685 266.309C157.235 264.771 157.59 265.722 157.82 269.349C158.277 276.57 159.953 280.677 165.739 288.755C167.511 291.23 170.581 296.518 172.561 300.505C178.414 312.294 181.736 316.596 186.841 318.996C188.524 319.786 189.926 319.981 193.607 319.936C197.247 319.892 199.601 320.212 204.5 321.42C225.333 326.555 225.535 326.595 233.75 327.235C237.398 327.519 238.631 328.672 239.469 332.579C240.034 335.213 239.639 341.323 238.475 347.964C237.838 351.595 237.87 369.841 238.524 375.9C239.479 384.754 240.814 390.145 243.315 395.255C246.118 400.981 250.185 404.005 255.081 404.005C259.811 404.005 263.586 400.885 266.675 394.422C269.359 388.807 270.041 385.426 270.033 377.792C270.026 371.272 269.598 367.938 267.492 358.005C265.168 347.045 264.976 343.838 265.689 328.005C266.172 317.294 265.715 311.38 263.93 305.255C261.809 297.979 258.888 294.62 253.002 292.688C249.379 291.498 249.324 291.357 251.029 287.636C251.563 286.47 252 285.391 252 285.238C252 285.085 253.111 283.314 254.468 281.303C257.502 276.807 262.033 272.943 266.994 270.622C269.06 269.655 271.14 268.671 271.618 268.435C273.581 267.464 273.851 267.863 274.208 272.265C274.398 274.608 274.403 279.614 274.218 283.39C273.893 290.026 273.816 290.397 271.895 294.505C268.535 301.69 268.703 308.556 272.376 314.105C273.944 316.475 278.353 319.59 282.15 321.011L284.875 322.03L285.117 327.643C285.374 333.589 285.199 332.923 290.677 348.755C293.346 356.468 294 361.262 294 373.119C294 377.603 294.226 384.868 294.501 389.264C295.891 411.39 298.062 422.597 301.799 426.92L303.385 428.755L388.193 428.909L473 429.063V427.809V426.556L388.703 426.406L304.405 426.255L303.258 424.816C300.667 421.567 298.699 412.021 297.525 397.005C296.849 388.365 295.989 369.189 295.995 362.887C296.001 356.517 295.426 354.123 290.977 342.005C289.916 339.118 288.676 335.293 288.221 333.505C287.325 329.986 287.022 324.636 287.661 323.63C287.928 323.211 289.49 322.999 292.404 322.987C294.794 322.978 297.987 322.665 299.5 322.293C307.865 320.234 311.781 317.256 317.629 308.505C320.955 303.527 329.771 294.005 331.053 294.005C331.352 294.005 332.193 293.592 332.923 293.087C334.575 291.945 340.425 289.607 343.75 288.76C348.249 287.615 358.442 286.005 361.198 286.005C364.306 286.005 368.184 283.66 374.156 278.17C382.69 270.324 382.772 270.059 380.961 255.889C379.843 247.145 379.862 242.124 381.022 239.792C381.961 237.905 382.688 237.698 383.393 239.117C383.704 239.743 384.822 241.83 385.878 243.755C386.933 245.68 388.509 249.055 389.38 251.255C390.886 255.058 394.497 267.717 396.227 275.255C396.668 277.18 397.224 279.478 397.462 280.362C397.889 281.948 397.432 283.943 395.768 287.755C395.408 288.58 394.662 290.493 394.11 292.005C391.436 299.328 389.723 303.433 388.378 305.735C385.672 310.362 385.783 310.294 376.5 312.979C371.936 314.298 363.308 317.633 359.302 319.626C356.149 321.195 348.74 325.853 347.5 327.045C347.088 327.442 345.42 328.889 343.794 330.261C337.527 335.551 331.527 344.424 328.923 352.255C327.965 355.135 327.759 356.818 327.755 361.755C327.75 368.446 328.301 371.04 330.787 376.005C335.398 385.218 344.425 387.97 347.79 381.189C348.668 379.42 348.754 377.996 348.792 364.505C348.838 348.095 349.033 346.726 352.259 340.159C354.511 335.576 358.904 331.487 366.358 327.034C374.421 322.218 380.354 318.176 384.138 314.92C386.001 313.317 387.815 312.005 388.169 312.005C389.154 312.005 393.981 309.571 395.905 308.103C398.235 306.326 399.869 303.594 400.829 299.869C401.48 297.342 401.555 295.624 401.227 290.755C400.668 282.48 400.734 281.221 401.919 277.505C404.37 269.826 404.316 265.477 401.658 256.505C400.965 254.168 400.283 251.693 400.142 251.005C400 250.318 399.329 247.618 398.651 245.005C394.847 230.345 390.787 226.173 384.784 230.755C383.523 231.718 382.409 232.505 382.307 232.505C382.206 232.505 380.128 229.862 377.69 226.63C357.982 200.51 341.813 187.982 336.72 194.886C336.275 195.49 335.807 195.361 333.773 194.071C330.594 192.055 326.873 190.844 325.071 191.24C324.285 191.412 322.99 192.233 322.195 193.064C320.788 194.534 320.751 194.709 320.789 199.665C320.818 203.447 321.137 205.847 322.034 209.005C322.697 211.343 323.243 213.464 323.246 213.718C323.248 213.973 321.788 214.135 320 214.078C314.676 213.908 312.451 215.932 311.835 221.505C311.399 225.446 312.243 230.422 314.448 236.901C316.312 242.38 316.347 242.61 315.632 244.651C314.844 246.902 314.98 253.896 315.98 262.505C316.862 270.093 317.528 277.614 317.934 284.541C318.152 288.273 318.51 291.617 318.729 291.972C319.1 292.572 318.296 293.479 317.375 293.498C317.169 293.502 317 292.084 317 290.346C317 277.372 305.263 266.705 288.556 264.494C286.249 264.188 283.45 264.005 282.335 264.085L280.307 264.232L279.719 261.743C278.743 257.612 278.041 247.961 277.735 234.505C277.476 223.097 276.625 201.102 276.266 196.505C276.19 195.543 276.422 193.63 276.781 192.255C277.14 190.88 277.583 188.345 277.767 186.621C278.326 181.364 280.062 181.228 294 185.355C296.011 185.951 298.899 186.178 304.75 186.203C312.279 186.234 312.965 186.156 316.398 184.873C323.965 182.046 329.686 178.589 332.106 175.382C335.077 171.444 340 160.713 340 158.173C340 156.509 338.695 156.697 337.103 158.589C336.37 159.461 334.765 160.811 333.537 161.589C331.714 162.745 330.748 163.004 328.277 162.999C324.822 162.993 323.151 162.555 312.75 158.938C305.819 156.527 304.822 156.312 299.618 156.104C293.629 155.865 290.86 156.317 287.079 158.155C284.406 159.454 280.741 162.623 279.887 164.375C278.911 166.376 278 166.383 278 164.39C278 162.35 279.071 161.255 284.75 157.487C298.729 148.214 305.25 140.327 308.301 129.005C310.157 122.118 309.202 108.865 306.172 99.4508C305.765 98.1833 305.278 95.5988 305.09 93.7068C304.691 89.6773 303.64 88.8638 302.377 91.6068ZM304.63 103.38C307.801 116.005 307.78 123.544 304.548 132.739C302.579 138.342 297.248 144.878 290 150.576C286.466 153.354 278.934 158.505 278.406 158.505C277.618 158.505 278.013 151.023 279.044 146.418C281.409 135.858 287.444 121.035 292.07 114.428C292.582 113.698 293.01 112.911 293.023 112.678C293.035 112.446 294.498 110.23 296.275 107.755C298.051 105.28 300.199 102.074 301.049 100.63C301.9 99.1863 302.75 98.0053 302.938 98.0053C303.125 98.0053 303.887 100.424 304.63 103.38ZM291.621 105.591C286.24 112.877 282.116 120.419 279.57 127.636C277.674 133.011 276 141.137 276 144.971C276 147.664 274.66 158.011 274.26 158.412C273.754 158.918 271.86 157.722 269.623 155.485C262.554 148.416 260.135 136.008 263.729 125.254C265.507 119.934 267.029 117.424 270.943 113.355C273.192 111.016 275.233 109.462 277.482 108.375C280.608 106.864 293.066 102.497 293.419 102.788C293.512 102.865 292.704 104.126 291.621 105.591ZM288 116.505C288 116.78 287.762 117.005 287.471 117.005C287.18 117.005 287.08 116.78 287.25 116.505C287.42 116.23 287.658 116.005 287.779 116.005C287.901 116.005 288 116.23 288 116.505ZM286.673 118.777C286.51 119.201 286.269 119.441 286.138 119.31C286.007 119.179 286.048 118.832 286.23 118.539C286.723 117.741 287.011 117.896 286.673 118.777ZM286 120.226C286 120.347 285.74 120.607 285.423 120.803C285.065 121.024 284.981 120.94 285.202 120.583C285.558 120.006 286 119.809 286 120.226ZM284.561 122.843C284.126 123.592 284.027 123.614 284.015 122.964C283.999 122.122 284.525 121.363 284.879 121.718C284.996 121.835 284.853 122.341 284.561 122.843ZM284 124.255C284 124.393 283.888 124.505 283.75 124.505C283.612 124.505 283.5 124.393 283.5 124.255C283.5 124.118 283.612 124.005 283.75 124.005C283.888 124.005 284 124.118 284 124.255ZM283.5 125.255C283.5 125.393 283.388 125.505 283.25 125.505C283.112 125.505 283 125.393 283 125.255C283 125.118 283.112 125.005 283.25 125.005C283.388 125.005 283.5 125.118 283.5 125.255ZM283 126.726C283 126.847 282.74 127.107 282.423 127.303C282.065 127.524 281.981 127.44 282.202 127.083C282.558 126.506 283 126.309 283 126.726ZM239.765 154.65C241.48 158.272 244.212 161.278 250.568 166.539C257.446 172.232 260.037 174.944 262.529 179.059C264.97 183.091 265.481 184.659 265.968 189.601C266.446 194.449 267.374 196.005 269.791 196.005C272.272 196.005 271.544 196.727 268.139 197.643C263.438 198.909 260.074 199.084 255.75 198.289C250.355 197.296 249.135 196.894 245.111 194.779C240.077 192.134 236.464 188.406 233.999 183.312C232.027 179.239 231.962 178.941 231.941 173.93C231.915 167.859 232.615 164.285 234.863 159.005C236.159 155.961 238.11 152.005 238.315 152.005C238.424 152.005 239.076 153.195 239.765 154.65ZM303.5 158.748C304.737 158.946 308 159.89 310.75 160.846C322.603 164.967 324.571 165.505 327.785 165.505C329.568 165.505 331.877 165.146 333.01 164.693C334.127 164.246 335.142 163.981 335.266 164.104C335.389 164.228 334.617 166.112 333.549 168.292C329.931 175.684 323.399 180.4 312.75 183.31C309.808 184.114 299.664 184.231 296.75 183.494C295.65 183.216 293.288 182.559 291.5 182.035C285.525 180.281 284.151 180.005 281.385 180.005C279.398 180.005 278.285 180.281 277.372 180.999L276.108 181.993L275.911 180.304C275.639 177.979 275.905 177.304 276.798 178.046C277.334 178.49 277.676 178.482 278.245 178.01C278.654 177.67 278.905 177.249 278.803 177.074C278.337 176.275 279.533 170.807 280.781 168.024C284.211 160.383 292.521 156.99 303.5 158.748ZM331.651 195.671C334.556 197.373 334.819 197.775 335.225 201.137C335.719 205.221 338.276 209.971 342.895 215.383C347.899 221.248 349.154 223.582 350.77 230.041C352.983 238.886 353.306 239.641 359.327 250.005C361.967 254.55 363.617 258.379 364.5 262.005C365.765 267.206 366.452 267.855 370.056 267.246C372.616 266.813 372.928 265.952 371.376 263.607C369.189 260.302 368.078 257.752 365.965 251.183C364.769 247.466 362.31 241.6 360.134 237.275C358.065 233.16 355.632 227.511 354.728 224.722C351.94 216.119 346.415 206.397 340.727 200.081C338.8 197.941 338.421 197.241 338.835 196.581C340.372 194.124 345.965 196.46 352.765 202.399C357.153 206.232 364.523 213.896 367.353 217.567C368.121 218.564 370.555 221.602 372.761 224.317C374.967 227.033 377.648 230.548 378.718 232.129L380.664 235.002L379.396 237.629C377.289 241.991 377.247 244.625 379.025 260.817C379.768 267.591 379.497 269.244 377.203 271.924C375.177 274.292 374.337 274.579 374.797 272.749C375.299 270.749 374.268 270.005 370.993 270.005C366.083 270.005 356.172 273.615 339.5 281.476C335.513 283.356 331.013 285.176 329.5 285.52C327.987 285.864 325.541 286.677 324.063 287.326C322.585 287.974 321.211 288.505 321.011 288.505C320.81 288.505 320.49 285.861 320.3 282.63C319.98 277.222 319.277 269.718 318.013 258.255C317.375 252.464 317.361 246.505 317.986 246.505C318.253 246.505 319.114 247.799 319.9 249.38C321.648 252.9 323.74 256.706 327.526 263.255C329.116 266.005 331.044 269.549 331.812 271.13C333.187 273.96 334.257 274.721 334.815 273.265C335.201 272.26 333.241 260.676 331.944 256.295C330.404 251.093 328.153 246.739 325.551 243.928C323.583 241.802 322.896 241.393 320.807 241.099L318.365 240.755L316.761 236.005C314.555 229.473 314 226.971 314 223.572C314 218.535 317.016 215.433 320.897 216.477C324.279 217.388 324.999 218.604 329.504 231.005C333.31 241.484 336.479 247.533 341.554 254.005C342.308 254.968 343.747 258.227 344.75 261.249C345.753 264.27 346.819 266.893 347.117 267.077C348.377 267.856 349 266.877 349 264.119C349 261.809 348.656 260.714 346.961 257.627C345.84 255.584 344.169 251.852 343.246 249.334C341.106 243.488 338.038 236.391 336.404 233.505C335.703 232.268 333.976 229.269 332.565 226.841C331.154 224.413 330 222.335 330 222.223C330 222.112 329.347 220.948 328.549 219.638C324.828 213.525 321.764 198.749 323.533 195.444C324.689 193.283 327.721 193.368 331.651 195.671ZM220.51 196.264C223.059 198.571 221.836 202.942 216.926 209.072C214.863 211.648 211.565 216.005 209.598 218.755C205.057 225.104 203.314 227.282 197.684 233.635C189.786 242.55 186.953 247.922 186.822 254.24C186.762 257.155 186.889 257.753 187.6 257.897C188.193 258.017 188.821 257.341 189.673 255.662C191.915 251.243 198.887 241.201 205.5 232.867C213.492 222.794 214.802 221.017 217.275 216.896C218.636 214.628 220.662 210.93 221.777 208.68C225.728 200.703 235.819 193.524 238.514 196.772C240.068 198.644 239.463 204.915 237.262 209.755C233.776 217.421 232.141 220.421 229.182 224.576C224.749 230.803 223.011 232.642 215.479 239.074C210.74 243.121 208.795 245.154 207.346 247.574C206.298 249.324 203.953 253.23 202.135 256.255C196.934 264.909 195.859 267.326 195.801 270.489C195.756 272.939 195.87 273.272 196.802 273.405C198.255 273.613 202.257 269.142 205.224 263.997C206.508 261.77 208.74 258.555 210.182 256.852C220.197 245.023 228.913 232.472 233.507 223.266C233.916 222.448 235.263 220.721 236.5 219.43C240.505 215.251 243.364 215.757 242.825 220.548C242.187 226.206 238.321 233.557 234.56 236.261C231.084 238.76 228.712 241.709 223.418 250.114C221.4 253.317 217.603 259.159 214.98 263.096C212.357 267.034 209.713 271.186 209.105 272.323C207.545 275.242 207.652 277.299 209.33 276.655C210.215 276.316 214.767 269.596 218.747 262.755C221.532 257.968 236.545 238.505 237.452 238.505C237.692 238.505 238.394 238.914 239.011 239.414C239.946 240.17 240.129 240.803 240.107 243.195C240.068 247.592 237.501 252.576 233.023 256.949C229.253 260.63 228.004 262.842 227.992 265.864C227.979 269.205 226.127 273.83 224.051 275.709C222.507 277.107 222.737 277.778 225.375 279.576C226.681 280.467 230.397 283.187 233.633 285.621C236.868 288.055 240.805 290.742 242.383 291.591C243.96 292.44 245.525 293.388 245.86 293.698C246.509 294.297 246.183 296.505 245.445 296.505C245.205 296.505 241.237 295.239 236.628 293.692C232.02 292.144 226.45 290.329 224.25 289.658C222.05 288.987 218 287.739 215.25 286.885C211.837 285.824 208.742 285.24 205.5 285.043L200.75 284.755L199.167 281.573C196.614 276.438 194.044 274.207 188.932 272.689C186.619 272.002 186.511 271.893 186.87 270.61C187.484 268.418 187.192 262.436 186.352 260.005C183.964 253.089 180.084 247.06 174.457 241.523L170.358 237.49L171.304 236.374C173.316 234.001 178.795 228.839 183.173 225.192C191.328 218.399 193.204 216.797 195.984 214.255C199.725 210.836 199.38 211.192 203.004 207.012C208.957 200.147 211.23 197.909 213.75 196.431C216.485 194.826 218.856 194.768 220.51 196.264ZM250.199 199.612C255.938 201.527 266.029 201.368 271.063 199.283C272.013 198.889 272.226 202.645 273.023 233.755C273.283 243.93 273.644 255.113 273.824 258.607L274.15 264.958L272.95 265.429C263.659 269.069 258.883 271.978 255.29 276.183C252.521 279.424 249.986 283.582 248.465 287.378C247.831 288.96 247.079 290.412 246.795 290.603C246.08 291.084 241.647 288.478 236.038 284.281C233.447 282.342 230.409 280.113 229.288 279.327C226.294 277.23 226.315 277.281 227.619 275.188C229.269 272.54 229.471 271.904 230.31 266.762L231.042 262.268L234.439 259.012C240.162 253.524 243.845 245.296 242.535 240.924C242.213 239.848 241.285 238.376 240.474 237.653C238.822 236.181 238.696 235.684 239.685 234.545C242.367 231.454 245.187 223.839 245.223 219.588C245.247 216.689 245.126 216.314 243.783 215.158C242.538 214.086 241.99 213.939 240.158 214.19C238.971 214.353 238 214.384 238 214.26C238 214.136 238.552 212.785 239.227 211.259C241.888 205.243 242.642 199.666 241.245 196.338C240.925 195.576 241.393 195.689 244.003 197.007C245.732 197.88 248.52 199.052 250.199 199.612ZM343.64 207.94C345.4 210.588 347.573 214.218 348.47 216.005C349.367 217.793 350.319 219.671 350.585 220.179C351.553 222.026 350.611 221.471 349.247 219.39C348.478 218.216 346.571 215.793 345.011 214.005C340.337 208.651 338 204.696 338 202.145V200.831L339.22 201.977C339.891 202.608 341.881 205.291 343.64 207.94ZM214 217.755C214 217.893 213.888 218.005 213.75 218.005C213.612 218.005 213.5 217.893 213.5 217.755C213.5 217.618 213.612 217.505 213.75 217.505C213.888 217.505 214 217.618 214 217.755ZM213 219.194C213 219.298 212.657 219.667 212.238 220.015C211.602 220.543 211.529 220.512 211.792 219.826C212.061 219.125 213 218.634 213 219.194ZM210.037 223.144L208.88 224.255L209.758 222.865C210.241 222.1 210.761 221.6 210.915 221.754C211.068 221.907 210.674 222.533 210.037 223.144ZM357.031 236.542C358.069 238.625 359.353 241.104 359.885 242.051C361.063 244.149 363.177 249.995 362.869 250.303C362.366 250.806 357.259 241.975 355.467 237.505C354.861 235.993 354.201 233.968 353.999 233.005C353.797 232.043 353.48 230.58 353.296 229.755C353.039 228.608 353.217 228.785 354.052 230.505C354.653 231.743 355.994 234.459 357.031 236.542ZM203.5 231.255C203.5 231.393 203.388 231.505 203.25 231.505C203.112 231.505 203 231.393 203 231.255C203 231.118 203.112 231.005 203.25 231.005C203.388 231.005 203.5 231.118 203.5 231.255ZM390.445 231.976C392.202 232.916 395.368 241.262 397.475 250.505C397.82 252.018 398.438 254.268 398.849 255.505C400.484 260.427 401.064 263.431 401.115 267.255C401.164 270.939 400.204 276.505 399.521 276.505C399.361 276.505 398.262 272.849 397.078 268.38C395.893 263.912 394.232 258.005 393.387 255.255C391.892 250.39 387.105 239.962 385.03 237.048C383.704 235.186 383.727 234.946 385.375 233.411C387.388 231.535 388.849 231.122 390.445 231.976ZM202.5 232.255C202.5 232.393 202.388 232.505 202.25 232.505C202.112 232.505 202 232.393 202 232.255C202 232.118 202.112 232.005 202.25 232.005C202.388 232.005 202.5 232.118 202.5 232.255ZM336.422 239.255C337.312 241.18 338.272 243.171 338.555 243.679C339.012 244.501 338.814 245.496 338.298 244.964C337.687 244.332 333.001 234.244 333.002 233.564C333.005 232.524 334.325 234.721 336.422 239.255ZM201.202 234.083C201.005 234.401 199.399 236.595 197.633 238.958C195.866 241.322 193.604 244.575 192.605 246.187C190.735 249.204 189.774 249.37 191.29 246.414C192.91 243.254 195.373 239.901 199.189 235.66C201.064 233.576 201.939 232.891 201.202 234.083ZM221.674 237.947C220.567 239.673 219.548 241.087 216.283 245.43C213.666 248.909 212.931 249.813 209.75 253.469C206.951 256.686 204.347 260.322 202.742 263.255C201.024 266.394 199.091 269.005 198.486 269.005C197.796 269.005 198.834 266.88 202.529 260.732C204.355 257.694 205.939 254.988 206.049 254.718C206.159 254.448 207.375 252.344 208.75 250.044C210.842 246.544 212.149 245.096 216.75 241.184C219.775 238.612 222.328 236.507 222.424 236.506C222.52 236.506 222.182 237.154 221.674 237.947ZM165.459 238.23C165.851 238.472 165.451 239.4 164.207 241.131C162.414 243.626 159.461 249.337 158.789 251.607L158.449 252.755L157.899 251.505C157.104 249.696 157.117 242.072 157.919 240.172C159.044 237.507 162.746 236.553 165.459 238.23ZM173.396 243.992C180.088 250.639 184.98 259.917 184.995 265.989C184.998 267.217 184.633 269.183 184.184 270.358C183.148 273.072 183.625 273.726 187.441 274.823C193.479 276.558 195.911 278.93 197.71 284.835C198.284 286.72 199.35 287.106 205.176 287.541C208.306 287.775 211.402 288.176 212.058 288.433C212.713 288.691 214.15 289.149 215.25 289.452C220.009 290.764 234.588 295.498 243.076 298.487C245.601 299.376 245.693 299.476 246.35 302.078C247.359 306.076 248.31 307.788 250.903 310.276C254.574 313.8 259.502 314.931 261.683 312.751C262.274 312.16 262.524 312.133 262.843 312.626C263.067 312.972 263.186 321.018 263.107 330.505L262.965 347.755L264.947 357.755C266.037 363.255 267.208 369.949 267.551 372.63C269.207 385.598 264.009 399.315 256.598 401.535C252.164 402.864 246.687 398.291 244.255 391.23C241.921 384.452 241.122 379.482 240.516 367.964C240.034 358.794 240.386 350.358 241.515 344.038C242.175 340.342 242.128 331.87 241.438 330.154C239.702 325.836 238.576 325.011 234.4 324.996C230.117 324.981 221.464 323.196 203.5 318.622C199.497 317.603 197.219 317.309 193.91 317.384C189.012 317.496 187.051 316.898 184.247 314.436C181.764 312.256 178.407 306.9 174.949 299.606C173.338 296.207 170.074 290.595 167.696 287.133C165.318 283.672 162.863 279.69 162.242 278.285C160.937 275.335 160 269.951 160 265.406C160 263.67 159.788 261.509 159.529 260.606C158.704 257.73 162.458 247.671 166.32 242.411C167.291 241.088 168.377 240.005 168.733 240.005C169.09 240.005 171.188 241.799 173.396 243.992ZM324.172 246.049C326.522 248.795 328.369 252.685 329.811 257.926C331.133 262.731 331.229 263.505 330.5 263.505C330.225 263.505 330 263.29 330 263.027C330 262.764 329.366 261.471 328.591 260.152C327.816 258.834 325.758 255.055 324.018 251.755C322.279 248.455 320.638 245.477 320.372 245.137C320.106 244.796 320.022 244.168 320.186 243.74C320.599 242.664 321.938 243.44 324.172 246.049ZM277.184 261.837C277.523 264.313 277.391 264.806 276.533 264.276C275.899 263.884 275.807 259.505 276.432 259.505C276.67 259.505 277.008 260.555 277.184 261.837ZM368.629 264.7C368.474 264.951 368.052 264.752 367.69 264.257C367.328 263.763 367.159 263.153 367.314 262.902C367.469 262.651 367.892 262.85 368.254 263.345C368.616 263.839 368.784 264.45 368.629 264.7ZM292 267.592C299.205 269.313 303.808 271.71 308.048 275.95C311.952 279.854 313.82 283.52 314.302 288.225C314.564 290.779 314.486 291.536 313.943 291.724C312.08 292.366 301.43 292.856 298.985 292.412C289.972 290.773 284.088 283.01 280.802 268.422C280.613 267.58 280.732 266.991 281.126 266.824C282.027 266.443 289.357 266.96 292 267.592ZM279.244 272.135C280.485 277.256 283.529 284.052 286.039 287.306C290.38 292.932 295.281 295.021 304.033 294.975C307.177 294.959 310.875 294.759 312.25 294.53C313.625 294.302 314.937 294.228 315.166 294.365C315.394 294.502 312.694 296.524 309.166 298.857C298.969 305.599 292.202 311.366 288.469 316.492C287.262 318.149 286.008 319.505 285.682 319.505C283.825 319.505 279.065 317.034 276.624 314.803C273.14 311.619 271.935 308.926 271.903 304.255C271.882 301.191 272.143 300.163 273.998 296.005C275.953 291.623 276.153 290.772 276.584 285.005C276.84 281.568 276.938 276.25 276.801 273.188C276.663 270.126 276.702 267.47 276.887 267.285C277.492 266.681 278.352 268.45 279.244 272.135ZM372 272.732C372 273.485 370.022 274.551 367 275.425C363.209 276.522 354.593 279.139 351.75 280.058C350.1 280.591 348.002 281.268 347.087 281.562C344.718 282.324 344.525 281.722 346.821 280.731C353.939 277.659 356.114 276.753 359 275.661C362.194 274.452 367.282 272.81 369.25 272.353C371.192 271.902 372 272.013 372 272.732ZM370 278.595C365.593 282.489 362.237 283.997 357.942 284.014C355.766 284.023 348.586 285.076 344.75 285.948C338.914 287.275 332.549 290.03 328.332 293.054C324.52 295.788 320.92 299.695 316.63 305.755C310.084 315.004 308.045 316.864 302.191 318.939C298.1 320.389 289.5 321.024 289.5 319.876C289.5 318.736 293.407 314.128 296.803 311.264C298.424 309.896 299.862 308.659 300 308.515C300.259 308.242 305.914 304.005 308.355 302.255C313.044 298.894 327.683 290.216 333 287.645C333.688 287.313 335.938 286.68 338 286.238C344.596 284.826 346.068 284.429 355.5 281.513C359.213 280.366 364.162 278.864 366.5 278.176C368.838 277.488 370.96 276.722 371.216 276.473C371.473 276.225 371.811 276.153 371.966 276.314C372.122 276.475 371.237 277.501 370 278.595ZM398.992 292.88C398.98 300.474 397.413 304.124 392.86 307.165C390.244 308.911 388.825 309.128 390.133 307.581C390.899 306.675 393.394 301.487 394.017 299.505C394.234 298.818 395.128 296.343 396.004 294.005C396.881 291.668 397.715 289.361 397.858 288.88C398.507 286.686 398.999 288.421 398.992 292.88ZM255.285 296.272C257.641 297.626 259.637 300.296 261.024 303.947C262.417 307.614 262.249 307.937 260.125 305.677C258.035 303.455 252.337 299.308 250.67 298.797C249.051 298.301 248.345 297.19 248.714 295.721C249.019 294.507 249.175 294.446 251.145 294.763C252.303 294.949 254.166 295.628 255.285 296.272ZM252.41 302.575C255.632 304.736 260 309.044 260 310.06C260 312.706 254.442 310.933 251.361 307.302C249.505 305.116 248.314 301.005 249.535 301.005C249.829 301.005 251.123 301.712 252.41 302.575ZM377.393 317.173C375.39 318.595 372.288 320.636 370.5 321.707C356.542 330.074 353.105 332.979 350.082 338.973C347.862 343.374 347.706 343.863 346.743 349.505C345.905 354.417 345.82 361.14 346.509 368.219C347.043 373.716 346.506 378.767 345.172 380.804C343.426 383.469 339.31 382.789 336.098 379.304C332.115 374.983 329.992 369.042 330.018 362.298C330.04 356.758 330.868 353.102 333.228 348.132C338.046 337.987 347.726 328.509 359.548 322.359C365.571 319.226 379.676 313.895 380.643 314.387C380.859 314.497 379.397 315.75 377.393 317.173Z" fill="black"/>
<path fill-rule="evenodd" clip-rule="evenodd" d="M421.638 486.015C420.497 487.276 420.911 493.934 422.454 499.118C423.339 502.089 421.657 504.037 418.209 504.036C403.012 504.032 398.279 511.248 412.596 512.594C422.664 513.54 423.538 514.114 422.495 519.102C420.471 528.779 420.385 530.553 421.868 532.037C424.543 534.712 427.158 532.738 429.156 526.537C429.908 524.199 430.714 522.073 430.946 521.812C431.178 521.551 431.368 520.971 431.368 520.524C431.368 519.51 433.414 517.537 434.465 517.537C435.268 517.537 438.861 519.054 444.073 521.596C447.542 523.288 448.361 523.358 449.914 522.1C452.224 520.23 450.449 515.051 447.493 515.039C447.15 515.038 446.868 514.83 446.868 514.578C446.868 514.325 446.024 513.603 444.993 512.974C443.962 512.344 443.043 511.651 442.952 511.433C442.86 511.215 442.547 511.037 442.257 511.037C441.391 511.037 440.401 509.384 440.384 507.909C440.368 506.514 441.012 505.765 447.264 499.909C450.587 496.796 451.281 493.037 448.534 493.037C448.168 493.037 447.868 492.812 447.868 492.537C447.868 491.08 441.094 494.072 438.868 496.513C436.397 499.222 432.125 499.297 431.047 496.649C430.077 494.269 428.448 489.826 428.132 488.703C427.185 485.335 423.597 483.85 421.638 486.015Z" fill="#F2AA4B"/>
<circle cx="22" cy="142" r="5" fill="#F2AA4B"/>
<circle cx="83" cy="72" r="5" fill="#F2AA4B"/>
<path fill-rule="evenodd" clip-rule="evenodd" d="M48.5837 57.0888C46.3402 57.5008 45.4467 59.4813 44.5732 65.9798C44.4252 67.0798 44.1022 68.1938 43.8557 68.4548C43.6087 68.7163 43.3972 69.3913 43.3857 69.9548C43.3737 70.5188 42.7957 72.5548 42.1002 74.4798C41.4052 76.4048 40.7137 78.4863 40.5632 79.1048C40.4132 79.7233 40.0912 80.2298 39.8482 80.2298C39.6057 80.2298 39.4067 80.5673 39.4067 80.9798C39.4067 81.3923 39.2232 81.7298 38.9987 81.7298C38.7742 81.7298 38.1167 82.5738 37.5367 83.6053C35.8502 86.6058 30.5062 91.3388 26.4067 93.4623C19.1978 97.1963 19.1978 100.553 26.4067 104.146C31.2232 106.546 39.4067 114.798 39.4067 117.255C39.4067 117.516 39.6317 117.73 39.9067 117.73C40.1817 117.73 40.4067 118.166 40.4067 118.7C40.4067 119.234 40.5877 119.783 40.8092 119.919C41.0302 120.056 41.7287 121.926 42.3612 124.074C42.9942 126.222 43.7132 128.37 43.9592 128.848C44.2052 129.325 44.4067 130.606 44.4067 131.693C44.4067 132.781 44.6317 133.81 44.9067 133.98C45.1817 134.15 45.4077 135.007 45.4087 135.884C45.4112 138.173 47.0282 140.567 48.8412 140.965C51.6377 141.58 54.3767 139.232 54.3957 136.205C54.4017 135.229 54.5932 134.216 54.8212 133.955C55.0497 133.694 55.5287 131.905 55.8867 129.98C56.2442 128.055 56.9572 125.355 57.4717 123.98C57.9857 122.605 58.4062 121.086 58.4062 120.605C58.4067 120.123 58.5767 119.73 58.7847 119.73C58.9927 119.73 59.4822 118.998 59.8732 118.105C60.5252 116.614 61.4057 115.224 63.4067 112.528C66.1027 108.896 73.4377 103.23 75.4447 103.23C79.3082 103.23 79.1827 95.6758 75.2987 94.4463C71.2452 93.1633 65.3482 88.1248 61.9487 83.0403C61.0067 81.6318 60.0497 80.4048 59.8217 80.3133C59.5932 80.2213 59.4067 79.7283 59.4067 79.2178C59.4067 78.7068 59.1817 78.1498 58.9067 77.9798C58.6317 77.8098 58.4067 77.1668 58.4067 76.5503C58.4067 75.9338 58.2057 75.2163 57.9597 74.9548C57.4447 74.4073 55.4067 66.2983 55.4067 64.7958C55.4067 64.2418 55.1817 63.6498 54.9067 63.4798C54.6317 63.3098 54.4057 62.4528 54.4042 61.5753C54.3997 58.6728 51.6212 56.5308 48.5837 57.0888Z" fill="#F2AA4B"/>
<circle cx="22" cy="62" r="5" fill="#F2AA4B"/>
</svg>
