<?xml version="1.0"?>
<svg xmlns="http://www.w3.org/2000/svg" xmlns:xlink="http://www.w3.org/1999/xlink" xmlns:svgjs="http://svgjs.com/svgjs" version="1.1" width="512" height="512" x="0" y="0" viewBox="0 0 512 512" style="enable-background:new 0 0 512 512" xml:space="preserve" class=""><g><path xmlns="http://www.w3.org/2000/svg" d="m174.7 177.441a11.333 11.333 0 0 0 1.585-1.906c2.985-4.574 12.226-20.94 5.809-39.525a42.918 42.918 0 0 0 -14.4-19.818 65.1 65.1 0 0 0 -39.3-15.466 64.221 64.221 0 0 0 -25.656 4.225 11.237 11.237 0 0 0 .609 21.168l.232.076a73.621 73.621 0 0 1 26.721 15.369c.051.045.1.09.155.133a19.5 19.5 0 0 1 4.259 4.685 19.689 19.689 0 0 1 -4.322-1.793 11 11 0 0 0 -1.047-.5l-44.832-18.838a11.154 11.154 0 0 0 -13.006 3.227l-.762.928q-4.394 5.344-8.786 10.7a11.213 11.213 0 0 0 6.152 18.051l39.28 9.019c.04.01.08.018.12.027 3.483.71 6.273 1.352 8.508 1.922l-.151.025c-15.533 2.553-34.795 1.436-57.252-3.318a11.235 11.235 0 0 0 -13.127 7.983l-3.815 13.835a11.2 11.2 0 0 0 11.69 14.177l44.59-3.539c2.579-.068 4.666-.016 6.318.095-1.277.741-2.922 1.629-5.046 2.692-12.7 6.31-28.421 9.418-46.718 9.227h-.133a11.241 11.241 0 0 0 -11.215 11.271c0 8.649 1.979 16.146 5.879 22.28a43.923 43.923 0 0 0 6.8 8.043c2.477 2.446 4.265 4.214 5.246 7.244.249.77.814 3.944-2.358 12.489a7.607 7.607 0 0 0 12.435 8.114l105.538-102.3zm-6.765-7.407a1.417 1.417 0 0 1 -.2.23l-99.043 96c.812-4.125.776-7.5-.1-10.2-1.733-5.353-4.782-8.366-7.732-11.28a34.677 34.677 0 0 1 -5.386-6.293c-2.865-4.507-4.319-10.2-4.319-16.917a1.292 1.292 0 0 1 .381-.926 1.176 1.176 0 0 1 .843-.345h.021c19.94.225 37.144-3.251 51.361-10.314 8.044-4.022 15.775-8.479 14.3-14.838-1.223-5.163-7.345-7.222-20.5-6.856-.086 0-.173.007-.259.014l-44.731 3.551a1.2 1.2 0 0 1 -1.253-1.537l3.815-13.838a1.217 1.217 0 0 1 1.418-.87c23.68 5.013 44.183 6.158 60.958 3.4 7.132-1.18 16.007-2.651 16.3-9.065.3-6.387-7.574-9.134-24.234-12.533l-39.224-9.007a1.212 1.212 0 0 1 -.659-1.956q4.388-5.354 8.784-10.7l.763-.928a1.214 1.214 0 0 1 1.41-.355l44.911 18.868c6.651 3.669 15.026 5.19 18.738.318 3.67-4.806.555-13.046-7.409-19.623a83.468 83.468 0 0 0 -30.211-17.349l-.235-.078a1.185 1.185 0 0 1 -.872-1.181 1.062 1.062 0 0 1 .738-1.134 54.216 54.216 0 0 1 21.677-3.575 55.024 55.024 0 0 1 33.3 13.15c.068.057.137.114.207.168a32.953 32.953 0 0 1 11.153 15.239c4.931 14.29-2.376 27.184-4.709 30.76z" fill="#017260" data-original="#000000" style="" class=""/><path xmlns="http://www.w3.org/2000/svg" d="m317.977 94.649a11.5 11.5 0 0 0 -2.068-1.607c-5.069-3.084-23.157-12.559-43.087-4.972a46.755 46.755 0 0 0 -21.006 16.288 70.979 70.979 0 0 0 -15.5 43.306 69.889 69.889 0 0 0 5.466 27.778 11.59 11.59 0 0 0 11.573 7.184 11.726 11.726 0 0 0 10.691-8.53l.041-.131c.013-.041.025-.081.037-.122a81.125 81.125 0 0 1 16.015-29.98c.045-.053.088-.107.13-.161a20.651 20.651 0 0 1 6.057-5.514 20.7 20.7 0 0 1 -2.1 6.039c-.176.35-.345.718-.481 1.074l-19.091 49.753a11.766 11.766 0 0 0 3.823 13.6q3.336 2.564 6.668 5.132l6.4 4.923a11.829 11.829 0 0 0 4.122 2.047v178.166h-31.544l-27.733-110.478.092-.07a11.289 11.289 0 0 0 3.626-12.914l-17.39-45.308a10.829 10.829 0 0 0 -.495-1.123 19.8 19.8 0 0 1 -1.659-4.392 19.471 19.471 0 0 1 4.554 4.405c.041.054.084.108.128.16a73.663 73.663 0 0 1 14.514 27.139l.06.214a11.231 11.231 0 0 0 21.151 1.339 63.885 63.885 0 0 0 5.019-25.513 65.059 65.059 0 0 0 -14.224-39.772 42.906 42.906 0 0 0 -19.355-15c-18.372-7-35.027 1.728-39.715 4.586a10.767 10.767 0 0 0 -1.961 1.53l-105.245 102.007a7.563 7.563 0 0 0 7.521 12.657c8.455-2.68 11.692-1.964 12.48-1.68 3.008 1.079 4.72 2.923 7.088 5.476a43.937 43.937 0 0 0 7.822 7.043c6.017 4.089 13.448 6.3 22.081 6.562a11.307 11.307 0 0 0 8.145-3.1 11.1 11.1 0 0 0 3.482-7.878c.376-18.291 3.968-33.9 10.677-46.409 1.126-2.1 2.067-3.724 2.847-4.979.061 1.657.048 3.747-.1 6.336l-4.933 44.447a11.223 11.223 0 0 0 13.8 12.144l13.952-3.4a11.214 11.214 0 0 0 8.4-12.864c-4.059-22.6-4.576-41.89-1.528-57.366.008-.039.016-.077.022-.114.5 2.253 1.059 5.064 1.657 8.565.006.042.014.083.022.124l7.781 39.55a11.221 11.221 0 0 0 17.852 6.709q1.6-1.228 3.193-2.458l26.062 103.824h-50.773a5 5 0 1 0 0 10h11.48l8.953 94.771a5 5 0 0 0 4.977 4.529h101.25a5 5 0 0 0 4.978-4.529l8.952-94.771h11.49a5 5 0 0 0 0-10h-49.45v-179.983a11.741 11.741 0 0 0 4.686-7.3l8.54-43.34c.009-.043.016-.085.023-.128.857-5.031 1.632-8.768 2.3-11.541.151.707.309 1.475.473 2.311 3.348 16.958 2.785 38.16-1.678 63.025a11.837 11.837 0 0 0 8.842 13.545l15.3 3.72a11.822 11.822 0 0 0 14.542-12.79l-5.416-48.731a68.322 68.322 0 0 1 -.035-8.5c1.006 1.514 2.3 3.672 3.949 6.749 7.39 13.743 11.348 30.926 11.764 51.078a11.714 11.714 0 0 0 3.665 8.295 11.835 11.835 0 0 0 8.579 3.278c9.37-.291 17.431-2.688 23.955-7.122a47.582 47.582 0 0 0 8.5-7.654c2.639-2.843 4.546-4.9 7.956-6.118 1.151-.415 4.821-1.067 13.966 1.829a7.808 7.808 0 0 0 7.789-13.053zm-97.6 185.8-1.136.876q-5.384 4.149-10.783 8.3a1.22 1.22 0 0 1 -1.942-.723l-7.768-39.479c-3.214-18.811-5.948-24.617-11.627-24.617h-.121c-6.433.079-8.18 8.887-9.593 16.014-3.284 16.665-2.777 37.2 1.5 61.029a1.2 1.2 0 0 1 -.913 1.378l-13.958 3.4a1.22 1.22 0 0 1 -1.5-1.32l4.95-44.58c.01-.088.017-.176.023-.264.757-13.136-1.1-19.329-6.231-20.709a6.827 6.827 0 0 0 -1.761-.236c-5.459 0-9.679 6.942-13.546 14.153-7.463 13.909-11.454 31.045-11.863 50.935a1.149 1.149 0 0 1 -.371.828 1.211 1.211 0 0 1 -.947.353c-6.708-.206-12.351-1.834-16.769-4.835a34.619 34.619 0 0 1 -6.115-5.577c-2.821-3.04-5.738-6.183-11.044-8.087a20.956 20.956 0 0 0 -10.041-.56l98.9-95.852.061-.06a.932.932 0 0 1 .14-.1c3.685-2.245 16.8-9.152 30.936-3.764a32.958 32.958 0 0 1 14.881 11.614c.05.07.1.139.158.207a54.99 54.99 0 0 1 12.094 33.707 53.942 53.942 0 0 1 -4.246 21.553 1.049 1.049 0 0 1 -1.152.7 1.174 1.174 0 0 1 -1.142-.877l-.062-.226a83.641 83.641 0 0 0 -16.41-30.778c-6.224-8.038-14.544-11.487-19.385-8.025-4.982 3.561-3.729 11.978-.3 18.694l17.481 45.521a1.21 1.21 0 0 1 -.398 1.411zm103.209 128.473-8.435 89.3h-92.151l-8.436-89.3zm84.65-200.622c-5.7 2.04-8.856 5.441-11.909 8.73a38.249 38.249 0 0 1 -6.788 6.184c-4.929 3.351-11.2 5.166-18.633 5.4a1.863 1.863 0 0 1 -1.386-.527 1.758 1.758 0 0 1 -.561-1.259c-.449-21.747-4.807-40.455-12.95-55.594-4.583-8.573-9.6-16.8-16.234-15.022-5.366 1.439-7.3 8.082-6.466 22.213 0 .087.013.173.021.259l5.43 48.858a1.821 1.821 0 0 1 -2.238 1.971l-15.3-3.719a1.816 1.816 0 0 1 -1.363-2.07c4.682-26.089 5.235-48.537 1.645-66.717-1.833-9.335-3.852-17.071-10.014-17.165h-.131c-5.867 0-8.868 6.515-12.288 26.587l-8.526 43.271a1.82 1.82 0 0 1 -2.9 1.085l-6.393-4.92q-3.338-2.571-6.666-5.131a1.845 1.845 0 0 1 -.59-2.1l19.089-49.747c.025-.057.054-.114.064-.136 3.7-7.223 5.089-16.189-.156-19.944-5.1-3.621-13.935.123-20.584 8.714a91.081 91.081 0 0 0 -17.882 33.519l-.04.13c-.015.044-.028.089-.041.133a1.769 1.769 0 0 1 -1.693 1.343 1.648 1.648 0 0 1 -1.742-1.061 59.9 59.9 0 0 1 -4.693-23.818 60.916 60.916 0 0 1 13.368-37.241c.051-.065.1-.131.151-.2a36.805 36.805 0 0 1 16.54-12.911c15.69-5.974 30.243 1.68 34.349 4.178a1.624 1.624 0 0 1 .276.223l.007.006 109.5 106.131c-5.051-.911-9.104-.789-12.273.347z" fill="#017260" data-original="#000000" style="" class=""/><path xmlns="http://www.w3.org/2000/svg" d="m459.021 123.932h-.121c-20.1.234-37.429-3.2-51.469-10.177-3.1-1.546-5.29-2.768-6.829-3.721a69.031 69.031 0 0 1 8.494-.227l48.888 3.89a11.815 11.815 0 0 0 12.316-14.936l-4.19-15.176a11.822 11.822 0 0 0 -13.827-8.4c-24.683 5.233-45.856 6.457-62.93 3.638-.835-.138-1.6-.271-2.31-.4 2.753-.761 6.463-1.657 11.45-2.667.043-.008.085-.017.127-.027l43.048-9.89a11.819 11.819 0 0 0 6.488-19.016l-10.469-12.739a11.86 11.86 0 0 0 -13.7-3.4l-49.087 20.616a10.408 10.408 0 0 0 -1.145.546 20.638 20.638 0 0 1 -5.935 2.268 20.632 20.632 0 0 1 5.319-6.222c.054-.044.1-.089.157-.135a81.2 81.2 0 0 1 29.464-16.939c.066-.021.132-.043.2-.067l.1-.038a11.733 11.733 0 0 0 8.14-10.943 11.637 11.637 0 0 0 -7.549-11.339 70.031 70.031 0 0 0 -27.932-4.595 71 71 0 0 0 -42.8 16.839 46.829 46.829 0 0 0 -15.619 21.505c-6.976 20.189 3.067 37.947 6.309 42.9a11.548 11.548 0 0 0 1.666 2.017l115.688 112.14a7.871 7.871 0 0 0 12.853-8.389c-3.538-9.507-2.883-13.126-2.6-14 1.113-3.433 3.108-5.4 5.869-8.133a47.576 47.576 0 0 0 7.385-8.737c4.227-6.649 6.37-14.779 6.37-24.161a11.829 11.829 0 0 0 -3.529-8.468 11.7 11.7 0 0 0 -8.29-3.417zm-2.992 30.682a38.308 38.308 0 0 1 -5.972 6.984c-3.191 3.152-6.488 6.411-8.355 12.167-1.041 3.222-.965 7.35.241 12.494l-109.702-106.336a1.74 1.74 0 0 1 -.256-.306c-2.615-4-10.719-18.283-5.229-34.172a36.885 36.885 0 0 1 12.387-16.945c.064-.049.127-.1.188-.153a60.922 60.922 0 0 1 36.805-14.522 59.876 59.876 0 0 1 23.947 3.944 1.652 1.652 0 0 1 1.123 1.71 1.77 1.77 0 0 1 -1.292 1.735c-.068.022-.135.045-.2.07l-.093.034a91.108 91.108 0 0 0 -32.9 18.9c-8.4 6.929-11.858 15.883-8.062 20.84 3.889 5.125 12.811 3.46 19.906-.46.052-.02.1-.04.154-.062l49.146-20.636a1.812 1.812 0 0 1 2.09.527l10.471 12.741a1.818 1.818 0 0 1 -1 2.923l-42.987 9.876c-20.1 4.074-26.465 7.294-26.189 13.237.284 6.161 8.082 7.94 17.471 9.484 18.305 3.023 40.723 1.771 66.636-3.723a1.808 1.808 0 0 1 2.109 1.29l4.191 15.178a1.815 1.815 0 0 1 -1.895 2.3l-49.011-3.9c-.085-.007-.171-.012-.256-.014-14.146-.4-20.722 1.741-22 7.163-1.544 6.629 6.794 11.4 15.515 15.752 15.431 7.669 34.262 11.426 55.987 11.2h.02a1.757 1.757 0 0 1 1.255.521 1.9 1.9 0 0 1 .563 1.36c.005 7.45-1.613 13.774-4.806 18.799z" fill="#017260" data-original="#000000" style="" class=""/></g></svg>
