<?xml version="1.0"?>
<svg xmlns="http://www.w3.org/2000/svg" xmlns:xlink="http://www.w3.org/1999/xlink"  version="1.1" width="512" height="512" x="0" y="0" viewBox="0 0 283.465 283.465" style="enable-background:new 0 0 512 512" xml:space="preserve" class=""><g><g xmlns="http://www.w3.org/2000/svg" id="Layer_1_6_"><g clip-rule="evenodd" fill-rule="evenodd"><path d="m159.356 89.338c34.537 1.503 44.513-19.105 54.166-39.051 4.727-9.766 9.383-19.385 16.685-26.592-10.827-1.955-21.408-1.642-30.997.677-9.912 2.396-18.76 6.939-25.711 13.335-6.911 6.36-11.952 14.561-14.295 24.309-1.941 8.075-2.043 17.236.152 27.322z" fill="#017260" data-original="#75b6e4" style="" class=""/><path d="m95.149 178.688h93.165v82.349h-93.165z" fill="#017260" data-original="#75b6e4" style="" class=""/><path d="m123.951 116.211c-1.146-.721-6.365-1.041-6.875-1.026-1.434.039-2.743-.989-2.505-2.543.48-10.706-10.9-14.109-19.588-14.501-19.17-.862-31.631 8.038-38.719 25.667-.943 2.346-1.845 4.586-2.975 6.674 4.573.356 8.641.879 12.47 1.371 12.518 1.606 22.4 2.875 39.638-3.565 4.282-1.338 18.004-7.843 18.554-12.077z" fill="#017260" data-original="#75b6e4" style="" class=""/><g fill="#137cc1"><path d="m126.228 94.116c-39.274 2.523-50.158-19.959-60.683-41.706-5.243-10.833-10.394-21.474-19.051-28.165-1.066-.823-1.262-2.356-.439-3.422.379-.492.909-.798 1.475-.905 13.185-3.152 26.203-3.11 37.873-.288 10.718 2.59 20.311 7.525 27.872 14.482 7.599 6.993 13.145 16.026 15.729 26.776 2.228 9.27 2.239 19.799-.557 31.364-.257 1.065-1.178 1.796-2.218 1.861v.003zm-56.285-43.828c9.652 19.946 19.629 40.553 54.165 39.05 2.195-10.086 2.093-19.246.152-27.322-2.342-9.747-7.384-17.95-14.295-24.309-6.951-6.396-15.8-10.94-25.711-13.335-9.59-2.318-20.17-2.631-30.997-.677 7.303 7.207 11.959 16.825 16.686 26.593z" fill="#069f87" data-original="#137cc1" style="" class=""/><path d="m141.626 155.947c.037 1.346-1.025 2.468-2.37 2.505-1.346.037-2.468-1.025-2.505-2.37-.266-8.869-1.172-22.322-3.967-36.036-1.929-9.466-4.757-19.044-8.889-27.277-.601-1.203-.113-2.668 1.09-3.269s2.668-.113 3.269 1.09c4.35 8.666 7.306 18.653 9.31 28.481 2.862 14.046 3.789 27.807 4.062 36.876z" fill="#069f87" data-original="#137cc1" style="" class=""/><path d="m119.871 124.451c-1.04-.86-1.185-2.402-.325-3.441.86-1.04 2.401-1.185 3.441-.325 2.555 2.115 5.137 5.578 7.575 11.275 2.328 5.439 4.574 13.021 6.601 23.595.253 1.325-.616 2.605-1.94 2.858-1.325.253-2.605-.616-2.858-1.94-1.956-10.209-4.095-17.461-6.296-22.601-2.09-4.883-4.186-7.755-6.198-9.421z" fill="#069f87" data-original="#137cc1" style="" class=""/><path d="m164.134 110.311c1.087-12.192 13.681-16.578 24.2-17.052 21.217-.954 35.597 9.165 43.461 28.726 1.39 3.456 2.68 6.661 4.674 9.12 1.568 1.928.222 4.203-1.778 3.977-6.209.304-11.456.978-16.31 1.601-13.182 1.692-23.588 3.028-41.951-3.832-8.805-3.29-15.96-7.689-19.298-11.455-2.51-2.833-3.897-6.823-.136-9.35 1.462-.983 3.8-1.606 7.138-1.735zm4.823 2.324c.239 1.554-1.071 2.582-2.505 2.543-.509-.014-5.729.305-6.875 1.026.061.473.483 1.144 1.207 1.961 2.858 3.225 9.278 7.102 17.346 10.117 17.238 6.44 27.12 5.171 39.638 3.565 3.829-.492 7.897-1.015 12.47-1.371-1.13-2.087-2.032-4.327-2.975-6.674-7.088-17.629-19.549-26.529-38.719-25.667-8.687.39-20.067 3.793-19.587 14.5z" fill="#069f87" data-original="#137cc1" style="" class=""/><path d="m159.356 89.338c34.537 1.503 44.513-19.105 54.166-39.051 4.727-9.766 9.383-19.385 16.685-26.592-10.827-1.955-21.408-1.642-30.997.677-9.912 2.396-18.76 6.939-25.711 13.335-6.911 6.36-11.952 14.561-14.295 24.309-1.941 8.075-2.043 17.236.152 27.322zm58.564-36.929c-10.525 21.748-21.408 44.231-60.683 41.707v-.003c-1.04-.065-1.96-.796-2.218-1.861-2.796-11.565-2.785-22.093-.557-31.364 2.583-10.75 8.129-19.783 15.728-26.776 7.561-6.957 17.153-11.892 27.872-14.482 11.669-2.821 24.688-2.863 37.873.288.566.107 1.096.413 1.475.905.823 1.066.627 2.599-.439 3.422-8.657 6.69-13.808 17.331-19.051 28.164z" fill="#069f87" data-original="#137cc1" style="" class=""/><path d="m146.713 156.081c-.037 1.346-1.159 2.407-2.505 2.37s-2.407-1.159-2.37-2.505c.272-9.068 1.2-22.828 4.063-36.877 2.003-9.828 4.96-19.814 9.31-28.481.601-1.203 2.066-1.691 3.269-1.09s1.691 2.066 1.09 3.269c-4.133 8.234-6.96 17.811-8.889 27.277-2.796 13.716-3.702 27.169-3.968 36.037z" fill="#069f87" data-original="#137cc1" style="" class=""/><path d="m160.477 120.685c1.04-.86 2.581-.715 3.441.325s.715 2.581-.325 3.441c-2.012 1.666-4.108 4.538-6.198 9.42-2.2 5.14-4.339 12.391-6.295 22.601-.253 1.325-1.533 2.193-2.858 1.94s-2.193-1.533-1.94-2.858c2.027-10.574 4.272-18.155 6.6-23.595 2.438-5.696 5.021-9.159 7.575-11.274z" fill="#069f87" data-original="#137cc1" style="" class=""/><path d="m193.21 176.24v87.244c0 1.351-1.096 2.448-2.448 2.448h-98.06c-1.351 0-2.447-1.096-2.447-2.448v-87.244c0-1.351 1.096-2.448 2.447-2.448h98.061c1.351 0 2.447 1.097 2.447 2.448zm-4.895 84.797v-82.349h-93.166v82.349z" fill="#069f87" data-original="#137cc1" style="" class=""/><path d="m84.543 153.567h114.378c1.351 0 2.447 1.096 2.447 2.448v20.226c0 1.351-1.096 2.447-2.447 2.447h-114.378c-1.351 0-2.448-1.096-2.448-2.447v-20.226c0-1.352 1.097-2.448 2.448-2.448zm111.93 4.895h-109.482v15.331h109.483v-15.331z" fill="#069f87" data-original="#137cc1" style="" class=""/><path d="m119.394 110.318c-1.087-12.192-13.68-16.578-24.2-17.052-21.217-.955-35.597 9.165-43.461 28.725-1.39 3.456-2.68 6.661-4.674 9.12-1.568 1.928-.222 4.203 1.778 3.977 6.209.304 11.456.979 16.31 1.601 13.183 1.692 23.588 3.028 41.951-3.832 8.806-3.29 15.96-7.689 19.298-11.455 2.51-2.833 3.897-6.823.136-9.35-1.461-.981-3.799-1.605-7.138-1.734zm-4.823 2.324c-.238 1.554 1.071 2.582 2.505 2.543.509-.015 5.729.305 6.875 1.026-.062.473-.483 1.144-1.207 1.961-2.858 3.225-9.278 7.101-17.347 10.116-17.238 6.44-27.12 5.171-39.638 3.565-3.829-.492-7.897-1.015-12.47-1.371 1.13-2.087 2.032-4.327 2.975-6.674 7.088-17.629 19.549-26.529 38.719-25.667 8.689.392 20.069 3.795 19.588 14.501z" fill="#069f87" data-original="#137cc1" style="" class=""/></g></g></g></g></svg>
