<svg width="534" height="327" viewBox="0 0 534 327" fill="none" xmlns="http://www.w3.org/2000/svg">
<path fill-rule="evenodd" clip-rule="evenodd" d="M164.308 7.5915C163.951 11.7665 163.343 16.604 162.955 18.3415C162.567 20.0785 161.912 23.0185 161.5 24.875C161.088 26.731 160.75 29.0765 160.75 30.0865C160.75 32.9705 162.672 41.551 164.903 48.625C166.721 54.39 163.845 49.114 159.656 39C157.487 33.763 157.011 33.039 156.24 33.8105C155.897 34.1535 155.889 35.5385 156.214 38.0355C157.521 48.0535 158.085 59.9075 157.117 57C156.98 56.5875 156.6 54.675 156.273 52.75C154.919 44.7755 154.702 43.7095 152.21 32.75C150.701 26.115 150.122 24.5 149.249 24.5C149.04 24.5 148.613 27.1435 148.3 30.375C147.987 33.6065 147.515 38.1625 147.251 40.5C146.988 42.8375 146.623 48.3485 146.439 52.7465C146.228 57.7885 145.94 60.4675 145.66 59.9965C145.415 59.586 143.76 56.615 141.982 53.394L138.75 47.538L138.74 38.394C138.729 28.1775 138.191 24.0255 135.875 16.25C135.629 15.425 135.084 14.6835 134.662 14.6025C134.019 14.4785 133.845 15.4815 133.579 20.8525C133.405 24.371 133.047 29.1385 132.783 31.447C132.187 36.658 132.688 39.538 135.006 44.2295C136.445 47.1415 136.753 48.3265 136.768 51.0045C136.778 52.7895 137.085 56.376 137.452 58.9745C138.206 64.3105 138.516 64.362 134.176 58.4275C131.11 54.2345 124.342 47 123.486 47C123.113 47 122.704 47.169 122.577 47.3755C122.315 47.7985 125.542 56.1445 127.309 59.618C127.552 60.0955 127.75 60.7085 127.75 60.9795C127.75 61.674 134.859 78.2025 137.75 84.23C141.226 91.4765 141.75 92.896 141.75 95.061C141.75 96.613 141.565 97 140.827 97C139.615 97 137.122 98.26 136.101 99.3885C134.923 100.69 133.014 105.323 132.346 108.5C130.94 115.197 130.75 116.91 130.751 122.9C130.752 131.783 132.27 139.608 135.064 145.125L136.267 147.5L126.133 147.563C120.56 147.598 89.9 147.654 58 147.688C6.805 147.743 0 147.838 0 148.5C0 149.162 8.111 149.279 69 149.5L138 149.75L139.926 151.112C142.441 152.891 145.06 153.403 146.137 152.327C146.989 151.475 146.809 151.36 140.673 148.841C136.025 146.933 132.751 136.358 132.751 123.25C132.75 113.92 134.006 106.874 136.554 101.907C137.536 99.993 137.965 99.868 139.837 100.949C144.533 103.661 151.238 105.003 160 104.985C167.524 104.97 172.666 104.005 175.165 102.14C177.179 100.636 177.189 99.812 175.189 100.172C164.905 102.023 153.508 101.627 145.025 99.126C143.619 98.7115 143.555 98.573 143.682 96.192C143.83 93.39 142.635 89.819 139.333 83.193C137.466 79.4445 132.75 68.734 132.75 68.24C132.75 68.122 132.114 66.613 131.335 64.8875C128.818 59.3035 126.615 53.4685 126.912 53.171C127.278 52.8055 127.868 53.4165 131.335 57.75C137.022 64.86 143.125 75.632 145.499 82.75C146.501 85.755 147.748 92.5615 147.749 95.0295C147.75 96.88 148.894 99.0225 149.538 98.3785C150.019 97.897 149.828 91.752 149.261 89.5C149.019 88.5375 148.546 86.4 148.21 84.75C146.894 78.2715 146.133 76.0185 143.191 69.8835C141.019 65.354 139.941 62.397 139.454 59.6335C138.672 55.196 138.563 52.5 139.164 52.5C139.744 52.5 144.466 62.125 145.665 65.75C146.211 67.4 147.006 71.225 147.432 74.25C148.217 79.8195 148.785 82.8255 149.653 86C151.223 91.7435 154.561 99.1535 155.438 98.842C156.121 98.5995 156.095 98.3535 154.833 93C154.282 90.6625 153.464 86.8375 153.014 84.5C151.897 78.686 151.594 77.488 149.806 71.8135C148.325 67.1155 148.252 66.4875 148.279 58.8135C148.317 48.2175 149.519 33 150.318 33C150.556 33 150.75 33.529 150.75 34.1755C150.75 34.822 150.95 36.003 151.196 36.8005C151.441 37.5975 151.891 39.4875 152.195 41C153.065 45.3375 154.711 53.9645 155.294 57.25C155.586 58.9 156.077 61.375 156.384 62.75C156.726 64.283 156.875 68.924 156.77 74.75C156.455 92.059 156.472 93.154 157.064 93.353C157.988 93.6635 158.247 92.2665 159.016 82.804C159.889 72.06 159.954 61.0415 159.201 51.2645C158.588 43.302 158.719 41.3315 159.703 43.75C160.039 44.575 161.198 47.0725 162.279 49.3C166.149 57.2765 167.195 62.109 167.68 74.25C167.945 80.8855 168.128 82.25 168.75 82.25C169.38 82.25 169.524 80.9315 169.654 74C169.851 63.4945 168.961 55.289 166.958 49.1375C166.579 47.975 165.798 45.275 165.221 43.1375C162.533 33.1815 162.177 29.2075 163.52 24.1495C164.694 19.73 165.646 14.195 166.018 9.625C166.357 5.466 166.978 4.3385 167.531 6.875C167.696 7.6315 168.014 8.8125 168.237 9.5C168.684 10.878 169.547 15.141 170.008 18.25C170.739 23.1785 171.113 34.8705 170.75 41.5C170.532 45.4875 170.462 48.9295 170.596 49.1495C171.019 49.845 172.177 48.4875 172.783 46.585C173.31 44.93 173.64 44.091 175.072 40.75C175.737 39.198 175.915 50.092 175.301 54.75C174.428 61.3715 174.297 63.768 174.767 64.5275C175.155 65.1545 175.302 65.151 175.883 64.5C177.147 63.082 177.974 59.396 179.307 49.25C179.893 44.786 182.029 39.0615 183.97 36.75C184.768 35.8 184.797 35.925 184.535 39.25C183.746 49.289 179.478 67.5215 174 84.2545C172.867 87.716 169.613 95.706 168.917 96.7365C168.55 97.2785 168.25 98.1225 168.25 98.6115C168.25 100.97 171 98.598 176.497 91.5C183.142 82.9175 185.977 78.1975 187.604 73C188.45 70.297 189.75 62.085 189.75 59.443C189.75 55.5105 191.785 49.733 194.328 46.444C195.821 44.514 199.165 41.748 199.546 42.1285C199.672 42.255 199.339 43.3775 198.805 44.6235C197.613 47.4035 195.52 53.5895 192.758 62.5C191.607 66.2125 190.352 70.2005 189.968 71.3625C189.296 73.3975 187.592 79.506 186.758 82.874C186.111 85.486 183.875 89.383 180.441 93.8835C177.384 97.8895 176.963 99 178.504 99C180.242 99 183.015 104.837 184.203 111C184.495 112.513 184.962 114.943 185.242 116.4C186.018 120.446 185.864 131.195 184.969 135.5C183.939 140.452 181.995 144.681 179.908 146.514C178.238 147.98 178.135 148 172.357 148.01C163.129 148.027 150.713 149.837 149.158 151.393C147.543 153.007 151.841 154 160.439 154C168.305 154 173.265 153.129 177.299 151.038C179.975 149.651 180.439 149.58 187.799 149.419C192.034 149.326 198.598 149.453 202.385 149.702C208.754 150.12 209.247 150.222 208.975 151.079C208.468 152.678 210.246 152.865 211.363 151.331L212.333 150H219.292C223.119 150 226.25 150.2 226.25 150.445C226.25 150.69 223.888 151.839 221 153C217.997 154.207 215.75 155.396 215.75 155.779C215.75 157.929 225.578 162.439 228.607 161.678C231.296 161.003 229.009 164.281 223.673 168.75C219.328 172.389 218.631 176.435 221.389 182C223.988 187.244 226.931 192.023 227.454 191.849C227.72 191.76 228.289 190.628 228.719 189.333C229.185 187.928 230.781 185.466 232.676 183.23C235.785 179.561 237.75 175.705 237.75 173.268C237.75 170.596 235.241 167.214 233.023 166.896C231.569 166.688 231.408 163.767 232.732 161.625C233.978 159.607 234.904 159.573 236.323 161.492C236.929 162.312 238.271 163.542 239.303 164.225C240.336 164.909 241.48 166.094 241.847 166.859C242.747 168.738 243.817 168.609 244.833 166.5C246.98 162.043 246.567 158.258 243.435 153.682C242.218 151.904 241.354 150.236 241.516 149.975C241.677 149.714 242.79 149.5 243.988 149.5C247.935 149.5 248.466 148.829 246.845 145.89C244.911 142.385 241.699 129.793 241.579 125.25C241.491 121.893 241.793 121.072 246.553 111.75L249.616 105.75L251.733 105.914C256.738 106.303 261.732 109.738 267.487 116.75C272.555 122.924 275.211 131.415 274.03 137.663C273.709 139.361 272.868 142.01 272.16 143.55C270.635 146.872 270.269 147 262.37 147C256.408 147 250.768 147.872 250.392 148.852C249.755 150.51 251.188 150.9 259.272 151.266C263.66 151.465 267.25 151.774 267.25 151.952C267.25 152.131 266.948 152.722 266.578 153.264C265.316 155.117 262.947 159.747 261.796 162.61C260.813 165.054 260.684 166.072 260.903 169.61C261.044 171.887 261.427 174.763 261.754 176C262.65 179.388 262.949 187.349 262.27 189.717C260.309 196.554 256.555 200.698 248.319 205.12C246.515 206.088 245.23 207.298 243.938 209.245C242.931 210.76 241.737 212 241.282 212C240.828 212 239.228 211.269 237.728 210.375C235.756 209.201 234.398 207.849 232.829 205.5C231.635 203.712 230.484 202.186 230.272 202.106C230.06 202.027 229.643 202.59 229.344 203.356C227.632 207.755 227.258 212.855 228.439 215.682C229.687 218.668 233.688 221 237.561 221C239.924 221 240.246 221.4 238.875 222.63C237.877 223.527 236.362 223.839 229.917 224.477C224.475 225.016 222.866 225.753 220.572 228.757C219.099 230.687 218.77 231.637 218.281 235.38C217.442 241.807 216.741 244.546 215.449 246.458C214.814 247.398 214.41 248.354 214.551 248.583C214.887 249.126 216.897 249.116 218.352 248.564C218.983 248.324 220.4 247.859 221.5 247.531C223.547 246.92 225.324 246.228 226.875 245.438C227.356 245.192 227.75 245.18 227.75 245.411C227.75 245.832 227.115 246.188 223.624 247.723C218.427 250.008 216.252 256.078 218.815 261.145C219.401 262.302 221.615 264.938 223.736 267C228.091 271.236 229.75 273.428 229.75 274.947C229.75 275.52 229.3 277.173 228.751 278.62C226.841 283.645 227.605 284.662 232.915 284.167C235.441 283.931 236.605 284.054 237.973 284.703C238.951 285.167 239.75 285.727 239.75 285.946C239.75 287.83 231.675 290.473 228.016 289.786C224.696 289.163 223.58 286.289 226.034 284.681C227.05 284.015 227.252 283.576 227.001 282.576C226.321 279.867 223.706 279.25 221.514 281.281C219.414 283.227 220.004 285.727 223.601 290.124C226.957 294.226 228.569 295.161 232.289 295.164C234.616 295.166 235.466 294.899 237.421 293.554C238.71 292.667 240.126 291.392 240.565 290.72C241.005 290.049 241.531 289.5 241.733 289.5C242.189 289.5 243.306 296.006 242.949 296.583C242.807 296.813 242.345 297 241.922 297C240.606 297 238.169 299.073 237.443 300.809C237.062 301.721 236.75 303.792 236.75 305.41C236.75 309.043 237.958 311.06 241.513 313.358C248.316 317.756 250.202 319.696 251.675 323.811C252.672 326.599 253.591 327.126 254.024 325.16C254.36 323.632 255.698 318.374 257.563 311.25C260.448 300.226 258.139 293.82 251.868 295.447C247.3 296.632 246.668 296.235 244.909 291.073C243.748 287.668 243.383 283.286 244.217 282.771C244.474 282.612 245.655 282.879 246.842 283.366C249.407 284.417 257.412 284.562 261.75 283.635C263.263 283.312 266.058 282.868 267.962 282.649C271.735 282.214 272.49 281.565 270.474 280.487C268.82 279.602 267.75 277.043 267.75 273.977C267.75 270.654 266.767 266.539 265.546 264.75C264.189 262.763 263.02 261.769 259.9 259.949L257.3 258.432L258.967 256.091C260.815 253.496 263.741 247.885 263.766 246.889C263.774 246.537 264.088 245.847 264.461 245.355C265.107 244.503 265.303 244.523 268.57 245.773C276.88 248.954 277.75 249.666 277.75 253.288C277.75 255.475 278.159 256.21 279.031 255.592C279.604 255.187 283.502 246.409 284.824 242.547C286.206 238.511 286.083 232.782 284.539 229.29C283.064 225.955 279.481 222.24 277.272 221.755C275.725 221.415 275.672 221.323 275.999 219.575C276.428 217.274 276.723 216.999 277.434 218.235C278.532 220.145 280.857 222 282.151 222C285.654 222 290.907 215.481 294.262 206.971C295.499 203.831 295.067 203.051 292.754 204.247C290.486 205.42 286.041 205.303 282.978 203.991C279.449 202.478 275.292 199.142 274.965 197.559C273.94 192.603 271.68 186.035 268.408 178.5C267.418 176.22 266.705 174.49 266.246 173.25C266.042 172.7 265.635 171.65 265.341 170.916C264.431 168.637 264.088 163.756 264.707 161.882C265.022 160.928 265.853 159.608 266.556 158.949C269.238 156.432 275.765 157.737 281.211 161.88L282.922 163.182L280.972 163.729C278.304 164.477 276.75 166.831 276.75 170.122C276.75 173.578 278.022 177.58 279.839 179.837C282.078 182.62 282.817 184.654 282.442 186.999C282.158 188.777 282.234 189 283.129 189C284.526 189 289.711 185.446 292.108 182.846C295.634 179.021 296.938 176.275 296.938 172.671C296.938 170.927 296.958 169.5 296.983 169.5C297.009 169.5 298.536 170.136 300.379 170.913C304.929 172.833 305.75 173.656 305.75 176.298C305.75 177.477 306.017 178.606 306.342 178.807C307.178 179.324 310.455 175.388 312.219 171.75C314.276 167.508 314.75 165.76 314.75 162.42C314.75 158.531 313.348 155.646 309.945 152.536C308.463 151.182 307.25 149.944 307.25 149.786C307.25 149.269 335.397 149.544 336.38 150.07C337.005 150.404 337.516 150.401 337.925 150.062C338.287 149.761 344.794 149.41 353.897 149.199C364.868 148.946 369.399 148.673 369.755 148.243C370.102 147.826 369.734 146.592 368.55 144.197C367.612 142.301 366.164 138.725 365.332 136.25C363.895 131.979 362.028 124.055 362.377 123.706C362.467 123.617 364.105 123.881 366.02 124.294C370.447 125.248 382.407 125.748 389.375 125.271C394.198 124.941 394.75 124.806 394.75 123.952C394.75 123.064 394.306 123 388.125 123.003C381.233 123.006 377.425 122.62 367.75 120.935C360.665 119.701 359.307 119.196 358.645 117.547C357.765 115.356 356.848 110.498 357.265 110.24C357.482 110.106 358.636 110.413 359.83 110.921C362.301 111.975 369.478 113 374.38 113C377.23 113 377.801 112.846 378.466 111.896C379.202 110.845 379.378 110.82 382.079 111.387C384.268 111.846 385.082 111.847 385.633 111.39C386.202 110.917 386.453 110.995 386.872 111.773C388.166 114.176 391.996 117.105 396.947 119.475C401.116 121.471 402.588 122.476 404.435 124.587C407.628 128.237 407.932 127.741 407.612 119.416C407.47 115.75 407.192 112.244 406.994 111.625C406.638 110.514 406.691 110.5 411.191 110.5C416.505 110.5 416.387 110.31 414.767 116.25C414.117 118.632 413.452 119.989 412.683 120.5C409.92 122.337 409.476 122.899 410.052 123.839C410.376 124.369 410.452 125.36 410.237 126.245C410.036 127.073 409.574 129.1 409.211 130.75C408.848 132.4 407.617 136.225 406.475 139.25L404.4 144.75L402.45 144.632C392.479 144.03 380.754 143.952 378.426 144.473C374.937 145.254 372.901 146.305 371.891 147.846C369.818 151.009 373.393 152.131 385.75 152.192C397.424 152.251 401.929 151.281 404.572 148.141C405.616 146.899 405.725 146.881 408.822 147.408C416.977 148.797 448.647 149.894 492 150.289C526.023 150.599 532.481 150.442 532.106 149.314C531.969 148.905 521.404 148.663 493.708 148.433C456.771 148.126 451.386 148.007 429.25 146.995C417.945 146.478 407.402 145.653 406.72 145.232C406.479 145.082 406.753 143.787 407.331 142.355C409.379 137.274 411.642 129.583 412.002 126.482C412.306 123.863 412.622 123.104 413.888 121.947C415.674 120.317 416.511 118.122 417.278 113.061C417.985 108.4 417.582 107.8 414.25 108.555C411.063 109.278 406.517 108.657 404.852 107.272C401.763 104.704 399.25 104.211 399.25 106.173C399.25 107.513 400.208 108.432 402.845 109.622C404.281 110.27 404.807 110.877 405.217 112.353C405.845 114.614 405.931 122.5 405.328 122.5C405.095 122.5 404.477 122.015 403.953 121.423C403.429 120.83 400.735 119.279 397.967 117.975C394.508 116.346 392.202 114.874 390.592 113.264C389.304 111.975 388.25 110.724 388.25 110.483C388.25 110.243 389.094 109.892 390.125 109.706C391.156 109.519 392.592 109.067 393.315 108.701C394.782 107.959 397.25 105.233 397.25 104.355C397.25 104.043 395.626 102.317 393.642 100.519C388.707 96.049 386.752 94.096 384.862 91.75L383.25 89.75L380.314 92.8205C376.709 96.59 375.75 98.437 375.75 101.612C375.75 103.547 376.082 104.553 377.31 106.338C378.83 108.547 378.84 108.596 377.685 108.234C375.81 107.647 372.493 105.193 370.625 103.011C368.292 100.285 367.002 97.641 364.78 91.026L362.892 85.4035L364.445 85.705C367.143 86.229 371.911 88.885 374.373 91.235C375.678 92.4805 376.972 93.5 377.248 93.5C378.011 93.5 377.851 92.551 376.839 91.077C375.552 89.203 374.351 86.468 374.171 85C374.011 83.696 374.591 76.437 375.079 73.625C375.234 72.731 375.618 72.003 375.931 72.006C376.582 72.0135 378.137 74.326 379.456 77.25C381.923 82.7195 383.006 84.6575 384.263 85.844C385.428 86.9435 385.597 87.4315 385.377 89.0695C385.17 90.6175 385.277 91 385.922 91C386.365 91 387.112 90.381 387.583 89.625C389.533 86.494 391.996 83.872 394.666 82.086C397.31 80.317 402.691 77.5 403.425 77.5C404.113 77.5 403.703 81.479 402.698 84.5425C401.25 88.956 400.481 90.3065 398.878 91.2565C396.336 92.763 393.466 98 395.182 98C395.815 98 398.344 95.9905 399.5 94.5695C401.902 91.616 402.73 91.033 406.75 89.468C410.751 87.91 412.699 86.977 415.159 85.441C415.734 85.0815 416.312 84.896 416.444 85.0275C416.81 85.394 414.838 92.3675 413.784 94.435C413.271 95.4405 412.209 96.9085 411.426 97.697C410.058 99.072 405.655 101.35 402.5 102.315C399.998 103.08 400.666 104.137 404.25 105.082C406.967 105.799 408.073 105.851 411 105.404C421.541 103.791 428.114 99.7605 431.634 92.75C432.815 90.3975 434.75 84.0945 434.75 82.6005C434.75 81.003 434.24 80.997 431.035 82.557C429.405 83.3505 427.818 84 427.509 84C427.199 84 425.882 84.675 424.581 85.5C423.28 86.325 422.163 87 422.099 87C422.035 87 421.969 83.9065 421.952 80.125C421.929 75.0855 421.684 72.449 421.035 70.25C420.548 68.6 420.034 66.7405 419.891 66.1175C419.564 64.6935 418.892 64.2605 418.068 64.944C417.717 65.2355 416.581 67.617 415.544 70.237C414.507 72.8565 413.454 75 413.204 75C412.954 75 412.75 74.2035 412.75 73.23C412.75 71.076 411.335 68.1965 408.4 64.375C406.194 61.503 405.096 60.8775 404.587 62.203C404.097 63.482 400.049 68.435 399.681 68.2075C399.482 68.0845 399.175 66.694 398.999 65.117C398.358 59.412 394.887 51.043 392.833 50.255C391.858 49.881 391.831 49.9275 391.25 53.038C390.823 55.3265 389.709 58.5965 387.218 64.875C386.784 65.968 385.75 66.4485 385.75 65.5575C385.75 65.314 384.739 63.3455 383.504 61.1825C382.268 59.0195 381.121 56.5345 380.954 55.6595C380.788 54.785 380.362 53.958 380.009 53.8225C378.028 53.0625 371.75 64.213 371.75 68.489C371.75 69.2875 371.56 70.0585 371.328 70.202C371.096 70.3455 369.464 68.686 367.703 66.5145C365.941 64.3425 364.142 62.551 363.704 62.533C362.524 62.484 361.75 65.701 361.75 70.6595C361.75 74.8915 362.237 76.904 363.677 78.628C364.828 80.0055 364.128 80.0965 361.203 78.951C359.716 78.369 358.05 77.7215 357.5 77.5125C356.535 77.146 343.411 72.7195 341.625 72.1585C340.134 71.69 340.562 74.547 342.738 79.5955C345.045 84.9455 347.621 88.8835 350.333 91.205C351.388 92.1075 352.25 92.96 352.25 93.099C352.25 93.2385 350.356 93.498 348.042 93.676C343.867 93.997 339.922 95.256 338.436 96.742C337.412 97.7665 337.936 98.3985 340.142 98.797C344.689 99.619 355.509 105.879 355.035 107.413C354.675 108.581 355.936 115.868 356.883 118.086C357.314 119.096 358.223 120.287 358.904 120.732C359.887 121.377 360.211 122.128 360.487 124.396C361.139 129.768 363.71 138.342 366.254 143.63C367.016 145.214 367.482 146.606 367.29 146.725C367.098 146.844 361.217 147.075 354.221 147.239C347.225 147.403 340.665 147.643 339.644 147.771C338.181 147.956 337.681 147.805 337.278 147.053C336.741 146.048 336.92 145.307 339.46 138.077C341.026 133.616 341.064 132.157 339.688 129.23C338.521 126.748 336.329 124.712 332.951 122.975C331.741 122.352 330.75 121.77 330.75 121.681C330.75 121.592 331.761 121.658 332.998 121.827C334.667 122.056 336.033 121.849 338.3 121.022C340.365 120.269 341.892 120.009 343.013 120.219C343.926 120.39 344.796 120.33 344.947 120.085C345.39 119.368 342.972 114.993 340.337 111.745C337.317 108.022 333.851 106 330.494 106C328.659 106 327.291 106.459 324.449 108.028L320.776 110.055L316.638 109.488C314.362 109.175 310.362 108.279 307.75 107.497C305.138 106.716 301.425 105.791 299.5 105.441C297.575 105.092 295.487 104.482 294.86 104.086C294.176 103.654 291.476 103.204 288.11 102.962C281.509 102.487 282.25 102.6 282.25 102.058C282.25 101.815 284.416 100.521 287.064 99.183C294.939 95.203 296.915 91.9695 296.875 83.131C296.846 76.898 295.352 74.293 293.047 76.453C292.009 77.426 285.978 80.568 283.94 81.1985C282.955 81.503 283.069 80.956 285.513 73.599C286.961 69.239 288.749 64.4805 289.487 63.025C291.157 59.7305 290.612 58.792 288.128 60.6865C287.189 61.4025 284.189 63.023 281.461 64.2875C272.694 68.351 271.495 68.986 269.534 70.6025C268.474 71.476 266.964 73.2045 266.178 74.443C264.461 77.1515 264.356 79.32 265.7 84.26C267.188 89.7245 267.899 94.936 267.578 98.0115C267.152 102.086 266.978 102.344 264.47 102.627C263.249 102.764 261.913 103.157 261.5 103.5C260.603 104.244 260.517 106.068 261.341 106.892C262.549 108.1 261.303 108.006 259.452 106.749C258.398 106.035 256.235 105.067 254.644 104.6C253.053 104.132 251.754 103.638 251.757 103.5C251.76 103.362 253.339 102.611 255.267 101.831C259.224 100.229 263.332 97.2095 264.776 94.8415C266.059 92.7365 266.026 89.5255 264.696 87.14C264.117 86.1005 261.611 83.2775 259.128 80.867L254.612 76.484L254.906 74.006C255.076 72.572 254.99 71.3985 254.703 71.221C253.623 70.5535 247.849 76.487 245 81.1915C244.571 81.9 244.109 81.948 241.75 81.5285C240.237 81.26 237.425 80.7705 235.5 80.4415C229.569 79.4275 228.312 78.6285 226.279 74.588C225.383 72.805 225.065 72.531 224.471 73.024C223.915 73.4855 223.75 75.0185 223.75 79.713C223.75 85.274 223.863 86.031 225.053 88.419C225.824 89.966 227.458 91.9855 229.053 93.3625C231.5 95.475 232.26 96.8235 231.456 97.6275C231.294 97.789 229.797 97.039 228.128 95.9605C224.71 93.751 223.442 93.562 221.624 94.992C220.453 95.913 215.75 104.645 215.75 105.897C215.75 106.204 215.038 107.947 214.167 109.77C213.075 112.057 211.759 113.808 209.923 115.417C206.456 118.458 206.31 120.004 209.65 118.319C210.392 117.944 212.879 117.487 215.176 117.303C223.243 116.656 227.445 113.304 229.48 105.89C231.072 100.091 230.766 100.317 234.195 102.402C235.463 103.173 237.231 104.1 238.125 104.463C239.019 104.825 239.746 105.151 239.742 105.186C239.738 105.221 239.422 106.147 239.041 107.243C238.273 109.45 238.409 109.344 233.5 111.59C229 113.649 225.19 116.048 223.329 117.995C221.992 119.395 221.434 120.432 220.542 123.177C220.328 123.838 219.992 123.994 219.371 123.721C214.971 121.787 209.733 124.59 206.705 130.5C205.804 132.26 205.553 133.566 205.554 136.5C205.556 139.733 205.776 140.679 207.153 143.361C209.756 148.432 210.661 148.091 195.625 147.703C188.406 147.517 182.444 147.32 182.377 147.267C182.309 147.214 182.942 145.9 183.784 144.346C187.482 137.517 188.668 127.28 187.027 116.345C185.699 107.5 184.02 102.195 181.433 98.6755L180.276 97.101L182.811 93.6755C186.804 88.278 187.542 86.715 189.743 79C191.894 71.462 195.749 59.0105 198.336 51.25C199.977 46.3235 203.352 38.938 204.82 37.0575C206.613 34.76 205.375 33.412 203.452 35.568C202.928 36.1555 200.362 38.489 197.75 40.753C194.807 43.304 192.387 45.894 191.39 47.56C189.601 50.549 187.774 57.042 187.749 60.5C187.726 63.5665 186.51 70.727 185.516 73.639C184.235 77.3945 181.89 81.3865 178.199 86.0985C176.325 88.4905 174.503 90.909 174.15 91.4735C173.371 92.7215 172.529 92.8525 173.178 91.625C173.729 90.5835 177.221 80.2005 178.686 75.25C180.696 68.456 181.964 63.5905 183.215 57.875C183.471 56.706 183.906 54.7375 184.182 53.5C184.698 51.184 185.323 47.675 186.231 42C186.976 37.344 187.123 28.8955 186.464 28.6645C186.17 28.561 185.325 29.7755 184.587 31.363C183.849 32.951 182.236 36.05 181.004 38.25C179.771 40.45 178.76 42.6435 178.757 43.125C178.753 43.6065 178.493 44 178.178 44C177.663 44 177.741 39.8325 178.383 33.0155C178.455 32.2505 178.215 31.7235 177.75 31.629C177.228 31.5235 176.469 32.7675 175.25 35.73C174.288 38.069 173.331 39.9865 173.125 39.9915C172.919 39.996 172.748 36.681 172.746 32.625C172.741 23.2505 171.448 13.1505 169.497 7.25C167.994 2.7045 166.602 0 165.764 0C165.085 0 164.853 1.2035 164.308 7.5915ZM136.747 31.6745C136.92 35.355 136.918 39.4655 136.743 40.8085C136.439 43.142 136.401 43.192 135.874 41.937C134.602 38.913 134.168 36.1655 134.462 33.0215C135.267 24.432 135.355 23.905 135.895 24.4455C136.19 24.7405 136.574 27.9935 136.747 31.6745ZM394.41 55.6325C395.885 58.739 396.314 60.2455 397.241 65.5705C397.753 68.512 398.418 71.3785 398.719 71.941C399.321 73.0665 400.75 72.8665 400.75 71.656C400.75 70.825 403.891 65.9205 405.027 64.9775C406.003 64.1675 406.949 65.021 409.206 68.7475C410.653 71.1385 410.906 72.011 410.883 74.5265C410.863 76.602 410.539 78.024 409.802 79.2735C408.711 81.123 408.411 83 409.207 83C410.734 83 417.75 71.986 417.75 69.5885C417.75 68.316 418.622 69.0995 419.181 70.875C420.995 76.638 420.683 83.996 418.343 90.62C417.218 93.8045 417.741 95.0325 419.337 92.9545C423.003 88.181 424.068 87.3975 430.418 84.8L432.336 84.0155L431.991 86.1325C431.429 89.597 428.811 94.5055 426.135 97.112C422.645 100.511 418.374 102.335 411.156 103.507C405.819 104.374 404.739 103.848 408.27 102.101C411.521 100.492 414.183 97.9555 415.475 95.2335C416.712 92.629 418.715 85.1865 418.735 83.125C418.753 81.1855 418.213 81.0995 416.091 82.703C415.216 83.3645 413.038 84.6155 411.25 85.483C409.462 86.3505 407.655 87.243 407.233 87.4665C406.812 87.69 405.755 88.0295 404.884 88.2205L403.302 88.568L404.346 85.659C404.921 84.059 405.5 81.006 405.634 78.875C405.872 75.0965 405.85 75 404.731 75C403.55 75 394.688 79.489 393.122 80.8805C391.983 81.8925 391.355 81.2735 392.359 80.128C393.87 78.4055 394.75 76.0135 394.742 73.65C394.731 70.2865 394.255 69.6695 392.297 70.4805C390.198 71.35 384.988 77.0125 384.262 79.214C383.708 80.8915 382.75 81.6715 382.75 80.4445C382.75 79.4195 379.167 72.627 377.664 70.804C376.701 69.636 375.75 69 374.964 69C373.423 69 373.393 67.998 374.823 64.144C375.897 61.251 378.487 56.984 379.149 57.018C379.342 57.0275 380.119 58.3215 380.875 59.893C381.632 61.4645 382.769 63.65 383.404 64.75C384.038 65.85 384.909 67.875 385.339 69.25C386.504 72.976 386.963 72.615 388.765 66.5565C389.369 64.525 390.513 61.2875 391.306 59.3625C392.1 57.4375 392.75 55.4435 392.75 54.931C392.75 53.489 393.555 53.829 394.41 55.6325ZM286.514 64.875C286.325 65.3565 284.918 69.508 283.387 74.1015C281.055 81.096 280.287 82.8015 278.663 84.5965C276.169 87.3525 274.91 90.0065 274.323 93.75C273.884 96.5455 274.18 98 275.189 98C275.362 98 276.043 96.594 276.701 94.875C278.759 89.4975 281.162 85.13 282.608 84.1335C284.118 83.094 288.487 81 289.147 81C289.371 81 290.603 80.3345 291.886 79.5215C293.586 78.4425 294.323 78.206 294.608 78.6465C294.824 78.9785 294.968 81.3875 294.928 84C294.814 91.5765 293.347 93.956 286.75 97.2725C281.459 99.9325 279.752 101.181 279.751 102.391C279.751 103.018 280.086 103.661 280.497 103.818C282.411 104.553 280.165 105 274.566 105C270.035 105 268.188 105.186 267.47 105.716C266.703 106.282 266.628 106.563 267.112 107.053C267.774 107.726 278.017 108.953 283.205 108.982L286.409 109L286.083 120.597C285.903 126.975 285.57 132.38 285.343 132.607C285.115 132.834 284.615 132.397 284.23 131.635C281.887 126.995 276.547 120.315 269.016 112.6C263.657 107.112 262.268 105.315 262.897 104.686C263.065 104.518 264.09 104.394 265.174 104.409C268.059 104.449 268.62 103.762 269.199 99.485C269.741 95.4815 269.137 89.8105 267.531 83.8505C265.38 75.864 267.3 73.0045 278.25 67.8925C281.688 66.2875 284.838 64.768 285.25 64.5165C286.431 63.796 286.887 63.925 286.514 64.875ZM367.947 69.7285C369.842 72.049 371.699 74.065 372.072 74.2085C372.809 74.4915 372.927 77.658 372.338 81.3915L372 83.533L370.5 82.3915C366.81 79.5835 364.345 76.7115 363.76 74.539C363.172 72.3525 363.487 65.4955 364.176 65.504C364.354 65.5065 366.051 67.4075 367.947 69.7285ZM391.906 77.492C390.102 80.364 386.357 84.9405 386.057 84.6405C385.496 84.079 385.74 80.6465 386.464 78.913C386.857 77.973 388.375 76.0895 389.839 74.727L392.5 72.25L392.656 74.1495C392.756 75.3525 392.48 76.5785 391.906 77.492ZM253.49 77.077C254.035 78.213 256.004 80.5075 257.867 82.1755C262.227 86.0785 263.75 88.373 263.75 91.037C263.75 94.67 260.549 97.6965 253.733 100.507C251.816 101.298 248.246 103.293 245.799 104.94C241.27 107.99 239.684 108.418 242.047 105.951C243.595 104.336 243.375 103.732 241.106 103.364C239.162 103.048 235.543 101.399 233.75 100.011C232.663 99.1705 232.581 98.9115 233.125 98.029C234.265 96.177 233.82 95.1295 230.764 92.472C226.877 89.0905 225.75 86.758 225.75 82.092C225.75 78.523 226.091 77.8525 227.214 79.207C228.315 80.5325 231.994 81.861 236.25 82.47C242.713 83.3945 243.523 83.658 243.354 84.781C242.659 89.401 242.678 89.943 243.609 92.05C245.139 95.513 245.348 96.8305 244.502 97.6765C243.479 98.6995 243.968 99.6745 245.862 100.39C247.72 101.091 248.433 100.485 247.986 98.5855C247.774 97.6865 248.172 96.973 249.73 95.461C251.334 93.9045 251.75 93.14 251.75 91.745C251.75 89.506 250.133 86.054 248.23 84.2305C247.416 83.451 246.751 82.574 246.752 82.2815C246.755 81.54 251.668 75.0555 252.25 75.025C252.388 75.0175 252.945 75.941 253.49 77.077ZM346.716 75.952C348.247 76.4755 351.075 77.385 353 77.973C357.227 79.2645 364.318 81.9905 364.975 82.5765C365.236 82.8095 365.753 83 366.124 83C366.495 83 367.73 83.45 368.868 84C370.007 84.55 371.209 85 371.54 85C372.123 85 372.961 86.4555 372.591 86.826C372.49 86.9265 370.966 86.3665 369.204 85.5815C367.442 84.7965 364.919 83.862 363.598 83.5045C360.154 82.573 359.794 83.1595 361.398 87.0945C362.106 88.83 363.167 91.825 363.755 93.75C365.963 100.969 370.639 106.991 376.042 109.574L378.5 110.75L374.307 110.896C367.755 111.125 363.648 109.537 352 102.272C349.25 100.557 345.924 98.748 344.608 98.2525C343.293 97.7565 342.298 97.1035 342.399 96.8005C342.709 95.8665 350.194 94.97 356.486 95.1135C361.653 95.2315 362.494 95.14 362.634 94.4465C362.761 93.8165 362.213 93.5745 360.094 93.3255C352.98 92.4895 348.389 88.3025 344.522 79.125C343.496 76.6905 343.019 75 343.358 75C343.674 75 345.186 75.4285 346.716 75.952ZM247.362 85.875C249.688 88.5275 250.428 92.422 248.922 94.0855C247.698 95.4385 246.964 95.2105 246 93.179C243.767 88.475 244.798 82.9505 247.362 85.875ZM392.445 101.902C395.376 104.504 395.386 104.522 394.445 105.577C393.073 107.117 390.639 108 387.766 108C385.583 108 385.25 108.132 385.25 109C385.25 109.55 385.127 110 384.975 110C384.119 110 381.717 108.289 379.78 106.299C377.739 104.203 377.562 103.817 377.596 101.543C377.636 98.9315 378.504 97.253 381.437 94.115L382.966 92.48L386.233 95.884C388.03 97.7565 390.826 100.465 392.445 101.902ZM226.042 96.6425C226.615 96.9765 227.658 97.7125 228.361 98.278L229.638 99.306L227.788 104.884C226.771 107.952 225.553 110.889 225.083 111.408C223.431 113.233 219.268 115.093 216.214 115.37C214.584 115.518 213.25 115.49 213.25 115.309C213.25 115.128 213.77 114.141 214.406 113.115C215.815 110.841 217.75 106.708 217.75 105.974C217.75 105.235 220.709 99.061 221.87 97.375C222.891 95.894 224.326 95.642 226.042 96.6425ZM294.624 106.784C296.897 107.259 299.722 113.639 299.768 118.4C299.796 121.33 301.072 125.931 302.422 127.971C304.169 130.611 306.667 131.681 311.625 131.911L315.75 132.102V127.576C315.75 120.81 314.682 116.232 312.37 113.092C311.699 112.18 311.282 111.301 311.444 111.139C311.768 110.815 315.644 113.126 320.016 116.25L322.815 118.25L322.575 122C322.443 124.062 322.082 126.763 321.772 128C320.522 132.986 320.552 134.823 321.947 138.65C322.676 140.649 323.84 142.896 324.532 143.643C325.895 145.113 329.239 147 330.48 147C330.904 147 331.25 147.225 331.25 147.5C331.25 148.062 315.213 148.197 310.844 147.673L308.187 147.353L308.559 145.301C308.763 144.173 308.946 142.688 308.966 142C308.998 140.826 308.864 140.759 306.75 140.897C303.934 141.081 300.156 142.795 297.328 145.173C295.561 146.659 294.751 147 292.993 147C289.915 147 289.317 146.639 288.973 144.577C288.805 143.572 288.2 141.289 287.628 139.504C286.687 136.565 286.645 135.926 287.19 132.754C287.521 130.827 287.929 124.519 288.096 118.736C288.365 109.489 288.306 108.127 287.6 107.421C287.159 106.98 286.895 106.522 287.014 106.402C287.266 106.151 292.961 106.437 294.624 106.784ZM285.131 106.843C284.653 106.968 283.753 106.973 283.131 106.854C282.509 106.734 282.9 106.631 284 106.626C285.1 106.62 285.609 106.718 285.131 106.843ZM246.646 107.375C246.543 107.581 245.266 110.169 243.809 113.126C242.351 116.083 240.954 118.377 240.704 118.222C240.454 118.068 240.25 116.3 240.25 114.295V110.649L243.125 108.841C245.936 107.074 247.022 106.621 246.646 107.375ZM301.468 108.8C301.711 109.768 302.093 110 303.448 110C306.703 110 310.082 112.223 311.754 115.464C312.754 117.404 313.651 121.946 313.832 126L313.999 129.75L311.147 129.9C308.093 130.059 306.055 129.321 304.276 127.413C303.078 126.126 301.757 121.849 301.733 119.173C301.706 116.242 300.509 111.27 299.361 109.325C298.192 107.345 298.285 107.05 299.97 107.372C300.712 107.514 301.281 108.057 301.468 108.8ZM334.5 108.956C337.443 110.825 341.75 115.723 341.75 117.202C341.75 117.997 336.292 120 334.129 120C331.84 120 328.252 118.652 325.672 116.824C324.942 116.306 324.124 116.019 323.854 116.186C323.585 116.352 321.842 115.379 319.981 114.023L316.599 111.556L319.17 111.576C321.221 111.592 322.376 111.236 324.871 109.816C328.592 107.698 332.034 107.391 334.5 108.956ZM238.68 118.488C239.097 123.367 239.043 123.995 237.884 127.678C237.018 130.431 236.507 131.422 236.202 130.941C235.962 130.561 235.762 129.775 235.758 129.195C235.749 127.916 233.639 124.708 231.872 123.286C229.584 121.446 228.545 121.036 226.125 121.018C224.819 121.008 223.75 120.801 223.75 120.558C223.75 119.475 228.255 116.221 232.915 113.939C237.331 111.776 238.016 111.567 238.117 112.35C238.181 112.845 238.434 115.607 238.68 118.488ZM272.712 119.125C277.254 124.07 281.371 129.794 283.716 134.421C284.776 136.512 284.789 136.701 284.052 139.604C283.632 141.261 282.864 143.435 282.346 144.434L281.405 146.25L277.1 146.394L272.796 146.538L274.363 143.144C275.759 140.122 275.935 139.229 275.965 135C275.984 132.328 275.69 129.156 275.294 127.75C274.527 125.024 272.191 120.055 270.652 117.875C269.098 115.674 270.101 116.282 272.712 119.125ZM327.181 121.762C336.052 126.976 336.515 127.309 337.608 129.25C339.129 131.951 339.036 134.291 337.222 138.994C336.382 141.173 335.565 143.753 335.406 144.728C335.077 146.757 335.012 146.777 332.135 145.704C326.09 143.449 325.403 142.787 323.26 137.156C322.924 136.271 322.757 134.379 322.885 132.906C323.195 129.344 324.895 120.451 325.232 120.631C325.379 120.71 326.256 121.219 327.181 121.762ZM230.09 124.303C230.964 124.96 232.112 126.117 232.639 126.874C233.644 128.315 234.985 132.931 234.531 133.385C234.077 133.84 230.432 131.031 227.533 127.992C224.967 125.302 224.215 123.701 225.101 122.816C225.688 122.228 228.406 123.039 230.09 124.303ZM222.75 124.558C222.75 125.842 226.475 130.033 230.267 133.013C234.023 135.966 234.311 136.321 234.042 137.667C233.881 138.469 233.746 139.491 233.742 139.938C233.725 141.786 233.02 142.061 230.965 141.025C229.884 140.479 228.438 139.914 227.75 139.77C225.482 139.295 225.32 138.975 225.906 136.126C226.401 133.723 226.354 133.387 225.342 132.126C224.107 130.589 223.738 129.806 222.637 126.375C222.217 125.069 222.071 124 222.312 124C222.553 124 222.75 124.251 222.75 124.558ZM218.814 125.827C219.281 126.39 219.507 128.116 219.523 131.232C219.542 135.127 219.71 136.04 220.648 137.357C221.254 138.208 221.75 139.257 221.75 139.689C221.75 140.375 212.518 147.994 211.68 147.999C210.958 148.002 207.645 140.067 207.402 137.75C206.748 131.517 211.299 125.007 216.314 125.002C217.393 125.001 218.405 125.335 218.814 125.827ZM241.48 135.125C242.283 138.494 243.471 142.569 244.121 144.182C244.772 145.794 245.184 147.232 245.038 147.378C244.891 147.525 243.65 147.753 242.279 147.885C239.957 148.108 239.743 148.032 239.176 146.787C238.703 145.751 238.7 145.084 239.159 143.815C240.037 141.387 239.879 139.134 238.721 137.568C237.826 136.356 237.757 135.887 238.192 133.962C238.467 132.745 238.822 131.131 238.98 130.375C239.139 129.619 239.439 129 239.646 129C239.853 129 240.678 131.756 241.48 135.125ZM224.242 134.883C224.233 136.567 223.543 137.741 222.824 137.296C222.141 136.874 221.252 133.707 221.268 131.75L221.279 130.25L222.764 131.883C223.66 132.867 224.247 134.059 224.242 134.883ZM228.008 141.773C229.91 142.326 231.042 143.006 231.773 144.033C233.341 146.236 233.388 146.202 235.023 141.75C235.343 140.878 235.458 140.967 235.913 142.444C236.414 144.072 236.348 144.212 234.217 146.054L232 147.97L223.525 147.985C218.864 147.994 215.264 147.811 215.525 147.581C215.786 147.35 217.35 146.14 219 144.892C220.65 143.643 222.436 142.137 222.969 141.544C223.501 140.95 224.24 140.581 224.612 140.724C224.983 140.866 226.512 141.338 228.008 141.773ZM286.963 144.065C287.29 146.358 287.278 146.383 285.75 146.607C283.94 146.873 283.439 146.323 284.129 144.827C284.402 144.235 284.889 143.097 285.211 142.299C285.948 140.475 286.536 141.068 286.963 144.065ZM306.532 145.801C306.248 146.934 306.024 147 302.449 147C299.648 147 298.719 146.838 298.87 146.375C299.138 145.552 302.984 143.429 304.949 143.02C306.224 142.755 306.53 142.867 306.667 143.65C306.758 144.173 306.698 145.141 306.532 145.801ZM394.922 145.971C403.923 146.519 405.025 147.402 399 149.237C394.307 150.666 379.871 150.976 374.875 149.756C372.727 149.231 373.638 147.934 377 146.734C380.022 145.655 385.742 145.411 394.922 145.971ZM237.25 147.5C237.25 147.775 236.787 148 236.221 148C235.655 148 235.33 147.775 235.5 147.5C235.67 147.225 236.133 147 236.529 147C236.926 147 237.25 147.225 237.25 147.5ZM276 149.314C272.583 150.12 271.121 150.14 271.372 149.375C271.586 148.725 276.423 148.045 277.75 148.479C278.162 148.614 277.375 148.989 276 149.314ZM268.625 149.125C268.324 150.03 267.073 150.154 262.798 149.699C259.084 149.304 259.049 149.288 261.25 148.973C265.43 148.374 268.852 148.445 268.625 149.125ZM287.656 150.934C287.778 152.634 287.57 153.377 286.719 154.283C285.479 155.603 285.553 156.411 287.271 160.318C287.892 161.731 288.259 163.257 288.085 163.71C287.824 164.39 287.163 164.071 284.273 161.87C278.729 157.646 274.712 155.86 270.669 155.823L267.297 155.792L268.372 154.021C269.781 151.7 270.092 151.52 272.75 151.486C276.23 151.44 279.228 150.717 280.679 149.572C281.709 148.76 282.606 148.554 284.75 148.64L287.5 148.75L287.656 150.934ZM293.75 149.467C293.75 151.689 292.827 153 291.263 153C289.842 153 289.75 152.883 289.75 151.083C289.75 148.743 289.969 148.5 292.083 148.5C293.398 148.5 293.75 148.704 293.75 149.467ZM302.25 149.148C302.25 149.618 297.25 153 296.555 153C295.429 153 295.101 151.957 295.717 150.336C296.191 149.092 296.432 149 299.237 149C300.894 149 302.25 149.067 302.25 149.148ZM174.25 150.443C172.381 151.469 167.048 152.047 160.75 151.904C157.037 151.819 154.338 151.602 154.75 151.421C156.991 150.437 175.996 149.483 174.25 150.443ZM235.073 151.51C234.907 152.34 234.178 154.231 233.454 155.71C231.881 158.922 229.479 160.33 226.421 159.834C224.181 159.47 218.967 156.942 219.083 156.275C219.128 156.014 221.266 154.888 223.833 153.772C226.4 152.656 229.175 151.36 230 150.891C230.825 150.423 232.372 150.031 233.438 150.02C235.329 150.001 235.368 150.035 235.073 151.51ZM241.36 153.875C243.895 157.596 244 157.882 244 161.083C244 162.916 243.846 164.57 243.658 164.758C243.271 165.145 240.107 162.723 237.158 159.783L235.184 157.816L235.967 155.766C236.397 154.639 236.75 153.458 236.75 153.141C236.75 152.073 237.722 150 238.223 150C238.496 150 239.907 151.744 241.36 153.875ZM303.995 152.125C303.818 152.744 302.906 153.981 301.969 154.875C300.468 156.306 299.936 156.5 297.508 156.5C295.947 156.5 294.75 156.276 294.75 155.984C294.75 155.446 295.119 155.276 297.34 154.791C298.077 154.63 298.977 154.213 299.34 153.863C300.679 152.574 303.019 151.031 303.659 151.016C304.106 151.005 304.214 151.362 303.995 152.125ZM308.785 153.841C309.906 154.854 311.279 156.575 311.836 157.668C313.871 161.656 312.485 169.166 308.841 173.903L307.953 175.056L306.727 173.221C305.43 171.282 304.915 170.937 299.75 168.549C295.402 166.538 293.537 164.209 293.516 160.764L293.5 158.25L296.582 158.419C300.665 158.642 302.735 157.641 304.78 154.454C305.646 153.104 306.443 152 306.551 152C306.659 152 307.664 152.829 308.785 153.841ZM292.337 155.613C292.062 155.888 291.568 155.947 291.24 155.744C290.786 155.464 290.8 155.278 291.297 154.971C292.15 154.444 292.989 154.962 292.337 155.613ZM290.914 157.503C291.142 157.709 291.386 159.132 291.457 160.665C291.529 162.198 291.881 163.806 292.24 164.238C293.085 165.257 292.679 165.627 291.138 165.24C290.079 164.974 289.903 164.635 289.875 162.804C289.856 161.577 289.401 159.952 288.798 158.964C288.224 158.021 287.753 157.077 287.752 156.865C287.75 156.426 290.289 156.938 290.914 157.503ZM287.475 166.535C287.736 166.791 288.802 167 289.842 167C291.203 167 292.162 167.386 293.259 168.375C296.216 171.04 295.719 175.605 291.971 180.205C289.63 183.08 285.562 186.251 284.811 185.788C284.575 185.642 284.242 184.674 284.073 183.636C283.904 182.599 283.087 180.962 282.258 180C279.922 177.288 279.059 175.059 278.844 171.177C278.668 168.005 278.771 167.48 279.756 166.494C280.753 165.498 281.18 165.419 283.933 165.727C285.62 165.915 287.214 166.278 287.475 166.535ZM230.134 167.5C230.478 168.05 231.083 168.5 231.48 168.5C232.861 168.5 234.643 169.618 235.195 170.829C236.579 173.866 235.193 177.751 231.072 182.386C229.657 183.977 228.128 185.834 227.673 186.514C226.629 188.073 226.358 187.812 223.783 182.764C221.313 177.922 221.038 174.659 222.889 172.152C223.91 170.768 228.617 166.613 229.255 166.532C229.395 166.514 229.791 166.95 230.134 167.5ZM263.96 172.117C264.416 173.565 264.982 175.2 265.219 175.75C265.455 176.3 265.989 177.538 266.406 178.5C268.072 182.343 271.659 191.867 272.15 193.75C272.436 194.85 272.923 196.708 273.232 197.88C273.882 200.347 276.871 203.003 281.621 205.336C284.029 206.518 285.134 206.75 288.374 206.75C290.504 206.75 292.248 206.83 292.249 206.928C292.253 207.69 288.856 213.94 287.4 215.848C285.066 218.906 283.775 219.963 282.351 219.984C279.741 220.021 277.86 216.095 276.523 207.821C276.13 205.385 275.698 203.281 275.562 203.146C274.706 202.289 274.448 204.265 274.648 210.154C274.914 217.985 274.46 219.95 271.809 222.465C270.12 224.066 269.75 224.191 266.25 224.322C261.33 224.507 260.286 224.803 258.905 226.408C255.977 229.811 256.911 234.945 261.553 240.964C262.744 242.507 263.169 243.492 262.958 244.214C262.261 246.602 258.703 253.426 256.983 255.675C255.315 257.856 254.976 258.07 253.621 257.799C249.556 256.986 245.75 259.882 245.75 263.789V266H243.399C241.431 266 240.778 266.261 239.399 267.598C237.941 269.011 237.75 269.504 237.75 271.855C237.75 274.799 238.129 275.674 240.884 279.081C242.766 281.408 242.84 282.09 241.459 284.398C241.41 284.48 240.387 284.03 239.185 283.398C237.42 282.471 236.303 282.267 233.375 282.339C229.934 282.423 229.75 282.371 229.75 281.314C229.75 280.701 229.93 279.986 230.149 279.725C230.369 279.464 230.966 278.013 231.477 276.5C231.988 274.987 233.639 271.275 235.146 268.25C238.67 261.177 239.75 257.986 239.75 254.639C239.75 249.986 238.033 248.029 233.936 248.011C232.526 248.005 230.557 248.341 229.561 248.757L227.75 249.513V253.165C227.75 256.944 228.234 260.359 229.58 266.08C230.011 267.911 230.278 269.668 230.173 269.983C229.975 270.577 222.276 263.268 220.921 261.198C219.759 259.425 219.286 256.661 219.816 254.741C220.529 252.158 222.377 250.304 225.932 248.606C228.848 247.213 231.75 244.506 231.75 243.178C231.75 242.915 232.01 242.44 232.329 242.121C232.768 241.682 233.343 241.895 234.704 243.001C240.462 247.683 242.876 250.679 242.647 252.858C242.441 254.811 243.683 254.663 244.837 252.597C247.112 248.525 249.564 243.602 250.131 241.965C250.979 239.518 250.915 233.362 250.018 231.217L249.286 229.465L254.029 227.249C262.387 223.343 264.75 221.141 264.75 217.255C264.75 216.268 264.3 214.58 263.751 213.503C262.798 211.636 257.05 205.5 256.252 205.5C256.044 205.5 255.593 205.838 255.25 206.25C254.907 206.662 254.756 207 254.913 207C255.069 207 254.96 207.683 254.669 208.518C254.001 210.436 251.084 211.986 247.436 212.363C244.951 212.619 244.75 212.562 244.75 211.587C244.75 209.971 247.787 207.291 252.25 204.969C258.311 201.816 262.282 196.648 264.244 189.362C265.008 186.526 264.685 179.599 263.598 175.5C262.486 171.307 262.121 168.861 262.658 169.193C262.917 169.353 263.503 170.669 263.96 172.117ZM238.902 213.155L241.805 214.513L241.652 216.882L241.5 219.25L238.339 219.084C231.913 218.747 229.75 216.734 229.75 211.089C229.75 205.735 229.912 205.632 233.167 208.928C234.843 210.625 237.185 212.351 238.902 213.155ZM262.04 214.1C262.431 214.843 262.75 216.336 262.75 217.418C262.75 220.237 260.342 222.386 254.043 225.188C251.269 226.422 248.682 227.503 248.294 227.59C247.844 227.692 247.369 227.02 246.982 225.732C246.648 224.622 245.785 222.549 245.063 221.124C244.315 219.648 243.75 217.697 243.75 216.589V214.645L246.957 214.345C251.003 213.968 254.52 212.34 255.921 210.195L257 208.543L259.165 210.646C260.356 211.803 261.65 213.358 262.04 214.1ZM244.455 224.033C245.426 226.462 245.265 226.83 243.118 227.081C241.498 227.27 241.478 227.248 241.516 225.247C241.587 221.469 243.167 220.816 244.455 224.033ZM278.773 224.738C280.979 226.157 283.525 230.822 283.968 234.25C284.145 235.625 284.061 237.941 283.78 239.396C283.305 241.852 280.611 248.74 279.77 249.65C279.566 249.87 278.635 249.292 277.7 248.366C276.58 247.256 274.34 246.042 271.133 244.805C268.455 243.772 266.131 242.712 265.967 242.447C265.206 241.216 271.286 226.29 273.337 224.352C274.994 222.787 275.834 222.846 278.773 224.738ZM238.719 228.066C236.908 231.622 232.736 237.551 232.254 237.253C231.472 236.769 231.144 232.751 231.714 230.635C232.016 229.511 232.811 228.065 233.48 227.421C234.777 226.173 238.723 224.906 239.415 225.516C239.644 225.717 239.33 226.864 238.719 228.066ZM231.617 226.448C231.682 226.476 231.29 227.231 230.745 228.125C229.46 230.232 229.375 235.68 230.587 238.222C231.374 239.872 231.372 240.036 230.559 240.935C228.821 242.855 218.759 247.176 217.938 246.354C217.796 246.213 217.907 245.681 218.182 245.173C218.899 243.854 219.75 239.858 219.75 237.816C219.75 230.689 223.865 225.947 229.75 226.293C230.712 226.349 231.553 226.419 231.617 226.448ZM269.369 226.286C269.526 226.443 269.027 227.961 268.26 229.661C267.493 231.36 266.346 234.325 265.711 236.25C264.317 240.472 264.035 240.859 262.984 239.987C260.795 238.17 258.684 232.177 259.345 229.656C260.031 227.038 261.846 226 265.734 226C267.576 226 269.212 226.128 269.369 226.286ZM244.395 230.001C244.201 230.743 244.379 231 245.091 231C245.619 231 246.287 230.764 246.576 230.475C248.114 228.936 249.678 235.583 248.759 239.751C248.188 242.337 244.825 249.5 244.182 249.5C243.982 249.5 243.342 248.832 242.761 248.016C242.18 247.2 240.027 245.144 237.977 243.448C235.927 241.753 234.25 240.107 234.25 239.792C234.25 238.609 238.926 231.417 240.432 230.283C241.952 229.138 243.657 228.506 244.328 228.839C244.509 228.928 244.539 229.451 244.395 230.001ZM236.875 250.866C237.91 251.799 238.103 257.076 237.186 259.352C235.408 263.763 232.688 269.02 232.305 268.784C232.061 268.633 231.745 267.776 231.605 266.879C231.464 265.983 230.989 263.675 230.549 261.75C230.11 259.826 229.75 256.511 229.75 254.384C229.75 250.574 229.77 250.515 231.125 250.216C231.881 250.049 232.725 249.833 233 249.736C233.861 249.431 235.962 250.043 236.875 250.866ZM252.75 259.815C252.75 259.988 251.991 260.969 251.063 261.996C250.135 263.023 249.127 264.287 248.823 264.806C248.343 265.624 248.199 265.65 247.754 265C247.185 264.169 247.519 262.13 248.398 261.072C249.351 259.924 252.75 258.942 252.75 259.815ZM258.251 261.119C263.551 263.947 265.75 267.361 265.75 272.759C265.75 274.179 266.085 276.446 266.495 277.796C266.904 279.146 267.242 280.371 267.245 280.52C267.248 280.668 265.282 281.077 262.875 281.428C260.469 281.779 257.222 282.302 255.66 282.591C252.558 283.165 248.526 282.516 246.335 281.091C244.94 280.184 245.078 278.834 247.062 273.931C248.803 269.63 248.963 269.48 251.442 269.819C253.016 270.035 253.705 269.906 254.206 269.303C255.033 268.307 254.384 267.384 252.233 266.493C251.417 266.155 250.75 265.671 250.75 265.418C250.75 264.847 255.242 260 255.771 260C255.982 260 257.098 260.503 258.251 261.119ZM246.62 268.409C247.087 268.706 246.811 269.822 245.495 272.941C244.535 275.217 243.75 277.399 243.75 277.789C243.75 278.919 242.941 278.621 241.564 276.984C239.292 274.284 238.908 270.886 240.648 268.875C241.446 267.953 245.415 267.644 246.62 268.409ZM224.734 282.375C224.712 282.861 222.929 285 222.545 285C221.963 285 222.263 282.578 222.875 282.331C223.845 281.94 224.752 281.961 224.734 282.375ZM238.197 290.819C236.871 292.425 233.325 293.625 230.956 293.27C229.755 293.09 228.671 292.776 228.546 292.573C228.42 292.37 229.905 291.911 231.846 291.552C233.786 291.193 236.078 290.604 236.938 290.242C238.771 289.471 239.162 289.65 238.197 290.819ZM250.498 297.606C253.977 296.675 255.114 296.827 256.113 298.354C257.377 300.284 257.131 305.563 255.491 311.75C254.762 314.5 253.979 317.499 253.751 318.414C253.524 319.33 253.211 320.205 253.057 320.359C252.903 320.513 251.742 319.487 250.477 318.079C249.211 316.671 246.404 314.369 244.239 312.962C239.36 309.793 238.666 308.791 238.684 304.953C238.701 301.29 239.447 300.143 242.884 298.495C244.985 297.486 245.769 297.336 246.866 297.726C247.802 298.06 248.944 298.021 250.498 297.606Z" fill="black"/>
<path fill-rule="evenodd" clip-rule="evenodd" d="M164.916 14.6538C162.437 27.4685 162.51 30.8726 165.603 46.3792C169.051 63.6732 170.455 77.2438 168.893 78.2073C168.28 78.5854 167.643 77.5062 167.344 75.5812C167.064 73.7829 166.354 69.1699 165.767 65.3299C164.589 57.6209 160.854 45.8805 159.579 45.8805C159.132 45.8805 158.766 54.5769 158.766 65.2052C158.766 84.079 158.251 90.7636 156.8 90.7636C156.405 90.7636 155.807 83.4706 155.471 74.5558C155.105 64.8332 154.044 54.157 152.822 47.8753C151.701 42.1153 150.784 37.2909 150.782 37.1532C150.78 37.0156 150.329 36.9039 149.78 36.9039C149.157 36.9039 148.782 42.7626 148.782 52.4853C148.782 66.1846 149.146 69.6945 151.8 81.5526C155.327 97.3126 155.15 99.3303 150.948 91.2623L148.87 87.2727L148.747 91.761C148.608 96.8328 148.749 97.1261 144.427 82.7844C141.974 74.6486 135.93 64.0492 129.354 56.3532L126.797 53.361L128.758 58.348C129.836 61.0909 133.658 70.5164 137.251 79.2935C140.845 88.0706 143.786 95.8045 143.787 96.4798C143.789 97.155 145.026 97.9679 146.535 98.285C148.045 98.6032 150.18 99.055 151.278 99.2894C154.983 100.08 168.749 98.5125 168.749 97.2986C168.749 96.6623 170.578 90.5562 172.812 83.728C179.205 64.1908 184.867 38.8987 182.848 38.8987C182.021 38.8987 178.678 49.8382 177.129 57.6209C175.935 63.6123 174.74 62.0394 174.74 54.4761C174.74 47.5222 173.74 44.4592 172.254 46.862C170.448 49.7814 169.748 46.844 169.748 36.3473C169.748 24.8244 168.241 11.1879 166.801 9.66683C166.38 9.22298 165.533 11.4671 164.916 14.6538ZM134.874 34.2199C134.831 37.1792 135.187 38.78 135.803 38.4C136.995 37.6639 136.995 34.19 135.803 31.4182C135.159 29.9221 134.927 30.6223 134.874 34.2199ZM195.502 44.557C192.71 47.6399 189.719 55.7817 188.673 63.1426C187.354 72.4334 183.615 80.5063 175.998 90.5143L169.734 98.7429L173.485 98.7399C177.185 98.7369 177.285 98.6321 180.859 91.01C184.822 82.559 197.945 45.1105 197.456 43.6453C197.289 43.1446 196.41 43.5556 195.502 44.557ZM138.85 54.8571C138.754 58.37 146.397 79.5149 147.4 78.5125C147.613 78.3011 146.915 74.7254 145.851 70.5672C143.958 63.1735 138.931 51.8929 138.85 54.8571ZM388.803 61.8898C387.285 65.7578 385.715 69.124 385.316 69.3703C384.918 69.6167 383.217 67.3865 381.538 64.4153C379.86 61.443 378.025 58.7271 377.462 58.379C376.898 58.0309 375.457 59.7624 374.259 62.2269L372.079 66.7073L375.744 70.7587C377.759 72.9879 379.415 75.1463 379.423 75.5562C379.432 75.9662 379.868 76.9745 380.393 77.7974C381.173 79.0212 382.141 78.4307 385.71 74.5558C388.109 71.9506 390.563 69.8182 391.163 69.8182C392.853 69.8182 393.545 73.2622 392.437 76.1696C391.24 79.3154 391.847 79.3932 397.52 76.8219C404.185 73.8008 404.426 73.9544 403.711 80.7896C403.305 84.6795 403.449 86.774 404.126 86.774C404.699 86.774 407.541 85.6759 410.44 84.3334C413.34 82.9919 416.081 82.1201 416.53 82.3974C416.98 82.6747 417.347 80.1822 417.347 76.8588C417.347 73.5355 417.011 70.8236 416.598 70.8335C416.186 70.8435 414.277 73.1994 412.355 76.0699L408.861 81.2883L408.362 75.1583C408.022 70.9881 407.234 68.334 405.898 66.8589L403.932 64.6915L401.216 68.0029C397.866 72.0893 397.218 71.5237 394.435 62.0883C393.262 58.1117 392.137 54.8571 391.934 54.8571C391.731 54.8571 390.323 58.0219 388.803 61.8898ZM276.017 68.3969C266.013 74.4102 266.531 73.2383 267.25 88.2252L267.881 101.361L265.286 103.4L262.691 105.439L272.379 116.981C277.707 123.329 282.584 128.554 283.217 128.594C283.989 128.641 284.499 125.452 284.762 118.94C284.977 113.592 285.117 109.126 285.074 109.016C285.03 108.906 281.864 108.542 278.04 108.206C274.214 107.871 270.073 107.391 268.837 107.14C264.819 106.324 266.464 104.985 272.054 104.522C276.525 104.152 277.909 103.573 279.667 101.34C280.849 99.839 283.573 97.5031 285.721 96.1476C290.783 92.9559 293.539 88.3599 293.543 83.1036C293.547 78.9584 293.53 78.9394 290.596 79.7792C284.977 81.389 281.403 84.3064 277.749 90.2649C274.786 95.0973 274.019 95.8304 273.768 94.071C273.598 92.8731 275.101 88.3848 277.11 84.097C281.612 74.486 284.59 66.1886 283.814 65.4137C282.841 64.4412 282.172 64.6975 276.017 68.3969ZM362.436 70.282C362.436 73.8417 363.058 75.4435 365.535 78.2612C369.397 82.6557 370.423 82.6936 370.423 78.4397C370.423 76.1417 369.314 73.6402 366.883 70.4605C364.936 67.9131 363.139 65.8286 362.889 65.8286C362.64 65.8286 362.436 67.8323 362.436 70.282ZM373.462 79.4601C373.486 82.6597 374.107 86.9615 374.842 89.0182C375.577 91.0758 376.061 92.7584 375.917 92.7584C375.774 92.7584 373.046 91.1875 369.854 89.2675C361.421 84.1947 361.189 84.3663 364.511 93.2352C366.708 99.1019 370.306 104.061 373.673 105.86C375.594 106.888 375.678 106.728 375.18 103.017C374.575 98.5105 376.137 94.1458 379.387 91.2623L381.635 89.2675L388.009 96.1137C391.516 99.8789 394.384 103.597 394.384 104.376C394.384 105.155 392.793 106.73 390.847 107.877C387.453 109.877 387.38 110.038 389.034 111.865C391 114.034 400.545 119.688 402.243 119.688C402.883 119.688 403.37 118.041 403.37 115.872C403.37 113.092 402.693 111.421 400.874 109.714C399.501 108.426 398.379 106.664 398.38 105.8C398.381 104.936 400.693 102.658 403.518 100.738C409.287 96.8169 413.68 90.9661 413.184 87.8632C412.856 85.8165 412.816 85.8185 407.61 88.2382C404.724 89.5787 400.569 92.1161 398.375 93.8785C393.816 97.538 392.049 97.0493 395.072 92.9649C399.548 86.9166 403.006 77.7974 400.824 77.7974C399.148 77.7974 393.47 81.5646 389.367 85.3986L384.663 89.7932L380.289 82.1092C374.713 72.3157 373.404 71.808 373.462 79.4601ZM386.64 76.2195C384.299 79.1928 383.71 81.787 385.376 81.787C386.89 81.787 389.597 77.1022 389.219 75.1373C388.934 73.6632 388.514 73.8397 386.64 76.2195ZM247.774 78.5814C245.832 81.3063 245.83 81.408 247.669 83.8177C250.807 87.931 250.956 91.017 248.265 96.0748C245.228 101.781 244.166 100.873 242.628 91.2524C242.02 87.4493 241.435 84.2596 241.327 84.1628C241.22 84.0671 237.37 82.8393 232.772 81.4349L224.411 78.8806L224.957 82.2408C225.258 84.089 227.11 87.935 229.075 90.7876C231.039 93.6401 232.646 96.5306 232.646 97.2098C232.646 97.8891 234.882 99.833 237.615 101.531L242.584 104.617L249.441 101.189C261.442 95.1911 263.951 91.1676 259.435 85.1632C256.29 80.9811 251.34 75.8026 250.489 75.8026C250.085 75.8026 248.863 77.0533 247.774 78.5814ZM342.468 76.3412C342.468 76.6374 343.328 78.5445 344.377 80.5802C346.807 85.2899 352.368 90.6469 355.772 91.5566C360.611 92.8492 358.557 94.2496 351.01 94.8001C346.901 95.1013 343.271 95.613 342.944 95.9392C342.165 96.7191 352.654 103.052 360.626 106.614C366.955 109.443 373.418 111.183 373.418 110.059C373.418 109.728 371.796 107.663 369.812 105.47C365.915 101.161 360.9 91.3361 359.808 85.8704L359.129 82.4732L362.53 83.1106C367.452 84.0332 364.435 82.5221 354.119 78.8985C345.588 75.9023 342.468 75.2171 342.468 76.3412ZM147.783 82.2857C147.783 82.56 148.008 82.7844 148.283 82.7844C148.557 82.7844 148.782 82.56 148.782 82.2857C148.782 82.0114 148.557 81.787 148.283 81.787C148.008 81.787 147.783 82.0114 147.783 82.2857ZM416.493 84.7792C415.991 89.6096 413.707 94.4989 410.156 98.3489C406.628 102.171 406.378 102.732 408.197 102.732C412.353 102.732 421.272 98.6142 423.916 95.4734C427.06 91.7411 429.932 86.0479 429.093 85.2101C428.329 84.4471 424.649 86.392 420.841 89.5697L417.846 92.0702L417.247 87.6767C416.918 85.26 416.578 83.9564 416.493 84.7792ZM244.816 88.4427C245.17 92.6248 247.622 94.3613 247.622 90.4295C247.622 87.2448 246.677 84.7792 245.458 84.7792C244.934 84.7792 244.646 86.4279 244.816 88.4427ZM378.478 95.6549C375.761 99.467 375.873 101.938 378.926 105.563C381.273 108.35 381.685 108.479 385.166 107.531C389.182 106.436 391.389 105.029 391.389 103.565C391.389 102.41 382.411 92.7584 381.336 92.7584C380.9 92.7584 379.614 94.062 378.478 95.6549ZM220.699 98.695C218.844 101.298 213.677 111.995 213.677 113.234C213.677 113.492 215.068 113.704 216.771 113.704C220.652 113.704 224.516 109.764 226.832 103.446C228.502 98.8925 228.499 98.8715 226.119 97.3136C223.028 95.2898 223.148 95.2599 220.699 98.695ZM240.633 109.714C238.432 111.914 237.92 115.106 239.875 114.455C241.574 113.889 245.096 107.719 243.72 107.719C243.12 107.719 241.731 108.617 240.633 109.714ZM299.007 110.861C301.629 123.953 304.453 128.665 309.673 128.665H312.743L312.038 123.962C310.737 115.296 306.93 110.011 300.685 108.201C298.471 107.56 298.376 107.712 299.007 110.861ZM322.149 109.984L317.305 112.223L324.274 115.591C329.898 118.309 331.933 118.829 334.824 118.287C340.1 117.299 340.284 115.846 335.675 111.55C330.923 107.123 328.858 106.884 322.149 109.984ZM229.629 114.985C223.861 118.467 222.941 120.013 226.345 120.498C227.547 120.669 230.095 122.538 232.006 124.65C233.917 126.764 235.741 128.232 236.061 127.914C236.977 126.998 236.733 112.882 235.791 112.301C235.324 112.011 232.551 113.219 229.629 114.985ZM270.93 118.691C274.361 128.311 274.817 131.266 273.855 137.606C272.763 144.813 273.333 145.942 277.565 144.952C281.363 144.063 282.066 142.95 282.066 137.818C282.066 134.179 281.325 131.979 278.807 128.143C274.992 122.331 270.161 116.535 270.93 118.691ZM323.13 122.93C322.799 124.164 322.522 128.171 322.515 131.834C322.501 138.316 322.599 138.575 326.223 141.558C331.589 145.978 333.112 145.611 334.941 139.455C337.732 130.067 336.857 127.807 328.491 122.789C324.128 120.172 323.867 120.179 323.13 122.93ZM224.659 123.245C224.659 124.786 226.966 127.752 229.649 129.661C232.531 131.711 232.646 131.719 232.646 129.876C232.646 127.519 228.314 122.681 226.204 122.681C225.354 122.681 224.659 122.935 224.659 123.245ZM210.155 127.071C209.248 128.454 208.262 131.397 207.965 133.61C207.405 137.782 209.315 146.618 210.776 146.618C212.409 146.618 218.695 140.375 219.173 138.279C219.441 137.105 219.092 133.677 218.397 130.66C217.288 125.839 216.812 125.136 214.47 124.865C212.519 124.637 211.363 125.229 210.155 127.071ZM224.113 131.259C224.51 133.378 225.259 135.9 225.775 136.864C226.77 138.72 231.289 140.327 232.399 139.218C233.482 138.137 229.688 132.059 226.427 129.651L223.39 127.407L224.113 131.259ZM220.665 132.537C220.665 133.634 221.115 134.809 221.664 135.148C222.213 135.487 222.662 134.867 222.662 133.77C222.662 132.672 222.213 131.498 221.664 131.158C221.115 130.819 220.665 131.44 220.665 132.537ZM238.136 137.891C238.884 145.597 239.622 147.22 241.972 146.318C243.161 145.862 243.266 144.952 242.512 141.602C241.386 136.595 238.986 130.66 238.087 130.66C237.729 130.66 237.751 133.913 238.136 137.891ZM218.631 143.659L215.174 146.684L223.381 146.396C229.88 146.167 231.958 145.716 233.365 144.226C235.07 142.422 235.068 142.371 233.332 142.979C232.336 143.327 230.224 142.942 228.639 142.123C224.459 139.964 222.511 140.263 218.631 143.659ZM283.564 143.068C283.564 143.923 284.013 144.623 284.562 144.623C285.111 144.623 285.56 144.201 285.56 143.685C285.56 143.168 285.111 142.469 284.562 142.13C284.013 141.791 283.564 142.214 283.564 143.068ZM300.266 143.718C299.293 144.283 298.721 145.107 298.994 145.548C299.792 146.84 304.53 145.521 304.53 144.008C304.53 142.39 302.757 142.269 300.266 143.718ZM376.912 146.332C371.172 147.711 373.966 148.612 383.951 148.599C395.426 148.585 399.72 147.98 398.807 146.504C398.248 145.602 380.532 145.462 376.912 146.332ZM289.014 149.677C288.651 150.262 288.595 150.98 288.888 151.273C289.604 151.987 291.551 150.728 291.551 149.552C291.551 148.277 289.827 148.362 289.014 149.677ZM295.045 149.61C294.706 150.159 295.327 150.608 296.425 150.608C297.523 150.608 298.699 150.159 299.039 149.61C299.378 149.062 298.757 148.613 297.659 148.613C296.561 148.613 295.384 149.062 295.045 149.61ZM162.024 150.327C163.542 150.555 165.788 150.549 167.016 150.313C168.244 150.076 167.002 149.889 164.257 149.896C161.511 149.904 160.507 150.097 162.024 150.327ZM225.564 151.935C220.08 154.833 219.82 156.979 224.901 157.4C227.908 157.648 229.126 157.182 231.14 155.01C236.195 149.562 233.193 147.905 225.564 151.935ZM236.257 151.162C235.017 154.391 235.703 157.379 238.273 159.947C239.721 161.394 241.293 162.577 241.767 162.577C244.042 162.577 241.389 153.301 238.409 150.831C237.142 149.783 236.764 149.841 236.257 151.162ZM297.981 153.069C296.916 153.875 296.519 154.549 297.101 154.565C297.682 154.583 299.03 153.938 300.096 153.133C301.161 152.327 301.558 151.654 300.976 151.637C300.395 151.619 299.048 152.264 297.981 153.069ZM302.172 154.177C300.602 155.557 297.98 156.953 296.347 157.279C291.56 158.236 291.671 160.467 296.731 164.999C299.224 167.232 302.683 169.877 304.417 170.875L307.569 172.689L309.044 169.161C311.166 164.089 310.919 157.96 308.455 154.502C305.967 151.012 305.787 151.003 302.172 154.177ZM288.157 159.251C289.076 163.073 289.554 163.434 289.554 160.309C289.554 158.877 289.087 157.419 288.516 157.066C287.835 156.646 287.711 157.398 288.157 159.251ZM277.949 167.028C277.327 168.646 279.696 176.241 282.41 181.328L284.166 184.619L286.887 182.48C289.702 180.269 293.547 173.737 293.547 171.166C293.547 170.361 292.363 168.772 290.917 167.636C287.692 165.101 278.848 164.687 277.949 167.028ZM224.144 169.759C221.282 173.157 221.136 176.647 223.594 182.929L224.727 185.825L227.777 182.929C233.819 177.191 235.373 170.881 231.425 168.119C228.267 165.909 227.181 166.153 224.144 169.759ZM228.666 208.208C228.695 212.023 230.036 214.589 232.723 215.978C240.471 219.98 242.058 215.256 234.815 209.749C229.92 206.025 228.647 205.706 228.666 208.208ZM254.071 209.923C252.995 210.745 250.542 211.873 248.62 212.431C242.425 214.227 242.184 214.642 244.411 219.672C245.503 222.14 246.851 224.439 247.405 224.781C248.794 225.638 258.565 220.388 260.213 217.898C261.362 216.164 261.306 215.372 259.831 212.471C257.772 208.421 256.675 207.935 254.071 209.923ZM240.787 222.971C240.978 223.949 241.736 224.95 242.476 225.196C243.335 225.482 243.694 225.002 243.474 223.865C243.284 222.888 242.525 221.886 241.785 221.641C240.927 221.355 240.567 221.834 240.787 222.971ZM269.664 228.565C267.974 231.944 266.591 236.228 266.591 238.086C266.591 241.186 267.021 241.664 271.833 243.901C274.715 245.242 277.601 246.343 278.244 246.348C281.177 246.373 282.886 232.802 280.523 228.246C276.51 220.504 273.655 220.588 269.664 228.565ZM233.3 226.24C232.345 227.294 231.655 229.714 231.665 231.975L231.682 235.886L234.643 230.899C236.271 228.156 237.612 225.575 237.621 225.164C237.653 223.746 234.948 224.42 233.3 226.24ZM260.536 226.475C258.936 228.073 258.623 229.247 259.138 231.712C259.504 233.459 260.418 235.533 261.171 236.32C262.344 237.547 262.908 236.946 265.131 232.094C266.557 228.983 267.443 225.982 267.098 225.426C266.063 223.751 262.728 224.285 260.536 226.475ZM222.738 228.037C220.779 230.524 219.704 233.615 218.15 241.222C217.505 244.381 217.595 244.523 219.816 243.836C221.107 243.437 223.848 242.261 225.907 241.223C229.443 239.44 229.65 239.074 229.637 234.619C229.61 225.219 226.952 222.684 222.738 228.037ZM238.245 231.409C236.264 233.601 234.643 236.198 234.643 237.182C234.643 238.167 236.443 240.727 238.642 242.874C243.141 247.262 244.355 246.891 246.493 240.475C248.406 234.732 247.929 231.751 244.734 229.479L241.847 227.426L238.245 231.409ZM229.651 253.216C229.651 259.205 230.615 264.312 231.746 264.312C234.838 264.312 237.366 251.051 234.608 249.308C231.037 247.052 229.651 248.145 229.651 253.216ZM248.35 258.93C247.949 259.33 247.622 260.345 247.622 261.187C247.622 262.309 247.917 262.421 248.733 261.607C249.343 260.996 249.671 259.981 249.461 259.35C249.25 258.718 248.75 258.53 248.35 258.93ZM252.656 260.507C250.229 263.11 250.099 264.176 252.115 264.948C254.431 265.837 253.905 266.941 250.494 268.352C248.483 269.184 246.852 270.895 245.901 273.17C244.492 276.539 244.531 276.783 246.772 278.604C248.776 280.231 250.199 280.43 256.49 279.959C260.545 279.655 264.305 278.964 264.846 278.423C265.493 277.777 265.402 275.617 264.579 272.122C262.849 264.768 261.062 261.609 257.632 259.836C254.875 258.413 254.571 258.454 252.656 260.507ZM239.834 267.503C238.152 269.184 238.377 271.398 240.511 274.17L242.341 276.548L243.483 273.273C245.136 268.539 244.926 266.306 242.83 266.306C241.841 266.306 240.493 266.845 239.834 267.503ZM231.916 289.938C232.888 290.191 234.235 290.174 234.911 289.901C235.587 289.628 234.793 289.421 233.145 289.441C231.498 289.461 230.945 289.685 231.916 289.938ZM243.961 296.378C240.593 297.133 239.598 297.891 238.737 300.359C238.052 302.32 238.01 304.036 238.617 305.17C240.177 308.081 250.846 317.351 251.637 316.483C254.055 313.835 255.892 299.107 254.155 296.298C253.38 295.047 249.772 295.075 243.961 296.378Z" fill="#017260"/>
<path fill-rule="evenodd" clip-rule="evenodd" d="M361.959 69.4422C361.959 69.7169 361.734 69.9416 361.459 69.9416C361.184 69.9416 360.959 69.7169 360.959 69.4422C360.959 69.1675 361.184 68.9427 361.459 68.9427C361.734 68.9427 361.959 69.1675 361.959 69.4422ZM172.983 102.019C171.532 102.611 163.407 102.94 153.623 102.8C137.895 102.576 136.688 102.689 135.661 104.482C134.038 107.315 134.152 135.422 135.805 140.084C136.529 142.127 138.476 144.936 140.13 146.327C142.706 148.492 144.104 148.853 149.813 148.825C153.483 148.808 161.42 148.174 167.45 147.419C176.54 146.279 178.717 145.671 180.185 143.86C183.287 140.034 184.238 134.022 183.758 121.299C183.103 103.974 180.332 99.0167 172.983 102.019ZM247.653 109.649C246.364 111.71 244.783 114.924 244.141 116.791C242.728 120.901 242.659 131.713 244.007 137.869C246.172 147.765 245.343 146.866 252.242 146.8C261.662 146.71 267.867 145.409 270.254 143.025C272.028 141.253 272.376 139.753 272.325 134.12C272.256 126.634 270.826 123.017 265.229 116.174C261.681 111.835 253.644 105.903 251.314 105.903C250.59 105.903 248.943 107.59 247.653 109.649ZM405.959 117.976C406.249 121.868 406.221 125.217 405.898 125.417C405.575 125.615 400.619 122.657 394.883 118.84L384.456 111.901L373.832 111.899C361.376 111.897 356.959 112.597 356.959 114.575C356.959 117.031 365.091 119.746 377.767 121.523C384.47 122.463 389.955 123.604 389.955 124.058C389.955 124.512 384.218 124.89 377.207 124.898C370.196 124.907 363.852 125.297 363.113 125.765C362.017 126.459 362.286 128.41 364.567 136.302C367.081 144.996 367.577 145.93 369.413 145.429C370.538 145.122 378.088 144.574 386.192 144.212C397.941 143.686 401.224 143.223 402.399 141.926C404.145 139.998 413.062 112.883 412.336 111.709C412.06 111.263 410.394 110.898 408.634 110.898H405.433L405.959 117.976ZM283.969 143.364C283.969 143.638 284.194 143.863 284.469 143.863C284.744 143.863 284.969 143.638 284.969 143.364C284.969 143.089 284.744 142.864 284.469 142.864C284.194 142.864 283.969 143.089 283.969 143.364ZM289.968 150.356C289.968 151.18 290.145 151.854 290.361 151.854C290.577 151.854 291.013 151.18 291.33 150.356C291.646 149.532 291.469 148.858 290.937 148.858C290.404 148.858 289.968 149.532 289.968 150.356ZM295.967 149.857C295.967 150.406 296.39 150.856 296.908 150.856C297.426 150.856 298.127 150.406 298.467 149.857C298.807 149.307 298.383 148.858 297.526 148.858C296.669 148.858 295.967 149.307 295.967 149.857ZM298.996 152.814C298.187 153.326 297.785 154.004 298.103 154.322C298.422 154.64 299.251 154.214 299.947 153.377C301.39 151.641 301.113 151.477 298.996 152.814ZM289.126 159.846C289.126 161.22 289.353 161.782 289.63 161.095C289.908 160.408 289.908 159.285 289.63 158.597C289.353 157.911 289.126 158.472 289.126 159.846ZM241.974 223.22C241.974 224.076 242.424 224.777 242.974 224.777C243.524 224.777 243.974 224.354 243.974 223.837C243.974 223.319 243.524 222.619 242.974 222.28C242.424 221.94 241.974 222.363 241.974 223.22ZM247.973 260.798C247.973 261.379 248.423 261.578 248.973 261.238C249.523 260.898 249.973 260.423 249.973 260.18C249.973 259.937 249.523 259.74 248.973 259.74C248.423 259.74 247.973 260.216 247.973 260.798Z" fill="#A5C2DF"/>
</svg>
