<svg width="553" height="383" viewBox="0 0 553 383" fill="none" xmlns="http://www.w3.org/2000/svg">
<path fill-rule="evenodd" clip-rule="evenodd" d="M349.573 88.1579C421.394 97.7628 476.759 203.908 445.817 272.679C432.045 303.289 376.862 306.52 362.19 277.575L359.645 272.555L360.148 250.032C360.65 227.545 361.498 221.761 364.46 220.626C369.037 218.87 363.692 204.917 352.934 190.536L346.953 182.542L353.673 176.569C371.443 160.768 381.907 149.757 380.496 148.346C379.619 147.469 375.994 150.205 362.272 162.105C295.3 220.178 249.884 230.213 204.793 196.901C186.525 183.405 186.771 176.84 205.258 184.49C224.579 192.485 240.255 190.728 261.748 178.158C285.553 164.236 320.368 131.03 328.478 114.512C332.497 106.328 329.248 102.512 324.932 110.345C320.061 119.184 299.789 145.06 297.728 145.067C297.351 145.069 298.996 140.911 301.385 135.827C306.344 125.272 308.39 116.768 307.459 110.564C305.444 97.1362 327.793 85.246 349.573 88.1579Z" fill="#017260"/>
<path fill-rule="evenodd" clip-rule="evenodd" d="M158.995 171.517C148.821 173.533 148.06 174.539 148.862 184.905C149.912 198.497 147.117 199.846 128.937 194.521C111.656 189.46 113.483 191.446 137.388 203.712C160.264 215.449 163.322 216.426 172.109 214.814C186.596 212.157 187.447 210.946 184.999 196.489C180.833 171.892 176.774 167.994 158.995 171.517Z" fill="#A5C2DF"/>
<path fill-rule="evenodd" clip-rule="evenodd" d="M257.776 72.0804C260.719 99.1291 278.711 116.665 291.515 104.966C298.882 98.2343 299.531 98.1393 304.808 103.008L309.404 107.251L314.804 101.627C321.06 95.1079 321.331 93.5032 317.072 88.2152C315.351 86.0767 312.455 82.0265 310.638 79.214L307.331 74.099L294.543 73.6221C283.129 73.1962 280.614 72.7523 271.117 69.4879C256.606 64.5019 256.944 64.4359 257.776 72.0804ZM368.815 287.788L362.141 277.5L360.914 239.886C360.199 224.587 359.825 223.557 355.152 224.041C353.248 224.239 351.977 225.604 349.791 229.799C344.823 239.331 342.256 242.797 340.16 242.797C337.445 242.797 337.657 242.106 341.315 239.023C351.829 230.165 351.566 213.542 340.715 201.055C336.057 195.696 321.698 199.896 320.389 207.001C320.18 208.132 321.399 209.374 324.037 210.721C331.509 214.538 336.302 222.775 336.079 231.415L335.979 235.298L335.089 231.517C329.784 208.958 298.716 206.298 277.578 226.592C250.871 252.228 276.122 286.487 354.995 331.632C386.582 349.712 389.86 353.522 385.211 366.742C381.969 375.956 385.086 377.149 396.916 371.223C422.909 358.204 413.868 327.244 381.253 296.694L368.815 287.788ZM188.677 172.186L185 175.56L186.698 183.433C189.374 195.844 190.375 198.805 191.896 198.805C194.811 198.805 195.564 195.094 193.709 189.864C191.807 184.506 193.287 180.809 197.331 180.809C201.297 180.809 202.725 175.191 199.816 171.034C197.464 167.672 193.105 168.121 188.677 172.186ZM336.845 238.465C336.479 238.831 336.179 238.531 336.179 237.798C336.179 237.065 336.479 236.765 336.845 237.131C337.211 237.498 337.211 238.098 336.845 238.465ZM328.191 262.293C328.191 262.568 327.966 262.793 327.691 262.793C327.417 262.793 327.192 262.568 327.192 262.293C327.192 262.018 327.417 261.793 327.691 261.793C327.966 261.793 328.191 262.018 328.191 262.293ZM347.833 273.43C362.824 282.509 362.121 282.528 362.237 273.041L362.141 277.5L366.591 284.359C366.591 284.359 369.012 287.788 368.815 287.788C368.815 287.788 332.87 265.714 330.188 263.822C326.118 260.949 337.087 266.923 347.833 273.43Z" fill="#D89687"/>
<path fill-rule="evenodd" clip-rule="evenodd" d="M273.66 3.39555C244.372 6.23755 222.399 30.1385 227.182 53.9525C228.212 59.0815 228.108 59.7595 225.553 64.6205C217.44 80.0535 223.139 96.1546 246.735 124.472C264.328 145.585 275.029 150.393 292.027 144.824L294.229 144.103L291.638 150.635C286.34 163.986 247.662 187.608 228.758 189.038C213.943 190.158 199.011 183.017 198.856 174.738C198.673 165.029 189.621 162.288 181.66 169.53C179.504 171.492 179.492 171.491 178.347 169.351C175.128 163.337 169.053 162.253 155.495 165.273C141.104 168.479 141.001 168.607 143.173 180.604C145.353 192.642 142.955 193.553 124.325 187.762C111.502 183.777 105.979 184.574 110.304 189.786C112.226 192.101 156.926 215.311 159.457 215.308C171.068 215.292 184.607 210.809 186.116 206.481C188.785 198.824 192.222 195.062 194.768 197.01C196.063 198.001 200.557 201.434 204.755 204.64C222.822 218.44 248.212 224.723 270.266 220.851L274.706 220.071L270.549 224.794C250.784 247.249 268.68 285.551 311.325 312.062C314.9 314.284 329.3 322.277 343.325 329.823C382.751 351.037 385.208 353.595 378.364 366.311C372.859 376.54 374.777 379.33 385.438 376.604C419.806 367.815 423.085 338.802 392.968 309.974C386.686 303.961 386.176 303.215 388.74 303.784C404.498 307.285 429.615 301.368 440.416 291.61C456.317 277.244 463.433 228.497 454.708 193.701C454.195 191.657 454.362 191.621 460.002 192.546C545.49 206.572 590.426 84.3925 510.471 55.3235C507.366 54.1945 502.895 52.5605 500.536 51.6925C494.295 49.3975 490.653 45.8996 484.536 36.3246C466.449 8.01455 442.442 2.04455 400.431 15.4106C365.362 26.5676 363.713 26.4675 319.825 10.5295C302.547 4.25454 287.99 2.00555 273.66 3.39555ZM273.181 71.4165C278.519 72.7915 284.213 73.3935 292.057 73.4125L303.289 73.4395L305.236 77.8426C306.307 80.2636 309.299 84.5066 311.883 87.2696C317.197 92.9506 317.327 92.2485 309.419 100.561C303.919 106.342 304.183 106.333 300.259 100.869C295.601 94.3816 295.208 94.4555 286.4 103.479L278.485 111.588L275.155 109.644C264.928 103.673 253.395 81.1535 253.34 67.0465L253.325 63.2816L259.431 66.3645C262.79 68.0595 268.978 70.3325 273.181 71.4165ZM360.167 91.4636C389.988 99.2736 423.612 129.071 440.493 162.645C461.035 203.5 460.976 264.142 440.373 287.524C420.491 310.088 365.986 303.922 360.122 278.447C356.126 261.086 358.783 222.311 363.969 222.311C369.572 222.311 359.427 200.953 347.901 188.484L344.825 185.157L349.804 180.984C365.587 167.757 381.669 152.255 380.657 151.243C380.157 150.743 375.083 154.69 368.803 160.467C295.09 228.277 241.378 237.416 191.666 190.606C183.092 182.533 193.043 179.061 204.587 186.098C225.387 198.777 251.617 190.673 289.315 159.921C308.502 144.269 332.717 113.991 329.81 109.286C329.058 108.07 326.325 109.848 326.325 111.553C326.325 116.403 298.038 152.311 294.218 152.311C293.754 152.311 296.242 146.5 299.744 139.399C306.682 125.334 308.18 119.198 306.342 112.374L305.209 108.165L309.569 104.327C311.967 102.216 315.145 98.7346 316.63 96.5916C319.311 92.7226 323.607 90.9606 335.325 88.9246C339.741 88.1566 352.534 89.4636 360.167 91.4636ZM174.583 169.206C180.058 175.712 185.285 206.192 181.293 208.328C178.98 209.566 164.284 212.308 159.952 212.31C157.742 212.311 115.963 191.123 113.408 188.705C111.813 187.195 115.165 187.602 121.445 189.68C144.527 197.318 148.539 195.747 145.795 180.141C144.05 170.218 143.901 170.421 154.569 168.217C167.569 165.531 171.661 165.733 174.583 169.206ZM194.754 169.882C196.671 171.8 196.935 179.478 195.075 179.236C187.774 178.288 183.561 185.74 188.454 190.948L190.583 193.214L188.471 196.513C187.309 198.327 186.318 199.586 186.267 199.311C186.217 199.036 184.923 193.467 183.391 186.936L180.606 175.06L183.569 171.686C186.895 167.898 191.954 167.083 194.754 169.882ZM97.3252 186.748C97.3252 187.875 98.3252 188.311 100.908 188.311C105.427 188.311 105.082 185.95 100.498 185.498C98.1533 185.266 97.3252 185.592 97.3252 186.748ZM81.0543 187.403C78.4063 188.944 79.7382 189.978 83.7642 189.508C85.9392 189.254 87.3252 188.551 87.3252 187.702C87.3252 186.077 83.6333 185.901 81.0543 187.403ZM348.304 193.061C357.255 203.076 364.838 220.311 360.294 220.311C359.176 220.311 358.013 220.961 357.708 221.756C356.692 224.404 348.546 219.602 347.741 215.881C346.548 210.367 343.117 204.245 338.214 198.88L333.401 193.614L337.613 190.502C342.995 186.526 342.319 186.364 348.304 193.061ZM63.7843 193.378C63.4213 193.964 63.3742 194.693 63.6782 194.998C64.5302 195.849 69.3252 194.401 69.3252 193.292C69.3252 191.966 64.6113 192.038 63.7843 193.378ZM92.5752 194.973C91.4262 195.437 90.7403 198.311 91.7783 198.311C93.0543 198.311 97.3252 195.877 97.3252 195.15C97.3252 194.249 94.6202 194.148 92.5752 194.973ZM102.882 197.248C100.204 200.207 102.019 201.947 104.93 199.212C106.247 197.975 107.325 196.591 107.325 196.137C107.325 194.62 104.656 195.288 102.882 197.248ZM342.37 209.721C346.373 217.726 346.255 222.183 341.808 231.073C339.087 236.512 333.63 242.912 333.272 241.084C333.242 240.934 333.117 236.986 332.993 232.311C332.638 218.9 326.618 210.356 315.41 207.359C313.24 206.778 313.927 206.122 321.904 201.158L330.825 195.607L335.12 199.709C337.483 201.965 340.745 206.47 342.37 209.721ZM50.5133 199.988C47.6713 201.701 46.5383 202.924 47.1903 203.576C48.4493 204.835 55.3253 200.738 55.3253 198.729C55.3253 196.973 55.6603 196.886 50.5133 199.988ZM78.2772 203.149C74.7942 205.969 76.7492 207.796 80.3782 205.114C81.9992 203.915 83.3252 202.57 83.3252 202.123C83.3252 200.7 80.6232 201.249 78.2772 203.149ZM94.5252 208.511C93.0862 209.95 92.9402 212.311 94.2902 212.311C95.1812 212.311 97.3252 209.179 97.3252 207.877C97.3252 206.906 95.7802 207.256 94.5252 208.511ZM34.9033 212.23C30.7893 216.524 32.6663 218.342 36.9383 214.202C38.8013 212.396 40.3253 210.557 40.3253 210.115C40.3253 208.378 37.5603 209.456 34.9033 212.23ZM316.825 210.311C319.439 211.434 313.239 211.434 308.825 210.311C306.117 209.622 306.262 209.543 310.325 209.5C312.8 209.473 315.725 209.838 316.825 210.311ZM65.3982 215.946C63.3722 218.521 62.5822 222.319 64.0752 222.303C64.7922 222.296 69.3252 215.009 69.3252 213.863C69.3252 212.469 67.2792 213.555 65.3982 215.946ZM323.011 215.476C327.803 217.749 330.325 224.297 330.325 234.464C330.325 249.184 340.563 244.923 346.385 227.78C348.311 222.111 348.651 221.926 353.033 224.162L356.98 226.175L356.059 233.493C355.047 241.537 355.786 270.329 357.178 277.061C357.661 279.398 357.913 281.311 357.739 281.311C357.564 281.311 354.587 279.335 351.123 276.921C344.324 272.181 320.49 258.311 319.145 258.311C316.016 258.311 319.859 261.609 328.298 266.164C403.293 306.651 431.469 353.106 392.069 371.306C378.629 377.514 375.976 376.442 381.325 366.965C388.889 353.562 383.3 347.499 345.016 327.577C283.709 295.673 257.217 265.075 266.329 236.692C271.905 219.325 305.008 206.934 323.011 215.476ZM88.3603 222.245C86.9413 224.896 87.0632 226.311 88.7082 226.311C89.8932 226.311 91.2662 223.542 91.3112 221.061C91.3392 219.567 89.3713 220.357 88.3603 222.245ZM24.9143 225.167C23.4383 227.555 22.5033 231.303 23.2653 231.774C23.9823 232.217 28.3253 226.191 28.3253 224.754C28.3253 223.947 25.4533 224.295 24.9143 225.167ZM57.9322 231.893C57.0682 234.145 57.1823 236.311 58.1643 236.311C59.2773 236.311 61.3593 231.678 60.5913 230.911C59.5613 229.88 58.5632 230.249 57.9322 231.893ZM85.4183 238.138C83.9443 240.892 84.0432 242.311 85.7082 242.311C87.3532 242.311 88.6372 238.223 87.3852 236.971C86.8852 236.471 86.0423 236.972 85.4183 238.138ZM16.9163 243.532C15.1333 246.253 15.0573 249.255 16.7613 249.614C17.8123 249.835 19.6393 243.752 19.0513 241.989C18.8433 241.364 17.8823 242.058 16.9163 243.532ZM53.9322 245.893C52.8912 248.606 53.2503 251.502 54.5753 251.067C56.0443 250.585 56.8993 244.311 55.4953 244.311C54.9693 244.311 54.2662 245.023 53.9322 245.893ZM84.7333 253.689C83.9163 255.82 84.6022 258.571 86.0752 259.061C86.8912 259.333 87.3252 258.428 87.3252 256.453C87.3252 253.116 85.6423 251.321 84.7333 253.689ZM9.94825 263.851C9.00525 266.308 9.20225 270.311 10.2662 270.311C11.5602 270.311 12.0653 269.303 12.4743 265.898C12.8553 262.74 10.9633 261.207 9.94825 263.851ZM52.9143 267.388C48.2233 272.963 50.5973 285.596 57.9513 294.188C60.3993 297.047 61.3253 299.096 61.3253 301.652C61.3253 303.59 62.6752 310.412 64.3252 316.811C68.0822 331.381 68.0973 331.207 63.4803 326.353C60.5573 323.281 58.8703 322.311 56.4483 322.311C49.3783 322.311 51.1983 328.635 61.0113 338.165L68.5843 345.52L67.4412 352.441C66.8122 356.247 65.6353 361.263 64.8263 363.586C63.1193 368.486 62.9213 371.311 64.2853 371.311C65.9493 371.311 69.4652 358.214 70.6112 347.745L71.7132 337.678L76.5413 334.983C83.8133 330.922 87.0362 324.377 84.2902 319.245C81.9852 314.939 76.1503 317.529 71.1103 325.095C69.6523 327.284 69.4793 326.941 66.9573 316.876C63.3513 302.486 63.4292 298.826 67.3852 296.78C75.2152 292.731 82.2492 283.539 82.3032 277.284C82.3632 270.333 75.6402 268.038 70.6632 273.311C67.0152 277.176 66.3252 277.089 66.3252 272.766C66.3252 264.948 57.8333 261.542 52.9143 267.388ZM127.682 304.371C124.878 305.413 122.325 309.135 122.325 312.18V314.603L119.873 311.957C117.026 308.885 114.299 308.622 110.229 311.027C103.698 314.885 109.209 328.092 119.575 333.423L123.325 335.352V344.672C123.325 349.799 122.827 357.692 122.219 362.212C121.193 369.833 121.418 372.552 122.945 371.024C124.405 369.565 125.545 359.881 125.738 347.311L125.946 333.811L129.257 329.311C139.076 315.968 138.099 300.497 127.682 304.371ZM80.7432 320.918C85.1232 322.599 80.7662 330.33 73.5982 333.596C68.9872 335.697 70.5063 328.831 75.9513 322.959C78.6793 320.016 78.5442 320.074 80.7432 320.918ZM2.07525 323.391C-2.63775 326.136 1.16525 338.588 8.57125 344.656C12.7783 348.103 12.8893 348.352 14.0673 356.993C15.2463 365.632 19.4003 379.786 21.3213 381.707C23.5003 383.886 23.3372 381.087 20.8892 374.3C19.4632 370.347 17.6163 362.884 16.7843 357.716L15.2723 348.318L20.9273 340.805C29.9103 328.869 27.2873 316.258 17.7953 325.75L15.3563 328.189L12.4183 325.25C9.35025 322.182 5.37725 321.468 2.07525 323.391ZM59.8083 326.892C62.9793 328.97 68.5783 337.759 68.1493 339.987C67.6753 342.446 55.3253 330.339 55.3253 327.415C55.3253 324.903 56.5533 324.759 59.8083 326.892Z" fill="#16314F"/>
<path fill-rule="evenodd" clip-rule="evenodd" d="M95.3788 186.195C95.3788 187.376 96.3392 187.794 99.0533 187.794C103.124 187.794 102.595 186.38 98.1098 185.271C95.9826 184.745 95.3788 184.95 95.3788 186.195ZM78.7447 187.458C76.832 188.23 77.2749 189.782 79.408 189.782C82.003 189.782 84.4549 188.764 84.4549 187.688C84.4549 186.752 80.852 186.607 78.7447 187.458ZM62.7282 192.654C61.9754 193.14 61.6298 193.974 61.9595 194.509C62.7778 195.835 67.7492 194.787 67.2835 193.386C66.7958 191.921 64.4522 191.544 62.7282 192.654ZM90.8534 195.169C89.7937 195.944 89.2277 196.88 89.5951 197.248C90.6776 198.332 94.3858 196.733 94.3858 195.184C94.3858 193.381 93.3013 193.376 90.8534 195.169ZM99.9272 197.924C99.089 199.121 98.5974 200.295 98.8348 200.532C99.6729 201.371 102.215 199.809 103.294 197.791C104.845 194.89 101.971 195.003 99.9272 197.924ZM49.0603 199.647C45.0681 202.084 44.0572 203.7 46.525 203.7C48.6154 203.7 53.6692 200.133 53.6692 198.657C53.6692 197.285 52.5272 197.531 49.0603 199.647ZM77.2789 202.452C74.2222 204.349 72.9202 206.683 74.9183 206.683C76.5549 206.683 81.4756 202.899 81.4756 201.64C81.4756 200.319 80.3674 200.534 77.2789 202.452ZM91.4413 209.6C90.0837 212.14 90.1433 212.648 91.7968 212.648C93.0977 212.648 94.3858 210.63 94.3858 208.59C94.3858 206.972 92.5009 207.618 91.4413 209.6ZM33.7311 211.577C30.9196 214.391 29.9881 216.624 31.6267 216.624C32.595 216.624 38.773 210.352 38.773 209.369C38.773 207.824 36.474 208.831 33.7311 211.577ZM64.3777 214.388C60.6179 218.703 59.6695 223.454 63.1453 220.566C64.617 219.343 67.5724 214.422 67.5724 213.195C67.5724 212.063 65.8395 212.711 64.3777 214.388ZM86.0508 222.174C84.3725 226.552 86.3616 228.221 88.2674 224.034C89.7292 220.822 89.7153 220.601 88.037 220.601C87.2763 220.601 86.3825 221.309 86.0508 222.174ZM22.4437 226.788C20.6948 229.286 20.4207 231.537 21.8647 231.537C22.7277 231.537 25.8628 226.508 25.8628 225.124C25.8628 223.793 23.8548 224.77 22.4437 226.788ZM55.4727 233.032C54.85 234.402 54.6723 235.854 55.0784 236.262C55.9355 237.12 58.6347 233.766 58.6347 231.844C58.6347 229.657 56.6733 230.394 55.4727 233.032ZM83.1311 238.165C82.7667 238.528 82.4687 239.685 82.4687 240.732C82.4687 243.31 84.867 242.393 85.2692 239.661C85.5761 237.57 84.4857 236.808 83.1311 238.165ZM14.3917 244.926C12.631 249.143 12.622 249.431 14.2428 249.431C15.3332 249.431 17.9182 244.312 17.9182 242.153C17.9182 240.152 15.6351 241.946 14.3917 244.926ZM51.7218 246.377C50.6423 248.395 51.2789 251.42 52.7824 251.42C53.27 251.42 53.6752 250.861 53.6831 250.177C53.6901 249.494 53.9662 247.927 54.2949 246.697C55.0337 243.938 53.1509 243.703 51.7218 246.377ZM82.4687 255.338C82.4687 257.288 84.148 259.018 85.1084 258.056C85.8879 257.275 84.4628 253.408 83.3953 253.408C82.8858 253.408 82.4687 254.276 82.4687 255.338ZM8.66558 263.001C7.66555 264.003 7.83934 269.314 8.87314 269.314C10.1354 269.314 11.2466 264.226 10.2108 263.189C9.73414 262.712 9.03898 262.628 8.66558 263.001Z" fill="#A5C2DF"/>
<path fill-rule="evenodd" clip-rule="evenodd" d="M65.7111 299.468C65.0263 300.648 66.8207 314.304 68.5242 320.892C70.4975 328.522 70.5595 328.449 65.5651 324.362C53.4931 314.484 52.4294 327.689 64.4105 338.7C71.3542 345.081 71.5822 348.297 66.4798 367.916C65.6411 371.143 68.2503 371.896 69.8607 368.891C71.7011 365.457 74.0534 354.551 74.6662 346.614L75.2869 338.582L80.4593 335.278C88.0328 330.44 90.9958 323.074 87.419 317.976C85.2137 314.831 83.5522 315.186 78.4359 319.895C72.9657 324.931 73.5485 325.526 70.0916 311.374C67.2396 299.7 66.5938 297.945 65.7111 299.468ZM84.477 324.777C84.477 326.425 83.1924 328.043 80.2413 330.114C75.124 333.705 73.9904 333.064 76.9634 328.261C81.201 321.414 84.477 319.895 84.477 324.777ZM67.4505 332.39C72.6878 339.239 71.7321 339.887 65.4832 333.725C62.4591 330.743 59.985 327.711 59.985 326.986C59.985 324.732 63.5908 327.341 67.4505 332.39ZM126.515 335.971C125.756 339.482 124 371.03 124.534 371.563C127.135 374.16 128.443 367.923 128.808 351.177C129.161 334.993 128.162 328.36 126.515 335.971ZM17 350.945C17.003 359.713 23.4479 381.642 26.0221 381.642C27.4766 381.642 27.2806 380.342 23.6188 365.67C21.7684 358.257 19.964 350.957 19.6081 349.448C18.6175 345.251 16.999 346.181 17 350.945Z" fill="#017260"/>
<path fill-rule="evenodd" clip-rule="evenodd" d="M56.9162 263.939C50.0136 267.967 50.8619 281.076 58.7353 292.055C61.302 295.634 66.4274 297.422 67.1331 301.852C67.1331 298.301 67.5677 297.554 70.8709 295.434C78.9816 290.227 85.9659 279.535 84.6612 274.325C83.2218 268.583 78.1513 267.255 73.2951 271.348C69.5273 274.525 69.4735 274.514 68.702 270.393C67.6175 264.6 61.5133 261.257 56.9162 263.939ZM129.288 302.793C126.682 303.847 123.949 307.579 123.949 310.086C123.949 311.827 123.798 311.814 121.322 309.864C115.973 305.647 108.997 308.927 108.997 315.659C108.997 321.035 113.765 328.034 120.08 331.926L125.235 335.104C125.235 335.104 128.175 333.182 131.047 329.061C141.224 314.459 140.148 298.403 129.288 302.793ZM5.56794 320.82C-0.87116 323.386 1.78621 335.801 10.481 343.773C14.0325 347.029 16 347.528 16 347.528L22.6385 340.826C32.4238 327.511 30.7013 314.645 20.3071 323.406L17.1862 326.037L14.4989 323.517C11.2186 320.442 8.54527 319.634 5.56794 320.82Z" fill="#ED4865"/>
</svg>
