
<svg id="Слой_1" enable-background="new 0 0 300 300" height="512" viewBox="0 0 300 300" width="512" xmlns="http://www.w3.org/2000/svg"><g fill="#017260"><path d="m253.728 14.347c-.827-.345-1.773-.153-2.404.478l-6.63 6.63-6.633-6.63c-.862-.862-2.258-.862-3.119 0l-6.633 6.63-6.63-6.63c-.862-.862-2.258-.862-3.119 0l-6.633 6.63-6.63-6.63c-.862-.862-2.258-.862-3.119 0l-6.633 6.63-6.63-6.63c-.862-.862-2.258-.862-3.119 0l-6.633 6.63-6.633-6.63c-.862-.862-2.258-.862-3.119 0l-6.63 6.63-6.686-6.684c-.862-.862-2.258-.862-3.119 0l-6.686 6.686-6.641-6.641c-.862-.862-2.258-.862-3.119 0l-6.641 6.641-7.813-7.813c-.448-.448-1.056-.67-1.691-.642-.631.037-1.215.343-1.605.84-3.477 4.429-14.101 15.923-21.397 15.923-3.541 0-7.003-1.234-9.745-3.472-.575-.465-1.338-.614-2.044-.401-.704.218-1.256.771-1.465 1.48-2.512 8.423-10.092 14.508-18.868 15.142-.638.045-1.226.368-1.609.881-.383.515-.523 1.17-.386 1.797.25 1.127.377 2.253.377 3.35 0 8.509-6.923 15.432-15.432 15.432-.709 0-1.452-.062-2.339-.198-.648-.101-1.284.088-1.771.506-.489.42-.769 1.03-.769 1.674v218.846c0 .892.536 1.697 1.361 2.038.274.114.56.168.844.168.573 0 1.137-.224 1.56-.646l7.813-7.813 7.813 7.813c.862.862 2.258.862 3.119 0l7.813-7.813 7.813 7.813c.827.827 2.292.827 3.119 0l7.811-7.813 7.813 7.813c.862.862 2.258.862 3.119 0l7.813-7.813 7.813 7.813c.862.862 2.258.862 3.119 0l7.813-7.813 6.641 6.641c.862.862 2.258.862 3.119 0l6.641-6.641 6.686 6.686c.862.862 2.258.862 3.119 0l6.686-6.686 6.63 6.633c.414.414.974.646 1.56.646s1.146-.233 1.56-.646l6.633-6.633 6.633 6.633c.827.827 2.292.827 3.119 0l6.63-6.633 6.633 6.633c.827.827 2.292.827 3.119 0l6.63-6.633 6.633 6.633c.827.827 2.292.827 3.119 0l6.63-6.633 6.633 6.633c.862.862 2.258.862 3.119 0l6.633-6.633 6.63 6.633c.631.633 1.579.825 2.404.478.823-.34 1.361-1.146 1.361-2.038v-267.238c.001-.891-.536-1.697-1.361-2.037zm-166.397 17.093c3.031 1.779 6.51 2.738 10.049 2.738 8.963 0 19.293-10.999 23.293-15.695l7.654 7.654c.862.862 2.258.862 3.119 0l6.641-6.641 6.641 6.641c.862.862 2.258.862 3.119 0l6.686-6.686 6.686 6.684c.862.862 2.258.862 3.119 0l6.63-6.63 6.633 6.63c.862.862 2.258.862 3.119 0l6.633-6.63 6.63 6.63c.862.862 2.258.862 3.119 0l6.633-6.63 6.63 6.63c.862.862 2.258.862 3.119 0l6.633-6.63 6.63 6.63c.862.862 2.258.862 3.119 0l6.633-6.63 6.633 6.63c.862.862 2.258.862 3.119 0l4.425-4.425v16.802h-167.972c1.894-2.077 3.491-4.44 4.627-7.072zm-39.591 36.939c11.197.304 20.311-8.739 20.311-19.838 0-.633-.032-1.271-.097-1.913 3.545-.596 6.857-1.965 9.793-3.889.269.116.563.184.875.184h172.056v213.967h-202.938zm202.938 209.915-4.425-4.425c-.414-.414-.974-.646-1.56-.646s-1.146.233-1.56.646l-6.633 6.633-6.633-6.633c-.827-.827-2.292-.827-3.119 0l-6.63 6.633-6.633-6.633c-.827-.827-2.292-.827-3.119 0l-6.63 6.633-6.633-6.633c-.827-.827-2.292-.827-3.119 0l-6.63 6.633-6.633-6.633c-.862-.862-2.258-.862-3.119 0l-6.633 6.633-6.63-6.633c-.414-.414-.974-.646-1.56-.646s-1.146.233-1.56.646l-6.686 6.686-6.686-6.686c-.862-.862-2.258-.862-3.119 0l-6.641 6.641-6.641-6.641c-.862-.862-2.258-.862-3.119 0l-7.813 7.813-7.813-7.813c-.431-.431-.995-.646-1.56-.646-.564 0-1.129.215-1.56.646l-7.813 7.813-7.813-7.813c-.827-.827-2.292-.827-3.119 0l-7.811 7.813-7.813-7.813c-.862-.862-2.258-.862-3.119 0l-7.813 7.813-7.813-7.813c-.862-.862-2.258-.862-3.119 0l-5.607 5.607v-18.175h202.938v16.993z"/><path d="m177.95 170.936c-8.513 0-15.441 6.928-15.441 15.441s6.928 15.441 15.441 15.441 15.441-6.928 15.441-15.441-6.928-15.441-15.441-15.441zm0 26.47c-6.081 0-11.029-4.948-11.029-11.029s4.948-11.029 11.029-11.029 11.029 4.948 11.029 11.029-4.948 11.029-11.029 11.029z"/><path d="m230.89 131.231h-.211c-1.06-5.891-6.212-10.379-12.402-10.379-2.26 0-4.453.612-6.378 1.756-1.969-2.71-5.112-4.356-8.582-4.356-4.168 0-7.813 2.413-9.547 5.986-2.128-1.021-4.795-1.023-6.923.002-1.734-3.576-5.381-5.989-9.547-5.989-2.559 0-5.019.939-6.936 2.589-2.96-2.494-6.721-3.89-10.624-3.89-5.556 0-10.607 2.742-13.64 7.201-2.288-2.107-5.278-3.3-8.474-3.3-6.192 0-11.344 4.488-12.404 10.379h-2.416c-.909 0-1.725.558-2.055 1.404-.33.847-.108 1.809.562 2.426l17.706 16.29h-21.917l-17.132-17.134c-.414-.414-.974-.646-1.56-.646h-10.9v-4.545c0-1.219-.987-2.206-2.206-2.206h-15.441c-4.866 0-8.823 3.959-8.823 8.826 0 4.864 3.957 8.821 8.823 8.821h15.441c1.219 0 2.206-.987 2.206-2.206v-4.278h9.984l17.132 17.134c.414.414.974.646 1.56.646h27.626l3.107 2.859h-6.468c-.864 0-1.65.506-2.008 1.292l-17.362 38.161-10.441 6.264c-1.045.627-1.383 1.982-.756 3.027.414.689 1.144 1.071 1.893 1.071.386 0 .778-.101 1.133-.314l11.029-6.618c.383-.23.687-.571.872-.978l17.059-37.493h9.844l6.394 5.882c-4.111 4.666-6.628 10.769-6.628 17.462 0 14.596 11.874 26.47 26.47 26.47s26.47-11.874 26.47-26.47c0-6.876-2.657-13.127-6.97-17.837l34.967-33.511c.648-.623.855-1.579.519-2.415s-1.146-1.383-2.046-1.383zm-147.792 8.823h-13.235c-2.432 0-4.412-1.98-4.412-4.412s1.98-4.412 4.412-4.412h13.235zm54.526-14.79c2.859 0 5.467 1.48 6.979 3.961.433.711 1.247 1.103 2.059 1.051.829-.067 1.553-.597 1.865-1.368 1.868-4.584 6.269-7.546 11.21-7.546 3.451 0 6.751 1.493 9.054 4.095.444.5 1.034.771 1.764.741.67-.034 1.286-.371 1.678-.916 1.198-1.665 3.044-2.619 5.064-2.619 3.169 0 5.821 2.393 6.172 5.568.099.896.735 1.641 1.605 1.883.864.237 1.799-.075 2.344-.793 1.411-1.85 4.371-1.848 5.78 0 .543.717 1.476 1.028 2.344.793.87-.241 1.506-.987 1.605-1.885.349-3.173 3.001-5.566 6.169-5.566 2.594 0 4.875 1.575 5.816 4.013.263.685.849 1.193 1.564 1.357.715.168 1.463-.039 2.001-.539 1.536-1.439 3.518-2.232 5.579-2.232 3.742 0 6.872 2.534 7.852 5.967h-96.358c.981-3.431 4.111-5.965 7.854-5.965zm40.326 83.171c-12.162 0-22.058-9.896-22.058-22.058s9.896-22.058 22.058-22.058 22.058 9.896 22.058 22.058-9.896 22.058-22.058 22.058zm16.26-42.902c-4.492-3.512-10.128-5.627-16.26-5.627-6.314 0-12.114 2.229-16.668 5.933l-32.823-30.197h96.943z"/></g></svg>