<svg id="Слой_1" enable-background="new 0 0 300 300" height="512" viewBox="0 0 300 300" width="512" xmlns="http://www.w3.org/2000/svg"><g fill="#017260"><path d="m173.664 114.087h-23.533v-20.171c0-1.238-1.002-2.241-2.241-2.241h-13.447v-22.412c0-.229-.067-.438-.13-.647l16.96-3.084c.509 6.482 3.603 21.641 20.993 30.336.322.161.663.236 1 .236.823 0 1.613-.453 2.007-1.239.554-1.107.105-2.454-1.002-3.007-15.772-7.885-18.27-21.274-18.574-27.131l21.73-3.951c1.066-.194 1.841-1.122 1.841-2.205v-25.168c0-1.238-1.002-2.241-2.241-2.241h-97.388c-12.961 0-23.504 10.544-23.504 23.504 0 6.99 3.077 13.568 8.444 18.046 4.268 3.562 9.582 5.462 15.036 5.462 1.405 0 2.819-.126 4.226-.382l14.741-2.68v16.563h-15.688c-1.239 0-2.241 1.004-2.241 2.241v20.171h-23.533c-6.796 0-12.327 5.53-12.327 12.327v92.973.004 54.943c0 6.797 5.531 12.327 12.327 12.327h116.544c6.796 0 12.327-5.53 12.327-12.327v-147.92c0-6.797-5.531-12.327-12.327-12.327zm-81.805 132.233v-89.649h89.649v89.649zm78.329-127.75c-1.236 4.795-6.11 19.445-21.933 33.055-.188.162-.318.362-.438.564h-29.063v-33.619zm11.32 7.844v25.774h-27.214c15.39-14.604 19.598-29.499 20.487-33.506 3.793.549 6.727 3.79 6.727 7.732zm-6.724-90.77v21.057l-6.529 1.187v-22.244zm-91.743 37.738c-5.564 1.008-11.246-.486-15.59-4.11-4.342-3.624-6.833-8.949-6.833-14.605 0-10.488 8.534-19.022 19.022-19.022h84.134v23.06zm20.024.915 26.895-4.89v22.268h-26.895zm-17.93 21.861h60.513v17.93h-60.513zm-28.015 22.412h57.151v33.618h-24.653c-1.239 0-2.241 1.004-2.241 2.241v26.008c-21.106 10.29-32.589 23.054-38.101 30.89v-84.913c0-4.325 3.519-7.844 7.844-7.844zm-7.844 155.765v-54.4c1.407-2.829 11.151-20.741 38.101-34.498v63.123c0 1.238 1.002 2.241 2.241 2.241h24.654v31.377h-57.152c-4.325.002-7.844-3.518-7.844-7.843zm132.232 0c0 4.325-3.519 7.844-7.844 7.844h-54.91v-31.377h62.754z"/><path d="m243.566 70.015-53.389-17.796c-1.182-.393-2.443.244-2.834 1.417-.392 1.174.243 2.444 1.416 2.835l53.389 17.796c.236.079.475.116.709.116.939 0 1.812-.594 2.125-1.533.392-1.174-.242-2.444-1.416-2.835z"/><path d="m189.468 36.282c.234 0 .473-.037.709-.116l53.389-17.796c1.173-.392 1.808-1.661 1.416-2.835-.392-1.173-1.65-1.813-2.834-1.417l-53.389 17.796c-1.173.392-1.808 1.661-1.416 2.835.313.939 1.186 1.533 2.125 1.533z"/><path d="m253.227 42.368h-62.754c-1.239 0-2.241 1.004-2.241 2.241 0 1.238 1.002 2.241 2.241 2.241h62.754c1.239 0 2.241-1.004 2.241-2.241.001-1.237-1.002-2.241-2.241-2.241z"/></g></svg>