<svg width="107" height="36" viewBox="0 0 107 36" fill="none" xmlns="http://www.w3.org/2000/svg">
<path d="M0.196 26.6989V1.13891H11.212C12.46 1.13891 13.612 1.39091 14.668 1.89491C15.724 2.39891 16.636 3.08291 17.404 3.94691C18.172 4.78691 18.76 5.73491 19.168 6.79091C19.6 7.84691 19.816 8.91491 19.816 9.99491C19.816 11.5069 19.456 12.9349 18.736 14.2789C18.04 15.6229 17.056 16.7269 15.784 17.5909C14.536 18.4309 13.072 18.8509 11.392 18.8509H7.216V26.6989H0.196ZM7.216 12.7309H10.924C11.356 12.7309 11.752 12.5389 12.112 12.1549C12.496 11.7469 12.688 11.0269 12.688 9.99491C12.688 8.93891 12.472 8.21891 12.04 7.83491C11.608 7.45091 11.176 7.25891 10.744 7.25891H7.216V12.7309ZM19.1337 0.418913H25.9737V19.1749C25.9737 20.6149 26.5617 21.3349 27.7377 21.3349C28.3377 21.3349 28.9617 21.1549 29.6097 20.7949L30.4737 25.8349C29.6577 26.2189 28.7337 26.5189 27.7017 26.7349C26.6937 26.9509 25.7337 27.0589 24.8217 27.0589C22.9977 27.0589 21.5937 26.5909 20.6097 25.6549C19.6257 24.6949 19.1337 23.3389 19.1337 21.5869V0.418913ZM28.1506 20.9749C28.1506 19.7029 28.4986 18.5869 29.1946 17.6269C29.8906 16.6429 30.8506 15.8749 32.0746 15.3229C33.3226 14.7709 34.7386 14.4949 36.3226 14.4949C37.8586 14.4949 39.1306 14.7349 40.1386 15.2149V14.6389C40.1386 13.7509 39.8746 13.0909 39.3466 12.6589C38.8426 12.2269 38.0146 12.0109 36.8626 12.0109C35.8066 12.0109 34.8106 12.1909 33.8746 12.5509C32.9626 12.8869 32.0026 13.3909 30.9946 14.0629L29.0146 9.81491C31.5106 8.20691 34.3546 7.40291 37.5466 7.40291C40.5466 7.40291 42.8626 8.08691 44.4946 9.45491C46.1506 10.7989 46.9786 12.8029 46.9786 15.4669V19.1389C46.9786 19.7869 47.0746 20.2429 47.2666 20.5069C47.4586 20.7469 47.7946 20.8909 48.2746 20.9389V26.6989C47.7226 26.8189 47.1946 26.9029 46.6906 26.9509C46.2106 27.0229 45.7786 27.0589 45.3946 27.0589C44.1706 27.0589 43.2346 26.8429 42.5866 26.4109C41.9626 25.9549 41.5546 25.2949 41.3626 24.4309L41.2186 23.7469C39.4906 25.9549 37.3426 27.0589 34.7746 27.0589C33.5266 27.0589 32.3986 26.7949 31.3906 26.2669C30.3826 25.7389 29.5906 25.0189 29.0146 24.1069C28.4386 23.1709 28.1506 22.1269 28.1506 20.9749ZM39.2386 21.4429C39.8386 21.0349 40.1386 20.5909 40.1386 20.1109V18.7069C39.7546 18.5629 39.3106 18.4429 38.8066 18.3469C38.3266 18.2509 37.8946 18.2029 37.5106 18.2029C36.6946 18.2029 35.9986 18.4069 35.4226 18.8149C34.8706 19.2229 34.5946 19.7389 34.5946 20.3629C34.5946 20.8909 34.7986 21.3229 35.2066 21.6589C35.6386 21.9949 36.1786 22.1629 36.8266 22.1629C37.7146 22.1629 38.5186 21.9229 39.2386 21.4429ZM66.9093 26.6989H60.0693V16.0429C60.0693 15.1069 59.8533 14.4349 59.4213 14.0269C59.0133 13.5949 58.5333 13.3789 57.9813 13.3789C57.4053 13.3789 56.7933 13.6309 56.1453 14.1349C55.4973 14.6389 55.0173 15.2869 54.7053 16.0789V26.6989H47.8653V7.76291H54.0213V10.5709C54.6933 9.53891 55.6413 8.75891 56.8653 8.23091C58.0893 7.67891 59.5173 7.40291 61.1493 7.40291C62.4453 7.40291 63.4773 7.63091 64.2453 8.08691C65.0133 8.54291 65.5893 9.13091 65.9733 9.85091C66.3573 10.5709 66.6093 11.3269 66.7293 12.1189C66.8493 12.8869 66.9093 13.5949 66.9093 14.2429V26.6989ZM80.6287 25.6549C79.6687 26.0629 78.6367 26.4109 77.5327 26.6989C76.4527 26.9629 75.3847 27.0949 74.3287 27.0949C73.2967 27.0949 72.3487 26.9269 71.4847 26.5909C70.6207 26.2309 69.9247 25.6549 69.3967 24.8629C68.8927 24.0469 68.6407 22.9549 68.6407 21.5869V12.9109H66.3007V7.76291H68.6407V1.82291H75.4807V7.76291H79.1887V12.9109H75.4807V19.1749C75.4807 19.7989 75.6127 20.2429 75.8767 20.5069C76.1407 20.7469 76.5007 20.8669 76.9567 20.8669C77.2927 20.8669 77.6767 20.8069 78.1087 20.6869C78.5407 20.5669 78.9727 20.4229 79.4047 20.2549L80.6287 25.6549ZM79.5434 0.418913H86.3834V19.1749C86.3834 20.6149 86.9714 21.3349 88.1474 21.3349C88.7474 21.3349 89.3714 21.1549 90.0194 20.7949L90.8834 25.8349C90.0674 26.2189 89.1434 26.5189 88.1114 26.7349C87.1034 26.9509 86.1434 27.0589 85.2314 27.0589C83.4074 27.0589 82.0034 26.5909 81.0194 25.6549C80.0354 24.6949 79.5434 23.3389 79.5434 21.5869V0.418913ZM88.2298 28.6069C89.3338 29.0149 90.2698 29.2189 91.0378 29.2189C92.5018 29.2189 93.3058 28.3789 93.4498 26.6989L86.5738 7.76291H93.5938L97.1938 19.6789L100.11 7.76291H106.482L100.074 28.9669C99.7138 30.1909 99.1258 31.2589 98.3098 32.1709C97.4938 33.1069 96.5218 33.8269 95.3938 34.3309C94.2658 34.8589 93.0538 35.1229 91.7578 35.1229C90.5338 35.1229 89.3578 34.8949 88.2298 34.4389V28.6069Z" fill="#017260"/>
<path d="M14.668 1.89491L14.6637 1.90394L14.6637 1.90394L14.668 1.89491ZM17.404 3.94691L17.3965 3.95356L17.3966 3.95366L17.404 3.94691ZM19.168 6.79091L19.1587 6.79452L19.1587 6.7947L19.168 6.79091ZM18.736 14.2789L18.7272 14.2742L18.7271 14.2743L18.736 14.2789ZM15.784 17.5909L15.7896 17.5992L15.7896 17.5992L15.784 17.5909ZM12.112 12.1549L12.1047 12.1481L12.1047 12.1481L12.112 12.1549ZM12.04 7.83491L12.0466 7.82744L12.0466 7.82744L12.04 7.83491ZM0.206 26.6989V1.13891H0.186V26.6989H0.206ZM0.196 1.14891H11.212V1.12891H0.196V1.14891ZM11.212 1.14891C12.4586 1.14891 13.6091 1.40062 14.6637 1.90394L14.6723 1.88589C13.6149 1.3812 12.4614 1.12891 11.212 1.12891V1.14891ZM14.6637 1.90394C15.7185 2.40737 16.6294 3.09057 17.3965 3.95356L17.4115 3.94027C16.6426 3.07526 15.7295 2.39045 14.6723 1.88589L14.6637 1.90394ZM17.3966 3.95366C18.1638 4.79275 18.7511 5.73968 19.1587 6.79452L19.1773 6.78731C18.7689 5.73014 18.1802 4.78108 17.4114 3.94016L17.3966 3.95366ZM19.1587 6.7947C19.5903 7.84957 19.806 8.91628 19.806 9.99491H19.826C19.826 8.91354 19.6097 7.84426 19.1773 6.78713L19.1587 6.7947ZM19.806 9.99491C19.806 11.5053 19.4464 12.9316 18.7272 14.2742L18.7448 14.2836C19.4656 12.9382 19.826 11.5086 19.826 9.99491H19.806ZM18.7271 14.2743C18.0319 15.6168 17.049 16.7196 15.7784 17.5826L15.7896 17.5992C17.063 16.7343 18.0481 15.629 18.7449 14.2835L18.7271 14.2743ZM15.7784 17.5826C14.5323 18.4214 13.0703 18.8409 11.392 18.8409V18.8609C13.0737 18.8609 14.5397 18.4404 15.7896 17.5992L15.7784 17.5826ZM11.392 18.8409H7.216V18.8609H11.392V18.8409ZM7.206 18.8509V26.6989H7.226V18.8509H7.206ZM7.216 26.6889H0.196V26.7089H7.216V26.6889ZM7.216 12.7409H10.924V12.7209H7.216V12.7409ZM10.924 12.7409C11.3594 12.7409 11.7578 12.5473 12.1193 12.1618L12.1047 12.1481C11.7462 12.5305 11.3526 12.7209 10.924 12.7209V12.7409ZM12.1193 12.1618C12.506 11.7509 12.698 11.0275 12.698 9.99491H12.678C12.678 11.0263 12.486 11.743 12.1047 12.1481L12.1193 12.1618ZM12.698 9.99491C12.698 8.93824 12.482 8.21442 12.0466 7.82744L12.0334 7.84239C12.462 8.22341 12.678 8.93959 12.678 9.99491H12.698ZM12.0466 7.82744C11.6134 7.44237 11.1792 7.24891 10.744 7.24891V7.26891C11.1728 7.26891 11.6026 7.45946 12.0334 7.84239L12.0466 7.82744ZM10.744 7.24891H7.216V7.26891H10.744V7.24891ZM7.206 7.25891V12.7309H7.226V7.25891H7.206ZM29.6097 20.7949L29.6195 20.7932C29.619 20.79 29.6169 20.7873 29.614 20.7859C29.6111 20.7845 29.6077 20.7846 29.6048 20.7862L29.6097 20.7949ZM30.4737 25.8349L30.4896 25.8688L30.4835 25.8332L30.4737 25.8349ZM27.7017 26.7349L27.6996 26.7251L27.6996 26.7251L27.7017 26.7349ZM20.6097 25.6549L20.6027 25.6621L20.6028 25.6622L20.6097 25.6549ZM19.1337 0.428913H25.9737V0.408913H19.1337V0.428913ZM25.9637 0.418913V19.1749H25.9837V0.418913H25.9637ZM25.9637 19.1749C25.9637 19.896 26.1109 20.4387 26.4069 20.8012C26.7033 21.1642 27.1476 21.3449 27.7377 21.3449V21.3249C27.1518 21.3249 26.714 21.1457 26.4224 20.7886C26.1305 20.4311 25.9837 19.8938 25.9837 19.1749H25.9637ZM27.7377 21.3449C28.3397 21.3449 28.9654 21.1643 29.6145 20.8037L29.6048 20.7862C28.958 21.1455 28.3356 21.3249 27.7377 21.3249V21.3449ZM29.5998 20.7966L30.4638 25.8366L30.4835 25.8332L29.6195 20.7932L29.5998 20.7966ZM30.4694 25.8259C29.6542 26.2095 28.731 26.5093 27.6996 26.7251L27.7037 26.7447C28.7364 26.5286 29.6611 26.2283 30.4779 25.844L30.4694 25.8259ZM27.6996 26.7251C26.6922 26.941 25.7329 27.0489 24.8217 27.0489V27.0689C25.7345 27.0689 26.6952 26.9608 27.7038 26.7447L27.6996 26.7251ZM24.8217 27.0489C22.9994 27.0489 21.5982 26.5814 20.6166 25.6477L20.6028 25.6622C21.5892 26.6005 22.996 27.0689 24.8217 27.0689V27.0489ZM20.6167 25.6478C19.6351 24.6901 19.1437 23.337 19.1437 21.5869H19.1237C19.1237 23.3408 19.6163 24.6997 20.6027 25.6621L20.6167 25.6478ZM19.1437 21.5869V0.418913H19.1237V21.5869H19.1437ZM29.1946 17.6269L29.2027 17.6328L29.2027 17.6327L29.1946 17.6269ZM32.0746 15.3229L32.0705 15.3138L32.0705 15.3138L32.0746 15.3229ZM40.1386 15.2149L40.1343 15.2239C40.1374 15.2254 40.141 15.2252 40.1439 15.2234C40.1468 15.2215 40.1486 15.2183 40.1486 15.2149H40.1386ZM39.3466 12.6589L39.3401 12.6665L39.3402 12.6667L39.3466 12.6589ZM33.8746 12.5509L33.878 12.5603L33.8782 12.5602L33.8746 12.5509ZM30.9946 14.0629L30.9855 14.0671C30.9867 14.0698 30.9891 14.0718 30.9919 14.0725C30.9947 14.0733 30.9977 14.0729 31.0001 14.0712L30.9946 14.0629ZM29.0146 9.81491L28.9747 9.75298L29.0055 9.81914L29.0146 9.81491ZM44.4946 9.45491L44.4881 9.46258L44.4883 9.46268L44.4946 9.45491ZM47.2666 20.5069L47.2585 20.5128L47.2588 20.5132L47.2666 20.5069ZM48.2746 20.9389H48.3751L48.2756 20.929L48.2746 20.9389ZM48.2746 26.6989L48.2846 26.7449V26.6989H48.2746ZM46.6906 26.9509L46.6896 26.9409L46.6891 26.941L46.6906 26.9509ZM42.5866 26.4109L42.5807 26.419L42.581 26.4192L42.5866 26.4109ZM41.3626 24.4309L41.3528 24.433L41.3528 24.4331L41.3626 24.4309ZM41.2186 23.7469L41.2283 23.7449C41.2275 23.741 41.2246 23.7381 41.2208 23.7372C41.217 23.7363 41.2131 23.7377 41.2107 23.7408L41.2186 23.7469ZM31.3906 26.2669L31.3859 26.2758L31.3906 26.2669ZM29.0146 24.1069L29.006 24.1122L29.0061 24.1123L29.0146 24.1069ZM39.2386 21.4429L39.2441 21.4512L39.2442 21.4512L39.2386 21.4429ZM40.1386 18.7069H40.167L40.1421 18.6975L40.1386 18.7069ZM38.8066 18.3469L38.8046 18.3567L38.8047 18.3567L38.8066 18.3469ZM35.4226 18.8149L35.4168 18.8068L35.4166 18.8069L35.4226 18.8149ZM35.2066 21.6589L35.2002 21.6666L35.2004 21.6668L35.2066 21.6589ZM28.1606 20.9749C28.1606 19.7049 28.508 18.5909 29.2027 17.6328L29.1865 17.621C28.4891 18.5829 28.1406 19.701 28.1406 20.9749H28.1606ZM29.2027 17.6327C29.8976 16.6503 30.8561 15.8834 32.0787 15.332L32.0705 15.3138C30.845 15.8664 29.8835 16.6355 29.1864 17.6211L29.2027 17.6327ZM32.0786 15.3321C33.3251 14.7807 34.7397 14.5049 36.3226 14.5049V14.4849C34.7374 14.4849 33.32 14.7611 32.0705 15.3138L32.0786 15.3321ZM36.3226 14.5049C37.8576 14.5049 39.128 14.7448 40.1343 15.2239L40.1429 15.2059C39.1331 14.7251 37.8595 14.4849 36.3226 14.4849V14.5049ZM40.1486 15.2149V14.6389H40.1286V15.2149H40.1486ZM40.1486 14.6389C40.1486 13.7489 39.8839 13.0856 39.3529 12.6512L39.3402 12.6667C39.8652 13.0962 40.1286 13.7529 40.1286 14.6389H40.1486ZM39.3531 12.6513C38.8463 12.217 38.0154 12.0009 36.8626 12.0009V12.0209C38.0138 12.0209 38.8388 12.2369 39.3401 12.6665L39.3531 12.6513ZM36.8626 12.0009C35.8054 12.0009 34.8082 12.1811 33.871 12.5416L33.8782 12.5602C34.8129 12.2007 35.8077 12.0209 36.8626 12.0209V12.0009ZM33.8711 12.5415C32.9582 12.8779 31.9975 13.3823 30.989 14.0546L31.0001 14.0712C32.0076 13.3996 32.9669 12.896 33.878 12.5603L33.8711 12.5415ZM31.0036 14.0587L29.0236 9.81069L29.0055 9.81914L30.9855 14.0671L31.0036 14.0587ZM29.02 9.82332C31.5142 8.21644 34.3563 7.41291 37.5466 7.41291V7.39291C34.3528 7.39291 31.5069 8.19739 29.0091 9.80651L29.02 9.82332ZM37.5466 7.41291C40.5452 7.41291 42.8586 8.0966 44.4881 9.46258L44.501 9.44725C42.8666 8.07723 40.548 7.39291 37.5466 7.39291V7.41291ZM44.4883 9.46268C46.1414 10.8043 46.9686 12.8051 46.9686 15.4669H46.9886C46.9886 12.8007 46.1598 10.7935 44.5009 9.44715L44.4883 9.46268ZM46.9686 15.4669V19.1389H46.9886V15.4669H46.9686ZM46.9686 19.1389C46.9686 19.7873 47.0645 20.2461 47.2585 20.5128L47.2747 20.501C47.0846 20.2398 46.9886 19.7865 46.9886 19.1389H46.9686ZM47.2588 20.5132C47.4532 20.7562 47.7924 20.9007 48.2736 20.9489L48.2756 20.929C47.7968 20.8811 47.4639 20.7376 47.2744 20.5007L47.2588 20.5132ZM48.2646 20.9389V26.6989H48.2846V20.9389H48.2646ZM48.2724 26.6891C47.7208 26.8091 47.1932 26.893 46.6896 26.941L46.6915 26.9609C47.1959 26.9128 47.7243 26.8288 48.2767 26.7087L48.2724 26.6891ZM46.6891 26.941C46.2094 27.013 45.778 27.0489 45.3946 27.0489V27.0689C45.7792 27.0689 46.2117 27.0329 46.692 26.9608L46.6891 26.941ZM45.3946 27.0489C44.1715 27.0489 43.2378 26.833 42.5921 26.4026L42.581 26.4192C43.2314 26.8528 44.1696 27.0689 45.3946 27.0689V27.0489ZM42.5925 26.4028C41.9707 25.9485 41.5639 25.2907 41.3723 24.4287L41.3528 24.4331C41.5452 25.2991 41.9544 25.9613 42.5807 26.419L42.5925 26.4028ZM41.3723 24.4289L41.2283 23.7449L41.2088 23.749L41.3528 24.433L41.3723 24.4289ZM41.2107 23.7408C39.4844 25.9466 37.3392 27.0489 34.7746 27.0489V27.0689C37.3459 27.0689 39.4967 25.9632 41.2264 23.7531L41.2107 23.7408ZM34.7746 27.0489C33.528 27.0489 32.4016 26.7852 31.3952 26.2581L31.3859 26.2758C32.3955 26.8046 33.5251 27.0689 34.7746 27.0689V27.0489ZM31.3952 26.2581C30.3887 25.7308 29.598 25.012 29.023 24.1016L29.0061 24.1123C29.5831 25.0258 30.3765 25.747 31.3859 26.2758L31.3952 26.2581ZM29.0231 24.1017C28.4481 23.1673 28.1606 22.1252 28.1606 20.9749H28.1406C28.1406 22.1287 28.429 23.1745 29.006 24.1122L29.0231 24.1017ZM39.2442 21.4512C39.8455 21.0423 40.1486 20.5957 40.1486 20.1109H40.1286C40.1286 20.5861 39.8317 21.0275 39.2329 21.4346L39.2442 21.4512ZM40.1486 20.1109V18.7069H40.1286V20.1109H40.1486ZM40.1421 18.6975C39.7574 18.5533 39.3129 18.4332 38.8084 18.3371L38.8047 18.3567C39.3083 18.4527 39.7517 18.5725 40.1351 18.7163L40.1421 18.6975ZM38.8085 18.3371C38.328 18.241 37.8954 18.1929 37.5106 18.1929V18.2129C37.8938 18.2129 38.3251 18.2608 38.8046 18.3567L38.8085 18.3371ZM37.5106 18.1929C36.6928 18.1929 35.9947 18.3974 35.4168 18.8068L35.4283 18.8231C36.0024 18.4164 36.6963 18.2129 37.5106 18.2129V18.1929ZM35.4166 18.8069C34.8624 19.2165 34.5846 19.7354 34.5846 20.3629H34.6046C34.6046 19.7424 34.8788 19.2293 35.4285 18.823L35.4166 18.8069ZM34.5846 20.3629C34.5846 20.8939 34.7899 21.3287 35.2002 21.6666L35.2129 21.6512C34.8072 21.3171 34.6046 20.8879 34.6046 20.3629H34.5846ZM35.2004 21.6668C35.6345 22.0044 36.1768 22.1729 36.8266 22.1729V22.1529C36.1804 22.1529 35.6426 21.9854 35.2127 21.651L35.2004 21.6668ZM36.8266 22.1729C37.7165 22.1729 38.5224 21.9324 39.2441 21.4512L39.233 21.4346C38.5147 21.9135 37.7126 22.1529 36.8266 22.1529V22.1729ZM59.4213 14.0269L59.4141 14.0338L59.4145 14.0342L59.4213 14.0269ZM56.1453 14.1349L56.1515 14.1428L56.1515 14.1428L56.1453 14.1349ZM54.7053 16.0789L54.6953 16.075V16.0789H54.7053ZM54.0213 10.5709H54.0113C54.0113 10.5753 54.0143 10.5792 54.0185 10.5805C54.0227 10.5818 54.0273 10.5801 54.0297 10.5764L54.0213 10.5709ZM56.8653 8.23091L56.8693 8.2401L56.8695 8.24003L56.8653 8.23091ZM65.9733 9.85091L65.9645 9.85562L65.9645 9.85562L65.9733 9.85091ZM66.7293 12.1189L66.7195 12.1204L66.7195 12.1205L66.7293 12.1189ZM66.9093 26.6889H60.0693V26.7089H66.9093V26.6889ZM60.0793 26.6989V16.0429H60.0593V26.6989H60.0793ZM60.0793 16.0429C60.0793 15.1057 59.8631 14.4304 59.4282 14.0196L59.4145 14.0342C59.8436 14.4394 60.0593 15.1081 60.0593 16.0429H60.0793ZM59.4286 14.02C59.0189 13.5862 58.5363 13.3689 57.9813 13.3689V13.3889C58.5304 13.3889 59.0078 13.6036 59.4141 14.0338L59.4286 14.02ZM57.9813 13.3689C57.4023 13.3689 56.7882 13.6222 56.1392 14.127L56.1515 14.1428C56.7985 13.6396 57.4083 13.3889 57.9813 13.3889V13.3689ZM56.1392 14.127C55.4897 14.6322 55.0087 15.2816 54.696 16.0752L54.7146 16.0826C55.026 15.2922 55.505 14.6457 56.1515 14.1428L56.1392 14.127ZM54.6953 16.0789V26.6989H54.7153V16.0789H54.6953ZM54.7053 26.6889H47.8653V26.7089H54.7053V26.6889ZM47.8753 26.6989V7.76291H47.8553V26.6989H47.8753ZM47.8653 7.77291H54.0213V7.75291H47.8653V7.77291ZM54.0113 7.76291V10.5709H54.0313V7.76291H54.0113ZM54.0297 10.5764C54.7006 9.54616 55.647 8.76738 56.8693 8.2401L56.8614 8.22173C55.6357 8.75044 54.6861 9.53167 54.013 10.5655L54.0297 10.5764ZM56.8695 8.24003C58.0919 7.68872 59.5185 7.41291 61.1493 7.41291V7.39291C59.5162 7.39291 58.0868 7.6691 56.8612 8.2218L56.8695 8.24003ZM61.1493 7.41291C62.4443 7.41291 63.4743 7.64075 64.2402 8.09551L64.2505 8.07831C63.4804 7.62107 62.4464 7.39291 61.1493 7.39291V7.41291ZM64.2402 8.09551C65.0068 8.55067 65.5815 9.13738 65.9645 9.85562L65.9822 9.84621C65.5972 9.12444 65.0199 8.53516 64.2505 8.07831L64.2402 8.09551ZM65.9645 9.85562C66.348 10.5746 66.5996 11.3296 66.7195 12.1204L66.7392 12.1174C66.6191 11.3243 66.3667 10.5672 65.9822 9.84621L65.9645 9.85562ZM66.7195 12.1205C66.8394 12.888 66.8993 13.5955 66.8993 14.2429H66.9193C66.9193 13.5943 66.8593 12.8858 66.7392 12.1174L66.7195 12.1205ZM66.8993 14.2429V26.6989H66.9193V14.2429H66.8993ZM80.6287 25.6549L80.6507 25.7066L80.6385 25.6527L80.6287 25.6549ZM77.5327 26.6989L77.5351 26.7086L77.5352 26.7086L77.5327 26.6989ZM71.4847 26.5909L71.4809 26.6001L71.4811 26.6002L71.4847 26.5909ZM69.3967 24.8629L69.3882 24.8682L69.3884 24.8685L69.3967 24.8629ZM75.8767 20.5069L75.8696 20.514L75.87 20.5143L75.8767 20.5069ZM78.1087 20.6869L78.106 20.6773L78.106 20.6773L78.1087 20.6869ZM79.4047 20.2549L79.4145 20.2527C79.4138 20.2499 79.412 20.2474 79.4094 20.2461C79.4068 20.2447 79.4038 20.2445 79.4011 20.2456L79.4047 20.2549ZM80.6248 25.6457C79.6653 26.0535 78.6338 26.4013 77.5302 26.6892L77.5352 26.7086C78.6397 26.4205 79.6721 26.0723 80.6326 25.6641L80.6248 25.6457ZM77.5303 26.6892C76.4511 26.953 75.3839 27.0849 74.3287 27.0849V27.1049C75.3856 27.1049 76.4544 26.9728 77.5351 26.7086L77.5303 26.6892ZM74.3287 27.0849C73.2978 27.0849 72.3511 26.9171 71.4883 26.5816L71.4811 26.6002C72.3464 26.9367 73.2956 27.1049 74.3287 27.1049V27.0849ZM71.4886 26.5817C70.6264 26.2225 69.932 25.6478 69.405 24.8574L69.3884 24.8685C69.9175 25.6621 70.615 26.2394 71.4809 26.6001L71.4886 26.5817ZM69.4052 24.8577C68.9025 24.0438 68.6507 22.9538 68.6507 21.5869H68.6307C68.6307 22.956 68.8829 24.0501 69.3882 24.8682L69.4052 24.8577ZM68.6507 21.5869V12.9109H68.6307V21.5869H68.6507ZM68.6407 12.9009H66.3007V12.9209H68.6407V12.9009ZM66.3107 12.9109V7.76291H66.2907V12.9109H66.3107ZM66.3007 7.77291H68.6407V7.75291H66.3007V7.77291ZM68.6507 7.76291V1.82291H68.6307V7.76291H68.6507ZM68.6407 1.83291H75.4807V1.81291H68.6407V1.83291ZM75.4707 1.82291V7.76291H75.4907V1.82291H75.4707ZM75.4807 7.77291H79.1887V7.75291H75.4807V7.77291ZM79.1787 7.76291V12.9109H79.1987V7.76291H79.1787ZM79.1887 12.9009H75.4807V12.9209H79.1887V12.9009ZM75.4707 12.9109V19.1749H75.4907V12.9109H75.4707ZM75.4707 19.1749C75.4707 19.7999 75.6028 20.2472 75.8696 20.514L75.8838 20.4998C75.6226 20.2386 75.4907 19.7979 75.4907 19.1749H75.4707ZM75.87 20.5143C76.1363 20.7564 76.4989 20.8769 76.9567 20.8769V20.8569C76.5025 20.8569 76.1451 20.7374 75.8834 20.4995L75.87 20.5143ZM76.9567 20.8769C77.2939 20.8769 77.6788 20.8167 78.1114 20.6965L78.106 20.6773C77.6746 20.7971 77.2916 20.8569 76.9567 20.8569V20.8769ZM78.1114 20.6965C78.5437 20.5765 78.976 20.4324 79.4083 20.2642L79.4011 20.2456C78.9694 20.4135 78.5377 20.5574 78.106 20.6773L78.1114 20.6965ZM79.395 20.2571L80.619 25.6571L80.6385 25.6527L79.4145 20.2527L79.395 20.2571ZM90.0194 20.7949L90.0292 20.7932C90.0287 20.79 90.0266 20.7873 90.0237 20.7859C90.0208 20.7845 90.0174 20.7846 90.0145 20.7862L90.0194 20.7949ZM90.8834 25.8349L90.8993 25.8688L90.8932 25.8332L90.8834 25.8349ZM88.1114 26.7349L88.1093 26.7251L88.1093 26.7251L88.1114 26.7349ZM81.0194 25.6549L81.0124 25.6621L81.0125 25.6622L81.0194 25.6549ZM79.5434 0.428913H86.3834V0.408913H79.5434V0.428913ZM86.3734 0.418913V19.1749H86.3934V0.418913H86.3734ZM86.3734 19.1749C86.3734 19.896 86.5206 20.4387 86.8166 20.8012C87.113 21.1642 87.5572 21.3449 88.1474 21.3449V21.3249C87.5615 21.3249 87.1237 21.1457 86.8321 20.7886C86.5402 20.4311 86.3934 19.8938 86.3934 19.1749H86.3734ZM88.1474 21.3449C88.7494 21.3449 89.3751 21.1643 90.0242 20.8037L90.0145 20.7862C89.3677 21.1455 88.7453 21.3249 88.1474 21.3249V21.3449ZM90.0095 20.7966L90.8735 25.8366L90.8932 25.8332L90.0292 20.7932L90.0095 20.7966ZM90.8791 25.8259C90.0639 26.2095 89.1407 26.5093 88.1093 26.7251L88.1134 26.7447C89.1461 26.5286 90.0708 26.2283 90.8876 25.844L90.8791 25.8259ZM88.1093 26.7251C87.1019 26.941 86.1426 27.0489 85.2314 27.0489V27.0689C86.1442 27.0689 87.1049 26.9608 88.1135 26.7447L88.1093 26.7251ZM85.2314 27.0489C83.409 27.0489 82.0078 26.5814 81.0263 25.6477L81.0125 25.6622C81.9989 26.6005 83.4057 27.0689 85.2314 27.0689V27.0489ZM81.0264 25.6478C80.0448 24.6901 79.5534 23.337 79.5534 21.5869H79.5334C79.5334 23.3408 80.026 24.6997 81.0124 25.6621L81.0264 25.6478ZM79.5534 21.5869V0.418913H79.5334V21.5869H79.5534ZM88.2298 28.6069L88.2332 28.5975C88.2302 28.5964 88.2268 28.5968 88.2241 28.5987C88.2214 28.6006 88.2198 28.6036 88.2198 28.6069H88.2298ZM93.4498 26.6989L93.4608 26.6999L93.4592 26.6955L93.4498 26.6989ZM86.5738 7.76291V7.75291C86.5705 7.75291 86.5675 7.7545 86.5656 7.75717C86.5637 7.75984 86.5633 7.76326 86.5644 7.76633L86.5738 7.76291ZM93.5938 7.76291L93.6269 7.75291H93.5938V7.76291ZM97.1938 19.6789L97.1842 19.6818C97.1855 19.6861 97.1895 19.689 97.194 19.6889C97.1986 19.6888 97.2024 19.6857 97.2035 19.6813L97.1938 19.6789ZM100.11 7.76291V7.72084L100.1 7.76054L100.11 7.76291ZM106.482 7.76291L106.491 7.76581C106.492 7.76278 106.492 7.75949 106.49 7.75695C106.488 7.75441 106.485 7.75291 106.482 7.75291V7.76291ZM100.074 28.9669L100.064 28.964L100.064 28.9641L100.074 28.9669ZM98.3098 32.1709L98.3023 32.1642L98.3022 32.1643L98.3098 32.1709ZM95.3938 34.3309L95.3897 34.3218L95.3895 34.3219L95.3938 34.3309ZM88.2298 34.4389H88.2031L88.226 34.4482L88.2298 34.4389ZM88.2263 28.6163C89.3309 29.0245 90.2681 29.2289 91.0378 29.2289V29.2089C90.2714 29.2089 89.3367 29.0053 88.2332 28.5975L88.2263 28.6163ZM91.0378 29.2289C91.7718 29.2289 92.3417 29.0183 92.746 28.5958C93.1502 28.1736 93.3876 27.541 93.4597 26.6998L93.4398 26.6981C93.3679 27.5368 93.1314 28.1642 92.7316 28.582C92.3319 28.9995 91.7678 29.2089 91.0378 29.2089V29.2289ZM93.4592 26.6955L86.5832 7.7595L86.5644 7.76633L93.4404 26.7023L93.4592 26.6955ZM86.5738 7.77291H93.5938V7.75291H86.5738V7.77291ZM93.5842 7.7658L97.1842 19.6818L97.2034 19.676L93.6034 7.76002L93.5842 7.7658ZM97.2035 19.6813L100.119 7.76529L100.1 7.76054L97.1841 19.6765L97.2035 19.6813ZM100.11 7.77291H106.482V7.75291H100.11V7.77291ZM106.472 7.76002L100.064 28.964L100.083 28.9698L106.491 7.76581L106.472 7.76002ZM100.064 28.9641C99.7046 30.1867 99.1173 31.2534 98.3023 32.1642L98.3172 32.1776C99.1343 31.2644 99.723 30.1951 100.083 28.9697L100.064 28.9641ZM98.3022 32.1643C97.4872 33.0993 96.5164 33.8184 95.3897 34.3218L95.3979 34.34C96.5272 33.8354 97.5004 33.1146 98.3173 32.1775L98.3022 32.1643ZM95.3895 34.3219C94.2629 34.8492 93.0524 35.1129 91.7578 35.1129V35.1329C93.0552 35.1329 94.2686 34.8686 95.398 34.34L95.3895 34.3219ZM91.7578 35.1129C90.5351 35.1129 89.3603 34.8852 88.2335 34.4296L88.226 34.4482C89.3552 34.9047 90.5325 35.1329 91.7578 35.1329V35.1129ZM88.2398 34.4389V28.6069H88.2198V34.4389H88.2398Z" fill="#017260"/>
</svg>
