<svg id="Слой_1" enable-background="new 0 0 300 300" height="512" viewBox="0 0 300 300" width="512" xmlns="http://www.w3.org/2000/svg"><g fill="#017260"><path d="m149.463 119.895c11.154 0 20.228-9.076 20.228-20.23s-9.074-20.228-20.228-20.228-20.23 9.074-20.23 20.228 9.076 20.23 20.23 20.23zm0-36.025c8.708 0 15.794 7.086 15.794 15.794 0 8.71-7.086 15.796-15.794 15.796-8.71 0-15.796-7.086-15.796-15.796 0-8.707 7.086-15.794 15.796-15.794z"/><path d="m149.463 109.442c5.391 0 9.775-4.386 9.775-9.777s-4.384-9.777-9.775-9.777-9.777 4.386-9.777 9.777 4.386 9.777 9.777 9.777zm0-15.121c2.945 0 5.341 2.397 5.341 5.343 0 2.947-2.397 5.343-5.341 5.343-2.947 0-5.343-2.397-5.343-5.343s2.396-5.343 5.343-5.343z"/><path d="m279.79 242.742-50.745-79.898c-5.198-8.185-13.9-12.856-22.947-13.341l-21.224-33.416c3.86-8.279 4.986-17.89 2.53-27.403-.013-.05-.031-.096-.044-.146 30.293-39.53 6.061-74.264 5.81-74.614-.526-.734-1.442-1.072-2.321-.862-.877.212-1.539.933-1.674 1.825-.049.336-5.227 33.242-25.609 46.346-5.167-2.152-10.831-3.273-16.699-3.136-19.271-41.548-58.031-36.806-58.422-36.761-.628.087-1.189.435-1.544.959-.353.526-.465 1.176-.307 1.791l21.553 83.94.069.351c.043.238.089.476.152.71.863 3.343 2.128 6.476 3.714 9.376l-19.719 31.044c-9.046.487-17.747 5.156-22.944 13.337l-50.745 79.898c-4.146 6.526-5.501 14.277-3.817 21.822 1.682 7.545 6.205 13.982 12.731 18.126 4.696 2.983 10.026 4.523 15.459 4.523 2.115 0 4.246-.234 6.361-.706 7.545-1.682 13.982-6.205 18.126-12.731l50.747-79.9c4.168-6.56 5.514-14.348 3.793-21.928-.377-1.656-.913-3.245-1.553-4.781l6.569-10.343c7.126 2.802 14.642 4.239 22.375 4.239 7.597 0 14.985-1.387 22.004-4.093l6.476 10.196c-.64 1.535-1.177 3.125-1.553 4.781-1.721 7.578-.375 15.366 3.793 21.928l50.747 79.9c4.144 6.526 10.581 11.048 18.126 12.731 2.115.472 4.246.706 6.361.706 5.432 0 10.763-1.539 15.459-4.523 6.526-4.144 11.048-10.581 12.731-18.126s.327-15.296-3.819-21.821zm-87.4-221.384c5.022 10.014 13.109 34.259-6.76 62.09-3.502-8.569-9.742-15.508-17.516-19.948 15.301-11.252 21.88-32.014 24.276-42.142zm-100.843 4.187c8.589-.329 36.726 1.461 51.893 35.73.372.849 1.228 1.36 2.167 1.316 5.862-.375 11.522.703 16.635 2.904.313.26.679.414 1.073.474 9.011 4.229 16.121 12.083 19.241 22.01-.123.677.08 1.369.57 1.89 2.17 8.487 1.218 17.269-2.619 25.047-.023.031-.032.068-.053.1-.392.789-.781 1.578-1.233 2.345-4.934 8.372-12.835 14.32-22.244 16.749-9.407 2.425-19.198 1.05-27.57-3.888-8.372-4.934-14.32-12.835-16.749-22.251-.035-.132-.058-.266-.082-.398-.035-.191-.071-.381-.126-.611zm56.344 114.158c3.367 0 6.788-.42 10.195-1.301.452-.117.878-.283 1.324-.414l3.933 6.192c-9.124 2.837-19.055 2.793-28.148-.121l3.46-5.448c2.999.702 6.091 1.092 9.236 1.092zm-33.353 51.796-50.747 79.9c-3.51 5.525-8.961 9.355-15.35 10.78-6.385 1.427-12.949.277-18.477-3.23-5.525-3.51-9.355-8.961-10.78-15.353-1.427-6.389-.279-12.951 3.23-18.477l50.745-79.898c4.655-7.329 12.622-11.349 20.75-11.349 4.43 0 8.907 1.193 12.919 3.7 5.584 3.486 9.461 8.94 10.921 15.359 1.457 6.419.316 13.012-3.211 18.568zm-5.363-37.69c-3.658-2.284-7.645-3.614-11.681-4.114l17.211-27.095c4.884 6.818 11.733 11.932 19.523 14.714l-16.092 25.338c-2.277-3.524-5.293-6.552-8.961-8.843zm40.288 2.821c-6.885 0-13.584-1.221-19.956-3.615l3.242-5.104c5.367 1.867 10.971 2.861 16.714 2.861 5.603 0 11.08-.948 16.334-2.727l3.25 5.117c-6.261 2.302-12.835 3.468-19.584 3.468zm25.112-3.034c-.025-.09-.018-.182-.055-.27-.142-.337-.372-.598-.634-.816l-10.193-16.049c7.93-3.332 14.379-8.982 18.74-15.952l18.535 29.182c-4.035.502-8.022 1.832-11.68 4.117-3.668 2.291-6.684 5.319-8.961 8.844zm104.704 110c-1.425 6.391-5.255 11.843-10.78 15.353-5.525 3.507-12.085 4.659-18.477 3.23-6.389-1.425-11.841-5.255-15.35-10.78l-50.747-79.9c-3.529-5.556-4.668-12.15-3.211-18.57 1.459-6.417 5.337-11.871 10.921-15.357 4.014-2.507 8.489-3.7 12.919-3.7 8.126 0 16.095 4.023 20.75 11.349l50.745 79.898c3.509 5.525 4.657 12.088 3.23 18.477z"/></g></svg>