<svg id="Слой_1" enable-background="new 0 0 300 300" height="512" viewBox="0 0 300 300" width="512" xmlns="http://www.w3.org/2000/svg"><g fill="#017260"><path d="m162.676 153.593h-32.054v-125.978c0-11.367-9.247-20.615-20.615-20.615s-20.615 9.248-20.615 20.615v125.978h-32.066c-1.241 0-2.257.989-2.291 2.23-.022.881-1.68 88.681 53.505 134.67.092.077.201.112.301.172.103.062.196.131.306.175.264.107.537.172.815.177.012 0 .022.007.034.007.002 0 .003-.001.004-.001.002 0 .003.001.004.001.012 0 .022-.007.034-.007.278-.006.551-.07.815-.177.11-.044.203-.113.306-.175.1-.06.209-.095.301-.172 55.185-45.988 53.527-133.788 53.505-134.67-.032-1.241-1.048-2.23-2.289-2.23zm-68.702-125.978c0-8.841 7.194-16.034 16.034-16.034s16.034 7.193 16.034 16.034v158.045c0 10.634-8.558 36.648-16.034 36.648-7.475 0-16.034-26.014-16.034-36.648zm16.027 258.062c-47.176-40.78-50.243-113.825-50.387-127.503h29.779v27.486c0 10.278 8.325 41.229 20.615 41.229s20.615-30.951 20.615-41.229v-27.486h29.768c-.141 13.672-3.181 86.696-50.39 127.503z"/><path d="m238.276 224.599h-22.905v-28.067c0-.206-.066-.39-.117-.579 8.055-2.806 13.86-10.456 13.86-19.455v-148.883c0-11.367-9.247-20.615-20.614-20.615s-20.615 9.248-20.615 20.615v148.884c0 8.999 5.805 16.649 13.86 19.455-.051.19-.117.374-.117.579v28.067h-22.905c-3.789 0-6.872 3.082-6.872 6.872v54.972c0 3.789 3.082 6.872 6.872 6.872s6.872-3.082 6.872-6.872v-48.101h16.034v48.101c0 3.789 3.082 6.872 6.872 6.872 3.789 0 6.872-3.082 6.872-6.872v-48.101h16.034v48.101c0 3.789 3.082 6.872 6.872 6.872 3.789 0 6.872-3.082 6.872-6.872v-54.972c-.003-3.791-3.086-6.873-6.875-6.873zm-45.81-48.101v-148.883c0-8.841 7.194-16.034 16.034-16.034s16.034 7.193 16.034 16.034v148.884c0 8.841-7.194 16.034-16.034 16.034-8.84-.001-16.034-7.194-16.034-16.035zm48.101 109.945c0 1.263-1.027 2.291-2.291 2.291s-2.291-1.028-2.291-2.291v-50.391c0-1.265-1.024-2.291-2.291-2.291h-20.615c-1.266 0-2.291 1.026-2.291 2.291v50.391c0 1.263-1.027 2.291-2.291 2.291s-2.291-1.028-2.291-2.291v-50.391c0-1.265-1.024-2.291-2.291-2.291h-20.615c-1.266 0-2.291 1.026-2.291 2.291v50.391c0 1.263-1.027 2.291-2.291 2.291s-2.291-1.028-2.291-2.291v-54.972c0-1.263 1.027-2.291 2.291-2.291h25.196c1.266 0 2.291-1.026 2.291-2.291v-29.912c.753.084 1.515.135 2.291.135.775 0 1.538-.051 2.291-.135v29.912c0 1.265 1.024 2.291 2.291 2.291h25.196c1.264 0 2.291 1.028 2.291 2.291v54.972z"/></g></svg>