<svg clip-rule="evenodd" fill-rule="evenodd" height="512" image-rendering="optimizeQuality" shape-rendering="geometricPrecision" text-rendering="geometricPrecision" viewBox="0 0 43.3492 43.3492" width="512" xmlns="http://www.w3.org/2000/svg"><g id="Layer_x0020_1" fill='#017260'><path d="m21.6748 8.279c-7.3867 0-13.3961 6.0094-13.3961 13.3958.0002 7.3863 6.0093 13.3957 13.3959 13.3957 7.3858-.0001 13.3949-6.0093 13.3949-13.3957.0001-7.3865-6.0093-13.3957-13.3947-13.3958zm0 27.5519c-7.8065 0-14.1565-6.3504-14.1565-14.1561.0002-7.8059 6.3499-14.1562 14.1563-14.1562 7.8055 0 14.1554 6.3504 14.1554 14.1562 0 7.8057-6.35 14.1561-14.1552 14.1561z"/><path d="m21.8064 6.6114c-.2109 0-.3813-.1706-.3813-.3812l.0002-5.849c0-.2105.1701-.3812.381-.3812.21 0 .3812.1707.3812.3812l.0001 5.8489c0 .2107-.1714.3813-.3812.3813z"/><path d="m25.7988 7.1719c-.0328 0-.0655-.0042-.0992-.0131-.2029-.0545-.3238-.2635-.2693-.4669l.917-3.4215c.0543-.2034.2632-.3241.4672-.2695.2031.0545.3238.2636.2693.467l-.9168 3.4212c-.0454.1705-.2001.2828-.3682.2828z"/><path d="m29.51 8.7465c-.0644 0-.13-.0164-.1903-.0511-.1823-.1054-.2446-.3384-.1397-.5208l2.925-5.0654c.1051-.1823.3386-.2447.5208-.1395.1823.1052.2445.3385.1396.5208l-2.9248 5.0654c-.0702.1221-.1992.1906-.3306.1906z"/><path d="m32.6882 11.228c-.0969 0-.1951-.0371-.2694-.1115-.1494-.149-.1495-.3903 0-.5392l2.5042-2.5046c.1495-.1488.3901-.1489.5396 0 .1486.149.1485.3902 0 .5392l-2.5051 2.5045c-.0741.0744-.1713.1117-.2693.1116z"/><path d="m35.1161 14.4477c-.1316 0-.2605-.0682-.3308-.1905-.1049-.1824-.0425-.4156.1396-.5209l5.0658-2.9245c.1822-.1052.4148-.0428.5197.1395.1061.1824.0436.4156-.1386.5209l-5.0656 2.9244c-.0604.0346-.1258.0512-.1901.0511z"/><path d="m36.6262 18.1859c-.1685 0-.322-.1122-.3675-.2826-.0543-.2034.0654-.4124.2693-.4669l3.421-.9168c.2041-.0545.4129.0663.4674.2695.0546.2034-.0664.4125-.2694.467l-3.4219.9167c-.0325.0088-.0664.0132-.0989.0131z"/><path d="m42.9682 22.1876h-5.849c-.211 0-.3813-.1706-.3813-.3812.0001-.2105.1703-.3812.3813-.3812l5.849-.0001c.2099 0 .381.1708.381.3813.0002.2105-.1713.3812-.381.3812z"/><path d="m39.9798 27.0973c-.0326 0-.0654-.0041-.0991-.013l-3.4209-.9168c-.203-.0546-.3239-.2635-.2695-.4669.0547-.2034.2635-.3242.4664-.2696l3.4222.9168c.203.0544.3236.2635.2691.4669-.0454.1704-.2.2827-.3682.2826z"/><path d="m40.0491 32.8168c-.0653 0-.1308-.0165-.1902-.0511l-5.0656-2.9245c-.1822-.1053-.2446-.3384-.1397-.5208.1052-.1822.3387-.2446.5208-.1395l5.0658 2.9245c.1823.1051.2445.3384.1395.5208-.0711.1222-.199.1907-.3306.1906z"/><path d="m35.0072 35.5746c-.098 0-.1951-.0371-.2704-.1115l-2.504-2.5048c-.1494-.1489-.1496-.3901-.0001-.5391.1485-.149.3901-.1489.5386 0l2.5052 2.5046c.1486.149.1485.3904 0 .5393-.0741.0744-.1723.1116-.2693.1115z"/><path d="m32.207 40.5628c-.1317 0-.2595-.0683-.3298-.1911l-2.9249-5.0651c-.1049-.1824-.0426-.4155.1396-.5208.1823-.1051.4159-.0429.5208.1395l2.9251 5.0651c.105.1823.0424.416-.1398.5209-.0602.0347-.1257.0515-.191.0515z"/><path d="m26.4611 40.4301c-.1682 0-.3229-.1128-.3684-.2831l-.9169-3.4212c-.0543-.2035.0664-.4125.2703-.4669.2032-.0545.412.0662.4664.2695l.9169 3.4215c.0545.203-.0664.4129-.2694.4674-.0334.0078-.0663.0128-.0989.0128z"/><path d="m21.5431 43.3491c-.211 0-.3814-.1703-.3814-.3812v-5.8486c0-.2105.1703-.3812.3812-.3812.2101 0 .3812.1707.3812.3812l.0002 5.8486c0 .2108-.1715.3812-.3812.3812z"/><path d="m16.6338 40.3618c-.0328 0-.0665-.0039-.0991-.0129-.2039-.0545-.3248-.2633-.2704-.4673l.9171-3.4213c.0543-.2034.2632-.324.4672-.2695.2031.0545.3238.2635.2693.4669l-.9167 3.4208c-.0457.1714-.2002.2833-.3674.2833z"/><path d="m10.9135 40.4311c-.0653 0-.1307-.0168-.1901-.0514-.1831-.1051-.2455-.3387-.1396-.5209l2.9241-5.0651c.1049-.1823.3385-.2447.5207-.1395s.2446.3385.1396.5208l-2.925 5.065c-.0701.1227-.198.1912-.3297.1911z"/><path d="m8.1561 35.3884c-.098 0-.1952-.037-.2705-.1115-.1483-.1489-.1485-.3903 0-.5392l2.5053-2.5047c.1485-.1489.39-.1488.5385.0001.1496.1489.1495.3902 0 .5391l-2.504 2.5047c-.0744.0745-.1724.1116-.2693.1115z"/><path d="m3.1686 32.5888c-.1326 0-.2605-.0683-.3308-.1906-.1059-.1823-.0426-.4155.1396-.5208l5.0648-2.9245c.1832-.1052.4157-.0428.5207.1396.106.1823.0436.4156-.1396.5208l-5.0647 2.9244c-.0604.0346-.1258.0511-.19.0511z"/><path d="m3.3002 26.843c-.1682 0-.3228-.1123-.3684-.2826-.0544-.2034.0664-.4125.2704-.4669l3.4211-.9168c.2039-.0545.4127.0662.4672.2696.0546.2034-.0663.4125-.2703.467l-3.4208.9167c-.0328.0088-.0666.013-.0992.013z"/><path d="m6.2301 21.9243h-5.8488c-.211 0-.3813-.1705-.3813-.3811.0001-.2106.1702-.3812.3812-.3812h5.8489c.2099 0 .3811.1707.3811.3812.0001.2105-.1712.3812-.3811.3811z"/><path d="m6.7906 17.9316c-.0327 0-.0664-.0041-.0991-.013l-3.422-.9168c-.203-.0546-.3238-.2636-.2693-.4669.0545-.2036.2633-.3243.4673-.2697l3.4212.9169c.2038.0545.3236.2635.2701.4669-.0465.1704-.2.2827-.3682.2826z"/><path d="m8.364 14.2198c-.0644 0-.1299-.0164-.1903-.051l-5.0646-2.9246c-.1832-.1053-.2456-.3384-.1397-.5207.1052-.1823.3387-.2449.5209-.1396l5.0648 2.9245c.1831.1052.2454.3384.1395.5207-.0702.1223-.1981.1907-.3306.1907z"/><path d="m10.8462 11.042c-.0969 0-.1951-.0372-.2693-.1117l-2.505-2.5046c-.1486-.1489-.1487-.3902-.0001-.5391.1496-.149.3911-.1489.5396 0l2.5042 2.5045c.1495.149.1494.3904-.0001.5392-.0741.0745-.1713.1117-.2693.1117z"/><path d="m14.0664 8.6148c-.1319 0-.2596-.0682-.3309-.1906l-2.9238-5.0654c-.106-.1824-.0427-.4154.1394-.5208.1823-.1052.4149-.0427.5209.1396l2.9241 5.0654c.1058.1823.0424.4155-.1398.5209-.0594.0346-.1258.051-.1899.0509z"/><path d="m17.8041 7.1037c-.1682 0-.3228-.1122-.3684-.2825l-.9169-3.4216c-.0543-.2033.0663-.4124.2693-.4668.2041-.0545.413.0662.4674.2696l.9171 3.4214c.0543.2033-.0665.4124-.2695.467-.0335.0088-.0664.0129-.099.0129z"/><path d="m19.5409 30.445c1.807.6978 3.81.8164 5.7022.3093 4.9004-1.313 7.8184-6.3675 6.5054-11.2673-.796-2.9711-3.0032-5.3041-5.834-6.2992 1.3676 1.2657 2.3565 2.8952 2.8467 4.7251.6892 2.5697.3357 5.2538-.9951 7.5578-1.3297 2.3039-3.4775 3.952-6.0479 4.6406-.7187.1926-1.4467.304-2.1773.3337zm3.3318 1.3809c-1.8663 0-3.719-.5229-5.3221-1.5328-.1513-.0959-.2159-.285-.1535-.4535.0625-.1686.2347-.2698.4119-.2444 1.2427.1823 2.4913.1088 3.7131-.2184 2.3736-.6361 4.3567-2.1583 5.5855-4.2864 1.2289-2.1281 1.5556-4.6072.9189-6.9808-.601-2.2443-2.014-4.1621-3.9795-5.4005-.1524-.0958-.2168-.285-.1545-.4535.0625-.1686.2347-.2699.412-.2444 3.9389.578 7.1489 3.4354 8.1787 7.2791 1.421 5.3047-1.7377 10.777-7.043 12.1985-.8436.2259-1.7071.3371-2.5675.3371z"/></g></svg>