<svg id="Слой_1" enable-background="new 0 0 300 300" height="512" viewBox="0 0 300 300" width="512" xmlns="http://www.w3.org/2000/svg"><g fill='#017260'><path d="m244.016 80.999c2.059 2.071 5.501-1.103 3.322-3.301-5.094-5.122-10.635-9.87-16.469-14.111-1.049-.762-2.509-.528-3.268.517-.762 1.046-.531 2.509.516 3.27 5.631 4.095 10.982 8.678 15.899 13.625z"/><path d="m213.481 58.143c2.349 1.272 4.696 2.637 6.971 4.059.726.452 1.669.469 2.411.039 1.504-.87 1.537-3.092.067-4.011-2.357-1.472-4.787-2.886-7.22-4.204-1.145-.615-2.56-.19-3.172.943-.617 1.137-.192 2.558.943 3.174z"/><path d="m166.853 43.303c14.036 1.69 27.62 5.614 40.37 11.659.842.398 1.867.253 2.563-.37 1.23-1.1.93-3.154-.557-3.859-13.21-6.264-27.279-10.327-41.818-12.078-1.265-.163-2.451.761-2.603 2.044-.154 1.284.76 2.449 2.045 2.604z"/><path d="m20.576 77.57 16.775 11.062c4.932 3.252 10.591 4.894 16.269 4.892 4.872 0 9.759-1.208 14.211-3.643l81.66-45.137c7.072-4.28 9.993-7.121 7.469-11.684-6.337-11.456-28.579-8.818-38.092-3.616l-30.57 16.717-27.193-5.71c-1.261-.269-2.505.545-2.772 1.809-.265 1.265.545 2.506 1.809 2.772l28.04 5.888c.163.034 1.558-.214 1.604-.239l18.597-10.17c.022.046.02.097.045.142 0 0 5.246 9.469 5.255 9.486 1.443 2.605 5.577.405 4.094-2.268l-5.255-9.486c-.02-.037-.057-.058-.079-.094l5.488-3.001c.022.046.02.097.045.142 0 0 5.246 9.47 5.255 9.486 1.413 2.55 5.587.423 4.094-2.268l-5.255-9.486c-.013-.023-.036-.035-.049-.057 9.189-4.476 26.654-5.352 30.847 2.22.256.465-.251 2.056-5.719 5.367l-81.573 45.086c-8.114 4.431-17.936 4.028-25.648-1.056l-16.295-10.745-3.193-5.766 26.1 5.48c.546.113 1.115.029 1.605-.237l18.303-10.013s12.303 8.099 12.304 8.1c1.085.714 2.61.376 3.285-.735.387-.638.537-3.176-.71-3.176 0 0-33.688-22.176-33.688-22.176l-1.908-3.446 8.015 1.682c1.263.269 2.506-.543 2.772-1.809.265-1.266-.545-2.506-1.809-2.772l-13.023-2.732c-.899-.184-1.821.164-2.364.9-.543.738-.608 1.723-.164 2.524 0 0 5.112 9.038 5.427 9.246l17.437 11.479-15.365 8.406-30.261-6.354c-.902-.187-1.821.165-2.364.9-.543.736-.608 1.723-.164 2.524 0 .001 6.393 11.358 6.708 11.566z"/><path d="m268.023 240.15c12.044-20.512 18.42-43.912 18.42-67.802 0-32.225-11.633-63.405-32.752-87.798-.851-.982-2.326-1.082-3.301-.237-.978.846-1.084 2.324-.239 3.3 20.385 23.544 31.609 53.635 31.609 84.735 0 22.481-5.886 44.494-16.954 63.929-8.4-9.778-17.962-18.387-28.421-25.679-.975-11.934-1.595-41.312 10.25-77.941l6.965-7.172c.536-.552.767-1.333.617-2.087-.093-.47-.361-.855-.694-1.18.641-1.993.618-4.119-.162-6.094-.601-1.522-1.603-2.797-2.859-3.783l2.938-6.744c.516-1.185-.025-2.564-1.211-3.08-1.181-.508-2.562.025-3.08 1.211l-2.945 6.759c-3.71-.552-7.448 1.221-9.319 4.558-.467-.023-.933.043-1.338.297-.65.401-1.064 1.095-1.107 1.856l-.571 9.908c-18.834 33.705-40.168 52.931-49.317 60.209-11.576-2.774-23.579-4.223-35.8-4.223-12.299 0-24.362 1.461-35.986 4.253 0 0-5.243-13.68-5.25-13.696.018.044.853-.795.921-.882.443-.571.49-1.348.239-2.022 0 0-2.172-5.668-2.18-5.688.041.106 2.126-.863 2.319-1.008.839-.629 1.192-1.689.808-2.688l-9.089-23.714c-.463-1.208-1.818-1.807-3.023-1.347-1.206.462-1.809 1.816-1.347 3.023l8.247 21.518-31.331 11.853-11.92-31.11 31.33-11.857 1.126 2.939c.462 1.209 1.822 1.808 3.022 1.348 1.208-.462 1.811-1.816 1.348-3.022l-1.96-5.117c-.461-1.204-1.816-1.808-3.013-1.352l-2.549.965-5.142-5.169c-.651-.654-1.628-.866-2.487-.538l-2.2.832-11.214-10.822-4.009-10.463c-.462-1.209-1.821-1.809-3.022-1.348-1.208.462-1.811 1.816-1.348 3.022l4.005 10.455s-1.191 15.503-1.191 15.505c-.006.08-1.793.703-2.002.845-.591.4-.959 1.073-.997 1.785l-.381 7.248s-3.166 1.198-3.168 1.199c-1.194.452-1.817 1.834-1.357 3.026 0 0 13.584 35.455 13.594 35.48.352.917 1.263 1.488 2.234 1.489.875.001 1.763-.509 2.568-.814 0 0 2.186 5.705 2.188 5.71.436 1.136 1.656 1.706 2.803 1.39l4.953 12.929c-18.479 8.549-35.129 20.744-48.905 35.955-9.962-18.649-15.285-39.591-15.285-60.855 0-27.164 8.345-53.183 24.132-75.246.752-1.051.509-2.514-.541-3.266-1.051-.753-2.514-.508-3.266.541-16.358 22.863-25.005 49.825-25.005 77.971 0 22.628 5.779 44.929 16.65 64.642-6.923 8.173-13.053 17.139-18.221 26.83-1.403 2.631 2.7 4.887 4.129 2.202 2.597-4.869 5.453-9.543 8.526-14.028 1.411-.717 6.408-2.982 10.437-1.345 2.414.978 4.166 3.314 5.211 6.946 2.672 9.296 13.443 14.537 23.28 14.537 1.342 0 2.668-.098 3.951-.296 6.97-1.075 11.212-5.108 11.071-10.525-.17-6.535 2.41-12.35 6.42-14.47 3.546-1.877 8.142-.91 13.287 2.796 4.495 3.237 9.778 2.99 14.488-.677 6.257-4.876 11.005-16.017 7.991-23.63-1.155-2.919-4.468-7.705-13.66-6.84-1.288.118-2.235 1.258-2.115 2.545.119 1.288 1.28 2.255 2.545 2.115 4.698-.422 7.683.88 8.879 3.903 2.006 5.068-1.221 14.089-6.516 18.214-3.083 2.404-6.066 2.594-8.876.57-8.446-6.08-14.563-5.06-18.208-3.135-5.633 2.978-9.131 10.329-8.914 18.73.11 4.208-4.932 5.442-7.104 5.777-8.545 1.324-19.698-2.835-22.02-10.908-1.464-5.097-4.148-8.462-7.977-10.002-2.536-1.022-5.189-1.053-7.547-.684 10.98-14.325 24.394-26.369 39.494-35.701-.161 1.413.029 2.651.414 3.633 3.601 9.197 23.075 9.995 28.968 10.021 1.288 0 2.335-1.041 2.34-2.33.006-1.293-1.037-2.345-2.33-2.35-15.045-.066-23.309-3.699-24.62-7.048-.827-2.109 1.163-4.634 3.061-6.441 21.196-11.37 45.244-17.628 70.303-17.628 5.942 0 11.826.374 17.636 1.065 1.769 1.216 8.224 6.067 9.266 12.755.622 4.002-.833 8.1-4.327 12.176-5.729 6.684-7.469 14.394-4.231 18.748 1.125 1.516 4.52 4.697 11.73 1.506 1.224-.543 1.933-.496 2.108-.33.3.281.66 1.694-.213 4.071-1.859 5.057-7.908 11.153-18.84 11.688-7.458.364-9.043 4.181-9.324 6.424-.8 6.379 7.472 15.184 17.018 18.119 2.199.676 4.322 1.007 6.344 1.007 6.763 0 12.408-3.711 15.984-10.72 4.213-8.248 9.813-8.359 19.343-5.589 1.249.362 2.54-.354 2.9-1.594.361-1.242-.353-2.541-1.595-2.901-8.749-2.545-18.599-4.232-24.818 7.956-4.563 8.949-11.636 8.948-16.781 7.367-8.18-2.514-14.173-9.702-13.751-13.062.231-1.831 3.174-2.246 4.909-2.331 13.218-.646 20.654-8.35 23.005-14.748 1.399-3.812 1.034-7.213-.98-9.102-1.006-.943-3.286-2.264-7.202-.535-1.371.608-4.713 1.822-6.08-.018-1.356-1.825-1.003-7.037 4.03-12.91 4.434-5.173 6.247-10.547 5.391-15.973-.694-4.397-3.048-8.037-5.481-10.767 39.949 7.085 75.446 30.259 97.862 64.404-11.27 6.546-22.502 8.735-35.158 6.731-1.277-.198-2.473.67-2.677 1.947s.668 2.475 1.945 2.678c3.223.509 6.387.766 9.498.766 10.072 0 19.61-2.734 28.905-8.153 1.254 2.049 2.479 4.122 3.638 6.245.622 1.135 2.044 1.553 3.177.931 1.135-.62 1.552-2.042.932-3.176-4.348-7.942-9.346-15.384-14.898-22.297zm-198.652-123.899 6.419 6.194-7.101 2.686zm-3.922 15.112 17.622-6.667 2.595 2.609-20.409 7.724zm36.667 35.35 1.346 3.513-23.395 8.853-1.347-3.515zm-18.391 15.985 19.428-7.351 5.049 13.174c-6.717 1.834-13.276 4.112-19.634 6.82zm160.285-54.058-5.409-2.331.317-5.504 8.957 3.856zm2.619-13.242c1.097.472 1.943 1.342 2.38 2.447.295.744.362 1.535.236 2.31l-7.916-3.409c1.226-1.555 3.391-2.169 5.3-1.348zm-9.475 15.384 4.556 1.963c-10.555 33.428-10.988 60.811-10.233 74.558-2.207-1.415-6.737-4.23-6.739-4.282-.185-6.198-4.144-11.858-10.089-14.422-5.709-2.456-12.423-1.492-17.262 2.409-2.393-.799-4.803-1.552-7.24-2.233 10.282-8.628 29.615-27.351 47.007-57.993zm-17.561 69.65c-5.366-2.795-10.9-5.28-16.58-7.427 3.072-1.364 6.641-1.459 9.785-.107 3.366 1.453 5.825 4.263 6.795 7.534z"/><path d="m231.351 259.955c-3.901-.959-7.512-2.122-11.176-3.328-1.227-.408-2.552.264-2.953 1.492-.406 1.227.262 2.55 1.491 2.955 3.604 1.187 11.898 3.496 12.083 3.496 1.051 0 2.009-.715 2.27-1.783.306-1.255-.46-2.524-1.715-2.832z"/><path d="m151.352 205.504c-3.521-5.52-13.193-9.19-21.446-5.635-3.63 1.564-4.41 3.824-4.425 5.445-.046 4.834 6.692 8.266 8.757 9.203 2.879 1.305 6.481 2.338 9.752 2.338 2.435 0 4.687-.573 6.321-2.03 2.745-2.453 3.144-6.023 1.041-9.321zm-4.16 5.828c-1.632 1.46-6.473.985-11.021-1.079-4.261-1.931-6.016-4.141-6.01-4.895.003-.196.437-.691 1.596-1.19 6.416-2.76 13.435.385 15.648 3.852 1.269 1.991.23 2.918-.213 3.312z"/><path d="m210.327 181.034s12.798 5.512 12.802 5.513c1.477.636 3.223-.457 3.266-2.085.003-.099.3-9.981 2.484-18.532.284-1.116-.284-2.273-1.343-2.729l-3.121-1.343c-1.044-.452-2.273-.084-2.892.884-4.782 7.431-11.837 14.404-11.908 14.474-.556.546-.802 1.333-.66 2.1.143.765.658 1.409 1.372 1.718zm13.279-13.038c-1.006 4.938-1.483 9.802-1.707 12.925l-6.613-2.848c2.144-2.3 5.387-5.973 8.32-10.077z"/><path d="m227.87 158.223c1.07.474 2.44.258 3.047-1.134l4.183-9.593c.516-1.185-.025-2.565-1.211-3.082-1.181-.513-2.565.027-3.08 1.21 0 0-4.171 9.567-4.183 9.593-.597 1.367.173 2.532 1.244 3.006z"/><path d="m81.88 164.867c1.561 0 3.146-.277 4.688-.86 3.315-1.255 5.937-3.72 7.382-6.943 1.437-3.204 1.538-6.774.282-10.054-2.599-6.777-10.26-10.192-17.074-7.616-3.313 1.252-5.934 3.717-7.38 6.938-1.437 3.205-1.538 6.778-.281 10.058v.001c2.011 5.245 7.049 8.476 12.383 8.476zm-7.83-16.618c.932-2.077 2.623-3.667 4.764-4.476 4.411-1.668 9.368.537 11.048 4.913.806 2.108.742 4.403-.182 6.463-.933 2.079-2.626 3.67-4.768 4.481-4.412 1.671-9.367-.535-11.044-4.914v.001c-.807-2.11-.744-4.407.182-6.468z"/><path d="m79.534 154.783c.276 0 4.078-1.383 4.078-1.383.583-.221 1.054-.664 1.308-1.232.255-.569.273-1.215.05-1.795l-1.625-4.236c-.463-1.209-1.818-1.807-3.023-1.347-1.208.463-1.811 1.817-1.347 3.023l.783 2.042-1.051.397c-1.21.458-1.818 1.808-1.361 3.017.353.938 1.243 1.514 2.188 1.514z"/><path d="m134.445 115.222c0 3.12.998 6.079 2.885 8.561 1.781 2.342 5.589-.383 3.725-2.834-1.262-1.66-1.93-3.639-1.93-5.727 0-5.249 4.304-9.521 9.595-9.521 4.698 0 8.677 3.328 9.462 7.913.216 1.275 1.448 2.126 2.699 1.912 1.275-.218 2.131-1.427 1.912-2.702-1.168-6.84-7.088-11.804-14.074-11.804-7.87.001-14.274 6.371-14.274 14.202z"/><path d="m151.767 95.391v-6.499c0-1.293-1.048-2.34-2.34-2.34s-2.34 1.048-2.34 2.34v6.499c0 1.293 1.048 2.34 2.34 2.34s2.34-1.048 2.34-2.34z"/><path d="m118.754 114.881c0 1.293 1.048 2.34 2.34 2.34h8.719c1.293 0 2.34-1.048 2.34-2.34s-1.048-2.34-2.34-2.34h-8.719c-1.293 0-2.34 1.048-2.34 2.34z"/><path d="m162.787 103.581c.555.029 1.136-.166 1.651-.678l5.178-5.146c.917-.91.919-2.392.01-3.309-.912-.918-2.395-.923-3.311-.01 0 0-5.154 5.123-5.178 5.146-1.604 1.594-.101 3.907 1.65 3.997z"/><path d="m129.36 136.809c.553.025 1.132-.172 1.65-.687l5.295-5.261c.917-.912.922-2.393.011-3.31-.912-.918-2.393-.922-3.31-.011 0 0-5.276 5.242-5.295 5.261-1.6 1.588-.109 3.927 1.649 4.008z"/><path d="m134.655 103.562c1.753-.097 3.315-2.323 1.65-3.978l-5.414-5.379c-.917-.91-2.396-.907-3.31.011-.91.917-.905 2.399.011 3.31 0 0 5.399 5.363 5.414 5.379.503.499 1.086.688 1.649.657z"/><path d="m173.895 114.606c-5.899-.875-11.57 1.525-14.965 6.187-2.486-.556-5.033-.333-7.469.676-3.941 1.637-6.826 5.2-7.528 9.297-.626 3.654.372 7.358 2.736 10.162 2.385 2.828 5.878 4.449 9.584 4.449h15.252c4.454 0 8.703-1.905 11.656-5.224 2.925-3.291 4.31-7.702 3.791-12.103-.796-6.781-6.287-12.435-13.057-13.444zm5.767 22.436c-2.065 2.322-5.038 3.654-8.157 3.654h-15.252c-2.324 0-4.513-1.016-6.006-2.786-1.494-1.774-2.099-4.03-1.7-6.355.433-2.529 2.237-4.737 4.707-5.763.995-.411 3.338-.581 3.506-.569-.388 1.162-.692 2.36-.778 3.633-.086 1.29.889 2.406 2.179 2.493 1.277.095 2.407-.888 2.494-2.178.259-3.862 2.699-7.392 6.193-9.028 1.972-.923 4.206-1.229 6.357-.908 4.718.703 8.545 4.64 9.102 9.361.365 3.12-.575 6.119-2.645 8.446z"/></g></svg>