<svg id="Слой_1" enable-background="new 0 0 300 300" height="512" viewBox="0 0 300 300" width="512" xmlns="http://www.w3.org/2000/svg"><path d="m272.606 122.071h-23.818c-.229 0-.437.067-.645.13l-2.103-16.706c-1.129-8.99-8.446-15.887-17.336-16.636-.04-26.969-21.989-48.897-48.965-48.897-27 0-48.968 21.967-48.968 48.968 0 .086.039.158.049.242-7.885 1.597-14.13 8.077-15.168 16.322l-5.095 40.49v.003l-.388 3.085-46.534-87.087-7.633-38.161c-.177-.892-.871-1.591-1.762-1.776-.904-.187-1.808.179-2.327.925l-41.054 59.017c-.481.694-.538 1.599-.148 2.347.392.749 1.168 1.219 2.012 1.219h33.357c.31 0 .603-.09.881-.208l52.307 150.349-2.289 18.187c-.769 6.101 1.123 12.246 5.19 16.858 4.068 4.612 9.929 7.258 16.081 7.258h125.196c6.149 0 12.008-2.645 16.076-7.257s5.961-10.757 5.194-16.859l-4.146-32.941c.027-.024.061-.032.086-.058l20.694-20.694c5.285-5.285 8.196-12.312 8.196-19.787v-41.392c0-9.341-7.6-16.941-16.94-16.941zm-21.971 19.934h16.407c1.646 0 2.987 1.339 2.987 2.987v32.725c0 4.048-1.576 7.853-4.438 10.715l-8.094 8.095zm-70.896-97.504c24.449 0 44.343 19.853 44.423 44.284h-12.442c-.08-17.571-14.391-31.841-31.98-31.841-17.587 0-31.898 14.27-31.978 31.841h-12.445c.079-24.431 19.973-44.284 44.422-44.284zm27.443 44.284h-54.884c.08-15.068 12.356-27.303 27.441-27.303 15.087 0 27.363 12.235 27.443 27.303zm-72.585 4.538h92.499c7.321 0 13.528 5.477 14.441 12.739l5.378 42.735c-5.244 2.888-28.358 13.256-64.039-4.587-33.913-16.959-57.885-7.726-67.207-2.509l4.485-35.638c.916-7.264 7.124-12.74 14.443-12.74zm-89.651-12.306h-27.88l35.531-51.078 6.455 32.27zm5.843 1.523c-.129-.37-.362-.66-.634-.906l10.998-14.665 48.034 89.895-8.644 68.69zm205.329 185.201c-3.206 3.635-7.824 5.72-12.673 5.72h-125.196c-4.848 0-9.468-2.085-12.677-5.721-3.206-3.636-4.698-8.48-4.09-13.29l13.458-106.95c4.403-3.016 28.967-17.708 65.907.769 16.468 8.236 30.375 10.817 41.339 10.817 12.41 0 21.031-3.303 25.338-5.455l12.689 100.82c.605 4.81-.887 9.654-4.095 13.29zm28.89-87.337c0 6.262-2.44 12.15-6.867 16.578l-18.286 18.286-1.641-13.041 10.585-10.586c3.72-3.718 5.768-8.663 5.768-13.923v-32.725c0-4.149-3.375-7.525-7.525-7.525h-16.978l-1.369-10.877c.033.002.06.019.093.019h23.818c6.838 0 12.402 5.564 12.402 12.402z" fill="#017260"/></svg>