<svg id="Слой_1" enable-background="new 0 0 300 300" height="512" viewBox="0 0 300 300" width="512" xmlns="http://www.w3.org/2000/svg"><g fill="#017260"><path d="m174.318 51.003c1.259 0 2.278-1.019 2.278-2.278s-1.019-2.278-2.278-2.278h-18.224v-1.897c0-5.653-4.598-10.251-10.251-10.251s-10.251 4.598-10.251 10.251v1.898h-15.946c-1.259 0-2.278 1.019-2.278 2.278s1.019 2.278 2.278 2.278h15.946v15.946h-9.112c-1.259 0-2.278 1.019-2.278 2.278s1.019 2.278 2.278 2.278h9.112v15.946h-15.946c-1.259 0-2.278 1.019-2.278 2.278s1.019 2.278 2.278 2.278h15.946v13.668h-9.112c-1.259 0-2.278 1.019-2.278 2.278s1.019 2.278 2.278 2.278h9.112v15.946h-15.946c-1.259 0-2.278 1.019-2.278 2.278s1.019 2.278 2.278 2.278h15.946v15.946h-9.112c-1.259 0-2.278 1.019-2.278 2.278s1.019 2.278 2.278 2.278h9.112v15.946h-15.946c-1.259 0-2.278 1.019-2.278 2.278s1.019 2.278 2.278 2.278h15.946v13.668h-9.112c-1.259 0-2.278 1.019-2.278 2.278s1.019 2.278 2.278 2.278h9.112v15.946h-15.946c-1.259 0-2.278 1.019-2.278 2.278s1.019 2.278 2.278 2.278h15.946v22.05c-8.006 4.761-13.234 15.461-7.661 27.057 1.729 3.599 4.68 6.534 8.313 8.258 3.159 1.499 6.429 2.247 9.628 2.247 3.788 0 7.475-1.046 10.76-3.121 5.904-3.731 9.428-10.124 9.428-17.1 0-7.183-3.784-13.708-9.966-17.345v-22.046h18.224c1.259 0 2.278-1.019 2.278-2.278s-1.019-2.278-2.278-2.278h-18.224v-15.946h11.39c1.259 0 2.278-1.019 2.278-2.278s-1.019-2.278-2.278-2.278h-11.39v-13.668h18.224c1.259 0 2.278-1.019 2.278-2.278s-1.019-2.278-2.278-2.278h-18.224v-15.946h11.39c1.259 0 2.278-1.019 2.278-2.278s-1.019-2.278-2.278-2.278h-11.39v-15.946h18.224c1.259 0 2.278-1.019 2.278-2.278s-1.019-2.278-2.278-2.278h-18.224v-15.948h11.39c1.259 0 2.278-1.019 2.278-2.278s-1.019-2.278-2.278-2.278h-11.39v-13.667h18.224c1.259 0 2.278-1.019 2.278-2.278s-1.019-2.278-2.278-2.278h-18.224v-15.946h11.39c1.259 0 2.278-1.019 2.278-2.278s-1.019-2.278-2.278-2.278h-11.39v-15.946zm-12.813 198.848c0 5.403-2.732 10.358-7.305 13.25-4.714 2.976-10.542 3.201-16.001.61-2.694-1.279-4.881-3.45-6.16-6.115-4.598-9.568.098-18.322 6.852-21.698.772-.387 1.259-1.175 1.259-2.038v-189.31c0-3.141 2.554-5.695 5.695-5.695s5.695 2.554 5.695 5.695v189.309c0 .863.487 1.651 1.259 2.038 5.369 2.685 8.706 8.032 8.706 13.954z"/><path d="m86.617 42.79c1.259 0 2.278-1.019 2.278-2.278v-21.4c0-1.259-1.019-2.278-2.278-2.278s-2.278 1.019-2.278 2.278v21.4c0 1.259 1.019 2.278 2.278 2.278z"/><path d="m86.617 111.61c-1.259 0-2.278 1.019-2.278 2.278v21.4c0 1.259 1.019 2.278 2.278 2.278s2.278-1.019 2.278-2.278v-21.4c0-1.26-1.019-2.278-2.278-2.278z"/><path d="m52.207 77.2c0-1.259-1.019-2.278-2.278-2.278h-21.4c-1.259 0-2.278 1.019-2.278 2.278s1.019 2.278 2.278 2.278h21.4c1.259 0 2.278-1.019 2.278-2.278z"/><path d="m59.065 52.868c.445.445 1.028.667 1.611.667s1.166-.222 1.611-.667c.89-.89.89-2.331 0-3.221l-15.134-15.132c-.89-.89-2.331-.89-3.221 0s-.89 2.331 0 3.221z"/><path d="m59.065 101.53-15.134 15.134c-.89.89-.89 2.331 0 3.221.445.445 1.028.667 1.611.667s1.166-.222 1.611-.667l15.134-15.134c.89-.89.89-2.331 0-3.221s-2.332-.89-3.222 0z"/><path d="m69.254 39.918c.38.843 1.21 1.344 2.08 1.344.311 0 .63-.065.932-.2 1.148-.516 1.66-1.864 1.143-3.012l-4.124-9.172c-.516-1.146-1.866-1.657-3.012-1.143-1.148.516-1.66 1.864-1.143 3.012z"/><path d="m72.266 114.866c-1.143-.514-2.494-.002-3.012 1.143l-4.124 9.172c-.516 1.148-.004 2.496 1.143 3.012.303.136.621.2.932.2.87 0 1.7-.501 2.08-1.344l4.124-9.172c.517-1.146.005-2.495-1.143-3.011z"/><path d="m49.182 91.784c-.516-1.146-1.866-1.66-3.012-1.143l-9.172 4.122c-1.148.516-1.66 1.864-1.143 3.012.38.843 1.21 1.344 2.08 1.344.311 0 .63-.065.932-.2l9.172-4.122c1.147-.517 1.659-1.865 1.143-3.013z"/><path d="m36.998 61.165 9.172 4.122c.305.136.621.2.932.2.87 0 1.7-.501 2.08-1.344.516-1.148.004-2.496-1.143-3.012l-9.172-4.122c-1.152-.512-2.494-.002-3.012 1.143-.517 1.149-.005 2.497 1.143 3.013z"/><path d="m256.243 190.88c-1.163-16.028-14.578-28.713-30.897-28.713-12.72 0-24.016 7.708-28.717 19.385-1.379-.212-2.74-.269-4.087-.214v-162.028c0-5.134-4.176-9.31-9.31-9.31h-74.777c-5.134 0-9.31 4.176-9.31 9.31v32.56c-3.876-1.921-8.141-2.936-12.529-2.936-15.585 0-28.265 12.68-28.265 28.265s12.68 28.265 28.265 28.265c4.392 0 8.655-1.006 12.529-2.926v178.342c0 5.134 4.176 9.31 9.31 9.31h74.777c5.134 0 9.31-4.176 9.31-9.31v-56.797c.304.012.607.046.912.046h62.188c9.17 0 16.629-7.459 16.629-16.629 0-8.97-7.137-16.304-16.028-16.62zm-169.626-89.971c-13.074 0-23.71-10.636-23.71-23.709s10.636-23.71 23.71-23.71c4.462 0 8.77 1.25 12.529 3.597v40.226c-3.759 2.347-8.061 3.596-12.529 3.596zm96.615 184.725h-74.777c-2.621 0-4.754-2.133-4.754-4.754v-261.57c0-2.621 2.133-4.754 4.754-4.754h74.777c2.621 0 4.754 2.133 4.754 4.754v200.599c-.291.3-.531.653-.621 1.094-.157.763.119 1.487.621 2.009v57.867c0 2.621-2.133 4.755-4.754 4.755zm72.41-66.061h-62.188c-.305 0-.608-.029-.912-.046v-33.635c1.631-.085 3.297.063 5.001.49 1.148.283 2.342-.365 2.716-1.499 3.577-10.86 13.659-18.159 25.087-18.159 14.571 0 26.423 11.853 26.419 26.519 0 .647.276 1.264.759 1.697.481.432 1.126.634 1.769.567.443-.049.894-.082 1.35-.082 6.656 0 12.073 5.417 12.073 12.075-.001 6.656-5.418 12.073-12.074 12.073z"/><path d="m204.851 241.736c-1.097-.63-2.485-.245-3.108.848l-6.522 11.414c-.625 1.092-.245 2.483.848 3.108.356.205.745.3 1.128.3.792 0 1.559-.412 1.98-1.148l6.522-11.414c.624-1.093.244-2.483-.848-3.108z"/><path d="m217.328 247.976c-1.094-.63-2.485-.247-3.108.848l-6.522 11.414c-.625 1.092-.245 2.483.848 3.108.356.205.745.3 1.128.3.792 0 1.559-.412 1.98-1.148l6.522-11.414c.625-1.093.245-2.483-.848-3.108z"/><path d="m227.446 230.273c-1.092-.627-2.485-.245-3.108.848l-4.196 7.341c-.625 1.092-.245 2.483.848 3.108.356.205.745.3 1.128.3.79 0 1.559-.412 1.98-1.148l4.196-7.341c.624-1.093.244-2.483-.848-3.108z"/><path d="m236.048 241.736c-1.094-.63-2.485-.245-3.108.848l-6.522 11.414c-.625 1.092-.245 2.483.848 3.108.356.205.745.3 1.128.3.792 0 1.559-.412 1.98-1.148l6.522-11.414c.625-1.093.244-2.483-.848-3.108z"/><path d="m248.528 247.976c-1.094-.63-2.485-.247-3.108.848l-6.522 11.414c-.625 1.092-.245 2.483.848 3.108.356.205.745.3 1.128.3.792 0 1.559-.412 1.98-1.148l6.522-11.414c.625-1.093.244-2.483-.848-3.108z"/><path d="m258.643 230.273c-1.09-.627-2.485-.245-3.108.848l-4.196 7.341c-.625 1.092-.245 2.483.848 3.108.356.205.745.3 1.128.3.79 0 1.559-.412 1.98-1.148l4.196-7.341c.625-1.093.244-2.483-.848-3.108z"/></g></svg>