<svg width="51" height="50" viewBox="0 0 51 50" fill="none" xmlns="http://www.w3.org/2000/svg">
<path fill-rule="evenodd" clip-rule="evenodd" d="M25.9863 0.239258C12.1828 0.239258 0.988281 11.4323 0.988281 25.2404C0.988281 36.2845 8.15099 45.6556 18.0854 48.963C19.3362 49.1919 19.7921 48.4197 19.7921 47.7567C19.7921 47.1627 19.7703 45.5912 19.7573 43.5054C12.8033 45.0156 11.3361 40.1536 11.3361 40.1536C10.1988 37.2652 8.55972 36.4963 8.55972 36.4963C6.28981 34.9462 8.73156 34.9768 8.73156 34.9768C11.2409 35.1534 12.5608 37.5537 12.5608 37.5537C14.7908 41.3736 18.4128 40.2702 19.837 39.6302C20.0641 38.0157 20.7103 36.9137 21.4239 36.2891C15.8728 35.6568 10.0361 33.5127 10.0361 23.9328C10.0361 21.2025 11.0107 18.9725 12.6099 17.2244C12.3519 16.5921 11.4941 14.0505 12.8557 10.608C12.8557 10.608 14.9537 9.93585 19.7298 13.1696C21.7235 12.6155 23.8629 12.3393 25.9885 12.3285C28.1126 12.3372 30.2505 12.6157 32.2472 13.1696C37.0203 9.93585 39.1152 10.608 39.1152 10.608C40.4796 14.0505 39.6217 16.5921 39.3654 17.2244C40.9677 18.9725 41.9346 21.2025 41.9346 23.9328C41.9346 33.5373 36.0887 35.6505 30.5206 36.269C31.4169 37.041 32.2165 38.5666 32.2165 40.8995C32.2165 44.2406 32.1861 46.9371 32.1861 47.7567C32.1861 48.4259 32.6372 49.204 33.905 48.96C43.8318 45.6465 50.9883 36.283 50.9883 25.2404C50.9883 11.4323 39.7938 0.239258 25.9857 0.239258" fill="#007C77"/>
</svg>
