<svg width="51" height="51" viewBox="0 0 51 51" fill="none" xmlns="http://www.w3.org/2000/svg">
<path d="M25.0547 50.1387C38.8618 50.1387 50.0547 38.9458 50.0547 25.1387C50.0547 11.3316 38.8618 0.138672 25.0547 0.138672C11.2476 0.138672 0.0546875 11.3316 0.0546875 25.1387C0.0546875 38.9458 11.2476 50.1387 25.0547 50.1387Z" fill="#007C77"/>
<path d="M39.9916 27.1498V37.4567H34.0159V27.8405C34.0159 25.426 33.1531 23.7771 30.9895 23.7771C29.3384 23.7771 28.3575 24.8872 27.9243 25.9621C27.767 26.3463 27.7265 26.8797 27.7265 27.4185V37.4563H21.7503C21.7503 37.4563 21.8305 21.1696 21.7503 19.4837H27.7269V22.0306C27.7149 22.0507 27.698 22.0703 27.6873 22.0894H27.7269V22.0306C28.5211 20.8086 29.9373 19.0617 33.1126 19.0617C37.0441 19.0617 39.9916 21.6304 39.9916 27.1498ZM15.4988 10.8203C13.4546 10.8203 12.1172 12.1622 12.1172 13.9251C12.1172 15.6507 13.4158 17.0313 15.4203 17.0313H15.4591C17.5434 17.0313 18.8394 15.6507 18.8394 13.9251C18.7997 12.1622 17.5434 10.8203 15.4988 10.8203ZM12.4724 37.4567H18.4463V19.4837H12.4724V37.4567Z" fill="#F1F2F2"/>
</svg>
