<svg width="654" height="593" viewBox="0 0 654 593" fill="none" xmlns="http://www.w3.org/2000/svg">
<path fill-rule="evenodd" clip-rule="evenodd" d="M374.932 497.753C343.995 500.167 317.272 474.882 285.998 463.435C212.253 436.444 115.367 469.864 75.4931 388.155C33.1907 301.469 57.524 170.085 127.013 137.643C194.277 106.24 253.659 259.13 330.267 269.21C420.715 281.111 497.695 116.994 568.898 195.786C634.501 268.382 538.224 374.377 491.308 447.415C465.452 487.667 419.842 494.249 374.932 497.753Z" fill="#F2AA4B" fill-opacity="0.5"/>
<path fill-rule="evenodd" clip-rule="evenodd" d="M531.099 155.465C526.566 156.597 520.518 158.428 517.659 159.538C514.799 160.646 507.688 165.927 501.857 171.272C495.546 177.057 489.313 184.884 486.454 190.61C483.815 195.902 481.654 201.153 481.654 202.281C481.654 203.407 478.682 206.617 475.049 209.413L468.442 214.496L472.514 221.164C474.752 224.831 477.166 228.208 477.875 228.67C478.585 229.131 485.85 237.582 494.019 247.449C502.187 257.317 509.753 266.902 510.834 268.75C511.913 270.6 512.107 272.502 511.262 272.981C510.42 273.457 506.402 270.671 502.333 266.788C498.266 262.903 491.948 255.368 488.296 250.041C484.643 244.713 481.654 239.615 481.654 238.71C481.654 237.803 480.885 237.063 479.946 237.063C479.006 237.063 477.719 235.564 477.085 233.733C476.452 231.901 472.655 227.369 468.65 223.66C464.645 219.952 459.959 216.931 458.234 216.944C456.511 216.957 451.682 218.06 447.503 219.395C443.326 220.729 436.733 223.451 432.853 225.442C428.974 227.434 423.643 230.466 421.006 232.18C418.369 233.895 414.782 237.298 413.035 239.744C410.273 243.607 410.182 244.75 412.335 248.468C413.698 250.82 420.862 256.852 428.254 261.869C435.649 266.889 443.478 271.857 445.652 272.913C447.827 273.969 455.55 278.602 462.814 283.207C470.079 287.812 475.326 292.218 474.474 292.999C473.624 293.778 468.094 292.045 462.184 289.15C456.273 286.252 441.962 277.887 430.379 270.56C418.796 263.232 407.946 257.229 406.268 257.223C404.591 257.214 400.824 260.041 397.897 263.503C394.971 266.966 390.862 273.222 388.765 277.407C386.668 281.591 383.981 288.322 382.795 292.363C381.606 296.403 381.152 302.233 381.784 305.317C382.416 308.403 383.855 310.926 384.985 310.926C386.115 310.926 386.56 311.364 385.974 311.901C385.39 312.438 383.176 312.025 381.057 310.986C378.006 309.489 376.087 309.699 371.855 311.99C368.914 313.583 364.438 318.372 361.907 322.635C359.051 327.447 356.835 334.597 356.064 341.498C354.992 351.083 355.403 353.731 359.034 360.728C361.352 365.19 365.784 372.24 368.884 376.395C371.983 380.55 375.567 385.76 376.845 387.976C378.123 390.19 378.781 392.357 378.308 392.792C377.834 393.225 376.376 392.547 375.067 391.283C373.757 390.019 370.608 385.963 368.068 382.27C365.526 378.577 361.819 372.646 359.829 369.089C357.84 365.532 354.19 361.149 351.72 359.346C348.171 356.757 345.673 356.308 339.817 357.199C335.74 357.82 327.316 361.384 321.096 365.117C314.875 368.852 309.35 373.432 308.819 375.294C308.288 377.157 308.346 387.103 308.947 397.399C309.639 409.215 309.335 417.276 308.125 419.259C306.561 421.819 305.991 420.558 305.028 412.406C304.378 406.91 303.061 399.247 302.101 395.376C301.144 391.505 300.358 386.083 300.358 383.328C300.358 379.915 298.82 377.209 295.533 374.839C292.8 372.868 288.008 371.359 284.481 371.359C281.056 371.359 276.306 372.529 273.925 373.959C271.545 375.389 268.748 378.599 267.712 381.093C266.677 383.586 265.262 389.405 264.568 394.021C263.581 400.598 262.996 401.664 261.872 398.945C261.083 397.036 260.436 390.719 260.436 384.904C260.436 378.243 259.523 373.512 257.964 372.117C256.603 370.899 250.022 367.207 243.336 363.915C236.65 360.623 228.671 357.929 225.605 357.929C221.544 357.929 219.004 359.252 216.244 362.804C214.006 365.686 212.45 370.32 212.44 374.135C212.433 377.686 211.906 384.558 211.27 389.405C210.459 395.592 209.307 398.218 207.404 398.218C205.093 398.218 204.885 395.406 205.993 379.153L207.291 360.088L202.398 356.559C199.708 354.619 195.884 352.561 193.904 351.983C191.868 351.391 188.352 352.107 185.814 353.632C183.109 355.257 181.325 357.932 181.325 360.367C181.325 362.588 180.146 365.485 178.705 366.806C177.263 368.129 175.727 371.77 175.293 374.901C174.857 378.03 174.865 375.174 175.31 368.555C175.786 361.454 175.28 355.087 174.079 353.027C172.244 349.887 170.378 349.536 155.488 349.536C142.673 349.536 135.846 350.487 125.244 353.749C117.714 356.066 109.574 359.15 107.157 360.603C104.399 362.259 101.19 362.812 98.5498 362.087C96.2351 361.451 90.5233 357.538 85.8572 353.393C80.4549 348.592 76.1331 346.088 73.9539 346.496C71.3663 346.981 70.6778 348.342 71.1283 352.087C71.4542 354.81 74.6645 360.793 78.2629 365.383C82.7074 371.055 85.0844 376.172 85.6832 381.357C86.1685 385.552 87.824 390.306 89.3623 391.923C90.9005 393.538 93.2025 394.86 94.4734 394.86C95.7461 394.86 100.295 391.772 104.584 387.995C110.975 382.364 113.295 381.297 117.465 382.062C120.263 382.574 124.779 384.719 127.5 386.83C130.222 388.938 140.501 397.719 150.342 406.341C160.185 414.964 170.977 423.915 174.324 426.235C177.67 428.553 187.414 433.485 195.975 437.195C204.537 440.904 213.189 444.546 215.204 445.288C217.218 446.032 222.575 447.753 227.107 449.114C231.64 450.476 238.644 452.354 242.673 453.289C246.702 454.222 254.508 455.925 260.022 457.071C265.536 458.216 279.255 459.131 290.508 459.102C301.761 459.074 315.378 458.146 320.771 457.039C326.163 455.933 335.931 453.502 342.477 451.636C349.024 449.769 357.265 447.122 360.79 445.752C364.315 444.382 368.436 442.69 369.947 441.991C371.457 441.293 376.662 438.701 381.511 436.23C386.36 433.757 394.685 428.785 400.011 425.179C405.336 421.573 413.785 413.843 418.787 408.001C423.79 402.159 429.628 394.735 431.759 391.503C433.893 388.272 440.11 377.318 445.576 367.162C451.043 357.006 457.831 344.196 460.664 338.696C463.497 333.195 469.247 325.641 473.445 321.909C477.642 318.176 484.297 313.464 488.232 311.436C492.17 309.408 499.85 305.774 505.303 303.36C510.755 300.944 518.584 297.894 522.701 296.578C526.815 295.264 532.461 294.177 535.247 294.164C538.977 294.145 541.262 292.703 543.938 288.683C545.934 285.683 547.569 281.211 547.573 278.747C547.577 276.282 546.333 269.861 544.811 264.478C543.288 259.094 541.012 252.046 539.752 248.814C538.492 245.583 535.556 239.875 533.227 236.128C530.897 232.383 527.405 228.411 525.468 227.302C522.538 225.625 521.942 225.739 521.942 227.976C521.942 229.457 523.415 232.675 525.213 235.126C527.011 237.577 529.447 241.47 530.625 243.778C531.802 246.086 533.965 250.738 535.432 254.115C536.897 257.493 538.667 265.141 539.363 271.109C540.189 278.176 539.905 283.209 538.548 285.532C537.369 287.552 534.672 289.103 532.337 289.103C530.068 289.103 523.915 290.489 518.663 292.185C513.409 293.88 508.565 295.769 507.897 296.382C507.228 296.994 505.613 297.496 504.305 297.496C502.998 297.496 495.887 300.859 488.503 304.968C481.12 309.076 471.802 315.472 467.797 319.18C463.794 322.886 458.355 329.912 455.714 334.79C453.072 339.668 448.651 348.193 445.89 353.732C443.128 359.272 438.79 367.582 436.25 372.198C433.71 376.814 427.971 385.831 423.497 392.237C419.021 398.641 411.039 407.812 405.755 412.616C400.472 417.42 392.519 423.464 388.084 426.046C383.648 428.629 373.701 433.621 365.978 437.142C358.256 440.662 351.033 443.543 349.929 443.543C348.825 443.543 346.49 444.263 344.741 445.144C342.992 446.024 336.205 447.865 329.659 449.235C323.112 450.605 311.575 452.624 304.021 453.722C291.91 455.483 287.796 455.302 269.226 452.201C257.644 450.267 244.87 448.008 240.842 447.18C236.813 446.353 227.827 443.673 220.873 441.229C213.92 438.783 202.795 434.387 196.151 431.459C189.507 428.53 180.364 423.455 175.831 420.182C171.299 416.908 159.493 407.039 149.597 398.25C139.7 389.462 128.575 380.575 124.874 378.502C121.173 376.428 116.685 374.73 114.901 374.724C113.116 374.719 108.08 377.738 103.708 381.431C99.3372 385.124 95.2352 388.146 94.5924 388.146C93.9496 388.146 93.424 385.475 93.424 382.211C93.424 378.946 92.0011 374.226 90.2614 371.72C88.5217 369.213 86.2802 366.637 85.2785 365.994C84.2768 365.352 84.0534 364.281 84.7804 363.613C85.5093 362.947 88.258 363.457 90.8896 364.748C93.5211 366.039 98.6688 367.019 102.331 366.927C105.994 366.835 112.184 365.109 116.088 363.093C119.992 361.077 126.997 358.646 131.654 357.691C136.311 356.736 146.639 355.557 154.607 355.072L169.091 354.192L167.873 376.254C166.814 395.441 167.03 398.448 169.535 399.329C171.12 399.886 173.323 399.51 174.43 398.495C175.538 397.479 177.531 393.789 178.859 390.298C180.184 386.806 181.283 382.656 181.298 381.078C181.312 379.499 182.73 374.023 184.448 368.911C186.425 363.026 188.808 359.255 190.945 358.634C192.802 358.094 195.516 358.562 196.979 359.675C199.052 361.253 199.638 366.475 199.638 383.398C199.638 399.567 200.35 406.361 202.433 410.053C203.969 412.775 206.483 415.005 208.02 415.005C209.556 415.005 211.898 412.549 213.224 409.549C214.552 406.549 216.121 397.442 216.713 389.312C217.302 381.182 218.813 371.929 220.068 368.748C221.322 365.567 223.38 362.965 224.642 362.965C225.902 362.965 229.241 363.889 232.057 365.017C234.874 366.146 241.014 369.188 245.7 371.777C250.386 374.365 254.661 377.533 255.197 378.815C255.735 380.1 254.948 389.22 253.448 399.084C251.948 408.95 250.97 420.155 251.274 423.986C251.732 429.744 252.544 431.045 255.946 431.488C259.026 431.889 260.59 430.831 262.149 427.291C263.297 424.689 264.989 419.16 265.912 415.005C266.835 410.85 268.225 403.674 269.003 399.057C269.78 394.441 271.706 387.934 273.285 384.599C275.264 380.415 277.621 378.278 280.881 377.706C283.479 377.251 287.479 377.734 289.768 378.78C292.934 380.227 294.225 382.68 295.163 389.03C295.84 393.622 297.434 404.071 298.703 412.25C299.972 420.43 302.307 428.585 303.889 430.373C306.471 433.289 307.145 433.371 310.43 431.162C313.842 428.871 314.067 426.979 313.717 403.558C313.395 381.936 313.78 377.956 316.464 375.153C318.182 373.358 323.61 369.843 328.525 367.338C334.107 364.496 339.551 362.977 343.02 363.294C347.803 363.734 349.911 365.78 358.234 378.073C363.548 385.921 370.904 394.748 374.58 397.687C378.257 400.627 382.363 402.646 383.705 402.174C385.047 401.701 386.598 400.232 387.153 398.908C387.708 397.583 387.186 394.431 385.994 391.903C384.802 389.374 379.055 380.346 373.223 371.839C363.164 357.162 362.621 355.819 362.621 345.604C362.621 339.682 363.845 332.29 365.337 329.176C366.832 326.062 369.264 322.099 370.743 320.368C372.223 318.638 375.611 317.221 378.273 317.221C381.009 317.221 388.016 320.36 394.385 324.439C400.584 328.408 411.956 335.675 419.657 340.585C427.355 345.495 435.563 349.707 437.894 349.944C440.822 350.242 442.355 349.381 442.857 347.159C443.296 345.215 441.875 342.697 439.27 340.796C436.898 339.067 426.716 332.282 416.644 325.72C406.572 319.156 396.064 311.869 393.295 309.524C389.49 306.303 388.259 303.692 388.259 298.841C388.259 294.909 390.825 287.53 394.879 279.804C398.52 272.868 403.159 266.378 405.184 265.383C408.222 263.894 410.354 264.545 417.334 269.093C421.991 272.128 432.393 278.685 440.451 283.665C448.508 288.646 458.558 294.174 462.783 295.948C467.008 297.723 472.883 299.175 475.836 299.175C478.79 299.175 482.156 298.126 483.315 296.845C484.964 295.025 484.436 293.437 480.905 289.59C478.419 286.882 473.243 282.744 469.405 280.395C465.567 278.047 455.009 271.688 445.945 266.266C436.88 260.842 427.196 254.572 424.427 252.333C421.658 250.092 419.391 246.627 419.391 244.632C419.391 242.638 421.244 239.543 423.511 237.753C425.778 235.965 430.516 233.056 434.041 231.29C437.566 229.522 441.687 227.557 443.198 226.92C444.708 226.283 448.62 224.972 451.892 224.006C456.742 222.574 458.551 222.777 461.693 225.111C463.814 226.685 472.676 237.726 481.385 249.647C491.236 263.132 500.213 273.41 505.137 276.848C511.533 281.315 513.729 282.044 516.582 280.644C518.523 279.692 520.111 277.451 520.111 275.665C520.111 273.879 518.384 269.601 516.275 266.157C514.165 262.714 508.796 255.557 504.344 250.253C499.892 244.95 495.198 239.623 493.915 238.416C492.631 237.211 488.13 231.78 483.911 226.35C479.693 220.919 476.739 215.74 477.347 214.839C477.955 213.937 481.438 213.572 485.09 214.026C488.74 214.481 493.787 214.34 496.305 213.713C499.193 212.992 500.883 211.366 500.883 209.306C500.883 206.999 499.268 205.772 495.389 205.126C490.485 204.31 489.946 203.627 490.368 198.757C490.629 195.757 493.098 190.117 495.854 186.226C498.612 182.333 502.934 177.199 505.459 174.817C507.984 172.435 513.991 168.468 518.809 166.004C523.625 163.538 530.394 161.522 533.848 161.522H540.129L528.641 172.014C522.322 177.785 514.879 186.476 512.101 191.329C509.184 196.425 507.296 202.093 507.629 204.745C507.986 207.584 509.477 209.556 511.535 209.915C513.736 210.298 520.856 205.163 532.595 194.728C546.743 182.148 552.248 178.386 559.828 176.117C565.052 174.552 571.44 173.273 574.02 173.273C576.6 173.273 578.712 173.844 578.712 174.542C578.712 175.24 576.035 176.875 572.76 178.175C569.486 179.476 562.404 183.095 557.022 186.219C551.642 189.341 543.194 195.364 538.252 199.601C533.311 203.838 529.268 208.342 529.268 209.611C529.268 210.879 533.102 213.608 537.788 215.677L546.309 219.437L546.654 238.759C546.844 249.386 547.875 259.585 548.943 261.421C550.012 263.259 551.926 267.981 553.195 271.915C554.466 275.849 558.277 282.037 561.663 285.663C565.051 289.291 570.398 293.437 573.548 294.877C576.698 296.318 582.728 297.496 586.951 297.496C592.06 297.496 595.638 296.47 597.656 294.426C599.587 292.47 600.687 288.443 600.687 283.328C600.687 277.387 599.067 272.549 594.459 264.728C591.033 258.913 584.704 249.744 580.395 244.35C576.084 238.958 571.7 234.02 570.653 233.377C569.603 232.736 569.341 231.664 570.068 230.996C570.797 230.33 573.405 230.771 575.864 231.977C578.324 233.184 584.707 238.124 590.053 242.954C595.398 247.785 602.863 256.538 606.639 262.408C611.999 270.738 613.506 274.844 613.506 281.124C613.506 286.684 612.173 291.105 609.188 295.44C606.813 298.888 602.758 302.745 600.178 304.011C596.794 305.671 592.26 305.992 583.894 305.161C577.52 304.527 568.036 303.61 562.818 303.121C553.708 302.27 553.222 302.437 550.457 307.337C548.875 310.142 547.567 314.176 547.553 316.298C547.536 318.421 546.756 321.27 545.819 322.63C544.319 324.805 544.011 324.805 543.253 322.63C542.78 321.27 541.901 318.102 541.303 315.591C540.702 313.078 538.47 310.167 536.34 309.123C533.866 307.909 528.356 307.627 521.093 308.339C514.837 308.953 507.113 310.909 503.926 312.685C499.169 315.337 498.136 316.979 498.136 321.896C498.136 325.186 499.257 329.918 500.626 332.413C501.994 334.906 503.659 339.024 504.324 341.562C505.161 344.761 504.818 346.167 503.207 346.143C501.928 346.123 498.693 343.266 496.015 339.794C493.338 336.323 488.983 332.42 486.337 331.122C481.999 328.994 481.167 329.091 477.853 332.129C475.789 334.023 472.617 341.329 470.614 348.812C468.652 356.135 467.037 363.927 467.026 366.128C467.013 368.329 466.092 373.239 464.975 377.039C463.86 380.84 460.782 388.104 458.135 393.182C455.489 398.26 450.752 406.346 447.607 411.15C444.463 415.955 440.83 423.358 439.533 427.6C437.621 433.862 437.616 436.643 439.509 442.366C440.791 446.245 442.971 451.798 444.351 454.708C445.73 457.617 446.86 461.16 446.86 462.582C446.86 464.004 446.047 465.627 445.053 466.191C444.06 466.754 437.061 461.416 429.503 454.326C416.937 442.544 415.28 441.526 410.163 442.465C407.087 443.029 400.692 445.93 395.956 448.909C391.219 451.889 383.43 457.909 378.645 462.285C370.639 469.608 369.952 470.883 370.027 478.295C370.071 482.725 370.82 489.738 371.69 493.88C372.644 498.406 372.585 502.592 371.547 504.372C370.595 506 369.227 507.333 368.504 507.333C367.78 507.333 364.262 502.99 360.684 497.68C357.108 492.371 352.74 485.186 350.98 481.714C349.22 478.241 345.792 474.206 343.362 472.747C340.751 471.179 333.107 469.732 324.687 469.213C316.845 468.728 303.112 469.161 294.168 470.172C285.224 471.184 274.924 473.349 271.277 474.984C265.923 477.385 264.35 479.247 263.099 484.671C262.247 488.364 261.2 493.084 260.775 495.162C260.293 497.513 258.68 498.939 256.506 498.939C254.584 498.939 251.306 496.952 249.222 494.523C247.138 492.095 244.548 487.098 243.468 483.42C242.387 479.74 239.571 474.959 237.21 472.795C234.848 470.63 230.607 468.328 227.785 467.679C224.961 467.029 221.8 465.851 220.76 465.058C219.718 464.266 212.922 459.856 205.657 455.26C195.926 449.101 190.747 446.9 185.988 446.9C180.626 446.9 178.824 447.892 175.39 452.738C173.116 455.95 170.083 458.997 168.653 459.51C167.223 460.024 165.38 459.473 164.56 458.288C163.74 457.103 163.056 450.655 163.04 443.961C163.012 432.035 162.868 431.659 155.889 425.451C151.972 421.966 144.321 416.982 138.889 414.377C133.456 411.772 127.07 409.903 124.7 410.224C122.027 410.586 119.11 413.002 117.02 416.584C115.169 419.762 112.44 423.474 110.955 424.833C108.673 426.927 107.798 426.955 105.26 425.027C103.185 423.447 102.566 421.169 103.251 417.617C103.793 414.795 104.783 410.031 105.448 407.031C106.223 403.539 105.941 401.575 104.666 401.575C103.571 401.575 101.418 403.805 99.8811 406.527C98.3447 409.252 97.0866 414.8 97.0866 418.857C97.0866 423.873 98.1597 427.125 100.436 429.013C102.278 430.541 105.216 431.792 106.964 431.792C108.715 431.792 111.687 431.035 113.574 430.111C115.458 429.186 118.851 425.409 121.115 421.718C123.378 418.025 126.109 415.025 127.182 415.05C128.255 415.075 134.902 418.663 141.953 423.024L154.772 430.952L155.889 443.543C156.502 450.467 157.603 457.739 158.332 459.702C159.062 461.664 161.535 464.192 163.829 465.317C167.093 466.918 168.77 466.922 171.544 465.334C173.493 464.217 176.461 461.112 178.139 458.431C179.818 455.75 182.514 453.091 184.129 452.524C185.744 451.954 189.277 452.529 191.978 453.799C194.681 455.068 202.248 459.569 208.794 463.801C215.341 468.033 223.63 472.727 227.212 474.231C230.795 475.735 234.645 478.699 235.767 480.818C236.892 482.936 238.285 486.69 238.868 489.158C239.45 491.625 242.059 495.97 244.667 498.81C248.26 502.725 250.925 503.976 255.673 503.976C259.682 503.976 263.084 502.757 265.124 500.588C266.877 498.726 268.723 493.626 269.226 489.257C270.129 481.427 270.272 481.273 279.298 478.51C285.939 476.477 295.298 475.669 313.351 475.572C334.894 475.456 338.623 475.834 341.036 478.375C342.569 479.99 347.017 486.876 350.921 493.677C354.824 500.477 360.266 507.778 363.017 509.9C366.163 512.325 369.417 513.422 371.787 512.852C373.86 512.356 376.427 510.457 377.493 508.631C378.583 506.766 378.958 501.713 378.352 497.09C377.757 492.567 376.792 485.245 376.204 480.818L375.138 472.767L386.335 463.198C392.491 457.936 400.926 452.042 405.076 450.101L412.623 446.571L426.267 459.326C435.226 467.699 441.324 472.08 444.02 472.08C446.276 472.08 449.618 470.566 451.446 468.716C454.44 465.683 454.526 464.65 452.316 458.224C450.966 454.305 448.981 450.036 447.904 448.74C446.825 447.444 445.983 441.401 446.029 435.31C446.091 427.283 447.148 422.621 449.869 418.362C451.933 415.131 456.278 408.178 459.525 402.911C462.77 397.647 467.017 389.348 468.962 384.471C470.907 379.593 472.498 373.721 472.498 371.421C472.498 369.121 473.842 361.503 475.487 354.493C477.129 347.483 479.645 340.289 481.079 338.507C483.557 335.426 484.15 335.742 493.199 344.966C498.432 350.299 504.016 354.644 505.609 354.619C507.202 354.592 509.514 352.844 510.746 350.733C512.634 347.499 512.248 345.012 508.309 335.002C505.736 328.461 503.63 322.277 503.63 321.258C503.63 320.239 506.062 318.253 509.032 316.845C512.004 315.436 519.009 314.283 524.598 314.283H534.761L534.82 321.418C534.851 325.342 535.972 329.873 537.31 331.49C538.649 333.106 540.539 334.427 541.511 334.427C542.484 334.427 544.963 332.729 547.02 330.65C549.078 328.572 551.311 324.607 551.981 321.837C552.651 319.067 554.123 314.662 555.253 312.047C557.132 307.694 557.863 307.39 563.888 308.441C567.508 309.072 575.333 310.226 581.274 311.005C587.216 311.784 594.259 312.02 596.924 311.532C599.59 311.043 604.414 308.529 607.642 305.943C610.873 303.358 614.75 298.535 616.259 295.227C617.766 291.918 619 285.295 619 280.511C619 274.453 617.489 268.98 614.024 262.489C611.069 256.951 603.782 248.364 596.074 241.337C588.938 234.832 581.906 228.728 580.448 227.775C578.99 226.821 574.788 224.745 571.11 223.159C567.433 221.574 563.122 220.276 561.531 220.276C559.941 220.276 554.09 217.609 548.531 214.349C542.973 211.089 538.424 208 538.424 207.485C538.424 206.968 540.277 205.059 542.544 203.241C544.811 201.423 553.384 195.824 561.595 190.8C569.808 185.777 577.362 181.666 578.382 181.666C579.404 181.666 584.052 180.167 588.713 178.337C596.294 175.358 596.979 174.651 595.21 171.623C593.479 168.66 591.399 168.237 578.534 168.237C566.406 168.237 562.013 169.024 553.418 172.734C547.024 175.495 538.124 181.673 530.364 188.737C523.415 195.066 517.051 200.03 516.223 199.768C515.396 199.506 516.551 195.992 518.789 191.958C521.027 187.924 528.039 180.181 534.371 174.752C540.702 169.321 547.06 164.879 548.498 164.879C549.937 164.879 551.95 163.447 552.972 161.698C554.319 159.39 554.162 158.01 552.404 156.672C551.069 155.657 547.584 154.508 544.659 154.119C541.733 153.728 535.631 154.334 531.099 155.465ZM564.342 234.965C568.86 239.351 575.56 247.258 579.234 252.536C582.907 257.813 588.002 265.908 590.553 270.525C593.106 275.141 595.193 281.058 595.193 283.675C595.193 286.291 594.205 289.338 592.996 290.446C591.787 291.554 588.769 292.46 586.29 292.46C583.81 292.46 578.388 290.637 574.242 288.409C569.138 285.668 565.291 281.77 562.337 276.346C559.934 271.938 556.456 263.048 554.607 256.588C552.757 250.128 551.243 241.33 551.243 237.036C551.243 232.742 551.792 228.725 552.464 228.111C553.134 227.495 554.235 226.991 554.907 226.991C555.579 226.991 559.826 230.578 564.342 234.965ZM83.6578 360.728C82.9858 361.342 81.887 361.342 81.2149 360.728C80.5447 360.111 81.0941 359.608 82.4364 359.608C83.7787 359.608 84.3281 360.111 83.6578 360.728ZM259.49 411.963C258.905 413.301 258.471 412.903 258.383 410.947C258.305 409.178 258.737 408.188 259.345 408.745C259.953 409.302 260.019 410.751 259.49 411.963Z" fill="#16314F"/>
</svg>
