<svg width="221" height="200" viewBox="0 0 221 200" fill="none" xmlns="http://www.w3.org/2000/svg">
<path fill-rule="evenodd" clip-rule="evenodd" d="M126.453 167.876C116.019 168.69 107.006 160.163 96.458 156.302C71.5862 147.199 38.9096 158.47 25.4614 130.912C11.1942 101.676 19.401 57.3643 42.8374 46.4226C65.5235 35.8314 85.5511 87.3963 111.389 90.796C141.894 94.8098 167.857 39.4584 191.871 66.0324C213.997 90.5167 181.526 126.265 165.703 150.899C156.982 164.475 141.599 166.694 126.453 167.876Z" fill="#DBD6F3" fill-opacity="0.5"/>
<path fill-rule="evenodd" clip-rule="evenodd" d="M179.123 52.4334C177.594 52.8152 175.554 53.4327 174.59 53.8071C173.625 54.1808 171.227 55.9619 169.26 57.7646C167.132 59.7157 165.03 62.3555 164.065 64.2867C163.175 66.0715 162.447 67.8425 162.447 68.2229C162.447 68.6027 161.444 69.6853 160.219 70.6283L157.991 72.3427L159.364 74.5916C160.119 75.8283 160.933 76.9673 161.172 77.1231C161.411 77.2786 163.862 80.1288 166.617 83.4566C169.372 86.7848 171.923 90.0175 172.288 90.6408C172.652 91.2647 172.717 91.9062 172.432 92.0678C172.148 92.2283 170.793 91.2887 169.421 89.9791C168.049 88.6688 165.918 86.1275 164.687 84.3308C163.455 82.5339 162.447 80.8145 162.447 80.5093C162.447 80.2034 162.187 79.9538 161.87 79.9538C161.553 79.9538 161.119 79.4482 160.906 78.8307C160.692 78.2128 159.411 76.6843 158.061 75.4334C156.71 74.1828 155.13 73.1639 154.548 73.1683C153.967 73.1727 152.338 73.5447 150.928 73.9949C149.52 74.4448 147.296 75.3629 145.988 76.0344C144.679 76.7062 142.881 77.7288 141.992 78.3069C141.103 78.8853 139.893 80.033 139.304 80.858C138.372 82.1609 138.341 82.5464 139.067 83.8003C139.527 84.5936 141.943 86.628 144.436 88.32C146.931 90.0131 149.571 91.6887 150.304 92.0448C151.038 92.401 153.642 93.9636 156.092 95.5167C158.543 97.0698 160.312 98.5558 160.025 98.8192C159.738 99.0819 157.873 98.4975 155.88 97.5211C153.886 96.5437 149.06 93.7224 145.153 91.2512C141.247 88.7797 137.587 86.7551 137.021 86.7531C136.456 86.7501 135.185 87.7035 134.198 88.8711C133.211 90.0391 131.825 92.1491 131.118 93.5605C130.411 94.9717 129.505 97.2418 129.105 98.6047C128.704 99.9673 128.55 101.934 128.764 102.974C128.977 104.014 129.462 104.865 129.843 104.865C130.224 104.865 130.374 105.013 130.177 105.194C129.98 105.375 129.233 105.236 128.518 104.886C127.489 104.381 126.842 104.452 125.415 105.224C124.423 105.762 122.913 107.377 122.06 108.814C121.096 110.437 120.349 112.849 120.089 115.176C119.727 118.409 119.866 119.302 121.091 121.662C121.873 123.167 123.367 125.545 124.413 126.946C125.458 128.347 126.667 130.105 127.098 130.852C127.529 131.599 127.751 132.329 127.591 132.476C127.431 132.622 126.94 132.394 126.498 131.967C126.056 131.541 124.994 130.173 124.138 128.927C123.28 127.682 122.03 125.682 121.359 124.482C120.688 123.282 119.457 121.804 118.624 121.196C117.427 120.323 116.584 120.171 114.609 120.472C113.234 120.681 110.393 121.883 108.295 123.142C106.197 124.402 104.334 125.947 104.155 126.575C103.976 127.203 103.995 130.557 104.198 134.03C104.431 138.015 104.329 140.734 103.921 141.403C103.393 142.266 103.201 141.841 102.876 139.091C102.657 137.238 102.213 134.653 101.889 133.348C101.566 132.042 101.301 130.213 101.301 129.284C101.301 128.133 100.782 127.221 99.6739 126.421C98.7521 125.756 97.1359 125.248 95.9464 125.248C94.7912 125.248 93.1892 125.642 92.3862 126.124C91.5835 126.607 90.6401 127.689 90.2907 128.531C89.9416 129.371 89.4644 131.334 89.2303 132.891C88.8975 135.109 88.7002 135.468 88.3211 134.551C88.055 133.908 87.8368 131.777 87.8368 129.816C87.8368 127.569 87.5288 125.974 87.003 125.503C86.544 125.092 84.3244 123.847 82.0695 122.737C79.8145 121.627 77.1234 120.718 76.0894 120.718C74.7197 120.718 73.8631 121.164 72.9322 122.362C72.1774 123.334 71.6526 124.897 71.6492 126.184C71.6469 127.381 71.4691 129.699 71.2546 131.334C70.9811 133.421 70.5926 134.306 69.9508 134.306C69.1713 134.306 69.1012 133.358 69.4749 127.876L69.9126 121.446L68.2624 120.256C67.3551 119.602 66.0654 118.908 65.3976 118.713C64.711 118.513 63.5251 118.754 62.6691 119.269C61.7568 119.817 61.1551 120.719 61.1551 121.54C61.1551 122.289 60.7575 123.266 60.2715 123.712C59.7852 124.158 59.2671 125.386 59.1207 126.442C58.9737 127.497 58.9764 126.534 59.1265 124.302C59.287 121.907 59.1164 119.76 58.7113 119.065C58.0924 118.006 57.4631 117.887 52.4411 117.887C48.1191 117.887 45.8165 118.208 42.2408 119.308C39.7012 120.09 36.9558 121.13 36.1406 121.62C35.2105 122.178 34.1282 122.365 33.2377 122.12C32.457 121.906 30.5306 120.586 28.9569 119.188C27.1349 117.569 25.6773 116.724 24.9423 116.862C24.0696 117.026 23.8374 117.485 23.9893 118.748C24.0992 119.666 25.182 121.684 26.3956 123.232C27.8946 125.145 28.6963 126.871 28.8982 128.62C29.0619 130.034 29.6202 131.638 30.1391 132.183C30.6578 132.728 31.4342 133.174 31.8629 133.174C32.2921 133.174 33.8263 132.132 35.2728 130.858C37.4283 128.959 38.2108 128.599 39.6172 128.857C40.5609 129.03 42.084 129.753 43.0017 130.465C43.9197 131.176 47.3865 134.138 50.7056 137.046C54.0253 139.954 57.6651 142.973 58.7939 143.755C59.9224 144.537 63.2088 146.201 66.0961 147.452C68.9838 148.703 71.9018 149.931 72.5814 150.181C73.2607 150.432 75.0674 151.013 76.5959 151.472C78.1248 151.931 80.487 152.565 81.8459 152.88C83.2047 153.195 85.8374 153.769 87.6971 154.155C89.5568 154.542 94.1838 154.85 97.9791 154.84C101.774 154.831 106.367 154.518 108.186 154.145C110.004 153.772 113.299 152.952 115.507 152.322C117.715 151.693 120.494 150.8 121.683 150.338C122.872 149.876 124.262 149.305 124.771 149.069C125.281 148.834 127.036 147.96 128.671 147.126C130.307 146.292 133.115 144.616 134.911 143.399C136.707 142.183 139.556 139.576 141.243 137.606C142.931 135.635 144.9 133.132 145.619 132.041C146.338 130.952 148.435 127.257 150.279 123.832C152.122 120.407 154.412 116.086 155.367 114.231C156.323 112.376 158.262 109.828 159.678 108.57C161.093 107.311 163.338 105.721 164.665 105.037C165.993 104.353 168.583 103.128 170.423 102.314C172.261 101.499 174.902 100.47 176.29 100.026C177.678 99.5831 179.582 99.2165 180.522 99.2121C181.78 99.2057 182.55 98.7194 183.453 97.3636C184.126 96.3518 184.678 94.8435 184.679 94.0125C184.68 93.1811 184.261 91.0155 183.747 89.2C183.234 87.3841 182.466 85.0071 182.041 83.917C181.616 82.8273 180.626 80.9022 179.84 79.6384C179.055 78.3754 177.877 77.0357 177.224 76.6617C176.235 76.0961 176.034 76.1346 176.034 76.889C176.034 77.3885 176.531 78.4738 177.138 79.3005C177.744 80.1271 178.566 81.4401 178.963 82.2185C179.36 82.9969 180.089 84.5659 180.584 85.7049C181.078 86.8442 181.675 89.4236 181.91 91.4364C182.189 93.8199 182.093 95.5174 181.635 96.3008C181.237 96.9821 180.328 97.5052 179.54 97.5052C178.775 97.5052 176.7 97.9727 174.928 98.5447C173.156 99.1163 171.523 99.7534 171.297 99.9602C171.072 100.167 170.527 100.336 170.086 100.336C169.645 100.336 167.247 101.47 164.756 102.856C162.266 104.241 159.124 106.399 157.773 107.649C156.423 108.899 154.589 111.269 153.698 112.914C152.807 114.559 151.316 117.434 150.384 119.303C149.453 121.171 147.99 123.974 147.133 125.531C146.277 127.087 144.341 130.128 142.832 132.289C141.322 134.449 138.63 137.542 136.848 139.162C135.066 140.782 132.384 142.821 130.888 143.692C129.392 144.563 126.037 146.247 123.433 147.434C120.828 148.621 118.392 149.593 118.02 149.593C117.648 149.593 116.86 149.836 116.27 150.133C115.68 150.43 113.391 151.051 111.183 151.513C108.975 151.975 105.084 152.656 102.537 153.026C98.4519 153.62 97.0644 153.559 90.8013 152.513C86.8951 151.861 82.5868 151.099 81.2283 150.82C79.8695 150.541 76.8388 149.637 74.4934 148.812C72.1484 147.988 68.3963 146.505 66.1555 145.517C63.9147 144.53 60.831 142.818 59.3022 141.714C57.7737 140.61 53.7919 137.281 50.4543 134.317C47.1164 131.353 43.3642 128.356 42.116 127.657C40.8678 126.957 39.3541 126.384 38.7524 126.382C38.1504 126.381 36.4519 127.399 34.9774 128.645C33.5033 129.89 32.1198 130.909 31.903 130.909C31.6862 130.909 31.5089 130.008 31.5089 128.908C31.5089 127.806 31.029 126.214 30.4423 125.369C29.8555 124.524 29.0996 123.655 28.7617 123.438C28.4239 123.222 28.3485 122.86 28.5937 122.635C28.8396 122.41 29.7666 122.582 30.6542 123.018C31.5417 123.453 33.2778 123.784 34.513 123.753C35.7484 123.722 37.8361 123.14 39.1528 122.46C40.4695 121.78 42.832 120.96 44.4027 120.638C45.9734 120.316 49.4567 119.918 52.144 119.754L57.029 119.458L56.6182 126.898C56.261 133.37 56.3339 134.384 57.1787 134.681C57.7133 134.869 58.4563 134.742 58.8297 134.4C59.2034 134.057 59.8755 132.812 60.3234 131.635C60.7703 130.457 61.141 129.058 61.146 128.525C61.1508 127.993 61.629 126.146 62.2084 124.422C62.8752 122.437 63.6789 121.165 64.3997 120.956C65.026 120.774 65.9413 120.932 66.4347 121.307C67.1339 121.839 67.3315 123.6 67.3315 129.308C67.3315 134.761 67.5717 137.053 68.2742 138.298C68.7922 139.216 69.6401 139.968 70.1585 139.968C70.6766 139.968 71.4664 139.14 71.9137 138.128C72.3615 137.116 72.8907 134.045 73.0904 131.303C73.289 128.561 73.7986 125.44 74.2219 124.367C74.6448 123.294 75.3389 122.417 75.7646 122.417C76.1895 122.417 77.3157 122.728 78.2654 123.109C79.2155 123.489 81.2863 124.515 82.8668 125.389C84.4472 126.261 85.889 127.33 86.0698 127.762C86.2513 128.196 85.9858 131.271 85.4799 134.598C84.974 137.926 84.6442 141.705 84.7467 142.997C84.9012 144.939 85.175 145.378 86.3224 145.527C87.3612 145.662 87.8887 145.306 88.4145 144.112C88.8017 143.234 89.3723 141.369 89.6836 139.968C89.9949 138.567 90.4637 136.146 90.7261 134.589C90.9882 133.032 91.6378 130.838 92.1703 129.713C92.8378 128.302 93.6327 127.581 94.7322 127.388C95.6084 127.235 96.9575 127.398 97.7295 127.75C98.7973 128.238 99.2327 129.066 99.5491 131.207C99.7774 132.756 100.315 136.28 100.743 139.039C101.171 141.798 101.959 144.548 102.492 145.151C103.363 146.135 103.59 146.162 104.698 145.417C105.849 144.645 105.925 144.006 105.807 136.107C105.698 128.815 105.828 127.473 106.733 126.527C107.313 125.922 109.143 124.736 110.801 123.891C112.684 122.933 114.52 122.421 115.69 122.527C117.303 122.676 118.014 123.366 120.821 127.512C122.613 130.159 125.094 133.136 126.334 134.127C127.574 135.119 128.959 135.8 129.411 135.64C129.864 135.481 130.387 134.985 130.574 134.539C130.762 134.092 130.585 133.029 130.183 132.176C129.781 131.323 127.843 128.279 125.876 125.409C122.484 120.459 122.301 120.006 122.301 116.561C122.301 114.564 122.713 112.071 123.217 111.021C123.721 109.97 124.541 108.634 125.04 108.05C125.539 107.466 126.682 106.989 127.579 106.989C128.502 106.989 130.865 108.047 133.013 109.423C135.104 110.762 138.94 113.212 141.537 114.868C144.133 116.524 146.902 117.945 147.688 118.025C148.675 118.125 149.192 117.835 149.362 117.086C149.51 116.43 149.03 115.581 148.152 114.94C147.352 114.356 143.918 112.068 140.521 109.855C137.124 107.641 133.58 105.183 132.646 104.393C131.363 103.306 130.947 102.426 130.947 100.79C130.947 99.4634 131.813 96.9747 133.18 94.369C134.408 92.0297 135.973 89.8408 136.656 89.5052C137.68 89.003 138.399 89.2226 140.753 90.7565C142.324 91.7801 145.832 93.9916 148.55 95.6712C151.267 97.3511 154.657 99.2155 156.082 99.8138C157.507 100.412 159.488 100.902 160.484 100.902C161.481 100.902 162.616 100.548 163.007 100.116C163.563 99.5025 163.385 98.9669 162.194 97.6695C161.355 96.7561 159.61 95.3605 158.315 94.5683C157.021 93.7764 153.46 91.6317 150.403 89.803C147.346 87.9737 144.08 85.859 143.146 85.1039C142.212 84.348 141.447 83.1794 141.447 82.5066C141.447 81.834 142.072 80.7902 142.837 80.1865C143.601 79.5835 145.199 78.6023 146.388 78.0067C147.577 77.4104 148.967 76.7477 149.477 76.5329C149.986 76.318 151.305 75.8759 152.409 75.5501C154.045 75.0671 154.655 75.1356 155.714 75.9227C156.43 76.4536 159.419 80.1774 162.356 84.198C165.678 88.746 168.706 92.2125 170.367 93.372C172.524 94.8786 173.264 95.1244 174.227 94.6523C174.881 94.3312 175.417 93.5754 175.417 92.973C175.417 92.3706 174.834 90.9278 174.123 89.7663C173.411 88.605 171.601 86.1912 170.099 84.4023C168.598 82.6138 167.014 80.8172 166.582 80.4101C166.149 80.0037 164.631 78.172 163.208 76.3406C161.785 74.5089 160.789 72.7622 160.994 72.4583C161.199 72.1541 162.374 72.031 163.605 72.1841C164.836 72.3376 166.539 72.29 167.388 72.0786C168.362 71.8354 168.932 71.287 168.932 70.5922C168.932 69.8142 168.387 69.4003 167.079 69.1824C165.425 68.9072 165.243 68.6769 165.385 67.0344C165.474 66.0226 166.306 64.1204 167.236 62.8081C168.166 61.4951 169.624 59.7636 170.475 58.9602C171.327 58.1568 173.353 56.8189 174.978 55.9878C176.602 55.1561 178.885 54.4762 180.05 54.4762H182.168L178.294 58.0148C176.163 59.9612 173.652 62.8924 172.715 64.5292C171.732 66.2479 171.095 68.1595 171.207 69.0539C171.327 70.0115 171.83 70.6765 172.524 70.7976C173.267 70.9268 175.668 69.1949 179.627 65.6755C184.399 61.4327 186.256 60.1639 188.812 59.3986C190.574 58.8708 192.728 58.4394 193.599 58.4394C194.469 58.4394 195.181 58.632 195.181 58.8674C195.181 59.1029 194.278 59.6543 193.174 60.0927C192.069 60.5315 189.681 61.7521 187.866 62.8057C186.051 63.8587 183.202 65.89 181.535 67.319C179.869 68.748 178.505 70.2671 178.505 70.6951C178.505 71.1227 179.798 72.0432 181.379 72.741L184.253 74.0091L184.369 80.5258C184.433 84.1099 184.781 87.5497 185.141 88.169C185.502 88.7889 186.147 90.3814 186.575 91.7083C187.004 93.0351 188.289 95.1221 189.431 96.345C190.574 97.5686 192.377 98.9669 193.439 99.4526C194.502 99.9386 196.536 100.336 197.96 100.336C199.683 100.336 200.89 99.9899 201.57 99.3005C202.222 98.6408 202.593 97.2826 202.593 95.5575C202.593 93.5538 202.046 91.9221 200.492 89.2843C199.337 87.3231 197.202 84.2307 195.749 82.4115C194.295 80.5929 192.816 78.9275 192.463 78.7106C192.109 78.4944 192.021 78.1329 192.266 77.9076C192.512 77.683 193.391 77.8317 194.221 78.2384C195.05 78.6455 197.203 80.3116 199.006 81.9406C200.809 83.57 203.326 86.5221 204.6 88.5018C206.408 91.3113 206.916 92.6961 206.916 94.8141C206.916 96.6894 206.466 98.1804 205.46 99.6425C204.659 100.805 203.291 102.106 202.421 102.533C201.28 103.093 199.75 103.201 196.929 102.921C194.779 102.707 191.58 102.398 189.821 102.233C186.748 101.946 186.584 102.002 185.652 103.655C185.118 104.601 184.677 105.962 184.672 106.677C184.666 107.393 184.403 108.354 184.087 108.813C183.581 109.546 183.478 109.546 183.222 108.813C183.062 108.354 182.766 107.286 182.564 106.439C182.362 105.591 181.609 104.609 180.89 104.257C180.056 103.848 178.198 103.753 175.748 103.993C173.638 104.2 171.033 104.86 169.958 105.459C168.354 106.353 168.005 106.907 168.005 108.565C168.005 109.675 168.383 111.271 168.845 112.112C169.307 112.953 169.868 114.342 170.092 115.198C170.375 116.277 170.259 116.751 169.716 116.743C169.284 116.736 168.193 115.773 167.29 114.602C166.387 113.431 164.918 112.115 164.026 111.677C162.563 110.959 162.282 110.992 161.165 112.017C160.468 112.655 159.399 115.119 158.723 117.643C158.061 120.113 157.517 122.741 157.513 123.483C157.509 124.226 157.198 125.882 156.821 127.163C156.445 128.445 155.407 130.895 154.514 132.608C153.622 134.32 152.024 137.048 150.964 138.668C149.903 140.288 148.678 142.785 148.24 144.216C147.596 146.328 147.594 147.266 148.232 149.196C148.665 150.504 149.4 152.377 149.865 153.359C150.331 154.34 150.712 155.535 150.712 156.014C150.712 156.494 150.437 157.041 150.102 157.231C149.767 157.421 147.407 155.621 144.858 153.23C140.62 149.256 140.061 148.913 138.335 149.229C137.297 149.42 135.141 150.398 133.543 151.403C131.946 152.408 129.319 154.438 127.705 155.914C125.005 158.384 124.773 158.814 124.798 161.314C124.813 162.808 125.066 165.173 125.359 166.57C125.681 168.096 125.661 169.508 125.311 170.109C124.99 170.658 124.528 171.107 124.285 171.107C124.04 171.107 122.854 169.642 121.647 167.852C120.441 166.061 118.968 163.638 118.374 162.467C117.781 161.295 116.625 159.935 115.805 159.442C114.924 158.914 112.346 158.426 109.507 158.251C106.862 158.087 102.23 158.233 99.2135 158.574C96.197 158.915 92.7231 159.646 91.4931 160.197C89.6873 161.007 89.1568 161.635 88.7349 163.464C88.4475 164.71 88.0944 166.302 87.9511 167.002C87.7885 167.795 87.2445 168.276 86.5113 168.276C85.8631 168.276 84.7575 167.606 84.0546 166.787C83.3518 165.968 82.4782 164.283 82.114 163.042C81.7494 161.801 80.7997 160.189 80.0034 159.459C79.2067 158.728 77.7764 157.952 76.8246 157.733C75.8722 157.514 74.8061 157.117 74.4553 156.849C74.1039 156.582 71.8118 155.095 69.3615 153.545C66.0796 151.467 64.3329 150.725 62.7278 150.725C60.9194 150.725 60.3116 151.06 59.1535 152.694C58.3865 153.777 57.3636 154.805 56.8813 154.978C56.399 155.151 55.7774 154.966 55.5008 154.566C55.2243 154.166 54.9936 151.992 54.9882 149.734C54.9787 145.712 54.9302 145.585 52.5764 143.491C51.2553 142.316 48.6749 140.635 46.8428 139.756C45.0105 138.878 42.8567 138.247 42.0573 138.355C41.1558 138.478 40.172 139.292 39.4671 140.501C38.8428 141.572 37.9224 142.824 37.4216 143.283C36.6519 143.989 36.3568 143.998 35.5008 143.348C34.801 142.815 34.5922 142.047 34.8233 140.849C35.0061 139.897 35.34 138.29 35.5642 137.279C35.8256 136.101 35.7305 135.438 35.3005 135.438C34.9312 135.438 34.2051 136.191 33.6867 137.109C33.1685 138.028 32.7442 139.899 32.7442 141.267C32.7442 142.959 33.1061 144.056 33.8739 144.692C34.4951 145.208 35.486 145.63 36.0755 145.63C36.6661 145.63 37.6685 145.374 38.3049 145.063C38.9403 144.751 40.0847 143.477 40.8482 142.232C41.6115 140.986 42.5325 139.975 42.8944 139.983C43.2563 139.992 45.4981 141.202 47.8762 142.673L52.1997 145.346L52.5764 149.593C52.7831 151.928 53.1545 154.381 53.4003 155.043C53.6465 155.705 54.4806 156.557 55.2543 156.937C56.3551 157.477 56.9207 157.478 57.8563 156.942C58.5137 156.566 59.5147 155.518 60.0806 154.614C60.6469 153.71 61.5562 152.813 62.1008 152.622C62.6455 152.43 63.8371 152.624 64.7481 153.052C65.6597 153.48 68.2118 154.998 70.4196 156.425C72.6277 157.853 75.4233 159.436 76.6314 159.943C77.8398 160.45 79.1383 161.45 79.5167 162.165C79.8961 162.879 80.3659 164.145 80.5626 164.977C80.7588 165.809 81.6388 167.275 82.5184 168.233C83.7302 169.553 84.629 169.975 86.2304 169.975C87.5825 169.975 88.7298 169.564 89.4179 168.832C90.0091 168.204 90.6317 166.484 90.8013 165.011C91.1059 162.37 91.1541 162.318 94.1983 161.386C96.4381 160.701 99.5946 160.428 105.683 160.395C112.949 160.356 114.207 160.484 115.021 161.341C115.538 161.885 117.038 164.208 118.354 166.502C119.671 168.795 121.506 171.257 122.434 171.973C123.495 172.791 124.593 173.161 125.392 172.969C126.091 172.801 126.957 172.161 127.316 171.545C127.684 170.916 127.81 169.212 127.606 167.653C127.405 166.127 127.08 163.658 126.882 162.165L126.522 159.449L130.298 156.222C132.375 154.447 135.22 152.459 136.619 151.805L139.165 150.614L143.766 154.916C146.788 157.74 148.845 159.218 149.754 159.218C150.515 159.218 151.642 158.707 152.258 158.083C153.268 157.06 153.297 156.712 152.552 154.544C152.096 153.223 151.427 151.783 151.064 151.346C150.7 150.909 150.416 148.87 150.431 146.816C150.452 144.109 150.809 142.537 151.726 141.1C152.423 140.01 153.888 137.665 154.983 135.889C156.078 134.114 157.51 131.315 158.166 129.67C158.822 128.025 159.359 126.044 159.359 125.268C159.359 124.493 159.812 121.923 160.367 119.559C160.92 117.195 161.769 114.769 162.253 114.168C163.088 113.128 163.288 113.235 166.34 116.346C168.105 118.145 169.989 119.61 170.526 119.602C171.063 119.593 171.843 119.003 172.258 118.291C172.895 117.2 172.765 116.362 171.436 112.985C170.569 110.779 169.858 108.694 169.858 108.35C169.858 108.006 170.679 107.337 171.68 106.862C172.683 106.386 175.045 105.998 176.93 105.998H180.358L180.378 108.404C180.388 109.727 180.766 111.256 181.218 111.801C181.669 112.346 182.307 112.792 182.634 112.792C182.963 112.792 183.799 112.219 184.492 111.518C185.187 110.817 185.94 109.48 186.166 108.545C186.392 107.611 186.888 106.125 187.269 105.243C187.903 103.775 188.149 103.673 190.181 104.027C191.402 104.24 194.041 104.629 196.045 104.892C198.049 105.155 200.425 105.234 201.323 105.07C202.223 104.905 203.85 104.057 204.938 103.185C206.028 102.313 207.336 100.686 207.845 99.5706C208.353 98.4546 208.769 96.2209 208.769 94.6074C208.769 92.5642 208.259 90.7184 207.091 88.5292C206.094 86.6614 203.636 83.7652 201.037 81.3953C198.63 79.2013 196.258 77.1426 195.767 76.8212C195.275 76.4995 193.858 75.7993 192.617 75.2644C191.377 74.7298 189.923 74.2921 189.387 74.2921C188.85 74.2921 186.877 73.3926 185.002 72.2931C183.127 71.1936 181.593 70.1518 181.593 69.9781C181.593 69.8037 182.218 69.1598 182.983 68.5467C183.747 67.9335 186.639 66.0452 189.408 64.3507C192.178 62.6566 194.726 61.2701 195.07 61.2701C195.414 61.2701 196.982 60.7646 198.554 60.1474C201.111 59.1427 201.342 58.9042 200.745 57.883C200.162 56.8836 199.46 56.741 195.121 56.741C191.031 56.741 189.549 57.0064 186.65 58.2577C184.494 59.1889 181.492 61.2725 178.875 63.655C176.531 65.7895 174.385 67.4637 174.106 67.3754C173.827 67.287 174.216 66.1018 174.971 64.7413C175.726 63.3808 178.091 60.7693 180.226 58.9383C182.362 57.1066 184.506 55.6084 184.991 55.6084C185.476 55.6084 186.155 55.1254 186.5 54.5356C186.954 53.7572 186.901 53.2917 186.308 52.8405C185.858 52.4981 184.683 52.1106 183.696 51.9794C182.709 51.8475 180.651 52.0519 179.123 52.4334ZM190.335 79.2462C191.858 80.7254 194.118 83.3922 195.357 85.1723C196.596 86.9521 198.314 89.6823 199.175 91.2394C200.036 92.7963 200.74 94.7919 200.74 95.6745C200.74 96.5568 200.406 97.5845 199.999 97.9582C199.591 98.3319 198.573 98.6374 197.737 98.6374C196.9 98.6374 195.072 98.0226 193.674 97.2711C191.952 96.3467 190.655 95.032 189.658 93.2027C188.848 91.716 187.675 88.7177 187.051 86.5389C186.427 84.3602 185.917 81.3929 185.917 79.9447C185.917 78.4964 186.102 77.1416 186.328 76.9346C186.554 76.7268 186.926 76.5568 187.152 76.5568C187.379 76.5568 188.811 77.7666 190.335 79.2462ZM28.2151 121.662C27.9885 121.869 27.6179 121.869 27.3912 121.662C27.1652 121.454 27.3505 121.284 27.8032 121.284C28.2559 121.284 28.4412 121.454 28.2151 121.662ZM87.5177 138.942C87.3204 139.393 87.174 139.259 87.1443 138.599C87.118 138.003 87.2637 137.669 87.4688 137.857C87.6739 138.045 87.6961 138.533 87.5177 138.942Z" fill="#16314F"/>
</svg>
