<svg width="298" height="323" viewBox="0 0 298 323" fill="none" xmlns="http://www.w3.org/2000/svg">
<path d="M76.1146 31.084C76.1146 32.3494 76.5719 38.2033 77.1311 44.0911C82.3704 99.3116 112.182 147.63 137.371 141.73L76.1146 31.084ZM76.1146 31.084C76.1136 29.0203 74.7216 29.7298 62.6083 37.9658M76.1146 31.084L62.6083 37.9658M62.6083 37.9658C45.729 49.443 41.3144 53.3149 37.8425 59.6897M62.6083 37.9658L37.8425 59.6897M37.8425 59.6897C34.2408 66.304 33.5278 72.7267 35.5299 80.5375M37.8425 59.6897L35.5299 80.5375M35.5299 80.5375C39.558 96.2499 58.3136 125.034 74.7476 140.724L35.5299 80.5375ZM117.225 25.3149L117.225 25.315C114.972 27.3397 113.137 29.2266 112.022 31.4863C110.879 33.8056 110.562 36.369 111.027 39.6328C111.486 42.8517 112.715 46.827 114.725 52.0403C116.74 57.268 119.576 63.8323 123.297 72.2503C131.68 91.2179 136.995 103.845 140.215 112.816C143.438 121.797 144.511 126.985 144.511 131.114C144.511 134.007 143.933 135.905 142.848 137.238C141.757 138.579 139.963 139.582 137.029 140.269C131.283 141.615 125.135 139.911 118.938 135.506C112.735 131.097 106.61 124.061 101.046 115.043C89.924 97.0156 81.2248 71.3568 78.6244 43.9494L78.6244 43.9492C78.062 38.0278 77.6146 32.2605 77.6146 31.084V31.0833C77.6144 30.7812 77.5949 30.3409 77.4323 29.9147C77.2383 29.4063 76.8268 28.8982 76.1343 28.6926C75.5637 28.5231 75.0105 28.6279 74.6161 28.7425C74.191 28.866 73.7244 29.0703 73.2226 29.326C71.254 30.3291 67.7799 32.6357 61.7649 36.7253L61.7649 36.7253C44.9289 48.1731 40.1971 52.2303 36.5252 58.9723L36.5252 58.9724C32.7286 65.9445 31.9879 72.7601 34.0769 80.9099L35.5237 80.5391L34.0769 80.91C36.153 89.0082 41.9578 100.298 49.2298 111.458C56.5197 122.646 65.3884 133.862 73.7118 141.809C81.5703 149.312 85.7657 152.277 99.2397 159.918C106.521 164.048 111.748 168.009 114.695 171.387C116.172 173.082 116.986 174.528 117.273 175.687C117.542 176.775 117.35 177.581 116.79 178.255C116.466 178.645 115.549 179.088 113.49 179.025C111.528 178.965 108.923 178.455 105.799 177.487C99.5691 175.556 91.5592 171.894 83.0563 166.873C60.9033 153.79 44.5653 138.407 34.5732 121.362C30.2132 113.924 26.6051 108.02 23.5805 103.507C20.5704 99.0145 18.0821 95.812 15.9547 93.8424C13.899 91.9392 11.7276 90.7769 9.54182 91.5385C8.50193 91.9008 7.67404 92.6406 6.99945 93.5306C6.32502 94.4204 5.7389 95.5454 5.20229 96.8289C4.66081 98.1241 4.23436 99.977 3.88888 102.18C3.53925 104.409 3.25839 107.095 3.04241 110.109C2.61033 116.14 2.43317 123.557 2.50004 131.415C2.63367 147.116 3.74287 164.693 5.77971 176.6C13.4496 221.436 39.0355 255.374 72.37 263.896C86.2369 267.44 99.377 265.806 112.103 258.964L119.236 255.13L119.815 254.819L119.979 254.181L120.121 253.627C120.469 256.827 121.056 263.449 121.518 269.463C122.133 277.466 123.1 283.109 125.275 287.989C127.461 292.89 130.806 296.892 135.933 301.725C149.41 314.431 167.409 321.01 188.446 321.054C198.188 321.074 206.358 319.972 213.969 317.347C221.581 314.721 228.557 310.597 235.941 304.665C248.726 294.393 262.004 278.869 271.755 264.199C276.634 256.859 280.659 249.69 283.304 243.457C284.626 240.341 285.616 237.429 286.19 234.828C286.76 232.243 286.941 229.868 286.559 227.869C286.363 226.847 285.819 225.769 285.182 224.851C284.538 223.921 283.704 223.016 282.803 222.386C280.621 220.86 277.079 219.296 273.245 217.994C269.383 216.683 265.088 215.592 261.33 215.06C257.709 214.548 255.481 214.29 252.374 215.048C250.817 215.428 249.036 216.064 246.703 217.024C246.871 216.906 247.027 216.789 247.17 216.674C247.42 216.473 247.675 216.239 247.881 215.976C248.059 215.749 248.364 215.296 248.364 214.687C248.364 214.072 248.055 213.63 247.812 213.381C247.572 213.134 247.292 212.961 247.057 212.839C246.834 212.723 246.582 212.617 246.309 212.519L252.742 213.247L253.244 213.304L253.679 213.044L261.821 208.185L261.052 206.896L261.821 208.184C267.258 204.938 273.481 199.889 278.784 194.73C284.054 189.603 288.585 184.204 290.482 180.228C295.004 170.751 296.608 162.464 296.048 151.564C295.762 145.991 294.475 138.179 292.937 131.372C292.167 127.963 291.326 124.774 290.506 122.218C290.095 120.941 289.684 119.802 289.282 118.865C288.892 117.956 288.467 117.131 288.002 116.556C287.213 115.582 286.209 114.727 284.857 114.543C283.518 114.36 282.224 114.888 280.971 115.749C278.51 117.439 275.283 121.072 270.568 126.93C257.089 143.675 243.195 157.251 230.347 166.627C217.448 176.04 205.798 181.076 196.771 181.076C193.681 181.076 192.485 181.023 191.435 180.559C190.349 180.079 189.321 179.117 186.871 176.668C184.717 174.516 183.668 173.326 183.11 172.285C182.606 171.347 182.46 170.452 182.46 168.698C182.46 166.063 182.893 164.105 184.056 162.101C185.256 160.033 187.283 157.827 190.667 154.809L189.669 153.69L190.667 154.809C194.045 151.796 200.331 147.935 208.421 143.851C216.476 139.784 226.211 135.549 236.402 131.765C253.68 125.351 261.447 121.579 268.408 116.08C272.995 112.457 276.026 108.172 277.41 103.143C278.79 98.1303 278.497 92.5173 276.681 86.2869C275.269 81.4443 271.784 74.3494 268.344 68.5104C266.618 65.5796 264.871 62.9114 263.362 60.9586C262.61 59.9871 261.887 59.1519 261.228 58.5449C260.9 58.2422 260.553 57.9635 260.197 57.7525C259.864 57.5553 259.383 57.3325 258.821 57.3325C258.214 57.3325 257.744 57.6277 257.489 57.8137C257.196 58.0288 256.918 58.3048 256.661 58.5943C256.143 59.1783 255.56 59.992 254.928 60.9779C253.657 62.9617 252.079 65.821 250.289 69.3862L250.288 69.3863C242.801 84.3039 236.145 95.0887 230.068 102.125C223.96 109.197 218.666 112.219 213.921 112.219C212.048 112.219 210.945 112.073 209.932 111.664C208.892 111.244 207.818 110.495 206.103 109.027L206.103 109.027C203.356 106.678 201.733 104.282 201.065 101.856C200.402 99.45 200.633 96.8527 201.887 93.9952C204.438 88.1789 211.135 81.493 222.403 73.9376C230.89 68.2475 236.378 64.0499 239.728 60.186C243.167 56.2183 244.373 52.5768 244.348 48.136C244.322 43.7381 243.03 39.7233 239.6 34.623C236.209 29.581 230.672 23.3944 222.08 14.6224L221.009 15.672L222.08 14.6224L210.596 2.89672L210.143 2.43396L209.495 2.44657L203.451 2.56433L203.48 4.06404L203.451 2.56433C200.045 2.63079 192.769 3.2925 187.252 4.03129C146.698 9.45885 129.074 14.6684 117.225 25.3149ZM120.419 252.461L121.519 248.168C121.312 249.81 121.328 251.12 121.48 252.327L120.419 252.461ZM185.806 79.8156C186.54 78.2392 187.222 76.8426 187.84 75.6348C184.095 90.3611 177.905 105.824 153.38 163.024C150.322 170.157 147.531 176.682 144.985 182.657C146.358 179.058 147.821 175.224 149.382 171.136C168.31 121.557 179.921 92.4504 185.806 79.8156Z" stroke="#DCB1A8" stroke-opacity="0.25" stroke-width="3"/>
</svg>
