<svg width="499" height="482" viewBox="0 0 499 508" fill="none" xmlns="http://www.w3.org/2000/svg">
<path fill-rule="evenodd" clip-rule="evenodd" d="M268.703 39.0314C337.38 41.014 344.512 136.142 381.592 191.061C410.47 233.831 479.045 271.147 456.544 317.24C433.686 364.067 353.825 325.402 304.967 348.031C255.406 370.985 238.546 451.381 184.038 443.452C126.43 435.073 93.7125 370.986 85.8483 316.159C78.669 266.108 118.618 227.092 146.863 184.285C183.276 129.099 200.146 37.0523 268.703 39.0314Z" fill="#017260" fill-opacity="0.5"/>
<path d="M330.728 60.2543C330.593 60.1341 330.446 60.0897 330.403 60.0767C330.337 60.0572 330.276 60.0462 330.231 60.0395C330.14 60.0258 330.039 60.0186 329.942 60.0144C329.742 60.0057 329.48 60.0061 329.171 60.0132C328.549 60.0275 327.684 60.0702 326.645 60.1364C324.564 60.269 321.751 60.4978 318.708 60.7907C293.004 63.264 274.387 66.0621 260.864 69.7473C247.34 73.4326 238.821 78.0279 233.406 84.1547C231.295 86.5436 229.694 88.6651 228.864 91.151C228.029 93.6528 227.999 96.4436 228.858 100.145C230.561 107.487 235.841 118.696 245.822 138.914C252.965 153.382 257.303 162.687 259.756 169.274C262.205 175.85 262.748 179.648 262.36 183.116C261.837 187.801 259.711 190.434 256.764 191.539C253.747 192.67 249.656 192.286 245.07 190.448C235.918 186.779 225.273 177.502 218.56 164.716C213.023 154.17 208.013 140.346 204.461 126.765C200.907 113.177 198.829 99.8941 199.119 90.4265C199.175 88.5937 199.19 87.152 199.109 86.0748C199.068 85.5353 199.001 85.0623 198.894 84.6642C198.788 84.2719 198.629 83.8998 198.368 83.6082C198.086 83.2942 197.716 83.1087 197.285 83.0666C196.886 83.0276 196.484 83.1162 196.106 83.2502C195.36 83.5147 194.45 84.0552 193.38 84.7452C191.551 85.9241 183.946 90.6806 176.478 95.3168L176.894 95.9278L176.478 95.3168C162.902 103.744 154.812 110.908 151.615 119.077C148.404 127.283 150.199 136.314 155.824 148.281C168.535 175.325 192.243 200.826 215.179 212.036C221.709 215.228 226.75 218.379 230.237 221.132C231.981 222.508 233.324 223.776 234.268 224.888C235.223 226.014 235.722 226.926 235.866 227.594C235.936 227.919 235.915 228.153 235.856 228.32C235.799 228.477 235.692 228.62 235.497 228.747C235.07 229.027 234.225 229.229 232.791 229.151C229.96 228.996 225.385 227.784 218.95 225.089C186.722 211.593 164.019 191.385 147.481 161.468C144.833 156.678 142.381 152.755 140.123 149.709C137.872 146.672 135.785 144.467 133.856 143.152C131.927 141.837 130.024 141.332 128.253 141.985C126.531 142.62 125.195 144.263 124.144 146.624C122.033 151.362 120.782 159.641 120.322 171.373C119.86 183.136 120.192 198.466 121.305 217.373C122.73 241.579 128.908 264.587 138.128 282.966C147.338 301.323 159.636 315.161 173.372 320.869C183.235 324.968 194.989 325.885 205.303 324.191C215.588 322.503 224.622 318.184 228.844 311.629C229.096 311.239 229.291 310.887 229.424 310.578C229.55 310.285 229.65 309.96 229.633 309.648C229.624 309.482 229.58 309.29 229.458 309.109C229.331 308.921 229.15 308.791 228.949 308.719C228.591 308.59 228.215 308.654 227.946 308.728C227.373 308.885 226.639 309.273 225.809 309.81C224.96 310.36 223.949 311.106 222.808 312.037C201.955 329.057 171.634 323.737 153.024 299.429C132.73 272.923 125.483 245.301 123.776 187.192C123.483 177.191 123.717 168.982 124.423 162.638C125.133 156.265 126.31 151.871 127.835 149.423C128.592 148.207 129.379 147.562 130.146 147.322C130.889 147.089 131.773 147.189 132.854 147.798C135.078 149.051 137.79 152.271 140.907 157.748C154.387 181.431 157.445 185.805 167.74 195.981C179.15 207.261 196.28 218.395 210.791 225.386C218.041 228.879 224.69 231.364 229.679 232.301C232.161 232.767 234.32 232.868 235.958 232.456C236.788 232.247 237.516 231.898 238.078 231.37C238.646 230.836 239.003 230.156 239.144 229.356C239.73 226.043 237.795 222.567 233.999 219.134C230.179 215.677 224.323 212.121 216.659 208.619C201.122 201.52 188.574 190.13 173.142 168.987L172.509 169.407L173.142 168.987C166.4 159.75 161.433 151.91 158.246 145.055C155.06 138.2 153.674 132.372 154.042 127.146C154.775 116.751 162.485 108.414 177.931 98.9645C184.314 95.0598 191.07 90.8092 192.937 89.5213L195.119 88.0167L195.328 95.1988L195.99 95.1758L195.328 95.1988C196.088 121.282 204.778 147.957 216.564 167.302C222.456 176.973 229.146 184.852 236.047 189.904C242.942 194.953 250.147 197.245 256.992 195.516C260.493 194.631 263.148 193.151 264.753 190.7C266.347 188.263 266.813 185.001 266.258 180.736C265.152 172.231 259.92 159.272 250.366 139.642C241.711 121.857 236.88 111.659 234.377 105.208C231.881 98.7736 231.753 96.1953 232.373 93.6047C233.676 88.165 238.717 83.1782 247.473 78.9013C256.209 74.6346 268.499 71.1473 284.009 68.6416L284.009 68.6415C288.106 67.9793 299.291 66.6144 309.526 65.4569C314.639 64.8787 319.507 64.3533 323.122 63.9944C324.93 63.8149 326.42 63.6775 327.47 63.5959C327.996 63.555 328.403 63.5289 328.681 63.5181C328.702 63.5173 328.721 63.5166 328.74 63.516C328.811 63.6195 328.899 63.7505 329 63.9044C329.255 64.2936 329.582 64.8122 329.918 65.3648C330.139 65.7285 330.692 66.3392 331.41 67.075C332.154 67.8376 333.145 68.8015 334.308 69.8989C336.636 72.0946 339.673 74.8397 342.859 77.6061C349.735 83.5772 354.786 88.8212 358.028 93.5793C361.269 98.3348 362.668 102.551 362.339 106.489C362.01 110.42 359.949 114.199 356.003 118.068C352.049 121.944 346.243 125.869 338.519 130.073C328.856 135.333 322.357 141.82 319.722 148.218C318.401 151.426 318.048 154.623 318.78 157.62C319.513 160.62 321.321 163.364 324.229 165.681C327.503 168.29 331.052 169.453 334.813 169.114C338.55 168.778 342.395 166.969 346.308 163.827C354.121 157.552 362.424 145.782 370.973 128.842C371.565 127.669 372.111 126.581 372.616 125.573C373.977 122.855 375.043 120.726 375.936 119.122C376.547 118.023 377.058 117.204 377.51 116.625C377.972 116.031 378.308 115.775 378.539 115.684C378.698 115.621 378.858 115.613 379.134 115.773C379.452 115.958 379.85 116.334 380.365 116.973C381.113 117.903 381.985 119.228 383.117 120.948C383.542 121.593 384.003 122.295 384.509 123.051L385.159 122.656L384.509 123.051C390.173 131.536 393.927 138.695 395.636 144.893C397.341 151.073 397.004 156.259 394.538 160.858C392.061 165.478 387.382 169.606 380.191 173.554C373.002 177.501 363.368 181.233 351.074 185.092C329.338 191.913 313.926 199.957 306.109 208.108C302.192 212.192 300.116 216.374 300.212 220.491C300.308 224.623 302.586 228.521 306.998 232.035C310.949 235.184 316.867 235.53 323.737 233.87C330.632 232.203 338.669 228.475 347.076 223.204C363.895 212.659 382.343 195.844 396.314 176.594C398.44 173.665 400.226 171.814 401.745 170.969C402.488 170.556 403.121 170.409 403.674 170.454C404.222 170.498 404.785 170.736 405.378 171.257C406.601 172.332 407.815 174.49 409.036 177.962C410.247 181.404 411.43 186.025 412.658 191.911C415.917 207.525 415.156 219.552 409.412 230.081C403.655 240.632 392.834 249.797 375.699 259.551C374.905 260.003 374.318 260.309 373.699 260.514C373.091 260.714 372.42 260.827 371.467 260.841C369.512 260.869 366.513 260.485 360.718 259.681C339.665 256.759 321.013 256.397 307.772 258.208C301.161 259.112 295.832 260.566 292.222 262.56C288.607 264.556 286.553 267.203 286.956 270.463C287.483 274.714 290.934 277.662 296.021 279.452C301.114 281.244 308.014 281.947 315.851 281.639C331.534 281.022 351.202 276.343 368.209 267.866L373.244 265.356L386.582 267.823C392.548 268.926 396.981 270.101 400.019 271.677C403.016 273.232 404.584 275.138 404.971 277.732C405.37 280.403 404.541 283.924 402.372 288.732C400.212 293.52 396.773 299.479 392.089 306.985C375.877 332.96 357.332 350.399 337.54 358.953C317.776 367.494 296.691 367.21 275.276 357.605C263.537 352.34 253.919 343.271 248.364 333.729C242.791 324.154 241.404 314.294 245.735 307.321C253.745 294.423 261.916 275.213 271.304 247.273C274.458 237.886 281.635 217.188 287.253 201.281C301.177 161.855 309.146 136.565 310.61 128.324C310.793 127.296 310.886 126.477 310.859 125.911C310.847 125.649 310.807 125.328 310.65 125.065C310.563 124.92 310.415 124.75 310.175 124.653C309.928 124.553 309.685 124.57 309.496 124.625C309.17 124.721 308.911 124.955 308.731 125.143C308.526 125.356 308.309 125.634 308.08 125.963C307.621 126.625 307.065 127.563 306.415 128.771C303.813 133.604 299.532 143.049 293.515 157.435C276.723 197.581 263.505 230.964 254.358 256.215C249.784 268.84 246.226 279.438 243.746 287.837C241.272 296.219 239.856 302.46 239.597 306.346L240.364 306.385L239.597 306.346L239.319 310.522L231.419 319.877C210.593 344.537 176.424 372.168 145.702 389.185C141.224 391.665 138.559 393.207 137.203 394.206C136.859 394.46 136.576 394.695 136.362 394.917C136.158 395.128 135.959 395.385 135.875 395.686C135.775 396.042 135.856 396.393 136.096 396.669C136.296 396.899 136.57 397.034 136.791 397.121C136.996 397.202 137.204 397.213 137.364 397.208C137.532 397.202 137.708 397.176 137.881 397.139C138.227 397.065 138.638 396.934 139.093 396.763C140.009 396.42 141.197 395.88 142.588 395.189C145.374 393.803 149.041 391.775 153.101 389.391C161.221 384.624 170.955 378.411 178.428 373.027C197.651 359.178 218.506 340.552 232.545 324.689L239.152 317.223L239.825 320.667C243.988 341.991 261.865 357.75 283.603 364.852C305.345 371.956 331.09 370.451 351.136 357.103C363.616 348.793 378.345 332.766 389.742 316.876C395.446 308.923 400.335 300.978 403.701 294.018C405.384 290.538 406.692 287.291 407.529 284.405C408.365 281.527 408.745 278.963 408.533 276.863C408.34 274.948 408.044 273.34 407.36 271.98C406.663 270.592 405.587 269.512 403.936 268.599C402.307 267.7 400.111 266.959 397.154 266.227C394.191 265.494 390.413 264.758 385.595 263.888C381.699 263.184 379.528 262.753 378.464 262.414C397.221 250.824 408.679 241.01 414.331 229.482C420.025 217.871 419.764 204.66 415.46 186.448C414.097 180.679 412.547 176.151 410.801 172.895C409.069 169.664 407.069 167.549 404.727 166.848C402.324 166.128 399.836 166.97 397.357 169.011C394.882 171.05 392.289 174.377 389.571 178.933C388.129 181.35 385.206 184.825 381.34 188.853C377.486 192.868 372.735 197.393 367.676 201.9C357.548 210.925 346.234 219.836 338.451 224.453C329.36 229.844 321.261 232.059 315.316 231.404C312.359 231.078 309.955 230.046 308.196 228.363C306.437 226.679 305.266 224.289 304.878 221.152C304.2 215.679 307.74 210.132 316.101 204.498C324.439 198.879 337.378 193.314 354.997 187.805C375.337 181.443 388.606 174.632 395.363 166.308C398.76 162.123 400.505 157.564 400.678 152.527C400.851 147.505 399.461 142.05 396.665 136.055C394.623 131.678 390.272 124.631 386.315 118.847C384.334 115.951 382.438 113.352 380.964 111.545C380.231 110.647 379.583 109.921 379.07 109.452C378.821 109.224 378.56 109.015 378.305 108.888C378.18 108.826 377.994 108.75 377.772 108.744C377.513 108.736 377.227 108.826 377.02 109.06C376.879 109.22 376.681 109.537 376.469 109.895C376.239 110.282 375.948 110.796 375.608 111.411C374.928 112.642 374.046 114.292 373.061 116.169C371.092 119.924 368.709 124.6 366.713 128.667L367.409 128.971L366.713 128.667C359.277 143.827 351.323 154.741 344.07 160.543C340.443 163.444 337.058 165.013 334.054 165.266C331.095 165.514 328.406 164.495 326.087 162.001C324.067 159.828 322.928 157.535 322.589 155.189C322.249 152.843 322.701 150.394 323.95 147.9C326.459 142.889 332.168 137.732 340.931 133.063C357.062 124.47 365.672 115.76 366.137 105.926C366.369 101.018 364.561 95.9407 360.827 90.5952C357.095 85.2525 351.412 79.6023 343.819 73.5269C340.198 70.6297 335.891 66.5622 334.256 64.5148C333.412 63.4578 332.601 62.4583 331.974 61.6989C331.661 61.3194 331.392 60.998 331.187 60.7586C331.004 60.5445 330.829 60.3439 330.728 60.2543ZM330.728 60.2543L330.2 60.7901L330.727 60.2529C330.727 60.2534 330.728 60.2538 330.728 60.2543ZM328.58 63.2986C328.58 63.2984 328.582 63.3004 328.586 63.3052C328.582 63.3012 328.58 63.2989 328.58 63.2986ZM335.088 261.062L335.133 260.332L335.088 261.062C340.383 261.312 348.596 262.013 355.599 262.739C359.099 263.101 362.289 263.469 364.654 263.788C365.568 263.911 366.353 264.027 366.983 264.131C366.38 264.45 365.635 264.829 364.821 265.228C351.296 271.856 336.383 276.083 323.368 277.545C316.861 278.275 310.849 278.312 305.733 277.622C300.608 276.93 296.44 275.517 293.567 273.392C292.208 272.387 291.407 271.457 291.033 270.628C290.671 269.828 290.694 269.1 291.038 268.404C291.397 267.678 292.135 266.927 293.316 266.188C294.491 265.452 296.055 264.76 297.986 264.134C305.732 261.621 318.956 260.298 335.088 261.062ZM244.969 300.58C244.789 300.91 244.622 301.213 244.467 301.488C244.651 300.58 244.903 299.445 245.214 298.086C250.049 276.939 266.447 232.731 294.638 164.896C296.305 160.886 297.896 157.057 299.244 153.809C298.78 155.282 298.275 156.863 297.733 158.531C295.36 165.831 289.957 181.602 285.725 193.573C281.491 205.55 274.135 226.754 269.378 240.694C259.611 269.316 255.072 280.916 248.955 292.908C247.24 296.271 245.934 298.806 244.969 300.58Z" fill="#16314F" stroke="#16314F" stroke-width="1.5"/>
</svg>
