<svg width="208" height="200" viewBox="0 0 208 200" fill="none" xmlns="http://www.w3.org/2000/svg">
<path fill-rule="evenodd" clip-rule="evenodd" d="M111.087 15.3667C138.125 16.1472 140.933 53.5992 155.532 75.2208C166.901 92.0594 193.899 106.751 185.04 124.898C176.041 143.333 144.6 128.111 125.364 137.02C105.852 146.057 99.2144 177.709 77.7545 174.587C55.0742 171.289 42.1933 146.057 39.0972 124.472C36.2707 104.767 51.9986 89.4063 63.1187 72.5531C77.4545 50.8264 84.0963 14.5875 111.087 15.3667Z" fill="#017260" fill-opacity="0.5"/>
<path d="M135.506 23.7221C135.453 23.6748 135.395 23.6573 135.379 23.6522C135.353 23.6445 135.329 23.6402 135.311 23.6376C135.275 23.6322 135.235 23.6293 135.197 23.6277C135.118 23.6243 135.015 23.6244 134.893 23.6272C134.649 23.6328 134.308 23.6497 133.899 23.6757C133.08 23.7279 131.972 23.818 130.774 23.9333C120.655 24.9071 113.325 26.0087 108.001 27.4595C102.677 28.9104 99.3226 30.7196 97.1907 33.1317C96.3596 34.0723 95.7293 34.9075 95.4025 35.8862C95.0738 36.8712 95.062 37.9699 95.4002 39.4271C96.0707 42.3177 98.1494 46.7307 102.079 54.6905C104.891 60.3866 106.599 64.05 107.565 66.6433C108.529 69.2323 108.743 70.7275 108.59 72.0929C108.384 73.9374 107.547 74.974 106.387 75.409C105.199 75.8543 103.588 75.7031 101.783 74.9795C98.1797 73.535 93.9888 69.8827 91.3458 64.8488C89.1659 60.6968 87.1935 55.2543 85.7951 49.9075C84.3958 44.5578 83.5777 39.3284 83.6919 35.601C83.714 34.8794 83.7199 34.3118 83.688 33.8877C83.6718 33.6753 83.6455 33.4891 83.6033 33.3323C83.5616 33.1779 83.499 33.0314 83.3962 32.9166C83.2852 32.793 83.1396 32.7199 82.9699 32.7034C82.8128 32.688 82.6545 32.7229 82.5057 32.7756C82.212 32.8798 81.8537 33.0926 81.4325 33.3642C80.7124 33.8284 77.7183 35.701 74.7781 37.5263C69.4332 40.8441 66.2482 43.6645 64.9896 46.8807C63.7254 50.1114 64.4321 53.6669 66.6466 58.3783C71.651 69.0256 80.9848 79.0653 90.0147 83.4787C92.5856 84.7354 94.5703 85.976 95.9431 87.0598C96.6297 87.6015 97.1584 88.1008 97.5301 88.5386C97.9061 88.9819 98.1025 89.3409 98.1592 89.6039C98.1868 89.7319 98.1785 89.824 98.1553 89.8897C98.1329 89.9516 98.0907 90.0078 98.014 90.0578C97.8458 90.1681 97.5132 90.2476 96.9486 90.2169C95.834 90.1559 94.0329 89.6787 91.4994 88.6177C78.8112 83.3043 69.873 75.3484 63.362 63.5701C62.3195 61.6842 61.3541 60.1397 60.4651 58.9405C59.5789 57.7449 58.7573 56.8767 57.9978 56.359C57.2384 55.8413 56.4892 55.6425 55.7919 55.8996C55.114 56.1496 54.588 56.7964 54.1742 57.726C53.3431 59.5913 52.8506 62.8508 52.6695 67.4697C52.4876 72.1008 52.6183 78.1362 53.0565 85.5799C53.6175 95.1098 56.0498 104.168 59.6797 111.404C63.3057 118.631 68.1474 124.079 73.5553 126.326C77.4384 127.94 82.0659 128.301 86.1266 127.634C90.1758 126.97 93.7325 125.269 95.3947 122.689C95.4939 122.535 95.5707 122.396 95.623 122.275C95.6726 122.159 95.712 122.031 95.7053 121.909C95.7018 121.843 95.6844 121.768 95.6364 121.696C95.5864 121.622 95.5151 121.571 95.436 121.543C95.2951 121.492 95.147 121.517 95.0411 121.546C94.8155 121.608 94.5266 121.761 94.1998 121.972C93.8655 122.189 93.4675 122.483 93.0183 122.849C84.8084 129.55 72.871 127.455 65.5443 117.885C57.5545 107.45 54.7014 96.5752 54.0293 73.6976C53.914 69.7602 54.0061 66.5283 54.284 64.0307C54.5636 61.5216 55.0269 59.7917 55.6273 58.8279C55.9254 58.3492 56.2352 58.0953 56.5372 58.0008C56.8297 57.909 57.1777 57.9484 57.6033 58.1882C58.4789 58.6815 59.5466 59.9492 60.7738 62.1055C66.0809 71.4295 67.2848 73.1515 71.338 77.1578C75.8301 81.5988 82.5742 85.9823 88.2872 88.7346C91.1415 90.1098 93.7592 91.0882 95.7234 91.4571C96.7006 91.6405 97.5506 91.6803 98.1955 91.5181C98.5222 91.4358 98.8088 91.2984 99.0301 91.0905C99.2537 90.8803 99.3943 90.6126 99.4498 90.2976C99.6805 88.9933 98.9187 87.6248 97.4242 86.2732C95.9203 84.9122 93.6147 83.5122 90.5974 82.1334C84.4805 79.3386 79.5403 74.8543 73.4647 66.5303C70.8104 62.8937 68.8549 59.8071 67.6002 57.1082C66.3458 54.4094 65.8002 52.1149 65.9451 50.0575C66.2336 45.9649 69.2691 42.6827 75.3502 38.9624C77.8632 37.4251 80.523 35.7516 81.2581 35.2446L82.1171 34.6522L82.1994 37.4798C82.4986 47.7488 85.9199 58.2508 90.56 65.8669C92.8797 69.6744 95.5136 72.7764 98.2305 74.7653C100.945 76.7531 103.782 77.6555 106.477 76.9748C107.855 76.6264 108.9 76.0437 109.532 75.0787C110.16 74.1193 110.343 72.835 110.125 71.1559C109.689 67.8075 107.629 62.7055 103.868 54.9771C100.46 47.9752 98.5584 43.9602 97.573 41.4204C96.5903 38.8872 96.5399 37.8721 96.784 36.8522C97.297 34.7106 99.2817 32.7473 102.729 31.0635C106.168 29.3837 111.007 28.0107 117.113 27.0242C118.726 26.7635 123.13 26.2261 127.159 25.7704C129.172 25.5428 131.089 25.3359 132.512 25.1946C133.224 25.124 133.81 25.0699 134.224 25.0377C134.431 25.0216 134.591 25.0114 134.701 25.0071C134.709 25.0068 134.716 25.0065 134.724 25.0063C134.752 25.047 134.786 25.0986 134.826 25.1592C134.927 25.3124 135.055 25.5166 135.188 25.7341C135.275 25.8773 135.492 26.1178 135.775 26.4075C136.068 26.7077 136.458 27.0872 136.916 27.5192C137.832 28.3837 139.028 29.4644 140.282 30.5536C142.99 32.9044 144.978 34.969 146.255 36.8422C147.531 38.7145 148.081 40.3744 147.952 41.9248C147.822 43.4724 147.011 44.9602 145.457 46.4834C143.901 48.0094 141.615 49.5547 138.574 51.2098C134.769 53.2807 132.211 55.8346 131.173 58.3535C130.653 59.6165 130.514 60.8752 130.803 62.0551C131.091 63.2362 131.803 64.3165 132.948 65.2287C134.237 66.2559 135.634 66.7138 137.115 66.5803C138.586 66.448 140.1 65.7358 141.64 64.4988C144.716 62.0283 147.985 57.3945 151.351 50.7252C151.584 50.2634 151.799 49.835 151.998 49.4382C152.534 48.3681 152.953 47.5299 153.305 46.8984C153.545 46.4657 153.747 46.1433 153.925 45.9153C154.106 45.6815 154.239 45.5807 154.33 45.5449C154.392 45.5201 154.455 45.5169 154.564 45.5799C154.689 45.6527 154.846 45.8008 155.049 46.0523C155.343 46.4185 155.686 46.9401 156.132 47.6173C156.299 47.8712 156.481 48.1476 156.68 48.4453C158.91 51.7858 160.388 54.6043 161.061 57.0445C161.732 59.4775 161.599 61.5193 160.629 63.3299C159.653 65.1488 157.811 66.774 154.98 68.3283C152.15 69.8823 148.357 71.3515 143.517 72.8708C134.959 75.5563 128.892 78.7232 125.814 81.9323C124.272 83.5401 123.455 85.1866 123.492 86.8075C123.53 88.4342 124.427 89.9689 126.164 91.3523C127.719 92.5921 130.049 92.7283 132.754 92.0748C135.469 91.4185 138.633 89.9508 141.943 87.8756C148.564 83.724 155.827 77.1039 161.328 69.5252C162.165 68.372 162.868 67.6433 163.466 67.3106C163.758 67.148 164.008 67.0901 164.225 67.1078C164.441 67.1252 164.663 67.2189 164.896 67.424C165.378 67.8472 165.856 68.6968 166.336 70.0638C166.813 71.4189 167.279 73.2382 167.762 75.5555C169.045 81.7027 168.746 86.4378 166.484 90.583C164.218 94.737 159.958 98.3452 153.212 102.185C152.899 102.363 152.668 102.484 152.424 102.565C152.185 102.643 151.921 102.688 151.545 102.693C150.776 102.704 149.595 102.553 147.314 102.237C139.025 101.086 131.682 100.944 126.469 101.657C123.866 102.013 121.768 102.585 120.347 103.37C118.923 104.156 118.115 105.198 118.273 106.481C118.481 108.155 119.84 109.316 121.842 110.02C123.847 110.726 126.564 111.003 129.649 110.881C135.824 110.639 143.567 108.796 150.263 105.459L152.245 104.471L157.496 105.442C159.845 105.876 161.59 106.339 162.786 106.959C163.966 107.572 164.584 108.322 164.736 109.343C164.893 110.395 164.567 111.781 163.713 113.674C162.862 115.559 161.508 117.905 159.664 120.86C153.282 131.087 145.981 137.952 138.188 141.32C130.407 144.683 122.106 144.571 113.675 140.789C109.053 138.717 105.267 135.146 103.08 131.389C100.886 127.62 100.34 123.738 102.045 120.992C105.198 115.915 108.415 108.352 112.111 97.3515C113.353 93.6559 116.179 85.5071 118.39 79.2445C123.872 63.7224 127.01 53.7657 127.586 50.5212C127.658 50.1165 127.695 49.7941 127.684 49.5712C127.679 49.4681 127.664 49.3417 127.602 49.2382C127.568 49.1811 127.509 49.1141 127.415 49.076C127.318 49.0366 127.222 49.0433 127.147 49.0649C127.019 49.1027 126.917 49.1949 126.846 49.2689C126.766 49.3527 126.68 49.4622 126.59 49.5917C126.409 49.8523 126.19 50.2216 125.934 50.6972C124.91 52.6 123.225 56.3185 120.856 61.9823C114.245 77.7878 109.041 90.9307 105.44 100.872C103.639 105.842 102.238 110.015 101.262 113.322C100.288 116.622 99.7301 119.079 99.6281 120.609L99.5187 122.253L96.4084 125.936C88.2092 135.644 74.7569 146.523 62.6616 153.222C60.8986 154.199 59.8494 154.806 59.3155 155.199C59.1801 155.299 59.0687 155.392 58.9844 155.479C58.9041 155.562 58.8258 155.663 58.7927 155.782C58.7533 155.922 58.7852 156.06 58.8797 156.169C58.9584 156.259 59.0663 156.313 59.1533 156.347C59.234 156.379 59.3159 156.383 59.3789 156.381C59.4451 156.379 59.5143 156.368 59.5825 156.354C59.7187 156.325 59.8805 156.273 60.0596 156.206C60.4203 156.071 60.888 155.858 61.4356 155.586C62.5325 155.041 63.9762 154.242 65.5746 153.304C68.7714 151.427 72.6037 148.981 75.5458 146.861C83.114 141.409 91.3246 134.076 96.8518 127.83L99.4529 124.891L99.7179 126.247C101.357 134.642 108.395 140.846 116.953 143.642C125.513 146.439 135.649 145.847 143.541 140.592C148.455 137.32 154.253 131.01 158.74 124.754C160.986 121.623 162.911 118.495 164.236 115.755C164.899 114.385 165.414 113.107 165.743 111.97C166.072 110.837 166.222 109.828 166.138 109.001C166.062 108.247 165.946 107.614 165.677 107.079C165.402 106.532 164.979 106.107 164.329 105.748C163.687 105.394 162.823 105.102 161.658 104.814C160.492 104.525 159.005 104.235 157.108 103.893C155.574 103.616 154.719 103.446 154.3 103.313C161.685 98.7496 166.196 94.8858 168.421 90.3472C170.663 85.776 170.56 80.5748 168.866 73.4047C168.329 71.1334 167.719 69.3508 167.031 68.0689C166.349 66.7968 165.562 65.9642 164.64 65.6882C163.694 65.4047 162.714 65.7362 161.738 66.5397C160.764 67.3425 159.743 68.6523 158.673 70.446C158.105 71.3976 156.955 72.7657 155.432 74.3515C153.915 75.9323 152.045 77.7138 150.053 79.4882C146.066 83.0413 141.611 86.5496 138.547 88.3673C134.968 90.4897 131.779 91.3618 129.439 91.1039C128.275 90.9756 127.328 90.5693 126.636 89.9067C125.943 89.2437 125.482 88.3027 125.329 87.0677C125.062 84.913 126.456 82.7291 129.748 80.511C133.031 78.2988 138.125 76.1078 145.061 73.9389C153.069 71.4342 158.293 68.7527 160.953 65.4756C162.291 63.8279 162.978 62.033 163.046 60.05C163.114 58.0728 162.567 55.9252 161.466 53.5649C160.662 51.8417 158.949 49.0673 157.391 46.7901C156.611 45.65 155.865 44.6267 155.284 43.9153C154.996 43.5618 154.741 43.276 154.539 43.0913C154.441 43.0016 154.338 42.9193 154.238 42.8693C154.188 42.8449 154.115 42.8149 154.028 42.8126C153.926 42.8094 153.813 42.8449 153.732 42.937C153.676 43 153.598 43.1248 153.515 43.2657C153.424 43.4181 153.31 43.6204 153.176 43.8626C152.908 44.3472 152.561 44.9968 152.173 45.7358C151.398 47.2141 150.46 49.0551 149.674 50.6563C146.746 56.6248 143.615 60.9216 140.759 63.2059C139.331 64.348 137.999 64.9657 136.816 65.0653C135.651 65.163 134.592 64.7618 133.679 63.7799C132.884 62.9244 132.436 62.0216 132.302 61.098C132.168 60.1744 132.346 59.2102 132.838 58.2283C133.826 56.2555 136.073 54.2252 139.523 52.387C145.874 49.0039 149.264 45.5748 149.447 41.7031C149.538 39.7708 148.827 37.7719 147.356 35.6674C145.887 33.564 143.65 31.3395 140.66 28.9476C139.235 27.8069 137.539 26.2056 136.895 25.3995C136.563 24.9834 136.244 24.5899 135.997 24.2909C135.874 24.1415 135.768 24.0149 135.687 23.9207C135.615 23.8364 135.546 23.7574 135.506 23.7221ZM135.506 23.7221L135.299 23.9331L135.506 23.7216C135.506 23.7218 135.506 23.7219 135.506 23.7221ZM137.223 102.78C139.308 102.879 142.541 103.155 145.298 103.441C146.676 103.583 147.932 103.728 148.863 103.854C149.223 103.902 149.532 103.948 149.78 103.989C149.543 104.114 149.249 104.263 148.929 104.42C143.604 107.03 137.733 108.694 132.609 109.27C130.047 109.557 127.68 109.572 125.666 109.3C123.648 109.028 122.007 108.471 120.876 107.635C120.341 107.239 120.026 106.873 119.879 106.546C119.736 106.231 119.745 105.945 119.88 105.671C120.022 105.385 120.312 105.089 120.777 104.798C121.24 104.509 121.856 104.236 122.616 103.99C125.666 103 130.872 102.48 137.223 102.78ZM101.743 118.339C101.672 118.468 101.606 118.588 101.545 118.696C101.618 118.339 101.717 117.892 101.84 117.357C103.743 109.031 110.199 91.6263 121.298 64.9197C121.954 63.3409 122.58 61.8334 123.111 60.5547C122.929 61.1346 122.73 61.7571 122.516 62.4138C121.582 65.2878 119.455 71.4968 117.789 76.2098C116.122 80.9252 113.226 89.2732 111.353 94.7614C107.508 106.03 105.721 110.597 103.312 115.318C102.637 116.642 102.123 117.64 101.743 118.339Z" fill="#16314F"/>
<path d="M135.506 23.7221C135.453 23.6748 135.395 23.6573 135.379 23.6522C135.353 23.6445 135.329 23.6402 135.311 23.6376C135.275 23.6322 135.235 23.6293 135.197 23.6277C135.118 23.6243 135.015 23.6244 134.893 23.6272C134.649 23.6328 134.308 23.6497 133.899 23.6757C133.08 23.7279 131.972 23.818 130.774 23.9333C120.655 24.9071 113.325 26.0087 108.001 27.4595C102.677 28.9104 99.3226 30.7196 97.1907 33.1317C96.3596 34.0723 95.7293 34.9075 95.4025 35.8862C95.0738 36.8712 95.062 37.9699 95.4002 39.4271C96.0707 42.3177 98.1494 46.7307 102.079 54.6905C104.891 60.3866 106.599 64.05 107.565 66.6433C108.529 69.2323 108.743 70.7275 108.59 72.0929C108.384 73.9374 107.547 74.974 106.387 75.409C105.199 75.8543 103.588 75.7031 101.783 74.9795C98.1797 73.535 93.9888 69.8827 91.3458 64.8488C89.1659 60.6968 87.1935 55.2543 85.7951 49.9075C84.3958 44.5578 83.5777 39.3284 83.6919 35.601C83.714 34.8794 83.7199 34.3118 83.688 33.8877C83.6718 33.6753 83.6455 33.4891 83.6033 33.3323C83.5616 33.1779 83.499 33.0314 83.3962 32.9166C83.2852 32.793 83.1396 32.7199 82.9699 32.7034C82.8128 32.688 82.6545 32.7229 82.5057 32.7756C82.212 32.8798 81.8537 33.0926 81.4325 33.3642C80.7124 33.8284 77.7183 35.701 74.7781 37.5263M135.506 23.7221C135.546 23.7574 135.615 23.8364 135.687 23.9207C135.768 24.0149 135.874 24.1415 135.997 24.2909C136.244 24.5899 136.563 24.9834 136.895 25.3995C137.539 26.2056 139.235 27.8069 140.66 28.9476C143.65 31.3395 145.887 33.564 147.356 35.6674C148.827 37.7719 149.538 39.7708 149.447 41.7031C149.264 45.5748 145.874 49.0039 139.523 52.387C136.073 54.2252 133.826 56.2555 132.838 58.2283C132.346 59.2102 132.168 60.1744 132.302 61.098C132.436 62.0216 132.884 62.9244 133.679 63.7799C134.592 64.7618 135.651 65.163 136.816 65.0653C137.999 64.9657 139.331 64.348 140.759 63.2059C143.615 60.9216 146.746 56.6248 149.674 50.6563M135.506 23.7221L135.299 23.9331L135.506 23.7216C135.506 23.7218 135.506 23.7219 135.506 23.7221ZM74.7781 37.5263L74.9419 37.7668M74.7781 37.5263C69.4332 40.8441 66.2482 43.6645 64.9896 46.8807C63.7254 50.1114 64.4321 53.6669 66.6466 58.3783C71.651 69.0256 80.9848 79.0653 90.0147 83.4787C92.5856 84.7354 94.5703 85.976 95.9431 87.0598C96.6297 87.6015 97.1584 88.1008 97.5301 88.5386C97.9061 88.9819 98.1025 89.3409 98.1592 89.6039C98.1868 89.7319 98.1785 89.824 98.1553 89.8897C98.1329 89.9516 98.0907 90.0078 98.014 90.0578C97.8458 90.1681 97.5132 90.2476 96.9486 90.2169C95.834 90.1559 94.0329 89.6787 91.4994 88.6177C78.8112 83.3043 69.873 75.3484 63.362 63.5701C62.3195 61.6842 61.3541 60.1397 60.4651 58.9405C59.5789 57.7449 58.7573 56.8767 57.9978 56.359C57.2384 55.8413 56.4892 55.6425 55.7919 55.8996C55.114 56.1496 54.588 56.7964 54.1742 57.726C53.3431 59.5913 52.8506 62.8508 52.6695 67.4697C52.4876 72.1008 52.6183 78.1362 53.0565 85.5799C53.6175 95.1098 56.0498 104.168 59.6797 111.404C63.3057 118.631 68.1474 124.079 73.5553 126.326C77.4384 127.94 82.0659 128.301 86.1266 127.634C90.1758 126.97 93.7325 125.269 95.3947 122.689C95.4939 122.535 95.5707 122.396 95.623 122.275C95.6726 122.159 95.712 122.031 95.7053 121.909C95.7018 121.843 95.6844 121.768 95.6364 121.696C95.5864 121.622 95.5151 121.571 95.436 121.543C95.2951 121.492 95.147 121.517 95.0411 121.546C94.8155 121.608 94.5266 121.761 94.1998 121.972C93.8655 122.189 93.4675 122.483 93.0183 122.849C84.8084 129.55 72.871 127.455 65.5443 117.885C57.5545 107.45 54.7014 96.5752 54.0293 73.6976C53.914 69.7602 54.0061 66.5283 54.284 64.0307C54.5636 61.5216 55.0269 59.7917 55.6273 58.8279C55.9254 58.3492 56.2352 58.0953 56.5372 58.0008C56.8297 57.909 57.1777 57.9484 57.6033 58.1882C58.4789 58.6815 59.5466 59.9492 60.7738 62.1055C66.0809 71.4295 67.2848 73.1515 71.338 77.1578C75.8301 81.5988 82.5742 85.9823 88.2872 88.7346C91.1415 90.1098 93.7592 91.0882 95.7234 91.4571C96.7006 91.6405 97.5506 91.6803 98.1955 91.5181C98.5222 91.4358 98.8088 91.2984 99.0301 91.0905C99.2537 90.8803 99.3943 90.6126 99.4498 90.2976C99.6805 88.9933 98.9187 87.6248 97.4242 86.2732C95.9203 84.9122 93.6147 83.5122 90.5974 82.1334C84.4805 79.3386 79.5403 74.8543 73.4647 66.5303M73.4647 66.5303L73.2155 66.6956M73.4647 66.5303C70.8104 62.8937 68.8549 59.8071 67.6002 57.1082C66.3458 54.4094 65.8002 52.1149 65.9451 50.0575C66.2336 45.9649 69.2691 42.6827 75.3502 38.9624C77.8632 37.4251 80.523 35.7516 81.2581 35.2446L82.1171 34.6522L82.1994 37.4798M82.1994 37.4798L82.46 37.4708M82.1994 37.4798C82.4986 47.7488 85.9199 58.2508 90.56 65.8669C92.8797 69.6744 95.5136 72.7764 98.2305 74.7653C100.945 76.7531 103.782 77.6555 106.477 76.9748C107.855 76.6264 108.9 76.0437 109.532 75.0787C110.16 74.1193 110.343 72.835 110.125 71.1559C109.689 67.8075 107.629 62.7055 103.868 54.9771C100.46 47.9752 98.5584 43.9602 97.573 41.4204C96.5903 38.8872 96.5399 37.8721 96.784 36.8522C97.297 34.7106 99.2817 32.7473 102.729 31.0635C106.168 29.3837 111.007 28.0107 117.113 27.0242C118.726 26.7635 123.13 26.2261 127.159 25.7704C129.172 25.5428 131.089 25.3359 132.512 25.1946C133.224 25.124 133.81 25.0699 134.224 25.0377C134.431 25.0216 134.591 25.0114 134.701 25.0071C134.709 25.0068 134.716 25.0065 134.724 25.0063C134.752 25.047 134.786 25.0986 134.826 25.1592C134.927 25.3124 135.055 25.5166 135.188 25.7341C135.275 25.8773 135.492 26.1178 135.775 26.4075C136.068 26.7077 136.458 27.0872 136.916 27.5192C137.832 28.3837 139.028 29.4644 140.282 30.5536C142.99 32.9044 144.978 34.969 146.255 36.8422C147.531 38.7145 148.081 40.3744 147.952 41.9248C147.822 43.4724 147.011 44.9602 145.457 46.4834C143.901 48.0094 141.615 49.5547 138.574 51.2098C134.769 53.2807 132.211 55.8346 131.173 58.3535C130.653 59.6165 130.514 60.8752 130.803 62.0551C131.091 63.2362 131.803 64.3165 132.948 65.2287C134.237 66.2559 135.634 66.7138 137.115 66.5803C138.586 66.448 140.1 65.7358 141.64 64.4988C144.716 62.0283 147.985 57.3945 151.351 50.7252C151.584 50.2634 151.799 49.835 151.998 49.4382C152.534 48.3681 152.953 47.5299 153.305 46.8984C153.545 46.4657 153.747 46.1433 153.925 45.9153C154.106 45.6815 154.239 45.5807 154.33 45.5449C154.392 45.5201 154.455 45.5169 154.564 45.5799C154.689 45.6527 154.846 45.8008 155.049 46.0523C155.343 46.4185 155.686 46.9401 156.132 47.6173C156.299 47.8712 156.481 48.1476 156.68 48.4453M156.68 48.4453L156.936 48.2897M156.68 48.4453C158.91 51.7858 160.388 54.6043 161.061 57.0445C161.732 59.4775 161.599 61.5193 160.629 63.3299C159.653 65.1488 157.811 66.774 154.98 68.3283C152.15 69.8823 148.357 71.3515 143.517 72.8708C134.959 75.5563 128.892 78.7232 125.814 81.9323C124.272 83.5401 123.455 85.1866 123.492 86.8075C123.53 88.4342 124.427 89.9689 126.164 91.3523C127.719 92.5921 130.049 92.7283 132.754 92.0748C135.469 91.4185 138.633 89.9508 141.943 87.8756C148.564 83.724 155.827 77.1039 161.328 69.5252C162.165 68.372 162.868 67.6433 163.466 67.3106C163.758 67.148 164.008 67.0901 164.225 67.1078C164.441 67.1252 164.663 67.2189 164.896 67.424C165.378 67.8472 165.856 68.6968 166.336 70.0638C166.813 71.4189 167.279 73.2382 167.762 75.5555C169.045 81.7027 168.746 86.4378 166.484 90.583C164.218 94.737 159.958 98.3452 153.212 102.185C152.899 102.363 152.668 102.484 152.424 102.565C152.185 102.643 151.921 102.688 151.545 102.693C150.776 102.704 149.595 102.553 147.314 102.237C139.025 101.086 131.682 100.944 126.469 101.657C123.866 102.013 121.768 102.585 120.347 103.37C118.923 104.156 118.115 105.198 118.273 106.481C118.481 108.155 119.84 109.316 121.842 110.02C123.847 110.726 126.564 111.003 129.649 110.881C135.824 110.639 143.567 108.796 150.263 105.459L152.245 104.471L157.496 105.442C159.845 105.876 161.59 106.339 162.786 106.959C163.966 107.572 164.584 108.322 164.736 109.343C164.893 110.395 164.567 111.781 163.713 113.674C162.862 115.559 161.508 117.905 159.664 120.86C153.282 131.087 145.981 137.952 138.188 141.32C130.407 144.683 122.106 144.571 113.675 140.789C109.053 138.717 105.267 135.146 103.08 131.389C100.886 127.62 100.34 123.738 102.045 120.992C105.198 115.915 108.415 108.352 112.111 97.3515C113.353 93.6559 116.179 85.5071 118.39 79.2445C123.872 63.7224 127.01 53.7657 127.586 50.5212C127.658 50.1165 127.695 49.7941 127.684 49.5712C127.679 49.4681 127.664 49.3417 127.602 49.2382C127.568 49.1811 127.509 49.1141 127.415 49.076C127.318 49.0366 127.222 49.0433 127.147 49.0649C127.019 49.1027 126.917 49.1949 126.846 49.2689C126.766 49.3527 126.68 49.4622 126.59 49.5917C126.409 49.8523 126.19 50.2216 125.934 50.6972C124.91 52.6 123.225 56.3185 120.856 61.9823C114.245 77.7878 109.041 90.9307 105.44 100.872C103.639 105.842 102.238 110.015 101.262 113.322C100.288 116.622 99.7301 119.079 99.6281 120.609M99.6281 120.609L99.9301 120.624M99.6281 120.609L99.5187 122.253L96.4084 125.936C88.2092 135.644 74.7569 146.523 62.6616 153.222C60.8986 154.199 59.8494 154.806 59.3155 155.199C59.1801 155.299 59.0687 155.392 58.9844 155.479C58.9041 155.562 58.8258 155.663 58.7927 155.782C58.7533 155.922 58.7852 156.06 58.8797 156.169C58.9584 156.259 59.0663 156.313 59.1533 156.347C59.234 156.379 59.3159 156.383 59.3789 156.381C59.4451 156.379 59.5143 156.368 59.5825 156.354C59.7187 156.325 59.8805 156.273 60.0596 156.206C60.4203 156.071 60.888 155.858 61.4356 155.586C62.5325 155.041 63.9762 154.242 65.5746 153.304C68.7714 151.427 72.6037 148.981 75.5458 146.861C83.114 141.409 91.3246 134.076 96.8518 127.83L99.4529 124.891L99.7179 126.247C101.357 134.642 108.395 140.846 116.953 143.642C125.513 146.439 135.649 145.847 143.541 140.592C148.455 137.32 154.253 131.01 158.74 124.754C160.986 121.623 162.911 118.495 164.236 115.755C164.899 114.385 165.414 113.107 165.743 111.97C166.072 110.837 166.222 109.828 166.138 109.001C166.062 108.247 165.946 107.614 165.677 107.079C165.402 106.532 164.979 106.107 164.329 105.748C163.687 105.394 162.823 105.102 161.658 104.814C160.492 104.525 159.005 104.235 157.108 103.893C155.574 103.616 154.719 103.446 154.3 103.313C161.685 98.7496 166.196 94.8858 168.421 90.3472C170.663 85.776 170.56 80.5748 168.866 73.4047C168.329 71.1334 167.719 69.3508 167.031 68.0689C166.349 66.7968 165.562 65.9642 164.64 65.6882C163.694 65.4047 162.714 65.7362 161.738 66.5397C160.764 67.3425 159.743 68.6523 158.673 70.446C158.105 71.3976 156.955 72.7657 155.432 74.3515C153.915 75.9323 152.045 77.7138 150.053 79.4882C146.066 83.0413 141.611 86.5496 138.547 88.3673C134.968 90.4897 131.779 91.3618 129.439 91.1039C128.275 90.9756 127.328 90.5693 126.636 89.9067C125.943 89.2437 125.482 88.3027 125.329 87.0677C125.062 84.913 126.456 82.7291 129.748 80.511C133.031 78.2988 138.125 76.1078 145.061 73.9389C153.069 71.4342 158.293 68.7527 160.953 65.4756C162.291 63.8279 162.978 62.033 163.046 60.05C163.114 58.0728 162.567 55.9252 161.466 53.5649C160.662 51.8417 158.949 49.0673 157.391 46.7901C156.611 45.65 155.865 44.6267 155.284 43.9153C154.996 43.5618 154.741 43.276 154.539 43.0913C154.441 43.0016 154.338 42.9193 154.238 42.8693C154.188 42.8449 154.115 42.8149 154.028 42.8126C153.926 42.8094 153.813 42.8449 153.732 42.937C153.676 43 153.598 43.1248 153.515 43.2657C153.424 43.4181 153.31 43.6204 153.176 43.8626C152.908 44.3472 152.561 44.9968 152.173 45.7358C151.398 47.2141 150.46 49.0551 149.674 50.6563M149.674 50.6563L149.948 50.776M134.661 24.9207C134.661 24.9206 134.662 24.9214 134.663 24.9233M137.223 102.78L137.241 102.493M137.223 102.78C139.308 102.879 142.541 103.155 145.298 103.441C146.676 103.583 147.932 103.728 148.863 103.854C149.223 103.902 149.532 103.948 149.78 103.989C149.543 104.114 149.249 104.263 148.929 104.42C143.604 107.03 137.733 108.694 132.609 109.27C130.047 109.557 127.68 109.572 125.666 109.3C123.648 109.028 122.007 108.471 120.876 107.635C120.341 107.239 120.026 106.873 119.879 106.546C119.736 106.231 119.745 105.945 119.88 105.671C120.022 105.385 120.312 105.089 120.777 104.798C121.24 104.509 121.856 104.236 122.616 103.99C125.666 103 130.872 102.48 137.223 102.78ZM101.743 118.339C101.672 118.468 101.606 118.588 101.545 118.696C101.618 118.339 101.717 117.892 101.84 117.357C103.743 109.031 110.199 91.6263 121.298 64.9197C121.954 63.3409 122.58 61.8334 123.111 60.5547C122.929 61.1346 122.73 61.7571 122.516 62.4138C121.582 65.2878 119.455 71.4968 117.789 76.2098C116.122 80.9252 113.226 89.2732 111.353 94.7614C107.508 106.03 105.721 110.597 103.312 115.318C102.637 116.642 102.123 117.64 101.743 118.339Z" stroke="#16314F" stroke-width="1.42323"/>
</svg>
