<svg width="197" height="200" viewBox="0 0 197 200" fill="none" xmlns="http://www.w3.org/2000/svg">
<path fill-rule="evenodd" clip-rule="evenodd" d="M101.162 38.5358C126.176 41.8729 135.901 65.8528 149.503 83.9298C160.412 98.4288 175.894 113.411 169.845 129.82C164.047 145.546 140.097 147.103 123.198 155.278C103.162 164.972 85.8442 188.446 64.652 180.711C43.4288 172.965 52.1605 146.067 46.1909 127.171C39.6536 106.478 17.235 86.8185 28.9976 67.8524C42.0438 46.8169 73.4311 34.8361 101.162 38.5358Z" fill="#FCD1E2" fill-opacity="0.46"/>
<path fill-rule="evenodd" clip-rule="evenodd" d="M91.5113 24.3525C90.7862 26.3262 90.1638 28.8906 90.0541 30.3569C89.9026 32.3834 90.0474 33.4044 90.7496 35.262C91.488 37.2142 92.307 38.2709 95.6316 41.5617C98.4624 44.3633 100.691 46.1467 103.279 47.6813C105.287 48.8722 107.287 50.1124 107.722 50.4371C108.318 50.8809 108.653 51.9077 109.071 54.5716C109.377 56.5203 109.798 60.1527 110.008 62.643L110.388 67.1708L108.965 68.3523C108.182 69.002 107.457 69.4966 107.354 69.4513C107.251 69.4067 106.839 68.0777 106.438 66.4986C106.038 64.9195 105.272 62.7306 104.736 61.6339C104.2 60.5377 103.109 58.8031 102.31 57.7799C101.511 56.7566 99.7768 55.1089 98.4565 54.1179C97.1358 53.127 94.6352 51.602 92.8995 50.729C90.4576 49.501 89.1634 49.1022 87.1795 48.9653C84.7113 48.7953 84.5219 48.8493 82.1089 50.4185C80.6458 51.3696 78.7851 52.2027 77.6403 52.4193C76.5614 52.6237 75.5149 52.8919 75.3149 53.0154C75.1145 53.1388 74.9507 53.4619 74.9507 53.7337C74.9507 54.0051 75.4427 54.6974 76.0438 55.2722C76.6604 55.8623 78.9823 57.0008 81.3744 57.8868C83.7054 58.7499 86.8754 60.1183 88.4194 60.9278C89.9634 61.7377 92.172 63.2631 93.3279 64.3175C94.4837 65.372 96.7642 68.2016 98.3949 70.6059C100.026 73.0098 101.853 75.3014 102.455 75.6974C103.058 76.0943 104.038 76.4197 104.635 76.4209L105.72 76.4237L105.713 80.4596L105.707 84.4951L104.897 83.2331C104.452 82.5396 103.768 81.8706 103.378 81.7467C102.987 81.6233 102.221 81.6919 101.674 81.8998C101.127 82.1073 100.023 82.8525 99.2198 83.5558C98.0091 84.6173 97.7981 85.0225 97.9811 85.9353C98.1957 87.0067 98.0592 87.1061 92.789 89.7026C89.8123 91.1696 85.3543 93.2489 82.8825 94.3235C80.4107 95.3984 77.7287 96.7546 76.9223 97.3377C76.116 97.9203 75.0793 99.0063 74.6186 99.7503C74.0671 100.641 73.4411 103.073 72.7878 106.86C72.2419 110.026 71.4427 113.553 71.0119 114.699C70.5811 115.844 68.9835 118.905 67.4616 121.502C64.9255 125.828 64.6943 126.407 64.6943 128.432C64.6943 130.473 64.8545 130.864 66.7902 133.555C67.9433 135.157 70.7511 138.959 73.03 142.004C75.3093 145.048 78.3571 149.233 79.8032 151.303C81.2494 153.373 83.1898 156.641 84.1156 158.564L85.7989 162.061L86.0529 170.329C86.193 174.877 86.3259 178.73 86.3488 178.893C86.3717 179.055 86.6328 179.188 86.9287 179.188C87.2699 179.188 87.5586 178.52 87.7176 177.361C87.8557 176.357 87.9685 173.027 87.9685 169.963C87.9685 166.227 87.7693 163.628 87.3638 162.073C87.0308 160.799 86.2438 158.68 85.6147 157.364C84.9855 156.049 83.4604 153.467 82.2257 151.627C80.991 149.786 77.1539 144.491 73.6987 139.859C70.2434 135.227 67.0711 130.763 66.6494 129.937C66.0924 128.847 65.9784 128.188 66.2332 127.531C66.4265 127.032 67.8509 124.503 69.3989 121.909C70.9468 119.315 72.5681 116.046 73.002 114.644C73.4356 113.242 74.1433 109.901 74.574 107.221C75.0048 104.54 75.604 101.874 75.9054 101.296C76.2072 100.718 76.8699 99.8659 77.3788 99.4031C77.8876 98.94 79.0557 98.185 79.9744 97.7246C80.8935 97.2643 83.5397 96.0801 85.8549 95.0927C88.1701 94.1057 92.1535 92.2532 94.7062 90.9759C97.2592 89.6986 100.353 87.8363 101.582 86.8379C102.81 85.839 103.868 85.0805 103.933 85.1523C103.998 85.224 104.171 86.0031 104.317 86.884L104.582 88.4852L99.135 93.5033C95.3066 97.0308 92.9697 98.8643 91.2691 99.6765L88.8498 100.832L88.6876 103.294C88.5701 105.081 88.1665 106.459 87.2174 108.316C86.4979 109.723 85.0411 112.106 83.9803 113.609C82.6233 115.533 82.0513 116.725 82.0513 117.63C82.0513 118.338 82.4079 119.868 82.8434 121.03C83.2789 122.193 84.2482 123.858 84.9973 124.731C85.746 125.604 86.9212 126.551 87.6079 126.835C88.6072 127.249 89.2123 127.257 90.6336 126.878C91.6103 126.617 93.1681 125.86 94.0951 125.196C95.0218 124.531 96.3294 123.224 97.0008 122.291C97.6726 121.358 98.5673 119.79 98.989 118.807C99.6584 117.249 99.9736 116.963 101.456 116.562C102.391 116.31 104.247 116.189 105.58 116.295C106.914 116.4 108.174 116.591 108.381 116.72C108.588 116.847 108.985 118.536 109.263 120.473C109.76 123.93 109.752 124.019 108.843 125.293C108.182 126.22 107.875 127.271 107.772 128.97C107.686 130.389 108.111 134.449 108.827 139.027C109.486 143.25 110.223 149.097 110.462 152.021C110.788 155.989 110.779 159.86 110.425 167.302C110.069 174.784 110.064 177.381 110.402 177.719C110.741 178.058 110.997 178.027 111.428 177.596C111.743 177.281 112.527 174.365 113.169 171.116C113.811 167.868 114.641 163.173 115.012 160.682C115.46 157.679 115.696 153.57 115.713 148.477L115.739 140.799L114.129 134.499C113.243 131.034 112.399 127.478 112.253 126.595C111.988 125.005 111.998 124.987 113.488 124.539C114.314 124.291 115.656 123.538 116.469 122.866C117.556 121.97 117.949 121.344 117.949 120.506C117.949 119.735 117.514 118.933 116.603 118.023C115.854 117.276 114.147 116.257 112.759 115.728L110.261 114.776L109.99 112.886C109.841 111.848 109.441 110.69 109.1 110.315C108.76 109.939 108.481 109.513 108.481 109.368C108.481 109.222 108.757 109.103 109.093 109.103C109.43 109.103 109.972 108.466 110.298 107.687C110.767 106.565 110.841 105.273 110.649 101.486C110.516 98.8536 110.327 96.3057 110.228 95.8221C110.129 95.3388 109.499 94.3199 108.829 93.5582C108.072 92.6974 107.253 92.1728 106.665 92.1728C106.145 92.1728 105.72 92.1069 105.72 92.0256C105.72 91.9448 105.98 91.1424 106.298 90.2434C106.616 89.344 107.164 86.7085 107.516 84.3862C107.868 82.0639 108.168 79.8982 108.182 79.5736C108.197 79.2485 108.079 78.3495 107.92 77.5747C107.654 76.2856 107.785 75.987 109.468 74.0312C110.479 72.8568 111.764 71.1235 112.323 70.1799L113.34 68.4643L123.041 68.7298C128.376 68.8757 133.797 69.1747 135.087 69.3941C136.377 69.6134 138.126 70.1455 138.972 70.5771C139.819 71.0083 141.269 72.0572 142.194 72.9081C143.119 73.759 144.009 74.4548 144.172 74.4548C144.335 74.4548 144.395 73.2592 144.305 71.7972C144.178 69.7124 143.791 68.3945 142.506 65.6832C141.303 63.1424 140.242 61.6008 138.5 59.8619C137.14 58.5049 135.241 57.0927 134.042 56.5471C132.893 56.0248 130.883 55.4268 129.575 55.2189C128.236 55.0059 125.974 54.9743 124.397 55.1471C122.513 55.3534 120.924 55.8193 119.542 56.5696C118.413 57.183 117.06 58.1945 116.535 58.817C116.01 59.4398 114.863 61.1755 113.986 62.6741C113.109 64.1732 112.286 65.3992 112.157 65.3992C112.028 65.3992 112.034 64.469 112.17 63.3321C112.305 62.1949 113.058 58.7842 113.843 55.7526C114.942 51.5045 115.282 49.3826 115.327 46.4998C115.379 43.1053 115.278 42.5412 114.233 40.3972C113.524 38.9418 112.144 37.1275 110.64 35.6723C109.281 34.358 106.292 32.1811 103.902 30.7656C101.539 29.3663 98.8663 27.7291 97.9626 27.1275C96.5827 26.2093 96.1827 25.6234 95.4648 23.4705C94.7397 21.2955 94.4715 20.9073 93.6935 20.9073C92.9006 20.9073 92.606 21.3723 91.5113 24.3525ZM95.2884 27.0743C95.832 27.7854 98.6036 29.7517 101.591 31.5463C104.525 33.3079 107.944 35.6915 109.191 36.8428C110.436 37.9941 111.896 39.7964 112.434 40.8477C113.283 42.5073 113.412 43.2785 113.41 46.6966C113.408 48.8623 113.258 50.9886 113.077 51.4217C112.808 52.0647 112.554 51.6667 111.688 49.256C111.106 47.6319 109.872 45.1941 108.946 43.8386C108.021 42.4832 106.071 40.1353 104.613 38.6217C103.155 37.1078 101.743 35.8691 101.474 35.8691C101.206 35.8691 100.986 36.2007 100.986 36.6062C100.986 37.0113 101.886 38.7178 102.985 40.3984C104.084 42.0789 105.521 44.4047 106.178 45.5676C106.836 46.7298 107.198 47.6813 106.984 47.6813C106.77 47.6813 104.934 46.5957 102.903 45.269C100.873 43.9428 97.9685 41.5826 96.4498 40.0248C94.931 38.4674 93.2671 36.3448 92.7527 35.3085C91.9369 33.6666 91.8431 33.037 92.021 30.414C92.1334 28.7583 92.544 26.6334 92.9334 25.6912C93.5981 24.0847 93.6628 24.0351 93.9803 24.8919C94.1665 25.3943 94.7555 26.3762 95.2884 27.0743ZM90.4766 51.6315C91.6557 52.0718 93.6829 53.1175 94.9819 53.9554C96.2809 54.7937 98.3551 56.5045 99.591 57.7582C100.827 59.0118 102.295 60.9337 102.853 62.0296C103.41 63.125 104.104 64.9069 104.394 65.9897C104.684 67.0726 104.924 68.1333 104.926 68.3471C104.929 68.5605 104.278 67.7629 103.48 66.5751C102.682 65.387 100.884 63.3235 99.4853 61.9893C98.0864 60.656 96.09 59.1014 95.0482 58.5357C93.8166 57.8667 93.0636 57.6532 92.8943 57.9266C92.7515 58.157 93.105 58.9617 93.6801 59.714C94.2549 60.4663 95.2651 61.4777 95.9247 61.9609C96.5843 62.4442 98.3239 64.2138 99.7906 65.8935C101.257 67.5732 103.013 69.9901 103.694 71.2643C104.374 72.5384 104.931 73.7901 104.931 74.0454C104.931 74.3014 104.534 74.4532 104.047 74.3842C103.422 74.2951 102.233 72.9049 100.003 69.6564C98.2655 67.1262 96.4004 64.5822 95.858 64.0031C95.3156 63.4248 93.8068 62.1945 92.505 61.2694C91.2032 60.344 89.2505 59.1467 88.1657 58.6083C87.0809 58.0698 84.3752 56.9665 82.1531 56.1562C79.931 55.3459 78.1985 54.5448 78.303 54.3759C78.4079 54.2063 78.9582 53.9519 79.5263 53.8095C80.0939 53.667 81.4691 52.9385 82.5819 52.1909C84.1795 51.1168 84.9969 50.8312 86.4691 50.8312C87.4943 50.8312 89.2979 51.1913 90.4766 51.6315ZM133.034 58.2067C134.598 58.9373 136.415 60.1976 137.478 61.2884C138.523 62.3613 139.95 64.5246 140.885 66.454C141.77 68.2797 142.413 69.8544 142.313 69.9542C142.213 70.0536 141.35 69.7002 140.395 69.168C139.44 68.6359 137.771 67.9909 136.686 67.7349C135.602 67.4785 131.519 67.0694 127.613 66.8252L120.513 66.3814L127.379 65.6852C131.155 65.3026 134.706 64.7692 135.269 64.4998C135.862 64.2158 136.292 63.682 136.292 63.2284C136.292 62.7093 135.772 62.1929 134.748 61.6939C133.834 61.2485 132.004 60.8647 130.264 60.753C128.646 60.6497 126.083 60.7862 124.568 61.0564C123.052 61.3266 120.499 61.9519 118.894 62.4465C117.29 62.9408 115.976 63.2008 115.976 63.0244C115.976 62.8485 116.554 61.9538 117.258 61.0371C117.963 60.1195 118.995 59.0335 119.55 58.6233C120.105 58.213 121.258 57.6181 122.114 57.3018C123.156 56.9156 124.777 56.7661 127.028 56.8485C129.811 56.9495 130.843 57.183 133.034 58.2067ZM132.722 62.9905C132.516 63.1818 130.04 63.5479 127.219 63.8028C124.398 64.0584 121.292 64.3479 120.316 64.4465L118.54 64.6256L120.118 64.0126C120.986 63.6753 122.584 63.2497 123.669 63.067C124.754 62.8844 127.318 62.7144 129.369 62.6891C131.544 62.6623 132.94 62.7878 132.722 62.9905ZM109.713 70.8509C109.052 71.684 108.238 72.5913 107.905 72.8678C107.491 73.2099 107.298 73.2292 107.298 72.9278C107.298 72.6844 108.029 71.7767 108.924 70.9108C109.817 70.0454 110.631 69.3365 110.732 69.3365C110.832 69.3365 110.374 70.0181 109.713 70.8509ZM106.19 95.6181C106.746 96.2134 107.401 97.088 107.644 97.5609C107.888 98.0339 108.087 98.787 108.087 99.2343C108.087 99.8438 107.834 100.048 107.081 100.048C106.528 100.048 105.574 99.7889 104.961 99.4726C104.349 99.1566 103.752 98.5321 103.635 98.0852C103.518 97.6383 103.592 96.6564 103.8 95.9041C104.009 95.1511 104.404 94.5353 104.679 94.5353C104.953 94.5353 105.633 95.0229 106.19 95.6181ZM98.849 102.634C98.5476 104.568 98.2841 105.957 98.2632 105.721C98.2423 105.485 97.3373 104.809 96.2525 104.22C95.1677 103.631 94.2801 103.079 94.2801 102.994C94.2801 102.909 95.3803 101.951 96.7247 100.865C98.0695 99.7791 99.2206 98.9416 99.2833 99.0039C99.3456 99.0659 99.1504 100.7 98.849 102.634ZM102.491 99.6824C102.772 100.131 103.746 100.836 104.656 101.249C105.567 101.662 106.897 102.003 107.613 102.007L108.913 102.016L108.796 104.477L108.679 106.938H105.72H102.761L102.847 108.119C102.894 108.769 103.283 109.586 103.711 109.935C104.14 110.285 105.199 110.684 106.065 110.822C107.087 110.985 107.705 111.315 107.826 111.762C107.929 112.14 108.119 112.926 108.249 113.508L108.484 114.565L104.242 114.689C101.909 114.757 99.9819 114.813 99.9598 114.813C99.9377 114.813 100.071 112.155 100.256 108.906C100.44 105.658 100.782 102.07 101.014 100.933C101.247 99.7968 101.559 98.8663 101.708 98.8663C101.858 98.8663 102.21 99.2339 102.491 99.6824ZM93.787 100.993C92.7567 101.942 91.9133 103 91.9133 103.345C91.9133 103.7 92.7555 104.398 93.8576 104.955C94.9271 105.496 95.9152 106.121 96.0529 106.344C96.191 106.566 95.086 107.888 93.5981 109.282C92.1101 110.675 90.4419 112.17 89.8908 112.602C89.3397 113.034 88.1511 114.343 87.249 115.51C86.3468 116.678 85.5018 118.165 85.3717 118.816C85.2024 119.66 85.335 120.2 85.834 120.697C86.3535 121.216 86.9464 121.348 88.1385 121.208C89.0214 121.105 91.3855 120.401 93.3926 119.645C95.3997 118.888 97.0415 118.434 97.0415 118.635C97.0415 118.837 96.5129 119.769 95.8663 120.706C95.2202 121.644 93.9677 122.983 93.0825 123.682C92.0328 124.513 90.89 125.02 89.7945 125.143C88.3176 125.31 87.9685 125.186 86.8983 124.118C86.2289 123.45 85.3271 122.146 84.8943 121.22C84.462 120.295 84.002 119.071 83.8726 118.501C83.6861 117.678 84.0951 116.783 85.8529 114.17C87.0715 112.358 88.6861 109.592 89.4411 108.025C90.4786 105.87 90.7772 104.794 90.6644 103.615C90.5251 102.157 90.606 102.014 91.9046 101.426C92.6687 101.081 93.7377 100.456 94.2801 100.038C94.8225 99.6197 95.3551 99.2753 95.4636 99.273C95.572 99.2706 94.8174 100.045 93.787 100.993ZM98.1973 111.191C98.0738 113.423 97.8486 115.449 97.6971 115.694C97.5452 115.939 96.0403 116.671 94.3519 117.321C92.6636 117.97 90.4415 118.713 89.4131 118.972C88.3851 119.23 87.436 119.334 87.3038 119.202C87.172 119.071 87.5259 118.266 88.0904 117.415C88.6549 116.564 91.0328 114.144 93.3748 112.039C95.7168 109.935 97.7752 107.97 97.9488 107.673C98.1223 107.378 98.2999 107.135 98.3433 107.135C98.3866 107.135 98.3212 108.96 98.1973 111.191ZM113.428 117.955C114.087 118.224 114.931 118.747 115.302 119.117C115.673 119.488 115.976 120.116 115.976 120.515C115.976 120.993 115.285 121.583 113.934 122.254C112.811 122.813 111.83 123.208 111.754 123.132C111.678 123.056 111.379 121.636 111.09 119.977C110.568 116.979 110.57 116.962 111.397 117.213C111.854 117.352 112.768 117.686 113.428 117.955ZM112.217 134.818C112.982 138.025 113.79 142.258 114.013 144.225C114.294 146.695 114.291 149.276 114.004 152.569C113.776 155.191 113.349 158.753 113.056 160.486L112.522 163.635L112.47 156.942C112.426 151.445 112.172 148.664 111.045 141.39C110.291 136.517 109.672 131.364 109.669 129.938C109.667 128.513 109.798 127.213 109.961 127.049C110.123 126.886 110.385 127.255 110.541 127.869C110.697 128.484 111.452 131.611 112.217 134.818Z" fill="#16314F"/>
</svg>
