<svg width="499" height="507" viewBox="0 0 499 507" fill="none" xmlns="http://www.w3.org/2000/svg">
<path fill-rule="evenodd" clip-rule="evenodd" d="M256.445 97.6883C319.857 106.148 344.51 166.937 378.99 212.762C406.645 249.517 445.892 287.498 430.557 329.094C415.86 368.958 355.147 372.905 312.308 393.63C261.516 418.203 217.615 477.711 163.893 458.103C110.092 438.466 132.227 370.28 117.094 322.379C100.522 269.923 43.6907 220.085 73.5089 172.006C106.581 118.681 186.148 88.3097 256.445 97.6883Z" fill="#D89687" fill-opacity="0.46"/>
<path fill-rule="evenodd" clip-rule="evenodd" d="M231.981 61.7335C230.143 66.737 228.565 73.2377 228.287 76.9547C227.903 82.092 228.27 84.6801 230.05 89.3892C231.922 94.3379 233.998 97.0168 242.426 105.359C249.602 112.461 255.251 116.982 261.811 120.872C266.902 123.891 271.972 127.035 273.076 127.858C274.585 128.983 275.434 131.586 276.494 138.339C277.27 143.279 278.339 152.487 278.869 158.8L279.834 170.278L276.226 173.273C274.242 174.92 272.404 176.174 272.143 176.059C271.881 175.946 270.837 172.577 269.821 168.574C268.806 164.571 266.864 159.022 265.506 156.242C264.148 153.463 261.38 149.066 259.355 146.472C257.33 143.878 252.934 139.701 249.587 137.189C246.239 134.677 239.9 130.811 235.5 128.598C229.31 125.485 226.029 124.474 221 124.127C214.743 123.696 214.263 123.833 208.146 127.811C204.437 130.222 199.72 132.334 196.818 132.883C194.083 133.401 191.43 134.081 190.923 134.394C190.415 134.707 190 135.526 190 136.215C190 136.903 191.247 138.658 192.771 140.115C194.334 141.611 200.22 144.497 206.284 146.743C212.193 148.931 220.229 152.4 224.143 154.452C228.057 156.505 233.656 160.372 236.586 163.045C239.516 165.718 245.297 172.891 249.431 178.986C253.565 185.08 258.197 190.889 259.724 191.893C261.251 192.899 263.737 193.724 265.25 193.727L268 193.734L267.983 203.965L267.966 214.195L265.914 210.996C264.785 209.238 263.052 207.542 262.063 207.228C261.073 206.915 259.13 207.089 257.743 207.616C256.357 208.142 253.557 210.031 251.522 211.814C248.453 214.505 247.918 215.532 248.382 217.846C248.926 220.562 248.58 220.814 235.22 227.396C227.674 231.115 216.373 236.386 210.107 239.11C203.841 241.835 197.042 245.273 194.998 246.751C192.954 248.228 190.326 250.981 189.158 252.867C187.76 255.124 186.173 261.289 184.517 270.89C183.133 278.916 181.107 287.858 180.015 290.762C178.923 293.665 174.873 301.425 171.015 308.007C164.586 318.973 164 320.441 164 325.575C164 330.748 164.406 331.74 169.313 338.561C172.236 342.622 179.354 352.261 185.131 359.979C190.909 367.697 198.635 378.305 202.301 383.553C205.967 388.801 210.886 397.084 213.233 401.959L217.5 410.824L218.144 431.784C218.499 443.312 218.836 453.081 218.894 453.493C218.952 453.905 219.614 454.241 220.364 454.241C221.229 454.241 221.961 452.547 222.364 449.61C222.714 447.064 223 438.624 223 430.857C223 421.386 222.495 414.797 221.467 410.856C220.623 407.625 218.628 402.253 217.033 398.919C215.438 395.585 211.572 389.04 208.442 384.374C205.312 379.707 195.585 366.284 186.826 354.542C178.067 342.801 170.025 331.483 168.956 329.39C167.544 326.628 167.255 324.957 167.901 323.29C168.391 322.026 172.002 315.614 175.926 309.039C179.85 302.464 183.96 294.177 185.06 290.623C186.159 287.069 187.953 278.6 189.045 271.805C190.137 265.01 191.656 258.251 192.42 256.786C193.185 255.32 194.865 253.16 196.155 251.987C197.445 250.813 200.406 248.899 202.735 247.732C205.065 246.565 211.773 243.563 217.642 241.06C223.511 238.558 233.609 233.862 240.08 230.624C246.552 227.386 254.395 222.665 257.509 220.134C260.623 217.602 263.306 215.679 263.471 215.861C263.636 216.043 264.074 218.018 264.443 220.251L265.114 224.31L251.307 237.031C241.602 245.973 235.678 250.621 231.367 252.68L225.234 255.608L224.823 261.85C224.525 266.38 223.502 269.874 221.096 274.581C219.272 278.149 215.579 284.188 212.89 288C209.45 292.875 208 295.898 208 298.192C208 299.987 208.904 303.866 210.008 306.812C211.112 309.759 213.569 313.98 215.468 316.193C217.366 318.407 220.345 320.808 222.086 321.528C224.619 322.575 226.153 322.596 229.756 321.635C232.232 320.973 236.181 319.055 238.531 317.371C240.88 315.686 244.195 312.373 245.897 310.007C247.6 307.642 249.868 303.668 250.937 301.177C252.634 297.227 253.433 296.5 257.191 295.485C259.561 294.845 264.266 294.54 267.646 294.808C271.026 295.075 274.221 295.559 274.746 295.884C275.271 296.207 276.277 300.489 276.982 305.4C278.241 314.162 278.221 314.387 275.916 317.618C274.24 319.967 273.464 322.632 273.202 326.939C272.983 330.536 274.062 340.828 275.876 352.434C277.548 363.139 279.414 377.961 280.022 385.372C280.848 395.433 280.824 405.246 279.927 424.111C279.026 443.077 279.011 449.661 279.87 450.518C280.729 451.376 281.377 451.298 282.469 450.206C283.269 449.407 285.255 442.015 286.884 433.78C288.512 425.546 290.614 413.643 291.555 407.33C292.69 399.716 293.289 389.3 293.332 376.389L293.398 356.925L289.317 340.956C287.072 332.172 284.931 323.156 284.56 320.919C283.889 316.887 283.916 316.843 287.692 315.707C289.786 315.078 293.188 313.169 295.25 311.466C298.005 309.193 299 307.606 299 305.484C299 303.527 297.899 301.495 295.588 299.189C293.69 297.295 289.363 294.711 285.843 293.37L279.511 290.956L278.825 286.167C278.448 283.534 277.433 280.6 276.569 279.649C275.706 278.696 275 277.615 275 277.247C275 276.879 275.698 276.577 276.551 276.577C277.404 276.577 278.779 274.961 279.606 272.986C280.795 270.143 280.981 266.866 280.496 257.266C280.159 250.594 279.678 244.135 279.427 242.909C279.176 241.684 277.581 239.101 275.882 237.17C273.962 234.988 271.886 233.658 270.396 233.658C269.078 233.658 268 233.491 268 233.285C268 233.08 268.659 231.046 269.465 228.767C270.271 226.487 271.661 219.806 272.553 213.919C273.446 208.032 274.206 202.542 274.242 201.719C274.279 200.895 273.979 198.616 273.576 196.652C272.904 193.384 273.235 192.627 277.502 187.669C280.065 184.692 283.322 180.298 284.739 177.906L287.316 173.557L311.908 174.23C325.434 174.6 339.176 175.358 342.446 175.914C345.716 176.47 350.148 177.819 352.295 178.913C354.442 180.006 358.117 182.665 360.461 184.822C362.806 186.979 365.062 188.743 365.475 188.743C365.888 188.743 366.041 185.712 365.814 182.006C365.492 176.721 364.509 173.38 361.253 166.507C358.202 160.066 355.513 156.158 351.097 151.75C347.65 148.31 342.835 144.73 339.796 143.347C336.883 142.023 331.788 140.507 328.472 139.98C325.078 139.44 319.344 139.36 315.345 139.798C310.571 140.321 306.541 141.502 303.04 143.404C300.177 144.959 296.746 147.523 295.415 149.101C294.084 150.68 291.177 155.08 288.954 158.879C286.731 162.679 284.645 165.787 284.318 165.787C283.992 165.787 284.006 163.429 284.35 160.547C284.694 157.664 286.602 149.018 288.591 141.333C291.378 130.564 292.241 125.185 292.353 117.877C292.486 109.272 292.23 107.842 289.58 102.407C287.782 98.7176 284.284 94.1183 280.471 90.4292C277.028 87.0975 269.45 81.579 263.391 77.9908C257.401 74.4435 250.626 70.2933 248.335 68.7682C244.837 66.4406 243.823 64.9554 242.003 59.4977C240.165 53.9841 239.485 53 237.513 53C235.503 53 234.756 54.1788 231.981 61.7335ZM241.556 68.6334C242.934 70.436 249.96 75.4206 257.534 79.97C264.97 84.4356 273.639 90.4781 276.798 93.3966C279.956 96.3151 283.657 100.884 285.02 103.549C287.173 107.756 287.499 109.711 287.493 118.376C287.489 123.866 287.11 129.256 286.651 130.354C285.969 131.984 285.323 130.975 283.13 124.864C281.653 120.747 278.525 114.567 276.179 111.131C273.832 107.695 268.889 101.743 265.194 97.9061C261.498 94.0684 257.918 90.9283 257.237 90.9283C256.557 90.9283 256 91.7687 256 92.7968C256 93.8238 258.28 98.1496 261.066 102.41C263.852 106.67 267.495 112.566 269.161 115.514C270.828 118.46 271.747 120.872 271.205 120.872C270.663 120.872 266.007 118.12 260.859 114.757C255.712 111.395 248.35 105.412 244.5 101.463C240.65 97.5148 236.432 92.134 235.128 89.507C233.06 85.3449 232.822 83.7489 233.273 77.0994C233.558 72.9024 234.599 67.5156 235.586 65.1271C237.271 61.0548 237.435 60.929 238.24 63.1009C238.712 64.3745 240.205 66.8638 241.556 68.6334ZM229.358 130.886C232.347 132.002 237.486 134.653 240.779 136.777C244.072 138.902 249.33 143.239 252.463 146.417C255.597 149.595 259.317 154.467 260.731 157.245C262.144 160.022 263.903 164.539 264.639 167.284C265.374 170.029 265.982 172.718 265.988 173.26C265.995 173.801 264.345 171.779 262.321 168.768C260.298 165.756 255.741 160.525 252.195 157.143C248.649 153.763 243.588 149.822 240.947 148.388C237.825 146.692 235.916 146.151 235.487 146.844C235.125 147.428 236.021 149.468 237.479 151.375C238.936 153.282 241.497 155.846 243.169 157.071C244.841 158.296 249.251 162.782 252.969 167.04C256.686 171.298 261.139 177.425 262.864 180.655C264.589 183.885 266 187.058 266 187.705C266 188.354 264.994 188.739 263.758 188.564C262.175 188.338 259.16 184.814 253.508 176.579C249.103 170.165 244.375 163.716 243 162.248C241.625 160.782 237.8 157.663 234.5 155.318C231.2 152.972 226.25 149.937 223.5 148.572C220.75 147.207 213.891 144.41 208.258 142.356C202.625 140.302 198.233 138.271 198.498 137.843C198.764 137.413 200.159 136.768 201.599 136.407C203.038 136.046 206.524 134.199 209.345 132.304C213.395 129.581 215.467 128.857 219.199 128.857C221.798 128.857 226.37 129.77 229.358 130.886ZM337.242 147.554C341.206 149.406 345.813 152.601 348.506 155.366C351.155 158.086 354.772 163.57 357.144 168.461C359.388 173.089 361.017 177.081 360.764 177.334C360.511 177.586 358.323 176.69 355.902 175.341C353.481 173.992 349.25 172.357 346.5 171.708C343.75 171.058 333.4 170.021 323.5 169.402L305.5 168.277L322.906 166.512C332.479 165.542 341.479 164.19 342.906 163.507C344.41 162.787 345.5 161.434 345.5 160.284C345.5 158.968 344.183 157.659 341.586 156.394C339.269 155.265 334.63 154.292 330.218 154.009C326.118 153.747 319.621 154.093 315.779 154.778C311.937 155.463 305.465 157.048 301.397 158.302C297.329 159.555 294 160.214 294 159.767C294 159.321 295.463 157.053 297.25 154.729C299.037 152.403 301.651 149.65 303.058 148.61C304.465 147.57 307.39 146.062 309.558 145.26C312.2 144.281 316.309 143.902 322.017 144.111C329.071 144.367 331.687 144.959 337.242 147.554ZM336.45 159.681C335.928 160.166 329.65 161.094 322.5 161.74C315.35 162.388 307.475 163.122 305 163.372L300.5 163.826L304.5 162.272C306.7 161.417 310.75 160.338 313.5 159.875C316.25 159.412 322.752 158.981 327.95 158.917C333.463 158.849 337.004 159.167 336.45 159.681ZM278.122 179.607C276.446 181.719 274.384 184.019 273.538 184.72C272.49 185.587 272 185.636 272 184.872C272 184.255 273.854 181.954 276.121 179.759C278.387 177.565 280.45 175.768 280.705 175.768C280.96 175.768 279.797 177.496 278.122 179.607ZM269.191 242.392C270.601 243.901 272.261 246.118 272.878 247.317C273.495 248.516 274 250.425 274 251.559C274 253.104 273.36 253.621 271.45 253.621C270.048 253.621 267.63 252.965 266.077 252.163C264.525 251.362 263.011 249.779 262.714 248.646C262.417 247.513 262.606 245.024 263.134 243.117C263.662 241.208 264.664 239.647 265.36 239.647C266.056 239.647 267.78 240.883 269.191 242.392ZM250.582 260.176C249.818 265.08 249.15 268.601 249.097 268.003C249.044 267.404 246.75 265.691 244 264.198C241.25 262.704 239 261.305 239 261.09C239 260.874 241.789 258.446 245.197 255.693C248.606 252.94 251.524 250.817 251.683 250.975C251.841 251.132 251.346 255.274 250.582 260.176ZM259.814 252.695C260.526 253.833 262.996 255.62 265.304 256.666C267.612 257.712 270.984 258.577 272.798 258.589L276.095 258.611L275.798 264.85L275.5 271.088H268H260.5L260.716 274.082C260.835 275.729 261.821 277.801 262.907 278.686C263.994 279.572 266.679 280.583 268.874 280.933C271.466 281.346 273.032 282.183 273.34 283.316C273.601 284.276 274.082 286.268 274.41 287.742L275.006 290.422L264.253 290.737C258.339 290.909 253.454 291.05 253.398 291.05C253.342 291.05 253.68 284.313 254.148 276.078C254.616 267.844 255.481 258.748 256.07 255.866C256.66 252.985 257.452 250.626 257.83 250.626C258.209 250.626 259.102 251.558 259.814 252.695ZM237.75 256.018C235.138 258.424 233 261.106 233 261.98C233 262.88 235.135 264.648 237.929 266.061C240.64 267.433 243.145 269.017 243.494 269.581C243.844 270.145 241.043 273.497 237.271 277.029C233.499 280.562 229.27 284.35 227.873 285.446C226.476 286.542 223.463 289.86 221.176 292.819C218.889 295.778 216.747 299.548 216.417 301.198C215.988 303.337 216.324 304.706 217.589 305.968C218.906 307.282 220.409 307.616 223.431 307.262C225.669 307.001 231.662 305.217 236.75 303.299C241.838 301.381 246 300.23 246 300.741C246 301.252 244.66 303.614 243.021 305.991C241.383 308.367 238.208 311.763 235.964 313.535C233.303 315.64 230.406 316.926 227.629 317.238C223.885 317.66 223 317.347 220.287 314.638C218.59 312.945 216.304 309.639 215.207 307.293C214.111 304.947 212.945 301.845 212.617 300.399C212.144 298.314 213.181 296.046 217.637 289.42C220.726 284.827 224.819 277.817 226.733 273.844C229.363 268.38 230.12 265.653 229.834 262.663C229.481 258.967 229.686 258.605 232.978 257.116C234.915 256.24 237.625 254.656 239 253.596C240.375 252.536 241.725 251.663 242 251.657C242.275 251.651 240.362 253.614 237.75 256.018ZM248.93 281.87C248.617 287.528 248.046 292.664 247.662 293.284C247.277 293.905 243.462 295.76 239.182 297.408C234.902 299.055 229.269 300.938 226.662 301.593C224.056 302.249 221.65 302.511 221.315 302.178C220.981 301.844 221.878 299.805 223.309 297.646C224.74 295.489 230.768 289.356 236.705 284.02C242.642 278.684 247.86 273.704 248.3 272.952C248.74 272.202 249.19 271.587 249.3 271.587C249.41 271.586 249.244 276.214 248.93 281.87ZM287.54 299.016C289.211 299.698 291.349 301.023 292.29 301.962C293.23 302.901 294 304.495 294 305.505C294 306.718 292.247 308.213 288.823 309.915C285.976 311.331 283.489 312.332 283.296 312.139C283.103 311.947 282.346 308.348 281.613 304.141C280.289 296.542 280.294 296.498 282.39 297.135C283.551 297.488 285.868 298.334 287.54 299.016ZM284.469 341.764C286.408 349.894 288.457 360.625 289.023 365.611C289.734 371.873 289.727 378.415 289 386.762C288.422 393.408 287.34 402.439 286.596 406.831L285.244 414.816L285.111 397.848C285.001 383.914 284.355 376.864 281.5 358.423C279.588 346.071 278.018 333.009 278.011 329.394C278.005 325.78 278.338 322.485 278.75 322.07C279.162 321.655 279.825 322.591 280.222 324.149C280.618 325.707 282.53 333.633 284.469 341.764Z" fill="#16314F"/>
</svg>
