<svg width="198" height="200" viewBox="0 0 198 200" fill="none" xmlns="http://www.w3.org/2000/svg">
<g clip-path="url(#clip0_4_8)">
<path fill-rule="evenodd" clip-rule="evenodd" d="M75.2769 21.8242C100.658 24.3928 92.3645 62.8469 107.952 81.3495C122.832 99.013 159.253 100.708 160.495 122.98C161.852 147.317 138.814 170.399 113.309 177.432C90.26 183.789 70.5629 164.713 49.8474 153.493C32.6184 144.162 10.4457 137.505 6.45008 119.557C2.50794 101.85 21.3783 88.8619 32.0766 73.6706C45.6115 54.4513 50.4371 19.3102 75.2769 21.8242Z" fill="#16314F" fill-opacity="0.14"/>
<path fill-rule="evenodd" clip-rule="evenodd" d="M119.2 36.1493C117.909 36.7134 116.146 38.1891 115.282 39.4287C114.391 40.7081 113.529 43.2856 113.288 45.391L112.864 49.1002L108.523 47.5152C105.129 46.2758 103.473 46.019 100.927 46.3365C99.1361 46.5606 96.9389 47.1606 96.0434 47.6706C95.1475 48.1807 94.4154 49.0245 94.4154 49.5456C94.4154 50.0663 94.2671 50.4931 94.086 50.4931C93.9053 50.4931 90.1215 49.3428 85.6777 47.9369C81.2339 46.531 77.3519 45.5168 77.0493 45.6821C76.7475 45.847 76.3318 46.6367 76.1247 47.4359C75.9176 48.2351 73.6387 53.942 71.0596 60.1176C67.6063 68.3866 66.5862 71.5267 67.1886 72.0296C67.6394 72.4056 68.9144 73.0537 70.0221 73.4695C71.5976 74.0616 72.1033 74.0521 72.3479 73.4276C72.5203 72.989 73.3392 70.9862 74.1684 68.9787L75.6761 65.3278L81.5286 67.8371C84.7467 69.2182 87.5254 70.4762 87.7034 70.634C87.8813 70.7921 86.4801 73.9756 84.5901 77.7101C82.6998 81.4446 80.8087 84.4998 80.3866 84.4998C79.9649 84.4998 77.4138 83.7326 74.7183 82.7945C72.0225 81.8564 69.8166 80.8809 69.8166 80.6269C69.8166 80.3728 70.3274 79.0813 70.9511 77.757C71.5751 76.432 71.8197 75.1409 71.4935 74.8876C71.168 74.634 69.5566 73.9661 67.9124 73.4036L64.9227 72.3799L61.1503 82.0142C59.0753 87.3129 57.4911 91.7085 57.6284 91.7823C57.7661 91.8564 59.0742 92.3977 60.5353 92.9862C62.5684 93.8048 63.3527 93.8754 63.8781 93.2884C64.2548 92.8655 64.9566 91.4379 65.4371 90.114C65.9183 88.791 66.471 87.7081 66.6671 87.7081C66.8631 87.7081 69.4209 88.5933 72.3511 89.6754L77.6793 91.6426L75.1937 96.7925C73.8268 99.6253 72.8422 102.136 73.0063 102.371C73.1708 102.607 72.8647 103.728 72.3262 104.862L71.3487 106.925L66.4225 104.912C63.7132 103.804 61.3878 102.825 61.2548 102.735C61.1223 102.646 61.6915 101.213 62.5207 99.5499C63.3499 97.8876 64.0284 96.4336 64.0284 96.3188C64.0284 96.2032 62.5223 95.5188 60.6809 94.7961C58.8394 94.0738 57.0489 93.4829 56.7018 93.4829C56.3542 93.4829 56.0702 93.8545 56.0702 94.3081C56.0702 94.7618 54.2793 99.0896 52.0907 103.926C49.9022 108.763 48.1116 112.958 48.1116 113.249C48.1116 113.54 49.4355 114.439 51.0532 115.245C52.671 116.052 54.0962 116.61 54.2209 116.486C54.3452 116.362 55.2193 114.91 56.1625 113.26L57.8789 110.259L62.4781 112.718C65.0075 114.072 67.3574 115.427 67.7002 115.731C68.0481 116.04 67.1337 119.157 65.6245 122.804C64.14 126.39 62.7037 129.52 62.4323 129.76C62.1617 130.001 59.1862 129.235 55.8205 128.059L49.701 125.92L51.8028 122.228L53.9045 118.535L51.0367 117.238C49.4596 116.524 48.0458 115.94 47.8947 115.94C47.7432 115.94 47.2067 117.051 46.7014 118.408L45.7826 120.875L22.4611 120.526L0.39447 121.168V121.409C56.7373 121.409 45.9223 122.829 46.5179 122.192C46.9321 121.75 47.4959 120.595 47.77 119.626C48.0442 118.657 48.4177 117.865 48.5992 117.865C48.7815 117.865 49.5412 118.155 50.2888 118.51C51.5968 119.131 51.5807 119.287 49.8379 122.781C48.359 125.748 48.2012 126.55 48.9747 127.187C49.4951 127.615 52.9172 128.987 56.5795 130.234C61.4643 131.899 63.415 132.306 63.9014 131.761C64.2651 131.353 64.974 129.864 65.4761 128.452C65.9783 127.04 66.5318 125.664 66.7069 125.393C66.8813 125.121 67.8962 125.447 68.9629 126.115C70.0292 126.784 73.832 128.628 77.413 130.215C80.9945 131.802 88.9712 135.138 95.1389 137.628C101.307 140.119 106.801 142.249 107.348 142.362C107.895 142.476 108.477 142.247 108.641 141.854C108.811 141.447 102.815 138.737 94.6229 135.523C86.7491 132.433 77.4343 128.576 73.9223 126.954C68.6016 124.495 67.5917 123.785 67.8623 122.698C68.041 121.981 68.6221 120.021 69.1531 118.343C69.9815 115.725 69.9684 115.162 69.0635 114.378C68.4824 113.875 65.471 112.258 62.3716 110.783L56.7357 108.101L55.2028 111.319C53.7724 114.321 53.5558 114.491 51.9759 113.852C51.0446 113.475 50.282 112.954 50.282 112.692C50.282 112.431 51.6959 108.94 53.4237 104.935C55.1507 100.93 56.7602 97.1669 56.9996 96.5728C57.3732 95.6466 57.7534 95.5985 59.6607 96.2367C60.8856 96.6466 61.7408 97.32 61.5621 97.7322C61.3842 98.1448 60.8363 99.6695 60.3467 101.12C59.8568 102.57 59.5893 103.845 59.7527 103.951C59.9156 104.058 62.7897 105.222 66.1396 106.538C70.8351 108.382 72.3625 108.741 72.8087 108.105C73.127 107.649 73.7878 105.897 74.2769 104.21C74.9633 101.842 75.4221 101.236 76.2895 101.555C76.9073 101.783 85.3897 104.346 95.1389 107.253C104.888 110.159 114.534 113.29 116.575 114.209C118.615 115.13 120.487 115.703 120.735 115.483C120.982 115.264 121.185 114.891 121.185 114.654C121.185 114.417 119.33 113.418 117.062 112.433C114.795 111.449 107.062 108.95 99.8793 106.88C92.6955 104.811 84.3767 102.488 81.3925 101.719C78.4079 100.95 75.8655 100.257 75.7432 100.18C75.6205 100.102 76.3534 98.2837 77.3712 96.1385C78.3893 93.9929 79.2221 91.8355 79.2221 91.3444C79.2221 90.8265 76.5061 89.4407 72.7649 88.0493C69.2138 86.7282 65.9949 85.8198 65.6122 86.0288C65.2296 86.2387 64.7116 87.3519 64.4619 88.503C64.2114 89.6541 63.7274 90.9862 63.3862 91.4635C62.9101 92.1302 62.4189 92.1673 61.2757 91.6245C59.802 90.9251 59.8162 90.8367 62.6323 83.3775C64.198 79.2308 65.6363 75.4643 65.8284 75.0083C66.1033 74.3543 66.5254 74.3389 67.8162 74.9345C68.7176 75.3507 69.5349 75.7472 69.6335 75.8158C69.7318 75.8844 69.2884 77.3054 68.6481 78.972C68.0071 80.6391 67.6012 82.0912 67.7459 82.1988C67.8899 82.3069 71.026 83.3436 74.716 84.503C78.4059 85.662 81.6615 86.4004 81.9511 86.1436C82.2402 85.8864 83.0209 84.4734 83.6844 83.0028C84.3748 81.4746 85.3037 80.4075 85.8548 80.5113C86.3854 80.6123 96.5286 84.0316 108.396 88.1105C120.264 92.1894 130.172 95.3507 130.414 95.1357C130.657 94.9207 130.552 94.4813 130.18 94.1598C129.809 93.8383 120.551 90.5389 109.609 86.8284C98.6659 83.118 88.8406 79.7917 87.7744 79.4367L85.8367 78.7917L87.9156 74.4276C89.0584 72.0272 89.7677 69.8848 89.4911 69.6667C89.215 69.4485 85.815 67.9507 81.9357 66.3389C75.643 63.7235 74.8146 63.5247 74.2544 64.49C73.9093 65.0844 73.0801 67.0568 72.4122 68.873C71.4355 71.5278 70.9365 72.1125 69.8607 71.8635C68.6359 71.5791 68.8884 70.5783 72.8797 59.9002C75.2753 53.4915 77.4675 48.0198 77.7511 47.7405C78.0347 47.462 81.4509 48.2557 85.342 49.505C89.2335 50.7543 93.0398 51.7764 93.8012 51.7764C94.5613 51.7764 95.3097 52.1377 95.4631 52.5783C95.6162 53.0198 95.9534 54.2312 96.2134 55.2706C96.4722 56.3109 97.7862 58.0829 99.1333 59.2091C100.781 60.5874 105.082 62.4813 112.287 65.0024C119.839 67.6442 123.989 68.7527 126.372 68.7637C128.99 68.776 130.188 68.4186 131.696 67.1756C132.766 66.2935 133.912 64.9941 134.241 64.2884C134.82 63.0474 134.841 63.0513 134.886 64.3929C134.921 65.503 135.907 66.1093 139.815 67.4265C142.5 68.3326 146 69.4809 147.592 69.9795C149.184 70.4777 150.428 71.1334 150.357 71.4367C150.285 71.7397 145.809 82.1523 140.409 94.5756C135.009 106.999 133.551 113.042 132.432 115.393C132.432 115.393 132.448 115.483 132.794 115.483C133.142 115.483 133.733 114.247 136.032 109.043C138.331 103.837 143.079 93.1054 146.582 85.1933C150.086 77.2821 152.821 70.6194 152.659 70.3878C152.497 70.1555 148.821 68.7342 144.488 67.2284L136.609 64.4904L137.359 61.585C138 59.1006 137.931 58.5649 136.882 57.8848C136.207 57.4474 135.654 56.7566 135.654 56.3511C135.654 55.9456 133.554 54.6959 130.987 53.5728C126.781 51.7342 126.45 51.4509 127.637 50.714C128.362 50.2639 129.485 48.9038 130.134 47.6912C130.783 46.4789 131.312 44.52 131.311 43.3381C131.309 42.1562 130.697 40.3002 129.949 39.2132C129.202 38.1262 127.445 36.7544 126.045 36.1654C124.644 35.5757 123.059 35.1003 122.522 35.1086C121.985 35.1163 120.49 35.5847 119.2 36.1493ZM127.073 38.7037C127.826 39.3075 128.709 40.6916 129.036 41.7791C129.362 42.8659 129.364 44.5965 129.042 45.6233C128.718 46.6505 127.739 48.1661 126.864 48.9917C125.989 49.8174 124.858 50.4931 124.35 50.4931C123.843 50.4931 123.149 50.9338 122.809 51.4722C122.266 52.3326 121.749 52.2884 118.543 51.1065L114.895 49.7622L115.199 46.4379C115.366 44.6099 115.848 42.3105 116.271 41.3278C116.694 40.3456 117.891 38.9482 118.931 38.2225C120.324 37.251 121.467 36.9957 123.264 37.2543C124.607 37.4474 126.321 38.0999 127.073 38.7037ZM103.821 47.6059C103.821 47.7823 103.658 47.9267 103.459 47.9267C103.26 47.9267 103.097 47.7823 103.097 47.6059C103.097 47.4292 103.26 47.2848 103.459 47.2848C103.658 47.2848 103.821 47.4292 103.821 47.6059ZM105.75 48.3547C105.485 48.5894 105.051 48.5894 104.785 48.3547C104.52 48.1192 104.737 47.9267 105.268 47.9267C105.798 47.9267 106.015 48.1192 105.75 48.3547ZM96.6742 50.2844C96.0438 51.2466 95.9022 51.2742 95.884 50.4399C95.8726 49.8809 96.0793 49.2312 96.3448 48.9961C96.6099 48.7606 96.9657 48.6908 97.1341 48.8411C97.3034 48.991 97.0966 49.6403 96.6742 50.2844ZM107.794 50.7941C111.759 52.2773 113.731 52.7318 114.074 52.2399C114.419 51.7444 116.55 52.187 120.954 53.6687C124.464 54.8493 128.718 56.3397 130.409 56.9815C132.916 57.9318 133.484 58.4596 133.484 59.8371C133.484 60.7669 132.953 62.52 132.305 63.7322C131.656 64.9448 130.469 66.2486 129.666 66.6288C128.864 67.0103 126.872 67.1764 125.239 67C123.606 66.8229 117.921 65.1653 112.606 63.3176C107.2 61.4383 101.893 59.1413 100.564 58.1054C99.2556 57.0872 97.983 55.5377 97.7353 54.6624C97.4872 53.7854 97.7613 52.0592 98.3456 50.819C99.0154 49.3973 99.8856 48.5799 100.709 48.5996C101.426 48.617 104.614 49.6044 107.794 50.7941ZM107.438 48.8892C107.438 49.0655 107.275 49.2099 107.077 49.2099C106.878 49.2099 106.715 49.0655 106.715 48.8892C106.715 48.7125 106.878 48.5681 107.077 48.5681C107.275 48.5681 107.438 48.7125 107.438 48.8892ZM109.368 49.6379C109.102 49.8726 108.668 49.8726 108.403 49.6379C108.138 49.4024 108.355 49.2099 108.885 49.2099C109.416 49.2099 109.633 49.4024 109.368 49.6379ZM111.056 50.1724C111.056 50.3487 110.893 50.4931 110.694 50.4931C110.495 50.4931 110.332 50.3487 110.332 50.1724C110.332 49.9957 110.495 49.8513 110.694 49.8513C110.893 49.8513 111.056 49.9957 111.056 50.1724ZM112.985 50.9211C112.72 51.1559 112.286 51.1559 112.02 50.9211C111.755 50.6856 111.972 50.4931 112.503 50.4931C113.033 50.4931 113.25 50.6856 112.985 50.9211ZM126.249 53.3807C127.244 53.8848 127.732 54.2975 127.335 54.2975C126.936 54.2975 125.797 53.8848 124.802 53.3807C123.807 52.8762 123.319 52.4635 123.717 52.4635C124.115 52.4635 125.254 52.8762 126.249 53.3807ZM130.59 54.9846C131.187 55.3267 131.35 55.6063 130.952 55.6063C130.554 55.6063 129.74 55.3267 129.143 54.9846C128.546 54.6426 128.383 54.3629 128.781 54.3629C129.179 54.3629 129.993 54.6426 130.59 54.9846ZM132.761 55.9472C132.761 56.1235 132.598 56.2679 132.399 56.2679C132.2 56.2679 132.037 56.1235 132.037 55.9472C132.037 55.7704 132.2 55.6261 132.399 55.6261C132.598 55.6261 132.761 55.7704 132.761 55.9472ZM136.378 59.1551C136.378 59.3318 136.215 59.4762 136.016 59.4762C135.817 59.4762 135.654 59.3318 135.654 59.1551C135.654 58.9787 135.817 58.8344 136.016 58.8344C136.215 58.8344 136.378 58.9787 136.378 59.1551ZM135.41 62.2032C135.209 62.6446 135.045 62.2833 135.045 61.4008C135.045 60.5188 135.209 60.1582 135.41 60.5988C135.611 61.0403 135.611 61.7622 135.41 62.2032ZM127.863 123.155C127.011 125.01 122.067 137.289 116.876 150.443C111.685 163.598 107.433 174.57 107.427 174.826C107.421 175.082 107.141 175.676 106.805 176.146C106.329 176.812 99.3483 174.596 75.1633 166.105C58.0966 160.113 41.9578 154.436 39.2995 153.491L34.4665 151.771L36.6992 146.078C38.7301 140.899 39.0571 140.443 40.3219 141.044C41.1511 141.437 41.5424 142.097 41.2911 142.677C41.0596 143.212 40.6836 144.311 40.454 145.12C40.0663 146.49 40.5605 146.746 47.6572 148.853C53.3325 150.539 55.4552 150.925 55.9767 150.368C56.3617 149.956 56.9014 148.826 57.1755 147.858C57.4497 146.89 58.0864 146.097 58.5901 146.097C59.0943 146.097 62.559 147.35 66.2895 148.882C70.0197 150.414 78.8651 153.914 85.946 156.66C93.0268 159.406 99.0501 161.45 99.3302 161.201C99.6099 160.953 99.3191 160.413 98.6832 160C98.0473 159.588 88.8402 155.93 78.2229 151.872C59.572 144.742 58.9321 144.438 59.3085 142.889C59.5219 142.007 59.8899 140.404 60.1254 139.328C60.5507 137.383 60.516 137.359 53.428 134.676C49.5093 133.193 46.0722 131.979 45.7893 131.98C45.5069 131.98 44.8978 133.1 44.4355 134.467C43.7744 136.426 43.3077 136.886 42.2363 136.638C41.4888 136.465 40.8765 136.086 40.8765 135.797C40.8765 135.507 41.8757 133.015 43.0962 130.258C44.3175 127.5 45.4919 124.883 45.7061 124.442C45.9203 124.001 45.654 123.64 45.114 123.641C44.5282 123.641 43.1124 126.163 41.6016 129.897C40.2103 133.337 39.0708 136.411 39.0694 136.729C39.0687 137.046 40.3014 137.684 41.8095 138.148C44.4891 138.97 44.5673 138.95 45.2675 137.249C45.6619 136.293 46.1243 135.155 46.2959 134.722C46.5156 134.165 48.3361 134.589 52.488 136.165C55.7227 137.393 58.4836 138.397 58.6233 138.397C58.7637 138.397 58.0793 140.48 57.1034 143.026C56.1266 145.571 55.0485 147.901 54.7061 148.205C54.3598 148.512 51.3227 147.993 47.8426 147.03C44.4095 146.081 41.6103 145.122 41.6233 144.898C41.6355 144.675 42.1239 143.932 42.7085 143.247C43.2923 142.562 43.7673 141.696 43.7633 141.323C43.759 140.948 42.469 140.164 40.897 139.578L38.0377 138.514L36.6493 141.824C35.8853 143.645 34.6604 146.643 33.9261 148.486C32.987 150.847 32.8184 152.04 33.3581 152.518C33.7799 152.893 49.725 158.834 68.7921 165.722C87.8592 172.61 104.306 178.403 105.342 178.595C107.019 178.905 107.365 178.636 108.492 176.155C109.189 174.622 113.981 162.828 119.141 149.947C124.301 137.066 128.909 125.516 129.38 124.281L130.239 122.036L164.628 121.168L166.075 120.526L129.412 119.783L127.863 123.155Z" fill="#16314F"/>
<path fill-rule="evenodd" clip-rule="evenodd" d="M119.2 36.1493C117.909 36.7133 116.146 38.189 115.282 39.4287C114.391 40.7081 113.529 43.2856 113.288 45.3909L112.864 49.1002L108.523 47.5152C105.129 46.2757 103.473 46.0189 100.927 46.3365C99.1361 46.5605 96.9389 47.1605 96.0434 47.6706C95.1475 48.1806 94.4154 49.0244 94.4154 49.5455C94.4154 50.0662 94.2671 50.4931 94.086 50.4931C93.9053 50.4931 90.1215 49.3428 85.6777 47.9369C81.2339 46.5309 77.3519 45.5167 77.0493 45.682C76.7475 45.8469 76.3318 46.6367 76.1247 47.4359C75.9176 48.2351 73.6387 53.942 71.0596 60.1175C67.6063 68.3866 66.5862 71.5266 67.1886 72.0296C67.6394 72.4055 68.9144 73.0536 70.0221 73.4694C71.5976 74.0615 72.1033 74.052 72.3479 73.4276C72.5203 72.9889 73.3392 70.9862 74.1684 68.9787L75.6761 65.3278L81.5286 67.837C84.7467 69.2181 87.5254 70.4761 87.7034 70.6339C87.8813 70.7921 86.4801 73.9755 84.5901 77.71C82.6998 81.4445 80.8087 84.4998 80.3866 84.4998C79.9649 84.4998 77.4138 83.7325 74.7183 82.7944C72.0225 81.8564 69.8166 80.8808 69.8166 80.6268C69.8166 80.3728 70.3274 79.0812 70.9511 77.757C71.5751 76.4319 71.8197 75.1408 71.4935 74.8875C71.168 74.6339 69.5566 73.966 67.9124 73.4035L64.9227 72.3799L61.1503 82.0142C59.0753 87.3128 57.4911 91.7085 57.6284 91.7822C57.7661 91.8564 59.0742 92.3976 60.5353 92.9862C62.5684 93.8047 63.3527 93.8753 63.8781 93.2883C64.2548 92.8655 64.9566 91.4378 65.4371 90.114C65.9183 88.7909 66.471 87.7081 66.6671 87.7081C66.8631 87.7081 69.4209 88.5933 72.3511 89.6753L77.6793 91.6426L75.1937 96.7925C73.8268 99.6252 72.8422 102.136 73.0063 102.371C73.1708 102.607 72.8647 103.728 72.3262 104.862L71.3487 106.925L66.4225 104.912C63.7132 103.804 61.3878 102.825 61.2548 102.735C61.1223 102.646 61.6915 101.213 62.5207 99.5499C63.3499 97.8875 64.0284 96.4335 64.0284 96.3187C64.0284 96.2031 62.5223 95.5187 60.6809 94.796C58.8394 94.0737 57.0489 93.4828 56.7018 93.4828C56.3542 93.4828 56.0702 93.8544 56.0702 94.3081C56.0702 94.7617 54.2793 99.0895 52.0907 103.926C49.9022 108.762 48.1116 112.958 48.1116 113.249C48.1116 113.54 49.4355 114.439 51.0532 115.245C52.671 116.052 54.0962 116.61 54.2209 116.486C54.3452 116.362 55.2193 114.91 56.1625 113.26L57.8789 110.259L62.4781 112.718C65.0075 114.072 67.3574 115.427 67.7002 115.731C68.0481 116.04 67.1337 119.157 65.6245 122.804C64.14 126.39 62.7037 129.52 62.4323 129.76C62.1617 130.001 59.1862 129.235 55.8205 128.059L49.701 125.919L51.8028 122.228L53.9045 118.535L51.0367 117.237C49.4596 116.524 48.0458 115.94 47.8947 115.94C47.7432 115.94 47.2067 117.051 46.7014 118.408L45.7826 120.875L22.4611 120.526L0.39447 121.168V121.409C56.7373 121.409 45.9223 122.829 46.5179 122.192C46.9321 121.749 47.4959 120.594 47.77 119.626C48.0442 118.657 48.4177 117.865 48.5992 117.865C48.7815 117.865 49.5412 118.155 50.2888 118.51C51.5968 119.131 51.5807 119.287 49.8379 122.781C48.359 125.748 48.2012 126.55 48.9747 127.187C49.4951 127.615 52.9172 128.987 56.5795 130.234C61.4643 131.899 63.415 132.306 63.9014 131.761C64.2651 131.353 64.974 129.863 65.4761 128.452C65.9783 127.04 66.5318 125.663 66.7069 125.392C66.8813 125.121 67.8962 125.447 68.9629 126.115C70.0292 126.784 73.832 128.628 77.413 130.215C80.9945 131.802 88.9712 135.138 95.1389 137.628C101.307 140.119 106.801 142.249 107.348 142.362C107.895 142.476 108.477 142.247 108.641 141.854C108.811 141.447 102.815 138.737 94.6229 135.523C86.7491 132.433 77.4343 128.576 73.9223 126.954C68.6016 124.495 67.5917 123.785 67.8623 122.698C68.041 121.981 68.6221 120.021 69.1531 118.343C69.9815 115.725 69.9684 115.162 69.0635 114.377C68.4824 113.875 65.471 112.258 62.3716 110.783L56.7357 108.101L55.2028 111.319C53.7724 114.321 53.5558 114.491 51.9759 113.852C51.0446 113.475 50.282 112.954 50.282 112.692C50.282 112.431 51.6959 108.94 53.4237 104.935C55.1507 100.93 56.7602 97.1668 56.9996 96.5728C57.3732 95.6465 57.7534 95.5984 59.6607 96.2367C60.8856 96.6465 61.7408 97.3199 61.5621 97.7321C61.3842 98.1447 60.8363 99.6694 60.3467 101.12C59.8568 102.57 59.5893 103.845 59.7527 103.951C59.9156 104.058 62.7897 105.222 66.1396 106.538C70.8351 108.382 72.3625 108.741 72.8087 108.105C73.127 107.649 73.7878 105.897 74.2769 104.21C74.9633 101.842 75.4221 101.236 76.2895 101.555C76.9073 101.783 85.3897 104.346 95.1389 107.253C104.888 110.159 114.534 113.29 116.575 114.209C118.615 115.13 120.487 115.703 120.735 115.483C120.982 115.264 121.185 114.891 121.185 114.654C121.185 114.417 119.33 113.418 117.062 112.433C114.795 111.448 107.062 108.949 99.8793 106.88C92.6955 104.811 84.3767 102.488 81.3925 101.719C78.4079 100.949 75.8655 100.257 75.7432 100.179C75.6205 100.102 76.3534 98.2836 77.3712 96.1384C78.3893 93.9929 79.2221 91.8355 79.2221 91.3443C79.2221 90.8264 76.5061 89.4406 72.7649 88.0493C69.2138 86.7282 65.9949 85.8197 65.6122 86.0288C65.2296 86.2386 64.7116 87.3518 64.4619 88.5029C64.2114 89.654 63.7274 90.9862 63.3862 91.4635C62.9101 92.1301 62.4189 92.1672 61.2757 91.6244C59.802 90.925 59.8162 90.8367 62.6323 83.3775C64.198 79.2307 65.6363 75.4643 65.8284 75.0083C66.1033 74.3542 66.5254 74.3388 67.8162 74.9345C68.7176 75.3507 69.5349 75.7471 69.6335 75.8157C69.7318 75.8844 69.2884 77.3053 68.6481 78.972C68.0071 80.639 67.6012 82.0911 67.7459 82.1988C67.8899 82.3069 71.026 83.3436 74.716 84.5029C78.4059 85.6619 81.6615 86.4004 81.9511 86.1436C82.2402 85.8864 83.0209 84.4733 83.6844 83.0027C84.3748 81.4745 85.3037 80.4075 85.8548 80.5112C86.3854 80.6122 96.5286 84.0315 108.396 88.1104C120.264 92.1893 130.172 95.3507 130.414 95.1357C130.657 94.9207 130.552 94.4812 130.18 94.1597C129.809 93.8382 120.551 90.5388 109.609 86.8284C98.6659 83.1179 88.8406 79.7917 87.7744 79.4367L85.8367 78.7917L87.9156 74.4276C89.0584 72.0272 89.7677 69.8848 89.4911 69.6666C89.215 69.4485 85.815 67.9507 81.9357 66.3388C75.643 63.7234 74.8146 63.5246 74.2544 64.4899C73.9093 65.0844 73.0801 67.0568 72.4122 68.8729C71.4355 71.5278 70.9365 72.1124 69.8607 71.8635C68.6359 71.5791 68.8884 70.5783 72.8797 59.9002C75.2753 53.4915 77.4675 48.0197 77.7511 47.7404C78.0347 47.4619 81.4509 48.2556 85.342 49.5049C89.2335 50.7542 93.0398 51.7763 93.8012 51.7763C94.5613 51.7763 95.3097 52.1376 95.4631 52.5783C95.6162 53.0197 95.9534 54.2311 96.2134 55.2706C96.4722 56.3108 97.7862 58.0828 99.1333 59.209C100.781 60.5873 105.082 62.4812 112.287 65.0023C119.839 67.6442 123.989 68.7526 126.372 68.7637C128.99 68.7759 130.188 68.4185 131.696 67.1755C132.766 66.2935 133.912 64.994 134.241 64.2883C134.82 63.0473 134.841 63.0512 134.886 64.3929C134.921 65.5029 135.907 66.1092 139.815 67.4264C142.5 68.3325 146 69.4808 147.592 69.9795C149.184 70.4777 150.428 71.1333 150.357 71.4367C150.285 71.7396 145.809 82.1522 140.409 94.5755C135.009 106.999 133.551 113.042 132.432 115.393C132.432 115.393 132.448 115.483 132.794 115.483C133.142 115.483 133.733 114.247 136.032 109.043C138.331 103.837 143.079 93.1053 146.582 85.1933C150.086 77.282 152.821 70.6193 152.659 70.3877C152.497 70.1554 148.821 68.7341 144.488 67.2284L136.609 64.4903L137.359 61.585C138 59.1006 137.931 58.5649 136.882 57.8848C136.207 57.4473 135.654 56.7566 135.654 56.3511C135.654 55.9455 133.554 54.6958 130.987 53.5728C126.781 51.7341 126.45 51.4509 127.637 50.714C128.362 50.2639 129.485 48.9037 130.134 47.6911C130.783 46.4789 131.312 44.5199 131.311 43.338C131.309 42.1562 130.697 40.3002 129.949 39.2131C129.202 38.1262 127.445 36.7544 126.045 36.1653C124.644 35.5757 123.059 35.1002 122.522 35.1086C121.985 35.1163 120.49 35.5847 119.2 36.1493ZM127.073 38.7036C127.826 39.3074 128.709 40.6915 129.036 41.7791C129.362 42.8658 129.364 44.5964 129.042 45.6232C128.718 46.6505 127.739 48.166 126.864 48.9917C125.989 49.8173 124.858 50.4931 124.35 50.4931C123.843 50.4931 123.149 50.9337 122.809 51.4722C122.266 52.3325 121.749 52.2883 118.543 51.1065L114.895 49.7621L115.199 46.4378C115.366 44.6098 115.848 42.3104 116.271 41.3278C116.694 40.3455 117.891 38.9481 118.931 38.2224C120.324 37.251 121.467 36.9956 123.264 37.2542C124.607 37.4473 126.321 38.0999 127.073 38.7036ZM103.821 47.6059C103.821 47.7822 103.658 47.9266 103.459 47.9266C103.26 47.9266 103.097 47.7822 103.097 47.6059C103.097 47.4292 103.26 47.2848 103.459 47.2848C103.658 47.2848 103.821 47.4292 103.821 47.6059ZM105.75 48.3546C105.485 48.5893 105.051 48.5893 104.785 48.3546C104.52 48.1191 104.737 47.9266 105.268 47.9266C105.798 47.9266 106.015 48.1191 105.75 48.3546ZM96.6742 50.2844C96.0438 51.2465 95.9022 51.2741 95.884 50.4398C95.8726 49.8808 96.0793 49.2311 96.3448 48.996C96.6099 48.7605 96.9657 48.6907 97.1341 48.841C97.3034 48.9909 97.0966 49.6402 96.6742 50.2844ZM107.794 50.7941C111.759 52.2773 113.731 52.7317 114.074 52.2398C114.419 51.7443 116.55 52.187 120.954 53.6686C124.464 54.8493 128.718 56.3396 130.409 56.9814C132.916 57.9317 133.484 58.4595 133.484 59.837C133.484 60.7668 132.953 62.5199 132.305 63.7321C131.656 64.9447 130.469 66.2485 129.666 66.6288C128.864 67.0102 126.872 67.1763 125.239 67C123.606 66.8228 117.921 65.1653 112.606 63.3175C107.2 61.4382 101.893 59.1412 100.564 58.1053C99.2556 57.0871 97.983 55.5376 97.7353 54.6623C97.4872 53.7854 97.7613 52.0591 98.3456 50.8189C99.0154 49.3972 99.8856 48.5798 100.709 48.5996C101.426 48.6169 104.614 49.6043 107.794 50.7941ZM107.438 48.8891C107.438 49.0655 107.275 49.2098 107.077 49.2098C106.878 49.2098 106.715 49.0655 106.715 48.8891C106.715 48.7124 106.878 48.568 107.077 48.568C107.275 48.568 107.438 48.7124 107.438 48.8891ZM109.368 49.6378C109.102 49.8726 108.668 49.8726 108.403 49.6378C108.138 49.4023 108.355 49.2098 108.885 49.2098C109.416 49.2098 109.633 49.4023 109.368 49.6378ZM111.056 50.1724C111.056 50.3487 110.893 50.4931 110.694 50.4931C110.495 50.4931 110.332 50.3487 110.332 50.1724C110.332 49.9956 110.495 49.8513 110.694 49.8513C110.893 49.8513 111.056 49.9956 111.056 50.1724ZM112.985 50.9211C112.72 51.1558 112.286 51.1558 112.02 50.9211C111.755 50.6856 111.972 50.4931 112.503 50.4931C113.033 50.4931 113.25 50.6856 112.985 50.9211ZM126.249 53.3806C127.244 53.8848 127.732 54.2974 127.335 54.2974C126.936 54.2974 125.797 53.8848 124.802 53.3806C123.807 52.8761 123.319 52.4635 123.717 52.4635C124.115 52.4635 125.254 52.8761 126.249 53.3806ZM130.59 54.9846C131.187 55.3266 131.35 55.6063 130.952 55.6063C130.554 55.6063 129.74 55.3266 129.143 54.9846C128.546 54.6426 128.383 54.3629 128.781 54.3629C129.179 54.3629 129.993 54.6426 130.59 54.9846ZM132.761 55.9471C132.761 56.1234 132.598 56.2678 132.399 56.2678C132.2 56.2678 132.037 56.1234 132.037 55.9471C132.037 55.7704 132.2 55.626 132.399 55.626C132.598 55.626 132.761 55.7704 132.761 55.9471ZM136.378 59.155C136.378 59.3317 136.215 59.4761 136.016 59.4761C135.817 59.4761 135.654 59.3317 135.654 59.155C135.654 58.9787 135.817 58.8343 136.016 58.8343C136.215 58.8343 136.378 58.9787 136.378 59.155ZM135.41 62.2031C135.209 62.6445 135.045 62.2832 135.045 61.4008C135.045 60.5187 135.209 60.1582 135.41 60.5988C135.611 61.0402 135.611 61.7621 135.41 62.2031ZM127.863 123.155C127.011 125.009 122.067 137.289 116.876 150.443C111.685 163.598 107.433 174.57 107.427 174.826C107.421 175.082 107.141 175.676 106.805 176.146C106.329 176.812 99.3483 174.596 75.1633 166.105C58.0966 160.113 41.9578 154.436 39.2995 153.491L34.4665 151.771L36.6992 146.078C38.7301 140.899 39.0571 140.443 40.3219 141.044C41.1511 141.437 41.5424 142.097 41.2911 142.677C41.0596 143.212 40.6836 144.311 40.454 145.12C40.0663 146.49 40.5605 146.746 47.6572 148.853C53.3325 150.539 55.4552 150.925 55.9767 150.368C56.3617 149.956 56.9014 148.826 57.1755 147.858C57.4497 146.89 58.0864 146.097 58.5901 146.097C59.0943 146.097 62.559 147.35 66.2895 148.882C70.0197 150.414 78.8651 153.914 85.946 156.66C93.0268 159.406 99.0501 161.45 99.3302 161.201C99.6099 160.953 99.3191 160.413 98.6832 160C98.0473 159.588 88.8402 155.93 78.2229 151.872C59.572 144.742 58.9321 144.438 59.3085 142.889C59.5219 142.007 59.8899 140.404 60.1254 139.328C60.5507 137.383 60.516 137.359 53.428 134.676C49.5093 133.192 46.0722 131.979 45.7893 131.979C45.5069 131.98 44.8978 133.1 44.4355 134.467C43.7744 136.426 43.3077 136.886 42.2363 136.638C41.4888 136.465 40.8765 136.086 40.8765 135.797C40.8765 135.507 41.8757 133.015 43.0962 130.258C44.3175 127.5 45.4919 124.883 45.7061 124.442C45.9203 124.001 45.654 123.64 45.114 123.641C44.5282 123.641 43.1124 126.163 41.6016 129.897C40.2103 133.337 39.0708 136.411 39.0694 136.729C39.0687 137.046 40.3014 137.684 41.8095 138.148C44.4891 138.97 44.5673 138.95 45.2675 137.249C45.6619 136.293 46.1243 135.155 46.2959 134.721C46.5156 134.164 48.3361 134.589 52.488 136.165C55.7227 137.392 58.4836 138.397 58.6233 138.397C58.7637 138.397 58.0793 140.48 57.1034 143.026C56.1266 145.571 55.0485 147.901 54.7061 148.205C54.3598 148.512 51.3227 147.992 47.8426 147.03C44.4095 146.081 41.6103 145.121 41.6233 144.898C41.6355 144.675 42.1239 143.932 42.7085 143.247C43.2923 142.562 43.7673 141.696 43.7633 141.323C43.759 140.948 42.469 140.164 40.897 139.578L38.0377 138.514L36.6493 141.824C35.8853 143.645 34.6604 146.643 33.9261 148.486C32.987 150.847 32.8184 152.04 33.3581 152.518C33.7799 152.893 49.725 158.834 68.7921 165.722C87.8592 172.61 104.306 178.403 105.342 178.594C107.019 178.904 107.365 178.636 108.492 176.155C109.189 174.622 113.981 162.828 119.141 149.947C124.301 137.066 128.909 125.516 129.38 124.281L130.239 122.035L164.628 121.168L166.075 120.526L129.412 119.783L127.863 123.155Z" stroke="#16314F" stroke-opacity="0.28"/>
<mask id="mask0_4_8" style="mask-type:luminance" maskUnits="userSpaceOnUse" x="-1" y="34" width="168" height="146">
<path d="M166.469 34.714H0V179.093H166.469V34.714Z" fill="white" stroke="#16314F" stroke-opacity="0.28"/>
<path fill-rule="evenodd" clip-rule="evenodd" d="M119.2 36.1493C117.909 36.7133 116.146 38.189 115.282 39.4287C114.391 40.7081 113.529 43.2856 113.288 45.3909L112.864 49.1002L108.523 47.5152C105.129 46.2757 103.473 46.0189 100.927 46.3365C99.1361 46.5605 96.9389 47.1605 96.0434 47.6706C95.1475 48.1806 94.4154 49.0244 94.4154 49.5455C94.4154 50.0662 94.2671 50.4931 94.086 50.4931C93.9053 50.4931 90.1215 49.3428 85.6777 47.9369C81.2339 46.5309 77.3519 45.5167 77.0493 45.682C76.7475 45.8469 76.3318 46.6367 76.1247 47.4359C75.9176 48.2351 73.6387 53.942 71.0596 60.1175C67.6063 68.3866 66.5862 71.5266 67.1886 72.0296C67.6394 72.4055 68.9144 73.0536 70.0221 73.4694C71.5976 74.0615 72.1033 74.052 72.3479 73.4276C72.5203 72.9889 73.3392 70.9862 74.1684 68.9787L75.6761 65.3278L81.5286 67.837C84.7467 69.2181 87.5254 70.4761 87.7034 70.6339C87.8813 70.7921 86.4801 73.9755 84.5901 77.71C82.6998 81.4445 80.8087 84.4998 80.3866 84.4998C79.9649 84.4998 77.4138 83.7325 74.7183 82.7944C72.0225 81.8564 69.8166 80.8808 69.8166 80.6268C69.8166 80.3728 70.3274 79.0812 70.9511 77.757C71.5751 76.4319 71.8197 75.1408 71.4935 74.8875C71.168 74.6339 69.5566 73.966 67.9124 73.4035L64.9227 72.3799L61.1503 82.0142C59.0753 87.3128 57.4911 91.7085 57.6284 91.7822C57.7661 91.8564 59.0742 92.3976 60.5353 92.9862C62.5684 93.8047 63.3527 93.8753 63.8781 93.2883C64.2548 92.8655 64.9566 91.4378 65.4371 90.114C65.9183 88.7909 66.471 87.7081 66.6671 87.7081C66.8631 87.7081 69.4209 88.5933 72.3511 89.6753L77.6793 91.6426L75.1937 96.7925C73.8268 99.6252 72.8422 102.136 73.0063 102.371C73.1708 102.607 72.8647 103.728 72.3262 104.862L71.3487 106.925L66.4225 104.912C63.7132 103.804 61.3878 102.825 61.2548 102.735C61.1223 102.646 61.6915 101.213 62.5207 99.5499C63.3499 97.8875 64.0284 96.4335 64.0284 96.3187C64.0284 96.2031 62.5223 95.5187 60.6809 94.796C58.8394 94.0737 57.0489 93.4828 56.7018 93.4828C56.3542 93.4828 56.0702 93.8544 56.0702 94.3081C56.0702 94.7617 54.2793 99.0895 52.0907 103.926C49.9022 108.762 48.1116 112.958 48.1116 113.249C48.1116 113.54 49.4355 114.439 51.0532 115.245C52.671 116.052 54.0962 116.61 54.2209 116.486C54.3452 116.362 55.2193 114.91 56.1625 113.26L57.8789 110.259L62.4781 112.718C65.0075 114.072 67.3574 115.427 67.7002 115.731C68.0481 116.04 67.1337 119.157 65.6245 122.804C64.14 126.39 62.7037 129.52 62.4323 129.76C62.1617 130.001 59.1862 129.235 55.8205 128.059L49.701 125.919L51.8028 122.228L53.9045 118.535L51.0367 117.237C49.4596 116.524 48.0458 115.94 47.8947 115.94C47.7432 115.94 47.2067 117.051 46.7014 118.408L45.7826 120.875L22.4611 120.526L0.39447 121.168V121.409C56.7373 121.409 45.9223 122.829 46.5179 122.192C46.9321 121.749 47.4959 120.594 47.77 119.626C48.0442 118.657 48.4177 117.865 48.5992 117.865C48.7815 117.865 49.5412 118.155 50.2888 118.51C51.5968 119.131 51.5807 119.287 49.8379 122.781C48.359 125.748 48.2012 126.55 48.9747 127.187C49.4951 127.615 52.9172 128.987 56.5795 130.234C61.4643 131.899 63.415 132.306 63.9014 131.761C64.2651 131.353 64.974 129.863 65.4761 128.452C65.9783 127.04 66.5318 125.663 66.7069 125.392C66.8813 125.121 67.8962 125.447 68.9629 126.115C70.0292 126.784 73.832 128.628 77.413 130.215C80.9945 131.802 88.9712 135.138 95.1389 137.628C101.307 140.119 106.801 142.249 107.348 142.362C107.895 142.476 108.477 142.247 108.641 141.854C108.811 141.447 102.815 138.737 94.6229 135.523C86.7491 132.433 77.4343 128.576 73.9223 126.954C68.6016 124.495 67.5917 123.785 67.8623 122.698C68.041 121.981 68.6221 120.021 69.1531 118.343C69.9815 115.725 69.9684 115.162 69.0635 114.377C68.4824 113.875 65.471 112.258 62.3716 110.783L56.7357 108.101L55.2028 111.319C53.7724 114.321 53.5558 114.491 51.9759 113.852C51.0446 113.475 50.282 112.954 50.282 112.692C50.282 112.431 51.6959 108.94 53.4237 104.935C55.1507 100.93 56.7602 97.1668 56.9996 96.5728C57.3732 95.6465 57.7534 95.5984 59.6607 96.2367C60.8856 96.6465 61.7408 97.3199 61.5621 97.7321C61.3842 98.1447 60.8363 99.6694 60.3467 101.12C59.8568 102.57 59.5893 103.845 59.7527 103.951C59.9156 104.058 62.7897 105.222 66.1396 106.538C70.8351 108.382 72.3625 108.741 72.8087 108.105C73.127 107.649 73.7878 105.897 74.2769 104.21C74.9633 101.842 75.4221 101.236 76.2895 101.555C76.9073 101.783 85.3897 104.346 95.1389 107.253C104.888 110.159 114.534 113.29 116.575 114.209C118.615 115.13 120.487 115.703 120.735 115.483C120.982 115.264 121.185 114.891 121.185 114.654C121.185 114.417 119.33 113.418 117.062 112.433C114.795 111.448 107.062 108.949 99.8793 106.88C92.6955 104.811 84.3767 102.488 81.3925 101.719C78.4079 100.949 75.8655 100.257 75.7432 100.179C75.6205 100.102 76.3534 98.2836 77.3712 96.1384C78.3893 93.9929 79.2221 91.8355 79.2221 91.3443C79.2221 90.8264 76.5061 89.4406 72.7649 88.0493C69.2138 86.7282 65.9949 85.8197 65.6122 86.0288C65.2296 86.2386 64.7116 87.3518 64.4619 88.5029C64.2114 89.654 63.7274 90.9862 63.3862 91.4635C62.9101 92.1301 62.4189 92.1672 61.2757 91.6244C59.802 90.925 59.8162 90.8367 62.6323 83.3775C64.198 79.2307 65.6363 75.4643 65.8284 75.0083C66.1033 74.3542 66.5254 74.3388 67.8162 74.9345C68.7176 75.3507 69.5349 75.7471 69.6335 75.8157C69.7318 75.8844 69.2884 77.3053 68.6481 78.972C68.0071 80.639 67.6012 82.0911 67.7459 82.1988C67.8899 82.3069 71.026 83.3436 74.716 84.5029C78.4059 85.6619 81.6615 86.4004 81.9511 86.1436C82.2402 85.8864 83.0209 84.4733 83.6844 83.0027C84.3748 81.4745 85.3037 80.4075 85.8548 80.5112C86.3854 80.6122 96.5286 84.0315 108.396 88.1104C120.264 92.1893 130.172 95.3507 130.414 95.1357C130.657 94.9207 130.552 94.4812 130.18 94.1597C129.809 93.8382 120.551 90.5388 109.609 86.8284C98.6659 83.1179 88.8406 79.7917 87.7744 79.4367L85.8367 78.7917L87.9156 74.4276C89.0584 72.0272 89.7677 69.8848 89.4911 69.6666C89.215 69.4485 85.815 67.9507 81.9357 66.3388C75.643 63.7234 74.8146 63.5246 74.2544 64.4899C73.9093 65.0844 73.0801 67.0568 72.4122 68.8729C71.4355 71.5278 70.9365 72.1124 69.8607 71.8635C68.6359 71.5791 68.8884 70.5783 72.8797 59.9002C75.2753 53.4915 77.4675 48.0197 77.7511 47.7404C78.0347 47.4619 81.4509 48.2556 85.342 49.5049C89.2335 50.7542 93.0398 51.7763 93.8012 51.7763C94.5613 51.7763 95.3097 52.1376 95.4631 52.5783C95.6162 53.0197 95.9534 54.2311 96.2134 55.2706C96.4722 56.3108 97.7862 58.0828 99.1333 59.209C100.781 60.5873 105.082 62.4812 112.287 65.0023C119.839 67.6442 123.989 68.7526 126.372 68.7637C128.99 68.7759 130.188 68.4185 131.696 67.1755C132.766 66.2935 133.912 64.994 134.241 64.2883C134.82 63.0473 134.841 63.0512 134.886 64.3929C134.921 65.5029 135.907 66.1092 139.815 67.4264C142.5 68.3325 146 69.4808 147.592 69.9795C149.184 70.4777 150.428 71.1333 150.357 71.4367C150.285 71.7396 145.809 82.1522 140.409 94.5755C135.009 106.999 133.551 113.042 132.432 115.393C132.432 115.393 132.448 115.483 132.794 115.483C133.142 115.483 133.733 114.247 136.032 109.043C138.331 103.837 143.079 93.1053 146.582 85.1933C150.086 77.282 152.821 70.6193 152.659 70.3877C152.497 70.1554 148.821 68.7341 144.488 67.2284L136.609 64.4903L137.359 61.585C138 59.1006 137.931 58.5649 136.882 57.8848C136.207 57.4473 135.654 56.7566 135.654 56.3511C135.654 55.9455 133.554 54.6958 130.987 53.5728C126.781 51.7341 126.45 51.4509 127.637 50.714C128.362 50.2639 129.485 48.9037 130.134 47.6911C130.783 46.4789 131.312 44.5199 131.311 43.338C131.309 42.1562 130.697 40.3002 129.949 39.2131C129.202 38.1262 127.445 36.7544 126.045 36.1653C124.644 35.5757 123.059 35.1002 122.522 35.1086C121.985 35.1163 120.49 35.5847 119.2 36.1493ZM127.073 38.7036C127.826 39.3074 128.709 40.6915 129.036 41.7791C129.362 42.8658 129.364 44.5964 129.042 45.6232C128.718 46.6505 127.739 48.166 126.864 48.9917C125.989 49.8173 124.858 50.4931 124.35 50.4931C123.843 50.4931 123.149 50.9337 122.809 51.4722C122.266 52.3325 121.749 52.2883 118.543 51.1065L114.895 49.7621L115.199 46.4378C115.366 44.6098 115.848 42.3104 116.271 41.3278C116.694 40.3455 117.891 38.9481 118.931 38.2224C120.324 37.251 121.467 36.9956 123.264 37.2542C124.607 37.4473 126.321 38.0999 127.073 38.7036ZM103.821 47.6059C103.821 47.7822 103.658 47.9266 103.459 47.9266C103.26 47.9266 103.097 47.7822 103.097 47.6059C103.097 47.4292 103.26 47.2848 103.459 47.2848C103.658 47.2848 103.821 47.4292 103.821 47.6059ZM105.75 48.3546C105.485 48.5893 105.051 48.5893 104.785 48.3546C104.52 48.1191 104.737 47.9266 105.268 47.9266C105.798 47.9266 106.015 48.1191 105.75 48.3546ZM96.6742 50.2844C96.0438 51.2465 95.9022 51.2741 95.884 50.4398C95.8726 49.8808 96.0793 49.2311 96.3448 48.996C96.6099 48.7605 96.9657 48.6907 97.1341 48.841C97.3034 48.9909 97.0966 49.6402 96.6742 50.2844ZM107.794 50.7941C111.759 52.2773 113.731 52.7317 114.074 52.2398C114.419 51.7443 116.55 52.187 120.954 53.6686C124.464 54.8493 128.718 56.3396 130.409 56.9814C132.916 57.9317 133.484 58.4595 133.484 59.837C133.484 60.7668 132.953 62.5199 132.305 63.7321C131.656 64.9447 130.469 66.2485 129.666 66.6288C128.864 67.0102 126.872 67.1763 125.239 67C123.606 66.8228 117.921 65.1653 112.606 63.3175C107.2 61.4382 101.893 59.1412 100.564 58.1053C99.2556 57.0871 97.983 55.5376 97.7353 54.6623C97.4872 53.7854 97.7613 52.0591 98.3456 50.8189C99.0154 49.3972 99.8856 48.5798 100.709 48.5996C101.426 48.6169 104.614 49.6043 107.794 50.7941ZM107.438 48.8891C107.438 49.0655 107.275 49.2098 107.077 49.2098C106.878 49.2098 106.715 49.0655 106.715 48.8891C106.715 48.7124 106.878 48.568 107.077 48.568C107.275 48.568 107.438 48.7124 107.438 48.8891ZM109.368 49.6378C109.102 49.8726 108.668 49.8726 108.403 49.6378C108.138 49.4023 108.355 49.2098 108.885 49.2098C109.416 49.2098 109.633 49.4023 109.368 49.6378ZM111.056 50.1724C111.056 50.3487 110.893 50.4931 110.694 50.4931C110.495 50.4931 110.332 50.3487 110.332 50.1724C110.332 49.9956 110.495 49.8513 110.694 49.8513C110.893 49.8513 111.056 49.9956 111.056 50.1724ZM112.985 50.9211C112.72 51.1558 112.286 51.1558 112.02 50.9211C111.755 50.6856 111.972 50.4931 112.503 50.4931C113.033 50.4931 113.25 50.6856 112.985 50.9211ZM126.249 53.3806C127.244 53.8848 127.732 54.2974 127.335 54.2974C126.936 54.2974 125.797 53.8848 124.802 53.3806C123.807 52.8761 123.319 52.4635 123.717 52.4635C124.115 52.4635 125.254 52.8761 126.249 53.3806ZM130.59 54.9846C131.187 55.3266 131.35 55.6063 130.952 55.6063C130.554 55.6063 129.74 55.3266 129.143 54.9846C128.546 54.6426 128.383 54.3629 128.781 54.3629C129.179 54.3629 129.993 54.6426 130.59 54.9846ZM132.761 55.9471C132.761 56.1234 132.598 56.2678 132.399 56.2678C132.2 56.2678 132.037 56.1234 132.037 55.9471C132.037 55.7704 132.2 55.626 132.399 55.626C132.598 55.626 132.761 55.7704 132.761 55.9471ZM136.378 59.155C136.378 59.3317 136.215 59.4761 136.016 59.4761C135.817 59.4761 135.654 59.3317 135.654 59.155C135.654 58.9787 135.817 58.8343 136.016 58.8343C136.215 58.8343 136.378 58.9787 136.378 59.155ZM135.41 62.2031C135.209 62.6445 135.045 62.2832 135.045 61.4008C135.045 60.5187 135.209 60.1582 135.41 60.5988C135.611 61.0402 135.611 61.7621 135.41 62.2031ZM127.863 123.155C127.011 125.009 122.067 137.289 116.876 150.443C111.685 163.598 107.433 174.57 107.427 174.826C107.421 175.082 107.141 175.676 106.805 176.146C106.329 176.812 99.3483 174.596 75.1633 166.105C58.0966 160.113 41.9578 154.436 39.2995 153.491L34.4665 151.771L36.6992 146.078C38.7301 140.899 39.0571 140.443 40.3219 141.044C41.1511 141.437 41.5424 142.097 41.2911 142.677C41.0596 143.212 40.6836 144.311 40.454 145.12C40.0663 146.49 40.5605 146.746 47.6572 148.853C53.3325 150.539 55.4552 150.925 55.9767 150.368C56.3617 149.956 56.9014 148.826 57.1755 147.858C57.4497 146.89 58.0864 146.097 58.5901 146.097C59.0943 146.097 62.559 147.35 66.2895 148.882C70.0197 150.414 78.8651 153.914 85.946 156.66C93.0268 159.406 99.0501 161.45 99.3302 161.201C99.6099 160.953 99.3191 160.413 98.6832 160C98.0473 159.588 88.8402 155.93 78.2229 151.872C59.572 144.742 58.9321 144.438 59.3085 142.889C59.5219 142.007 59.8899 140.404 60.1254 139.328C60.5507 137.383 60.516 137.359 53.428 134.676C49.5093 133.192 46.0722 131.979 45.7893 131.979C45.5069 131.98 44.8978 133.1 44.4355 134.467C43.7744 136.426 43.3077 136.886 42.2363 136.638C41.4888 136.465 40.8765 136.086 40.8765 135.797C40.8765 135.507 41.8757 133.015 43.0962 130.258C44.3175 127.5 45.4919 124.883 45.7061 124.442C45.9203 124.001 45.654 123.64 45.114 123.641C44.5282 123.641 43.1124 126.163 41.6016 129.897C40.2103 133.337 39.0708 136.411 39.0694 136.729C39.0687 137.046 40.3014 137.684 41.8095 138.148C44.4891 138.97 44.5673 138.95 45.2675 137.249C45.6619 136.293 46.1243 135.155 46.2959 134.721C46.5156 134.164 48.3361 134.589 52.488 136.165C55.7227 137.392 58.4836 138.397 58.6233 138.397C58.7637 138.397 58.0793 140.48 57.1034 143.026C56.1266 145.571 55.0485 147.901 54.7061 148.205C54.3598 148.512 51.3227 147.992 47.8426 147.03C44.4095 146.081 41.6103 145.121 41.6233 144.898C41.6355 144.675 42.1239 143.932 42.7085 143.247C43.2923 142.562 43.7673 141.696 43.7633 141.323C43.759 140.948 42.469 140.164 40.897 139.578L38.0377 138.514L36.6493 141.824C35.8853 143.645 34.6604 146.643 33.9261 148.486C32.987 150.847 32.8184 152.04 33.3581 152.518C33.7799 152.893 49.725 158.834 68.7921 165.722C87.8592 172.61 104.306 178.403 105.342 178.594C107.019 178.904 107.365 178.636 108.492 176.155C109.189 174.622 113.981 162.828 119.141 149.947C124.301 137.066 128.909 125.516 129.38 124.281L130.239 122.035L164.628 121.168L166.075 120.526L129.412 119.783L127.863 123.155Z" stroke="#16314F" stroke-opacity="0.28"/>
</mask>
<g mask="url(#mask0_4_8)">
</g>
</g>
<defs>
<clipPath id="clip0_4_8">
<rect width="197.239" height="200" fill="white"/>
</clipPath>
</defs>
</svg>
