<svg width="500" height="507" viewBox="0 0 500 507" fill="none" xmlns="http://www.w3.org/2000/svg">
<path fill-rule="evenodd" clip-rule="evenodd" d="M190.827 55.3243C255.167 61.8358 234.144 159.317 273.658 206.221C311.38 250.998 403.707 255.296 406.855 311.754C410.295 373.448 351.893 431.961 287.239 449.791C228.809 465.904 178.877 417.547 126.363 389.105C82.6875 365.451 26.4798 348.575 16.3509 303.078C6.35756 258.19 54.1939 225.265 81.3141 186.755C115.625 138.034 127.858 48.9515 190.827 55.3243Z" fill="#C4C4C4"/>
<mask id="path-2-outside-1" maskUnits="userSpaceOnUse" x="0" y="88" width="422" height="366" fill="black">
<rect fill="white" y="88" width="422" height="366"/>
<path fill-rule="evenodd" clip-rule="evenodd" d="M302.171 91.6385C298.899 93.0683 294.431 96.8093 292.241 99.9518C289.981 103.195 287.795 109.729 287.186 115.066L286.111 124.469L275.107 120.451C266.502 117.309 262.304 116.658 255.849 117.463C251.31 118.031 245.74 119.552 243.47 120.845C241.199 122.138 239.343 124.277 239.343 125.598C239.343 126.918 238.967 128 238.508 128C238.05 128 228.458 125.084 217.193 121.52C205.928 117.956 196.087 115.385 195.32 115.804C194.555 116.222 193.501 118.224 192.976 120.25C192.451 122.276 186.674 136.743 180.136 152.398C171.382 173.36 168.796 181.32 170.323 182.595C171.466 183.548 174.698 185.191 177.506 186.245C181.5 187.746 182.782 187.722 183.402 186.139C183.839 185.027 185.915 179.95 188.017 174.861L191.839 165.606L206.675 171.967C214.833 175.468 221.877 178.657 222.328 179.057C222.779 179.458 219.227 187.528 214.436 196.995C209.644 206.462 204.85 214.207 203.78 214.207C202.711 214.207 196.244 212.262 189.411 209.884C182.577 207.506 176.985 205.033 176.985 204.389C176.985 203.745 178.28 200.471 179.861 197.114C181.443 193.755 182.063 190.482 181.236 189.84C180.411 189.197 176.326 187.504 172.158 186.078L164.579 183.483L155.016 207.906C149.756 221.338 145.74 232.481 146.088 232.668C146.437 232.856 149.753 234.228 153.457 235.72C158.611 237.795 160.599 237.974 161.931 236.486C162.886 235.414 164.665 231.795 165.883 228.439C167.103 225.085 168.504 222.34 169.001 222.34C169.498 222.34 175.982 224.584 183.41 227.327L196.917 232.314L190.616 245.369C187.151 252.55 184.655 258.914 185.071 259.511C185.488 260.108 184.712 262.95 183.347 265.826L180.869 271.055L168.381 265.951C161.513 263.143 155.618 260.661 155.281 260.434C154.945 260.208 156.388 256.574 158.49 252.359C160.592 248.145 162.312 244.459 162.312 244.168C162.312 243.875 158.494 242.14 153.826 240.308C149.158 238.477 144.619 236.979 143.739 236.979C142.858 236.979 142.138 237.921 142.138 239.071C142.138 240.221 137.598 251.192 132.05 263.453C126.502 275.713 121.963 286.349 121.963 287.086C121.963 287.825 125.319 290.102 129.42 292.146C133.521 294.191 137.134 295.606 137.45 295.292C137.765 294.978 139.981 291.297 142.372 287.114L146.723 279.507L158.382 285.741C164.794 289.172 170.751 292.608 171.62 293.379C172.502 294.162 170.184 302.064 166.358 311.307C162.595 320.398 158.954 328.334 158.266 328.942C157.58 329.552 150.037 327.61 141.505 324.629L125.992 319.206L131.32 309.847L136.648 300.486L129.378 297.197C125.38 295.388 121.796 293.908 121.413 293.908C121.029 293.908 119.669 296.724 118.388 300.164L116.059 306.419L56.9389 305.534L1 307.161V307.771C143.829 307.771 116.413 311.371 117.923 309.757C118.973 308.635 120.402 305.707 121.097 303.251C121.792 300.796 122.739 298.788 123.199 298.788C123.661 298.788 125.587 299.523 127.482 300.422C130.798 301.997 130.757 302.392 126.339 311.25C122.59 318.77 122.19 320.805 124.151 322.418C125.47 323.503 134.145 326.981 143.429 330.144C155.812 334.365 160.757 335.396 161.99 334.015C162.912 332.979 164.709 329.204 165.982 325.626C167.255 322.047 168.658 318.557 169.102 317.87C169.544 317.182 172.117 318.007 174.821 319.702C177.524 321.397 187.164 326.073 196.242 330.095C205.321 334.118 225.542 342.574 241.177 348.887C256.812 355.201 270.74 360.601 272.127 360.888C273.513 361.176 274.99 360.597 275.404 359.601C275.837 358.567 260.636 351.699 239.869 343.55C219.909 335.717 196.296 325.941 187.393 321.828C173.905 315.595 171.345 313.796 172.031 311.04C172.484 309.222 173.957 304.253 175.303 299.999C177.403 293.363 177.37 291.935 175.076 289.947C173.603 288.674 165.969 284.573 158.112 280.834L143.825 274.036L139.939 282.194C136.313 289.803 135.764 290.234 131.759 288.615C129.398 287.66 127.465 286.338 127.465 285.674C127.465 285.012 131.049 276.164 135.429 266.011C139.807 255.858 143.887 246.318 144.494 244.812C145.441 242.464 146.405 242.342 151.24 243.96C154.345 244.999 156.513 246.706 156.06 247.751C155.609 248.797 154.22 252.662 152.979 256.338C151.737 260.016 151.059 263.246 151.473 263.516C151.886 263.788 159.172 266.738 167.664 270.073C179.567 274.749 183.439 275.658 184.57 274.045C185.377 272.891 187.052 268.449 188.292 264.173C190.032 258.169 191.195 256.634 193.394 257.442C194.96 258.02 216.463 264.518 241.177 271.886C265.891 279.253 290.344 287.189 295.517 289.521C300.69 291.854 305.435 293.306 306.062 292.75C306.69 292.194 307.203 291.249 307.203 290.648C307.203 290.048 302.501 287.514 296.753 285.017C291.005 282.522 271.402 276.187 253.194 270.941C234.983 265.696 213.895 259.807 206.33 257.857C198.764 255.907 192.319 254.152 192.009 253.955C191.698 253.758 193.556 249.149 196.136 243.711C198.717 238.272 200.828 232.803 200.828 231.558C200.828 230.245 193.943 226.732 184.459 223.205C175.457 219.856 167.297 217.553 166.327 218.083C165.357 218.615 164.044 221.437 163.411 224.355C162.776 227.273 161.549 230.65 160.684 231.86C159.477 233.55 158.232 233.644 155.334 232.268C151.598 230.495 151.634 230.271 158.773 211.362C162.742 200.85 166.388 191.302 166.875 190.146C167.572 188.488 168.642 188.449 171.914 189.959C174.199 191.014 176.271 192.019 176.521 192.193C176.77 192.367 175.646 195.969 174.023 200.194C172.398 204.42 171.369 208.101 171.736 208.374C172.101 208.648 180.051 211.276 189.405 214.215C198.759 217.153 207.012 219.025 207.746 218.374C208.479 217.722 210.458 214.14 212.14 210.412C213.89 206.538 216.245 203.833 217.642 204.096C218.987 204.352 244.7 213.02 274.784 223.36C304.868 233.7 329.986 241.714 330.6 241.169C331.215 240.624 330.949 239.51 330.006 238.695C329.065 237.88 305.598 229.516 277.858 220.11C250.118 210.704 225.211 202.272 222.508 201.372L217.596 199.737L222.866 188.674C225.763 182.589 227.561 177.158 226.86 176.605C226.16 176.052 217.541 172.255 207.707 168.169C191.755 161.539 189.655 161.035 188.235 163.482C187.36 164.989 185.258 169.989 183.565 174.593C181.089 181.323 179.824 182.805 177.097 182.174C173.992 181.453 174.632 178.916 184.75 151.847C190.823 135.601 196.38 121.73 197.099 121.022C197.818 120.316 206.478 122.328 216.342 125.495C226.207 128.662 235.856 131.253 237.786 131.253C239.713 131.253 241.61 132.169 241.999 133.286C242.387 134.405 243.242 137.476 243.901 140.111C244.557 142.748 247.888 147.24 251.303 150.095C255.479 153.589 266.382 158.39 284.648 164.781C303.792 171.478 314.312 174.288 320.352 174.316C326.989 174.347 330.026 173.441 333.85 170.29C336.563 168.054 339.466 164.76 340.301 162.971C341.768 159.825 341.821 159.835 341.935 163.236C342.026 166.05 344.523 167.587 354.43 170.926C361.238 173.223 370.111 176.134 374.146 177.398C378.181 178.661 381.334 180.323 381.154 181.092C380.973 181.86 369.625 208.256 355.936 239.749C342.247 271.242 338.552 286.561 335.716 292.522C335.716 292.522 335.755 292.75 336.633 292.75C337.514 292.75 339.013 289.617 344.84 276.423C350.668 263.226 362.704 236.022 371.586 215.965C380.468 195.91 387.401 179.02 386.99 178.433C386.581 177.844 377.261 174.241 366.276 170.424L346.305 163.483L348.205 156.118C349.83 149.82 349.654 148.462 346.995 146.738C345.284 145.629 343.884 143.878 343.884 142.85C343.884 141.822 338.56 138.654 332.053 135.807C321.391 131.146 320.551 130.428 323.561 128.56C325.397 127.419 328.245 123.971 329.89 120.897C331.534 117.824 332.876 112.858 332.873 109.862C332.869 106.866 331.316 102.161 329.421 99.4053C327.526 96.6499 323.072 93.1724 319.523 91.6792C315.972 90.1844 311.955 88.9791 310.594 89.0003C309.233 89.0198 305.443 90.2072 302.171 91.6385ZM322.131 98.1138C324.038 99.6444 326.277 103.153 327.105 105.91C327.932 108.665 327.939 113.052 327.121 115.655C326.301 118.259 323.818 122.101 321.601 124.194C319.383 126.287 316.515 128 315.227 128C313.941 128 312.183 129.117 311.321 130.482C309.945 132.663 308.634 132.551 300.507 129.555L291.26 126.147L292.03 117.72C292.452 113.086 293.675 107.257 294.746 104.766C295.819 102.276 298.853 98.7335 301.49 96.8939C305.021 94.4313 307.918 93.784 312.474 94.4395C315.878 94.929 320.223 96.5832 322.131 98.1138ZM263.186 120.681C263.186 121.128 262.773 121.494 262.269 121.494C261.764 121.494 261.352 121.128 261.352 120.681C261.352 120.233 261.764 119.867 262.269 119.867C262.773 119.867 263.186 120.233 263.186 120.681ZM268.077 122.579C267.404 123.174 266.304 123.174 265.631 122.579C264.959 121.982 265.509 121.494 266.854 121.494C268.198 121.494 268.748 121.982 268.077 122.579ZM245.069 127.471C243.471 129.91 243.112 129.98 243.066 127.865C243.037 126.448 243.561 124.801 244.234 124.205C244.906 123.608 245.808 123.431 246.235 123.812C246.664 124.192 246.14 125.838 245.069 127.471ZM273.257 128.763C283.309 132.523 288.309 133.675 289.178 132.428C290.053 131.172 295.454 132.294 306.618 136.05C315.515 139.043 326.301 142.821 330.587 144.448C336.942 146.857 338.382 148.195 338.382 151.687C338.382 154.044 337.036 158.488 335.393 161.561C333.747 164.635 330.738 167.94 328.704 168.904C326.67 169.871 321.621 170.292 317.481 169.845C313.342 169.396 298.93 165.194 285.455 160.51C271.753 155.746 258.3 149.923 254.929 147.297C251.613 144.716 248.387 140.788 247.759 138.569C247.13 136.346 247.825 131.97 249.306 128.826C251.004 125.222 253.21 123.15 255.297 123.2C257.115 123.244 265.196 125.747 273.257 128.763ZM272.356 123.934C272.356 124.381 271.943 124.747 271.439 124.747C270.935 124.747 270.522 124.381 270.522 123.934C270.522 123.486 270.935 123.12 271.439 123.12C271.943 123.12 272.356 123.486 272.356 123.934ZM277.247 125.832C276.574 126.427 275.474 126.427 274.801 125.832C274.13 125.235 274.68 124.747 276.024 124.747C277.369 124.747 277.919 125.235 277.247 125.832ZM281.526 127.187C281.526 127.634 281.114 128 280.609 128C280.105 128 279.692 127.634 279.692 127.187C279.692 126.739 280.105 126.373 280.609 126.373C281.114 126.373 281.526 126.739 281.526 127.187ZM286.418 129.085C285.745 129.68 284.644 129.68 283.971 129.085C283.3 128.488 283.85 128 285.194 128C286.539 128 287.089 128.488 286.418 129.085ZM320.042 135.32C322.563 136.598 323.801 137.644 322.793 137.644C321.784 137.644 318.895 136.598 316.373 135.32C313.852 134.041 312.614 132.995 313.622 132.995C314.631 132.995 317.52 134.041 320.042 135.32ZM331.046 139.386C332.559 140.253 332.972 140.962 331.963 140.962C330.954 140.962 328.891 140.253 327.378 139.386C325.865 138.519 325.452 137.81 326.461 137.81C327.47 137.81 329.533 138.519 331.046 139.386ZM336.548 141.826C336.548 142.273 336.135 142.639 335.631 142.639C335.127 142.639 334.714 142.273 334.714 141.826C334.714 141.378 335.127 141.012 335.631 141.012C336.135 141.012 336.548 141.378 336.548 141.826ZM345.718 149.958C345.718 150.406 345.306 150.772 344.801 150.772C344.297 150.772 343.884 150.406 343.884 149.958C343.884 149.511 344.297 149.145 344.801 149.145C345.306 149.145 345.718 149.511 345.718 149.958ZM343.264 157.685C342.756 158.804 342.34 157.888 342.34 155.651C342.34 153.415 342.756 152.501 343.264 153.618C343.774 154.737 343.774 156.567 343.264 157.685ZM324.133 312.199C321.973 316.899 309.439 348.028 296.28 381.374C283.122 414.72 272.343 442.534 272.328 443.183C272.312 443.832 271.602 445.338 270.751 446.53C269.544 448.219 251.848 442.602 190.539 421.077C147.275 405.886 106.363 391.496 99.6242 389.099L87.3727 384.739L93.0325 370.307C98.1808 357.178 99.0098 356.024 102.216 357.547C104.318 358.544 105.31 360.216 104.673 361.686C104.086 363.043 103.133 365.829 102.551 367.88C101.568 371.351 102.821 372 120.811 377.343C135.198 381.616 140.579 382.596 141.901 381.182C142.877 380.138 144.245 377.275 144.94 374.819C145.635 372.365 147.249 370.356 148.526 370.356C149.804 370.356 158.587 373.532 168.044 377.417C177.5 381.299 199.923 390.172 217.873 397.134C235.823 404.095 251.092 409.276 251.802 408.645C252.511 408.015 251.774 406.646 250.162 405.6C248.55 404.556 225.21 395.283 198.295 384.995C151.015 366.922 149.393 366.151 150.347 362.223C150.888 359.987 151.821 355.925 152.418 353.197C153.496 348.266 153.408 348.204 135.44 341.403C125.506 337.643 116.793 334.567 116.076 334.568C115.36 334.57 113.816 337.408 112.644 340.875C110.968 345.84 109.785 347.007 107.069 346.377C105.174 345.938 103.622 344.978 103.622 344.245C103.622 343.511 106.155 337.192 109.249 330.203C112.345 323.212 115.322 316.579 115.865 315.46C116.408 314.342 115.733 313.428 114.364 313.43C112.879 313.431 109.29 319.824 105.46 329.289C101.933 338.009 99.0446 345.803 99.0409 346.607C99.0391 347.412 102.164 349.03 105.987 350.204C112.78 352.29 112.978 352.238 114.753 347.927C115.753 345.502 116.925 342.618 117.36 341.519C117.917 340.107 122.532 341.184 133.057 345.178C141.257 348.29 148.256 350.837 148.61 350.837C148.966 350.837 147.231 356.117 144.757 362.57C142.281 369.022 139.548 374.93 138.68 375.699C137.802 376.478 130.103 375.161 121.281 372.721C112.578 370.315 105.482 367.883 105.515 367.317C105.546 366.751 106.784 364.868 108.266 363.132C109.746 361.395 110.95 359.199 110.94 358.253C110.929 357.304 107.659 355.315 103.674 353.83L96.4256 351.132L92.906 359.523C90.9692 364.139 87.8642 371.74 86.0026 376.413C83.622 382.396 83.1947 385.421 84.5629 386.634C85.6321 387.583 126.053 402.644 174.388 420.105C222.723 437.566 264.416 452.251 267.043 452.737C271.292 453.523 272.171 452.843 275.028 446.553C276.794 442.666 288.941 412.768 302.022 380.115C315.102 347.462 326.784 318.184 327.979 315.053L330.155 309.36L417.332 307.161L421 305.534L328.06 303.651L324.133 312.199Z"/>
</mask>
<path fill-rule="evenodd" clip-rule="evenodd" d="M302.171 91.6385C298.899 93.0683 294.431 96.8093 292.241 99.9518C289.981 103.195 287.795 109.729 287.186 115.066L286.111 124.469L275.107 120.451C266.502 117.309 262.304 116.658 255.849 117.463C251.31 118.031 245.74 119.552 243.47 120.845C241.199 122.138 239.343 124.277 239.343 125.598C239.343 126.918 238.967 128 238.508 128C238.05 128 228.458 125.084 217.193 121.52C205.928 117.956 196.087 115.385 195.32 115.804C194.555 116.222 193.501 118.224 192.976 120.25C192.451 122.276 186.674 136.743 180.136 152.398C171.382 173.36 168.796 181.32 170.323 182.595C171.466 183.548 174.698 185.191 177.506 186.245C181.5 187.746 182.782 187.722 183.402 186.139C183.839 185.027 185.915 179.95 188.017 174.861L191.839 165.606L206.675 171.967C214.833 175.468 221.877 178.657 222.328 179.057C222.779 179.458 219.227 187.528 214.436 196.995C209.644 206.462 204.85 214.207 203.78 214.207C202.711 214.207 196.244 212.262 189.411 209.884C182.577 207.506 176.985 205.033 176.985 204.389C176.985 203.745 178.28 200.471 179.861 197.114C181.443 193.755 182.063 190.482 181.236 189.84C180.411 189.197 176.326 187.504 172.158 186.078L164.579 183.483L155.016 207.906C149.756 221.338 145.74 232.481 146.088 232.668C146.437 232.856 149.753 234.228 153.457 235.72C158.611 237.795 160.599 237.974 161.931 236.486C162.886 235.414 164.665 231.795 165.883 228.439C167.103 225.085 168.504 222.34 169.001 222.34C169.498 222.34 175.982 224.584 183.41 227.327L196.917 232.314L190.616 245.369C187.151 252.55 184.655 258.914 185.071 259.511C185.488 260.108 184.712 262.95 183.347 265.826L180.869 271.055L168.381 265.951C161.513 263.143 155.618 260.661 155.281 260.434C154.945 260.208 156.388 256.574 158.49 252.359C160.592 248.145 162.312 244.459 162.312 244.168C162.312 243.875 158.494 242.14 153.826 240.308C149.158 238.477 144.619 236.979 143.739 236.979C142.858 236.979 142.138 237.921 142.138 239.071C142.138 240.221 137.598 251.192 132.05 263.453C126.502 275.713 121.963 286.349 121.963 287.086C121.963 287.825 125.319 290.102 129.42 292.146C133.521 294.191 137.134 295.606 137.45 295.292C137.765 294.978 139.981 291.297 142.372 287.114L146.723 279.507L158.382 285.741C164.794 289.172 170.751 292.608 171.62 293.379C172.502 294.162 170.184 302.064 166.358 311.307C162.595 320.398 158.954 328.334 158.266 328.942C157.58 329.552 150.037 327.61 141.505 324.629L125.992 319.206L131.32 309.847L136.648 300.486L129.378 297.197C125.38 295.388 121.796 293.908 121.413 293.908C121.029 293.908 119.669 296.724 118.388 300.164L116.059 306.419L56.9389 305.534L1 307.161V307.771C143.829 307.771 116.413 311.371 117.923 309.757C118.973 308.635 120.402 305.707 121.097 303.251C121.792 300.796 122.739 298.788 123.199 298.788C123.661 298.788 125.587 299.523 127.482 300.422C130.798 301.997 130.757 302.392 126.339 311.25C122.59 318.77 122.19 320.805 124.151 322.418C125.47 323.503 134.145 326.981 143.429 330.144C155.812 334.365 160.757 335.396 161.99 334.015C162.912 332.979 164.709 329.204 165.982 325.626C167.255 322.047 168.658 318.557 169.102 317.87C169.544 317.182 172.117 318.007 174.821 319.702C177.524 321.397 187.164 326.073 196.242 330.095C205.321 334.118 225.542 342.574 241.177 348.887C256.812 355.201 270.74 360.601 272.127 360.888C273.513 361.176 274.99 360.597 275.404 359.601C275.837 358.567 260.636 351.699 239.869 343.55C219.909 335.717 196.296 325.941 187.393 321.828C173.905 315.595 171.345 313.796 172.031 311.04C172.484 309.222 173.957 304.253 175.303 299.999C177.403 293.363 177.37 291.935 175.076 289.947C173.603 288.674 165.969 284.573 158.112 280.834L143.825 274.036L139.939 282.194C136.313 289.803 135.764 290.234 131.759 288.615C129.398 287.66 127.465 286.338 127.465 285.674C127.465 285.012 131.049 276.164 135.429 266.011C139.807 255.858 143.887 246.318 144.494 244.812C145.441 242.464 146.405 242.342 151.24 243.96C154.345 244.999 156.513 246.706 156.06 247.751C155.609 248.797 154.22 252.662 152.979 256.338C151.737 260.016 151.059 263.246 151.473 263.516C151.886 263.788 159.172 266.738 167.664 270.073C179.567 274.749 183.439 275.658 184.57 274.045C185.377 272.891 187.052 268.449 188.292 264.173C190.032 258.169 191.195 256.634 193.394 257.442C194.96 258.02 216.463 264.518 241.177 271.886C265.891 279.253 290.344 287.189 295.517 289.521C300.69 291.854 305.435 293.306 306.062 292.75C306.69 292.194 307.203 291.249 307.203 290.648C307.203 290.048 302.501 287.514 296.753 285.017C291.005 282.522 271.402 276.187 253.194 270.941C234.983 265.696 213.895 259.807 206.33 257.857C198.764 255.907 192.319 254.152 192.009 253.955C191.698 253.758 193.556 249.149 196.136 243.711C198.717 238.272 200.828 232.803 200.828 231.558C200.828 230.245 193.943 226.732 184.459 223.205C175.457 219.856 167.297 217.553 166.327 218.083C165.357 218.615 164.044 221.437 163.411 224.355C162.776 227.273 161.549 230.65 160.684 231.86C159.477 233.55 158.232 233.644 155.334 232.268C151.598 230.495 151.634 230.271 158.773 211.362C162.742 200.85 166.388 191.302 166.875 190.146C167.572 188.488 168.642 188.449 171.914 189.959C174.199 191.014 176.271 192.019 176.521 192.193C176.77 192.367 175.646 195.969 174.023 200.194C172.398 204.42 171.369 208.101 171.736 208.374C172.101 208.648 180.051 211.276 189.405 214.215C198.759 217.153 207.012 219.025 207.746 218.374C208.479 217.722 210.458 214.14 212.14 210.412C213.89 206.538 216.245 203.833 217.642 204.096C218.987 204.352 244.7 213.02 274.784 223.36C304.868 233.7 329.986 241.714 330.6 241.169C331.215 240.624 330.949 239.51 330.006 238.695C329.065 237.88 305.598 229.516 277.858 220.11C250.118 210.704 225.211 202.272 222.508 201.372L217.596 199.737L222.866 188.674C225.763 182.589 227.561 177.158 226.86 176.605C226.16 176.052 217.541 172.255 207.707 168.169C191.755 161.539 189.655 161.035 188.235 163.482C187.36 164.989 185.258 169.989 183.565 174.593C181.089 181.323 179.824 182.805 177.097 182.174C173.992 181.453 174.632 178.916 184.75 151.847C190.823 135.601 196.38 121.73 197.099 121.022C197.818 120.316 206.478 122.328 216.342 125.495C226.207 128.662 235.856 131.253 237.786 131.253C239.713 131.253 241.61 132.169 241.999 133.286C242.387 134.405 243.242 137.476 243.901 140.111C244.557 142.748 247.888 147.24 251.303 150.095C255.479 153.589 266.382 158.39 284.648 164.781C303.792 171.478 314.312 174.288 320.352 174.316C326.989 174.347 330.026 173.441 333.85 170.29C336.563 168.054 339.466 164.76 340.301 162.971C341.768 159.825 341.821 159.835 341.935 163.236C342.026 166.05 344.523 167.587 354.43 170.926C361.238 173.223 370.111 176.134 374.146 177.398C378.181 178.661 381.334 180.323 381.154 181.092C380.973 181.86 369.625 208.256 355.936 239.749C342.247 271.242 338.552 286.561 335.716 292.522C335.716 292.522 335.755 292.75 336.633 292.75C337.514 292.75 339.013 289.617 344.84 276.423C350.668 263.226 362.704 236.022 371.586 215.965C380.468 195.91 387.401 179.02 386.99 178.433C386.581 177.844 377.261 174.241 366.276 170.424L346.305 163.483L348.205 156.118C349.83 149.82 349.654 148.462 346.995 146.738C345.284 145.629 343.884 143.878 343.884 142.85C343.884 141.822 338.56 138.654 332.053 135.807C321.391 131.146 320.551 130.428 323.561 128.56C325.397 127.419 328.245 123.971 329.89 120.897C331.534 117.824 332.876 112.858 332.873 109.862C332.869 106.866 331.316 102.161 329.421 99.4053C327.526 96.6499 323.072 93.1724 319.523 91.6792C315.972 90.1844 311.955 88.9791 310.594 89.0003C309.233 89.0198 305.443 90.2072 302.171 91.6385ZM322.131 98.1138C324.038 99.6444 326.277 103.153 327.105 105.91C327.932 108.665 327.939 113.052 327.121 115.655C326.301 118.259 323.818 122.101 321.601 124.194C319.383 126.287 316.515 128 315.227 128C313.941 128 312.183 129.117 311.321 130.482C309.945 132.663 308.634 132.551 300.507 129.555L291.26 126.147L292.03 117.72C292.452 113.086 293.675 107.257 294.746 104.766C295.819 102.276 298.853 98.7335 301.49 96.8939C305.021 94.4313 307.918 93.784 312.474 94.4395C315.878 94.929 320.223 96.5832 322.131 98.1138ZM263.186 120.681C263.186 121.128 262.773 121.494 262.269 121.494C261.764 121.494 261.352 121.128 261.352 120.681C261.352 120.233 261.764 119.867 262.269 119.867C262.773 119.867 263.186 120.233 263.186 120.681ZM268.077 122.579C267.404 123.174 266.304 123.174 265.631 122.579C264.959 121.982 265.509 121.494 266.854 121.494C268.198 121.494 268.748 121.982 268.077 122.579ZM245.069 127.471C243.471 129.91 243.112 129.98 243.066 127.865C243.037 126.448 243.561 124.801 244.234 124.205C244.906 123.608 245.808 123.431 246.235 123.812C246.664 124.192 246.14 125.838 245.069 127.471ZM273.257 128.763C283.309 132.523 288.309 133.675 289.178 132.428C290.053 131.172 295.454 132.294 306.618 136.05C315.515 139.043 326.301 142.821 330.587 144.448C336.942 146.857 338.382 148.195 338.382 151.687C338.382 154.044 337.036 158.488 335.393 161.561C333.747 164.635 330.738 167.94 328.704 168.904C326.67 169.871 321.621 170.292 317.481 169.845C313.342 169.396 298.93 165.194 285.455 160.51C271.753 155.746 258.3 149.923 254.929 147.297C251.613 144.716 248.387 140.788 247.759 138.569C247.13 136.346 247.825 131.97 249.306 128.826C251.004 125.222 253.21 123.15 255.297 123.2C257.115 123.244 265.196 125.747 273.257 128.763ZM272.356 123.934C272.356 124.381 271.943 124.747 271.439 124.747C270.935 124.747 270.522 124.381 270.522 123.934C270.522 123.486 270.935 123.12 271.439 123.12C271.943 123.12 272.356 123.486 272.356 123.934ZM277.247 125.832C276.574 126.427 275.474 126.427 274.801 125.832C274.13 125.235 274.68 124.747 276.024 124.747C277.369 124.747 277.919 125.235 277.247 125.832ZM281.526 127.187C281.526 127.634 281.114 128 280.609 128C280.105 128 279.692 127.634 279.692 127.187C279.692 126.739 280.105 126.373 280.609 126.373C281.114 126.373 281.526 126.739 281.526 127.187ZM286.418 129.085C285.745 129.68 284.644 129.68 283.971 129.085C283.3 128.488 283.85 128 285.194 128C286.539 128 287.089 128.488 286.418 129.085ZM320.042 135.32C322.563 136.598 323.801 137.644 322.793 137.644C321.784 137.644 318.895 136.598 316.373 135.32C313.852 134.041 312.614 132.995 313.622 132.995C314.631 132.995 317.52 134.041 320.042 135.32ZM331.046 139.386C332.559 140.253 332.972 140.962 331.963 140.962C330.954 140.962 328.891 140.253 327.378 139.386C325.865 138.519 325.452 137.81 326.461 137.81C327.47 137.81 329.533 138.519 331.046 139.386ZM336.548 141.826C336.548 142.273 336.135 142.639 335.631 142.639C335.127 142.639 334.714 142.273 334.714 141.826C334.714 141.378 335.127 141.012 335.631 141.012C336.135 141.012 336.548 141.378 336.548 141.826ZM345.718 149.958C345.718 150.406 345.306 150.772 344.801 150.772C344.297 150.772 343.884 150.406 343.884 149.958C343.884 149.511 344.297 149.145 344.801 149.145C345.306 149.145 345.718 149.511 345.718 149.958ZM343.264 157.685C342.756 158.804 342.34 157.888 342.34 155.651C342.34 153.415 342.756 152.501 343.264 153.618C343.774 154.737 343.774 156.567 343.264 157.685ZM324.133 312.199C321.973 316.899 309.439 348.028 296.28 381.374C283.122 414.72 272.343 442.534 272.328 443.183C272.312 443.832 271.602 445.338 270.751 446.53C269.544 448.219 251.848 442.602 190.539 421.077C147.275 405.886 106.363 391.496 99.6242 389.099L87.3727 384.739L93.0325 370.307C98.1808 357.178 99.0098 356.024 102.216 357.547C104.318 358.544 105.31 360.216 104.673 361.686C104.086 363.043 103.133 365.829 102.551 367.88C101.568 371.351 102.821 372 120.811 377.343C135.198 381.616 140.579 382.596 141.901 381.182C142.877 380.138 144.245 377.275 144.94 374.819C145.635 372.365 147.249 370.356 148.526 370.356C149.804 370.356 158.587 373.532 168.044 377.417C177.5 381.299 199.923 390.172 217.873 397.134C235.823 404.095 251.092 409.276 251.802 408.645C252.511 408.015 251.774 406.646 250.162 405.6C248.55 404.556 225.21 395.283 198.295 384.995C151.015 366.922 149.393 366.151 150.347 362.223C150.888 359.987 151.821 355.925 152.418 353.197C153.496 348.266 153.408 348.204 135.44 341.403C125.506 337.643 116.793 334.567 116.076 334.568C115.36 334.57 113.816 337.408 112.644 340.875C110.968 345.84 109.785 347.007 107.069 346.377C105.174 345.938 103.622 344.978 103.622 344.245C103.622 343.511 106.155 337.192 109.249 330.203C112.345 323.212 115.322 316.579 115.865 315.46C116.408 314.342 115.733 313.428 114.364 313.43C112.879 313.431 109.29 319.824 105.46 329.289C101.933 338.009 99.0446 345.803 99.0409 346.607C99.0391 347.412 102.164 349.03 105.987 350.204C112.78 352.29 112.978 352.238 114.753 347.927C115.753 345.502 116.925 342.618 117.36 341.519C117.917 340.107 122.532 341.184 133.057 345.178C141.257 348.29 148.256 350.837 148.61 350.837C148.966 350.837 147.231 356.117 144.757 362.57C142.281 369.022 139.548 374.93 138.68 375.699C137.802 376.478 130.103 375.161 121.281 372.721C112.578 370.315 105.482 367.883 105.515 367.317C105.546 366.751 106.784 364.868 108.266 363.132C109.746 361.395 110.95 359.199 110.94 358.253C110.929 357.304 107.659 355.315 103.674 353.83L96.4256 351.132L92.906 359.523C90.9692 364.139 87.8642 371.74 86.0026 376.413C83.622 382.396 83.1947 385.421 84.5629 386.634C85.6321 387.583 126.053 402.644 174.388 420.105C222.723 437.566 264.416 452.251 267.043 452.737C271.292 453.523 272.171 452.843 275.028 446.553C276.794 442.666 288.941 412.768 302.022 380.115C315.102 347.462 326.784 318.184 327.979 315.053L330.155 309.36L417.332 307.161L421 305.534L328.06 303.651L324.133 312.199Z" fill="#16314F"/>
<path fill-rule="evenodd" clip-rule="evenodd" d="M302.171 91.6385C298.899 93.0683 294.431 96.8093 292.241 99.9518C289.981 103.195 287.795 109.729 287.186 115.066L286.111 124.469L275.107 120.451C266.502 117.309 262.304 116.658 255.849 117.463C251.31 118.031 245.74 119.552 243.47 120.845C241.199 122.138 239.343 124.277 239.343 125.598C239.343 126.918 238.967 128 238.508 128C238.05 128 228.458 125.084 217.193 121.52C205.928 117.956 196.087 115.385 195.32 115.804C194.555 116.222 193.501 118.224 192.976 120.25C192.451 122.276 186.674 136.743 180.136 152.398C171.382 173.36 168.796 181.32 170.323 182.595C171.466 183.548 174.698 185.191 177.506 186.245C181.5 187.746 182.782 187.722 183.402 186.139C183.839 185.027 185.915 179.95 188.017 174.861L191.839 165.606L206.675 171.967C214.833 175.468 221.877 178.657 222.328 179.057C222.779 179.458 219.227 187.528 214.436 196.995C209.644 206.462 204.85 214.207 203.78 214.207C202.711 214.207 196.244 212.262 189.411 209.884C182.577 207.506 176.985 205.033 176.985 204.389C176.985 203.745 178.28 200.471 179.861 197.114C181.443 193.755 182.063 190.482 181.236 189.84C180.411 189.197 176.326 187.504 172.158 186.078L164.579 183.483L155.016 207.906C149.756 221.338 145.74 232.481 146.088 232.668C146.437 232.856 149.753 234.228 153.457 235.72C158.611 237.795 160.599 237.974 161.931 236.486C162.886 235.414 164.665 231.795 165.883 228.439C167.103 225.085 168.504 222.34 169.001 222.34C169.498 222.34 175.982 224.584 183.41 227.327L196.917 232.314L190.616 245.369C187.151 252.55 184.655 258.914 185.071 259.511C185.488 260.108 184.712 262.95 183.347 265.826L180.869 271.055L168.381 265.951C161.513 263.143 155.618 260.661 155.281 260.434C154.945 260.208 156.388 256.574 158.49 252.359C160.592 248.145 162.312 244.459 162.312 244.168C162.312 243.875 158.494 242.14 153.826 240.308C149.158 238.477 144.619 236.979 143.739 236.979C142.858 236.979 142.138 237.921 142.138 239.071C142.138 240.221 137.598 251.192 132.05 263.453C126.502 275.713 121.963 286.349 121.963 287.086C121.963 287.825 125.319 290.102 129.42 292.146C133.521 294.191 137.134 295.606 137.45 295.292C137.765 294.978 139.981 291.297 142.372 287.114L146.723 279.507L158.382 285.741C164.794 289.172 170.751 292.608 171.62 293.379C172.502 294.162 170.184 302.064 166.358 311.307C162.595 320.398 158.954 328.334 158.266 328.942C157.58 329.552 150.037 327.61 141.505 324.629L125.992 319.206L131.32 309.847L136.648 300.486L129.378 297.197C125.38 295.388 121.796 293.908 121.413 293.908C121.029 293.908 119.669 296.724 118.388 300.164L116.059 306.419L56.9389 305.534L1 307.161V307.771C143.829 307.771 116.413 311.371 117.923 309.757C118.973 308.635 120.402 305.707 121.097 303.251C121.792 300.796 122.739 298.788 123.199 298.788C123.661 298.788 125.587 299.523 127.482 300.422C130.798 301.997 130.757 302.392 126.339 311.25C122.59 318.77 122.19 320.805 124.151 322.418C125.47 323.503 134.145 326.981 143.429 330.144C155.812 334.365 160.757 335.396 161.99 334.015C162.912 332.979 164.709 329.204 165.982 325.626C167.255 322.047 168.658 318.557 169.102 317.87C169.544 317.182 172.117 318.007 174.821 319.702C177.524 321.397 187.164 326.073 196.242 330.095C205.321 334.118 225.542 342.574 241.177 348.887C256.812 355.201 270.74 360.601 272.127 360.888C273.513 361.176 274.99 360.597 275.404 359.601C275.837 358.567 260.636 351.699 239.869 343.55C219.909 335.717 196.296 325.941 187.393 321.828C173.905 315.595 171.345 313.796 172.031 311.04C172.484 309.222 173.957 304.253 175.303 299.999C177.403 293.363 177.37 291.935 175.076 289.947C173.603 288.674 165.969 284.573 158.112 280.834L143.825 274.036L139.939 282.194C136.313 289.803 135.764 290.234 131.759 288.615C129.398 287.66 127.465 286.338 127.465 285.674C127.465 285.012 131.049 276.164 135.429 266.011C139.807 255.858 143.887 246.318 144.494 244.812C145.441 242.464 146.405 242.342 151.24 243.96C154.345 244.999 156.513 246.706 156.06 247.751C155.609 248.797 154.22 252.662 152.979 256.338C151.737 260.016 151.059 263.246 151.473 263.516C151.886 263.788 159.172 266.738 167.664 270.073C179.567 274.749 183.439 275.658 184.57 274.045C185.377 272.891 187.052 268.449 188.292 264.173C190.032 258.169 191.195 256.634 193.394 257.442C194.96 258.02 216.463 264.518 241.177 271.886C265.891 279.253 290.344 287.189 295.517 289.521C300.69 291.854 305.435 293.306 306.062 292.75C306.69 292.194 307.203 291.249 307.203 290.648C307.203 290.048 302.501 287.514 296.753 285.017C291.005 282.522 271.402 276.187 253.194 270.941C234.983 265.696 213.895 259.807 206.33 257.857C198.764 255.907 192.319 254.152 192.009 253.955C191.698 253.758 193.556 249.149 196.136 243.711C198.717 238.272 200.828 232.803 200.828 231.558C200.828 230.245 193.943 226.732 184.459 223.205C175.457 219.856 167.297 217.553 166.327 218.083C165.357 218.615 164.044 221.437 163.411 224.355C162.776 227.273 161.549 230.65 160.684 231.86C159.477 233.55 158.232 233.644 155.334 232.268C151.598 230.495 151.634 230.271 158.773 211.362C162.742 200.85 166.388 191.302 166.875 190.146C167.572 188.488 168.642 188.449 171.914 189.959C174.199 191.014 176.271 192.019 176.521 192.193C176.77 192.367 175.646 195.969 174.023 200.194C172.398 204.42 171.369 208.101 171.736 208.374C172.101 208.648 180.051 211.276 189.405 214.215C198.759 217.153 207.012 219.025 207.746 218.374C208.479 217.722 210.458 214.14 212.14 210.412C213.89 206.538 216.245 203.833 217.642 204.096C218.987 204.352 244.7 213.02 274.784 223.36C304.868 233.7 329.986 241.714 330.6 241.169C331.215 240.624 330.949 239.51 330.006 238.695C329.065 237.88 305.598 229.516 277.858 220.11C250.118 210.704 225.211 202.272 222.508 201.372L217.596 199.737L222.866 188.674C225.763 182.589 227.561 177.158 226.86 176.605C226.16 176.052 217.541 172.255 207.707 168.169C191.755 161.539 189.655 161.035 188.235 163.482C187.36 164.989 185.258 169.989 183.565 174.593C181.089 181.323 179.824 182.805 177.097 182.174C173.992 181.453 174.632 178.916 184.75 151.847C190.823 135.601 196.38 121.73 197.099 121.022C197.818 120.316 206.478 122.328 216.342 125.495C226.207 128.662 235.856 131.253 237.786 131.253C239.713 131.253 241.61 132.169 241.999 133.286C242.387 134.405 243.242 137.476 243.901 140.111C244.557 142.748 247.888 147.24 251.303 150.095C255.479 153.589 266.382 158.39 284.648 164.781C303.792 171.478 314.312 174.288 320.352 174.316C326.989 174.347 330.026 173.441 333.85 170.29C336.563 168.054 339.466 164.76 340.301 162.971C341.768 159.825 341.821 159.835 341.935 163.236C342.026 166.05 344.523 167.587 354.43 170.926C361.238 173.223 370.111 176.134 374.146 177.398C378.181 178.661 381.334 180.323 381.154 181.092C380.973 181.86 369.625 208.256 355.936 239.749C342.247 271.242 338.552 286.561 335.716 292.522C335.716 292.522 335.755 292.75 336.633 292.75C337.514 292.75 339.013 289.617 344.84 276.423C350.668 263.226 362.704 236.022 371.586 215.965C380.468 195.91 387.401 179.02 386.99 178.433C386.581 177.844 377.261 174.241 366.276 170.424L346.305 163.483L348.205 156.118C349.83 149.82 349.654 148.462 346.995 146.738C345.284 145.629 343.884 143.878 343.884 142.85C343.884 141.822 338.56 138.654 332.053 135.807C321.391 131.146 320.551 130.428 323.561 128.56C325.397 127.419 328.245 123.971 329.89 120.897C331.534 117.824 332.876 112.858 332.873 109.862C332.869 106.866 331.316 102.161 329.421 99.4053C327.526 96.6499 323.072 93.1724 319.523 91.6792C315.972 90.1844 311.955 88.9791 310.594 89.0003C309.233 89.0198 305.443 90.2072 302.171 91.6385ZM322.131 98.1138C324.038 99.6444 326.277 103.153 327.105 105.91C327.932 108.665 327.939 113.052 327.121 115.655C326.301 118.259 323.818 122.101 321.601 124.194C319.383 126.287 316.515 128 315.227 128C313.941 128 312.183 129.117 311.321 130.482C309.945 132.663 308.634 132.551 300.507 129.555L291.26 126.147L292.03 117.72C292.452 113.086 293.675 107.257 294.746 104.766C295.819 102.276 298.853 98.7335 301.49 96.8939C305.021 94.4313 307.918 93.784 312.474 94.4395C315.878 94.929 320.223 96.5832 322.131 98.1138ZM263.186 120.681C263.186 121.128 262.773 121.494 262.269 121.494C261.764 121.494 261.352 121.128 261.352 120.681C261.352 120.233 261.764 119.867 262.269 119.867C262.773 119.867 263.186 120.233 263.186 120.681ZM268.077 122.579C267.404 123.174 266.304 123.174 265.631 122.579C264.959 121.982 265.509 121.494 266.854 121.494C268.198 121.494 268.748 121.982 268.077 122.579ZM245.069 127.471C243.471 129.91 243.112 129.98 243.066 127.865C243.037 126.448 243.561 124.801 244.234 124.205C244.906 123.608 245.808 123.431 246.235 123.812C246.664 124.192 246.14 125.838 245.069 127.471ZM273.257 128.763C283.309 132.523 288.309 133.675 289.178 132.428C290.053 131.172 295.454 132.294 306.618 136.05C315.515 139.043 326.301 142.821 330.587 144.448C336.942 146.857 338.382 148.195 338.382 151.687C338.382 154.044 337.036 158.488 335.393 161.561C333.747 164.635 330.738 167.94 328.704 168.904C326.67 169.871 321.621 170.292 317.481 169.845C313.342 169.396 298.93 165.194 285.455 160.51C271.753 155.746 258.3 149.923 254.929 147.297C251.613 144.716 248.387 140.788 247.759 138.569C247.13 136.346 247.825 131.97 249.306 128.826C251.004 125.222 253.21 123.15 255.297 123.2C257.115 123.244 265.196 125.747 273.257 128.763ZM272.356 123.934C272.356 124.381 271.943 124.747 271.439 124.747C270.935 124.747 270.522 124.381 270.522 123.934C270.522 123.486 270.935 123.12 271.439 123.12C271.943 123.12 272.356 123.486 272.356 123.934ZM277.247 125.832C276.574 126.427 275.474 126.427 274.801 125.832C274.13 125.235 274.68 124.747 276.024 124.747C277.369 124.747 277.919 125.235 277.247 125.832ZM281.526 127.187C281.526 127.634 281.114 128 280.609 128C280.105 128 279.692 127.634 279.692 127.187C279.692 126.739 280.105 126.373 280.609 126.373C281.114 126.373 281.526 126.739 281.526 127.187ZM286.418 129.085C285.745 129.68 284.644 129.68 283.971 129.085C283.3 128.488 283.85 128 285.194 128C286.539 128 287.089 128.488 286.418 129.085ZM320.042 135.32C322.563 136.598 323.801 137.644 322.793 137.644C321.784 137.644 318.895 136.598 316.373 135.32C313.852 134.041 312.614 132.995 313.622 132.995C314.631 132.995 317.52 134.041 320.042 135.32ZM331.046 139.386C332.559 140.253 332.972 140.962 331.963 140.962C330.954 140.962 328.891 140.253 327.378 139.386C325.865 138.519 325.452 137.81 326.461 137.81C327.47 137.81 329.533 138.519 331.046 139.386ZM336.548 141.826C336.548 142.273 336.135 142.639 335.631 142.639C335.127 142.639 334.714 142.273 334.714 141.826C334.714 141.378 335.127 141.012 335.631 141.012C336.135 141.012 336.548 141.378 336.548 141.826ZM345.718 149.958C345.718 150.406 345.306 150.772 344.801 150.772C344.297 150.772 343.884 150.406 343.884 149.958C343.884 149.511 344.297 149.145 344.801 149.145C345.306 149.145 345.718 149.511 345.718 149.958ZM343.264 157.685C342.756 158.804 342.34 157.888 342.34 155.651C342.34 153.415 342.756 152.501 343.264 153.618C343.774 154.737 343.774 156.567 343.264 157.685ZM324.133 312.199C321.973 316.899 309.439 348.028 296.28 381.374C283.122 414.72 272.343 442.534 272.328 443.183C272.312 443.832 271.602 445.338 270.751 446.53C269.544 448.219 251.848 442.602 190.539 421.077C147.275 405.886 106.363 391.496 99.6242 389.099L87.3727 384.739L93.0325 370.307C98.1808 357.178 99.0098 356.024 102.216 357.547C104.318 358.544 105.31 360.216 104.673 361.686C104.086 363.043 103.133 365.829 102.551 367.88C101.568 371.351 102.821 372 120.811 377.343C135.198 381.616 140.579 382.596 141.901 381.182C142.877 380.138 144.245 377.275 144.94 374.819C145.635 372.365 147.249 370.356 148.526 370.356C149.804 370.356 158.587 373.532 168.044 377.417C177.5 381.299 199.923 390.172 217.873 397.134C235.823 404.095 251.092 409.276 251.802 408.645C252.511 408.015 251.774 406.646 250.162 405.6C248.55 404.556 225.21 395.283 198.295 384.995C151.015 366.922 149.393 366.151 150.347 362.223C150.888 359.987 151.821 355.925 152.418 353.197C153.496 348.266 153.408 348.204 135.44 341.403C125.506 337.643 116.793 334.567 116.076 334.568C115.36 334.57 113.816 337.408 112.644 340.875C110.968 345.84 109.785 347.007 107.069 346.377C105.174 345.938 103.622 344.978 103.622 344.245C103.622 343.511 106.155 337.192 109.249 330.203C112.345 323.212 115.322 316.579 115.865 315.46C116.408 314.342 115.733 313.428 114.364 313.43C112.879 313.431 109.29 319.824 105.46 329.289C101.933 338.009 99.0446 345.803 99.0409 346.607C99.0391 347.412 102.164 349.03 105.987 350.204C112.78 352.29 112.978 352.238 114.753 347.927C115.753 345.502 116.925 342.618 117.36 341.519C117.917 340.107 122.532 341.184 133.057 345.178C141.257 348.29 148.256 350.837 148.61 350.837C148.966 350.837 147.231 356.117 144.757 362.57C142.281 369.022 139.548 374.93 138.68 375.699C137.802 376.478 130.103 375.161 121.281 372.721C112.578 370.315 105.482 367.883 105.515 367.317C105.546 366.751 106.784 364.868 108.266 363.132C109.746 361.395 110.95 359.199 110.94 358.253C110.929 357.304 107.659 355.315 103.674 353.83L96.4256 351.132L92.906 359.523C90.9692 364.139 87.8642 371.74 86.0026 376.413C83.622 382.396 83.1947 385.421 84.5629 386.634C85.6321 387.583 126.053 402.644 174.388 420.105C222.723 437.566 264.416 452.251 267.043 452.737C271.292 453.523 272.171 452.843 275.028 446.553C276.794 442.666 288.941 412.768 302.022 380.115C315.102 347.462 326.784 318.184 327.979 315.053L330.155 309.36L417.332 307.161L421 305.534L328.06 303.651L324.133 312.199Z" stroke="#16314F" stroke-opacity="0.28" mask="url(#path-2-outside-1)"/>
</svg>
